<svg id="코트" xmlns="http://www.w3.org/2000/svg" width='100%' height='100%'  viewBox="0 0 139.92 244.41"><defs><style>.cls-1{fill:#fff;}</style></defs><g id="색"><path class="cls-1" d="M458.49,398.65c1.3-.78,2.47-1.39,3.53-2.13q9.54-6.72,19-13.49,12.3-8.73,24.6-17.49a33.61,33.61,0,0,0,2.8-2.25c.25-.22.31-.66.46-1L508,362c-.17,0-.39-.06-.49-.18-1.68-1.85-3.34-3.72-5.17-5.78a8.3,8.3,0,0,1,1,.21c3.27,1.17,6.54,2.32,9.8,3.52,6.11,2.24,9.8,6.78,11.94,12.75a62.62,62.62,0,0,1,3.66,22.69c-.35,16.73-3.45,33-8.28,49-2.64,8.75-4.81,17.64-7.51,26.38-2.88,9.34-6.12,18.57-9.21,27.85a1.54,1.54,0,0,1-.53.75c-.13-1.09-.25-2.18-.38-3.27-.32-2.77-.63-5.55-.95-8.32-.08-.75-.18-1.33-1.24-1.05-.66.18-1.06-.33-1.14-1-.48-4-1-8.08-1.46-12.13-.74-7-1.42-14.05-2.11-21.09-.44-4.48-1-9-1.18-13.47a77.1,77.1,0,0,1,.53-10.62c1.61-16,5.91-31.41,10-46.88a2,2,0,0,0,.08-.22c.05-.58.68-1.32-.24-1.61-.21-.06-.9.75-1,1.25-3.32,11.22-5.7,22.67-8.29,34.08-1.64,7.22-1.86,14.56-2.45,21.86-.25,3.11.38,6.29.66,9.43.51,5.6,1,11.21,1.6,16.8.8,7.46,1.68,14.91,2.53,22.37.05.46.07.93.12,1.51l-20.75,2.71c.13.79.23,1.52.35,2.25.33,2,.64,4,1,6,.86,4.89,2.8,6.59,7.75,7.06a44.38,44.38,0,0,0,12.86-.66c.38-.07.78-.08,1.34-.14.09,1.06.1,2.05.28,3,1.48,8.08,3,16.15,4.5,24.23.67,3.77,1,7.6,1.77,11.35,2.37,12.1,4.84,24.18,7.27,36.27.07.34.13.69.23,1.19h-1.39q-22.11,0-44.21,0c-7.3,0-14.6-.12-21.91-.14a1.16,1.16,0,0,1-1.32-1c-2.4-8.94-4.85-17.87-7.21-26.82a17,17,0,0,1-.44-4.22q0-20.5,0-41c0-12.38.1-24.77.1-37.15,0-11.31-.07-22.61-.1-33.92,0-.51,0-1,0-1.75,1.68-.07,3.29-.1,4.9-.23a4.23,4.23,0,0,0,1.89-.55,281.8,281.8,0,0,0,25.45-19.13,22.77,22.77,0,0,0,3.89-4.2c1.78-2.48,1.09-4.43-1.74-5.56l-12.69-5C459.64,399.15,459.18,398.94,458.49,398.65ZM442.21,520.73a5.14,5.14,0,0,0,4.76,5.42c2.59,0,4.69-2.5,4.68-5.62a4.69,4.69,0,0,0-4.63-4.91A5,5,0,0,0,442.21,520.73Zm9.88-65.83c0-2.32-2-4-4.74-4a5.08,5.08,0,0,0-5.3,4.76A5,5,0,0,0,447,460.4C449.63,460.44,452.09,457.79,452.09,454.9Z" transform="translate(-390.18 -337.22)"/><path class="cls-1" d="M396.53,441c-.42-2.55-.91-5.1-1.23-7.68-.91-7.32-1.79-14.65-2.59-22a158.08,158.08,0,0,1-1-26.19,57.73,57.73,0,0,1,1.41-9.7,19.34,19.34,0,0,1,13.15-14.66,89,89,0,0,1,21.1-4.64c1.74-.16,3.48-.35,5.35-.54a3,3,0,0,1-.21.58c-2.24,3.07-4.52,6.1-6.73,9.18-1.72,2.4-3.38,4.84-5,7.3a1.31,1.31,0,0,0,0,1.17c2.47,3.53,4.94,7.05,7.48,10.53,2.11,2.9,4.3,5.73,6.41,8.53a35.52,35.52,0,0,0-3.06,2c-3,2.36-6,4.75-8.93,7.22-1.68,1.41-3.22,3-4.79,4.52-.58.57-.84,1.12.3,1.41.31.08.6.5.75.83,2,4.42,4.08,8.84,6.05,13.29,3,6.79,5.94,13.6,8.91,20.41,1,2.16,2,4.29,2.84,6.47a5.27,5.27,0,0,1,.24,2q0,24.88,0,49.75c0,16.7.08,33.4,0,50.1,0,9.51-.34,19-.52,28.52,0,.12,0,.23-.08.53h-42.8c-.51-1.69,1.07-75.17,1.73-77.77l4.36.34c.89.07,1.34-.12,1.36-1.21.06-3.36.33-6.7.39-10.05a16.33,16.33,0,0,0-.47-3.67,2.68,2.68,0,0,0-2.43-2.14c-3.53-.63-2.9-.13-2.75-3.34.41-9.13.8-18.27,1.45-27.39.58-8,1.48-16,2.27-24,1.8-18,6.27-35.49,11.07-52.89.3-1.08.76-2.11,1-3.18a3,3,0,0,0-.18-1.14c-.35.2-.89.33-1,.62-.58,1.57-1.12,3.16-1.56,4.77-3.22,11.87-6.42,23.74-8.46,35.88-.87,5.15-1.6,10.33-2.32,15.5-.48,3.39-.81,6.8-1.21,10.2,0,.18-.07.35-.11.53Z" transform="translate(-390.18 -337.22)"/><path class="cls-1" d="M484.88,339.39l21.52,24L459.12,396.9l-.32-.35c.51-.88,1-1.77,1.52-2.64l21.08-34.15q1.89-3.06,3.74-6.13a1.71,1.71,0,0,0,.27-.88c-.15-1.69-.45-3.37-.51-5.06C484.82,345,484.88,342.34,484.88,339.39Z" transform="translate(-390.18 -337.22)"/><path class="cls-1" d="M457.13,399.57c5.23,2.09,10.35,4.11,15.45,6.19,1.71.69,2.05,1.68,1,3.2a20.32,20.32,0,0,1-3.41,3.82,283.74,283.74,0,0,1-25.81,19.45,3,3,0,0,1-1.44.35c-1.46,0-2.92,0-4.64,0a8.47,8.47,0,0,1,.55-1.75q8.85-15.22,17.75-30.42C456.71,400.16,456.9,399.9,457.13,399.57Z" transform="translate(-390.18 -337.22)"/><path class="cls-1" d="M437,394v51.46l-.19.09c-.35-.8-.67-1.61-1-2.38-4.37-8.82-8-18-11.65-27.07-1.13-2.8-2.63-5.45-4-8.15-.39-.74-.47-1.28.24-1.86,1.54-1.26,3-2.58,4.56-3.85,2.22-1.83,4.41-3.69,6.7-5.43a38.43,38.43,0,0,1,4.15-2.59A3.66,3.66,0,0,1,437,394Z" transform="translate(-390.18 -337.22)"/><path class="cls-1" d="M436.55,392.3c-1.88-2.37-3.55-4.35-5.08-6.43-2.45-3.33-4.82-6.73-7.21-10.1-.66-.92-1.8-1.84-1.81-2.78s1.16-1.81,1.78-2.74a224.54,224.54,0,0,1,18.42-24.33l3.11-3.55.28.14c-.1,1.69-.2,3.38-.31,5.07a2.21,2.21,0,0,0,0,.35c.41,2.77-1,4.78-2.6,6.81s-2.82,4.07-4.23,6.11a10.28,10.28,0,0,0-.67.81c-.39.71-1,1.44-1,2.17-.13,7.3-.15,14.61-.18,21.92,0,1.59.12,3.19.11,4.78A7.47,7.47,0,0,1,436.55,392.3Z" transform="translate(-390.18 -337.22)"/><path class="cls-1" d="M478.18,490.77l22.42-3c.26,2.14.54,4.42.79,6.7s.41,4.29.64,6.43c.19,1.7.07,1.7-1.65,1.79s-3.55.7-5.32.71c-3.42,0-6.85-.08-10.25-.34a4.4,4.4,0,0,1-4.06-3.4Z" transform="translate(-390.18 -337.22)"/><path class="cls-1" d="M399.6,501h-5.76c-.06-.75-.17-1.49-.16-2.23,0-3.51,0-7,.16-10.53.08-1.72.7-2.06,2.43-1.85.32,0,.62.14.94.2,2.43.46,2.81.77,2.82,3.25,0,3.51-.16,7-.26,10.54A2.66,2.66,0,0,1,399.6,501Z" transform="translate(-390.18 -337.22)"/><path class="cls-1" d="M450.35,520.48c0,2.27-1.51,4.28-3.3,4.3s-3.59-1.9-3.57-4.07a3.74,3.74,0,0,1,3.77-3.68A3.34,3.34,0,0,1,450.35,520.48Zm-3.7,2.59a2.55,2.55,0,0,0,2.74-2.74,2.09,2.09,0,0,0-2.38-2.08,2.81,2.81,0,0,0-2.55,2.53A2.32,2.32,0,0,0,446.65,523.07Z" transform="translate(-390.18 -337.22)"/><path class="cls-1" d="M447,459a3.5,3.5,0,0,1-3.53-3.33,4,4,0,0,1,3.73-3.5c2.11,0,3.68,1.23,3.65,2.83A4.25,4.25,0,0,1,447,459Zm.11-1.14a2.47,2.47,0,0,0,2.33-2.42,2.25,2.25,0,0,0-4.49.19A2.13,2.13,0,0,0,447.07,457.87Z" transform="translate(-390.18 -337.22)"/><path class="cls-1" d="M446.91,522.74a1.8,1.8,0,0,1-1.78-2,2.17,2.17,0,0,1,2.26-2.14,1.68,1.68,0,0,1,1.63,1.94A2.16,2.16,0,0,1,446.91,522.74Z" transform="translate(-390.18 -337.22)"/><path class="cls-1" d="M447.09,457.55a1.75,1.75,0,0,1-1.78-1.83,1.83,1.83,0,0,1,1.64-2,2.13,2.13,0,0,1,2.08,1.75A2.15,2.15,0,0,1,447.09,457.55Z" transform="translate(-390.18 -337.22)"/></g><g id="선"><path d="M517,581.62c-1.16-.12-2-.28-2.8-.29-4.15,0-8.31,0-12.46,0l-48.63,0c-1.72,0-3.43,0-5.15,0-.28,0-.61-.09-.83,0-1.53.84-1.71-.27-2-1.31q-3.14-11.12-6.29-22.23a.88.88,0,0,0-.47-.58c-.08,4.26-.15,8.53-.24,12.79-.06,3.07-.12,6.14-.2,9.21,0,1.42-.76,2.07-2.28,2.07l-42.28,0h-1.2c0-.72,0-1.38,0-2,.07-6.75.08-13.5.23-20.26.25-11.62.6-23.24.9-34.86.17-6.63.35-13.26.49-19.89,0-.39-.36-.79-.53-1.18a5.76,5.76,0,0,1-.78-1.92c-.09-4.23-.12-8.46,0-12.69a4.3,4.3,0,0,1,1.62-3.71c.21-.15.27-.63.28-1,.42-11.69.8-23.39,1.24-35.08.16-4.39-.75-8.66-1.28-13-.9-7.41-1.82-14.82-2.66-22.23a158.94,158.94,0,0,1-1.34-25.7,80.54,80.54,0,0,1,1.42-12.1,20.78,20.78,0,0,1,14.76-16.46,91,91,0,0,1,22-4.6c1-.06,2-.26,3-.31.72,0,1.44.07,2.34.12,2.69-3.25,5.55-6.67,8.37-10.14,1.21-1.48,2.31-3.06,3.52-4.55a4.15,4.15,0,0,1,1.23-.74,4.32,4.32,0,0,1,.59,1.47c0,1.35-.1,2.71-.19,4.06-.17,2.46-.34,4.93-.54,7.38a1.63,1.63,0,0,1-.38.72c-2.53,3.68-5.1,7.33-7.59,11a3.91,3.91,0,0,0-.52,2c0,5.24,0,10.47,0,15.71q.09,23,.19,46a1.7,1.7,0,0,0,.22.95c.22-.33.47-.65.67-1,5.62-9.71,11.15-19.48,16.88-29.13,5.07-8.55,10.36-17,15.55-25.45,3.88-6.33,7.78-12.65,11.64-19a3.3,3.3,0,0,0,.31-1.64c0-4.47,0-8.94,0-13.41a1.41,1.41,0,0,1,1.09-1.51c.86-.27,1,.42,1.33.85,3.06,3.53,6.12,7.06,9.22,10.56,1.45,1.64,3,3.24,4.5,4.81a3.16,3.16,0,0,0,1.38.78A79.65,79.65,0,0,1,516,359.63a19,19,0,0,1,8.71,8.76,52.79,52.79,0,0,1,4.67,15.53c1.18,7,.57,13.92.17,20.9-.87,15.41-5.27,30-9.22,44.82-4.61,17.26-10.33,34.16-15.91,51.1a7.17,7.17,0,0,0-.1,1.68c0,.22,0,.52-.17.64a4.77,4.77,0,0,0-1.4,4.76c1.06,6.37,2.08,12.76,3.19,19.12,3,17.32,6,34.65,10.07,51.77C516.25,579.59,516.6,580.44,517,581.62Zm-58.5-183c.69.29,1.15.5,1.62.68l12.69,5c2.83,1.13,3.52,3.08,1.74,5.56a22.77,22.77,0,0,1-3.89,4.2,281.8,281.8,0,0,1-25.45,19.13,4.23,4.23,0,0,1-1.89.55c-1.61.13-3.22.16-4.9.23,0,.72,0,1.24,0,1.75,0,11.31.1,22.61.1,33.92,0,12.38-.08,24.77-.1,37.15q0,20.5,0,41a17,17,0,0,0,.44,4.22c2.36,8.95,4.81,17.88,7.21,26.82a1.16,1.16,0,0,0,1.32,1c7.31,0,14.61.13,21.91.14q22.11,0,44.21,0h1.39c-.1-.5-.16-.85-.23-1.19-2.43-12.09-4.9-24.17-7.27-36.27-.73-3.75-1.1-7.58-1.77-11.35-1.46-8.08-3-16.15-4.5-24.23-.18-.95-.19-1.94-.28-3-.56.06-1,.07-1.34.14a44.38,44.38,0,0,1-12.86.66c-4.95-.47-6.89-2.17-7.75-7.06-.35-2-.66-4-1-6-.12-.73-.22-1.46-.35-2.25l20.75-2.71c-.05-.58-.07-1-.12-1.51-.85-7.46-1.73-14.91-2.53-22.37-.59-5.59-1.09-11.2-1.6-16.8-.28-3.14-.91-6.32-.66-9.43.59-7.3.81-14.64,2.45-21.86,2.59-11.41,5-22.86,8.29-34.08.14-.5.83-1.31,1-1.25.92.29.29,1,.24,1.61a2,2,0,0,1-.08.22c-4.11,15.47-8.41,30.89-10,46.88a77.1,77.1,0,0,0-.53,10.62c.15,4.5.74,9,1.18,13.47.69,7,1.37,14.07,2.11,21.09.43,4.05,1,8.09,1.46,12.13.08.71.48,1.22,1.14,1,1.06-.28,1.16.3,1.24,1.05.32,2.77.63,5.55.95,8.32.13,1.09.25,2.18.38,3.27a1.54,1.54,0,0,0,.53-.75c3.09-9.28,6.33-18.51,9.21-27.85,2.7-8.74,4.87-17.63,7.51-26.38,4.83-16,7.93-32.23,8.28-49a62.62,62.62,0,0,0-3.66-22.69c-2.14-6-5.83-10.51-11.94-12.75-3.26-1.2-6.53-2.35-9.8-3.52a8.3,8.3,0,0,0-1-.21c1.83,2.06,3.49,3.93,5.17,5.78.1.12.32.13.49.18l.92.28c-.15.33-.21.77-.46,1a33.61,33.61,0,0,1-2.8,2.25q-12.29,8.76-24.6,17.49-9.51,6.77-19,13.49C461,397.26,459.79,397.87,458.49,398.65Zm-62,42.33h.28c0-.18.08-.35.11-.53.4-3.4.73-6.81,1.21-10.2.72-5.17,1.45-10.35,2.32-15.5,2-12.14,5.24-24,8.46-35.88.44-1.61,1-3.2,1.56-4.77.11-.29.65-.42,1-.62a3,3,0,0,1,.18,1.14c-.29,1.07-.75,2.1-1,3.18-4.8,17.4-9.27,34.87-11.07,52.89-.79,8-1.69,16-2.27,24-.65,9.12-1,18.26-1.45,27.39-.15,3.21-.78,2.71,2.75,3.34a2.68,2.68,0,0,1,2.43,2.14,16.33,16.33,0,0,1,.47,3.67c-.06,3.35-.33,6.69-.39,10.05,0,1.09-.47,1.28-1.36,1.21l-4.36-.34c-.66,2.6-2.24,76.08-1.73,77.77h42.8c0-.3.08-.41.08-.53.18-9.51.48-19,.52-28.52.08-16.7,0-33.4,0-50.1s0-33.16,0-49.75a5.27,5.27,0,0,0-.24-2c-.89-2.18-1.89-4.31-2.84-6.47-3-6.81-5.91-13.62-8.91-20.41-2-4.45-4-8.87-6.05-13.29-.15-.33-.44-.75-.75-.83-1.14-.29-.88-.84-.3-1.41,1.57-1.53,3.11-3.11,4.79-4.52,2.92-2.47,5.92-4.86,8.93-7.22a35.52,35.52,0,0,1,3.06-2c-2.11-2.8-4.3-5.63-6.41-8.53-2.54-3.48-5-7-7.48-10.53a1.31,1.31,0,0,1,0-1.17c1.63-2.46,3.29-4.9,5-7.3,2.21-3.08,4.49-6.11,6.73-9.18a3,3,0,0,0,.21-.58c-1.87.19-3.61.38-5.35.54a89,89,0,0,0-21.1,4.64,19.34,19.34,0,0,0-13.15,14.66,57.73,57.73,0,0,0-1.41,9.7,158.08,158.08,0,0,0,1,26.19c.8,7.34,1.68,14.67,2.59,22C395.62,435.88,396.11,438.43,396.53,441Zm88.35-101.59c0,2.95-.06,5.63,0,8.3.06,1.69.36,3.37.51,5.06a1.71,1.71,0,0,1-.27.88q-1.84,3.08-3.74,6.13l-21.08,34.15c-.53.87-1,1.76-1.52,2.64l.32.35,47.28-33.48Zm-27.75,60.18c-.23.33-.42.59-.57.85q-8.9,15.21-17.75,30.42a8.47,8.47,0,0,0-.55,1.75c1.72,0,3.18,0,4.64,0a3,3,0,0,0,1.44-.35,283.74,283.74,0,0,0,25.81-19.45,20.32,20.32,0,0,0,3.41-3.82c1.07-1.52.73-2.51-1-3.2C467.48,403.68,462.36,401.66,457.13,399.57ZM437,394a3.66,3.66,0,0,0-1.27.22,38.43,38.43,0,0,0-4.15,2.59c-2.29,1.74-4.48,3.6-6.7,5.43-1.53,1.27-3,2.59-4.56,3.85-.71.58-.63,1.12-.24,1.86,1.4,2.7,2.9,5.35,4,8.15,3.7,9.1,7.28,18.25,11.65,27.07.38.77.7,1.58,1,2.38l.19-.09Zm-.42-1.69a7.47,7.47,0,0,0,.53-1.77c0-1.59-.12-3.19-.11-4.78,0-7.31,0-14.62.18-21.92,0-.73.65-1.46,1-2.17a10.28,10.28,0,0,1,.67-.81c1.41-2,2.69-4.17,4.23-6.11s3-4,2.6-6.81a2.21,2.21,0,0,1,0-.35c.11-1.69.21-3.38.31-5.07l-.28-.14-3.11,3.55a224.54,224.54,0,0,0-18.42,24.33c-.62.93-1.79,1.83-1.78,2.74s1.15,1.86,1.81,2.78c2.39,3.37,4.76,6.77,7.21,10.1C433,388,434.67,389.93,436.55,392.3Zm41.63,98.47,2.57,8.91a4.4,4.4,0,0,0,4.06,3.4c3.4.26,6.83.38,10.25.34,1.77,0,3.54-.61,5.32-.71s1.84-.09,1.65-1.79c-.23-2.14-.4-4.29-.64-6.43s-.53-4.56-.79-6.7ZM399.6,501a2.66,2.66,0,0,0,.17-.62c.1-3.51.27-7,.26-10.54,0-2.48-.39-2.79-2.82-3.25-.32-.06-.62-.17-.94-.2-1.73-.21-2.35.13-2.43,1.85-.16,3.51-.13,7-.16,10.53,0,.74.1,1.48.16,2.23Z" transform="translate(-390.18 -337.22)"/><path d="M442.21,520.73a5,5,0,0,1,4.81-5.11,4.69,4.69,0,0,1,4.63,4.91c0,3.12-2.09,5.64-4.68,5.62A5.14,5.14,0,0,1,442.21,520.73Zm8.14-.25a3.34,3.34,0,0,0-3.1-3.45,3.74,3.74,0,0,0-3.77,3.68c0,2.17,1.67,4.1,3.57,4.07S450.38,522.75,450.35,520.48Z" transform="translate(-390.18 -337.22)"/><path d="M452.09,454.9c0,2.89-2.46,5.54-5.09,5.5a5,5,0,0,1-4.95-4.72,5.08,5.08,0,0,1,5.3-4.76C450.11,450.91,452.1,452.58,452.09,454.9ZM447,459a4.25,4.25,0,0,0,3.85-4c0-1.6-1.54-2.81-3.65-2.83a4,4,0,0,0-3.73,3.5A3.5,3.5,0,0,0,447,459Z" transform="translate(-390.18 -337.22)"/><path d="M446.65,523.07a2.32,2.32,0,0,1-2.19-2.29,2.81,2.81,0,0,1,2.55-2.53,2.09,2.09,0,0,1,2.38,2.08A2.55,2.55,0,0,1,446.65,523.07Zm.26-.33a2.16,2.16,0,0,0,2.11-2.17,1.68,1.68,0,0,0-1.63-1.94,2.17,2.17,0,0,0-2.26,2.14A1.8,1.8,0,0,0,446.91,522.74Z" transform="translate(-390.18 -337.22)"/><path d="M447.07,457.87a2.13,2.13,0,0,1-2.16-2.23,2.25,2.25,0,0,1,4.49-.19A2.47,2.47,0,0,1,447.07,457.87Zm0-.32a2.15,2.15,0,0,0,1.94-2.06,2.13,2.13,0,0,0-2.08-1.75,1.83,1.83,0,0,0-1.64,2A1.75,1.75,0,0,0,447.09,457.55Z" transform="translate(-390.18 -337.22)"/></g></svg>