<svg id="후드티" xmlns="http://www.w3.org/2000/svg" width='100%' height='100%' viewBox="0 0 140.22 191.02"><defs><style>.cls-1{fill:#fff;}</style></defs><g id="색"><path class="cls-1" d="M497.7,512.06c-.37-2.24-.71-4.12-1-6-.54-3.55-1.13-7.09-1.56-10.65-.27-2.23-.3-4.5-.4-6.75s-.15-4.39-.27-6.58a19.88,19.88,0,0,1,1.18-8.17,60.34,60.34,0,0,0,2.6-9.45,27.85,27.85,0,0,0-1-13.37c-.79-2.68-1.43-5.42-2.44-8a16.15,16.15,0,0,1-.79-8.67c1.45-8.89,2.73-17.82,4.28-26.7a104.5,104.5,0,0,1,7.59-24.28c.52-1.17,1-2.35,1.42-3.56.12-.36-.1-.83-.17-1.25-.17.12-.39.22-.58.34l-.84-2.3.94-.34.35-.11c4.81-1.34,7.36-4.58,8.09-9.45a10.84,10.84,0,0,0-.78-6.9,8.32,8.32,0,0,1,.83.45,21.43,21.43,0,0,1,7.69,10c1.55,4.22,3.54,8.3,4.87,12.59,1.89,6.09,1.87,12.44,1.63,18.77-.4,10.57-3.06,20.72-5.62,30.91-2.52,10-4.48,20.18-7.71,30-2.41,7.32-4.76,14.66-7.43,21.88-3.29,8.9-6.88,17.7-10.34,26.54C498.14,511.24,498,511.48,497.7,512.06Z" transform="translate(-390.52 -324.86)"/><path class="cls-1" d="M492.76,476.76v8.47h-3.11v-8.47Z" transform="translate(-390.52 -324.86)"/><path class="cls-1" d="M489,476.74v8.46h-8v-8.46Z" transform="translate(-390.52 -324.86)"/><path class="cls-1" d="M485,349.15c.13-3.86.3-7.72.45-11.58l.58-.31c2.75,2.46,5.84,4.63,8.17,7.44,2.78,3.35,1.19,6.5-1.46,9.24a1.32,1.32,0,0,1-1.09.21,47.07,47.07,0,0,1-4.51-1.56A3.39,3.39,0,0,1,485,349.15Z" transform="translate(-390.52 -324.86)"/><path class="cls-1" d="M480.36,476.75v8.46H455.48v-8.46Z" transform="translate(-390.52 -324.86)"/><path class="cls-1" d="M461.1,447.47l2-.15c.4,2.12.77,4.13,1.15,6.14-1.78.12-2.08-.08-2.4-1.74C461.57,450.37,461.36,449,461.1,447.47Z" transform="translate(-390.52 -324.86)"/><path class="cls-1" d="M459.17,443.67c1.55-.3,3.1-.64,4.63-1.06,1.3-.35,1.65-.24,2,.93a1.67,1.67,0,0,1-1.2,2.23c-1.32.27-2.67.36-4.48.58a5.51,5.51,0,0,1-1.7-1C457.72,444.61,458.14,443.87,459.17,443.67Z" transform="translate(-390.52 -324.86)"/><path class="cls-1" d="M461.79,438c-.73.15-1.43.44-2.45.76-.48-20.06,3.41-39.16,8.78-58.05h3c-.38,1.49-.77,2.86-1.09,4.25-1.16,5-2.43,10-3.41,15.05s-1.8,10.14-2.44,15.24a117.94,117.94,0,0,0-1.08,20.91C463.13,437.2,462.85,437.76,461.79,438Z" transform="translate(-390.52 -324.86)"/><path class="cls-1" d="M458.73,443.21c-.47.09-1.29.4-1.32-.47s.14-1.92.56-2.09c2-.83,4.17-1.38,6.35-2l.53,3.33C462.76,442.37,460.75,442.82,458.73,443.21Z" transform="translate(-390.52 -324.86)"/><path class="cls-1" d="M453.6,476.66a8.12,8.12,0,0,0,1.23,0v8.54h-2.52v-3c0-1.39.06-2.79,0-4.18C452.23,477,452.5,476.49,453.6,476.66Z" transform="translate(-390.52 -324.86)"/><path class="cls-1" d="M451.69,476.73v8.47H428.42v-8.47Z" transform="translate(-390.52 -324.86)"/><path class="cls-1" d="M431.71,339.7c4.07-2.72,8.18-5.4,12.88-7,.44-.15.9-.27,1.68-.51,0,1.89-.06,3.59,0,5.29.1,2.23-.27,4.09-2.19,5.65a22.53,22.53,0,0,0-3.46,4.26c-3.4,4.55-3.13,9.3-.28,13.88,3.3,5.32,8.32,8.55,14.22,10.32a13.33,13.33,0,0,0,8.92-.74,190.2,190.2,0,0,0,26.81-13.25,15.32,15.32,0,0,0,5-4.78c2.28-3.53,2.07-7.2-1-10.11-2.4-2.28-5.05-4.28-7.65-6.33a1.28,1.28,0,0,1-.61-1.58c.8-2.62,1.57-5.26,2.42-7.88a1.18,1.18,0,0,1,.93-.6,30.91,30.91,0,0,1,10.6,2.26c5,2.17,8.41,5.95,11.13,10.51.3.51.54,1.07.88,1.56,3.2,4.55,2.88,9.44,1.5,14.46a30.65,30.65,0,0,0-.89,4.08c-.07.51.42,1.06.58,1.62.3,1.1.88,2.27.73,3.32a37,37,0,0,1-1.61,6.71c-.54,1.59-2,2.45-3.52,3.09a49.73,49.73,0,0,1-15,4.16c-4.84.45-9.71.51-14.58.73-5.53.25-11.07.59-16.61.68a74.57,74.57,0,0,1-9.68-.51,91.94,91.94,0,0,1-11.8-1.85c-5.14-1.26-10.25-2.81-14.58-6.1a15.49,15.49,0,0,1-2-1.7,2.82,2.82,0,0,1-.79-3.08c1-2.57.36-4.69-1.49-6.68-2.17-2.34-2.33-5-.9-7.87A30.7,30.7,0,0,1,431.71,339.7Z" transform="translate(-390.52 -324.86)"/><path class="cls-1" d="M440.92,354.25c-.52.09-1,.18-1.34.26l-.06,0a9.12,9.12,0,0,1,.53-3.16c1.15-3.21,3.48-5.68,5.81-8.25,0,3.08,0,5.94,0,8.8a1.43,1.43,0,0,1-1.21,1.64l-.94.18c-.88.15-1.77.28-2.63.47Z" transform="translate(-390.52 -324.86)"/><path class="cls-1" d="M428.15,438.94a70.42,70.42,0,0,1-.84-16.34,127.6,127.6,0,0,1,3.11-21.77c1.65-7.11,3.58-14.14,5.39-21.21.08-.31.25-.59.32-.9.18-.83.68-1,1.41-.71.48.16,1,.27,1.49.41-.87,3.25-1.83,6.37-2.55,9.55-1.63,7.19-3.44,14.36-4.63,21.63-1.56,9.46-2.49,19-1.12,28.6.12.86.29,1.71.46,2.69a16.67,16.67,0,0,1-2.35-.86A1.67,1.67,0,0,1,428.15,438.94Z" transform="translate(-390.52 -324.86)"/><path class="cls-1" d="M429.29,447.8c2.06-.2,2-.19,2.63,1.58.4,1.16,1,2.27,1.37,3.44.16.44.33,1.1.13,1.41s-1.86-.12-2.11-.72c-.41-.95-.76-1.93-1.1-2.91S429.61,448.8,429.29,447.8Z" transform="translate(-390.52 -324.86)"/><path class="cls-1" d="M427.85,476.8c0,2.64,0,5.23,0,7.81a1,1,0,0,1-.71.66c-3.94,0-7.89,0-11.94,0V476.8Z" transform="translate(-390.52 -324.86)"/><path class="cls-1" d="M426.93,444.21l5.8,1.05c-.19,1.15-.87,1.31-4,1C427.21,446.1,426.88,445.73,426.93,444.21Z" transform="translate(-390.52 -324.86)"/><path class="cls-1" d="M425.72,441.09c0-.14.86-.37,1.26-.27a27.58,27.58,0,0,1,3.42,1.06c1.74.65,1.72.68,2.23,2.95-2.11-.5-4-.93-5.88-1.4-.29-.08-.72-.26-.79-.49A4.87,4.87,0,0,1,425.72,441.09Z" transform="translate(-390.52 -324.86)"/><path class="cls-1" d="M413.14,477.82c0-1,.36-1.2,1.31-.94v8.3c-1,.3-1.33,0-1.31-.92Q413.22,481,413.14,477.82Z" transform="translate(-390.52 -324.86)"/><path class="cls-1" d="M412.59,476.86v8.35h-8.34v-8.35Z" transform="translate(-390.52 -324.86)"/><path class="cls-1" d="M402.84,476.8c.25,0,.71.34.71.53.05,2.61,0,5.23,0,7.9h-8c.19-2.82.37-5.62.56-8.45C398.4,476.78,400.62,476.76,402.84,476.8Z" transform="translate(-390.52 -324.86)"/><path class="cls-1" d="M395.29,434.13c-.77-5.89-1.62-11.78-2.25-17.69-.93-8.61-1.75-17.25-1.08-25.93a58.25,58.25,0,0,1,5.64-21.27,16.75,16.75,0,0,1,9.37-8.79c3.64-1.36,7.47-2.24,11.22-3.31.7-.2,1.1,0,1.47.75a19.4,19.4,0,0,0,2.22,3.39,3.64,3.64,0,0,1,.79,3.67c-.93,2.77-.18,5.05,2.24,6.55,2.91,1.8,5.93,3.41,9,5,1,.51,1.33.9,1,2a219.49,219.49,0,0,0-7.18,30.75,101.37,101.37,0,0,0-1.23,24.23c.14,1.59.38,3.17.58,4.75.05.38.09.77-.12.86-.69.27-1.59.36-2,.86-.78.9-.43,2.57.25,3.58a15.9,15.9,0,0,1,1,2.31c.2.42.41,1,.77,1.15a2,2,0,0,1,1.21,1.46c.56,1.75,1.18,3.48,1.82,5.2a2.41,2.41,0,0,0,2.8,1.89,11.34,11.34,0,0,0,1.43-.13c1.44-.23,1.67-1.26.94-2.55a49.18,49.18,0,0,1-2.24-5.08.8.8,0,0,1,0-.57c1.21-2.71.77-5.24-.58-7.78a8,8,0,0,1-.58-2.67c-1-7.64-.11-15.22.75-22.81,1-8.83,3.27-17.41,5.35-26,.67-2.75,1.53-5.46,2.23-8.21.23-.89.65-1,1.45-.85a90.18,90.18,0,0,0,15.18,1.67c3.5.13,7,0,10.28,0-.79,2.33-1.76,4.57-2.31,6.9-1.63,6.88-3.25,13.76-4.56,20.7a130,130,0,0,0-2.51,29.66c0,.77.28,1.65-.84,1.95-.13,0-.26.4-.23.58.41,2.06.81,4.12,1.31,6.15a1.33,1.33,0,0,0,.9.84c.74.08.87.45,1,1.08a35.06,35.06,0,0,0,.79,4.35,3.17,3.17,0,0,0,4.26,1.64,1.46,1.46,0,0,0,.79-2,22.41,22.41,0,0,1-.72-3.27c-.11-.58-.16-1.17-.25-1.82l.73-.17c1.5-.33,1.66-.58,1.43-2.1-.34-2.28-.64-4.57-1-6.85,0-.27-.05-.7-.21-.78-1-.48-.82-1.43-.9-2.25a71.33,71.33,0,0,1,.58-16.13q1.44-10.55,3.4-21c1.05-5.6,2.43-11.14,3.72-16.7a1.42,1.42,0,0,1,1.08-.78c3.85-.21,7.72-.43,11.58-.48a63.82,63.82,0,0,0,20.75-3.48l.84,2.3a1,1,0,0,0-.44.41c-3.52,8.14-6.73,16.39-8.56,25.11q-3.07,14.71-4.81,29.64a5.15,5.15,0,0,1-.15.68c-1.25,0-1.45.18-1.11,1.37,1.13,4,2.09,8,3.52,11.91,3.11,8.44,2.76,16.71-.39,25-.72,1.89-1.07,2.19-3.07,2.19q-38.81,0-77.62,0c-3,0-6,.18-9,.18-2.75,0-5.5-.14-8.25-.17-.93,0-1.27-.56-1.17-1.28.27-1.93-.52-3.43-1.52-5a9.45,9.45,0,0,1-1.19-8c1.06-3.64,2.08-7.3,3.39-10.85a50.43,50.43,0,0,0,2.38-12.91,254.45,254.45,0,0,1,12.59-59.83c.22-.64.92-1.62-.09-2s-.94.87-1.14,1.47a240.08,240.08,0,0,0-10.82,44.61c-.93,7-1.7,14.09-2.66,21.17C396.09,439.83,395.66,437,395.29,434.13Z" transform="translate(-390.52 -324.86)"/></g><g id="선"><path d="M529.13,382.92c-1.31-4.21-3.24-8.23-4.73-12.39A24.15,24.15,0,0,0,515.66,359c-1.58-1.16-1.49-1.2-.94-3.13,1.53-5.34,2-10.6-1.34-15.53-.45-.65-.78-1.4-1.18-2.08-3.84-6.44-9.14-10.94-16.66-12.41-2-.38-3.94-.58-5.92-.84a9,9,0,0,0-1.06-.1c-.74,0-.84.34-1.35,1.59-3.07,7.48-3.73,15.31-3.55,23.27a4.1,4.1,0,0,0,2.15,3.65,42.81,42.81,0,0,0,4.17,1.78l1.14.44c-1.78,1-3.31,1.83-4.82,2.7a159.76,159.76,0,0,1-24.69,11.81,13.18,13.18,0,0,1-4.58.5c-3.17,0-5.83-1.64-8.44-3.12a20,20,0,0,1-7-6.74,12.56,12.56,0,0,1-1.94-4.92h.06c.65-.1,1.55-.26,2.48-.45a4,4,0,0,0,.48-.09c.54-.1,1.09-.22,1.59-.33l.39-.08.65-.16.3-.08a2.2,2.2,0,0,0,1.66-2.35q.13-10.12.24-20.25a8.8,8.8,0,0,0-.26-1.52,31.94,31.94,0,0,0-9.37,3.47c-4.92,2.83-9.59,6-13.23,10.35-2.63,3.16-5.07,6.5-5.62,10.81,0,.27-.63.58-1,.68-3.34.93-6.77,1.6-10,2.75a18.78,18.78,0,0,0-11,9,56.16,56.16,0,0,0-6.41,25.79c0,.74,0,1.48,0,2.22a146.6,146.6,0,0,0,.71,15.12c1.12,10.79,2.64,21.53,4,32.3.23,1.9.8,3.74,0,5.76-1.3,3.47-2.28,7.06-3.39,10.6a14.28,14.28,0,0,0-.69,4.24,12.49,12.49,0,0,0,2.34,7.18,3.51,3.51,0,0,1,.53,1.88c0,3.71-.1,7.42-.16,11.13,0,.87,0,1.74,0,2.75h5.07c1.68,0,3.35.05,5,.05s3.27,0,4.91-.05h14.76l4.89,0c1.67,0,3.35,0,5,0h49.39a28,28,0,0,1,5,.06c1.54.3,3-.43,4.6.05.1.81.21,1.68.32,2.54.93,6.68,1.81,13.36,2.81,20,.34,2.24,1,4.42,1.51,6.63l.39,0c.16-.32.33-.62.46-1,2.41-5.83,5-11.6,7.17-17.51,2.75-7.38,5.83-14.64,8-22.25,1.84-6.49,4.39-12.77,6.14-19.27,2.81-10.4,5.2-20.91,7.79-31.37a108.87,108.87,0,0,0,3.58-24.94c0-1,0-2.06,0-3.09A45.44,45.44,0,0,0,529.13,382.92Zm-42-30.33a3.39,3.39,0,0,1-2.14-3.44c.13-3.86.3-7.72.45-11.58l.58-.31c2.75,2.46,5.84,4.63,8.17,7.44,2.78,3.35,1.19,6.5-1.46,9.24a1.32,1.32,0,0,1-1.09.21A47.07,47.07,0,0,1,487.09,352.59Zm-42.42,1-.94.18-2.63.47-.18,0c-.52.09-1,.18-1.34.26l-.06,0a9.12,9.12,0,0,1,.53-3.16c1.15-3.21,3.48-5.68,5.81-8.25,0,3.08,0,5.94,0,8.8A1.43,1.43,0,0,1,444.67,353.56Zm-23.31-1.82a30.7,30.7,0,0,1,10.35-12c4.07-2.72,8.18-5.4,12.88-7,.44-.15.9-.27,1.68-.51,0,1.89-.06,3.59,0,5.29.1,2.23-.27,4.09-2.19,5.65a22.53,22.53,0,0,0-3.46,4.26c-3.4,4.55-3.13,9.3-.28,13.88,3.3,5.32,8.32,8.55,14.22,10.32a13.33,13.33,0,0,0,8.92-.74,190.2,190.2,0,0,0,26.81-13.25,15.32,15.32,0,0,0,5-4.78c2.28-3.53,2.07-7.2-1-10.11-2.4-2.28-5.05-4.28-7.65-6.33a1.28,1.28,0,0,1-.61-1.58c.8-2.62,1.57-5.26,2.42-7.88a1.18,1.18,0,0,1,.93-.6,30.91,30.91,0,0,1,10.6,2.26c5,2.17,8.41,5.95,11.13,10.51.3.51.54,1.07.88,1.56,3.2,4.55,2.88,9.44,1.5,14.46a30.65,30.65,0,0,0-.89,4.08c-.07.51.42,1.06.58,1.62.3,1.1.88,2.27.73,3.32a37,37,0,0,1-1.61,6.71c-.54,1.59-2,2.45-3.52,3.09a49.73,49.73,0,0,1-15,4.16c-4.84.45-9.71.51-14.58.73-5.53.25-11.07.59-16.61.68a74.57,74.57,0,0,1-9.68-.51,91.94,91.94,0,0,1-11.8-1.85c-5.14-1.26-10.25-2.81-14.58-6.1a15.49,15.49,0,0,1-2-1.7,2.82,2.82,0,0,1-.79-3.08c1-2.57.36-4.69-1.49-6.68C420.09,357.27,419.93,354.58,421.36,351.74Zm38.78,94.61a5.51,5.51,0,0,1-1.7-1c-.72-.77-.3-1.51.73-1.71,1.55-.3,3.1-.64,4.63-1.06,1.3-.35,1.65-.24,2,.93a1.67,1.67,0,0,1-1.2,2.23C463.3,446,462,446.13,460.14,446.35Zm4.09,7.11c-1.78.12-2.08-.08-2.4-1.74-.26-1.35-.47-2.71-.73-4.25l2-.15C463.48,449.44,463.85,451.45,464.23,453.46Zm-5.5-10.25c-.47.09-1.29.4-1.32-.47s.14-1.92.56-2.09c2-.83,4.17-1.38,6.35-2l.53,3.33C462.76,442.37,460.75,442.82,458.73,443.21Zm5.43-28a117.94,117.94,0,0,0-1.08,20.91c.05,1.07-.23,1.63-1.29,1.84-.73.15-1.43.44-2.45.76-.48-20.06,3.41-39.16,8.78-58.05h3c-.38,1.49-.77,2.86-1.09,4.25-1.16,5-2.43,10-3.41,15.05S464.8,410.12,464.16,415.22Zm-33.43,23c.12.86.29,1.71.46,2.69a16.67,16.67,0,0,1-2.35-.86,1.67,1.67,0,0,1-.69-1.09,70.42,70.42,0,0,1-.84-16.34,127.6,127.6,0,0,1,3.11-21.77c1.65-7.11,3.58-14.14,5.39-21.21.08-.31.25-.59.32-.9.18-.83.68-1,1.41-.71.48.16,1,.27,1.49.41-.87,3.25-1.83,6.37-2.55,9.55-1.63,7.19-3.44,14.36-4.63,21.63C430.29,419.06,429.36,428.6,430.73,438.2Zm-2,8.05c-1.48-.15-1.81-.52-1.76-2l5.8,1.05C432.54,446.41,431.86,446.57,428.69,446.25Zm4.6,6.57c.16.44.33,1.1.13,1.41s-1.86-.12-2.11-.72c-.41-.95-.76-1.93-1.1-2.91s-.6-1.8-.92-2.8c2.06-.2,2-.19,2.63,1.58C432.32,450.54,432.88,451.65,433.29,452.82Zm-6.54-9.39c-.29-.08-.72-.26-.79-.49a4.87,4.87,0,0,1-.24-1.85c0-.14.86-.37,1.26-.27a27.58,27.58,0,0,1,3.42,1.06c1.74.65,1.72.68,2.23,2.95C430.52,444.33,428.63,443.9,426.75,443.43Zm-31.18,41.8c.19-2.82.37-5.62.56-8.45,2.27,0,4.49,0,6.71,0,.25,0,.71.34.71.53.05,2.61,0,5.23,0,7.9Zm17,0h-8.34v-8.35h8.34Zm1.86,0c-1,.3-1.33,0-1.31-.92q.08-3.22,0-6.44c0-1,.36-1.2,1.31-.94Zm13.37-.57a1,1,0,0,1-.71.66c-3.94,0-7.89,0-11.94,0V476.8h12.68C427.85,479.44,427.87,482,427.82,484.61Zm23.87.59H428.42v-8.47h23.27Zm3.14,0h-2.52v-3c0-1.39.06-2.79,0-4.18-.06-1,.21-1.51,1.31-1.34a8.12,8.12,0,0,0,1.23,0Zm25.53,0H455.48v-8.46h24.88Zm8.65,0h-8v-8.46h8Zm3.75,0h-3.11v-8.47h3.11Zm36.58-83.57c-.4,10.57-3.06,20.72-5.62,30.91-2.52,10-4.48,20.18-7.71,30-2.41,7.32-4.76,14.66-7.43,21.88-3.29,8.9-6.88,17.7-10.34,26.54-.1.24-.24.48-.54,1.06-.37-2.24-.71-4.12-1-6-.54-3.55-1.13-7.09-1.56-10.65-.27-2.23-.3-4.5-.4-6.75s-.15-4.39-.27-6.58a19.88,19.88,0,0,1,1.18-8.17,60.34,60.34,0,0,0,2.6-9.45,27.85,27.85,0,0,0-1-13.37c-.79-2.68-1.43-5.42-2.44-8a16.15,16.15,0,0,1-.79-8.67c1.45-8.89,2.73-17.82,4.28-26.7a104.5,104.5,0,0,1,7.59-24.28c.52-1.17,1-2.35,1.42-3.56.12-.36-.1-.83-.17-1.25-.17.12-.39.22-.58.34a1,1,0,0,0-.44.41c-3.52,8.14-6.73,16.39-8.56,25.11q-3.07,14.71-4.81,29.64a5.15,5.15,0,0,1-.15.68c-1.25,0-1.45.18-1.11,1.37,1.13,4,2.09,8,3.52,11.91,3.11,8.44,2.76,16.71-.39,25-.72,1.89-1.07,2.19-3.07,2.19q-38.81,0-77.62,0c-3,0-6,.18-9,.18-2.75,0-5.5-.14-8.25-.17-.93,0-1.27-.56-1.17-1.28.27-1.93-.52-3.43-1.52-5a9.45,9.45,0,0,1-1.19-8c1.06-3.64,2.08-7.3,3.39-10.85a50.43,50.43,0,0,0,2.38-12.91,254.45,254.45,0,0,1,12.59-59.83c.22-.64.92-1.62-.09-2s-.94.87-1.14,1.47a240.08,240.08,0,0,0-10.82,44.61c-.93,7-1.7,14.09-2.66,21.17-.4-2.85-.83-5.7-1.2-8.55-.77-5.89-1.62-11.78-2.25-17.69-.93-8.61-1.75-17.25-1.08-25.93a58.25,58.25,0,0,1,5.64-21.27,16.75,16.75,0,0,1,9.37-8.79c3.64-1.36,7.47-2.24,11.22-3.31.7-.2,1.1,0,1.47.75a19.4,19.4,0,0,0,2.22,3.39,3.64,3.64,0,0,1,.79,3.67c-.93,2.77-.18,5.05,2.24,6.55,2.91,1.8,5.93,3.41,9,5,1,.51,1.33.9,1,2a219.49,219.49,0,0,0-7.18,30.75,101.37,101.37,0,0,0-1.23,24.23c.14,1.59.38,3.17.58,4.75.05.38.09.77-.12.86-.69.27-1.59.36-2,.86-.78.9-.43,2.57.25,3.58a15.9,15.9,0,0,1,1,2.31c.2.42.41,1,.77,1.15a2,2,0,0,1,1.21,1.46c.56,1.75,1.18,3.48,1.82,5.2a2.41,2.41,0,0,0,2.8,1.89,11.34,11.34,0,0,0,1.43-.13c1.44-.23,1.67-1.26.94-2.55a49.18,49.18,0,0,1-2.24-5.08.8.8,0,0,1,0-.57c1.21-2.71.77-5.24-.58-7.78a8,8,0,0,1-.58-2.67c-1-7.64-.11-15.22.75-22.81,1-8.83,3.27-17.41,5.35-26,.67-2.75,1.53-5.46,2.23-8.21.23-.89.65-1,1.45-.85a90.18,90.18,0,0,0,15.18,1.67c3.5.13,7,0,10.28,0-.79,2.33-1.76,4.57-2.31,6.9-1.63,6.88-3.25,13.76-4.56,20.7a130,130,0,0,0-2.51,29.66c0,.77.28,1.65-.84,1.95-.13,0-.26.4-.23.58.41,2.06.81,4.12,1.31,6.15a1.33,1.33,0,0,0,.9.84c.74.08.87.45,1,1.08a35.06,35.06,0,0,0,.79,4.35,3.17,3.17,0,0,0,4.26,1.64,1.46,1.46,0,0,0,.79-2,22.41,22.41,0,0,1-.72-3.27c-.11-.58-.16-1.17-.25-1.82l.73-.17c1.5-.33,1.66-.58,1.43-2.1-.34-2.28-.64-4.57-1-6.85,0-.27-.05-.7-.21-.78-1-.48-.82-1.43-.9-2.25a71.33,71.33,0,0,1,.58-16.13q1.44-10.55,3.4-21c1.05-5.6,2.43-11.14,3.72-16.7a1.42,1.42,0,0,1,1.08-.78c3.85-.21,7.72-.43,11.58-.48a63.82,63.82,0,0,0,20.75-3.48l.94-.34.35-.11c4.81-1.34,7.36-4.58,8.09-9.45a10.84,10.84,0,0,0-.78-6.9,8.32,8.32,0,0,1,.83.45,21.43,21.43,0,0,1,7.69,10c1.55,4.22,3.54,8.3,4.87,12.59C529.6,389,529.58,395.33,529.34,401.66Z" transform="translate(-390.52 -324.86)"/></g></svg>