<svg id="항공점퍼" xmlns="http://www.w3.org/2000/svg" width='100%' height='100%' viewBox="0 0 143.82 170.28"><defs><style>.cls-1{fill:#fff;}</style></defs><g id="레이어_37_이미지" data-name="레이어 37 이미지"><path class="cls-1" d="M498.54,480.76c-3.27-1.58-6.12-3.31-7.42-6.77a42,42,0,0,1-2.37-11.58,33.88,33.88,0,0,0-.53-4.27c-.48-2.4-1.67-3.35-4.1-3.32-3.43.05-6.86.2-10.29.28-2.13,0-3.22,1-3.81,3.22a146,146,0,0,0-4,20.8c-.63,5.63-.88,11.3-1.29,16.95,0,.27-.05.54-.08.89h-3.72c-.92,0-1.84-.1-2.75,0-1.45.12-1.53.05-1.85-1.41-2.41-11-1.82-22.15-.89-33.27,1.62-19.67,5.89-38.82,11.57-57.68.68-2.25,1.38-4.5,2-6.78.25-.94.67-1.12,1.59-1.09,3.11.11,6.22.14,9.33.13a13.6,13.6,0,0,0,2.6-.38,7.83,7.83,0,0,0,6.27-5.28c3.88-10.48,7.81-20.94,11.7-31.42.53-1.41,1-2.85,1.51-4.38a38.41,38.41,0,0,1,9.32,2.56A34.15,34.15,0,0,1,526,370.87c1.7,2.58,2.23,5.61,2.7,8.62,1.09,7,.46,13.95,0,20.92-1,13.66-4,27-6.48,40.43-3.74,20.52-10.91,39.93-18.52,59.22-1.68,4.27-3.33,8.55-5,12.83-.16.4-.33.79-.64,1.5-.15-.73-.26-1.14-.31-1.56-.49-3.8-1-7.6-1.45-11.41a12.58,12.58,0,0,1-.39-3.5,15.14,15.14,0,0,1,1.68-5,19.6,19.6,0,0,0,2.63-11.9c-1.73-24.39-2-48.79,1.23-73.08,1.19-8.85,3.22-17.58,4.87-26.37a5.81,5.81,0,0,0,.25-1.4,1,1,0,0,0-.56-.77,1,1,0,0,0-.83.45,4.19,4.19,0,0,0-.4,1.24,261.44,261.44,0,0,0-7.31,62.09c0,12,.64,24,1,36C498.48,479.64,498.51,480.11,498.54,480.76Z" transform="translate(-387.11 -348.17)"/><path class="cls-1" d="M455.24,504.46,445,505.77c-.33-2.87-.7-5.59-.95-8.31-1.48-16.43-.2-32.71,2.72-48.89,3-16.58,5.27-33.29,9.08-49.72,1.05-4.5,2.31-9,3.51-13.43a2.68,2.68,0,0,1,.76-1.3,127.7,127.7,0,0,1,15.32-11c-.21.63-.31,1-.43,1.32-2.12,6.32-4.35,12.6-6.33,19-3.9,12.57-7.64,25.19-10.29,38.09-3.16,15.36-5.42,30.83-5.12,46.58.08,3.83.16,7.66.4,11.48.13,2,.61,4,.93,6a15.39,15.39,0,0,1,.29,1.65C455.05,499.57,455.14,502,455.24,504.46Z" transform="translate(-387.11 -348.17)"/><path class="cls-1" d="M466.39,497c0-1.71-.08-3.38,0-5a167.08,167.08,0,0,1,5.2-33.19c.5-1.89.54-1.94,2.49-2,3.39-.13,6.78-.21,10.18-.27,1.49,0,2.06.37,2.32,1.87.35,2,.4,4,.75,5.93.53,3,1.11,6,1.84,9a11.85,11.85,0,0,0,5.92,7.5c.45.26.89.53,1.35.77,2.47,1.34,2.58,1.36,2.13,4.11a23.47,23.47,0,0,1-1.47,4.65,42.24,42.24,0,0,1-2,4.19c-.43.83-.87,1.78-2.16,1.07-.29-.16-.78,0-1.17.06-8.14,1.47-16.38,1.3-24.6,1.44A5.38,5.38,0,0,1,466.39,497Z" transform="translate(-387.11 -348.17)"/><path class="cls-1" d="M469.9,395.21c.14-.61.18-.92.28-1.21,2.89-8.37,5.73-16.75,8.72-25.08,1.5-4.16,3.33-8.2,4.89-12.34a48.82,48.82,0,0,0,1.36-5.18,70.51,70.51,0,0,1,15.4,2.89c-1.14,3.42-2.15,6.73-3.35,10-3.11,8.42-6.43,16.76-9.41,25.22-1.34,3.8-3.84,5.57-7.64,5.7C476.78,395.31,473.41,395.21,469.9,395.21Z" transform="translate(-387.11 -348.17)"/><path class="cls-1" d="M493.24,497l1.59,4.79c-3.18.69-6.16,1.39-9.16,2A87.76,87.76,0,0,1,464.2,505c-2-.11-4.06-.12-6.08-.28a1.53,1.53,0,0,1-1.15-.85c-.27-1.72-.37-3.47-.55-5.36C468.8,498.61,481,499.13,493.24,497Z" transform="translate(-387.11 -348.17)"/><path class="cls-1" d="M430.43,352.3c-1.31,3.55-2.78,6.95-3.83,10.49-1.49,5-2.75,10.17-4,15.29-.82,3.47,0,5.45,3.09,7.27a48.85,48.85,0,0,0,6.64,3c.75.31,1,.53.87,1.43-5.46,29.76-8.15,59.73-6.62,90,.19,3.75.48,7.49.7,11.23.06,1,0,2,0,3.12A173.92,173.92,0,0,1,400,491.57a13.07,13.07,0,0,0,.23-1.64,257.37,257.37,0,0,1,1.46-28.71,27.26,27.26,0,0,0,.11-3.94c-.08-1.92-.81-2.57-2.71-2.84-2.53-.36-5.05-.76-7.57-1.15a6.07,6.07,0,0,1-.9-.31c.5-2.69,1-5.35,1.5-8s1.09-5.24,1.63-7.86a399.94,399.94,0,0,1,14.53-51.43,50.53,50.53,0,0,0,1.46-5.43c.09-.37-.34-.85-.53-1.28-.33.32-.85.59-1,1-1.89,5.81-3.69,11.64-5.57,17.45-3.19,9.84-6,19.77-8.37,29.86a1.73,1.73,0,0,1-.45.88c-.07-.72-.16-1.44-.2-2.16-.61-9.77-1.39-19.53-1.76-29.3a62.86,62.86,0,0,1,3.8-25.54c.39-1,.87-2,1.34-2.94a15.2,15.2,0,0,1,8.24-7.28c4.71-2,9.49-3.77,14.3-5.48,3.26-1.15,6.62-2,9.94-3A5.85,5.85,0,0,1,430.43,352.3Z" transform="translate(-387.11 -348.17)"/><path class="cls-1" d="M445.85,350.24a7.41,7.41,0,0,1-.64,2.53c-2.27,3.18-3.48,6.83-4.59,10.47-2.31,7.55-4.42,15.17-6.61,22.75-.09.31-.16.61-.29,1.11-3.24-1.06-6.43-2-8.85-4.51a3.51,3.51,0,0,1-.85-3.24c1.75-9.16,4.16-18.12,8.23-26.56a2,2,0,0,1,1.68-1.3c3.86-.51,7.72-1.07,11.58-1.62Z" transform="translate(-387.11 -348.17)"/><path class="cls-1" d="M390.32,454.86c3,.41,5.85.84,8.69,1.17,1,.12,1.29.69,1.24,1.54-.14,2.67-.24,5.34-.51,8A218.27,218.27,0,0,0,398.68,490c0,.4.05.79.09,1.43-1.79-.39-3.53-.74-5.25-1.15a1.07,1.07,0,0,1-.56-.69c-1.24-4.53-2.6-9-3.62-13.63-1.37-6.19-.81-12.38.5-18.53C390,456.53,390.17,455.67,390.32,454.86Z" transform="translate(-387.11 -348.17)"/><path class="cls-1" d="M393.83,492.08a197.26,197.26,0,0,0,33.6,3.73l.78,6.11a16.18,16.18,0,0,1-2.46.41,92.91,92.91,0,0,1-10.15,0c-6.39-.56-12.75-1.48-19.13-2.22-1.19-.14-1.66-.68-1.76-1.9C394.54,496.23,394.15,494.23,393.83,492.08Z" transform="translate(-387.11 -348.17)"/><path class="cls-1" d="M431.24,502.06c-1,.35-1.47,0-1.52-1.08q-.18-4.07-.44-8.12c-.28-4.25-.71-8.5-.86-12.76-.27-7.89-.54-15.79-.53-23.69,0-16.05,1.78-32,3.92-47.84.83-6.09,1.95-12.14,2.93-18.21.06-.35.16-.69.24-1.06,1.11-.07,1.17.58,1.06,1.38-.69,4.94-1.48,9.87-2.05,14.83-1.37,11.89-2.77,23.79-3.91,35.72-.42,4.39-.15,8.85-.21,13.28-.19,13.42-.13,26.83.6,40.24.14,2.45.49,4.89.74,7.34Z" transform="translate(-387.11 -348.17)"/></g><g id="색"><path d="M494.83,503.51c-4.24.82-8.29,1.68-12.37,2.38a79.36,79.36,0,0,1-17.08.77,47.52,47.52,0,0,1-5.86-.12c-4.58-.79-9,.26-13.47.73-1.87.2-2.34-.19-2.64-2.07a154,154,0,0,1-1.31-30.95c.59-12.44,2.88-24.65,5-36.89,1.57-9,2.95-18.05,4.74-27,1.59-8,3.64-15.87,5.44-23.81a8.24,8.24,0,0,1,3.48-5.1c4.28-3,8.49-6.11,12.83-9a9.49,9.49,0,0,0,4.22-5.06c1.28-3.94,2.93-7.76,4.22-11.7a33.9,33.9,0,0,0,1-5.64c.13-.86.38-1.51,1.43-1.26,6.86,1.67,13.76,3.2,20.57,5.05a39,39,0,0,1,18.66,11.3,25.66,25.66,0,0,1,6.74,14.5c1,7.07.38,14.11-.14,21.16-1,14.31-4.27,28.25-6.88,42.3-3.6,19.36-10.41,37.67-17.54,55.9-2.33,6-4.69,11.88-7,17.82a4.59,4.59,0,0,1-.18.56c-.24.38-.52.74-.79,1.11-.29-.38-.77-.73-.84-1.14-.72-4.25-1.38-8.51-2.05-12.77C494.89,504.12,494.86,503.69,494.83,503.51Zm3.71-22.75c0-.65-.06-1.12-.07-1.58-.36-12-1-24-1-36a261.44,261.44,0,0,1,7.31-62.09,4.19,4.19,0,0,1,.4-1.24,1,1,0,0,1,.83-.45,1,1,0,0,1,.56.77,5.81,5.81,0,0,1-.25,1.4c-1.65,8.79-3.68,17.52-4.87,26.37-3.26,24.29-3,48.69-1.23,73.08a19.6,19.6,0,0,1-2.63,11.9,15.14,15.14,0,0,0-1.68,5,12.58,12.58,0,0,0,.39,3.5c.49,3.81,1,7.61,1.45,11.41.05.42.16.83.31,1.56.31-.71.48-1.1.64-1.5,1.66-4.28,3.31-8.56,5-12.83,7.61-19.29,14.78-38.7,18.52-59.22,2.45-13.44,5.47-26.77,6.48-40.43.51-7,1.14-13.94,0-20.92-.47-3-1-6-2.7-8.62a34.15,34.15,0,0,0-14.73-12.94,38.41,38.41,0,0,0-9.32-2.56c-.53,1.53-1,3-1.51,4.38-3.89,10.48-7.82,20.94-11.7,31.42a7.83,7.83,0,0,1-6.27,5.28,13.6,13.6,0,0,1-2.6.38c-3.11,0-6.22,0-9.33-.13-.92,0-1.34.15-1.59,1.09-.59,2.28-1.29,4.53-2,6.78-5.68,18.86-9.95,38-11.57,57.68-.93,11.12-1.52,22.24.89,33.27.32,1.46.4,1.53,1.85,1.41.91-.07,1.83,0,2.75,0h3.72c0-.35.06-.62.08-.89.41-5.65.66-11.32,1.29-16.95a146,146,0,0,1,4-20.8c.59-2.26,1.68-3.17,3.81-3.22,3.43-.08,6.86-.23,10.29-.28,2.43,0,3.62.92,4.1,3.32a33.88,33.88,0,0,1,.53,4.27A42,42,0,0,0,491.12,474C492.42,477.45,495.27,479.18,498.54,480.76Zm-43.3,23.7c-.1-2.51-.19-4.89-.32-7.27a15.39,15.39,0,0,0-.29-1.65c-.32-2-.8-4-.93-6-.24-3.82-.32-7.65-.4-11.48-.3-15.75,2-31.22,5.12-46.58,2.65-12.9,6.39-25.52,10.29-38.09,2-6.36,4.21-12.64,6.33-19,.12-.34.22-.69.43-1.32a127.7,127.7,0,0,0-15.32,11,2.68,2.68,0,0,0-.76,1.3c-1.2,4.47-2.46,8.93-3.51,13.43-3.81,16.43-6.09,33.14-9.08,49.72-2.92,16.18-4.2,32.46-2.72,48.89.25,2.72.62,5.44.95,8.31Zm11.15-7.5a5.38,5.38,0,0,0,.79.08c8.22-.14,16.46,0,24.6-1.44.39-.07.88-.22,1.17-.06,1.29.71,1.73-.24,2.16-1.07a42.24,42.24,0,0,0,2-4.19,23.47,23.47,0,0,0,1.47-4.65c.45-2.75.34-2.77-2.13-4.11-.46-.24-.9-.51-1.35-.77a11.85,11.85,0,0,1-5.92-7.5c-.73-3-1.31-6-1.84-9-.35-2-.4-4-.75-5.93-.26-1.5-.83-1.89-2.32-1.87-3.4.06-6.79.14-10.18.27-1.95.08-2,.13-2.49,2a167.08,167.08,0,0,0-5.2,33.19C466.31,493.58,466.39,495.25,466.39,497Zm3.51-101.75c3.51,0,6.88.1,10.25,0,3.8-.13,6.3-1.9,7.64-5.7,3-8.46,6.3-16.8,9.41-25.22,1.2-3.25,2.21-6.56,3.35-10a70.51,70.51,0,0,0-15.4-2.89,48.82,48.82,0,0,1-1.36,5.18c-1.56,4.14-3.39,8.18-4.89,12.34-3,8.33-5.83,16.71-8.72,25.08C470.08,394.29,470,394.6,469.9,395.21ZM493.24,497c-12.23,2.14-24.44,1.62-36.82,1.54.18,1.89.28,3.64.55,5.36a1.53,1.53,0,0,0,1.15.85c2,.16,4.06.17,6.08.28a87.76,87.76,0,0,0,21.47-1.26c3-.59,6-1.29,9.16-2Z" transform="translate(-387.11 -348.17)"/><path d="M431.24,502.06c.71,1.11.54,1.66-.78,1.69-5.21.09-10.42.93-15.65.24-6.29-.83-12.59-1.56-18.89-2.34-.35,0-.69-.18-1-.25-1.08-.19-1.45-.72-1.66-1.9a81.91,81.91,0,0,0-2.6-11.76c-3.63-10.78-4.69-21.6-2-32.77,1.51-6.32,2.65-12.74,3.76-19.15a25.74,25.74,0,0,0,0-5.95c-.63-10-1.39-19.92-2-29.88a79.28,79.28,0,0,1,2-23.68c1.43-5.8,3.74-11.12,8.42-15.11a10.2,10.2,0,0,1,1.8-1.15c5-2.76,10.43-4.4,15.81-6.19a130.78,130.78,0,0,1,27.26-5.64c1.54-.16,1.58,0,1.7,1.48a8.66,8.66,0,0,1-1.49,5.48,40.6,40.6,0,0,0-3.23,7.17,198.58,198.58,0,0,0-7,23.76c-.22,1-.19,1.62.9,1.89s1.37,1.05,1.22,2.11c-.79,5.65-1.69,11.3-2.31,17-1.4,12.74-3.23,25.47-3.83,38.25-.62,13.14-.06,26.34.13,39.52.08,5.34.57,10.68.87,16,.07,1.19-.18,1.39-1.37,1.22-.25-2.45-.6-4.89-.74-7.34-.73-13.41-.79-26.82-.6-40.24.06-4.43-.21-8.89.21-13.28,1.14-11.93,2.54-23.83,3.91-35.72.57-5,1.36-9.89,2.05-14.83.11-.8,0-1.45-1.06-1.38-.08.37-.18.71-.24,1.06-1,6.07-2.1,12.12-2.93,18.21-2.14,15.87-3.89,31.79-3.92,47.84,0,7.9.26,15.8.53,23.69.15,4.26.58,8.51.86,12.76q.25,4,.44,8.12C429.77,502.06,430.23,502.41,431.24,502.06Zm-.81-149.76a5.85,5.85,0,0,0-.88.16c-3.32,1-6.68,1.83-9.94,3-4.81,1.71-9.59,3.51-14.3,5.48a15.2,15.2,0,0,0-8.24,7.28c-.47,1-.95,1.94-1.34,2.94a62.86,62.86,0,0,0-3.8,25.54c.37,9.77,1.15,19.53,1.76,29.3,0,.72.13,1.44.2,2.16a1.73,1.73,0,0,0,.45-.88c2.32-10.09,5.18-20,8.37-29.86,1.88-5.81,3.68-11.64,5.57-17.45.12-.38.64-.65,1-1,.19.43.62.91.53,1.28a50.53,50.53,0,0,1-1.46,5.43,399.94,399.94,0,0,0-14.53,51.43c-.54,2.62-1.11,5.23-1.63,7.86s-1,5.31-1.5,8a6.07,6.07,0,0,0,.9.31c2.52.39,5,.79,7.57,1.15,1.9.27,2.63.92,2.71,2.84a27.26,27.26,0,0,1-.11,3.94,257.37,257.37,0,0,0-1.46,28.71,13.07,13.07,0,0,1-.23,1.64,173.92,173.92,0,0,0,27.29,2.54c0-1.16.05-2.14,0-3.12-.22-3.74-.51-7.48-.7-11.23-1.53-30.28,1.16-60.25,6.62-90,.17-.9-.12-1.12-.87-1.43a48.85,48.85,0,0,1-6.64-3c-3.09-1.82-3.91-3.8-3.09-7.27,1.21-5.12,2.47-10.24,4-15.29C427.65,359.25,429.12,355.85,430.43,352.3Zm15.42-2.06-.34-.37c-3.86.55-7.72,1.11-11.58,1.62a2,2,0,0,0-1.68,1.3c-4.07,8.44-6.48,17.4-8.23,26.56a3.51,3.51,0,0,0,.85,3.24c2.42,2.5,5.61,3.45,8.85,4.51.13-.5.2-.8.29-1.11,2.19-7.58,4.3-15.2,6.61-22.75,1.11-3.64,2.32-7.29,4.59-10.47A7.41,7.41,0,0,0,445.85,350.24ZM390.32,454.86c-.15.81-.29,1.67-.48,2.53-1.31,6.15-1.87,12.34-.5,18.53,1,4.59,2.38,9.1,3.62,13.63a1.07,1.07,0,0,0,.56.69c1.72.41,3.46.76,5.25,1.15,0-.64-.08-1-.09-1.43a218.27,218.27,0,0,1,1.06-24.39c.27-2.66.37-5.33.51-8,.05-.85-.22-1.42-1.24-1.54C396.17,455.7,393.33,455.27,390.32,454.86Zm3.51,37.22c.32,2.15.71,4.15.88,6.16.1,1.22.57,1.76,1.76,1.9,6.38.74,12.74,1.66,19.13,2.22a92.91,92.91,0,0,0,10.15,0,16.18,16.18,0,0,0,2.46-.41l-.78-6.11A197.26,197.26,0,0,1,393.83,492.08Z" transform="translate(-387.11 -348.17)"/></g></svg>