<svg id="셔츠" xmlns="http://www.w3.org/2000/svg" width='100%' height='100%' viewBox="0 0 140.62 177.86"><defs><style>.cls-1{fill:#fff;}</style></defs><g id="레이어_41_이미지" data-name="레이어 41 이미지"><path class="cls-1" d="M506,492.15c-4-2.73-7.89-5.34-11.75-8a1.18,1.18,0,0,1-.45-.76c-.08-1.16-.11-2.31-.14-3.47,0-1.78,0-3.55-.15-5.33-.2-3.54-.51-7.08-.66-10.63-.22-5.42-.53-10.85-.48-16.27a163.11,163.11,0,0,1,11.55-60c.92-2.3,1.76-4.63,2.61-6.95.2-.55.89-1.29,0-1.65s-1.06.64-1.27,1.21c-1.51,3.95-3,7.92-4.46,11.88a151.73,151.73,0,0,0-8.46,35.07,185.55,185.55,0,0,0-.84,36.58c.32,3.93.37,7.89.54,11.84,0,.27,0,.54,0,.94H445.83a1.76,1.76,0,0,1-.11-.5q.21-7.55.44-15.08c.11-3.43.27-6.86.37-10.29.19-6.67.28-13.34.53-20,.28-7.42.79-14.83,1-22.25.23-6.51.27-13,.36-19.52,0-1.77.33-2.16,2-2.71,8.47-2.75,16.91-5.53,25.38-8.27.85-.28,1.19-.71.93-1.58l-.27.17a11.19,11.19,0,0,1-1.19-1.77c-1.47-3.62-2.85-7.28-4.35-10.9a3.44,3.44,0,0,1-.13-2.38,59.45,59.45,0,0,1,1.71-5.74c.6,2.9,1.17,5.81,1.79,8.7.13.61.43,1.18.61,1.78.36,1.23,1,1,1.74.38,4.07-3.66,8.14-7.3,12.17-11a4.1,4.1,0,0,1,3.66-1.35c3.31.48,6.72.43,10,1.1a54.6,54.6,0,0,1,9.54,3c4.32,1.78,7.31,5.24,10,8.89,3.15,4.26,6.13,8.72,7,14a67.11,67.11,0,0,1,.57,11.69,214,214,0,0,1-5.44,41.72c-2.76,12.24-6.65,24.16-10.61,36.05-2.2,6.59-4.56,13.12-6.85,19.67C506.5,491.07,506.26,491.53,506,492.15Z" transform="translate(-390.28 -337.21)"/><path class="cls-1" d="M444.37,476.64H396.06c0-.42-.06-.84-.08-1.27a137.47,137.47,0,0,1,1.15-20.07c.84-7.17,1.55-14.35,2.51-21.51q2.25-16.6,6.07-32.94c1.89-8,3.86-16.06,5.79-24.09,0-.12.1-.25.07-.35-.13-.4-.3-.79-.45-1.18-.27.28-.7.51-.8.84-.7,2.42-1.43,4.83-2,7.28-2.51,11.34-5.18,22.64-7.38,34-1.61,8.33-2.57,16.79-3.82,25.19a.79.79,0,0,1-.38.59c-.33-1.6-.64-3.2-1-4.79a210.86,210.86,0,0,1-3.81-29.3,140.85,140.85,0,0,1,0-22.5c.66-7.13,2.26-13.95,7-19.66a28.27,28.27,0,0,1,17.61-10,118.25,118.25,0,0,1,18.69-1.76,2.56,2.56,0,0,1,.46.05V367l.3.2,6.36-6.51c.24.74.42,1.16.51,1.59a115.48,115.48,0,0,0,6.23,19.35c.89,2.25.33,3.4-1.18,4.61a2.44,2.44,0,0,0-.87,2.17c0,5.83,0,11.66-.18,17.48-.1,4.39-.41,8.78-.55,13.17-.28,8.58-.43,17.16-.77,25.74-.27,7.06-.77,14.11-1.09,21.17-.13,3-.05,6.07-.07,9.11Z" transform="translate(-390.28 -337.21)"/><path class="cls-1" d="M489.91,339.5c0,2.34,0,4.29,0,6.24s.16,3.91.23,5.86a1.22,1.22,0,0,1-.19.85q-6.46,6.21-13,12.36a9.27,9.27,0,0,1-1.08.75c-.77-3.81-1.39-7.5-2.29-11.11a3,3,0,0,1,1.36-3.72c4.34-3.19,8.55-6.57,12.82-9.85C488.35,340.45,489,340.1,489.91,339.5Z" transform="translate(-390.28 -337.21)"/><path class="cls-1" d="M494,485.59l14.55,10c-2.72,6-5.38,11.9-8.06,17.85a31.52,31.52,0,0,1-2.94-1.62,2.24,2.24,0,0,1-.65-1.35c-.74-4.24-1.56-8.47-2.1-12.73-.45-3.52-.55-7.07-.8-10.61C493.93,486.72,494,486.33,494,485.59Zm7.28,9.53c1.05.64,2,1.19,2,2.65,0,.23,1.1.7,1.65.64a1.36,1.36,0,0,0,1-1.92c-.23-.47-1.09-1.16-1.22-1.08-1.07.72-1.92.23-2.82-.28C501.7,495,501.45,495.12,501.24,495.12Z" transform="translate(-390.28 -337.21)"/><path class="cls-1" d="M470,365.28l4.78,11.83-23.24,7.56C452.74,382.25,467.25,367.07,470,365.28Z" transform="translate(-390.28 -337.21)"/><path class="cls-1" d="M446.35,343.67l-.43,9.83c-1.36.09-2.69.22-4,.25a1,1,0,0,1-.78-.53c-.66-1.92-1.28-3.85-1.83-5.81a1.16,1.16,0,0,1,.45-1C441.84,345.48,444,344.64,446.35,343.67Z" transform="translate(-390.28 -337.21)"/><path class="cls-1" d="M437.35,363.72V347.51l.33-.05c.12.34.25.68.36,1,1.15,3.36,2.28,6.72,3.47,10.06a1.32,1.32,0,0,1-.5,1.71C439.72,361.35,438.54,362.58,437.35,363.72Z" transform="translate(-390.28 -337.21)"/><path class="cls-1" d="M487.58,339.34l-2.89,2.12V338.8l2.87.23Z" transform="translate(-390.28 -337.21)"/><path class="cls-1" d="M505.87,496.92c-.62.48-1,.91-1.42,1-.21.06-.87-.61-.83-.68a4.32,4.32,0,0,1,1-1.29C504.73,495.92,505.28,496.46,505.87,496.92Z" transform="translate(-390.28 -337.21)"/></g><g id="선"><path d="M507.16,493c.56.35,1.16.67,1.69,1.07a1.78,1.78,0,0,1,.79,2.33q-4,8.94-8,17.92c-.4.89-.89.92-1.69.46s-1.68-1.51-3-1.18c-.16,0-.64-.57-.73-.94-.61-2.48-1.22-4.95-1.69-7.46a119.09,119.09,0,0,1-2-20.47c0-1.84-.2-3.67-.22-5.51,0-.89-.33-1.14-1.2-1.13-3.92,0-7.83,0-11.74,0H446a3.86,3.86,0,0,1-.28.77c-.37.59-1,.65-1.16,0-.25-.93-.85-.77-1.45-.77H398c-3.21,0-3.55-.2-3.43-3.37.24-6,.65-12,1.05-18,.18-2.59.71-5.16.72-7.74a27.6,27.6,0,0,0-.93-5.51,192,192,0,0,1-4.28-28.51c-.43-7.41-.77-14.83-.89-22.25a58.59,58.59,0,0,1,1.61-14.24,29.5,29.5,0,0,1,24.2-22.82,137.49,137.49,0,0,1,18.44-1.87c.35,0,.71-.05,1.16-.08.1-1.78.24-3.51.28-5.26a2.58,2.58,0,0,1,1.89-2.77c2.43-.88,4.76-2.05,7.13-3.08s2.8-.88,2.69,1.82c-.09,2.11-.24,4.22-.35,6.34a13.76,13.76,0,0,0,0,2c.18,2,.2,2-1.84,2.16l-1.79.16-1.88.16c.42,1.16.81,2.26,1.22,3.35a11.19,11.19,0,0,1,.69,1.6,143.7,143.7,0,0,0,5.95,19.32c.39,1.06,1,2.05,1.35,2.9l14.25-14.78a11.85,11.85,0,0,1,1.84-1.71c1.72-1.12,2.13-2.82,2.45-4.68a62.93,62.93,0,0,1,1.6-7.6,7.15,7.15,0,0,1,2.17-3.18c2.93-2.47,6-4.77,9-7.1a1.9,1.9,0,0,0,.85-1.7c0-1.2.12-2.39.21-3.59,0-.59.26-.94,1-.83,1.77.27,3.55.52,5.34.64,1,.06,1.4.41,1.4,1.43,0,2.8.06,5.6.22,8.39.07,1.44.42,2.86.62,4.3a8,8,0,0,1,0,1c2.65.24,5.31.44,8,.72,10.39,1.12,18.76,5.61,24.45,14.63,2.68,4.24,5.3,8.5,6.09,13.55a30.61,30.61,0,0,1,.38,6c-.26,6.82-.36,13.67-1,20.45a208.9,208.9,0,0,1-8.55,42.28c-3.83,12.1-7.79,24.16-11.74,36.22C508.88,488.91,508,490.88,507.16,493Zm-1.17-.85c.27-.62.51-1.08.68-1.56,2.29-6.55,4.65-13.08,6.85-19.67,4-11.89,7.85-23.81,10.61-36.05a214,214,0,0,0,5.44-41.72,67.11,67.11,0,0,0-.57-11.69c-.82-5.32-3.8-9.78-7-14-2.69-3.65-5.68-7.11-10-8.89a54.6,54.6,0,0,0-9.54-3c-3.26-.67-6.67-.62-10-1.1a4.1,4.1,0,0,0-3.66,1.35c-4,3.69-8.1,7.33-12.17,11-.72.64-1.38.85-1.74-.38-.18-.6-.48-1.17-.61-1.78-.62-2.89-1.19-5.8-1.79-8.7a59.45,59.45,0,0,0-1.71,5.74A3.44,3.44,0,0,0,471,364c1.5,3.62,2.88,7.28,4.35,10.9a11.19,11.19,0,0,0,1.19,1.77l.27-.17c.26.87-.08,1.3-.93,1.58-8.47,2.74-16.91,5.52-25.38,8.27-1.69.55-2,.94-2,2.71-.09,6.5-.13,13-.36,19.52-.25,7.42-.76,14.83-1,22.25-.25,6.66-.34,13.33-.53,20-.1,3.43-.26,6.86-.37,10.29q-.24,7.54-.44,15.08a1.76,1.76,0,0,0,.11.5H492c0-.4.05-.67,0-.94-.17-3.95-.22-7.91-.54-11.84a185.55,185.55,0,0,1,.84-36.58,151.73,151.73,0,0,1,8.46-35.07c1.47-4,2.95-7.93,4.46-11.88.21-.57.36-1.6,1.27-1.21s.17,1.1,0,1.65c-.85,2.32-1.69,4.65-2.61,6.95a163.11,163.11,0,0,0-11.55,60c-.05,5.42.26,10.85.48,16.27.15,3.55.46,7.09.66,10.63.1,1.78.1,3.55.15,5.33,0,1.16.06,2.31.14,3.47a1.18,1.18,0,0,0,.45.76C498.1,486.81,502,489.42,506,492.15Zm-61.62-15.51v-1.57c0-3-.06-6.08.07-9.11.32-7.06.82-14.11,1.09-21.17.34-8.58.49-17.16.77-25.74.14-4.39.45-8.78.55-13.17.14-5.82.17-11.65.18-17.48a2.44,2.44,0,0,1,.87-2.17c1.51-1.21,2.07-2.36,1.18-4.61a115.48,115.48,0,0,1-6.23-19.35c-.09-.43-.27-.85-.51-1.59L436,367.19l-.3-.2v-11.8a2.56,2.56,0,0,0-.46-.05,118.25,118.25,0,0,0-18.69,1.76,28.27,28.27,0,0,0-17.61,10c-4.72,5.71-6.32,12.53-7,19.66a140.85,140.85,0,0,0,0,22.5,210.86,210.86,0,0,0,3.81,29.3c.34,1.59.65,3.19,1,4.79a.79.79,0,0,0,.38-.59c1.25-8.4,2.21-16.86,3.82-25.19,2.2-11.4,4.87-22.7,7.38-34,.54-2.45,1.27-4.86,2-7.28.1-.33.53-.56.8-.84.15.39.32.78.45,1.18,0,.1,0,.23-.07.35-1.93,8-3.9,16.05-5.79,24.09q-3.82,16.32-6.07,32.94c-1,7.16-1.67,14.34-2.51,21.51A137.47,137.47,0,0,0,396,475.37c0,.43,0,.85.08,1.27ZM489.91,339.5c-.93.6-1.56.95-2.11,1.38-4.27,3.28-8.48,6.66-12.82,9.85a3,3,0,0,0-1.36,3.72c.9,3.61,1.52,7.3,2.29,11.11a9.27,9.27,0,0,0,1.08-.75q6.51-6.17,13-12.36a1.22,1.22,0,0,0,.19-.85c-.07-2-.19-3.9-.23-5.86S489.91,341.84,489.91,339.5Zm4,146.09c0,.74,0,1.13,0,1.51.25,3.54.35,7.09.8,10.61.54,4.26,1.36,8.49,2.1,12.73a2.24,2.24,0,0,0,.65,1.35,31.52,31.52,0,0,0,2.94,1.62c2.68-5.95,5.34-11.82,8.06-17.85ZM470,365.28c-2.76,1.79-17.27,17-18.46,19.39l23.24-7.56Zm-23.66-21.61c-2.37,1-4.51,1.81-6.62,2.74a1.16,1.16,0,0,0-.45,1c.55,2,1.17,3.89,1.83,5.81a1,1,0,0,0,.78.53c1.34,0,2.67-.16,4-.25Zm-9,20.05c1.19-1.14,2.37-2.37,3.66-3.47a1.32,1.32,0,0,0,.5-1.71c-1.19-3.34-2.32-6.7-3.47-10.06-.11-.34-.24-.68-.36-1l-.33.05Zm50.23-24.38,0-.31-2.87-.23v2.66Z" transform="translate(-390.28 -337.21)"/><path d="M501.24,495.12c.21,0,.46-.08.62,0,.9.51,1.75,1,2.82.28.13-.08,1,.61,1.22,1.08a1.36,1.36,0,0,1-1,1.92c-.55.06-1.65-.41-1.65-.64C503.25,496.31,502.29,495.76,501.24,495.12Zm4.63,1.8c-.59-.46-1.14-1-1.21-.94a4.32,4.32,0,0,0-1,1.29c0,.07.62.74.83.68C504.89,497.83,505.25,497.4,505.87,496.92Z" transform="translate(-390.28 -337.21)"/></g></svg>