<svg id="맨투맨_이미지" data-name="맨투맨 이미지" width='100%' height='100%' xmlns="http://www.w3.org/2000/svg" viewBox="0 0 140.44 165.26"><defs><style>.cls-1{fill:#fff;}</style></defs><g id="색"><path class="cls-1" d="M489.36,481l-44.48-3.91-.06-.33c.33-.18.65-.38,1-.53l12.47-5.56a2.51,2.51,0,0,0,.85-.42,2.66,2.66,0,0,0,.35-.88,2.06,2.06,0,0,0-.82-.26,3.88,3.88,0,0,0-1.12.41c-5,2.21-9.9,4.46-14.86,6.65-5.49,2.43-11,4.8-16.5,7.23a3.78,3.78,0,0,1-2.61.21c-7.2-1.79-14.42-3.5-21.62-5.28-1.85-.46-3.67-1.05-5.7-1.64,0-.38,0-.85,0-1.31.4-7.81.62-15.64,1.27-23.42.7-8.25,1.75-16.48,2.77-24.69a281.94,281.94,0,0,1,6.39-33.85q2-8.13,4-16.28c.09-.39-.19-.87-.3-1.3-.32.33-.83.62-.94,1-.91,3.42-1.78,6.87-2.62,10.32-2.79,11.43-5.5,22.89-7.08,34.57-.83,6.08-1.53,12.19-2.28,18.28-.2,1.65-.38,3.29-.57,4.93l-.32,0c-.33-1.89-.75-3.77-1-5.67-1.06-9-2.12-18.07-3.05-27.11-.29-2.78-.21-5.59-.27-8.38-.12-5.95-.38-11.9-.26-17.85a39.65,39.65,0,0,1,3.76-15.73c2.51-5.49,7-8.72,12.6-10.46a82.74,82.74,0,0,1,18.79-3.44c1.82-.13,3.63-.3,5.48-.46.17,2.09.24,4.08.51,6a26.55,26.55,0,0,0,5.24,12.7,13.1,13.1,0,0,0,3,2.44c9.28,6.58,25.93,7,38-2a65.16,65.16,0,0,0,17-18.29,1.65,1.65,0,0,1,2-1c4.07.73,8.19,1.23,12.27,2a13.21,13.21,0,0,1,8.8,5.92c4.18,6.28,8.05,12.76,9.32,20.31a75,75,0,0,1,.74,12.28c0,12.14-2.37,23.95-5.41,35.64-1.92,7.41-3.88,14.82-5.82,22.23a1.5,1.5,0,0,1-.56.89V451l0-11.5a2.48,2.48,0,0,0-.06-.95c-.12-.28-.43-.47-.66-.7-.22.25-.52.46-.62.75a3.46,3.46,0,0,0-.05,1.07c.07,11.14.15,22.29.18,33.43,0,4-.09,8.06-.22,12.09a10.19,10.19,0,0,1-2.81,6.85c-2.82,2.92-5.82,5.68-8.82,8.43a3.31,3.31,0,0,1-4.07.64,19.62,19.62,0,0,0-3.86-1.27,1.4,1.4,0,0,1-1.2-1.39c-.32-3.49-.64-7-1-10.48s-.77-7-1.16-10.46c0-.08-.08-.18-.05-.22,1.2-1.8,0-3.61,0-5.41.21-9.62.13-19.25.55-28.86.77-17.45,3.42-34.62,9.05-51.22,1.29-3.81,3-7.48,4.48-11.22a2.84,2.84,0,0,0-.09-1.14c-.35.17-.89.24-1,.52a38.88,38.88,0,0,0-1.7,3.57,150.71,150.71,0,0,0-8.84,30.9,212.41,212.41,0,0,0-3.38,32.71c-.23,7-.36,14-.44,21.08,0,2.46.23,4.94.33,7.41a1.62,1.62,0,0,1-.21.88C491.12,478,490.23,479.52,489.36,481Z" transform="translate(-390.48 -352.13)"/><path class="cls-1" d="M438.32,355.57c.09,1.92.07,3.75.28,5.56a15.09,15.09,0,0,0,12.73,13.25,27.52,27.52,0,0,0,10.92-.47,46.08,46.08,0,0,0,15.48-6.81A32.84,32.84,0,0,0,488.56,355c.26-.49.56-1,.74-1.28l7,2s0,.16,0,.24c-6.39,10.5-14.67,19.11-26.31,23.5a31,31,0,0,1-27.17-2.09,15.87,15.87,0,0,1-7.22-8.92,40,40,0,0,1-2-11.53,1,1,0,0,1,1-1.19C435.81,355.64,437,355.62,438.32,355.57Z" transform="translate(-390.48 -352.13)"/><path class="cls-1" d="M497.42,511.57c-.6-3.77-1.19-7.54-1.83-11.58l2.7.87c-.48,1.73-.92,3.33-1.36,4.94l.4.11,1.51-4.88,2.31.75-3.36,9.79Z" transform="translate(-390.48 -352.13)"/><path class="cls-1" d="M498,514.27a6,6,0,0,1,0-1.56q1.61-4.89,3.3-9.73c.11-.33.5-.57.76-.86a3,3,0,0,1,.11,1.13c-.81,2.57-1.63,5.14-2.54,7.68A36,36,0,0,1,498,514.27Z" transform="translate(-390.48 -352.13)"/></g><path id="선" d="M530,383.34c-1.64-7.62-5.4-14.28-9.75-20.65a14,14,0,0,0-9.15-6.06c-4.06-.77-8.19-1.23-12.27-1.94-2.93-.51-5.94-.8-8.6-2.35-.94-.55-1.55.1-2.1.7a5.62,5.62,0,0,0-.73,1.24,31,31,0,0,1-7.66,9.56,41.78,41.78,0,0,1-22.39,9.47,16.9,16.9,0,0,1-11.56-2.58,14.4,14.4,0,0,1-5.67-15.59c.06-.23-.26-.72-.52-.84a2.44,2.44,0,0,0-1.18-.08c-4.38.32-8.75.61-13.12,1a77.87,77.87,0,0,0-18.15,3.6,20.88,20.88,0,0,0-13.8,13.59,48.17,48.17,0,0,0-2.89,16.66c.11,7,.35,14.05.55,21.08,0,1.47.11,2.95.25,4.42.51,5.16.91,10.34,1.62,15.47.81,5.84,1.93,11.64,2.86,17.46a21.79,21.79,0,0,1,.36,4.48c-.37,7.69-.87,15.37-1.25,23.06-.1,2.17.85,3.24,3,3.76,8.41,2,16.82,4,25.22,6.13a5.61,5.61,0,0,0,3.71-.31c3.48-1.49,7-2.9,10.44-4.51a13.47,13.47,0,0,1,7.66-1.53c4.71.58,9.47.69,14.2,1.09,6.87.57,13.74,1.21,20.61,1.86,3.09.29,6.17.67,9.26,1a1.35,1.35,0,0,0,1.57-.78c.42-.91,1-1.77,1.46-2.66.67,4.32,1,8.56,1.48,12.79.55,5.07,1.13,10.14,1.81,15.2.39,2.84,1.09,5.64,1.49,8.48.17,1.21.58,1.83,1.88,1.85.12-.35.25-.73.37-1.1,1.16-3.69,2.26-7.41,3.52-11.06a7.13,7.13,0,0,1,1.79-2.72c2.54-2.42,5.18-4.74,7.81-7.06a17.32,17.32,0,0,0,5.78-11.6,52.52,52.52,0,0,0,0-5.47c0-5.07,0-10.14,0-15.2a26,26,0,0,1,.95-6.68c3-10.88,5.91-21.8,8.52-32.78a122.4,122.4,0,0,0,3.4-25.58C531,393.18,531.09,388.22,530,383.34Zm-95.44-27.59c1.22-.11,2.45-.13,3.73-.18.09,1.92.07,3.75.28,5.56a15.09,15.09,0,0,0,12.73,13.25,27.52,27.52,0,0,0,10.92-.47,46.08,46.08,0,0,0,15.48-6.81A32.84,32.84,0,0,0,488.56,355c.26-.49.56-1,.74-1.28l7,2s0,.16,0,.24c-6.39,10.5-14.67,19.11-26.31,23.5a31,31,0,0,1-27.17-2.09,15.87,15.87,0,0,1-7.22-8.92,40,40,0,0,1-2-11.53A1,1,0,0,1,434.59,355.75Zm62.83,155.82c-.6-3.77-1.19-7.54-1.83-11.58l2.7.87c-.48,1.73-.92,3.33-1.36,4.94l.4.11c.49-1.57,1-3.13,1.51-4.88l2.31.75c-1.15,3.35-2.25,6.57-3.36,9.79Zm4.76-8.32c-.81,2.57-1.63,5.14-2.54,7.68a36,36,0,0,1-1.64,3.34,6,6,0,0,1,0-1.56q1.61-4.89,3.3-9.73c.11-.33.5-.57.76-.86A3,3,0,0,1,502.18,503.25ZM524.07,432c-1.92,7.41-3.88,14.82-5.82,22.23a1.5,1.5,0,0,1-.56.89V451l0-11.5a2.48,2.48,0,0,0-.06-.95c-.12-.28-.43-.47-.66-.7-.22.25-.52.46-.62.75a3.46,3.46,0,0,0-.05,1.07c.07,11.14.15,22.29.18,33.43,0,4-.09,8.06-.22,12.09a10.19,10.19,0,0,1-2.81,6.85c-2.82,2.92-5.82,5.68-8.82,8.43a3.31,3.31,0,0,1-4.07.64,19.62,19.62,0,0,0-3.86-1.27,1.4,1.4,0,0,1-1.2-1.39c-.32-3.49-.64-7-1-10.48s-.77-7-1.16-10.46c0-.08-.08-.18-.05-.22,1.2-1.8,0-3.61,0-5.41.21-9.62.13-19.25.55-28.86.77-17.45,3.42-34.62,9.05-51.22,1.29-3.81,3-7.48,4.48-11.22a2.84,2.84,0,0,0-.09-1.14c-.35.17-.89.24-1,.52a38.88,38.88,0,0,0-1.7,3.57,150.71,150.71,0,0,0-8.84,30.9,212.41,212.41,0,0,0-3.38,32.71c-.23,7-.36,14-.44,21.08,0,2.46.23,4.94.33,7.41a1.62,1.62,0,0,1-.21.88c-.85,1.53-1.74,3-2.61,4.57l-44.48-3.91-.06-.33c.33-.18.65-.38,1-.53l12.47-5.56a2.51,2.51,0,0,0,.85-.42,2.66,2.66,0,0,0,.35-.88,2.06,2.06,0,0,0-.82-.26,3.88,3.88,0,0,0-1.12.41c-5,2.21-9.9,4.46-14.86,6.65-5.49,2.43-11,4.8-16.5,7.23a3.78,3.78,0,0,1-2.61.21c-7.2-1.79-14.42-3.5-21.62-5.28-1.85-.46-3.67-1.05-5.7-1.64,0-.38,0-.85,0-1.31.4-7.81.62-15.64,1.27-23.42.7-8.25,1.75-16.48,2.77-24.69a281.94,281.94,0,0,1,6.39-33.85q2-8.13,4-16.28c.09-.39-.19-.87-.3-1.3-.32.33-.83.62-.94,1-.91,3.42-1.78,6.87-2.62,10.32-2.79,11.43-5.5,22.89-7.08,34.57-.83,6.08-1.53,12.19-2.28,18.28-.2,1.65-.38,3.29-.57,4.93l-.32,0c-.33-1.89-.75-3.77-1-5.67-1.06-9-2.12-18.07-3.05-27.11-.29-2.78-.21-5.59-.27-8.38-.12-5.95-.38-11.9-.26-17.85a39.65,39.65,0,0,1,3.76-15.73c2.51-5.49,7-8.72,12.6-10.46a82.74,82.74,0,0,1,18.79-3.44c1.82-.13,3.63-.3,5.48-.46.17,2.09.24,4.08.51,6a26.55,26.55,0,0,0,5.24,12.7,13.1,13.1,0,0,0,3,2.44c9.28,6.58,25.93,7,38-2a65.16,65.16,0,0,0,17-18.29,1.65,1.65,0,0,1,2-1c4.07.73,8.19,1.23,12.27,2a13.21,13.21,0,0,1,8.8,5.92c4.18,6.28,8.05,12.76,9.32,20.31a75,75,0,0,1,.74,12.28C529.48,408.52,527.11,420.33,524.07,432Z" transform="translate(-390.48 -352.13)"/></svg>