<?xml version="1.0" encoding="utf-8"?>
<!-- Generator: Adobe Illustrator 27.1.1, SVG Export Plug-In . SVG Version: 6.00 Build 0)  -->
<svg version="1.1" xmlns="http://www.w3.org/2000/svg" xmlns:xlink="http://www.w3.org/1999/xlink" x="0px" y="0px"
	 viewBox="0 0 2480 2480" style="enable-background:new 0 0 2480 2480;" xml:space="preserve">
<style type="text/css">
	.st0{fill:#7484FF;enable-background:new    ;}
	.st1{fill:none;stroke:#000000;stroke-width:7;stroke-linecap:round;stroke-linejoin:round;stroke-miterlimit:10;}
</style>
<g id="fill">
	<path class="st0" d="M1500.5,356.4c0,0,75.4,20.9,72.1,114.3s-26.6,126.9-42.7,145.5c-16.1,18.6-10.7,10.6-9.1,27.5
		c1.7,16.9,6,31.7-4.7,36.4s-31.9-12.7-41.7-14.5s-30.2,0.7-30.2,0.7l0.5-81.8c0,0-25.8-2.8-31.8-23.3s-6.7-69.4-6.7-69.4
		s-6.4,25.7-30.5,36.2c-24.1,10.5-63.1-2.2-63.1-2.2l-22.1-21.5c0,0-15.2,15.9-26.8,23.8c-11.6,7.9-29.4,14.9-32.1,14
		c-2.7-0.9-21.4,5.2-39.9-15.4c-18.5-20.6-52.7-101.7-52.7-101.7s-24.4,55-44,72.6c-19.7,17.6-41.1,26.4-41.1,26.4l9.1,97.8
		c0,0-74.6-8.5-77.9-56.5c-3.2-48,20.8-57.6,14.7-69.2c-6.1-11.6-35-56.2-13.8-114.8c21.2-58.5,80.8-60.8,80.8-60.8
		s1.3-69.3,59.2-81.4s96.1-12.7,122.6,8.8s28,26,28,26s24.5-39.3,65.5-46.7c40.9-7.4,105.8-7.3,130.5,30.2
		C1497.4,295.1,1505.2,316.5,1500.5,356.4z"/>
</g>
<g id="head">
	<path class="st1" d="M1500.5,356.4c0,0,75.4,20.9,72.1,114.3s-26.6,126.9-42.7,145.5c-16.1,18.6-10.7,10.6-9.1,27.5
		c1.7,16.9,6,31.7-4.7,36.4s-31.9-12.7-41.7-14.5s-30.2,0.7-30.2,0.7l0.5-81.8c0,0-25.8-2.8-31.8-23.3s-6.7-69.4-6.7-69.4
		s-6.4,25.7-30.5,36.2c-24.1,10.5-63.1-2.2-63.1-2.2l-22.1-21.5c0,0-15.2,15.9-26.8,23.8c-11.6,7.9-29.4,14.9-32.1,14
		c-2.7-0.9-21.4,5.2-39.9-15.4c-18.5-20.6-52.7-101.7-52.7-101.7s-24.4,55-44,72.6c-19.7,17.6-41.1,26.4-41.1,26.4l9.1,97.8
		c0,0-74.6-8.5-77.9-56.5c-3.2-48,20.8-57.6,14.7-69.2c-6.1-11.6-35-56.2-13.8-114.8c21.2-58.5,80.8-60.8,80.8-60.8
		s1.3-69.3,59.2-81.4s96.1-12.7,122.6,8.8s28,26,28,26s24.5-39.3,65.5-46.7c40.9-7.4,105.8-7.3,130.5,30.2
		C1497.4,295.1,1505.2,316.5,1500.5,356.4z"/>
</g>
</svg>
