<svg id="정바지" xmlns="http://www.w3.org/2000/svg" width='100%' height='100%' viewBox="0 0 130.33 118.57"><defs><style>.cls-1{fill:#fff;}</style></defs><g id="색"><path class="cls-1" d="M452.29,595.2H402.22c-.46-3.19-1-6.37-1.38-9.58-.6-5.43-1.07-10.87-1.62-16.3-.33-3.34-.79-6.66-1-10-.6-8.35-1.1-16.7-1.64-25.06-.08-1.34-.16-2.68-.23-3.83,3.21-1.11,6.29-2.08,9.3-3.24a35.13,35.13,0,0,0,4.78-2.42,1.77,1.77,0,0,0,.67-1.34q.06-16.15.05-32.32c0-.39,0-.77.07-1.16h25.6v18.71c-2.41-1-4.68-1.88-7-2.73-.54-.19-1.13-1.05-1.71-.18a3.58,3.58,0,0,0,1.32,1.21c4.52,2,9.07,3.89,13.59,5.88a2.51,2.51,0,0,1,1.33,1.29c2.76,9.46,5.45,18.94,8.14,28.41a11.6,11.6,0,0,1,.71,3.38c-.3,10.33-.78,20.65-1,31C452,583,452.24,589.1,452.29,595.2Z" transform="translate(-393.35 -476.63)"/><path class="cls-1" d="M521.52,595.2h-50.3c-.37-1.18-.71-2.36-1.1-3.54-4.3-12.89-8.76-25.74-12.85-38.7-3.94-12.47-7.51-25.06-11.24-37.6-.12-.39-.21-.79-.38-1.4.73.2,1.23.29,1.7.47,2.87,1.09,5.72,2.23,8.6,3.29s5.71,2,8.57,3a6.53,6.53,0,0,0,1.48.12l.07-.41a11,11,0,0,0-1-.58c-5.72-2.34-11.44-4.69-17.18-7a1.43,1.43,0,0,1-1.13-1.61c.05-6.66,0-13.33.05-20v-1.24a2.76,2.76,0,0,1,.49-.15q14.49,0,29,0a1.28,1.28,0,0,1,.85.8q3.11,15.36,6.11,30.74c.22,1.17.59,1.57,1.86,1.87,4.14,1,8.18,2.37,12.29,3.52a1.63,1.63,0,0,1,1.23,1.38c1.84,6.56,3.4,13.23,5.66,19.64C509.87,563.72,515.76,579.44,521.52,595.2Z" transform="translate(-393.35 -476.63)"/><path class="cls-1" d="M396.24,529.87c-.15-2.29-.34-4.19-.39-6.09-.22-7.86-.45-15.71-.56-23.56-.05-3.15.2-6.3.3-9.44,0-.58.12-1,.86-1,4.39,0,8.78,0,13.17.05a1.73,1.73,0,0,1,.39.13c0,.34.06.69.07,1,0,10.61,0,21.22.05,31.84a1.76,1.76,0,0,1-1.28,1.95C404.74,526.42,400.65,528.09,396.24,529.87Z" transform="translate(-393.35 -476.63)"/><path class="cls-1" d="M493,490a253.07,253.07,0,0,0,5,35.42c-1.94-.45-3.59-.82-5.24-1.22-2.47-.6-4.93-1.26-7.42-1.82a1.33,1.33,0,0,1-1.21-1.2q-1.41-7.41-2.88-14.8c-1-5.21-2.1-10.4-3.14-15.6A7,7,0,0,1,478,490Z" transform="translate(-393.35 -476.63)"/><path class="cls-1" d="M446.82,478.63h45.64v7.12H446.82Z" transform="translate(-393.35 -476.63)"/><path class="cls-1" d="M396,485.3v-6.74h41v6.74Z" transform="translate(-393.35 -476.63)"/><path class="cls-1" d="M445.12,490v21.83c-2.13-.8-4.24-1.58-6.32-2.42-.2-.08-.36-.51-.36-.78q0-9.15,0-18.31a1.28,1.28,0,0,1,.1-.32Z" transform="translate(-393.35 -476.63)"/><path class="cls-1" d="M436.84,486.44v2.41h-41v-2.41Z" transform="translate(-393.35 -476.63)"/><path class="cls-1" d="M492.71,487.23l.1,1.51H446.88l-.08-1.51Z" transform="translate(-393.35 -476.63)"/><path class="cls-1" d="M445.19,488.79h-6.8V478.63h6.8Z" transform="translate(-393.35 -476.63)"/></g><g id="선"><path d="M400.07,595.2c-.5-3.35-1.09-6.68-1.46-10.05q-1.38-12.42-2.56-24.87c-.38-4-.56-8-.82-12-.44-6.73-.91-13.45-1.27-20.18-.22-4.35-.28-8.7-.36-13-.12-6.19-.33-12.37-.22-18.55.09-4.9.61-9.79.91-14.69.07-1,0-2,0-3,0-1.7.24-1.95,1.93-2l14.49-.06,81.8-.13h1.3c0,1.12-.08,2.14,0,3.15.53,5.64,1,11.28,1.68,16.9q1.14,9.44,2.59,18.84a100.47,100.47,0,0,0,2.3,12.1c2.53,8.89,5.12,17.78,8.17,26.5,4.78,13.66,9.95,27.18,15,40.76,0,.11.11.21.16.32h-2.16c-5.76-15.76-11.65-31.48-17.22-47.31-2.26-6.41-3.82-13.08-5.66-19.64a1.63,1.63,0,0,0-1.23-1.38c-4.11-1.15-8.15-2.52-12.29-3.52-1.27-.3-1.64-.7-1.86-1.87q-3-15.37-6.11-30.74a1.28,1.28,0,0,0-.85-.8q-14.49,0-29,0a2.76,2.76,0,0,0-.49.15v1.24c0,6.66,0,13.33-.05,20a1.43,1.43,0,0,0,1.13,1.61c5.74,2.28,11.46,4.63,17.18,7a11,11,0,0,1,1,.58l-.07.41a6.53,6.53,0,0,1-1.48-.12c-2.86-1-5.73-2-8.57-3s-5.73-2.2-8.6-3.29c-.47-.18-1-.27-1.7-.47.17.61.26,1,.38,1.4,3.73,12.54,7.3,25.13,11.24,37.6,4.09,13,8.55,25.81,12.85,38.7.39,1.18.73,2.36,1.1,3.54H469.3c-.45-1.36-.91-2.72-1.35-4.08q-6.15-18.81-12.29-37.61c-.34-1-.6-2.1-.9-3.15a2.65,2.65,0,0,0-.25,1.31c0,4,0,8.06-.11,12.09-.18,8.61-.43,17.22-.6,25.83,0,1.87.11,3.74.17,5.61h-1.68c-.05-6.1-.26-12.2-.12-18.3.23-10.33.71-20.65,1-31a11.6,11.6,0,0,0-.71-3.38c-2.69-9.47-5.38-18.95-8.14-28.41a2.51,2.51,0,0,0-1.33-1.29c-4.52-2-9.07-3.89-13.59-5.88a3.58,3.58,0,0,1-1.32-1.21c.58-.87,1.17,0,1.71.18,2.31.85,4.58,1.78,7,2.73V490h-25.6c0,.39-.07.77-.07,1.16q0,16.15-.05,32.32a1.77,1.77,0,0,1-.67,1.34,35.13,35.13,0,0,1-4.78,2.42c-3,1.16-6.09,2.13-9.3,3.24.07,1.15.15,2.49.23,3.83.54,8.36,1,16.71,1.64,25.06.24,3.34.7,6.66,1,10,.55,5.43,1,10.87,1.62,16.3.36,3.21.92,6.39,1.38,9.58Zm-3.83-65.33c4.41-1.78,8.5-3.45,12.61-5.06a1.76,1.76,0,0,0,1.28-1.95c-.05-10.62,0-21.23-.05-31.84,0-.35-.05-.7-.07-1a1.73,1.73,0,0,0-.39-.13c-4.39,0-8.78,0-13.17-.05-.74,0-.84.4-.86,1-.1,3.14-.35,6.29-.3,9.44.11,7.85.34,15.7.56,23.56C395.9,525.68,396.09,527.58,396.24,529.87ZM493,490H478a7,7,0,0,0,.08.78c1,5.2,2.11,10.39,3.14,15.6q1.47,7.39,2.88,14.8a1.33,1.33,0,0,0,1.21,1.2c2.49.56,4.95,1.22,7.42,1.82,1.65.4,3.3.77,5.24,1.22A253.07,253.07,0,0,1,493,490Zm-46.17-11.36v7.12h45.64v-7.12ZM396,485.3h41v-6.74H396ZM445.12,490h-6.59a1.28,1.28,0,0,0-.1.32q0,9.15,0,18.31c0,.27.16.7.36.78,2.08.84,4.19,1.62,6.32,2.42Zm-8.28-3.54h-41v2.41h41Zm55.87.79H446.8l.08,1.51h45.93Zm-47.52,1.56V478.63h-6.8v10.16Z" transform="translate(-393.35 -476.63)"/></g></svg>