<svg id="레깅스" xmlns="http://www.w3.org/2000/svg" width='100%' height='100%' viewBox="0 0 128.17 119.89"><defs><style>.cls-1{fill:#fff;}</style></defs><g id="색"><path class="cls-1" d="M516.49,595.2H472.17a11.16,11.16,0,0,0-.35-1.12,403.4,403.4,0,0,1-17.26-49.16c-2.27-8.27-4.33-16.59-6.47-24.9-.53-2-1-4.14-1.48-6.33.54.08.89.12,1.24.19a173.53,173.53,0,0,0,24,3.57c.41,0,.85-.34,1.27-.53-.37-.26-.72-.69-1.12-.75-6-.83-12-1.48-18-2.45a80.72,80.72,0,0,1-21.22-6.06c-.3-.14-.76,0-1.14.09a3.94,3.94,0,0,0,.54,1,2.6,2.6,0,0,0,.95.49c2.57,1,5.14,1.94,7.74,2.84,1.46.5,3,.85,4.36,1.24.14.74.23,1.37.39,2q3.88,15.24,7.79,30.48a5.74,5.74,0,0,1,.2,1.65c-.34,7.65-.86,15.3-1,22.95-.18,8.26,0,16.52,0,24.78H406.77q-1.47-13-3-25.91c-1.24-10.65-2.63-21.29-3.76-31.95a301.89,301.89,0,0,1-1.64-39.2c0-1.21.38-1.53,1.58-1.53q44.83.06,89.68,0c1,0,1.46.27,1.61,1.33a279,279,0,0,0,6.7,32.79c4.18,15.8,8.66,31.51,13.12,47.23C512.73,583.76,514.68,589.46,516.49,595.2Z" transform="translate(-393.59 -475.31)"/><path class="cls-1" d="M401.26,595.2c-1.05-10.15-2.27-20.28-3.1-30.45q-1.49-18.36-2.4-36.76c-.51-9.87-.68-19.77-.94-29.65-.07-2.67,0-5.35.16-8,.25-4.41.62-8.81.94-13.21a1.82,1.82,0,0,1,.13-.4h3c-.08,1.76-.15,3.49-.25,5.22-.26,4.82-.72,9.63-.76,14.45-.07,11.16-.16,22.34,1,33.46q1.65,15.95,3.43,31.87c1.23,10.86,2.56,21.7,3.85,32.55,0,.31.14.62.21.93Z" transform="translate(-393.59 -475.31)"/><path class="cls-1" d="M516.73,595.2q-2.7-8.75-5.38-17.48c-6.37-20.78-12.11-41.73-16.71-63-1.32-6.06-2-12.27-3.2-18.36-1.3-6.4-1.55-12.89-2.19-19.34a1.54,1.54,0,0,1,.08-.23h2.49c.3,2.45.6,4.94.91,7.42.42,3.28.73,6.58,1.29,9.84,1.6,9.45,3,19,5,28.31,5.05,22.78,10.71,45.41,19.08,67.25.71,1.87,1.45,3.72,2.18,5.57Z" transform="translate(-393.59 -475.31)"/><path class="cls-1" d="M490.82,496.29H400.2c-1.68,0-1.7,0-1.62-1.68q.39-8.61.82-17.22c0-.19.05-.38.1-.73h1.3q43.35,0,86.69,0c1,0,1.41.23,1.52,1.35.54,5.75,1.2,11.5,1.81,17.25C490.85,495.56,490.82,495.84,490.82,496.29Z" transform="translate(-393.59 -475.31)"/></g><g id="선"><path d="M399.83,595.2q-.66-6.66-1.33-13.33c-.59-5.91-1.26-11.81-1.78-17.72q-.9-10-1.59-20c-.35-5.13-.56-10.28-.78-15.42-.3-6.81-.76-13.63-.76-20.45,0-8.25.4-16.5.65-24.75.06-2,.23-3.91.28-5.86a13.9,13.9,0,0,0-.29-2.19c.55,0,.91-.06,1.26-.06l92-.07c1.47,0,2.94.12,4.41.12,1.09,0,1.29.64,1.39,1.53.59,5,1.13,10.06,1.86,15.07.9,6.15,1.94,12.28,3,18.4,3.24,18.93,8.18,37.47,13.58,55.87,2.82,9.59,6.58,18.9,9.91,28.33.06.19.11.38.17.57h-1.44c-.73-1.85-1.47-3.7-2.18-5.57-8.37-21.84-14-44.47-19.08-67.25-2.08-9.35-3.44-18.86-5-28.31-.56-3.26-.87-6.56-1.29-9.84-.31-2.48-.61-5-.91-7.42h-2.49a1.54,1.54,0,0,0-.08.23c.64,6.45.89,12.94,2.19,19.34,1.24,6.09,1.88,12.3,3.2,18.36,4.6,21.25,10.34,42.2,16.71,63q2.67,8.74,5.38,17.48h-.24c-1.81-5.74-3.76-11.44-5.4-17.23-4.46-15.72-8.94-31.43-13.12-47.23a279,279,0,0,1-6.7-32.79c-.15-1.06-.58-1.33-1.61-1.33q-44.84,0-89.68,0c-1.2,0-1.55.32-1.58,1.53a301.89,301.89,0,0,0,1.64,39.2c1.13,10.66,2.52,21.3,3.76,31.95q1.51,13,3,25.91h-.24c-.07-.31-.17-.62-.21-.93-1.29-10.85-2.62-21.69-3.85-32.55q-1.8-15.91-3.43-31.87c-1.15-11.12-1.06-22.3-1-33.46,0-4.82.5-9.63.76-14.45.1-1.73.17-3.46.25-5.22h-3a1.82,1.82,0,0,0-.13.4c-.32,4.4-.69,8.8-.94,13.21-.15,2.66-.23,5.34-.16,8,.26,9.88.43,19.78.94,29.65q.94,18.39,2.4,36.76c.83,10.17,2,20.3,3.1,30.45Zm91-98.91c0-.45,0-.73,0-1-.61-5.75-1.27-11.5-1.81-17.25-.11-1.12-.48-1.35-1.52-1.35q-43.35,0-86.69,0h-1.3c-.05.35-.09.54-.1.73q-.42,8.61-.82,17.22c-.08,1.67-.06,1.68,1.62,1.68h90.62Z" transform="translate(-393.59 -475.31)"/><path d="M470.74,595.2c-.74-1.8-1.54-3.58-2.2-5.42q-6.6-18.39-13.16-36.82a4.86,4.86,0,0,0-.67-1.43c-.16,2.84-.4,5.67-.46,8.51q-.3,15.84-.49,31.7c0,1.15.13,2.31.21,3.46h-1.44c0-8.26-.14-16.52,0-24.78.16-7.65.68-15.3,1-22.95a5.74,5.74,0,0,0-.2-1.65q-3.88-15.24-7.79-30.48c-.16-.61-.25-1.24-.39-2-1.39-.39-2.9-.74-4.36-1.24-2.6-.9-5.17-1.89-7.74-2.84a2.6,2.6,0,0,1-.95-.49,3.94,3.94,0,0,1-.54-1c.38,0,.84-.23,1.14-.09A80.72,80.72,0,0,0,454,513.72c6,1,12,1.62,18,2.45.4.06.75.49,1.12.75-.42.19-.86.56-1.27.53a173.53,173.53,0,0,1-24-3.57c-.35-.07-.7-.11-1.24-.19.51,2.19.95,4.28,1.48,6.33,2.14,8.31,4.2,16.63,6.47,24.9a403.4,403.4,0,0,0,17.26,49.16,11.16,11.16,0,0,1,.35,1.12Z" transform="translate(-393.59 -475.31)"/></g></svg>