<svg id="조거" xmlns="http://www.w3.org/2000/svg" viewBox="0 0 131.95 118.67"><defs><style>.cls-1{fill:#fff;}</style></defs><g id="색"><path class="cls-1" d="M452.47,595.19H401.25c-.09-.38-.19-.77-.25-1.16-.73-4.82-1.44-9.64-2.18-14.45-1.67-10.83-3.57-21.62-5-32.48-1-7.7-1.29-15.48-2-23.23a2.56,2.56,0,0,1,1.31-2.74c2.62-1.64,3.69-4,3.68-7.17,0-6.18.21-12.37.31-18.55,0-2,0-4,0-6h40.73c.35,6.86.7,13.64,1.07,20.69-2.56-.95-4.9-1.83-7.26-2.65a3,3,0,0,0-1.14,0c.16.36.22.89.49,1.06a10.64,10.64,0,0,0,2.17,1c3.68,1.25,7.36,2.5,11.06,3.68a1.76,1.76,0,0,1,1.4,1.5q1.72,7.63,3.53,15.26c1,4,2.35,8,2.92,12.08a92.09,92.09,0,0,1,.52,12.77C452.68,568.3,452.56,581.75,452.47,595.19Z" transform="translate(-389.22 -476.52)"/><path class="cls-1" d="M519.74,595.19h-47.4c-2.47-6-5.19-11.93-7.37-18.05-6.48-18.23-12.33-36.66-16.33-55.63-.5-2.4-1.11-4.78-1.73-7.39,2.06.53,3.87,1.07,5.71,1.47q6.72,1.49,13.45,2.84c.41.08.91-.32,1.36-.5-.38-.27-.72-.7-1.15-.79-4.28-.93-8.56-1.87-12.86-2.67-1.44-.27-1.84-1-1.88-2.32-.21-7.18-.48-14.35-.72-21.53,0-.39,0-.78.06-1.21.32,0,.55-.06.78-.06q20.11,0,40.21,0a1.8,1.8,0,0,1,1.27.77c2,3.12,3.94,6.29,5.94,9.42a5.31,5.31,0,0,1,.8,2.65c.41,6.93.91,13.85,1.39,20.77.08,1.21.19,2.42.3,3.76-5.09-.38-9.84-1.25-14.17-3.69a5.8,5.8,0,0,1-2.73-3.79c-1.57-6.22-3.17-12.44-4.63-18.69-.79-3.33-1.31-6.72-2-10.08-.08-.34-.49-.61-.75-.92a12.37,12.37,0,0,0-.58,1.15c0,.12,0,.3.07.46,1.71,9.38,3.79,18.67,6.39,27.85a8.9,8.9,0,0,0,5.46,6.2A38.08,38.08,0,0,0,500.7,528c.85,0,1.13.37,1.22,1.2.4,3.52.85,7,1.31,10.56.19,1.43.47,2.86.74,4.46-5.05.15-9.91.29-14.77.41-1.29,0-1.82.57-1.62,1.86a19.94,19.94,0,0,0,.57,2.07c1.43,5.48,2.83,11,4.28,16.43,1,3.65,2,7.29,3.05,10.92a5.9,5.9,0,0,0,.77,1.86,1.49,1.49,0,0,0,1.22.56q7.06-1.22,14.11-2.56c.81-.15,1.17.05,1.46.87,1.59,4.47,3.26,8.92,4.89,13.37C518.55,591.74,519.14,593.47,519.74,595.19Z" transform="translate(-389.22 -476.52)"/><path class="cls-1" d="M430.22,478.15h25.86v7c0,2.88,0,2.88-2.86,2.88-7.25,0-14.5,0-21.75,0-1,0-1.38-.27-1.34-1.34.07-2.43,0-4.86,0-7.29C430.15,479,430.19,478.61,430.22,478.15Z" transform="translate(-389.22 -476.52)"/><path class="cls-1" d="M492.52,487.92c-.56,0-.95.07-1.33.07-7,0-14,0-21.06,0-1.05,0-1.48-.23-1.45-1.38.07-2.78,0-5.57,0-8.46h22.9C491.9,481.38,492.21,484.6,492.52,487.92Z" transform="translate(-389.22 -476.52)"/><path class="cls-1" d="M494.17,557l12.14-2c1.69,5.54,3.35,11,5,16.45a37.24,37.24,0,0,1-11.27,2.42,1.34,1.34,0,0,1-1.49-1.09c-.33-1.23-.73-2.45-1.07-3.67Q496,563.52,494.44,558Z" transform="translate(-389.22 -476.52)"/><path class="cls-1" d="M407.93,478.14h21.85v4.07c0,1.6,0,3.19,0,4.79,0,.69-.17,1-.93,1q-10,0-20,0c-.52,0-.95,0-.94-.74C407.94,484.27,407.93,481.28,407.93,478.14Z" transform="translate(-389.22 -476.52)"/><path class="cls-1" d="M447.85,513c-2.45-.82-4.75-1.57-7-2.39-.25-.09-.48-.61-.5-.95-.28-4.93-.52-9.87-.77-14.81-.09-1.78-.18-3.57-.28-5.43h7.59C447.18,497.18,447.51,504.93,447.85,513Z" transform="translate(-389.22 -476.52)"/><path class="cls-1" d="M395.94,489.44c0,1.94,0,3.88,0,5.82-.13,6.39-.31,12.77-.43,19.15-.06,2.91-1,4.44-3.73,6-.09-1-.2-2-.26-3-.27-4.3-.48-8.6-.81-12.9a13.94,13.94,0,0,1,1.12-5.58c1-2.82,2-5.62,3-8.43a9.86,9.86,0,0,1,.71-1.26Z" transform="translate(-389.22 -476.52)"/><path class="cls-1" d="M395.47,478.14h9.81v9.75h-9.81Z" transform="translate(-389.22 -476.52)"/><path class="cls-1" d="M456.5,478.14h9.33v5.28c0,1.24,0,2.47,0,3.7,0,.3-.34.82-.53.83-2.9.05-5.79,0-8.77,0Z" transform="translate(-389.22 -476.52)"/><path class="cls-1" d="M490.64,546.08l9.94-.44c.68,0,1.36,0,2-.06,2.62-.13,2.63-.13,3.45,2.41.38,1.17.75,2.35,1.12,3.53,0,.05-.05.13,0,.06-.68,0-1.29,0-1.9,0-3.76.33-7.52.68-11.28,1a.67.67,0,0,1-.57-.29C492.49,550.29,491.6,548.26,490.64,546.08Z" transform="translate(-389.22 -476.52)"/><path class="cls-1" d="M511.66,572.78l.51,1.52L497.25,577,489,546.67l.32-.09c.76,1.74,1.51,3.5,2.31,5.23,1,2.08,1.41,2.29,3.7,2.08,3.28-.31,6.58-.6,9.87-.87a2.48,2.48,0,0,1,.92.27l-.09.32c-3.44.6-6.89,1.17-10.32,1.8-3.19.58-3.16.59-2.3,3.62,1.31,4.59,2.56,9.21,3.87,13.81.54,1.91,1.12,2.45,3.09,2.22,3-.36,5.95-1,8.92-1.55C510,573.36,510.75,573.06,511.66,572.78Z" transform="translate(-389.22 -476.52)"/><path class="cls-1" d="M448.23,489.4h1.21q.4,12,.8,23.92c-.93.15-1,.09-1.07-1-.17-3.47-.34-6.93-.49-10.4-.16-3.87-.3-7.73-.45-11.6C448.22,490.06,448.23,489.79,448.23,489.4Z" transform="translate(-389.22 -476.52)"/><path class="cls-1" d="M466.22,478.14h2.06v4.91c0,1.07,0,2.14,0,3.22,0,1.9-.07,2-2.1,1.56Z" transform="translate(-389.22 -476.52)"/><path class="cls-1" d="M405.75,478.13h1.67a5.1,5.1,0,0,1,.14.81c0,2.68,0,5.35,0,8,0,.64-.1,1-.9,1s-.94-.34-.94-1C405.76,484.09,405.75,481.18,405.75,478.13Z" transform="translate(-389.22 -476.52)"/></g><g id="선"><path d="M399.33,595.19c-.79-4.74-1.67-9.48-2.37-14.24q-1.6-10.82-3-21.67-1.28-10-2.31-20.07c-.68-6.78-1.3-13.57-1.77-20.37-.37-5.21-.49-10.44-.67-15.66a6,6,0,0,1,.5-1.95c1.3-3.85,2.64-7.68,3.89-11.55a9.94,9.94,0,0,0,.42-2.83c.11-3.07.16-6.14.22-9.21,0-.92.33-1.35,1.34-1a4.38,4.38,0,0,0,1.31.06h94.85c.77,0,1.19.12,1.25,1,.18,2.57.46,5.15.65,7.72a11.78,11.78,0,0,0,1.8,6c1.49,2.21,2.84,4.53,4.33,6.74a9.4,9.4,0,0,1,1.52,5c.32,6.45.66,12.91,1.26,19.33.66,7.1,1.62,14.17,2.45,21.25l.43-.2a7.13,7.13,0,0,1,1.11,1.57c.7,1.95,1.26,3.95,1.93,5.92.37,1.07.17,1.79-1.15,2.1.46,1.75.88,3.48,1.39,5.18,1.47,4.93,2.85,9.89,4.51,14.75,2.25,6.56,4.73,13,7.1,19.54.31.85.57,1.73.85,2.59h-1.44c-.6-1.72-1.19-3.45-1.81-5.17-1.63-4.45-3.3-8.9-4.89-13.37-.29-.82-.65-1-1.46-.87q-7.05,1.34-14.11,2.56a1.49,1.49,0,0,1-1.22-.56,5.9,5.9,0,0,1-.77-1.86c-1-3.63-2.08-7.27-3.05-10.92-1.45-5.47-2.85-11-4.28-16.43a19.94,19.94,0,0,1-.57-2.07c-.2-1.29.33-1.83,1.62-1.86,4.86-.12,9.72-.26,14.77-.41-.27-1.6-.55-3-.74-4.46-.46-3.52-.91-7-1.31-10.56-.09-.83-.37-1.15-1.22-1.2a38.08,38.08,0,0,1-12.07-2.77,8.9,8.9,0,0,1-5.46-6.2c-2.6-9.18-4.68-18.47-6.39-27.85,0-.16-.12-.34-.07-.46a12.37,12.37,0,0,1,.58-1.15c.26.31.67.58.75.92.69,3.36,1.21,6.75,2,10.08,1.46,6.25,3.06,12.47,4.63,18.69a5.8,5.8,0,0,0,2.73,3.79c4.33,2.44,9.08,3.31,14.17,3.69-.11-1.34-.22-2.55-.3-3.76-.48-6.92-1-13.84-1.39-20.77a5.31,5.31,0,0,0-.8-2.65c-2-3.13-3.93-6.3-5.94-9.42a1.8,1.8,0,0,0-1.27-.77q-20.1-.06-40.21,0c-.23,0-.46,0-.78.06,0,.43-.07.82-.06,1.21.24,7.18.51,14.35.72,21.53,0,1.33.44,2.05,1.88,2.32,4.3.8,8.58,1.74,12.86,2.67.43.09.77.52,1.15.79-.45.18-.95.58-1.36.5q-6.74-1.35-13.45-2.84c-1.84-.4-3.65-.94-5.71-1.47.62,2.61,1.23,5,1.73,7.39,4,19,9.85,37.4,16.33,55.63,2.18,6.12,4.9,12,7.37,18.05h-1.67c-.12-.41-.2-.83-.36-1.23-1.95-4.76-4.12-9.45-5.81-14.3-3.36-9.59-6.46-19.28-9.67-28.93l-.49-1.44a58.18,58.18,0,0,0-.24,6.29q-.15,18.67-.29,37.35c0,.76.06,1.51.1,2.26h-1.44c.09-13.44.21-26.89.22-40.33a92.09,92.09,0,0,0-.52-12.77c-.57-4.09-1.95-8.05-2.92-12.08q-1.81-7.62-3.53-15.26a1.76,1.76,0,0,0-1.4-1.5c-3.7-1.18-7.38-2.43-11.06-3.68a10.64,10.64,0,0,1-2.17-1c-.27-.17-.33-.7-.49-1.06a3,3,0,0,1,1.14,0c2.36.82,4.7,1.7,7.26,2.65-.37-7.05-.72-13.83-1.07-20.69H397.2c0,2,0,4,0,6-.1,6.18-.32,12.37-.31,18.55,0,3.12-1.06,5.53-3.68,7.17a2.56,2.56,0,0,0-1.31,2.74c.67,7.75,1,15.53,2,23.23,1.39,10.86,3.29,21.65,5,32.48.74,4.81,1.45,9.63,2.18,14.45.06.39.16.78.25,1.16Zm30.89-117c0,.46-.07.85-.07,1.24,0,2.43.05,4.86,0,7.29,0,1.07.3,1.35,1.34,1.34,7.25,0,14.5,0,21.75,0,2.86,0,2.86,0,2.86-2.88v-7Zm62.3,9.77c-.31-3.32-.62-6.54-.92-9.74H468.7c0,2.89.05,5.68,0,8.46,0,1.15.4,1.38,1.45,1.38,7,0,14,0,21.06,0C491.57,488,492,488,492.52,487.92ZM494.17,557l.27,1q1.53,5.53,3.07,11.06c.34,1.22.74,2.44,1.07,3.67a1.34,1.34,0,0,0,1.49,1.09,37.24,37.24,0,0,0,11.27-2.42c-1.68-5.49-3.34-10.91-5-16.45Zm-86.24-78.84c0,3.14,0,6.13,0,9.12,0,.71.42.74.94.74q10,0,20,0c.76,0,.94-.32.93-1,0-1.6,0-3.19,0-4.79v-4.07ZM447.85,513c-.34-8.07-.67-15.82-1-23.58h-7.59c.1,1.86.19,3.65.28,5.43.25,4.94.49,9.88.77,14.81,0,.34.25.86.5.95C443.1,511.43,445.4,512.18,447.85,513Zm-51.91-23.56-.39-.15a9.86,9.86,0,0,0-.71,1.26c-1,2.81-2.06,5.61-3,8.43a13.94,13.94,0,0,0-1.12,5.58c.33,4.3.54,8.6.81,12.9.06,1,.17,1.94.26,3,2.77-1.57,3.67-3.1,3.73-6,.12-6.38.3-12.76.43-19.15C396,493.32,395.94,491.38,395.94,489.44Zm-.47-11.3v9.75h9.81v-9.75Zm61,0V488c3,0,5.87,0,8.77,0,.19,0,.52-.53.53-.83.07-1.23,0-2.46,0-3.7v-5.28Zm34.14,67.94c1,2.18,1.85,4.21,2.77,6.22a.67.67,0,0,0,.57.29c3.76-.32,7.52-.67,11.28-1,.61-.05,1.22,0,1.9,0,0,.07,0,0,0-.06-.37-1.18-.74-2.36-1.12-3.53-.82-2.54-.83-2.54-3.45-2.41-.67,0-1.35,0-2,.06Zm21,26.7c-.91.28-1.65.58-2.42.73-3,.56-5.93,1.19-8.92,1.55-2,.23-2.55-.31-3.09-2.22-1.31-4.6-2.56-9.22-3.87-13.81-.86-3-.89-3,2.3-3.62,3.43-.63,6.88-1.2,10.32-1.8l.09-.32a2.48,2.48,0,0,0-.92-.27c-3.29.27-6.59.56-9.87.87-2.29.21-2.74,0-3.7-2.08-.8-1.73-1.55-3.49-2.31-5.23l-.32.09,8.3,30.29,14.92-2.66ZM448.23,489.4c0,.39,0,.66,0,.93.15,3.87.29,7.73.45,11.6.15,3.47.32,6.93.49,10.4.05,1.08.14,1.14,1.07,1q-.4-11.94-.8-23.92Zm18-11.26v9.69c2,.42,2.13.34,2.1-1.56,0-1.08,0-2.15,0-3.22v-4.91Zm-60.47,0c0,3.05,0,6,0,8.87,0,.67.16,1,.94,1s.9-.4.9-1c0-2.68,0-5.35,0-8a5.1,5.1,0,0,0-.14-.81Z" transform="translate(-389.22 -476.52)"/></g></svg>