<?xml version="1.0" encoding="UTF-8"?>
<svg id="_코트_이미지" data-name="코트 이미지" xmlns="http://www.w3.org/2000/svg" viewBox="0 0 164.81 234.9">
  <defs>
    <style>
      .cls-1 {
        fill: #fff;
      }
    </style>
  </defs>
  <g id="_색" data-name="색">
    <path class="cls-1" d="M127.95,182.67c-8.25,.57-16.27,1.12-24.3,1.66,0,.14-.01,.27-.02,.41,.65,0,1.29,.04,1.94,0,6.57-.45,13.15-.91,19.72-1.37,.83-.06,1.66-.13,2.67-.21,.56,3.66,1.1,7.27,1.7,11.22-8.56,.64-17.06,1.28-25.57,1.92,0,.14,0,.28,0,.42,.39,0,.77,.03,1.16,0,7.76-.59,15.53-1.16,23.29-1.81,.98-.08,1.26,.12,1.42,1.11,1.43,9.02,2.92,18.04,4.4,27.05,.11,.67,.18,1.34,.28,2.15-.46,.03-.89,.07-1.31,.07-10.9,0-21.81-.01-32.71,.03-1.02,0-1.36-.32-1.51-1.29-1.37-8.47-2.84-16.92-4.16-25.4-.84-5.4-1.65-10.81-2.16-16.25-.2-2.17,.36-4.43,.75-6.62,2.58-14.62,5.04-29.26,7.87-43.83,3.46-17.78,7.24-35.5,10.88-53.25,1.83-8.91,3.71-17.81,5.5-26.73,.37-1.87,.43-3.8,.65-5.7,.14-1.16-.5-1.73-1.51-1.89-1.06-.16-2.16-.1-3.22-.28-.39-.07-.95-.47-1.03-.82-2.22-8.99-4.4-17.99-6.55-26.99-.34-1.44-.48-2.93-.75-4.56,1.19-.19,2.51-.44,3.83-.59,6.85-.8,13.7-1.69,20.57-2.31,4.5-.41,9.02-.39,13.35,1.31,.85,.33,1.36,.8,1.69,1.67,1.59,4.21,2.29,8.63,3.02,13.04,.93,5.63,1.93,11.25,2.75,16.89,.72,4.93,1.17,9.91,1.83,14.85,1.05,7.75,2.09,15.5,3.3,23.23,1.48,9.46,3.16,18.89,4.72,28.34,.94,5.7,1.84,11.42,2.75,17.12,.56,3.48,.1,6.9-1.16,10.12-2.64,6.77-5.34,13.52-8.3,20.15-4.92,11.05-10.13,21.97-15.06,33.02-2.03,4.55-3.65,9.28-5.45,13.93-.17,.44-.32,.88-.7,1.3-.47-2.99-.94-5.98-1.41-8.97-1.28-8.2-2.62-16.39-3.76-24.61-.23-1.67,.11-3.51,.54-5.18,2.48-9.5,5.07-18.97,7.62-28.45,.79-2.93,1.59-5.86,2.38-8.78,.07-.27,.1-.71,.26-.77,1.33-.5,.75-1.47,.6-2.31-1.51-8.69-2.85-17.41-4.58-26.05-2.84-14.2-5.21-28.52-9.56-42.37-1.63-5.2-3.95-10.19-6.14-15.2-.69-1.57-1.95-2.9-3.01-4.29-.16-.21-.67-.17-1.02-.24,.01,.36-.12,.83,.06,1.07,5.11,6.73,7.78,14.58,9.82,22.58,2.81,11.01,5.18,22.14,7.44,33.29,1.84,9.11,3.16,18.32,4.9,27.45,.47,2.48,.49,4.76-.2,7.18-2.52,8.75-4.98,17.51-7.35,26.29-1.13,4.2-1.81,8.53-3.11,12.66-.81,2.57,.48,4.66,.68,6.97,.25,2.81,.8,5.59,1.26,8.62Zm-24.2,12.83c.17-.01,.33-.02,.5-.03-.25-3.5-.5-7-.75-10.51-.16,.01-.32,.02-.48,.04,.25,3.5,.49,7,.74,10.5Z"/>
    <path class="cls-1" d="M117.16,45.69c-.45,3.31-.71,6.49-1.34,9.59-2.31,11.3-4.83,22.56-7.1,33.86-3.96,19.72-7.83,39.45-11.65,59.2-1.74,9.01-3.28,18.05-5.07,27.12-.12-.98-.28-1.95-.36-2.94-.67-7.59-1.27-15.2-2.01-22.78-.62-6.43-1.46-12.84-2.05-19.28-.18-2.01,.12-4.06,.24-6.1,.29-4.94,.56-9.89,.9-14.83,.41-5.93,.86-11.87,1.34-17.8,.48-5.97,1.01-11.93,1.53-17.9,.49-5.53,.95-11.06,1.52-16.58,.36-3.41,.89-6.79,1.41-10.18,.06-.37,.53-.89,.89-.98,1.39-.31,2.8-.61,4.22-.67,3.83-.17,7.66-.28,11.5-.27,1.98,0,3.96,.33,6.04,.52Z"/>
    <path class="cls-1" d="M111.34,43.77c-5.69,.19-11.22,.38-16.85,.57,.42-3.56,.73-7.05,1.26-10.51,.98-6.38,2.09-12.75,3.11-19.13,.07-.42-.12-.99-.39-1.34-.57-.74-1-1.44-.98-2.44,.06-3.02,.02-6.05,.02-9.04,2.1,.03,3.24,1.3,4,3.29,2.07,5.43,3.17,11.11,4.53,16.73,1.65,6.83,3.34,13.64,5.02,20.46,.11,.46,.19,.93,.28,1.4Z"/>
    <path class="cls-1" d="M99.49,225.87c.49-.03,.88-.07,1.27-.07,10.9,0,21.8,.01,32.69-.03,1.11,0,1.41,.37,1.52,1.41,.21,1.94,.59,3.85,.92,5.92-.47,.02-.89,.06-1.31,.06-10.82,0-21.64-.01-32.46,.03-1.05,0-1.45-.3-1.58-1.35-.25-1.96-.68-3.91-1.05-5.97Z"/>
    <path class="cls-1" d="M38.1,118c-2.51,7.14-4.98,14.05-7.37,20.98-2.4,6.94-4.73,13.9-7.2,21.18-.25-1.73-.55-3.15-.65-4.58-.96-13.7-4.7-26.87-7.68-40.17-3.84-17.21-8.01-34.36-11.92-51.56-1.36-6-2.17-12.1-1.85-18.3,.21-4.01,1.74-7.6,3.5-11.11,.86-1.71,1.92-3.32,3.01-4.89,2.62-3.8,6.17-6.41,10.51-7.98,4.54-1.64,9.2-2.55,14.02-2.87,4.66-.31,9.3-.85,13.95-1.27,1.86-.17,3.73-.3,5.84-.46-.25,.55-.4,.93-.58,1.3-3.23,6.64-6.48,13.28-9.68,19.94-.34,.71-.77,1.01-1.51,1.11-2.29,.32-4.57,.68-7.02,1.05,.29,1.97,.57,3.88,.84,5.8,1.04,7.51,2.09,15.02,3.09,22.53,.95,7.12,1.85,14.25,2.73,21.38,.56,4.55,.88,9.14,1.62,13.67,1.16,7.12,2.68,14.18,3.87,21.29,.69,4.17,1,8.4,1.54,12.59,.57,4.35,1.29,8.69,1.8,13.05,.52,4.4,.83,8.82,1.28,13.23,.43,4.33,.95,8.65,1.36,12.98,.17,1.83,.21,3.67,.22,5.5,.03,13.51,.01,27.01,.07,40.52,0,1.21-.3,1.54-1.53,1.53-10.7-.05-21.41-.03-32.11-.03h-1.36c.3-9.17,.59-18.2,.89-27.26h25.69v-10.36H18.55c0,.13,0,.27,0,.4h24.51c0,.84,.01,1.47,0,2.09-.04,2.08-.1,4.15-.13,6.23,0,.59-.09,.99-.83,.99-7.95-.02-15.9-.02-23.84-.03-.11,0-.22-.07-.49-.16,0-1.15,.09-2.34-.02-3.52-.42-4.76,1.01-9.22,2.12-13.73,1.04-4.18,2-8.4,3.33-12.5,3.96-12.25,8.07-24.45,12.14-36.67,1.04-3.11,2.15-6.19,3.25-9.27,.2-.55,.28-1.32,1.25-1.06,.08,.02,.45-.54,.46-.84,0-.26-.3-.54-.49-.8-10.77-14.09-18.97-29.54-24.48-46.4-3.07-9.41-6.06-18.85-8.2-28.53-.18-.82-.23-1.67-.45-2.47-.11-.38-.48-.69-.74-1.03-.2,.42-.61,.85-.57,1.25,.11,1.15,.35,2.29,.63,3.41,4.11,16.32,8.72,32.48,16.1,47.69,4.4,9.07,9.65,17.66,15.72,25.73,.17,.22,.32,.45,.28,.4Z"/>
    <path class="cls-1" d="M57.69,40.8c0,1.75,.09,3.37-.01,4.98-.43,6.85-.88,13.7-1.37,20.55-.5,7.05-1.06,14.09-1.58,21.14-.6,8.12-1.08,16.25-1.79,24.36-.41,4.72-1.14,9.42-1.77,14.12-.49,3.68-1.05,7.35-1.58,11.02-.06,.43-.15,.86-.43,1.31-.32-1.91-.66-3.82-.95-5.74-1.17-7.65-2.34-15.3-3.46-22.96-.57-3.91-1.04-7.83-1.56-11.74-1.14-8.5-2.2-17-3.43-25.48-1.43-9.79-2.98-19.56-4.55-29.32-.19-1.16,.12-1.56,1.2-1.81,5.75-1.36,11.57-1.14,17.39-.77,1.27,.08,2.54,.22,3.9,.34Z"/>
    <path class="cls-1" d="M51.87,232.5c-11.9,.33-23.64,.66-35.57,1,.16-2.83,.32-5.59,.48-8.48,.47-.03,.85-.07,1.23-.07,10.85,0,21.71,.01,32.56-.03,1.09,0,1.36,.34,1.32,1.36-.07,2.02-.02,4.05-.02,6.22Z"/>
    <path class="cls-1" d="M61.95,4.65c.52,2.52,1.17,5.02,1.52,7.56,.29,2.06-.32,2.62-2.37,2.91-1.58,.22-2.8,1.65-2.82,3.27-.08,6.55-.17,13.1-.25,19.64,0,.39-.04,.79-.06,1.27-4.92-.18-9.79-.35-14.79-.54,5.7-11.57,10.84-23.46,18.2-34.16,.19,.02,.38,.04,.57,.06Z"/>
  </g>
  <g id="_선" data-name="선">
    <path d="M164.49,124.37c-1.14-5.5-1.81-11.1-2.73-16.65-1.55-9.33-3.23-18.63-4.71-27.97-1.19-7.57-2.19-15.16-3.21-22.76-.65-4.86-1.09-9.76-1.79-14.61-.82-5.68-1.75-11.36-2.78-17.01-.78-4.27-1.7-8.52-2.79-12.73-.56-2.18-2.15-3.66-4.41-4.32-3.18-.92-6.43-1.13-9.72-1.03-8.88,.27-17.64,1.58-26.39,2.96-.93,.15-1.17-.14-1.47-.98-.8-2.2-1.71-4.36-2.7-6.49-.28-.61-.85-1.24-1.45-1.51-1.23-.54-2.56-.83-4.04-1.28-.45,4.49-.35,8.86,.11,13.23,.03,.32,.26,.74,.53,.9,.64,.38,.52,.83,.43,1.42-.99,5.94-2.09,11.87-2.89,17.83-.97,7.28-1.73,14.58-2.49,21.89-.68,6.55-1.26,13.11-1.85,19.67-.54,5.96-1.05,11.93-1.52,17.9-.49,6.29-.94,12.58-1.37,18.87-.32,4.74-.61,9.48-.86,14.23-.12,2.3-.35,4.64-.14,6.92,.33,3.69,1.08,7.34,1.46,11.02,.53,5.04,.86,10.1,1.32,15.15,.5,5.53,1.06,11.04,1.57,16.57,.25,2.7,.28,5.42,.68,8.1,.73,4.97,1.69,9.9,2.48,14.86,1.05,6.62,2.01,13.25,3.06,19.87,.82,5.15,1.76,10.29,2.61,15.44,.16,.99,.79,.96,1.49,.91,.66-.05,1.32-.22,1.98-.23,10.7-.01,21.41-.01,32.11,0,.44,0,.89-.05,1.31,.05,1.09,.25,1.26-.23,1.09-1.17-.51-2.93-1.01-5.87-1.48-8.81-.83-5.16-1.61-10.33-2.48-15.48-.24-1.41-.22-2.7,.31-4.07,1.96-5.06,3.63-10.24,5.81-15.21,2.84-6.47,6.2-12.71,9.07-19.17,4.59-10.37,8.99-20.82,13.38-31.28,.97-2.3,1.69-4.74,2.24-7.18,.57-2.56,.81-5.13,.25-7.85ZM95.75,33.83c.98-6.38,2.09-12.75,3.11-19.13,.07-.42-.12-.99-.39-1.34-.57-.74-1-1.44-.98-2.44,.06-3.02,.02-6.05,.02-9.04,2.1,.03,3.24,1.3,4,3.29,2.07,5.43,3.17,11.11,4.53,16.73,1.65,6.83,3.34,13.64,5.02,20.46,.11,.46,.19,.93,.28,1.4-5.69,.19-11.22,.38-16.85,.57,.42-3.56,.73-7.05,1.26-10.51Zm-4.13,138.7c-.67-7.59-1.27-15.2-2.01-22.78-.62-6.43-1.46-12.84-2.05-19.28-.18-2.01,.12-4.06,.24-6.1,.29-4.94,.56-9.89,.9-14.83,.41-5.93,.86-11.87,1.34-17.8,.48-5.97,1.01-11.93,1.53-17.9,.49-5.53,.95-11.06,1.52-16.58,.36-3.41,.89-6.79,1.41-10.18,.06-.37,.53-.89,.89-.98,1.39-.31,2.8-.61,4.22-.67,3.83-.17,7.66-.28,11.5-.27,1.98,0,3.96,.33,6.04,.52-.45,3.31-.71,6.49-1.34,9.59-2.31,11.3-4.83,22.56-7.1,33.86-3.96,19.72-7.83,39.45-11.65,59.2-1.74,9.01-3.28,18.05-5.07,27.12-.12-.98-.28-1.95-.36-2.94Zm44.27,60.57c-.47,.02-.89,.06-1.31,.06-10.82,0-21.64-.01-32.46,.03-1.05,0-1.45-.3-1.58-1.35-.25-1.96-.68-3.91-1.05-5.97,.49-.03,.88-.07,1.27-.07,10.9,0,21.8,.01,32.69-.03,1.11,0,1.41,.37,1.52,1.41,.21,1.94,.59,3.85,.92,5.92Zm26.15-97.73c-2.64,6.77-5.34,13.52-8.3,20.15-4.92,11.05-10.13,21.97-15.06,33.02-2.03,4.55-3.65,9.28-5.45,13.93-.17,.44-.32,.88-.7,1.3-.47-2.99-.94-5.98-1.41-8.97-1.28-8.2-2.62-16.39-3.76-24.61-.23-1.67,.11-3.51,.54-5.18,2.48-9.5,5.07-18.97,7.62-28.45,.79-2.93,1.59-5.86,2.38-8.78,.07-.27,.1-.71,.26-.77,1.33-.5,.75-1.47,.6-2.31-1.51-8.69-2.85-17.41-4.58-26.05-2.84-14.2-5.21-28.52-9.56-42.37-1.63-5.2-3.95-10.19-6.14-15.2-.69-1.57-1.95-2.9-3.01-4.29-.16-.21-.67-.17-1.02-.24,.01,.36-.12,.83,.06,1.07,5.11,6.73,7.78,14.58,9.82,22.58,2.81,11.01,5.18,22.14,7.44,33.29,1.84,9.11,3.16,18.32,4.9,27.45,.47,2.48,.49,4.76-.2,7.18-2.52,8.75-4.98,17.51-7.35,26.29-1.13,4.2-1.81,8.53-3.11,12.66-.81,2.57,.48,4.66,.68,6.97,.25,2.81,.8,5.59,1.26,8.62-8.25,.57-16.27,1.12-24.3,1.66l-.02,.41c.65,0,1.29,.04,1.94,0,6.57-.45,13.15-.91,19.72-1.37,.83-.06,1.66-.13,2.67-.21,.56,3.66,1.1,7.27,1.7,11.22-8.56,.64-17.06,1.28-25.57,1.92,0,.14,0,.28,0,.42,.39,0,.77,.03,1.16,0,7.76-.59,15.53-1.16,23.29-1.81,.98-.08,1.26,.12,1.42,1.11,1.43,9.02,2.92,18.04,4.4,27.05,.11,.67,.18,1.34,.28,2.15-.46,.03-.89,.07-1.31,.07-10.9,0-21.81-.01-32.71,.03-1.02,0-1.36-.32-1.51-1.29-1.37-8.47-2.84-16.92-4.16-25.4-.84-5.4-1.65-10.81-2.16-16.25-.2-2.17,.36-4.43,.75-6.62,2.58-14.62,5.04-29.26,7.87-43.83,3.46-17.78,7.24-35.5,10.88-53.25,1.83-8.91,3.71-17.81,5.5-26.73,.37-1.87,.43-3.8,.65-5.7,.14-1.16-.49-1.73-1.51-1.89-1.06-.16-2.16-.1-3.22-.28-.39-.07-.95-.47-1.03-.82-2.22-8.99-4.4-17.99-6.55-26.99-.34-1.44-.48-2.93-.75-4.56,1.19-.19,2.51-.44,3.83-.59,6.85-.8,13.7-1.69,20.57-2.31,4.5-.41,9.02-.39,13.35,1.31,.85,.33,1.36,.8,1.68,1.67,1.6,4.22,2.29,8.63,3.02,13.04,.93,5.63,1.93,11.25,2.75,16.89,.72,4.93,1.17,9.91,1.83,14.85,1.05,7.75,2.09,15.5,3.3,23.23,1.48,9.46,3.16,18.89,4.72,28.34,.94,5.7,1.84,11.42,2.75,17.12,.56,3.48,.1,6.9-1.16,10.12Z"/>
    <path d="M63.16,4.81c-.28-.73-.81-1.37-1.22-2.05-.66,.52-1.51,.92-1.95,1.59-2.16,3.31-4.23,6.68-6.26,10.07-.48,.8-.92,1.24-1.92,1.24-1.39,0-2.78,.21-4.17,.33-4.93,.44-9.86,.79-14.78,1.35-3.6,.41-7.21,.88-10.73,1.69-6.11,1.41-11.43,4.24-15.16,9.54-2.34,3.32-4.32,6.82-5.52,10.71-.54,1.73-1.07,3.5-1.24,5.29-.65,6.8,.39,13.48,1.89,20.07,4.88,21.48,9.9,42.93,14.81,64.41,1.32,5.76,2.56,11.53,3.57,17.35,.76,4.36,1.1,8.79,1.59,13.19,.17,1.57,.59,3.23,.27,4.71-.83,3.9-2,7.73-3.03,11.58-1.81,6.74-3.67,13.48-2.87,20.58,.05,.43-.01,.88-.03,1.32-.43,11.3-.86,22.59-1.33,33.89-.03,.71,.28,1.65-.75,2.03,.2,.38,.31,.95,.62,1.1,.38,.19,.94,.04,1.41,.03,7.15-.2,14.29-.39,21.44-.59,4.75-.13,9.49-.3,14.24-.41,.95-.02,1.18-.41,1.16-1.31-.1-6.42-.22-12.85-.18-19.28,.04-5.91,.39-11.82,.39-17.73,0-6.15-.34-12.29-.38-18.44-.05-7.21-.75-14.34-1.81-21.46-.7-4.68-1.54-9.36-.82-14.14,.71-4.78,1.38-9.56,2-14.35,.69-5.37,1.93-10.66,2.05-16.12,.1-4.59,.5-9.17,.85-13.75,.72-9.36,1.57-18.7,2.23-28.07,.29-4.06,.1-8.15,.36-12.21,.41-6.27,1.21-12.52,1.5-18.79,.31-6.7,.22-13.42,.31-20.13,0-.43,0-.86,0-1.29,1.09-.23,2.13-.28,3.01-.67,.73-.33,1.7-1,1.81-1.65,.29-1.66,.36-3.42,.12-5.08-.22-1.55-.88-3.05-1.46-4.54Zm-11.29,227.68c-11.9,.33-23.64,.66-35.57,1,.16-2.83,.32-5.59,.48-8.48,.47-.03,.85-.07,1.23-.07,10.85,0,21.71,.01,32.56-.03,1.09,0,1.36,.34,1.32,1.36-.07,2.02-.02,4.05-.02,6.22Zm-1.62-68.59c.43,4.33,.95,8.65,1.36,12.98,.17,1.83,.21,3.67,.22,5.5,.03,13.51,.01,27.01,.07,40.52,0,1.21-.3,1.54-1.53,1.53-10.7-.05-21.41-.03-32.11-.03h-1.36c.3-9.17,.59-18.2,.89-27.26h25.69v-10.36H18.55c0,.13,0,.27,0,.4h24.51c0,.84,.01,1.47,0,2.09-.04,2.08-.1,4.15-.13,6.23,0,.59-.09,.99-.83,.99-7.95-.02-15.9-.02-23.84-.03-.11,0-.22-.07-.49-.16,0-1.15,.09-2.34-.02-3.52-.42-4.76,1.01-9.22,2.12-13.73,1.04-4.18,2-8.4,3.33-12.5,3.96-12.25,8.07-24.45,12.14-36.67,1.04-3.11,2.15-6.19,3.25-9.27,.2-.55,.28-1.32,1.25-1.06,.08,.02,.45-.54,.46-.84,0-.26-.3-.54-.49-.8-10.77-14.09-18.97-29.54-24.48-46.4-3.07-9.41-6.06-18.85-8.2-28.53-.18-.82-.23-1.67-.45-2.47-.11-.38-.48-.69-.74-1.03-.2,.42-.61,.85-.57,1.25,.11,1.15,.35,2.29,.63,3.41,4.11,16.32,8.72,32.48,16.1,47.69,4.4,9.07,9.65,17.66,15.72,25.73,.17,.22,.32,.45,.28,.4-2.51,7.14-4.98,14.05-7.37,20.98-2.4,6.94-4.73,13.9-7.2,21.18-.25-1.73-.55-3.15-.65-4.58-.96-13.7-4.7-26.87-7.68-40.17-3.84-17.21-8.01-34.36-11.92-51.56-1.36-6-2.17-12.1-1.85-18.3,.21-4.01,1.74-7.6,3.5-11.11,.86-1.71,1.92-3.32,3.01-4.89,2.62-3.8,6.17-6.41,10.51-7.98,4.54-1.64,9.2-2.55,14.02-2.87,4.66-.31,9.3-.85,13.95-1.27,1.86-.17,3.73-.3,5.84-.46-.25,.55-.4,.93-.58,1.3-3.23,6.64-6.48,13.28-9.68,19.94-.34,.71-.77,1.01-1.51,1.11-2.29,.32-4.57,.68-7.02,1.05,.29,1.97,.57,3.88,.84,5.8,1.04,7.51,2.09,15.02,3.09,22.53,.95,7.12,1.85,14.25,2.73,21.38,.56,4.55,.88,9.14,1.62,13.67,1.16,7.12,2.68,14.18,3.87,21.29,.69,4.17,1,8.4,1.54,12.59,.57,4.35,1.29,8.69,1.8,13.05,.52,4.4,.83,8.82,1.28,13.23Zm7.42-118.12c-.43,6.85-.88,13.7-1.37,20.55-.5,7.05-1.06,14.09-1.58,21.14-.6,8.12-1.08,16.25-1.79,24.36-.41,4.72-1.14,9.42-1.77,14.12-.49,3.68-1.05,7.35-1.58,11.02-.06,.43-.15,.86-.43,1.31-.32-1.91-.66-3.82-.95-5.74-1.17-7.65-2.34-15.3-3.46-22.96-.57-3.91-1.04-7.83-1.56-11.74-1.13-8.5-2.2-17-3.43-25.48-1.43-9.79-2.98-19.56-4.55-29.32-.19-1.16,.12-1.56,1.2-1.82,5.75-1.36,11.57-1.14,17.39-.77,1.27,.08,2.54,.22,3.9,.34,0,1.75,.09,3.37-.01,4.98Zm3.42-30.67c-1.58,.22-2.8,1.65-2.82,3.27-.08,6.55-.17,13.1-.25,19.64,0,.39-.04,.79-.06,1.27-4.92-.18-9.79-.35-14.79-.54,5.7-11.57,10.84-23.46,18.2-34.16,.19,.02,.38,.04,.57,.06,.52,2.52,1.17,5.02,1.52,7.56,.29,2.06-.32,2.62-2.37,2.91Z"/>
    <path d="M103.01,185.01c.25,3.5,.49,7,.74,10.5l.5-.03c-.25-3.5-.5-7-.75-10.51-.16,.01-.32,.02-.48,.04Z"/>
  </g>
</svg>