<?xml version="1.0" encoding="UTF-8"?>
<svg id="_셔츠_이미지" data-name="셔츠 이미지" xmlns="http://www.w3.org/2000/svg" viewBox="0 0 162.41 203.05">
  <defs>
    <style>
      .cls-1 {
        fill: #fff;
      }
    </style>
  </defs>
  <g id="_색" data-name="색">
    <path class="cls-1" d="M81.3,144.85c.59-1.17,1.06-1.99,1.43-2.86,.83-1.94,.57-2.97-1.07-4.3-1.42-1.15-2.09-2.56-2.16-4.45-.39-10.18-.87-20.35-1.33-30.53-.11-2.43-.23-4.87-.36-7.3-.02-.36-.04-.73-.17-1.06-.07-.18-.35-.42-.51-.4-.23,.03-.55,.23-.61,.43-.11,.37-.1,.79-.08,1.18,.36,6.42,.8,12.84,1.09,19.26,.28,6.07,.45,12.14,.57,18.21,.05,2.38,.86,4.29,2.75,5.7,.97,.72,1.19,1.58,.68,2.61-.64,1.29-1.21,2.64-2.08,3.76-.5,.65-1.49,.99-2.33,1.3-9.18,3.34-17.78,7.93-26.58,12.1-4.94,2.34-10.02,4.37-15.05,6.5-.25,.11-.7,.04-.93-.13-3.81-2.84-7.6-5.71-11.36-8.61-.22-.17-.32-.71-.24-1,.28-.95,.74-1.85,1.02-2.8,3.27-11.36,7.22-22.48,11.81-33.38,.63-1.5,1.15-3.05,1.88-4.51,.6-1.2,.38-2.02-.42-3.11-5.58-7.57-10.34-15.64-14.68-23.99C14.23,71.45,9.1,54.3,4.55,36.93c-.38-1.46-.37-1.46-1.54-1.86,.9-2.75,1.51-5.6,3.16-8.05,.64-.96,1.27-1.94,1.98-2.85,1.54-1.94,3.47-3.36,5.7-4.46,3.92-1.94,7.89-3.68,12.29-4.14,2.18-.23,4.37-.33,6.56-.43,6.54-.32,13.08-.56,19.61-.93,1.86-.11,3.69-.56,5.62-.87,.08,1.58,.14,3.17,.25,4.75,.14,1.99,.21,3.99,.52,5.95,.15,.98,.62,1.98,1.2,2.8,2.46,3.44,5.01,6.81,7.58,10.29,2.45-3.06,4.93-6.17,7.61-9.52,.38,2.81,.98,5.32,1.01,7.83,.11,7.71-.03,15.42-.01,23.13,.02,10.35,.09,20.7,.14,31.04,0,.24-.03,.52,.08,.71,.18,.31,.46,.56,.69,.84,.21-.29,.57-.58,.59-.88,.05-1.03-.04-2.08-.04-3.11,0-11.03,.01-22.05-.01-33.08-.01-6.43,.15-12.88-.25-19.29-.19-3.12,1.33-5.27,2.54-7.88,1.45,2.09,2.81,4.05,4.18,5.99,.74,1.04,1.55,2.04,2.27,3.09,.45,.65,.88,.73,1.44,.18,3.95-3.85,7.9-7.68,11.82-11.55,.32-.32,.52-.9,.52-1.37,.03-4.59,.02-9.19,0-13.78,0-.47-.12-.94-.21-1.6,1.6-.31,3.22-.63,4.84-.95,8.63-1.71,17.3-3.04,26.13-2.74,3.33,.11,6.61,.42,9.54,2.27,1.53,.97,2.74,2.16,3.57,3.77,1.96,3.78,2.93,7.87,3.58,12,1.55,9.81,2.99,19.64,4.36,29.48,1.17,8.34,2.24,16.69,3.25,25.05,.83,6.89,1.46,13.81,2.29,20.71,.92,7.65,1.96,15.28,2.97,22.91,.22,1.66,.66,3.3,.74,4.97,.06,1.13-.15,2.34-.53,3.4-2.12,5.89-4.22,11.8-6.54,17.62-3.76,9.43-8.32,18.5-12.98,27.51-.29,.56-.59,1.12-.94,1.79-2.14-1.02-4.22-2.01-6.29-3.01-2.44-1.18-4.89-2.36-7.3-3.6-.34-.18-.69-.63-.76-1-.37-1.96-.69-3.93-.94-5.91-.09-.73-.06-1.52,.09-2.24,1.77-8.39,4.8-16.39,7.66-24.44,1.28-3.61,2.6-7.21,3.93-10.81,.19-.5,.58-.93,.78-1.43,.16-.38,.3-.84,.23-1.22-.54-2.82-1.18-5.62-1.7-8.44-1.57-8.52-2.98-17.06-4.68-25.55-1.87-9.31-3.99-18.57-5.99-27.86-1.01-4.68-1.98-9.37-3.01-14.05-1.03-4.71-3.77-8.4-7.13-11.69-.23-.23-.74-.18-1.12-.25,.03,.36,.01,.74,.12,1.07,.08,.25,.32,.45,.53,.64,4.05,3.69,6.07,8.43,7.11,13.69,3.88,19.73,8.75,39.27,11.97,59.14,.62,3.82,1.55,7.58,2.23,11.39,.16,.93,.1,2-.2,2.89-3.38,9.86-6.89,19.67-10.21,29.54-1.03,3.05-1.61,6.24-2.36,9.38-.18,.75-.45,1.27-1.27,1.53-4.45,1.4-8.89,2.86-13.34,4.26-.33,.1-.78,.01-1.1-.13-4.13-1.81-8.26-3.6-12.36-5.47-5.12-2.33-10.21-4.74-15.33-7.08-.68-.31-.98-.67-.96-1.42,.07-1.87,.03-3.75,.15-5.62,.02-.39,.46-.91,.84-1.08,1.56-.7,3.18-1.29,4.77-1.93,.3-.12,.65-.2,.85-.42,.24-.25,.34-.62,.51-.94-.35-.08-.75-.32-1.03-.22-1.11,.39-2.18,.88-3.55,1.45Z"/>
    <path class="cls-1" d="M21.53,153.25c-2.54-10.63-5.34-21.22-7.57-31.92-2.44-11.72-4.37-23.54-6.49-35.32-1.44-7.96-2.96-15.91-4.19-23.9-.84-5.47-1.45-11-1.74-16.53-.15-3.05,.59-6.14,.93-9.21,.16,0,.32-.01,.48-.02,.13,.43,.27,.86,.38,1.29,3.45,13.35,7.28,26.59,12.76,39.26,5.29,12.24,11.63,23.92,19.56,34.69,.79,1.07,.96,1.87,.41,3.2-4.56,11.08-8.9,22.24-12.37,33.73-.49,1.62-1.13,3.19-1.7,4.79-.15-.02-.31-.04-.46-.05Z"/>
    <path class="cls-1" d="M95.17,2.89c1.15,1.76,2.31,3.47,3.39,5.24,.25,.4,.24,.99,.25,1.5,.08,4.43,.15,8.85,.2,13.28,0,.24-.13,.55-.3,.71-3.71,3.63-7.43,7.24-11.15,10.85-.11,.1-.27,.15-.59,.33-2-2.94-4.01-5.85-5.96-8.81-.15-.23,.06-.91,.32-1.15,1.58-1.46,3.31-2.77,4.83-4.29,3.03-3.05,5.99-6.18,8.88-9.36,.39-.43,.24-1.36,.31-2.07,.02-.18-.16-.37-.16-.56-.01-1.86,0-3.72,0-5.66Z"/>
    <path class="cls-1" d="M61.31,4.51c.23,2.72,.38,5.13,.67,7.52,.08,.65,.45,1.39,.92,1.86,3.93,3.85,7.92,7.65,11.89,11.46,.05,.05,.07,.14,.1,.2-2.35,3.11-4.69,6.21-7.1,9.41-2.15-2.77-4.21-5.51-6.36-8.15-.95-1.17-1.43-2.41-1.49-3.91-.2-4.71-.4-9.42-.75-14.12-.14-1.79,.61-2.95,2.13-4.26Z"/>
    <path class="cls-1" d="M126.01,170.38c4.68,2.24,9.05,4.34,13.31,6.38-3.16,7.23-6.28,14.35-9.51,21.73-1.27-9.38-2.52-18.59-3.8-28.11Zm11.98,8c.02-1.06-.73-1.97-1.65-2.01-.96-.04-1.95,.99-1.97,2.03-.02,1.08,.73,1.91,1.71,1.91,1,0,1.9-.92,1.91-1.93Z"/>
    <path class="cls-1" d="M70.03,150.95c2.64-1.16,4.99-2.19,7.4-3.24v6.22c-2.47-1-4.76-1.92-7.4-2.98Z"/>
    <path class="cls-1" d="M134.68,178.17c.49-.35,.93-.92,1.47-1.01,.74-.13,1.31,.4,1.3,1.21,0,.84-.55,1.45-1.34,1.36-.51-.06-.96-.66-1.43-1.02v-.54Z"/>
  </g>
  <g id="_선" data-name="선">
    <path d="M162.24,122.73c-1.6-11.34-2.91-22.71-4.32-34.08-.79-6.38-1.52-12.76-2.31-19.13-.72-5.74-1.44-11.48-2.24-17.21-1.34-9.56-2.59-19.14-4.18-28.66-.7-4.19-1.97-8.3-3.27-12.35-1.46-4.55-5.05-6.92-9.51-7.85-4.8-1-9.69-.78-14.56-.4-7.33,.56-14.54,1.97-21.73,3.43-.82,.17-1.21-.05-1.61-.74-1-1.73-2.04-3.44-3.16-5.08-.25-.36-.91-.43-1.38-.64-.16,.41-.46,.83-.45,1.24,.07,2.31,.15,4.63,.36,6.94,.12,1.36-.18,2.44-1.04,3.52-3.19,3.99-6.91,7.43-10.82,10.67-1.8,1.49-3.21,3.18-4.16,5.3-.24,.55-.61,1.05-.92,1.57-.34-.75-.38-1.42-.52-2.07-.26-1.17-.22-2.4-1.27-3.36-3.23-2.97-6.34-6.08-9.57-9.05-1.5-1.39-2.16-3.03-2.37-5.03-.23-2.17-.68-4.32-1.16-6.44-.24-1.06-.69-1.11-1.43-.29-.91,1.01-1.79,2.04-2.64,3.1-.2,.25-.28,.65-.26,.98,.05,1.31,.14,2.62,.25,3.92,.06,.67-.25,.94-.85,1.04-1.37,.24-2.74,.64-4.12,.72-6.53,.37-13.06,.81-19.6,.94-6.39,.12-12.43,1.35-18.4,3.73-5.04,2-8.09,5.68-10.54,10.1C1.83,32.3,.81,37.57,.25,42.91c-.55,5.27-.14,10.54,.79,15.74,1.89,10.56,3.88,21.09,5.8,31.64,1.24,6.79,2.5,13.58,3.64,20.39,2.57,15.38,6.81,30.37,10.54,45.48,.13,.51,.6,1.01,1.03,1.37,.69,.58,1.5,1.04,2.24,1.57,3.16,2.29,6.31,4.6,9.47,6.89,.88,.64,1.73,.85,2.85,.35,4.4-1.98,8.87-3.79,13.26-5.8,5.84-2.68,11.63-5.47,17.42-8.25,.79-.38,1.45-.45,2.25-.09,7.36,3.3,14.73,6.56,22.09,9.84,4.84,2.16,9.69,4.33,14.51,6.53,1.34,.61,2.58,.57,3.97,.1,4.55-1.54,9.44-2.17,13.53-5.32,.1,.37,.17,.55,.19,.74,.97,7.56,1.89,15.13,2.92,22.68,.69,5.1,1.53,10.18,2.34,15.26,.06,.36,.43,.68,.65,1.01,.24-.31,.58-.59,.7-.94,.53-1.51,.97-3.04,1.47-4.56,2.59-7.71,6.22-14.95,9.92-22.16,2.1-4.09,4.18-8.18,6.2-12.3,4.94-10.04,9.29-20.34,13.01-30.9,1.07-3.04,1.65-6.1,1.17-9.46ZM81.32,24.83c1.58-1.46,3.31-2.77,4.83-4.29,3.03-3.05,5.99-6.18,8.88-9.36,.39-.43,.24-1.36,.31-2.07,.02-.18-.16-.37-.16-.56-.01-1.86,0-3.72,0-5.66,1.15,1.76,2.31,3.47,3.39,5.24,.25,.4,.24,.99,.25,1.5,.08,4.43,.15,8.85,.2,13.28,0,.24-.13,.55-.3,.71-3.71,3.63-7.43,7.24-11.15,10.85-.11,.1-.27,.15-.59,.33-2-2.94-4.01-5.85-5.96-8.81-.15-.23,.06-.91,.32-1.15ZM61.31,4.51c.23,2.72,.38,5.13,.67,7.52,.08,.65,.45,1.39,.92,1.86,3.93,3.85,7.92,7.65,11.89,11.46,.05,.05,.07,.14,.1,.2-2.35,3.11-4.69,6.21-7.1,9.41-2.15-2.77-4.21-5.51-6.36-8.15-.95-1.17-1.43-2.41-1.49-3.91-.2-4.71-.4-9.42-.75-14.12-.14-1.79,.61-2.95,2.13-4.26ZM21.99,153.3c-.15-.02-.31-.04-.46-.05-2.54-10.63-5.34-21.22-7.57-31.92-2.44-11.72-4.37-23.54-6.49-35.32-1.44-7.96-2.96-15.91-4.19-23.9-.84-5.47-1.45-11-1.74-16.53-.15-3.05,.59-6.14,.93-9.21,.16,0,.32-.01,.48-.02,.13,.43,.27,.86,.38,1.29,3.45,13.35,7.28,26.59,12.76,39.26,5.29,12.24,11.63,23.92,19.56,34.69,.79,1.07,.96,1.87,.41,3.2-4.56,11.08-8.9,22.24-12.37,33.73-.49,1.62-1.13,3.19-1.7,4.79Zm55.44,.63c-2.47-1-4.76-1.92-7.4-2.98,2.64-1.16,4.99-2.19,7.4-3.24v6.22Zm52.39,44.56c-1.27-9.38-2.52-18.59-3.8-28.11,4.68,2.24,9.05,4.34,13.31,6.38-3.16,7.23-6.28,14.35-9.51,21.73Zm30.83-69.74c-2.12,5.89-4.22,11.8-6.54,17.62-3.76,9.43-8.32,18.5-12.98,27.51-.29,.56-.59,1.12-.94,1.79-2.14-1.02-4.22-2.01-6.29-3.01-2.44-1.18-4.89-2.36-7.3-3.6-.34-.18-.69-.63-.76-1-.37-1.96-.69-3.93-.94-5.91-.09-.73-.06-1.52,.09-2.24,1.77-8.39,4.8-16.39,7.66-24.44,1.28-3.61,2.6-7.21,3.93-10.81,.19-.5,.58-.93,.78-1.43,.16-.38,.3-.84,.23-1.22-.54-2.82-1.18-5.62-1.7-8.45-1.57-8.52-2.98-17.06-4.68-25.55-1.87-9.31-3.99-18.57-5.99-27.86-1.01-4.68-1.98-9.37-3.01-14.05-1.03-4.71-3.77-8.4-7.13-11.69-.23-.23-.74-.18-1.12-.25,.03,.36,.01,.74,.12,1.07,.08,.25,.32,.45,.53,.64,4.05,3.69,6.07,8.43,7.11,13.68,3.88,19.73,8.75,39.27,11.97,59.14,.62,3.82,1.55,7.58,2.23,11.39,.16,.93,.1,2-.2,2.89-3.38,9.86-6.89,19.67-10.21,29.54-1.03,3.05-1.61,6.24-2.36,9.38-.18,.75-.45,1.27-1.27,1.53-4.45,1.4-8.89,2.86-13.34,4.26-.33,.1-.78,.01-1.1-.13-4.13-1.81-8.26-3.6-12.36-5.47-5.12-2.33-10.21-4.74-15.33-7.08-.68-.31-.98-.67-.96-1.42,.07-1.87,.03-3.75,.15-5.62,.02-.39,.46-.91,.84-1.08,1.56-.7,3.18-1.29,4.77-1.93,.3-.12,.65-.2,.85-.42,.24-.25,.34-.62,.51-.94-.35-.08-.75-.32-1.03-.22-1.11,.39-2.18,.88-3.55,1.45,.59-1.17,1.06-1.99,1.43-2.86,.83-1.94,.57-2.97-1.07-4.3-1.42-1.15-2.09-2.56-2.16-4.45-.39-10.18-.87-20.35-1.33-30.53-.11-2.43-.23-4.87-.36-7.3-.02-.36-.04-.73-.17-1.06-.07-.18-.35-.42-.51-.4-.23,.03-.55,.23-.61,.43-.11,.37-.1,.79-.08,1.18,.36,6.42,.8,12.84,1.09,19.26,.28,6.07,.45,12.14,.57,18.21,.05,2.38,.86,4.29,2.75,5.7,.97,.72,1.19,1.58,.68,2.61-.64,1.29-1.21,2.64-2.08,3.76-.5,.65-1.49,.99-2.33,1.3-9.18,3.34-17.78,7.93-26.58,12.1-4.94,2.34-10.02,4.37-15.05,6.5-.25,.11-.7,.04-.93-.13-3.81-2.84-7.6-5.71-11.36-8.61-.22-.17-.32-.71-.24-1,.28-.95,.74-1.85,1.02-2.8,3.27-11.36,7.22-22.48,11.81-33.38,.63-1.5,1.15-3.05,1.88-4.51,.6-1.2,.38-2.02-.42-3.11-5.58-7.57-10.34-15.64-14.68-23.99C14.23,71.45,9.1,54.3,4.55,36.93c-.38-1.46-.37-1.46-1.54-1.86,.9-2.75,1.51-5.6,3.16-8.05,.64-.96,1.27-1.94,1.98-2.85,1.54-1.94,3.47-3.36,5.7-4.46,3.92-1.94,7.89-3.68,12.29-4.14,2.18-.23,4.37-.33,6.56-.43,6.54-.32,13.08-.56,19.61-.93,1.86-.11,3.69-.56,5.62-.87,.08,1.58,.14,3.17,.25,4.75,.14,1.99,.21,3.99,.52,5.95,.15,.98,.62,1.98,1.2,2.8,2.46,3.44,5.01,6.81,7.58,10.29,2.45-3.06,4.93-6.17,7.61-9.52,.38,2.81,.98,5.32,1.01,7.83,.11,7.71-.03,15.42-.01,23.13,.02,10.35,.09,20.7,.14,31.04,0,.24-.03,.52,.08,.71,.18,.31,.46,.56,.69,.84,.21-.29,.57-.58,.59-.88,.05-1.03-.04-2.08-.04-3.11,0-11.03,.01-22.05-.01-33.08-.01-6.43,.15-12.88-.25-19.29-.19-3.12,1.33-5.27,2.54-7.88,1.45,2.09,2.81,4.05,4.18,5.99,.74,1.04,1.55,2.04,2.27,3.09,.45,.65,.88,.73,1.44,.18,3.95-3.85,7.9-7.68,11.82-11.55,.32-.32,.52-.9,.52-1.37,.03-4.59,.02-9.19,0-13.78,0-.47-.12-.94-.21-1.6,1.6-.31,3.22-.63,4.84-.95,8.63-1.71,17.3-3.04,26.13-2.74,3.33,.11,6.61,.42,9.54,2.27,1.53,.97,2.74,2.16,3.57,3.77,1.96,3.78,2.93,7.87,3.58,12,1.55,9.81,2.99,19.64,4.36,29.48,1.17,8.34,2.24,16.69,3.25,25.05,.83,6.89,1.46,13.81,2.29,20.71,.92,7.65,1.96,15.28,2.97,22.91,.22,1.66,.66,3.3,.74,4.97,.06,1.13-.15,2.34-.53,3.4Z"/>
    <path d="M136.08,180.31c1,0,1.9-.92,1.91-1.93,.02-1.06-.73-1.97-1.65-2.01-.96-.04-1.95,.99-1.97,2.03-.02,1.08,.73,1.91,1.71,1.91Zm-1.39-2.14c.49-.35,.93-.92,1.47-1.01,.74-.13,1.31,.4,1.3,1.21,0,.84-.55,1.45-1.34,1.36-.51-.06-.96-.66-1.43-1.02,0-.18,0-.36,0-.54Z"/>
  </g>
</svg>