<svg id="베이스" xmlns="http://www.w3.org/2000/svg" width='100%' height='100%' viewBox="0 0 274.35 442.28"><defs><style>.cls-1{fill:#fff;}.cls-2{fill:#ffd521;}.cls-3{fill:#848484;}</style></defs><g id="색깔"><path class="cls-1" d="M519,301.94c0-.69.42-1.51,1-1.34a1.83,1.83,0,0,1,1.27,1.43.92.92,0,0,1-.8,1C519.63,303,519.05,302.7,519,301.94Z" transform="translate(-315.83 -152.9)"/><path class="cls-1" d="M520,318.34c-.83,1-1.72.9-2.33-.25a5.54,5.54,0,0,1,.65-5.53,1.28,1.28,0,0,1,1.36-.49,2.15,2.15,0,0,1,1.34,1.4,5,5,0,0,1,.12,1A5.82,5.82,0,0,1,520,318.34Z" transform="translate(-315.83 -152.9)"/><path class="cls-1" d="M485.69,264.29a6.13,6.13,0,0,1,1.66,0c.58,0,.46.44.49.77a15,15,0,0,1-9.07,15,28.41,28.41,0,0,1-11.2,2,38,38,0,0,1-11.5-2.16,9.06,9.06,0,0,1-4.43-3.68c-.73-1.11-.49-2.28-.61-3.43,0-.34.22-.32.46-.38,5.3-1.33,10.52-2.93,15.9-3.89.77-.14,1,0,.95.75a15.41,15.41,0,0,0,.52,4.38c.21.75.42,1.67,1.44,1.66s1.17-.87,1.39-1.59a16.12,16.12,0,0,0,.53-5.22c0-.69.12-1,.9-1.2C477.33,266.33,481.54,265.45,485.69,264.29Z" transform="translate(-315.83 -152.9)"/><path class="cls-1" d="M475,264.37c-.68.16-1,.17-.79-.74.51-1.95.94-3.93,1.36-5.91.16-.75.47-1.07,1.29-1,3.09.41,6.18.74,8.86,2.55a3.85,3.85,0,0,1,1.57,1.92c0,.44-.34.46-.64.52Z" transform="translate(-315.83 -152.9)"/><path class="cls-1" d="M457.32,268.61a37.44,37.44,0,0,1-6,.67,17.73,17.73,0,0,1,5.72-7.1c3.71-2.86,8-4.18,12.56-4.93,1.14-.18,2.28-.33,3.42-.52.49-.08.81,0,.6.58a20.38,20.38,0,0,1-3.7,7.31,4.75,4.75,0,0,1-2.63,1.53C463.93,266.85,460.72,268.13,457.32,268.61Z" transform="translate(-315.83 -152.9)"/><path class="cls-1" d="M423.63,268.06a55.63,55.63,0,0,1-8.79-1.91,10.3,10.3,0,0,1-6.38-4.68c-.8-1.29-1.62-2.56-2.4-3.86-.92-1.53-.83-1.69,1-1.81a24.87,24.87,0,0,1,9.17,1.29c4.65,1.45,6.55,5,7.25,9.45.08.48.13.95.18,1.43C423.68,268,423.65,268,423.63,268.06Z" transform="translate(-315.83 -152.9)"/><path class="cls-1" d="M418.59,276.68c-7,3-16.83.46-18.56-10.31a6.3,6.3,0,0,1-.18-2.3c2.21.71,4.3,1.55,6.46,2,2.61.58,5.12,1.49,7.74,2a1.27,1.27,0,0,1,1.22,1.4,14.55,14.55,0,0,0,.58,3.53c.2.73.39,1.58,1.39,1.52s1.09-.94,1.23-1.67a12.89,12.89,0,0,0,.07-3.58l4.81,1c.56.12.25.51.19.75A8.25,8.25,0,0,1,418.59,276.68Z" transform="translate(-315.83 -152.9)"/><path class="cls-1" d="M403.77,256.81c.66,2.28.86,4.56,2.21,6.8L400.49,262c-.59-.17-.29-.58-.2-.86A7.69,7.69,0,0,1,403.77,256.81Z" transform="translate(-315.83 -152.9)"/><path class="cls-1" d="M396.9,440.24c-.07.05-.08.15-.12.18s-.11-.07-.15-.12a.31.31,0,0,1-.06-.13.37.37,0,0,0,.32.06h0Z" transform="translate(-315.83 -152.9)"/><path class="cls-1" d="M396.49,439.61l.4.62a.37.37,0,0,1-.32-.06C396.52,440,396.57,439.78,396.49,439.61Z" transform="translate(-315.83 -152.9)"/><path class="cls-1" d="M396.78,440.42s.05-.13.12-.18a.62.62,0,0,1-.12.68,1.34,1.34,0,0,1-.36-.92.5.5,0,0,0,.15.17.31.31,0,0,0,.06.13C396.67,440.35,396.6,440.56,396.78,440.42Z" transform="translate(-315.83 -152.9)"/><path class="cls-1" d="M396.49,439.61c.08.17,0,.38.08.56a.5.5,0,0,1-.15-.17,1.94,1.94,0,0,1,0-.48Z" transform="translate(-315.83 -152.9)"/><path class="cls-1" d="M387.83,302.35a10.63,10.63,0,0,0,3.5,5.45c3.09,2.72,6.89,4,10.73,5.09A130.47,130.47,0,0,0,423,316.75c.91.12,2.13-.09,2.65.42a.92.92,0,0,1,.12,1,13.14,13.14,0,0,0-.5,1.54,8.6,8.6,0,0,0,3.08,8.35c3.2,2.67,7,3.66,11.07,4.06q3,.3,6.08.49c.56,0,.77.19.78.76.11,5.32,0,10.63-.35,15.94-.07,1-.14,2.07-.18,3.11,0,.64-.2,1-1,1-5.81.45-11.61,1.09-17.43,1.41a78.13,78.13,0,0,0-19.42,3.36,21.26,21.26,0,0,0-13.69,12.5,48.4,48.4,0,0,0-3.61,16c-.71,10.93.13,21.78,1.4,32.63.85,7.3,1.74,14.58,3.17,21.79.22,1.08.09,2.37,1.3,3.06.07,0,.05.3,0,.45-.28,3.31-.6,6.6-.85,9.91-.05.75-.45.61-.87.49-3-.82-6-1.67-9-2.46C371,448.73,357,442.62,343.27,436c-8-3.85-15.94-7.92-23.77-12.14-.52-.27-1-.62-1.52-.95,7-2.93,11.81-8.27,16.35-13.84A101.23,101.23,0,0,0,356,362.57c1.87-10.37,3.6-20.76,4.72-31.24.75-7.07,1.09-14.17,1.5-21.27q.58-10.11,1.61-20.18c.73-7.15,1.49-14.29,2.73-21.37,4.42-25.32,11.24-49.84,24.55-72.13a120.73,120.73,0,0,1,18.46-23.8c6.62-6.58,14.68-10.8,23.47-13.68a90.12,90.12,0,0,1,22.57-4.07c5.5-.34,11-.63,16.52-.57,8.59.1,16.7,2.25,24.7,5.2,15.77,5.79,27.08,16.72,35.74,30.7A211.73,211.73,0,0,1,545.65,214a120.27,120.27,0,0,1,8.5,29c1.23,6.91,2.25,13.86,3,20.85,1,8.84,2.16,17.68,2.2,26.6,0,1,0,1.92-.07,2.88-.14,4.22.27,8.42.21,12.65-.12,7.63,0,15.27-.06,22.9a326.34,326.34,0,0,0,1.48,34.11c1.07,10.76,2.31,21.52,5,32,2.17,8.51,5.12,16.72,9.9,24.16a35.85,35.85,0,0,0,11.38,11.15c.8.49.89.75.21,1.5-3.15,3.5-7.08,6.07-10.71,9-10.62,8.55-23,13.67-35.68,18.11q-11.25,3.93-22.81,6.84c-.34.08-.69.13-1.26.25,1.43-4.32,2.94-8.4,3.94-12.64,3-12.59,6-25.16,8-37.93A141.88,141.88,0,0,0,531.2,392a45.09,45.09,0,0,0-10.69-29.2c-3.79-4.63-8.87-6.78-14.68-7.44a128.35,128.35,0,0,1-16.31-2.56c-4.21-1.05-4.4-1-4.69-5.24-.6-8.62.69-16.9,5.28-24.42a56.38,56.38,0,0,1,8.42-10.56C502.1,309,506,305.76,509.36,302c.89.79.85,2,1.61,2.87a11.17,11.17,0,0,0,7.68,3.94c.36,0,1-.19,1,.55-.05.55.28,1.16-.73,1.45-1.68.49-3.07,3.61-2.8,5.8.24,2,1.22,3.36,2.55,3.48s2.59-1,3.2-2.91a7.48,7.48,0,0,0,.37-3.54,2.82,2.82,0,0,0-.9-1.89,1.51,1.51,0,0,1-.66-1.23c.08-.94.09-1.62,1.49-1.84,6.23-1,14.54-6.19,15.69-15.65a16,16,0,0,0-2.13-9.67c-.17-.31-.36-.62-.54-.93a.62.62,0,0,1,0-.16,56.05,56.05,0,0,0,9,.63c.71,0,1.9.21,1.9-.68s-1.16-.49-1.81-.49a58.23,58.23,0,0,1-8.95-.55,4,4,0,0,1-2.33-1.09c-3.6-3.43-7.94-4.2-12.67-3.28a5.73,5.73,0,0,1-3-.2c-6.41-2.16-11.6-6.08-16.24-10.91-5.85-6.09-9.89-13.29-13.33-20.9-.84-1.85-1.62-3.73-2.44-5.62.61-.27,1,.14,1.44.22s.66.07.79-.31-.15-.51-.39-.66a.83.83,0,0,0-.32-.14c-2-.18-2.43-1.67-2.91-3.25-1.53-5.09-2.71-10.27-4.36-15.32-4.81-14.71-13.92-26.17-26.44-35.05a57,57,0,0,0-10.5-6.43c-4.82-2-9.73-2.8-14.75-.63-3.82,1.65-6.24,4.75-8.42,8.09a21,21,0,0,0-2,3.84c-3.43-2.21-5.75-2.64-9.51,0a38,38,0,0,0-9.78,10.53c-4.94,7.49-8.62,15.52-9.93,24.45A56.63,56.63,0,0,0,390.49,252c2.09,5.92,2.75,12.11,3.28,18.33.64,7.45-1,14.53-3.36,21.49-.58,1.72-1.58,3.31-2,5.1S387.34,300.45,387.83,302.35Z" transform="translate(-315.83 -152.9)"/><path class="cls-2" d="M515.87,295.73c-.18.51-.65,1.25.16,1.55s.86-.53,1.05-1a32.14,32.14,0,0,1,1.68-3.44,7.71,7.71,0,0,1,4.58-4c.91-.29,1.8-.65,2.68-1,.38-.17.87-.47.66-1s-.68-.43-1.08-.3c-3.56,1.14-7,2.6-9.6,5.38-.41.44-1.09,1-.5,1.62s.87-.45,1.56-.57C516.62,294,516.2,294.84,515.87,295.73ZM429,266.38c-1.05,8.92-5.31,16.08-12.15,21.77-.52.44-.69.87-.21,1.41a64.76,64.76,0,0,1,6.1,8c.23.36.56.64,1,.36s.33-.67.14-1-.29-.48-.45-.71a55,55,0,0,0-3.77-5.1c-.36-.43-.92-.82-1-1.31s.7-.82,1.08-1.21a39.36,39.36,0,0,0,10.51-19.15c.35-1.55.79-3.09,1.19-4.65-.09-.54-.4-1-.92-.59A3.37,3.37,0,0,0,429,266.38ZM392,291.9c2.12-6.43,3.88-12.94,3.5-19.81-.17-2.95-.49-5.89-.74-8.83.15-.21,0-.55.25-.71.56.84,1.77,1.14,1.9,2.35a15.33,15.33,0,0,0,2.33,6.61c.77,1.25.88,2.15-.23,3.17a5.09,5.09,0,0,0-.77,1.33c-.1.18-.21.38-.08.56s.45.17.66.07a17.14,17.14,0,0,0,1.89-1c.7-.45,1.14-.34,1.7.29a11.25,11.25,0,0,0,6.69,3.69,22.42,22.42,0,0,0,9.26-.47,8.81,8.81,0,0,0,6.94-9.09,24.86,24.86,0,0,0-.32-4.05c-.5-2.89-1.07-5.77-3.44-7.84a15.6,15.6,0,0,0-5.91-3,23.1,23.1,0,0,0-9.88-1.29.87.87,0,0,1-1.05-.45c-.42-.64-1.16-.44-1.24.35-.06.61-.36.78-.8,1a9.89,9.89,0,0,0-4.56,4.27c-.53,1.09-1,1-1.85.41a10.5,10.5,0,0,0-1.6-1.05,1.72,1.72,0,0,1-1-1.4,40.38,40.38,0,0,0-1.65-6,54.53,54.53,0,0,1,2.52-40.82c3.29-7.1,7.24-13.8,13.68-18.62a18.7,18.7,0,0,1,1.95-1.39c2-1.16,4.05-1.32,6,.21,1,.8,1.76.67,2.36-.4l.14-.28a29.64,29.64,0,0,1,5.59-8,12.72,12.72,0,0,1,7.9-3.89,19.1,19.1,0,0,1,10.55,2.08,68,68,0,0,1,10.48,6.7c11.17,8.19,19.48,18.57,24.18,31.71,2.15,6,3.42,12.3,5.35,18.39,0,.09-.06.21-.1.35a51.56,51.56,0,0,0-12.2-1.81,30.16,30.16,0,0,0-9.26.94c-.32.08-.8.18-.68.66s.59.3.92.23c7-1.43,13.9-.7,20.76,1a1.94,1.94,0,0,1,1.56,1.39,105.82,105.82,0,0,0,8.83,18c1.06,1.71,1.09,1.71-.84,2.25-.76.22-1.59.93-2.23.6s-.83-1.3-1.27-1.95a6.45,6.45,0,0,0-3.73-3,35.31,35.31,0,0,0-7.17-1c-.7,0-1.15-.17-1-1,.08-.47,0-1-.65-1.06a.75.75,0,0,0-.78.87c0,1.06-.62,1.08-1.39,1.13a36.51,36.51,0,0,0-14.65,4.08,19.73,19.73,0,0,0-9.77,11.6,6.56,6.56,0,0,0-.18,4.81,13.43,13.43,0,0,0,9.14,8,30.8,30.8,0,0,0,8.17,1c5.71,0,11.22-.86,16.23-3.82,1.77-1.05,2.42-1,3.95.4.21.18.38.41.59.59s.61.42,1,.16a.71.71,0,0,0,.2-1c-.38-1-.7-1.95-1.13-2.89a1.26,1.26,0,0,1,.21-1.51,15.55,15.55,0,0,0,2.95-6.6c.37-1.6-.35-3.4.62-4.76a27,27,0,0,1,3.5-3.43l.34-.27A68.65,68.65,0,0,0,504.23,271a38.62,38.62,0,0,0,12.08,7h0a.19.19,0,0,1,0,.08l-.8.5a17.82,17.82,0,0,0-4.73,3.82,4.43,4.43,0,0,0-1.2,2.68c0,.43.07.87.56.91s.6-.36.61-.74a2.57,2.57,0,0,1,.75-1.72c3.89-4.37,8.72-6.45,14.56-5.46,5.69,1,10.17,6.7,10.33,12.83.2,7.67-6.73,15.57-14.41,16.49-1,.12-1.23-.19-1.15-1.11.1-1.12-.18-2.21,1-3.16s.52-2.21-.74-2.74c-.18-.07-.38,0-.46-.29-.27-.85-.91-.5-1.37-.3a2.11,2.11,0,0,0-.35,3.7,1.44,1.44,0,0,1,.79,1.53,11.64,11.64,0,0,0,0,1.67c.06.68-.24.79-.84.74a9.15,9.15,0,0,1-6.58-3.25,6.91,6.91,0,0,1-1.48-3.35c-.16-.94.8-1.4,1.14-2.15.2-.43.48-.83.68-1.26s.53-.94-.08-1.25-.77.25-1,.63a24,24,0,0,1-2.52,3.49,103.61,103.61,0,0,1-8.73,8.55c-4.73,4.34-9.1,9-12.23,14.66-5.1,9.21-5.73,19.13-4.19,29.33.1.65.08,1.56,1,1.54s.45-1,.71-1.6a19.7,19.7,0,0,0,3.92,1.4,142.19,142.19,0,0,0,16.78,2.67c5,.64,9.43,2.54,12.74,6.46a43.6,43.6,0,0,1,10.69,28.2c.11,7.37-1,14.65-2,21.92-1.06,7.6-2.82,15.06-4.47,22.54-1.69,7.72-3.07,15.53-5.64,23C512,475,506.4,491.07,500.8,507.13c-.69,2-1.44,3.93-2.16,5.88l-.23-.06c-2.06-9.81-3.52-19.72-4.59-29.68-.66-6.08-.92-12.18-1.09-18.3a238.21,238.21,0,0,1,1.59-36.71,183.42,183.42,0,0,1,8-34.47c1.49-4.51,3-9,4.5-13.52.13-.39.46-.93-.13-1.13s-.7.42-.86.8c-.57,1.41-1.1,2.83-1.64,4.24a187.14,187.14,0,0,0-13,61.82,265.18,265.18,0,0,0,1.53,42.35,317.85,317.85,0,0,0,5.61,32.3c1.42,6.05,2.43,12.2,3.92,18.24,4.63,18.71,10.74,37,17.3,55,.14.41.43.78.35,1.25H471.47c-.08-.18-.18-.36-.25-.55-3.06-8.22-5.85-16.54-8.57-24.89-5.37-16.51-10.44-33.09-14.35-50a28.48,28.48,0,0,0-1.75-6.05,1.36,1.36,0,0,1,.35,0,136.4,136.4,0,0,0,16.16,2.77c1,.12,2,.24,3,.31.43,0,1,0,1.08-.5s-.46-.67-.89-.76-1-.16-1.42-.21c-4.56-.51-9.1-1.19-13.62-2-6.32-1.16-12.23-3.64-18.38-5.34a13.41,13.41,0,0,0-1.39-.34c-.27-.05-.6,0-.69.3s.13.6.46.72.52.2.79.28l13.07,4.29c.29.09.66.07.8.44a2.9,2.9,0,0,0,0,2Q449,530,453,544.18a5.7,5.7,0,0,1,.17,2c-.28,3.58-.34,7.18-.49,10.77-.22,5.19-.18,10.38-.29,15.57-.17,7.55-.28,15.1.13,22.65H401.22c-.38-3.17-.82-6.33-1.14-9.51-.78-7.63-1.49-15.26-2.25-22.88-.82-8.27-1.31-16.56-1.81-24.85-.43-7.06-.75-14.13-.88-21.2-.33-17.27.05-34.52,1.37-51.75.57-7.44,1.22-14.88,1.85-22.32.52-6.2,1.08-12.41,2-18.57a333.18,333.18,0,0,1,7.27-35.27,89.72,89.72,0,0,1,3.56-11.92c.13-.31.54-.64.1-.93s-.82.08-1.06.46a13.27,13.27,0,0,0-1.33,3.07c-2.87,8.94-5,18.08-7,27.24a227,227,0,0,0-4.13,25.64c-.26,2.62-.59,5.22-.88,7.84h0l-.4-.62-.06-.09a5.49,5.49,0,0,1-.17-.7c-1.24-7.32-2.16-14.68-3-22.06a170.35,170.35,0,0,1-1.14-30.37,46.18,46.18,0,0,1,3.33-15A19.86,19.86,0,0,1,408,359.65a70,70,0,0,1,14.74-3.07c5.44-.59,10.91-.77,16.35-1.37,2.38-.26,4.76-1,7.2-.39.31.08.44-.27.63-.46.69-.68.12-1.44.18-2.16a124.35,124.35,0,0,0,.46-18.31,2.32,2.32,0,0,1,.13-1.26c.42-.93.05-1.47-.95-1.48-1.88,0-3.75-.15-5.62-.32-3.75-.36-7.44-.87-10.75-2.93-3.82-2.39-4.59-5.65-3.58-9.48h0a4.64,4.64,0,0,1,.12-.47.86.86,0,0,1,1-.7c4.74.39,9.5.49,14.24.8,8.8.57,17.33-1,25.87-2.79.6-.12,1.54-.35,1.37-1s-1.15-.43-1.76-.3c-8.82,1.84-17.65,3.16-26.73,2.65-9.46-.53-18.89-1.1-28.23-2.75-5.54-1-11.06-2.08-16.27-4.34a16.78,16.78,0,0,1-5.48-3.79,5.92,5.92,0,0,1-1.69-6.23C390.08,296.9,391.11,294.44,392,291.9Zm26.35-53.79c.43,0,.9,0,1.06-.57-.18-.62-.71-.52-1.17-.51a32.84,32.84,0,0,0-12.07,2.71,22.85,22.85,0,0,0-5.48,3.16c-.32.26-.8.6-.41,1.08s.72,0,1-.19a28,28,0,0,1,8-4A35.68,35.68,0,0,1,418.3,238.11Z" transform="translate(-315.83 -152.9)"/><path class="cls-3" d="M394.71,263.26c-.15-.61-.14-.65.25-.71C394.67,262.71,394.86,263.05,394.71,263.26Z" transform="translate(-315.83 -152.9)"/><path class="cls-3" d="M394.5,262.89a.63.63,0,0,1,.39-.44l0,0,0,.08c-.39.06-.4.1-.25.71A1.07,1.07,0,0,1,394.5,262.89Z" transform="translate(-315.83 -152.9)"/><path class="cls-3" d="M394.89,262.45a.63.63,0,0,0-.39.44.66.66,0,0,1,.11-.67c.1-.11.25.07.32.25Z" transform="translate(-315.83 -152.9)"/></g><g id="선"><path d="M515.5,293.55c-.59-.61.09-1.18.5-1.62,2.64-2.78,6-4.24,9.6-5.38.4-.13.92-.07,1.08.3s-.28.8-.66,1c-.88.38-1.77.74-2.68,1a7.71,7.71,0,0,0-4.58,4,32.14,32.14,0,0,0-1.68,3.44c-.19.5-.33,1.29-1.05,1s-.34-1-.16-1.55c.33-.89.75-1.74,1.19-2.75C516.37,293.1,516.07,294.13,515.5,293.55Z" transform="translate(-315.83 -152.9)"/><path d="M491.19,446a187.14,187.14,0,0,1,13-61.82c.54-1.41,1.07-2.83,1.64-4.24.16-.38.31-1,.86-.8s.26.74.13,1.13c-1.49,4.51-3,9-4.5,13.52a183.42,183.42,0,0,0-8,34.47A238.21,238.21,0,0,0,492.73,465c.17,6.12.43,12.22,1.09,18.3,1.07,10,2.53,19.87,4.59,29.68l.23.06h0a.79.79,0,0,1-.22,0c-.7,0-.58-1.27-.73-2-1.92-9.44-3.31-19-4.28-28.56-.58-5.76-.82-11.53-1-17.32-.12-3.84-.25-7.67-.15-11.5.17-6.66.4-13.32,1.09-20a185.56,185.56,0,0,1,5.8-30.83c2-7.2,4.57-14.23,6.9-21.33a4.29,4.29,0,0,0,.4-1.74,1.55,1.55,0,0,0-.65,1c-5.15,13.42-9.59,27.05-11.84,41.3-.93,5.92-1.67,11.85-2.09,17.84-.34,4.83-.29,9.66-.48,14.48-.15,3.8.08,7.58.08,11.37a186.3,186.3,0,0,0,1.33,20.3c1.1,9.94,2.7,19.79,4.74,29.58,3.31,15.92,6.76,31.81,11.82,47.3,3.34,10.26,6.66,20.53,10.39,30.66.19.5.56,1,.14,1.57.08-.47-.21-.84-.35-1.25-6.56-18.09-12.67-36.33-17.3-55-1.49-6-2.5-12.19-3.92-18.24a317.85,317.85,0,0,1-5.61-32.3A265.18,265.18,0,0,1,491.19,446Z" transform="translate(-315.83 -152.9)"/><path d="M483.85,352.8c-1.54-10.2-.91-20.12,4.19-29.33,3.13-5.64,7.5-10.32,12.23-14.66a103.61,103.61,0,0,0,8.73-8.55,24,24,0,0,0,2.52-3.49c.22-.38.46-.89,1-.63s.27.83.08,1.25-.48.83-.68,1.26c-.34.75-1.3,1.21-1.14,2.15a6.91,6.91,0,0,0,1.48,3.35,9.15,9.15,0,0,0,6.58,3.25c.6.05.9-.06.84-.74a11.64,11.64,0,0,1,0-1.67,1.44,1.44,0,0,0-.79-1.53,2.11,2.11,0,0,1,.35-3.7c.46-.2,1.1-.55,1.37.3.08.26.28.22.46.29,1.26.53,1.75,1.9.74,2.74s-.87,2-1,3.16c-.08.92.13,1.23,1.15,1.11,7.68-.92,14.61-8.82,14.41-16.49-.16-6.13-4.64-11.85-10.33-12.83-5.84-1-10.67,1.09-14.56,5.46a2.57,2.57,0,0,0-.75,1.72c0,.38-.17.78-.61.74s-.58-.48-.56-.91a4.43,4.43,0,0,1,1.2-2.68,17.82,17.82,0,0,1,4.73-3.82l.8-.5c0,.23-.23.47-.68.77-1,.67-2,1.33-2.92,2.1a7.59,7.59,0,0,0-2.58,3.24,1.5,1.5,0,0,0,0,1.17c.55-.7.7-1.53,1.24-2.13a16,16,0,0,1,7.93-5.14c5.6-1.48,10.52-.33,14.24,4.29a13.57,13.57,0,0,1,3,11c-1.21,7.6-7.08,12.29-13.84,14.18-1.73.48-2.16.07-2.2-1.7a3.44,3.44,0,0,1,.91-2.84c.86-.83.56-1.48-.63-2.39-.7-.54-1.29-.77-1.95,0a1.78,1.78,0,0,0,0,2.49l.18.16a4.33,4.33,0,0,1,.75,4,1.14,1.14,0,0,1-1.13.51,8.67,8.67,0,0,1-8.09-6.19,3,3,0,0,1,.56-2.37,4.82,4.82,0,0,0,1.17-2.38c-.62.17-.81.64-1.05,1a48.24,48.24,0,0,1-8.28,9c-5.35,4.83-10.44,9.89-14.21,16.11a37.15,37.15,0,0,0-5,15.51,54.94,54.94,0,0,0,.25,13.62,2.74,2.74,0,0,0,.61,1.77c.6-.19.33-1.16,1.09-1.13a5.09,5.09,0,0,1,1.46.52,63.93,63.93,0,0,0,11.11,2.39c3.63.56,7.33.64,10.9,1.57A19.42,19.42,0,0,1,520,364a45.65,45.65,0,0,1,9.78,23.48,63.73,63.73,0,0,1-.17,12.43A202.52,202.52,0,0,1,526,424.65c-1.87,8.8-3.74,17.59-5.81,26.34a208.62,208.62,0,0,1-6.38,20.11c-1.35,3.89-2.82,7.73-4.15,11.63-3.23,9.5-6.63,18.93-10,28.39-.24.68-.29,1.79-1,1.9h0c.72-1.95,1.47-3.9,2.16-5.88C506.4,491.07,512,475,517.55,459c2.57-7.49,4-15.3,5.64-23,1.65-7.48,3.41-14.94,4.47-22.54,1-7.27,2.1-14.55,2-21.92A43.6,43.6,0,0,0,519,363.27c-3.31-3.92-7.74-5.82-12.74-6.46a142.19,142.19,0,0,1-16.78-2.67,19.7,19.7,0,0,1-3.92-1.4c-.26.58.22,1.57-.71,1.6S484,353.45,483.85,352.8Z" transform="translate(-315.83 -152.9)"/><path d="M446.52,513.61a.05.05,0,0,1,0,0l0,0Z" transform="translate(-315.83 -152.9)"/><path d="M446.55,513.67a28.48,28.48,0,0,1,1.75,6.05c3.91,16.93,9,33.51,14.35,50,2.72,8.35,5.51,16.67,8.57,24.89.07.19.17.37.25.55-.61-.3-.74-.9-1-1.46-4.41-11.5-7.92-23.3-11.74-35-4.25-13-7.83-26.18-10.92-39.5-.35-1.51-.75-3-1.2-4.52-.11-.35-.33-.7-.14-1.09l0,0Z" transform="translate(-315.83 -152.9)"/><path d="M446.52,513.62c-.18-.28-.37-.15-.56,0,0,0,0,0,0-.05.34-.36.42-.33.58.08Z" transform="translate(-315.83 -152.9)"/><path d="M446,513.58c.19-.11.38-.24.56,0-.19.39,0,.74.14,1.09.45,1.5.85,3,1.2,4.52,3.09,13.32,6.67,26.5,10.92,39.5,3.82,11.69,7.33,23.49,11.74,35,.21.56.34,1.16,1,1.46h-1.68c-5.84-14.93-10.26-30.34-15.28-45.57-.36.3-.23.69-.24,1-.23,13.5-.65,27-.49,40.48,0,1.36.12,2.71.18,4.07h-1.43a2.61,2.61,0,0,0,.34-2c-.08-1.35-.22-2.7-.23-4.06-.13-8.55.23-17.09.23-25.64,0-3.64.25-7.26.33-10.9a46.5,46.5,0,0,1,.36-6.45,5,5,0,0,0-.26-2.24c-1.77-6.23-3.38-12.5-4.88-18.8A115.94,115.94,0,0,1,446,513.76,1.34,1.34,0,0,0,446,513.58Z" transform="translate(-315.83 -152.9)"/><path d="M445.9,515.62a2.9,2.9,0,0,1,0-2l.11,0a1.34,1.34,0,0,1,.07.18,115.94,115.94,0,0,0,2.39,11.37c1.5,6.3,3.11,12.57,4.88,18.8a5,5,0,0,1,.26,2.24,46.5,46.5,0,0,0-.36,6.45c-.08,3.64-.33,7.26-.33,10.9,0,8.55-.36,17.09-.23,25.64,0,1.36.15,2.71.23,4.06a2.61,2.61,0,0,1-.34,2c-.41-7.55-.3-15.1-.13-22.65.11-5.19.07-10.38.29-15.57.15-3.59.21-7.19.49-10.77a5.7,5.7,0,0,0-.17-2Q449,530,445.9,515.62Z" transform="translate(-315.83 -152.9)"/><path d="M445.94,513.53s0,0,0,.05l-.11,0Z" transform="translate(-315.83 -152.9)"/><path d="M432.7,508.28c1.65.45,3.31.9,4.92,1.5a111.69,111.69,0,0,0,27.45,5.88c.48.05,1,0,1.35.52a1.54,1.54,0,0,1-1.23.18,150,150,0,0,1-17.37-2.81,1.55,1.55,0,0,0-1.28,0,.08.08,0,0,0,0,0c-.16-.41-.24-.44-.58-.08-.26-.55-.85-.68-1.38-.84-4.07-1.18-8-2.8-12.06-4-.35-.11-.79-.14-1-.58A1.77,1.77,0,0,1,432.7,508.28Z" transform="translate(-315.83 -152.9)"/><path d="M437.62,509.78c-1.61-.6-3.27-1-4.92-1.5a1.77,1.77,0,0,0-1.18-.14c.19.44.63.47,1,.58,4.07,1.17,8,2.79,12.06,4,.53.16,1.12.29,1.38.84l-.09.1c-.14-.37-.51-.35-.8-.44L432,508.9c-.27-.08-.53-.18-.79-.28s-.57-.33-.46-.72.42-.35.69-.3a13.41,13.41,0,0,1,1.39.34c6.15,1.7,12.06,4.18,18.38,5.34,4.52.82,9.06,1.5,13.62,2,.47.05.95.12,1.42.21s1,.2.89.76-.65.53-1.08.5c-1-.07-2-.19-3-.31a136.4,136.4,0,0,1-16.16-2.77,1.36,1.36,0,0,0-.35,0v0a.05.05,0,0,0,0,0,.08.08,0,0,1,0,0,1.55,1.55,0,0,1,1.28,0,150,150,0,0,0,17.37,2.81,1.54,1.54,0,0,0,1.23-.18c-.35-.48-.87-.47-1.35-.52A111.69,111.69,0,0,1,437.62,509.78Z" transform="translate(-315.83 -152.9)"/><path d="M418.19,189.85a4.17,4.17,0,0,0,.3-.53,30.55,30.55,0,0,1,5.28-7.52,13.86,13.86,0,0,1,13.33-4.14,26.93,26.93,0,0,1,9.34,3.92,88.75,88.75,0,0,1,16.22,12.65,67.42,67.42,0,0,1,10.9,14.69c3.37,6,5.36,12.54,7.13,19.16.67,2.51,1.26,5,2.08,7.51.47,1.45.17,1.8-1.31,1.46a58,58,0,0,0-12.58-1.52,31.31,31.31,0,0,0-6.54.69,1.55,1.55,0,0,0-1.09.48c.91-.06,1.65-.31,2.42-.39a51.6,51.6,0,0,1,18.19,1.28,3,3,0,0,1,2.29,2,110.15,110.15,0,0,0,9.1,18.33c.63,1,.5,1.38-.56,1.83l-.05,0-.06,0c-3,1.18-3,1.2-4.76-1.45a7.08,7.08,0,0,0-5.05-3.08,38.68,38.68,0,0,0-4.27-.56c-1.36-.07-2.64-.08-2.7-1.81-.23-.06-.34,0-.36,0-.33,1.34-1.34,1.57-2.52,1.65a33,33,0,0,0-10.13,2.27,24,24,0,0,0-8,4.59,19.22,19.22,0,0,0-5.63,9.31,7,7,0,0,0,1.22,6.12A14.91,14.91,0,0,0,461.38,283a41,41,0,0,0,13-.43,25.76,25.76,0,0,0,7.82-2.93c1.91-1.12,2.54-1.08,4.32.25.33.25.66.86,1.06.58s.06-.93-.13-1.3a4.39,4.39,0,0,1,.51-5.24,12.31,12.31,0,0,0,2.1-7.75,3.67,3.67,0,0,1,1.49-3.21c.69-.55,1.34-1.13,2-1.74,1-.95,1.37-.93,2.21.16a69.21,69.21,0,0,0,6.11,6.91A39.16,39.16,0,0,0,515,277.09l.55.23c.45.22.7.42.76.64a38.62,38.62,0,0,1-12.08-7,68.65,68.65,0,0,1-9.58-10.36l-.34.27a27,27,0,0,0-3.5,3.43c-1,1.36-.25,3.16-.62,4.76a15.55,15.55,0,0,1-2.95,6.6,1.26,1.26,0,0,0-.21,1.51c.43.94.75,1.93,1.13,2.89a.71.71,0,0,1-.2,1c-.36.26-.69.09-1-.16s-.38-.41-.59-.59c-1.53-1.4-2.18-1.45-3.95-.4-5,3-10.52,3.83-16.23,3.82a30.8,30.8,0,0,1-8.17-1,13.43,13.43,0,0,1-9.14-8,6.56,6.56,0,0,1,.18-4.81,19.73,19.73,0,0,1,9.77-11.6,36.51,36.51,0,0,1,14.65-4.08c.77,0,1.42-.07,1.39-1.13a.75.75,0,0,1,.78-.87c.66,0,.73.59.65,1.06-.16.87.29,1,1,1a35.31,35.31,0,0,1,7.17,1,6.45,6.45,0,0,1,3.73,3c.44.65.67,1.63,1.27,1.95s1.47-.38,2.23-.6c1.93-.54,1.9-.54.84-2.25a105.82,105.82,0,0,1-8.83-18,1.94,1.94,0,0,0-1.56-1.39c-6.86-1.66-13.76-2.39-20.76-1-.33.07-.79.25-.92-.23s.36-.58.68-.66a30.16,30.16,0,0,1,9.26-.94,51.56,51.56,0,0,1,12.2,1.81c0-.14.13-.26.1-.35-1.93-6.09-3.2-12.36-5.35-18.39-4.7-13.14-13-23.52-24.18-31.71a68,68,0,0,0-10.48-6.7,19.1,19.1,0,0,0-10.55-2.08,12.72,12.72,0,0,0-7.9,3.89,29.64,29.64,0,0,0-5.59,8l-.14.28Z" transform="translate(-315.83 -152.9)"/><path d="M422.75,297.54a64.76,64.76,0,0,0-6.1-8c-.48-.54-.31-1,.21-1.41,6.84-5.69,11.1-12.85,12.15-21.77a3.37,3.37,0,0,1,1.51-2.25c.52-.45.83.05.92.59-.4,1.56-.84,3.1-1.19,4.65a39.36,39.36,0,0,1-10.51,19.15c-.38.39-1.18.61-1.08,1.21s.65.88,1,1.31a55,55,0,0,1,3.77,5.1c.16.23.31.46.45.71s.29.79-.14,1S423,297.9,422.75,297.54Z" transform="translate(-315.83 -152.9)"/><path d="M409.27,239.82a28,28,0,0,0-8,4c-.31.22-.67.64-1,.19s.09-.82.41-1.08a22.85,22.85,0,0,1,5.48-3.16A32.84,32.84,0,0,1,418.19,237c.46,0,1-.11,1.17.51-.16.59-.63.55-1.06.57A35.68,35.68,0,0,0,409.27,239.82Z" transform="translate(-315.83 -152.9)"/><path d="M394.81,517.48c-.29-6.35-.2-12.7-.14-19.05.06-6.06.15-12.13.48-18.19.36-6.53.87-13.06,1.33-19.59.45-6.25,1-12.49,1.53-18.73a287.06,287.06,0,0,1,6.43-41.53c1.59-6.9,3.27-13.76,5.26-20.55.3-1,.74-2,1-3a6.13,6.13,0,0,0-1.44,2.69c-2.13,6.5-3.76,13.14-5.32,19.79-2,8.41-3.73,16.86-4.88,25.42-.63,4.67-1.13,9.36-1.56,14.05a2.17,2.17,0,0,1-.46,1.45l-.14,0c.29-2.62.62-5.22.88-7.84a227,227,0,0,1,4.13-25.64c2-9.16,4.1-18.3,7-27.24a13.27,13.27,0,0,1,1.33-3.07c.24-.38.56-.78,1.06-.46s0,.62-.1.93a89.72,89.72,0,0,0-3.56,11.92,333.18,333.18,0,0,0-7.27,35.27c-.9,6.16-1.46,12.37-2,18.57-.63,7.44-1.28,14.88-1.85,22.32-1.32,17.23-1.7,34.48-1.37,51.75.13,7.07.45,14.14.88,21.2.5,8.29,1,16.58,1.81,24.85.76,7.62,1.47,15.25,2.25,22.88.32,3.18.76,6.34,1.14,9.51a2.79,2.79,0,0,1-.58-1.66c-1-8-1.83-16-2.6-24.06-.58-6.16-1.14-12.32-1.53-18.5-.43-6.65-.87-13.3-1.2-20C395.09,526.5,395,522,394.81,517.48Z" transform="translate(-315.83 -152.9)"/><path d="M392.15,386.39a170.35,170.35,0,0,0,1.14,30.37c.81,7.38,1.73,14.74,3,22.06a5.49,5.49,0,0,0,.17.7,1.94,1.94,0,0,0,0,.48,3.67,3.67,0,0,0-.26-.48,69.47,69.47,0,0,1-1.49-8.49c-1.07-7.63-2-15.29-2.61-23a149.33,149.33,0,0,1-.5-18.56,54.92,54.92,0,0,1,2.67-15.9c2.07-5.9,5.5-10.6,11.27-13.35a38.8,38.8,0,0,1,8.36-2.54,90.22,90.22,0,0,1,16.13-2c3.67-.16,7.31-.68,11-1a31.29,31.29,0,0,1,4.53-.34c.85,0,1.23-.29,1.27-1.17.26-5.38.67-10.76.64-16.15,0-1.52-.4-3-.1-4.54.17-.91-.65-1-1.3-1a59.08,59.08,0,0,1-8.71-.76,15.66,15.66,0,0,1-9.27-4.33c-2.27-2.28-2.33-5.47-1.54-8.05l.31.09c-1,3.83-.24,7.09,3.58,9.48,3.31,2.06,7,2.57,10.75,2.93,1.87.17,3.74.31,5.62.32,1,0,1.37.55.95,1.48a2.32,2.32,0,0,0-.13,1.26,124.35,124.35,0,0,1-.46,18.31c-.06.72.51,1.48-.18,2.16-.19.19-.32.54-.63.46-2.44-.57-4.82.13-7.2.39-5.44.6-10.91.78-16.35,1.37A70,70,0,0,0,408,359.65a19.86,19.86,0,0,0-12.52,11.73A46.18,46.18,0,0,0,392.15,386.39Z" transform="translate(-315.83 -152.9)"/><path d="M394.52,210.2A54.53,54.53,0,0,0,392,251a40.38,40.38,0,0,1,1.65,6,1.72,1.72,0,0,0,1,1.4,10.5,10.5,0,0,1,1.6,1.05c.81.63,1.32.68,1.85-.41a9.89,9.89,0,0,1,4.56-4.27c.44-.23.74-.4.8-1,.08-.79.82-1,1.24-.35a.87.87,0,0,0,1.05.45,23.1,23.1,0,0,1,9.88,1.29,15.6,15.6,0,0,1,5.91,3c2.37,2.07,2.94,4.95,3.44,7.84a24.86,24.86,0,0,1,.32,4.05,8.81,8.81,0,0,1-6.94,9.09,22.42,22.42,0,0,1-9.26.47,11.25,11.25,0,0,1-6.69-3.69c-.56-.63-1-.74-1.7-.29a17.14,17.14,0,0,1-1.89,1c-.21.1-.5.16-.66-.07s0-.38.08-.56a5.09,5.09,0,0,1,.77-1.33c1.11-1,1-1.92.23-3.17a15.33,15.33,0,0,1-2.33-6.61c-.13-1.21-1.34-1.51-1.9-2.35l0-.08a3.75,3.75,0,0,1,2.37,3.1,15.81,15.81,0,0,0,2.34,6.13,2.13,2.13,0,0,1-.16,2.82,2.67,2.67,0,0,0-.77,1.55c.67.11,1.11-.37,1.59-.64a1.67,1.67,0,0,1,2.26.31,12.19,12.19,0,0,0,9.62,3.74,27.52,27.52,0,0,0,5.59-.54,9.37,9.37,0,0,0,6.35-4.7,5.36,5.36,0,0,0,.72-2.39,30.58,30.58,0,0,0-.65-8c-.92-4.29-3.65-6.79-7.68-8.08a33.08,33.08,0,0,0-7.93-1.75,5.22,5.22,0,0,0-1.31,0,7.24,7.24,0,0,0-.95.15c-.87.24-1.9-.83-2.34-.34-1.61,1.78-4,2.62-5.31,4.77-1.2,2-1.36,1.9-3.35.69a4.35,4.35,0,0,1-2.2-3.2,76.42,76.42,0,0,0-2.19-7.35,53.74,53.74,0,0,1-2-16.11A54.85,54.85,0,0,1,393,212.81a60.71,60.71,0,0,1,10.41-17.27,32,32,0,0,1,6-5.26c2.19-1.48,4.46-1.83,6.83-.27.95.63,1.45.6,1.95-.16l.35.15c-.6,1.07-1.32,1.2-2.36.4-2-1.53-4-1.37-6-.21a18.7,18.7,0,0,0-1.95,1.39C401.76,196.4,397.81,203.1,394.52,210.2Z" transform="translate(-315.83 -152.9)"/><path d="M392,291.9c-.84,2.54-1.87,5-2.67,7.56a5.92,5.92,0,0,0,1.69,6.23,16.78,16.78,0,0,0,5.48,3.79c5.21,2.26,10.73,3.36,16.27,4.34,9.34,1.65,18.77,2.22,28.23,2.75,9.08.51,17.91-.81,26.73-2.65.61-.13,1.55-.53,1.76.3s-.77.92-1.37,1c-8.54,1.75-17.07,3.36-25.87,2.79-4.74-.31-9.5-.41-14.24-.8a.86.86,0,0,0-1,.7,4.64,4.64,0,0,0-.12.47h0l-.31-.09c.06-.2.12-.39.19-.58.32-.85,1-.87,1.79-.8,5.25.44,10.52.57,15.78.85,6.15.32,12.18-.76,18.21-1.77,1.49-.25,3-.45,4.48-.82a3.83,3.83,0,0,0,1.82-.76,1.38,1.38,0,0,0-1.34-.11c-4.68,1.07-9.43,1.74-14.18,2.36a52.78,52.78,0,0,1-11.24.21c-2.22-.19-4.46-.19-6.69-.3a157.18,157.18,0,0,1-33.49-4.84,36.36,36.36,0,0,1-6.39-2.38,16.94,16.94,0,0,1-4.27-3.06,6.86,6.86,0,0,1-1.91-7.94c1.26-3.62,2.77-7.16,3.72-10.89,1.25-4.92,2.46-9.86,2.15-15-.15-2.51-.3-5-.6-7.51a9.42,9.42,0,0,1-.09-1.68,2.7,2.7,0,0,1,.08-.41,1.07,1.07,0,0,0,.21.37c.25,2.94.57,5.88.74,8.83C395.83,279,394.07,285.47,392,291.9Z" transform="translate(-315.83 -152.9)"/><path d="M406.06,257.61c.78,1.3,1.6,2.57,2.4,3.86a10.3,10.3,0,0,0,6.38,4.68,55.63,55.63,0,0,0,8.79,1.91s.05-.06,0-.09c-.05-.48-.1-1-.18-1.43-.7-4.46-2.6-8-7.25-9.45a24.87,24.87,0,0,0-9.17-1.29C405.23,255.92,405.14,256.08,406.06,257.61Zm-2.29-.8a7.69,7.69,0,0,0-3.48,4.3c-.09.28-.39.69.2.86l5.49,1.64C404.63,261.37,404.43,259.09,403.77,256.81Zm-3.92,7.26a6.3,6.3,0,0,0,.18,2.3c1.73,10.77,11.56,13.3,18.56,10.31a8.25,8.25,0,0,0,5-5.64c.06-.24.37-.63-.19-.75l-4.81-1a12.89,12.89,0,0,1-.07,3.58c-.14.73-.25,1.61-1.23,1.67s-1.19-.79-1.39-1.52a14.55,14.55,0,0,1-.58-3.53,1.27,1.27,0,0,0-1.22-1.4c-2.62-.49-5.13-1.4-7.74-2C404.15,265.62,402.06,264.78,399.85,264.07Zm-11.6-39.57c1.31-8.93,5-17,9.93-24.45A38,38,0,0,1,408,189.52c3.76-2.63,6.08-2.2,9.51,0l.72.32c-.5.76-1,.79-1.95.16-2.37-1.56-4.64-1.21-6.83.27a32,32,0,0,0-6,5.26A60.71,60.71,0,0,0,393,212.81a54.85,54.85,0,0,0-4.06,19.85,53.74,53.74,0,0,0,2,16.11,76.42,76.42,0,0,1,2.19,7.35,4.35,4.35,0,0,0,2.2,3.2c2,1.21,2.15,1.3,3.35-.69,1.29-2.15,3.7-3,5.31-4.77.44-.49,1.47.58,2.34.34a7.24,7.24,0,0,1,.95-.15,5.22,5.22,0,0,1,1.31,0,33.08,33.08,0,0,1,7.93,1.75c4,1.29,6.76,3.79,7.68,8.08a30.58,30.58,0,0,1,.65,8,5.36,5.36,0,0,1-.72,2.39,9.37,9.37,0,0,1-6.35,4.7,27.52,27.52,0,0,1-5.59.54,12.19,12.19,0,0,1-9.62-3.74,1.67,1.67,0,0,0-2.26-.31c-.48.27-.92.75-1.59.64a2.67,2.67,0,0,1,.77-1.55,2.13,2.13,0,0,0,.16-2.82,15.81,15.81,0,0,1-2.34-6.13,3.75,3.75,0,0,0-2.37-3.1c-.07-.18-.22-.36-.32-.25a.66.66,0,0,0-.11.67,2.7,2.7,0,0,0-.08.41,9.42,9.42,0,0,0,.09,1.68c.3,2.49.45,5,.6,7.51.31,5.15-.9,10.09-2.15,15-.95,3.73-2.46,7.27-3.72,10.89a6.86,6.86,0,0,0,1.91,7.94,16.94,16.94,0,0,0,4.27,3.06,36.36,36.36,0,0,0,6.39,2.38,157.18,157.18,0,0,0,33.49,4.84c2.23.11,4.47.11,6.69.3a52.78,52.78,0,0,0,11.24-.21c4.75-.62,9.5-1.29,14.18-2.36a1.38,1.38,0,0,1,1.34.11,3.83,3.83,0,0,1-1.82.76c-1.48.37-3,.57-4.48.82-6,1-12.06,2.09-18.21,1.77-5.26-.28-10.53-.41-15.78-.85-.76-.07-1.47-.05-1.79.8-.07.19-.13.38-.19.58l-.72-.19a.92.92,0,0,0-.12-1c-.52-.51-1.74-.3-2.65-.42a130.47,130.47,0,0,1-20.93-3.86c-3.84-1.13-7.64-2.37-10.73-5.09a10.63,10.63,0,0,1-3.5-5.45c-.49-1.9.18-3.62.59-5.39s1.41-3.38,2-5.1c2.34-7,4-14,3.36-21.49-.53-6.22-1.19-12.41-3.28-18.33A56.63,56.63,0,0,1,388.25,224.5Z" transform="translate(-315.83 -152.9)"/><path d="M519,301.94c0,.76.62,1,1.47,1.1a.92.92,0,0,0,.8-1A1.83,1.83,0,0,0,520,300.6C519.43,300.43,519,301.25,519,301.94Zm-1.34,16.15c.61,1.15,1.5,1.27,2.33.25a5.82,5.82,0,0,0,1.14-3.83,5,5,0,0,0-.12-1,2.15,2.15,0,0,0-1.34-1.4,1.28,1.28,0,0,0-1.36.49A5.54,5.54,0,0,0,517.67,318.09ZM475,264.37l11.65-2.62c.3-.06.66-.08.64-.52a3.85,3.85,0,0,0-1.57-1.92c-2.68-1.81-5.77-2.14-8.86-2.55-.82-.11-1.13.21-1.29,1-.42,2-.85,4-1.36,5.91C473.92,264.54,474.27,264.53,475,264.37ZM457,262.18a17.73,17.73,0,0,0-5.72,7.1,37.44,37.44,0,0,0,6-.67c3.4-.48,6.61-1.76,10-2.46a4.75,4.75,0,0,0,2.63-1.53,20.38,20.38,0,0,0,3.7-7.31c.21-.62-.11-.66-.6-.58-1.14.19-2.28.34-3.42.52C465.05,258,460.74,259.32,457,262.18Zm10.36,6.22c-5.38,1-10.6,2.56-15.9,3.89-.24.06-.49,0-.46.38.12,1.15-.12,2.32.61,3.43a9.06,9.06,0,0,0,4.43,3.68,38,38,0,0,0,11.5,2.16,28.41,28.41,0,0,0,11.2-2,15,15,0,0,0,9.07-15c0-.33.09-.78-.49-.77a6.13,6.13,0,0,0-1.66,0c-4.15,1.16-8.36,2-12.57,2.89-.78.16-.91.51-.9,1.2a16.12,16.12,0,0,1-.53,5.22c-.22.72-.45,1.58-1.39,1.59s-1.23-.91-1.44-1.66a15.41,15.41,0,0,1-.52-4.38C468.36,268.36,468.16,268.26,467.39,268.4ZM318.76,425a23.61,23.61,0,0,1-2.59-1.94c-.49-.35-.39-.74,0-1.09a1.32,1.32,0,0,1,.51-.3c5.06-1.58,8.74-5.13,12.17-8.86C341.17,399.4,349.73,384,353.5,366c2.14-10.17,3.77-20.4,5.06-30.7.84-6.75,1.19-13.52,1.69-20.29.78-10.67,1.57-21.34,2.75-32A266.19,266.19,0,0,1,374.36,230a157.35,157.35,0,0,1,16.11-35.34c5.09-8.08,10.37-16,17.41-22.64a58.31,58.31,0,0,1,12.77-9.46,76.4,76.4,0,0,1,20.8-7.27,147.26,147.26,0,0,1,20.94-2.22,114,114,0,0,1,15.68.19c6.51.59,12.64,2.57,18.75,4.73,15,5.3,26.27,15.26,34.92,28.31A195.75,195.75,0,0,1,547.27,214c4.14,9.2,6.6,18.9,8.37,28.79,1.37,7.66,2.36,15.38,3.34,23.1a271.55,271.55,0,0,1,2,37.06c-.14,12.27,0,24.54.18,36.81.09,8.55.73,17.07,1.61,25.58.82,7.94,1.82,15.86,3.41,23.69a91.48,91.48,0,0,0,9.52,26.87,36.05,36.05,0,0,0,12.45,13.19,8.89,8.89,0,0,1,1.29.88c.55.5,1.31,1.05,0,1.66-.19.09-.25.47-.37.71-5.55,7.33-13.33,11.77-21,16.37a144.59,144.59,0,0,1-36.21,15.14,135.94,135.94,0,0,1-14.73,3.65c-.76.12-.94.54-1.15,1.14q-7,20-14.07,40c-.8,2.25-1.63,4.5-2.45,6.75a4.75,4.75,0,0,0-.12,2.59c5.09,26.45,13.09,52.06,22.43,77.27H519.9c.42-.56.05-1.07-.14-1.57-3.73-10.13-7-20.4-10.39-30.66-5.06-15.49-8.51-31.38-11.82-47.3-2-9.79-3.64-19.64-4.74-29.58a186.3,186.3,0,0,1-1.33-20.3c0-3.79-.23-7.57-.08-11.37.19-4.82.14-9.65.48-14.48.42-6,1.16-11.92,2.09-17.84,2.25-14.25,6.69-27.88,11.84-41.3a1.55,1.55,0,0,1,.65-1,4.29,4.29,0,0,1-.4,1.74c-2.33,7.1-4.89,14.13-6.9,21.33a185.56,185.56,0,0,0-5.8,30.83c-.69,6.64-.92,13.3-1.09,20-.1,3.83,0,7.66.15,11.5.17,5.79.41,11.56,1,17.32,1,9.59,2.36,19.12,4.28,28.56.15.71,0,1.93.73,2a.79.79,0,0,0,.22,0c.75-.11.8-1.22,1-1.9,3.34-9.46,6.74-18.89,10-28.39,1.33-3.9,2.8-7.74,4.15-11.63A208.62,208.62,0,0,0,520.18,451c2.07-8.75,3.94-17.54,5.81-26.34a202.52,202.52,0,0,0,3.62-24.77,63.73,63.73,0,0,0,.17-12.43A45.65,45.65,0,0,0,520,364a19.42,19.42,0,0,0-10.79-6.91c-3.57-.93-7.27-1-10.9-1.57a63.93,63.93,0,0,1-11.11-2.39,5.09,5.09,0,0,0-1.46-.52c-.76,0-.49.94-1.09,1.13a2.74,2.74,0,0,1-.61-1.77,54.94,54.94,0,0,1-.25-13.62,37.15,37.15,0,0,1,5-15.51c3.77-6.22,8.86-11.28,14.21-16.11a48.24,48.24,0,0,0,8.28-9c.24-.37.43-.84,1.05-1a4.82,4.82,0,0,1-1.17,2.38,3,3,0,0,0-.56,2.37,8.67,8.67,0,0,0,8.09,6.19,1.14,1.14,0,0,0,1.13-.51,4.33,4.33,0,0,0-.75-4l-.18-.16a1.78,1.78,0,0,1,0-2.49c.66-.72,1.25-.49,1.95,0,1.19.91,1.49,1.56.63,2.39a3.44,3.44,0,0,0-.91,2.84c0,1.77.47,2.18,2.2,1.7,6.76-1.89,12.63-6.58,13.84-14.18a13.57,13.57,0,0,0-3-11c-3.72-4.62-8.64-5.77-14.24-4.29a16,16,0,0,0-7.93,5.14c-.54.6-.69,1.43-1.24,2.13a1.5,1.5,0,0,1,0-1.17,7.59,7.59,0,0,1,2.58-3.24c.93-.77,1.93-1.43,2.92-2.1.45-.3.68-.54.68-.77l.08-.05-.09,0h0c-.06-.22-.31-.42-.76-.64l-.55-.23a39.16,39.16,0,0,1-13.17-8.78,69.21,69.21,0,0,1-6.11-6.91c-.84-1.09-1.22-1.11-2.21-.16-.63.61-1.28,1.19-2,1.74a3.67,3.67,0,0,0-1.49,3.21,12.31,12.31,0,0,1-2.1,7.75,4.39,4.39,0,0,0-.51,5.24c.19.37.6,1,.13,1.3s-.73-.33-1.06-.58c-1.78-1.33-2.41-1.37-4.32-.25a25.76,25.76,0,0,1-7.82,2.93,41,41,0,0,1-13,.43,14.91,14.91,0,0,1-10.95-6.13,7,7,0,0,1-1.22-6.12,19.22,19.22,0,0,1,5.63-9.31,24,24,0,0,1,8-4.59,33,33,0,0,1,10.13-2.27c1.18-.08,2.19-.31,2.52-1.65,0-.07.13-.08.36,0,.06,1.73,1.34,1.74,2.7,1.81a38.68,38.68,0,0,1,4.27.56,7.08,7.08,0,0,1,5.05,3.08c1.76,2.65,1.78,2.63,4.76,1.45l.06,0,.05,0c1.06-.45,1.19-.83.56-1.83a110.15,110.15,0,0,1-9.1-18.33,3,3,0,0,0-2.29-2,51.6,51.6,0,0,0-18.19-1.28c-.77.08-1.51.33-2.42.39a1.55,1.55,0,0,1,1.09-.48,31.31,31.31,0,0,1,6.54-.69,58,58,0,0,1,12.58,1.52c1.48.34,1.78,0,1.31-1.46-.82-2.47-1.41-5-2.08-7.51-1.77-6.62-3.76-13.15-7.13-19.16a67.42,67.42,0,0,0-10.9-14.69,88.75,88.75,0,0,0-16.22-12.65,26.93,26.93,0,0,0-9.34-3.92,13.86,13.86,0,0,0-13.33,4.14,30.55,30.55,0,0,0-5.28,7.52,4.17,4.17,0,0,1-.3.53l-.72-.32a21,21,0,0,1,2-3.84c2.18-3.34,4.6-6.44,8.42-8.09,5-2.17,9.93-1.41,14.75.63a57,57,0,0,1,10.5,6.43c12.52,8.88,21.63,20.34,26.44,35.05,1.65,5,2.83,10.23,4.36,15.32.48,1.58.92,3.07,2.91,3.25a.83.83,0,0,1,.32.14c.24.15.5.33.39.66s-.44.36-.79.31-.83-.49-1.44-.22c.82,1.89,1.6,3.77,2.44,5.62,3.44,7.61,7.48,14.81,13.33,20.9,4.64,4.83,9.83,8.75,16.24,10.91a5.73,5.73,0,0,0,3,.2c4.73-.92,9.07-.15,12.67,3.28a4,4,0,0,0,2.33,1.09,58.23,58.23,0,0,0,8.95.55c.65,0,1.8-.42,1.81.49s-1.19.67-1.9.68a56.05,56.05,0,0,1-9-.63.62.62,0,0,0,0,.16c.18.31.37.62.54.93a16,16,0,0,1,2.13,9.67c-1.15,9.46-9.46,14.64-15.69,15.65-1.4.22-1.41.9-1.49,1.84a1.51,1.51,0,0,0,.66,1.23,2.82,2.82,0,0,1,.9,1.89,7.48,7.48,0,0,1-.37,3.54c-.61,1.93-1.86,3-3.2,2.91s-2.31-1.45-2.55-3.48c-.27-2.19,1.12-5.31,2.8-5.8,1-.29.68-.9.73-1.45,0-.74-.59-.52-1-.55a11.17,11.17,0,0,1-7.68-3.94c-.76-.85-.72-2.08-1.61-2.87-3.38,3.77-7.26,7-10.83,10.54a56.38,56.38,0,0,0-8.42,10.56c-4.59,7.52-5.88,15.8-5.28,24.42.29,4.2.48,4.19,4.69,5.24a128.35,128.35,0,0,0,16.31,2.56c5.81.66,10.89,2.81,14.68,7.44A45.09,45.09,0,0,1,531.2,392a141.88,141.88,0,0,1-2.27,23.46c-2.08,12.77-5.09,25.34-8,37.93-1,4.24-2.51,8.32-3.94,12.64.57-.12.92-.17,1.26-.25q11.55-2.93,22.81-6.84c12.69-4.44,25.06-9.56,35.68-18.11,3.63-2.93,7.56-5.5,10.71-9,.68-.75.59-1-.21-1.5a35.85,35.85,0,0,1-11.38-11.15c-4.78-7.44-7.73-15.65-9.9-24.16-2.68-10.51-3.92-21.27-5-32a326.34,326.34,0,0,1-1.48-34.11c0-7.63-.06-15.27.06-22.9.06-4.23-.35-8.43-.21-12.65,0-1,.08-1.92.07-2.88,0-8.92-1.24-17.76-2.2-26.6-.76-7-1.78-13.94-3-20.85a120.27,120.27,0,0,0-8.5-29,211.73,211.73,0,0,0-13.13-23.79c-8.66-14-20-24.91-35.74-30.7-8-3-16.11-5.1-24.7-5.2-5.52-.06-11,.23-16.52.57A90.12,90.12,0,0,0,433,158.9c-8.79,2.88-16.85,7.1-23.47,13.68a120.73,120.73,0,0,0-18.46,23.8c-13.31,22.29-20.13,46.81-24.55,72.13-1.24,7.08-2,14.22-2.73,21.37q-1,10.08-1.61,20.18c-.41,7.1-.75,14.2-1.5,21.27-1.12,10.48-2.85,20.87-4.72,31.24a101.23,101.23,0,0,1-21.62,46.53C329.79,414.67,325,420,318,422.94c.52.33,1,.68,1.52.95,7.83,4.22,15.74,8.29,23.77,12.14,13.77,6.59,27.72,12.7,42.54,16.58,3,.79,6,1.64,9,2.46.42.12.82.26.87-.49.25-3.31.57-6.6.85-9.91,0-.15,0-.4,0-.45-1.21-.69-1.08-2-1.3-3.06-1.43-7.21-2.32-14.49-3.17-21.79-1.27-10.85-2.11-21.7-1.4-32.63a48.4,48.4,0,0,1,3.61-16,21.26,21.26,0,0,1,13.69-12.5,78.13,78.13,0,0,1,19.42-3.36c5.82-.32,11.62-1,17.43-1.41.76-.06.93-.4,1-1,0-1,.11-2.08.18-3.11.33-5.31.46-10.62.35-15.94,0-.57-.22-.72-.78-.76q-3-.19-6.08-.49c-4-.4-7.87-1.39-11.07-4.06a8.6,8.6,0,0,1-3.08-8.35,13.14,13.14,0,0,1,.5-1.54l.72.19c-.79,2.58-.73,5.77,1.54,8.05a15.66,15.66,0,0,0,9.27,4.33,59.08,59.08,0,0,0,8.71.76c.65,0,1.47.06,1.3,1-.3,1.54.1,3,.1,4.54,0,5.39-.38,10.77-.64,16.15,0,.88-.42,1.21-1.27,1.17a31.29,31.29,0,0,0-4.53.34c-3.66.35-7.3.87-11,1a90.22,90.22,0,0,0-16.13,2,38.8,38.8,0,0,0-8.36,2.54c-5.77,2.75-9.2,7.45-11.27,13.35a54.92,54.92,0,0,0-2.67,15.9,149.33,149.33,0,0,0,.5,18.56c.63,7.68,1.54,15.34,2.61,23a69.47,69.47,0,0,0,1.49,8.49,3.67,3.67,0,0,1,.26.48,1.34,1.34,0,0,0,.36.92.62.62,0,0,0,.12-.68h0l.14,0a2.17,2.17,0,0,0,.46-1.45c.43-4.69.93-9.38,1.56-14.05,1.15-8.56,2.91-17,4.88-25.42,1.56-6.65,3.19-13.29,5.32-19.79a6.13,6.13,0,0,1,1.44-2.69c-.26,1-.7,2-1,3-2,6.79-3.67,13.65-5.26,20.55A287.06,287.06,0,0,0,398,441.92c-.5,6.24-1.08,12.48-1.53,18.73-.46,6.53-1,13.06-1.33,19.59-.33,6.06-.42,12.13-.48,18.19-.06,6.35-.15,12.7.14,19.05.21,4.51.28,9,.5,13.52.33,6.66.77,13.31,1.2,20,.39,6.18.95,12.34,1.53,18.5.77,8,1.57,16,2.6,24.06a2.79,2.79,0,0,0,.58,1.66h-1.68c-.51-4.56-1.06-9.12-1.54-13.68-.57-5.44-1.07-10.89-1.62-16.33-.67-6.67-1.13-13.37-1.58-20.06-.31-4.5-.53-9-.79-13.52-.72-12.54-.57-25.09-.49-37.64q.09-12.58,1.14-25.14c.31-3.66.5-7.33.78-11,.05-.67-.11-.93-.82-1.13-8.66-2.5-17.45-4.58-25.88-7.84a372.61,372.61,0,0,1-44.21-20.69C322.61,427.1,320.69,426,318.76,425Z" transform="translate(-315.83 -152.9)"/></g></svg>