<svg id="여자_장발" data-name="여자 장발" xmlns="http://www.w3.org/2000/svg" viewBox="120 150 250 350"><defs><style>.cls-1{fill:#fff;}.cls-2{fill:#ffd521;}.cls-3{fill:#848484;}</style></defs><g id="색깔"><path class="cls-1" d="M302,381.36c0-.67.4-1.46.94-1.3a1.73,1.73,0,0,1,1.19,1.39.89.89,0,0,1-.75,1C302.55,382.37,302,382.1,302,381.36Z"/><path class="cls-1" d="M302.9,397.29c-.78,1-1.61.87-2.18-.25a5.53,5.53,0,0,1,.61-5.37,1.17,1.17,0,0,1,1.27-.47,2.07,2.07,0,0,1,1.26,1.36,5.25,5.25,0,0,1,.11,1A5.8,5.8,0,0,1,302.9,397.29Z"/><path class="cls-1" d="M270.71,344.8a5.41,5.41,0,0,1,1.56,0c.54,0,.43.43.46.75A14.68,14.68,0,0,1,264.22,360a26,26,0,0,1-10.51,1.91,34.43,34.43,0,0,1-10.79-2.1,8.57,8.57,0,0,1-4.15-3.57c-.69-1.08-.46-2.22-.58-3.33,0-.33.21-.31.44-.37,5-1.29,9.87-2.85,14.91-3.78.73-.13.91,0,.89.73a16,16,0,0,0,.49,4.25c.2.73.4,1.62,1.35,1.62s1.1-.85,1.31-1.55a16.32,16.32,0,0,0,.49-5.07c0-.67.12-1,.85-1.16C262.87,346.78,266.82,345.93,270.71,344.8Z"/><path class="cls-1" d="M260.64,344.88c-.64.15-1,.16-.74-.72.47-1.89.88-3.82,1.27-5.74.15-.73.44-1,1.21-.93,2.9.4,5.8.72,8.31,2.47a3.71,3.71,0,0,1,1.48,1.87c0,.43-.32.45-.6.5C267.93,343.19,264.28,344,260.64,344.88Z"/><path class="cls-1" d="M244.1,349a34.33,34.33,0,0,1-5.64.65,17.11,17.11,0,0,1,5.36-6.9A25,25,0,0,1,255.61,338c1.07-.17,2.14-.32,3.21-.5.46-.08.76,0,.56.56a20.18,20.18,0,0,1-3.47,7.1,4.49,4.49,0,0,1-2.47,1.49C250.3,347.29,247.29,348.53,244.1,349Z"/><path class="cls-1" d="M212.49,348.46a51.4,51.4,0,0,1-8.25-1.85,9.67,9.67,0,0,1-6-4.55c-.76-1.25-1.52-2.48-2.26-3.75-.86-1.48-.77-1.64.95-1.75a22.49,22.49,0,0,1,8.6,1.25c4.37,1.41,6.15,4.84,6.81,9.18.07.46.12.92.17,1.38A.15.15,0,0,1,212.49,348.46Z"/><path class="cls-1" d="M207.76,356.83c-6.57,2.91-15.79.45-17.41-10a6.16,6.16,0,0,1-.17-2.23c2.07.69,4,1.5,6.06,2,2.45.56,4.8,1.45,7.26,1.92a1.21,1.21,0,0,1,1.14,1.36,14.7,14.7,0,0,0,.55,3.43c.19.71.36,1.53,1.3,1.47s1-.91,1.16-1.62a13.31,13.31,0,0,0,.06-3.47l4.52,1c.52.11.23.49.17.73A7.92,7.92,0,0,1,207.76,356.83Z"/><path class="cls-1" d="M193.86,337.54c.61,2.21.8,4.42,2.07,6.6l-5.15-1.59c-.56-.17-.27-.57-.19-.84A7.4,7.4,0,0,1,193.86,337.54Z"/><path class="cls-1" d="M187.41,515.66c-.07.05-.08.15-.11.18s-.11-.07-.14-.12a.31.31,0,0,1-.06-.13.33.33,0,0,0,.3.06h0Z"/><path class="cls-1" d="M187,515.05c.13.2.25.4.37.6a.33.33,0,0,1-.3-.06C187.05,515.42,187.1,515.21,187,515.05Z"/><path class="cls-1" d="M187.3,515.84s0-.13.11-.18a.63.63,0,0,1-.11.66,1.29,1.29,0,0,1-.34-.89.44.44,0,0,0,.14.16.31.31,0,0,0,.06.13S187.13,516,187.3,515.84Z"/><path class="cls-1" d="M187,515.05c.07.16,0,.37.07.54a.44.44,0,0,1-.14-.16,1.86,1.86,0,0,1,0-.47Z"/><path class="cls-1" d="M178.9,381.76a10.46,10.46,0,0,0,3.28,5.29c2.9,2.64,6.47,3.85,10.07,4.94a117.35,117.35,0,0,0,19.64,3.75c.85.12,2-.08,2.48.41a.91.91,0,0,1,.12.94,10.8,10.8,0,0,0-.47,1.5,8.51,8.51,0,0,0,2.89,8.11c3,2.59,6.59,3.55,10.38,3.94q2.85.28,5.71.48c.52,0,.72.18.73.73.1,5.17,0,10.33-.33,15.48-.07,1-.13,2-.17,3,0,.62-.19.95-.9,1-5.45.44-10.89,1.06-16.35,1.37A71.19,71.19,0,0,0,197.76,436a20.24,20.24,0,0,0-12.85,12.14,48.58,48.58,0,0,0-3.38,15.58c-.67,10.61.12,21.15,1.31,31.68.8,7.09,1.63,14.16,3,21.16.2,1.05.08,2.31,1.21,3,.07,0,.05.29,0,.43-.26,3.22-.56,6.41-.8,9.63,0,.72-.42.59-.81.47-2.83-.79-5.63-1.62-8.45-2.39-13.91-3.76-27-9.7-39.92-16.1-7.53-3.74-15-7.69-22.3-11.79-.48-.26-.93-.6-1.42-.92,6.54-2.84,11.08-8,15.34-13.44A99.83,99.83,0,0,0,149,440.24c1.76-10.07,3.38-20.16,4.43-30.34.7-6.86,1-13.76,1.41-20.65.36-6.55.86-13.07,1.51-19.6.68-6.94,1.39-13.88,2.56-20.75,4.14-24.59,10.54-48.4,23-70a117.16,117.16,0,0,1,17.32-23.11c6.21-6.39,13.77-10.48,22-13.28a81.77,81.77,0,0,1,21.17-4c5.16-.33,10.32-.62,15.5-.56,8.06.1,15.67,2.19,23.18,5.05,14.79,5.63,25.4,16.24,33.53,29.81A209.5,209.5,0,0,1,327,295.92a119.84,119.84,0,0,1,8,28.16q1.74,10.07,2.83,20.24c.9,8.59,2,17.17,2.06,25.84,0,.93,0,1.86-.07,2.79-.13,4.1.26,8.18.2,12.29-.11,7.41,0,14.82-.06,22.23a330.06,330.06,0,0,0,1.39,33.13c1,10.45,2.17,20.89,4.68,31.1,2,8.26,4.81,16.24,9.29,23.46A34.3,34.3,0,0,0,365.94,506c.75.48.83.73.2,1.46-3,3.39-6.65,5.89-10.05,8.74-10,8.3-21.57,13.27-33.48,17.58q-10.55,3.83-21.4,6.64c-.32.08-.64.13-1.18.25,1.34-4.2,2.76-8.16,3.7-12.28,2.77-12.22,5.6-24.43,7.55-36.83a142.46,142.46,0,0,0,2.13-22.78,44.75,44.75,0,0,0-10-28.36c-3.56-4.49-8.32-6.58-13.77-7.22a116.41,116.41,0,0,1-15.3-2.49c-3.95-1-4.13-1-4.4-5.09-.57-8.37.64-16.41,4.95-23.71a54.05,54.05,0,0,1,7.9-10.25c3.35-3.45,7-6.58,10.16-10.24.83.77.8,2,1.51,2.79a10.37,10.37,0,0,0,7.21,3.82c.33,0,.93-.18.89.54,0,.53.26,1.12-.69,1.41-1.57.47-2.88,3.5-2.63,5.63.23,2,1.15,3.26,2.4,3.38s2.43-1,3-2.83a7.57,7.57,0,0,0,.35-3.44,2.76,2.76,0,0,0-.85-1.83,1.49,1.49,0,0,1-.62-1.2c.08-.91.09-1.57,1.4-1.78,5.85-1,13.64-6,14.72-15.2a15.93,15.93,0,0,0-2-9.39c-.16-.3-.33-.6-.5-.9a.62.62,0,0,1,0-.16,50.31,50.31,0,0,0,8.49.61c.66,0,1.78.21,1.78-.66s-1.09-.47-1.7-.47a52.33,52.33,0,0,1-8.39-.54,3.68,3.68,0,0,1-2.19-1.06c-3.38-3.33-7.45-4.07-11.89-3.18a5.24,5.24,0,0,1-2.83-.2c-6-2.09-10.88-5.9-15.24-10.59-5.49-5.91-9.28-12.91-12.5-20.3-.79-1.79-1.52-3.62-2.29-5.45.57-.27.93.13,1.35.21s.62.07.74-.3-.14-.5-.37-.64a.69.69,0,0,0-.3-.14c-1.86-.17-2.28-1.62-2.73-3.15-1.43-4.95-2.54-10-4.09-14.88-4.51-14.28-13.06-25.41-24.8-34a53.48,53.48,0,0,0-9.85-6.24c-4.53-2-9.13-2.72-13.84-.61-3.59,1.6-5.86,4.61-7.9,7.85a21.19,21.19,0,0,0-1.84,3.73c-3.22-2.14-5.4-2.56-8.92,0a36.66,36.66,0,0,0-9.18,10.23c-4.63,7.27-8.09,15.07-9.32,23.74a56.8,56.8,0,0,0,2.11,26.74c2,5.75,2.58,11.76,3.07,17.8.6,7.24-.95,14.11-3.15,20.87-.54,1.67-1.48,3.22-1.87,5S178.44,379.91,178.9,381.76Z"/><path class="cls-2" d="M299,375.33c-.17.5-.61,1.21.15,1.51s.8-.52,1-1a30.89,30.89,0,0,1,1.58-3.34,7.32,7.32,0,0,1,4.3-3.85,26.75,26.75,0,0,0,2.51-1c.36-.17.82-.46.62-.94a.79.79,0,0,0-1-.29c-3.34,1.1-6.53,2.52-9,5.22-.39.43-1,1-.47,1.57s.82-.43,1.46-.55C299.73,373.64,299.34,374.47,299,375.33Zm-81.49-28.5A31.91,31.91,0,0,1,206.14,368c-.49.43-.65.85-.2,1.37a63.23,63.23,0,0,1,5.72,7.75c.22.35.53.62.94.35s.31-.65.13-1a7.92,7.92,0,0,0-.42-.69,52.36,52.36,0,0,0-3.54-5c-.34-.42-.86-.8-.94-1.28s.65-.79,1-1.17a38.66,38.66,0,0,0,9.86-18.6c.33-1.5.74-3,1.12-4.51-.09-.53-.38-1-.87-.58A3.28,3.28,0,0,0,217.54,346.83Zm-34.77,24.78c2-6.24,3.64-12.56,3.28-19.24-.16-2.86-.46-5.71-.69-8.57.14-.2,0-.53.23-.69.53.82,1.66,1.11,1.78,2.28a15.34,15.34,0,0,0,2.19,6.42c.72,1.22.82,2.09-.22,3.08a4.73,4.73,0,0,0-.72,1.29c-.09.18-.2.37-.07.55s.42.16.61.06a16.29,16.29,0,0,0,1.78-1c.65-.43,1.07-.33,1.59.28a10.45,10.45,0,0,0,6.28,3.59,20.4,20.4,0,0,0,8.69-.46c4.13-1.08,6.55-4.43,6.51-8.83a25.71,25.71,0,0,0-.3-3.93c-.47-2.81-1-5.6-3.23-7.61a14.41,14.41,0,0,0-5.54-2.91,21,21,0,0,0-9.27-1.25.8.8,0,0,1-1-.44c-.39-.62-1.09-.42-1.16.34-.06.6-.34.76-.75,1a9.42,9.42,0,0,0-4.28,4.14c-.5,1.06-1,1-1.74.4a9.44,9.44,0,0,0-1.5-1,1.67,1.67,0,0,1-.89-1.36,40.73,40.73,0,0,0-1.55-5.83,54.69,54.69,0,0,1,2.37-39.64c3.08-6.89,6.79-13.4,12.83-18.08a18.34,18.34,0,0,1,1.83-1.35c1.91-1.12,3.8-1.28,5.66.21,1,.77,1.65.65,2.21-.39,0-.09.09-.18.13-.27a28.85,28.85,0,0,1,5.25-7.79,11.74,11.74,0,0,1,7.41-3.78,17.44,17.44,0,0,1,9.9,2,63.42,63.42,0,0,1,9.83,6.51,64.45,64.45,0,0,1,22.69,30.79c2,5.86,3.2,11.94,5,17.86,0,.09-.06.2-.1.34a46.91,46.91,0,0,0-11.44-1.76,27.44,27.44,0,0,0-8.69.91c-.3.08-.75.18-.64.64s.55.3.86.23c6.57-1.39,13-.68,19.48.93a1.82,1.82,0,0,1,1.46,1.35,105.21,105.21,0,0,0,8.29,17.53c1,1.66,1,1.66-.79,2.18-.71.22-1.49.91-2.09.59s-.78-1.27-1.19-1.9a6.12,6.12,0,0,0-3.5-3,31.89,31.89,0,0,0-6.73-1c-.66,0-1.08-.17-.93-1,.08-.46,0-1-.61-1s-.75.43-.73.84c0,1-.58,1.05-1.3,1.1a33.42,33.42,0,0,0-13.75,4,19,19,0,0,0-9.17,11.27,6.6,6.6,0,0,0-.16,4.67,12.76,12.76,0,0,0,8.57,7.75,28,28,0,0,0,7.67,1c5.35,0,10.52-.84,15.22-3.71,1.66-1,2.27-1,3.71.39.2.17.36.4.55.57s.57.41.91.16a.72.72,0,0,0,.19-.94c-.36-.93-.66-1.89-1.06-2.8a1.26,1.26,0,0,1,.2-1.47,15.28,15.28,0,0,0,2.76-6.41c.35-1.55-.32-3.3.59-4.62a25.77,25.77,0,0,1,3.28-3.33,3.84,3.84,0,0,1,.32-.26,65.69,65.69,0,0,0,9,10.06,35.92,35.92,0,0,0,11.33,6.8h0a.19.19,0,0,1,0,.08l-.75.49a16.79,16.79,0,0,0-4.44,3.71,4.3,4.3,0,0,0-1.12,2.6c0,.42.06.84.52.88s.56-.35.57-.72a2.52,2.52,0,0,1,.71-1.67c3.65-4.24,8.18-6.26,13.66-5.3s9.54,6.51,9.69,12.46c.19,7.45-6.32,15.12-13.52,16-1,.12-1.15-.18-1.08-1.07.09-1.09-.17-2.15.91-3.07s.49-2.15-.69-2.66c-.17-.07-.36,0-.44-.28-.25-.83-.85-.49-1.28-.3a2.09,2.09,0,0,0-.33,3.6,1.4,1.4,0,0,1,.74,1.48,11,11,0,0,0,0,1.62c.06.67-.22.77-.79.72a8.46,8.46,0,0,1-6.17-3.15,6.84,6.84,0,0,1-1.39-3.26c-.15-.91.75-1.36,1.07-2.08.19-.42.45-.81.64-1.23s.5-.91-.08-1.21-.72.24-.92.61a23.64,23.64,0,0,1-2.37,3.39,97.2,97.2,0,0,1-8.19,8.3,57,57,0,0,0-11.47,14.24c-4.79,8.94-5.38,18.58-3.93,28.48.09.63.07,1.52.9,1.5s.42-1,.66-1.56a18.31,18.31,0,0,0,3.68,1.36A127.51,127.51,0,0,0,290,434.64a17.8,17.8,0,0,1,12,6.28,43.28,43.28,0,0,1,10,27.38c.1,7.16-.91,14.23-1.87,21.29-1,7.38-2.65,14.62-4.2,21.89-1.58,7.49-2.88,15.08-5.29,22.35-5.17,15.61-10.46,31.19-15.71,46.79-.65,1.92-1.35,3.81-2,5.71l-.21-.06c-1.94-9.53-3.31-19.15-4.31-28.82-.62-5.91-.86-11.83-1-17.77A238.46,238.46,0,0,1,278.81,504a183.8,183.8,0,0,1,7.48-33.48c1.39-4.37,2.82-8.74,4.22-13.12.12-.38.43-.91-.12-1.1s-.66.41-.81.78c-.54,1.36-1,2.74-1.54,4.11a187.43,187.43,0,0,0-12.17,60,266.52,266.52,0,0,0,1.44,41.13c1.29,10.55,2.93,21,5.26,31.37,1.33,5.87,2.28,11.84,3.68,17.71a546,546,0,0,0,16.23,53.45,2.52,2.52,0,0,1,.33,1.21H257.37c-.07-.18-.17-.35-.23-.53-2.87-8-5.49-16.07-8-24.17-5-16-9.8-32.14-13.47-48.58A28.43,28.43,0,0,0,234,587a1.2,1.2,0,0,1,.33,0,124.36,124.36,0,0,0,15.16,2.69c.93.11,1.86.23,2.8.3.4,0,.93,0,1-.49s-.43-.65-.83-.74-.9-.15-1.34-.2c-4.28-.49-8.53-1.16-12.78-1.95-5.92-1.13-11.47-3.54-17.24-5.19-.43-.12-.86-.25-1.3-.33-.26-.05-.57,0-.65.29a.55.55,0,0,0,.43.7c.24.1.49.2.74.28l12.26,4.16c.28.09.62.07.75.43a3,3,0,0,0,0,1.93q2.88,14,6.67,27.73a5.67,5.67,0,0,1,.16,2c-.26,3.47-.32,7-.46,10.46-.2,5-.17,10.07-.27,15.11-.16,7.34-.26,14.67.12,22H191.46c-.35-3.08-.77-6.15-1.07-9.24-.73-7.4-1.39-14.81-2.11-22.21-.77-8-1.23-16.08-1.7-24.13-.4-6.86-.7-13.73-.82-20.59-.31-16.77.05-33.52,1.28-50.25.54-7.23,1.15-14.45,1.74-21.68.49-6,1-12,1.86-18a330.84,330.84,0,0,1,6.82-34.25,88.66,88.66,0,0,1,3.34-11.58c.12-.3.5-.62.09-.9s-.77.08-1,.45a13.24,13.24,0,0,0-1.25,3c-2.69,8.68-4.68,17.55-6.54,26.45a224.87,224.87,0,0,0-3.87,24.9c-.25,2.54-.56,5.07-.83,7.61h0c-.12-.2-.24-.4-.37-.6L187,515a4.82,4.82,0,0,1-.16-.68c-1.16-7.11-2-14.25-2.79-21.42A172,172,0,0,1,183,463.37a46.11,46.11,0,0,1,3.13-14.58,18.91,18.91,0,0,1,11.74-11.39,64.39,64.39,0,0,1,13.83-3c5.11-.57,10.24-.75,15.34-1.33,2.24-.25,4.47-.93,6.76-.38.29.08.41-.26.59-.44.65-.67.11-1.4.17-2.1a125.64,125.64,0,0,0,.43-17.78,2.3,2.3,0,0,1,.12-1.23c.4-.9.05-1.42-.89-1.43-1.76,0-3.52-.15-5.27-.31-3.52-.35-7-.85-10.09-2.85-3.58-2.32-4.3-5.49-3.36-9.21h0c0-.14.07-.3.11-.45a.81.81,0,0,1,1-.68c4.45.38,8.91.47,13.36.78,8.26.55,16.26-1,24.27-2.71.56-.12,1.45-.34,1.29-1s-1.08-.42-1.65-.3c-8.28,1.79-16.56,3.07-25.08,2.58a217.66,217.66,0,0,1-26.49-2.67A65.15,65.15,0,0,1,187,388.68a15.56,15.56,0,0,1-5.14-3.68,5.88,5.88,0,0,1-1.59-6.05C181,376.47,182,374.08,182.77,371.61Zm24.72-52.23c.4,0,.84,0,1-.56-.17-.6-.66-.5-1.1-.49A30,30,0,0,0,196.06,321a21.47,21.47,0,0,0-5.14,3.07c-.3.25-.75.58-.39,1.05s.68,0,1-.19A26,26,0,0,1,199,321,32.28,32.28,0,0,1,207.49,319.38Z"/><path class="cls-3" d="M185.36,343.8c-.15-.59-.14-.63.23-.69C185.32,343.27,185.5,343.6,185.36,343.8Z"/><path class="cls-3" d="M185.16,343.44a.63.63,0,0,1,.36-.43l0,0,0,.08c-.37.06-.38.1-.23.69A1,1,0,0,1,185.16,343.44Z"/><path class="cls-3" d="M185.52,343a.63.63,0,0,0-.36.43.64.64,0,0,1,.1-.65c.1-.11.24.07.3.24Z"/></g><g id="선"><path d="M298.68,373.21c-.55-.59.08-1.14.47-1.57,2.48-2.7,5.67-4.12,9-5.22a.79.79,0,0,1,1,.29c.2.48-.26.77-.62.94a26.75,26.75,0,0,1-2.51,1,7.32,7.32,0,0,0-4.3,3.85,30.89,30.89,0,0,0-1.58,3.34c-.18.48-.31,1.25-1,1s-.32-1-.15-1.51c.31-.86.7-1.69,1.11-2.67C299.5,372.78,299.21,373.78,298.68,373.21Z"/><path d="M275.87,521.25a187.43,187.43,0,0,1,12.17-60c.51-1.37,1-2.75,1.54-4.11.15-.37.29-1,.81-.78s.24.72.12,1.1c-1.4,4.38-2.83,8.75-4.22,13.12A183.8,183.8,0,0,0,278.81,504a238.46,238.46,0,0,0-1.49,35.65c.16,5.94.4,11.86,1,17.77,1,9.67,2.37,19.29,4.31,28.82l.21.06h0a.66.66,0,0,1-.2,0c-.66-.05-.55-1.24-.69-1.93-1.8-9.16-3.1-18.42-4-27.73-.55-5.59-.77-11.2-.93-16.82-.12-3.73-.24-7.45-.14-11.17.16-6.46.37-12.93,1-19.38a185.06,185.06,0,0,1,5.44-29.94c1.89-7,4.29-13.82,6.47-20.71a4.25,4.25,0,0,0,.38-1.69,1.51,1.51,0,0,0-.61.94c-4.83,13-9,26.27-11.11,40.11-.87,5.75-1.57,11.5-2,17.32-.32,4.69-.27,9.38-.45,14.06-.14,3.69.07,7.36.07,11a188.43,188.43,0,0,0,1.25,19.72c1,9.65,2.54,19.21,4.45,28.72,3.1,15.46,6.34,30.89,11.09,45.93,3.13,10,6.25,19.94,9.75,29.77.18.49.52,1,.13,1.53a2.52,2.52,0,0,0-.33-1.21,546,546,0,0,1-16.23-53.45c-1.4-5.87-2.35-11.84-3.68-17.71-2.33-10.36-4-20.82-5.26-31.37A266.52,266.52,0,0,1,275.87,521.25Z"/><path d="M269,430.75c-1.45-9.9-.86-19.54,3.93-28.48A57,57,0,0,1,284.39,388a97.2,97.2,0,0,0,8.19-8.3,23.64,23.64,0,0,0,2.37-3.39c.2-.37.43-.86.92-.61s.26.81.08,1.21-.45.81-.64,1.23c-.32.72-1.22,1.17-1.07,2.08a6.84,6.84,0,0,0,1.39,3.26,8.46,8.46,0,0,0,6.17,3.15c.57,0,.85-.05.79-.72a11,11,0,0,1,0-1.62,1.4,1.4,0,0,0-.74-1.48,2.09,2.09,0,0,1,.33-3.6c.43-.19,1-.53,1.28.3.08.25.27.21.44.28,1.18.51,1.64,1.84.69,2.66s-.82,2-.91,3.07c-.07.89.12,1.19,1.08,1.07,7.2-.89,13.71-8.56,13.52-16-.15-5.95-4.35-11.51-9.69-12.46s-10,1.06-13.66,5.3a2.52,2.52,0,0,0-.71,1.67c0,.37-.16.76-.57.72s-.54-.46-.52-.88a4.3,4.3,0,0,1,1.12-2.6,16.79,16.79,0,0,1,4.44-3.71l.75-.49c0,.23-.22.46-.64.75a33.54,33.54,0,0,0-2.74,2,7.34,7.34,0,0,0-2.42,3.15,1.54,1.54,0,0,0,0,1.13c.52-.68.66-1.48,1.17-2.07a15,15,0,0,1,7.44-5c5.25-1.44,9.87-.32,13.36,4.17A13.51,13.51,0,0,1,318.44,373c-1.14,7.38-6.64,11.93-13,13.77-1.62.47-2,.07-2.06-1.65a3.45,3.45,0,0,1,.85-2.76c.81-.8.53-1.44-.59-2.32-.65-.52-1.21-.75-1.83-.05a1.77,1.77,0,0,0,.05,2.42l.17.16a4.31,4.31,0,0,1,.7,3.85,1,1,0,0,1-1.06.5c-3.24.13-6.86-2.75-7.59-6a3,3,0,0,1,.53-2.3,4.8,4.8,0,0,0,1.1-2.31c-.59.17-.76.62-1,1A46.38,46.38,0,0,1,287,386c-5,4.69-9.79,9.61-13.33,15.65a36.92,36.92,0,0,0-4.7,15.06,55.25,55.25,0,0,0,.23,13.23,2.72,2.72,0,0,0,.58,1.71c.56-.18.31-1.12,1-1.09a4.8,4.8,0,0,1,1.37.5,57.44,57.44,0,0,0,10.42,2.32c3.41.55,6.88.62,10.23,1.53a18.08,18.08,0,0,1,10.12,6.71,45.11,45.11,0,0,1,9.18,22.8,64,64,0,0,1-.16,12.07,204.38,204.38,0,0,1-3.4,24c-1.75,8.55-3.51,17.08-5.45,25.58-1.53,6.66-3.82,13.07-6,19.53-1.27,3.78-2.65,7.5-3.9,11.29-3,9.23-6.22,18.38-9.35,27.57-.23.66-.27,1.74-1,1.85h0c.68-1.9,1.38-3.79,2-5.71,5.25-15.6,10.54-31.18,15.71-46.79,2.41-7.27,3.71-14.86,5.29-22.35,1.55-7.27,3.2-14.51,4.2-21.89,1-7.06,2-14.13,1.87-21.29a43.28,43.28,0,0,0-10-27.38,17.8,17.8,0,0,0-12-6.28,127.51,127.51,0,0,1-15.74-2.59,18.31,18.31,0,0,1-3.68-1.36c-.24.57.21,1.53-.66,1.56S269.08,431.38,269,430.75Z"/><path d="M234,586.91a.05.05,0,0,1,0,0l0,0Z"/><path d="M234,587a28.43,28.43,0,0,1,1.64,5.87c3.67,16.44,8.43,32.54,13.47,48.58,2.55,8.1,5.17,16.18,8,24.17.06.18.16.35.23.53-.57-.29-.69-.87-.89-1.42-4.14-11.17-7.43-22.62-11-34-4-12.62-7.35-25.42-10.25-38.35-.33-1.47-.7-2.94-1.13-4.39-.1-.34-.3-.68-.13-1.06l0,0Z"/><path d="M234,586.92c-.17-.27-.34-.15-.52,0,0,0,0,0,0,0,.32-.35.39-.32.54.08Z"/><path d="M233.44,586.88c.18-.11.35-.23.52,0-.17.38,0,.72.13,1.06.43,1.45.8,2.92,1.13,4.39,2.9,12.93,6.26,25.73,10.25,38.35,3.58,11.36,6.87,22.81,11,34,.2.55.32,1.13.89,1.42H255.8c-5.48-14.5-9.63-29.46-14.34-44.25-.34.29-.22.67-.23,1-.21,13.11-.61,26.21-.46,39.31,0,1.32.12,2.63.17,4H239.6a2.59,2.59,0,0,0,.32-1.9c-.07-1.31-.21-2.63-.21-4-.13-8.3.21-16.59.21-24.89,0-3.54.24-7,.31-10.59a46.91,46.91,0,0,1,.34-6.26,5.07,5.07,0,0,0-.25-2.18c-1.66-6.05-3.17-12.14-4.57-18.25-.84-3.67-1.77-7.31-2.25-11.05A1.77,1.77,0,0,0,233.44,586.88Z"/><path d="M233.38,588.86a3,3,0,0,1,0-1.93l.11,0a1.77,1.77,0,0,1,.06.17c.48,3.74,1.41,7.38,2.25,11.05,1.4,6.11,2.91,12.2,4.57,18.25a5.07,5.07,0,0,1,.25,2.18,46.91,46.91,0,0,0-.34,6.26c-.07,3.54-.31,7.05-.31,10.59,0,8.3-.34,16.59-.21,24.89,0,1.32.14,2.64.21,4a2.59,2.59,0,0,1-.32,1.9c-.38-7.33-.28-14.66-.12-22,.1-5,.07-10.08.27-15.11.14-3.49.2-7,.46-10.46a5.67,5.67,0,0,0-.16-2Q236.26,602.85,233.38,588.86Z"/><path d="M233.42,586.83s0,0,0,0l-.11,0Z"/><path d="M221,581.73c1.55.44,3.1.88,4.61,1.46a101.59,101.59,0,0,0,25.76,5.71c.45.05.94,0,1.26.5a1.35,1.35,0,0,1-1.15.18,136.54,136.54,0,0,1-16.3-2.73,1.4,1.4,0,0,0-1.2,0l0,0c-.15-.4-.22-.43-.54-.08-.24-.53-.8-.66-1.3-.81-3.81-1.15-7.49-2.72-11.31-3.86-.33-.11-.74-.14-.92-.56C220.29,581.43,220.64,581.64,221,581.73Z"/><path d="M225.61,583.19c-1.51-.58-3.06-1-4.61-1.46-.36-.09-.71-.3-1.11-.13.18.42.59.45.92.56,3.82,1.14,7.5,2.71,11.31,3.86.5.15,1.06.28,1.3.81l-.09.1c-.13-.36-.47-.34-.75-.43l-12.26-4.16c-.25-.08-.5-.18-.74-.28a.55.55,0,0,1-.43-.7c.08-.33.39-.34.65-.29.44.08.87.21,1.3.33,5.77,1.65,11.32,4.06,17.24,5.19,4.25.79,8.5,1.46,12.78,1.95.44.05.89.12,1.34.2s.91.2.83.74-.61.52-1,.49c-.94-.07-1.87-.19-2.8-.3A124.36,124.36,0,0,1,234.32,587a1.2,1.2,0,0,0-.33,0v0a.05.05,0,0,0,0,0l0,0a1.4,1.4,0,0,1,1.2,0,136.54,136.54,0,0,0,16.3,2.73,1.35,1.35,0,0,0,1.15-.18c-.32-.46-.81-.45-1.26-.5A101.59,101.59,0,0,1,225.61,583.19Z"/><path d="M207.38,272.51a3.86,3.86,0,0,0,.29-.51,29.38,29.38,0,0,1,5-7.3,12.72,12.72,0,0,1,12.51-4,24.88,24.88,0,0,1,8.76,3.8,83.9,83.9,0,0,1,15.22,12.29A65.28,65.28,0,0,1,259.33,291c3.16,5.84,5,12.18,6.69,18.61.63,2.44,1.18,4.89,2,7.29.44,1.41.16,1.75-1.23,1.42a52.81,52.81,0,0,0-11.8-1.48,28.78,28.78,0,0,0-6.13.67,1.45,1.45,0,0,0-1,.47c.86-.06,1.55-.3,2.27-.38a47,47,0,0,1,17.07,1.24,2.9,2.9,0,0,1,2.15,2,107.46,107.46,0,0,0,8.54,17.8c.59,1,.46,1.34-.53,1.78l0,0-.05,0c-2.8,1.15-2.82,1.16-4.47-1.41a6.6,6.6,0,0,0-4.74-3,34,34,0,0,0-4-.54c-1.28-.07-2.48-.08-2.54-1.76-.21-.06-.32-.05-.33,0-.31,1.3-1.26,1.52-2.37,1.6a29.77,29.77,0,0,0-9.5,2.21,22.23,22.23,0,0,0-7.46,4.45,18.82,18.82,0,0,0-5.28,9,7.05,7.05,0,0,0,1.14,5.95,13.89,13.89,0,0,0,10.27,6,37.22,37.22,0,0,0,12.19-.42,23.81,23.81,0,0,0,7.34-2.84c1.79-1.09,2.38-1.05,4.05.24.31.24.62.83,1,.56s0-.9-.13-1.26a4.39,4.39,0,0,1,.48-5.09,12.22,12.22,0,0,0,2-7.52,3.65,3.65,0,0,1,1.4-3.12c.65-.54,1.26-1.1,1.85-1.69.93-.92,1.28-.9,2.07.15a65.91,65.91,0,0,0,5.74,6.71,36.46,36.46,0,0,0,12.35,8.53l.52.22c.42.22.65.41.71.62a35.92,35.92,0,0,1-11.33-6.8,65.69,65.69,0,0,1-9-10.06,3.84,3.84,0,0,0-.32.26,25.77,25.77,0,0,0-3.28,3.33c-.91,1.32-.24,3.07-.59,4.62a15.28,15.28,0,0,1-2.76,6.41,1.26,1.26,0,0,0-.2,1.47c.4.91.7,1.87,1.06,2.8a.72.72,0,0,1-.19.94c-.34.25-.65.08-.91-.16s-.35-.4-.55-.57c-1.44-1.36-2.05-1.41-3.71-.39-4.7,2.87-9.87,3.72-15.22,3.71a28,28,0,0,1-7.67-1,12.76,12.76,0,0,1-8.57-7.75,6.6,6.6,0,0,1,.16-4.67A19,19,0,0,1,245.54,339a33.42,33.42,0,0,1,13.75-4c.72-.05,1.33-.07,1.3-1.1,0-.41.2-.88.73-.84s.69.57.61,1c-.15.84.27,1,.93,1a31.89,31.89,0,0,1,6.73,1,6.12,6.12,0,0,1,3.5,3c.41.63.62,1.58,1.19,1.9s1.38-.37,2.09-.59c1.81-.52,1.78-.52.79-2.18a105.21,105.21,0,0,1-8.29-17.53,1.82,1.82,0,0,0-1.46-1.35c-6.44-1.61-12.91-2.32-19.48-.93-.31.07-.74.24-.86-.23s.34-.56.64-.64a27.44,27.44,0,0,1,8.69-.91,46.91,46.91,0,0,1,11.44,1.76c0-.14.12-.25.1-.34-1.82-5.92-3-12-5-17.86a64.45,64.45,0,0,0-22.69-30.79,63.42,63.42,0,0,0-9.83-6.51,17.44,17.44,0,0,0-9.9-2,11.74,11.74,0,0,0-7.41,3.78,28.85,28.85,0,0,0-5.25,7.79c0,.09-.08.18-.13.27Z"/><path d="M211.66,377.09a63.23,63.23,0,0,0-5.72-7.75c-.45-.52-.29-.94.2-1.37a31.91,31.91,0,0,0,11.4-21.14,3.28,3.28,0,0,1,1.41-2.19c.49-.43.78.05.87.58-.38,1.51-.79,3-1.12,4.51a38.66,38.66,0,0,1-9.86,18.6c-.36.38-1.11.59-1,1.17s.6.86.94,1.28a52.36,52.36,0,0,1,3.54,5,7.92,7.92,0,0,1,.42.69c.18.37.27.77-.13,1S211.88,377.44,211.66,377.09Z"/><path d="M199,321a26,26,0,0,0-7.52,3.85c-.29.22-.63.62-1,.19s.09-.8.39-1.05a21.47,21.47,0,0,1,5.14-3.07,30,30,0,0,1,11.32-2.63c.44,0,.93-.11,1.1.49-.15.58-.59.54-1,.56A32.28,32.28,0,0,0,199,321Z"/><path d="M185.45,590.67c-.27-6.17-.19-12.34-.13-18.5.05-5.89.14-11.78.45-17.67.34-6.34.81-12.68,1.25-19,.42-6.07,1-12.13,1.43-18.19a288.75,288.75,0,0,1,6-40.33c1.5-6.7,3.07-13.36,4.94-19.95.28-1,.69-1.95.94-3a6,6,0,0,0-1.35,2.61c-2,6.31-3.53,12.76-5,19.22-1.84,8.16-3.49,16.37-4.57,24.68-.59,4.54-1.06,9.09-1.47,13.64a2.09,2.09,0,0,1-.43,1.41l-.13,0c.27-2.54.58-5.07.83-7.61a224.87,224.87,0,0,1,3.87-24.9c1.86-8.9,3.85-17.77,6.54-26.45a13.24,13.24,0,0,1,1.25-3c.22-.37.52-.76,1-.45s0,.6-.09.9a88.66,88.66,0,0,0-3.34,11.58A330.84,330.84,0,0,0,190.64,500c-.85,6-1.37,12-1.86,18-.59,7.23-1.2,14.45-1.74,21.68-1.23,16.73-1.59,33.48-1.28,50.25.12,6.86.42,13.73.82,20.59.47,8.05.93,16.1,1.7,24.13.72,7.4,1.38,14.81,2.11,22.21.3,3.09.72,6.16,1.07,9.24a2.76,2.76,0,0,1-.54-1.61c-1-7.78-1.72-15.57-2.44-23.37-.54-6-1.07-12-1.44-18-.4-6.46-.81-12.92-1.12-19.38C185.71,599.43,185.65,595.05,185.45,590.67Z"/><path d="M183,463.37A172,172,0,0,0,184,492.86c.76,7.17,1.63,14.31,2.79,21.42a4.82,4.82,0,0,0,.16.68,1.86,1.86,0,0,0,0,.47,3.45,3.45,0,0,0-.24-.47,67.19,67.19,0,0,1-1.4-8.24c-1-7.41-1.86-14.85-2.45-22.31a150.51,150.51,0,0,1-.47-18A55.45,55.45,0,0,1,184.9,451c1.95-5.73,5.17-10.29,10.58-13a35.51,35.51,0,0,1,7.84-2.46,81.23,81.23,0,0,1,15.13-2c3.45-.16,6.86-.66,10.3-1a27.46,27.46,0,0,1,4.25-.33c.79,0,1.15-.28,1.19-1.14.24-5.22.63-10.45.6-15.68,0-1.48-.38-2.92-.09-4.41.15-.88-.61-.94-1.22-.94a53.49,53.49,0,0,1-8.18-.74,14.48,14.48,0,0,1-8.69-4.21c-2.13-2.21-2.19-5.31-1.45-7.81l.29.08c-.94,3.72-.22,6.89,3.36,9.21,3.11,2,6.57,2.5,10.09,2.85,1.75.16,3.51.3,5.27.31.94,0,1.29.53.89,1.43a2.3,2.3,0,0,0-.12,1.23,125.64,125.64,0,0,1-.43,17.78c-.06.7.48,1.43-.17,2.1-.18.18-.3.52-.59.44-2.29-.55-4.52.13-6.76.38-5.1.58-10.23.76-15.34,1.33a64.39,64.39,0,0,0-13.83,3,18.91,18.91,0,0,0-11.74,11.39A46.11,46.11,0,0,0,183,463.37Z"/><path d="M185.18,292.27a54.69,54.69,0,0,0-2.37,39.64,40.73,40.73,0,0,1,1.55,5.83,1.67,1.67,0,0,0,.89,1.36,9.44,9.44,0,0,1,1.5,1c.76.61,1.24.66,1.74-.4a9.42,9.42,0,0,1,4.28-4.14c.41-.23.69-.39.75-1,.07-.76.77-1,1.16-.34a.8.8,0,0,0,1,.44,21,21,0,0,1,9.27,1.25,14.41,14.41,0,0,1,5.54,2.91c2.22,2,2.76,4.8,3.23,7.61a25.71,25.71,0,0,1,.3,3.93c0,4.4-2.38,7.75-6.51,8.83a20.4,20.4,0,0,1-8.69.46,10.45,10.45,0,0,1-6.28-3.59c-.52-.61-.94-.71-1.59-.28a16.29,16.29,0,0,1-1.78,1c-.19.1-.46.16-.61-.06s0-.37.07-.55a4.73,4.73,0,0,1,.72-1.29c1-1,.94-1.86.22-3.08a15.34,15.34,0,0,1-2.19-6.42c-.12-1.17-1.25-1.46-1.78-2.28l0-.08a3.63,3.63,0,0,1,2.23,3,15.66,15.66,0,0,0,2.19,6,2.12,2.12,0,0,1-.15,2.73,2.59,2.59,0,0,0-.72,1.51c.63.11,1-.36,1.49-.62a1.53,1.53,0,0,1,2.12.3,11.23,11.23,0,0,0,9,3.63A25.59,25.59,0,0,0,207,359a8.83,8.83,0,0,0,6-4.57,5.27,5.27,0,0,0,.67-2.32,30.14,30.14,0,0,0-.61-7.75,9.94,9.94,0,0,0-7.2-7.84,29.76,29.76,0,0,0-7.44-1.7,4.6,4.6,0,0,0-1.23,0,6.36,6.36,0,0,0-.89.14c-.82.24-1.78-.8-2.2-.33-1.51,1.73-3.77,2.55-5,4.63s-1.28,1.85-3.14.67a4.24,4.24,0,0,1-2.07-3.1c-.42-2.45-1.39-4.75-2.05-7.14a53.88,53.88,0,0,1-1.91-15.64,55.06,55.06,0,0,1,3.81-19.28A59.37,59.37,0,0,1,193.48,278a30.29,30.29,0,0,1,5.67-5.11c2-1.44,4.18-1.78,6.4-.26.9.61,1.37.58,1.83-.16l.33.15c-.56,1-1.24,1.16-2.21.39-1.86-1.49-3.75-1.33-5.66-.21a18.34,18.34,0,0,0-1.83,1.35C192,278.87,188.26,285.38,185.18,292.27Z"/><path d="M182.77,371.61c-.79,2.47-1.76,4.86-2.51,7.34a5.88,5.88,0,0,0,1.59,6.05,15.56,15.56,0,0,0,5.14,3.68,65.15,65.15,0,0,0,15.26,4.22,217.66,217.66,0,0,0,26.49,2.67c8.52.49,16.8-.79,25.08-2.58.57-.12,1.45-.51,1.65.3s-.73.89-1.29,1c-8,1.7-16,3.26-24.27,2.71-4.45-.31-8.91-.4-13.36-.78a.81.81,0,0,0-1,.68c0,.15-.08.31-.11.45h0l-.29-.08c.06-.2.11-.38.18-.57.3-.82,1-.84,1.68-.77,4.92.42,9.87.55,14.8.82,5.77.31,11.43-.74,17.09-1.72,1.4-.24,2.81-.43,4.2-.79a3.67,3.67,0,0,0,1.71-.74,1.28,1.28,0,0,0-1.26-.11c-4.39,1-8.84,1.69-13.3,2.29a47.7,47.7,0,0,1-10.55.21c-2.08-.19-4.18-.19-6.27-.29a143.41,143.41,0,0,1-31.42-4.7,33.8,33.8,0,0,1-6-2.31,15.86,15.86,0,0,1-4-3,6.8,6.8,0,0,1-1.8-7.71c1.19-3.51,2.6-7,3.49-10.57,1.18-4.78,2.31-9.58,2-14.58-.14-2.43-.28-4.87-.56-7.29a9.84,9.84,0,0,1-.09-1.63,2.57,2.57,0,0,1,.08-.4,1,1,0,0,0,.2.36c.23,2.86.53,5.71.69,8.57C186.41,359.05,184.75,365.37,182.77,371.61Z"/><path d="M196,338.31c.74,1.27,1.5,2.5,2.26,3.75a9.67,9.67,0,0,0,6,4.55,51.4,51.4,0,0,0,8.25,1.85.15.15,0,0,0,0-.09c-.05-.46-.1-.92-.17-1.38-.66-4.34-2.44-7.77-6.81-9.18a22.49,22.49,0,0,0-8.6-1.25C195.23,336.67,195.14,336.83,196,338.31Zm-2.14-.77a7.4,7.4,0,0,0-3.27,4.17c-.08.27-.37.67.19.84l5.15,1.59C194.66,342,194.47,339.75,193.86,337.54Zm-3.68,7a6.16,6.16,0,0,0,.17,2.23c1.62,10.46,10.84,12.92,17.41,10a7.92,7.92,0,0,0,4.64-5.47c.06-.24.35-.62-.17-.73l-4.52-1a13.31,13.31,0,0,1-.06,3.47c-.13.71-.24,1.57-1.16,1.62s-1.11-.76-1.3-1.47a14.7,14.7,0,0,1-.55-3.43,1.21,1.21,0,0,0-1.14-1.36c-2.46-.47-4.81-1.36-7.26-1.92C194.21,346.09,192.25,345.28,190.18,344.59Zm-10.89-38.43c1.23-8.67,4.69-16.47,9.32-23.74a36.66,36.66,0,0,1,9.18-10.23c3.52-2.55,5.7-2.13,8.92,0l.67.31c-.46.74-.93.77-1.83.16-2.22-1.52-4.35-1.18-6.4.26a30.29,30.29,0,0,0-5.67,5.11,59.37,59.37,0,0,0-9.77,16.77,55.06,55.06,0,0,0-3.81,19.28,53.88,53.88,0,0,0,1.91,15.64c.66,2.39,1.63,4.69,2.05,7.14a4.24,4.24,0,0,0,2.07,3.1c1.86,1.18,2,1.27,3.14-.67s3.47-2.9,5-4.63c.42-.47,1.38.57,2.2.33a6.36,6.36,0,0,1,.89-.14,4.6,4.6,0,0,1,1.23,0,29.76,29.76,0,0,1,7.44,1.7,9.94,9.94,0,0,1,7.2,7.84,30.14,30.14,0,0,1,.61,7.75,5.27,5.27,0,0,1-.67,2.32,8.83,8.83,0,0,1-6,4.57,25.59,25.59,0,0,1-5.24.52,11.23,11.23,0,0,1-9-3.63,1.53,1.53,0,0,0-2.12-.3c-.45.26-.86.73-1.49.62a2.59,2.59,0,0,1,.72-1.51A2.12,2.12,0,0,0,190,352a15.66,15.66,0,0,1-2.19-6,3.63,3.63,0,0,0-2.23-3c-.06-.17-.2-.35-.3-.24a.64.64,0,0,0-.1.65,2.57,2.57,0,0,0-.08.4,9.84,9.84,0,0,0,.09,1.63c.28,2.42.42,4.86.56,7.29.29,5-.84,9.8-2,14.58-.89,3.62-2.3,7.06-3.49,10.57a6.8,6.8,0,0,0,1.8,7.71,15.86,15.86,0,0,0,4,3,33.8,33.8,0,0,0,6,2.31,143.41,143.41,0,0,0,31.42,4.7c2.09.1,4.19.1,6.27.29a47.7,47.7,0,0,0,10.55-.21c4.46-.6,8.91-1.25,13.3-2.29a1.28,1.28,0,0,1,1.26.11,3.67,3.67,0,0,1-1.71.74c-1.39.36-2.8.55-4.2.79-5.66,1-11.32,2-17.09,1.72-4.93-.27-9.88-.4-14.8-.82-.71-.07-1.38-.05-1.68.77-.07.19-.12.37-.18.57l-.67-.19a.91.91,0,0,0-.12-.94c-.48-.49-1.63-.29-2.48-.41A117.35,117.35,0,0,1,192.25,392c-3.6-1.09-7.17-2.3-10.07-4.94a10.46,10.46,0,0,1-3.28-5.29c-.46-1.85.17-3.52.55-5.23s1.33-3.29,1.87-5c2.2-6.76,3.75-13.63,3.15-20.87-.49-6-1.11-12.05-3.07-17.8A56.8,56.8,0,0,1,179.29,306.16Z"/><path d="M302,381.36c0,.74.58,1,1.38,1.07a.89.89,0,0,0,.75-1,1.73,1.73,0,0,0-1.19-1.39C302.37,379.9,302,380.69,302,381.36ZM300.72,397c.57,1.12,1.4,1.24,2.18.25a5.8,5.8,0,0,0,1.07-3.72,5.25,5.25,0,0,0-.11-1,2.07,2.07,0,0,0-1.26-1.36,1.17,1.17,0,0,0-1.27.47A5.53,5.53,0,0,0,300.72,397Zm-40.08-52.16c3.64-.86,7.29-1.69,10.93-2.55.28-.05.62-.07.6-.5a3.71,3.71,0,0,0-1.48-1.87c-2.51-1.75-5.41-2.07-8.31-2.47-.77-.11-1.06.2-1.21.93-.39,1.92-.8,3.85-1.27,5.74C259.67,345,260,345,260.64,344.88Zm-16.82-2.13a17.11,17.11,0,0,0-5.36,6.9,34.33,34.33,0,0,0,5.64-.65c3.19-.47,6.2-1.71,9.34-2.39a4.49,4.49,0,0,0,2.47-1.49,20.18,20.18,0,0,0,3.47-7.1c.2-.6-.1-.64-.56-.56-1.07.18-2.14.33-3.21.5A25,25,0,0,0,243.82,342.75Zm9.72,6c-5,.93-9.94,2.49-14.91,3.78-.23.06-.46,0-.44.37.12,1.11-.11,2.25.58,3.33a8.57,8.57,0,0,0,4.15,3.57,34.43,34.43,0,0,0,10.79,2.1A26,26,0,0,0,264.22,360a14.68,14.68,0,0,0,8.51-14.52c0-.32.08-.76-.46-.75a5.41,5.41,0,0,0-1.56,0c-3.89,1.13-7.84,2-11.79,2.81-.73.15-.85.49-.85,1.16a16.32,16.32,0,0,1-.49,5.07c-.21.7-.42,1.54-1.31,1.55s-1.15-.89-1.35-1.62a16,16,0,0,1-.49-4.25C254.45,348.75,254.27,348.66,253.54,348.79ZM114.1,500.86a22.17,22.17,0,0,1-2.43-1.88c-.46-.34-.37-.72,0-1.06a1.19,1.19,0,0,1,.48-.29c4.75-1.54,8.2-5,11.42-8.61,11.56-13,19.6-28,23.13-45.42,2-9.88,3.54-19.81,4.75-29.81.79-6.56,1.12-13.13,1.59-19.71.73-10.36,1.47-20.72,2.58-31.05a266.09,266.09,0,0,1,10.65-51.52,155.48,155.48,0,0,1,15.12-34.32c4.77-7.84,9.73-15.57,16.33-22a54.75,54.75,0,0,1,12-9.19A70.23,70.23,0,0,1,229.21,239a133.77,133.77,0,0,1,19.64-2.15,103.14,103.14,0,0,1,14.71.18c6.11.57,11.86,2.5,17.59,4.59,14.09,5.15,24.65,14.82,32.77,27.5a192.61,192.61,0,0,1,14.57,26.85,121.61,121.61,0,0,1,7.85,27.95c1.28,7.44,2.21,14.94,3.13,22.44a271.93,271.93,0,0,1,1.9,36c-.13,11.92,0,23.83.17,35.75.08,8.3.68,16.57,1.51,24.84.77,7.71,1.71,15.4,3.2,23a90.84,90.84,0,0,0,8.93,26.1,34.51,34.51,0,0,0,11.68,12.8,9.45,9.45,0,0,1,1.21.86c.52.48,1.23,1,0,1.61-.18.09-.24.46-.35.69-5.21,7.12-12.51,11.43-19.71,15.9a133.4,133.4,0,0,1-34,14.7,122.81,122.81,0,0,1-13.82,3.54c-.72.12-.88.53-1.08,1.11Q292.58,562.61,286,582c-.75,2.19-1.53,4.37-2.3,6.56a4.75,4.75,0,0,0-.11,2.51c4.77,25.69,12.28,50.56,21,75h-1.79c.39-.54.05-1-.13-1.53-3.5-9.83-6.62-19.81-9.75-29.77-4.75-15-8-30.47-11.09-45.93-1.91-9.51-3.42-19.07-4.45-28.72a188.43,188.43,0,0,1-1.25-19.72c0-3.68-.21-7.35-.07-11,.18-4.68.13-9.37.45-14.06.39-5.82,1.09-11.57,2-17.32,2.11-13.84,6.28-27.08,11.11-40.11a1.51,1.51,0,0,1,.61-.94,4.25,4.25,0,0,1-.38,1.69c-2.18,6.89-4.58,13.72-6.47,20.71a185.06,185.06,0,0,0-5.44,29.94c-.65,6.45-.86,12.92-1,19.38-.1,3.72,0,7.44.14,11.17.16,5.62.38,11.23.93,16.82.91,9.31,2.21,18.57,4,27.73.14.69,0,1.88.69,1.93a.66.66,0,0,0,.2,0c.71-.11.75-1.19,1-1.85,3.13-9.19,6.32-18.34,9.35-27.57,1.25-3.79,2.63-7.51,3.9-11.29,2.16-6.46,4.45-12.87,6-19.53,1.94-8.5,3.7-17,5.45-25.58a204.38,204.38,0,0,0,3.4-24,64,64,0,0,0,.16-12.07,45.11,45.11,0,0,0-9.18-22.8,18.08,18.08,0,0,0-10.12-6.71c-3.35-.91-6.82-1-10.23-1.53A57.44,57.44,0,0,1,272.13,431a4.8,4.8,0,0,0-1.37-.5c-.71,0-.46.91-1,1.09a2.72,2.72,0,0,1-.58-1.71,55.25,55.25,0,0,1-.23-13.23,36.92,36.92,0,0,1,4.7-15.06c3.54-6,8.31-11,13.33-15.65a46.38,46.38,0,0,0,7.77-8.7c.23-.36.4-.81,1-1a4.8,4.8,0,0,1-1.1,2.31,3,3,0,0,0-.53,2.3c.73,3.27,4.35,6.15,7.59,6a1,1,0,0,0,1.06-.5,4.31,4.31,0,0,0-.7-3.85l-.17-.16a1.77,1.77,0,0,1-.05-2.42c.62-.7,1.18-.47,1.83.05,1.12.88,1.4,1.52.59,2.32a3.45,3.45,0,0,0-.85,2.76c0,1.72.44,2.12,2.06,1.65,6.35-1.84,11.85-6.39,13-13.77a13.51,13.51,0,0,0-2.85-10.67c-3.49-4.49-8.11-5.61-13.36-4.17a15,15,0,0,0-7.44,5c-.51.59-.65,1.39-1.17,2.07a1.54,1.54,0,0,1,0-1.13,7.34,7.34,0,0,1,2.42-3.15,33.54,33.54,0,0,1,2.74-2c.42-.29.64-.52.64-.75l.07-.05-.08,0h0c-.06-.21-.29-.4-.71-.62l-.52-.22a36.46,36.46,0,0,1-12.35-8.53,65.91,65.91,0,0,1-5.74-6.71c-.79-1.05-1.14-1.07-2.07-.15-.59.59-1.2,1.15-1.85,1.69a3.65,3.65,0,0,0-1.4,3.12,12.22,12.22,0,0,1-2,7.52,4.39,4.39,0,0,0-.48,5.09c.18.36.57.94.13,1.26s-.69-.32-1-.56c-1.67-1.29-2.26-1.33-4.05-.24a23.81,23.81,0,0,1-7.34,2.84,37.22,37.22,0,0,1-12.19.42,13.89,13.89,0,0,1-10.27-6,7.05,7.05,0,0,1-1.14-5.95,18.82,18.82,0,0,1,5.28-9,22.23,22.23,0,0,1,7.46-4.45,29.77,29.77,0,0,1,9.5-2.21c1.11-.08,2.06-.3,2.37-1.6,0-.07.12-.08.33,0,.06,1.68,1.26,1.69,2.54,1.76a34,34,0,0,1,4,.54,6.6,6.6,0,0,1,4.74,3c1.65,2.57,1.67,2.56,4.47,1.41l.05,0,0,0c1-.44,1.12-.8.53-1.78a107.46,107.46,0,0,1-8.54-17.8,2.9,2.9,0,0,0-2.15-2,47,47,0,0,0-17.07-1.24c-.72.08-1.41.32-2.27.38a1.45,1.45,0,0,1,1-.47,28.78,28.78,0,0,1,6.13-.67,52.81,52.81,0,0,1,11.8,1.48c1.39.33,1.67,0,1.23-1.42-.77-2.4-1.32-4.85-2-7.29-1.66-6.43-3.53-12.77-6.69-18.61a65.28,65.28,0,0,0-10.22-14.26,83.9,83.9,0,0,0-15.22-12.29,24.88,24.88,0,0,0-8.76-3.8,12.72,12.72,0,0,0-12.51,4,29.38,29.38,0,0,0-5,7.3,3.86,3.86,0,0,1-.29.51l-.67-.31a21.19,21.19,0,0,1,1.84-3.73c2-3.24,4.31-6.25,7.9-7.85,4.71-2.11,9.31-1.37,13.84.61a53.48,53.48,0,0,1,9.85,6.24c11.74,8.63,20.29,19.76,24.8,34,1.55,4.9,2.66,9.93,4.09,14.88.45,1.53.87,3,2.73,3.15a.69.69,0,0,1,.3.14c.23.14.47.32.37.64s-.41.35-.74.3-.78-.48-1.35-.21c.77,1.83,1.5,3.66,2.29,5.45,3.22,7.39,7,14.39,12.5,20.3,4.36,4.69,9.23,8.5,15.24,10.59a5.24,5.24,0,0,0,2.83.2c4.44-.89,8.51-.15,11.89,3.18a3.68,3.68,0,0,0,2.19,1.06,52.33,52.33,0,0,0,8.39.54c.61,0,1.69-.41,1.7.47s-1.12.65-1.78.66a50.31,50.31,0,0,1-8.49-.61.62.62,0,0,0,0,.16c.17.3.34.6.5.9a15.93,15.93,0,0,1,2,9.39c-1.08,9.19-8.87,14.22-14.72,15.2-1.31.21-1.32.87-1.4,1.78a1.49,1.49,0,0,0,.62,1.2,2.76,2.76,0,0,1,.85,1.83,7.57,7.57,0,0,1-.35,3.44c-.57,1.88-1.75,3-3,2.83s-2.17-1.41-2.4-3.38c-.25-2.13,1.06-5.16,2.63-5.63,1-.29.64-.88.69-1.41,0-.72-.56-.51-.89-.54a10.37,10.37,0,0,1-7.21-3.82c-.71-.83-.68-2-1.51-2.79-3.17,3.66-6.81,6.79-10.16,10.24a54.05,54.05,0,0,0-7.9,10.25c-4.31,7.3-5.52,15.34-4.95,23.71.27,4.08.45,4.07,4.4,5.09a116.41,116.41,0,0,0,15.3,2.49c5.45.64,10.21,2.73,13.77,7.22a44.75,44.75,0,0,1,10,28.36,142.46,142.46,0,0,1-2.13,22.78c-1.95,12.4-4.78,24.61-7.55,36.83-.94,4.12-2.36,8.08-3.7,12.28.54-.12.86-.17,1.18-.25q10.85-2.83,21.4-6.64c11.91-4.31,23.51-9.28,33.48-17.58,3.4-2.85,7.09-5.35,10.05-8.74.63-.73.55-1-.2-1.46a34.3,34.3,0,0,1-10.68-10.83C350.78,487.94,348,480,346,471.7c-2.51-10.21-3.67-20.65-4.68-31.1a330.06,330.06,0,0,1-1.39-33.13c0-7.41,0-14.82.06-22.23.06-4.11-.33-8.19-.2-12.29,0-.93.08-1.86.07-2.79,0-8.67-1.16-17.25-2.06-25.84q-1.08-10.17-2.83-20.24a119.84,119.84,0,0,0-8-28.16,209.5,209.5,0,0,0-12.32-23.11c-8.13-13.57-18.74-24.18-33.53-29.81-7.51-2.86-15.12-4.95-23.18-5.05-5.18-.06-10.34.23-15.5.56a81.77,81.77,0,0,0-21.17,4c-8.25,2.8-15.81,6.89-22,13.28a117.16,117.16,0,0,0-17.32,23.11c-12.49,21.65-18.89,45.46-23,70-1.17,6.87-1.88,13.81-2.56,20.75-.65,6.53-1.15,13.05-1.51,19.6-.39,6.89-.71,13.79-1.41,20.65-1,10.18-2.67,20.27-4.43,30.34a99.83,99.83,0,0,1-20.28,45.18c-4.26,5.41-8.8,10.6-15.34,13.44.49.32.94.66,1.42.92,7.35,4.1,14.77,8.05,22.3,11.79,12.92,6.4,26,12.34,39.92,16.1,2.82.77,5.62,1.6,8.45,2.39.39.12.77.25.81-.47.24-3.22.54-6.41.8-9.63,0-.14,0-.39,0-.43-1.13-.67-1-1.93-1.21-3-1.35-7-2.18-14.07-3-21.16-1.19-10.53-2-21.07-1.31-31.68a48.58,48.58,0,0,1,3.38-15.58A20.24,20.24,0,0,1,197.76,436,71.19,71.19,0,0,1,216,432.73c5.46-.31,10.9-.93,16.35-1.37.71-.06.87-.39.9-1,0-1,.1-2,.17-3,.31-5.15.43-10.31.33-15.48,0-.55-.21-.7-.73-.73q-2.87-.19-5.71-.48c-3.79-.39-7.38-1.35-10.38-3.94a8.51,8.51,0,0,1-2.89-8.11,10.8,10.8,0,0,1,.47-1.5l.67.19c-.74,2.5-.68,5.6,1.45,7.81a14.48,14.48,0,0,0,8.69,4.21,53.49,53.49,0,0,0,8.18.74c.61,0,1.37.06,1.22.94-.29,1.49.09,2.93.09,4.41,0,5.23-.36,10.46-.6,15.68,0,.86-.4,1.18-1.19,1.14a27.46,27.46,0,0,0-4.25.33c-3.44.34-6.85.84-10.3,1a81.23,81.23,0,0,0-15.13,2,35.51,35.51,0,0,0-7.84,2.46c-5.41,2.68-8.63,7.24-10.58,13a55.45,55.45,0,0,0-2.5,15.44,150.51,150.51,0,0,0,.47,18c.59,7.46,1.44,14.9,2.45,22.31a67.19,67.19,0,0,0,1.4,8.24,3.45,3.45,0,0,1,.24.47,1.29,1.29,0,0,0,.34.89.63.63,0,0,0,.11-.66h0l.13,0a2.09,2.09,0,0,0,.43-1.41c.41-4.55.88-9.1,1.47-13.64,1.08-8.31,2.73-16.52,4.57-24.68,1.47-6.46,3-12.91,5-19.22a6,6,0,0,1,1.35-2.61c-.25,1-.66,2-.94,3-1.87,6.59-3.44,13.25-4.94,19.95a288.75,288.75,0,0,0-6,40.33c-.47,6.06-1,12.12-1.43,18.19-.44,6.34-.91,12.68-1.25,19-.31,5.89-.4,11.78-.45,17.67-.06,6.16-.14,12.33.13,18.5.2,4.38.26,8.76.47,13.13.31,6.46.72,12.92,1.12,19.38.37,6,.9,12,1.44,18,.72,7.8,1.47,15.59,2.44,23.37a2.76,2.76,0,0,0,.54,1.61h-1.57c-.48-4.43-1-8.86-1.45-13.28-.53-5.29-1-10.58-1.52-15.86-.63-6.48-1.06-13-1.48-19.48-.29-4.37-.5-8.75-.74-13.13-.68-12.18-.54-24.37-.46-36.55q.09-12.23,1.07-24.42c.29-3.55.47-7.11.73-10.67.05-.65-.1-.9-.77-1.09-8.12-2.43-16.37-4.45-24.28-7.62a345.19,345.19,0,0,1-41.48-20.09C117.71,502.9,115.91,501.86,114.1,500.86Z"/></g></svg>