<svg id="여가_단발" data-name="여가 단발" xmlns="http://www.w3.org/2000/svg" viewBox="120 150 250 350"><defs><style>.cls-1{fill:none;}.cls-2{fill:#fff;}</style></defs><path d="M282.47,585.81c1.23-3.68,2.45-7.37,3.69-11,4.43-13.25,8.9-26.5,13.31-39.77,2.57-7.73,4-15.76,5.65-23.74,1.47-7.26,2.93-14.53,4.12-21.85a121.7,121.7,0,0,0,1.89-21.23,43.32,43.32,0,0,0-9.93-27.32c-3.07-3.8-7.19-5.54-11.81-6.26-5.16-.81-10.31-1.66-15.45-2.59a27,27,0,0,1-3.73-1.22,1.36,1.36,0,0,1-.08.38c-.18.37-.39.72-.58,1.08-.27-.33-.72-.63-.78-1-1.6-10.56-1-20.78,4.49-30.17a59,59,0,0,1,10.59-12.92c1.64-1.57,3.35-3.07,4.85-4.78,2-2.24,3.76-4.65,5.66-7a3.29,3.29,0,0,1,.94-.53,2.91,2.91,0,0,1,.05,1.05,3.71,3.71,0,0,1-.74,1.42c-1.5,1.59-1,3.15,0,4.67,1.7,2.63,4.15,3.68,7.24,3.75,0-1.07.05-2,0-3,0-.29-.4-.58-.67-.79a2.08,2.08,0,0,1-.16-3.29c.53-.46,1.21-1.07,1.81,0,.05.11.24.13.37.19,1.16.59,1.6,1.89.65,2.68s-.84,1.83-.86,2.87c0,.38,0,.76,0,1.28a9.13,9.13,0,0,0,1.47-.13c4.93-1.26,11.56-5.48,12.78-13.46,1.1-7.21-4.27-16.46-13.87-14.92a14.65,14.65,0,0,0-8.39,4.62,12.23,12.23,0,0,0-1.37,2.44,3.8,3.8,0,0,1-.6.68c-.15-.28-.5-.61-.44-.82a6.12,6.12,0,0,1,1-2.4,41.75,41.75,0,0,1,3.73-3.43,16,16,0,0,1,1.61-1.07c-8.74-3.13-14.78-9.55-20.32-17a4.39,4.39,0,0,1-.63.93c-2.08,1.64-3.44,3.47-3.34,6.52a12,12,0,0,1-2.8,7.44,1.66,1.66,0,0,0-.14,1.23c.27,1,.68,1.88,1,2.83a2.87,2.87,0,0,1-.08.95,4.46,4.46,0,0,1-1-.16c-.22-.1-.36-.38-.56-.56-1.45-1.34-2-1.37-3.58-.37a26.78,26.78,0,0,1-15.16,3.69,36.25,36.25,0,0,1-7.25-.92,12,12,0,0,1-8.63-7.64,6.39,6.39,0,0,1-.15-3.63,18.06,18.06,0,0,1,8.23-11.73,31.43,31.43,0,0,1,14.75-4.61c.56,0,1.08,0,1.17-.87,0-.38.5-.7.77-1.05.19.4.4.8.56,1.21a2,2,0,0,1,0,.62c1.85.27,3.66.62,5.49.77a7,7,0,0,1,6.09,4.47c.38.83.77,1,1.54.62s1.8-.65,2.73-1c-1.36-2.52-2.78-4.87-3.93-7.37-1.82-3.93-3.44-8-5.2-11.92a2.05,2.05,0,0,0-1.13-1.06C261,318,254.51,317.25,248,318.61a4.71,4.71,0,0,1-.92,0l-.14-.39a4,4,0,0,1,1.22-.58,62.4,62.4,0,0,1,8.71-.66c3.57.15,7.11.84,10.76,1.31-.06.15,0,0,0-.05-1.81-6.38-3.36-12.85-5.5-19.11a60,60,0,0,0-17.57-25.8,72.94,72.94,0,0,0-14-10,16.59,16.59,0,0,0-9.77-2.05,11.66,11.66,0,0,0-7.41,3.83,28.81,28.81,0,0,0-5.11,7.69c-.59,1.29-1.28,1.52-2.33.68a4.5,4.5,0,0,0-5.6-.2,22.74,22.74,0,0,0-2.23,1.71c-5.77,4.62-9.28,11-12.26,17.68a55,55,0,0,0-2.45,39.12c.61,2.06,1.07,4.18,1.7,6.24a3.4,3.4,0,0,0,1.08,1.45,22.07,22.07,0,0,0,2.07,1.39c1.19-1.37,2.27-2.67,3.43-3.88a18.08,18.08,0,0,1,1.65-1.17,2.55,2.55,0,0,0,.73-1c.3-.73.63-.87,1.24-.32a1.45,1.45,0,0,0,1,.41c4.31-.55,8.31.74,12.16,2.47,3.21,1.44,4.83,4.35,5.36,7.89.27,1.86.38,3.76.53,5.65a8.31,8.31,0,0,1-5.46,8.16,18.9,18.9,0,0,1-10.19.64,9.65,9.65,0,0,1-5.39-3.26,1.31,1.31,0,0,0-2.05-.31,19.89,19.89,0,0,1-1.95,1l-.27-.37a22.08,22.08,0,0,1,1.46-2.39,1.22,1.22,0,0,0,.08-1.62,23.08,23.08,0,0,1-2.63-7.22c-.17-.89-1.11-1.62-1.7-2.42l-.28.15c.16,1.62.42,3.24.45,4.86a89.34,89.34,0,0,1,0,11.22,61.8,61.8,0,0,1-4,15.53c-.54,1.4-.93,2.86-1.39,4.29a5.32,5.32,0,0,0,1.51,5.8,22.87,22.87,0,0,0,5.16,3.74c4.75,2.36,9.92,3.31,15.06,4.26a210.92,210.92,0,0,0,26.18,2.67c8.41.49,16.6-.8,24.78-2.57a8.26,8.26,0,0,1,1.65,0l.14.47a5.77,5.77,0,0,1-1.5.84c-3.3.67-6.62,1.26-9.93,1.91-6.36,1.25-12.76.92-19.16.53-2.66-.17-5.32-.35-8-.46a1.19,1.19,0,0,0-1,.61c-1.14,3.74-.62,7.08,2.94,9.51,3.1,2.11,6.6,2.64,10.16,3,1.69.16,3.4.22,5.1.32,1,.06,1.29.42,1,1.47a6,6,0,0,0-.13,1.34q-.21,8.74-.4,17.51a12,12,0,0,1-.15,2,.94.94,0,0,1-.7.58c-1.45.09-2.91,0-4.36.15-5.79.5-11.61.84-17.36,1.65a92.76,92.76,0,0,0-13.67,3c-5.57,1.68-9.38,5.68-11.63,11.3a46.38,46.38,0,0,0-3.1,14.54,163.43,163.43,0,0,0,1.08,29.42c.87,7.4,1.92,14.78,2.89,22.17a2.25,2.25,0,0,0,.42,1.1c.28-2.74.58-5.49.84-8.23A193.56,193.56,0,0,1,192.75,483c2-8.84,4.27-17.62,6.45-26.41a14.33,14.33,0,0,1,1.18-2.87c.16-.32.63-.47,1-.69l.12.25c-.7,2.39-1.47,4.75-2.1,7.16a313.7,313.7,0,0,0-8.5,42.78c-.9,7.56-1.47,15.16-2.09,22.75-.64,7.9-1.29,15.8-1.69,23.72s-.6,15.85-.68,23.78c-.07,7.51,0,15,.23,22.53s.73,15.3,1.23,22.94c.46,7.21,1,14.43,1.65,21.63.75,8.15,1.69,16.29,2.54,24.44a2.13,2.13,0,0,1,0,.39h-1.43c-.24-2-.52-3.94-.72-5.93-.81-8.11-1.66-16.22-2.38-24.34-.5-5.55-.87-11.11-1.2-16.66-.46-7.84-.85-15.69-1.23-23.53-.12-2.51-.13-5-.12-7.55.07-9.86,0-19.74.3-29.6.28-8.54,1-17.07,1.58-25.59.13-1.92.58-3.82.73-5.74.13-1.64,0-3.3.06-5a5.14,5.14,0,0,0-.52-3.08,12.2,12.2,0,0,1-1-4.14c-1.77-10.79-3.07-21.65-3.76-32.57a115.36,115.36,0,0,1,.38-22.83A40.08,40.08,0,0,1,186.6,446a2.1,2.1,0,0,0,0-2.14c-1.49-3.4-2.9-6.86-4.14-10.38-3.88-11-7.63-22.06-9.76-33.6-1.8-9.71-3.42-19.47-4.7-29.26-.84-6.39-1-12.89-1.32-19.34a173.7,173.7,0,0,1,.48-24.57,151.48,151.48,0,0,1,6.6-31.21c3-9.51,8.12-17.64,13.37-25.79,3.27-5.09,6.76-10,11.21-14,3.69-3.32,7.49-6.7,11.74-9.11a64.49,64.49,0,0,1,19.27-7.09,109.49,109.49,0,0,1,19.42-2.11c4.84-.1,9.69-.08,14.53.2,6.05.34,11.72,2.43,17.39,4.52,13.92,5.14,24.33,14.81,32.38,27.43a209.11,209.11,0,0,1,13,23.64c4.81,10.23,7.54,21.13,9.36,32.31.46,2.86,1,5.71,1.34,8.59a30.94,30.94,0,0,1,.17,6.59c-.55,5.15-1.15,10.3-2.1,15.38a268.8,268.8,0,0,0-4.31,28.52c-.16,2-.49,4-.61,6-.55,9.6,1.36,18.76,4.44,27.73a67.21,67.21,0,0,0,7.93,15.91,14.43,14.43,0,0,1,1.42,2.73c.47,1.15.19,1.58-1,1.68-1,.08-2,.13-3,.17-7.91.36-15.83.75-23.75,1.06-4,.15-8.07.14-12.1.21h-1.42c.35.49.57.83.8,1.14,7.25,9.62,10,20.55,9.15,32.71-1,14.1-3.73,27.85-6.63,41.6a202.93,202.93,0,0,1-6.13,23.85c-3.64,10.61-7.18,21.26-10.78,31.88-1.81,5.36-3.68,10.71-5.42,16.09a7.41,7.41,0,0,0-.31,3.49c4,22.34,10.25,44,17.48,65.43,1,3,2.07,6,3.15,9.17-.82.06-1.53.37-1.93-.81-7.1-20.54-13.78-41.2-18.06-62.62-2-10-4-20-5.54-30.05a210.26,210.26,0,0,1-2.37-22.12c-.48-9.3-.63-18.64-.41-28a182.86,182.86,0,0,1,10.91-57.55c.79-2.21,1.58-4.43,2.38-6.63a5.4,5.4,0,0,1,.53-1.14c.1-.15.36-.18.55-.26.08.19.25.42.22.58-.16.68-.36,1.34-.57,2-3,9.2-6,18.38-8.14,27.85a187.05,187.05,0,0,0-3.73,24.49,256.78,256.78,0,0,0-.57,33.63,269.31,269.31,0,0,0,5,40.34c0,.22.09.43.14.65Zm59.19-148.54.11-.4-1-1.35A76.23,76.23,0,0,1,328,390.41c.38-5,.95-9.93,1.63-14.87a218.25,218.25,0,0,1,4.78-25.61,35.92,35.92,0,0,0,1.15-13.34c-.47-4.11-1.09-8.2-1.77-12.27-1.74-10.36-4.17-20.55-8.77-30-3.51-7.16-7.26-14.21-11.27-21.07-7.94-13.61-18.47-24.17-33.09-29.79-7.43-2.86-14.94-5.08-22.91-5-5.1,0-10.21.27-15.31.53a76,76,0,0,0-20.93,3.92c-9,3.07-17,7.75-23.5,15.06a129.17,129.17,0,0,0-12.73,16.82c-4.75,7.53-8.8,15.42-11.11,24.17-1.08,4.13-1.93,8.34-3.08,12.46a81.44,81.44,0,0,0-3,23.83c.22,10.25.68,20.52,1.5,30.73.66,8.16,1.79,16.3,3.12,24.37,2.78,16.84,7.95,33,13.86,48.86.48,1.28,1.05,2.51,1.61,3.86.26-.24.38-.32.47-.43a20.13,20.13,0,0,1,10-6.84,77.66,77.66,0,0,1,18-3.17c5.28-.37,10.55-.9,15.83-1.34.62-.05.83-.34.86-.93,0-.93.13-1.85.15-2.78q.15-8.12.26-16.22s0-.06-.12-.14c-2-.19-4-.37-6.11-.58-3.74-.39-7.3-1.33-10.27-3.91a7.87,7.87,0,0,1-3-6.57c.06-1.33.34-2.65.53-4l-2.58-.34a114.92,114.92,0,0,1-19.41-3.75c-3.56-1.09-7.08-2.29-9.94-4.94a10.37,10.37,0,0,1-3.2-5.18,9.82,9.82,0,0,1,.52-5.22c.48-1.69,1.33-3.27,1.85-5,2.1-6.72,3.7-13.52,3.12-20.71-.48-6.1-1.1-12.17-3.06-18a57.06,57.06,0,0,1-2.05-26.68c1.22-8.61,4.62-16.35,9.18-23.58a35.12,35.12,0,0,1,9.53-10.54c1.87-1.29,3.8-1.92,6-1a23.81,23.81,0,0,1,2.33,1.28c.63-1.23,1.18-2.46,1.87-3.59,1.89-3.1,4-6,7.28-7.62,4.78-2.42,9.61-1.88,14.16.4a70.16,70.16,0,0,1,9.84,6.26c11.65,8.55,20.1,19.69,24.45,34,1.5,4.93,2.78,10,4.11,14.94.38,1.46.89,2.69,2.54,2.88a.62.62,0,0,1,.39.2,4.4,4.4,0,0,1,.33.65c-.22.08-.45.27-.66.24a10.5,10.5,0,0,1-1.47-.42c.87,2.1,1.59,3.92,2.36,5.71,3.36,7.81,7.43,15.14,13.31,21.24A36.62,36.62,0,0,0,299.74,357a4.92,4.92,0,0,0,2.69.18c4.34-.89,8.35-.2,11.68,3.07a3.87,3.87,0,0,0,2.57,1.18c2.8.17,5.61.32,8.41.48a3.63,3.63,0,0,1,.88.05.69.69,0,0,1,.42.45.64.64,0,0,1-.39.46,4.87,4.87,0,0,1-1.42.2c-2.76-.13-5.52-.29-8.35-.44l.51.94a15.44,15.44,0,0,1,2,7.41,16.14,16.14,0,0,1-7.19,13.76c-2.59,1.83-5.34,3.34-8.82,3.51a6.93,6.93,0,0,0,.46,2.47c1.52,2.35,1.49,4.47-.29,6.49a4.38,4.38,0,0,0-.53.88c-.5,1-1.37,1.39-2.23.7a4.46,4.46,0,0,1-1.34-1.9c-.94-2.65.44-6.2,2.93-7.14v-1.52c-4.4-.29-7.68-2.21-9.27-6.63-3.49,3.49-7,6.85-10.32,10.34-6.2,6.48-11,13.83-12.15,23.19a47.54,47.54,0,0,0-.44,12,3.28,3.28,0,0,0,3.06,3.22c4.87.95,9.74,1.93,14.65,2.58s9.69,1.84,13.56,5.43a1.65,1.65,0,0,0,1.11.36c4.74-.1,9.48-.16,14.21-.37,6-.28,12-.72,18-1C336.63,437.17,339.15,437.27,341.66,437.27Zm-83.79-89.21a26.76,26.76,0,0,1,0,2.69,22,22,0,0,1-.62,3.63c-.14.48-.77,1.12-1.17,1.11s-.91-.67-1.13-1.17a6.75,6.75,0,0,1-.44-2c-.14-1.13-.21-2.26-.33-3.62L238.3,352.8c0,2.87.1,3.53,1.44,4.87a10.44,10.44,0,0,0,3.46,2.39,29.88,29.88,0,0,0,15.4,1.7c5.45-.8,9.88-3.34,12.5-8.67,1.27-2.57,1.31-5.29,1.23-8.42Zm-49.61,1.77a24.9,24.9,0,0,1-.25,3.57c-.11.57-.71,1-1.09,1.53-.42-.47-1-.86-1.22-1.41a15.19,15.19,0,0,1-.56-3.3,1.54,1.54,0,0,0-1.33-1.6c-4-1.12-8-2.34-12.05-3.52l-1-.34c.09.86.15,1.59.26,2.31.83,5.67,4.05,9.49,9.14,10.7a11.16,11.16,0,0,0,9.83-1.89,7,7,0,0,0,2.92-5Zm51.05-12c-7.66-.87-19.34,5.95-20.64,12.05l2.1-.16c4.46-.37,8.67-1.92,13-3a3.51,3.51,0,0,0,1.44-.81C257.46,343.7,258.36,340.76,259.31,337.8ZM196,337a3.73,3.73,0,0,0,.22.84c1.18,1.95,2.29,4,3.61,5.82a6,6,0,0,0,2.56,2.15c2.77,1,5.64,1.77,8.48,2.58a13.31,13.31,0,0,0,2.08.25c-.15-.95-.26-1.79-.42-2.62-.79-4-2.78-6.94-6.68-8a57.67,57.67,0,0,0-7.18-1.27A12,12,0,0,0,196,337Zm63.51,8.29,12.33-2.88c-.35-3-6.91-4.83-10.69-4.58Zm44,48.73-.21-.1a3.25,3.25,0,0,0-.15-1.24,3.66,3.66,0,0,0-1.25-1.36c-.28-.14-.94.17-1.23.48a5.44,5.44,0,0,0-.63,5.26c.57,1.18,1.54,1.35,2.2.22A20.61,20.61,0,0,0,303.47,394Zm-107.3-49.77-1.79-6.45a7.31,7.31,0,0,0-3.31,4.86ZM302.31,380c-.88.58-1.39,1.2-.8,2,.24.33,1.18.55,1.41.35C304.21,381.17,302.43,380.89,302.31,380Z"/><path d="M241.19,621.52c-.17,14.6-.34,29.2-.51,43.89l-1,.05c-.07-1.5-.21-3-.2-4.41.09-10.45.18-20.9.34-31.35.06-4.06.31-8.11.45-12.17a6.22,6.22,0,0,0-.21-1.6q-3.27-13.78-6.55-27.58a13.45,13.45,0,0,1-.16-2.06l-11.58-4a5.89,5.89,0,0,1-1.26-.45,7.62,7.62,0,0,1-1-.94,4.32,4.32,0,0,1,1.42-.07c2.66.83,5.32,1.68,7.94,2.61a94.44,94.44,0,0,0,20.3,4.4c1.06.13,2.13.24,3.18.46.33.06.59.45.88.69-.34.17-.69.52-1,.49-2.17-.22-4.35-.44-6.5-.79-3.75-.63-7.49-1.35-11.22-2,5.68,26.71,13.82,52.71,22.54,78.54-1,.51-1.31.43-1.68-.71-2.93-8.93-5.88-17.85-8.75-26.8-1.64-5.14-3.15-10.32-4.73-15.48-.08-.25-.17-.5-.26-.75Z"/><path d="M208.22,369.51l4.34,6.17a2,2,0,0,1,.46.78,4.33,4.33,0,0,1-.1,1.12c-.31-.14-.72-.2-.9-.44-1.9-2.52-3.75-5.08-5.62-7.62a.89.89,0,0,1,.16-1.38,32.07,32.07,0,0,0,10.93-18.7,12.07,12.07,0,0,0,.34-2.29c0-1.08.71-1.62,1.33-2.25.12-.12.5-.17.57-.08a1.16,1.16,0,0,1,.3.78c-.15.83-.37,1.65-.6,2.47-.66,2.41-1.27,4.84-2,7.23C215.62,360.92,212.12,365.34,208.22,369.51Z"/><path d="M308.51,367.08c-.31.27-.62.56-1,.81a1.28,1.28,0,0,1-.51.21c-4,.91-6.07,3.79-7.45,7.52-.19.52-1,1.35-1.06,1.29-.84-.5-.24-1.2,0-1.79.28-.8.66-1.55,1.08-2.54-.29.19-.41.29-.54.36-.34.16-.68.3-1,.45.08-.45,0-1.07.26-1.31a20.87,20.87,0,0,1,3.51-3,43.1,43.1,0,0,1,5.25-2.43,3.74,3.74,0,0,1,1.38,0Z"/><path d="M206.85,318.6a4.79,4.79,0,0,1,1.12,0,4.46,4.46,0,0,1,.89.47c-.28.19-.54.49-.84.54-1.56.25-3.16.35-4.72.67a27.4,27.4,0,0,0-11.19,4.84c-.24.18-.64.13-1,.18.11-.33.13-.8.36-1a29.58,29.58,0,0,1,3.56-2.35A30.29,30.29,0,0,1,206.85,318.6Z"/><path class="cls-1" d="M245.66,588.7c2.15.35,4.33.57,6.5.79.32,0,.67-.32,1-.49-.29-.24-.55-.63-.88-.69-1-.22-2.12-.33-3.18-.46a94.44,94.44,0,0,1-20.3-4.4c-2.62-.93-5.28-1.78-7.94-2.61a4.32,4.32,0,0,0-1.42.07,7.62,7.62,0,0,0,1,.94,5.89,5.89,0,0,0,1.26.45l11.58,4a13.45,13.45,0,0,0,.16,2.06q3.25,13.8,6.55,27.58a6.22,6.22,0,0,1,.21,1.6c-.14,4.06-.39,8.11-.45,12.17-.16,10.45-.25,20.9-.34,31.35,0,.31,0,.63,0,.94h1.25q.24-20.29.47-40.47l.37,0c.09.25.18.5.26.75,1.58,5.16,3.09,10.34,4.73,15.48,2.6,8.11,5.27,16.2,7.93,24.29h1.42c-8.31-24.77-16-49.71-21.46-75.32C238.17,587.35,241.91,588.07,245.66,588.7Z"/><path class="cls-1" d="M206.85,318.6A30.29,30.29,0,0,0,195.07,322a29.58,29.58,0,0,0-3.56,2.35c-.23.16-.25.63-.36,1,.32-.05.72,0,1-.18a27.4,27.4,0,0,1,11.19-4.84c1.56-.32,3.16-.42,4.72-.67.3-.05.56-.35.84-.54a4.46,4.46,0,0,0-.89-.47A4.79,4.79,0,0,0,206.85,318.6Z"/><path class="cls-1" d="M219.16,344.9c-.62.63-1.33,1.17-1.33,2.25a12.07,12.07,0,0,1-.34,2.29,32.07,32.07,0,0,1-10.93,18.7.89.89,0,0,0-.16,1.38c1.87,2.54,3.72,5.1,5.62,7.62.18.24.59.3.9.44a4.33,4.33,0,0,0,.1-1.12,2,2,0,0,0-.46-.78l-4.34-6.17c3.9-4.17,7.4-8.59,9.18-14.21.76-2.39,1.37-4.82,2-7.23.23-.82.45-1.64.6-2.47a1.16,1.16,0,0,0-.3-.78C219.66,344.73,219.28,344.78,219.16,344.9Z"/><path class="cls-1" d="M283.16,590.78a7.41,7.41,0,0,1,.31-3.49c1.74-5.38,3.61-10.73,5.42-16.09,3.6-10.62,7.14-21.27,10.78-31.88a202.93,202.93,0,0,0,6.13-23.85c2.9-13.75,5.67-27.5,6.63-41.6.84-12.16-1.9-23.09-9.15-32.71-.23-.31-.45-.65-.8-1.14h1.42c4-.07,8.07-.06,12.1-.21,7.92-.31,15.84-.7,23.75-1.06,1,0,2-.09,3-.17,1.16-.1,1.44-.53,1-1.68a14.43,14.43,0,0,0-1.42-2.73,67.21,67.21,0,0,1-7.93-15.91c-3.08-9-5-18.13-4.44-27.73.12-2,.45-4,.61-6A268.8,268.8,0,0,1,334.85,356c.95-5.08,1.55-10.23,2.1-15.38a30.94,30.94,0,0,0-.17-6.59c-.32-2.88-.88-5.73-1.34-8.59-1.82-11.18-4.55-22.08-9.36-32.31a209.11,209.11,0,0,0-13-23.64c-8.05-12.62-18.46-22.29-32.38-27.43-5.67-2.09-11.34-4.18-17.39-4.52-4.84-.28-9.69-.3-14.53-.2a109.49,109.49,0,0,0-19.42,2.11,64.49,64.49,0,0,0-19.27,7.09c-4.25,2.41-8.05,5.79-11.74,9.11-4.45,4-7.94,9-11.21,14-5.25,8.15-10.41,16.28-13.37,25.79a151.48,151.48,0,0,0-6.6,31.21,173.7,173.7,0,0,0-.48,24.57c.33,6.46.48,13,1.32,19.34,1.28,9.79,2.9,19.55,4.7,29.26,2.13,11.54,5.88,22.6,9.76,33.6,1.24,3.52,2.65,7,4.14,10.38a2.1,2.1,0,0,1,0,2.14,40.08,40.08,0,0,0-3.87,12.89,115.36,115.36,0,0,0-.38,22.83c.69,10.92,2,21.78,3.76,32.57a12.2,12.2,0,0,0,1,4.14,5.14,5.14,0,0,1,.52,3.08c0,1.65.07,3.31-.06,5-.15,1.92-.6,3.82-.73,5.74-.58,8.52-1.3,17-1.58,25.59-.32,9.86-.23,19.74-.3,29.6,0,2.52,0,5,.12,7.55.38,7.84.77,15.69,1.23,23.53.33,5.55.7,11.11,1.19,16.66.73,8.12,1.58,16.23,2.39,24.34.08.85.19,1.69.29,2.53h1.58c-.77-7.14-1.56-14.28-2.22-21.43s-1.19-14.42-1.65-21.63c-.5-7.64-1-15.29-1.23-22.94s-.3-15-.23-22.53c.08-7.93.28-15.86.68-23.78s1.05-15.82,1.69-23.72c.62-7.59,1.19-15.19,2.09-22.75a313.7,313.7,0,0,1,8.5-42.78c.63-2.41,1.4-4.77,2.1-7.16l-.12-.25c-.32.22-.79.37-1,.69a14.33,14.33,0,0,0-1.18,2.87c-2.18,8.79-4.42,17.57-6.45,26.41a193.56,193.56,0,0,0-3.85,24.71c-.26,2.74-.56,5.49-.84,8.23a2.25,2.25,0,0,1-.42-1.1c-1-7.39-2-14.77-2.89-22.17a162.51,162.51,0,0,1-1.08-29.42,46.38,46.38,0,0,1,3.1-14.54c2.25-5.62,6.06-9.62,11.63-11.3a92.76,92.76,0,0,1,13.67-3c5.75-.81,11.57-1.15,17.36-1.65,1.45-.12,2.91-.06,4.36-.15a.94.94,0,0,0,.7-.58,12,12,0,0,0,.15-2q.2-8.76.4-17.51a6,6,0,0,1,.13-1.34c.27-1.05,0-1.41-1-1.47-1.7-.1-3.41-.16-5.1-.32-3.56-.32-7.06-.85-10.16-3-3.56-2.43-4.08-5.77-2.94-9.51a1.19,1.19,0,0,1,1-.61c2.66.11,5.32.29,8,.46,6.4.39,12.8.72,19.16-.53,3.31-.66,6.63-1.24,9.93-1.91a5.77,5.77,0,0,0,1.5-.84l-.14-.47a8.26,8.26,0,0,0-1.65,0c-8.18,1.77-16.37,3.06-24.78,2.57A210.92,210.92,0,0,1,202.74,393c-5.14-1-10.31-1.9-15.06-4.26a22.87,22.87,0,0,1-5.16-3.74,5.32,5.32,0,0,1-1.51-5.8c.46-1.43.85-2.89,1.39-4.29a61.8,61.8,0,0,0,4-15.53,89.34,89.34,0,0,0,0-11.22c0-1.62-.29-3.24-.45-4.86l.28-.15c.59.8,1.53,1.53,1.7,2.42a23.08,23.08,0,0,0,2.63,7.22,1.22,1.22,0,0,1-.08,1.62,22.08,22.08,0,0,0-1.46,2.39l.27.37a19.89,19.89,0,0,0,1.95-1,1.31,1.31,0,0,1,2.05.31,9.65,9.65,0,0,0,5.39,3.26,18.9,18.9,0,0,0,10.19-.64,8.31,8.31,0,0,0,5.46-8.16c-.15-1.89-.26-3.79-.53-5.65-.53-3.54-2.15-6.45-5.36-7.89-3.85-1.73-7.85-3-12.16-2.47a1.45,1.45,0,0,1-1-.41c-.61-.55-.94-.41-1.24.32a2.55,2.55,0,0,1-.73,1,18.08,18.08,0,0,0-1.65,1.17c-1.16,1.21-2.24,2.51-3.43,3.88a22.07,22.07,0,0,1-2.07-1.39,3.4,3.4,0,0,1-1.08-1.45c-.63-2.06-1.09-4.18-1.7-6.24a55,55,0,0,1,2.45-39.12c3-6.69,6.49-13.06,12.26-17.68a22.74,22.74,0,0,1,2.23-1.71,4.5,4.5,0,0,1,5.6.2c1.05.84,1.74.61,2.33-.68a28.81,28.81,0,0,1,5.11-7.69,11.66,11.66,0,0,1,7.41-3.83,16.59,16.59,0,0,1,9.77,2.05,72.94,72.94,0,0,1,14,10,60,60,0,0,1,17.57,25.8c2.14,6.26,3.69,12.73,5.5,19.11,0,.08-.07.2,0,.05-3.65-.47-7.19-1.16-10.76-1.31a62.4,62.4,0,0,0-8.71.66,4,4,0,0,0-1.22.58c0,.13.09.26.14.39a4.71,4.71,0,0,0,.92,0c6.53-1.36,13-.66,19.35,1.05a2.05,2.05,0,0,1,1.13,1.06c1.76,4,3.38,8,5.2,11.92,1.15,2.5,2.57,4.85,3.93,7.37-.93.33-1.86.59-2.73,1s-1.16.21-1.54-.62a7,7,0,0,0-6.09-4.47c-1.83-.15-3.64-.5-5.49-.77a2,2,0,0,0,0-.62c-.16-.41-.37-.81-.56-1.21-.27.35-.73.67-.77,1.05-.09.86-.61.83-1.17.87a31.43,31.43,0,0,0-14.75,4.61,18.06,18.06,0,0,0-8.23,11.73,6.39,6.39,0,0,0,.15,3.63,12,12,0,0,0,8.63,7.64,36.25,36.25,0,0,0,7.25.92,26.78,26.78,0,0,0,15.16-3.69c1.62-1,2.13-1,3.58.37.2.18.34.46.56.56a4.46,4.46,0,0,0,1,.16,2.87,2.87,0,0,0,.08-.95c-.3-.95-.71-1.87-1-2.83a1.66,1.66,0,0,1,.14-1.23,12,12,0,0,0,2.8-7.44c-.1-3.05,1.26-4.88,3.34-6.52a4.39,4.39,0,0,0,.63-.93c5.54,7.46,11.58,13.88,20.32,17a16,16,0,0,0-1.61,1.07,41.75,41.75,0,0,0-3.73,3.43,6.12,6.12,0,0,0-1,2.4c-.06.21.29.54.44.82a3.8,3.8,0,0,0,.6-.68,12.23,12.23,0,0,1,1.37-2.44,14.65,14.65,0,0,1,8.39-4.62c9.6-1.54,15,7.71,13.87,14.92-1.22,8-7.85,12.2-12.78,13.46a9.13,9.13,0,0,1-1.47.13c0-.52,0-.9,0-1.28,0-1-.17-2,.86-2.87s.51-2.09-.65-2.68c-.13-.06-.32-.08-.37-.19-.6-1.09-1.28-.48-1.81,0a2.08,2.08,0,0,0,.16,3.29c.27.21.64.5.67.79.08.95,0,1.91,0,3-3.09-.07-5.54-1.12-7.24-3.75-1-1.52-1.52-3.08,0-4.67a3.71,3.71,0,0,0,.74-1.42,2.91,2.91,0,0,0-.05-1.05,3.29,3.29,0,0,0-.94.53c-1.9,2.32-3.69,4.73-5.66,7-1.5,1.71-3.21,3.21-4.85,4.78a59,59,0,0,0-10.59,12.92c-5.46,9.39-6.09,19.61-4.49,30.17.06.36.51.66.78,1,.19-.36.4-.71.58-1.08a1.36,1.36,0,0,0,.08-.38,27,27,0,0,0,3.73,1.22c5.14.93,10.29,1.78,15.45,2.59,4.62.72,8.74,2.46,11.81,6.26a43.32,43.32,0,0,1,9.93,27.32,121.7,121.7,0,0,1-1.89,21.23c-1.19,7.32-2.65,14.59-4.12,21.85-1.61,8-3.08,16-5.65,23.74-4.41,13.27-8.88,26.52-13.31,39.77-1.24,3.68-2.46,7.37-3.69,11l-.29,0c-.05-.22-.09-.43-.14-.65a269.31,269.31,0,0,1-5-40.34,256.78,256.78,0,0,1,.57-33.63,187.05,187.05,0,0,1,3.73-24.49c2.12-9.47,5.15-18.65,8.14-27.85.21-.66.41-1.32.57-2,0-.16-.14-.39-.22-.58-.19.08-.45.11-.55.26a5.4,5.4,0,0,0-.53,1.14c-.8,2.2-1.59,4.42-2.38,6.63a182.86,182.86,0,0,0-10.91,57.55c-.22,9.32-.07,18.66.41,28a210.26,210.26,0,0,0,2.37,22.12C279.84,582,281.81,592,283.8,602c4.1,20.52,10.41,40.35,17.17,60h1.65c-.67-1.94-1.33-3.86-2-5.78C293.41,634.81,287.18,613.12,283.16,590.78Z"/><path class="cls-1" d="M299.57,372.58c-.42,1-.8,1.74-1.08,2.54-.2.59-.8,1.29,0,1.79.1.06.87-.77,1.06-1.29,1.37-3.73,3.49-6.61,7.45-7.52a1.28,1.28,0,0,0,.51-.21c.34-.25.65-.54,1-.81l-.1-.41a3.74,3.74,0,0,0-1.38,0,43.1,43.1,0,0,0-5.25,2.43,20.87,20.87,0,0,0-3.51,3c-.26.24-.18.86-.26,1.31.34-.15.68-.29,1-.45C299.16,372.87,299.28,372.77,299.57,372.58Z"/><path class="cls-2" d="M341.66,437.27c-2.51,0-5-.1-7.54,0-6,.28-12,.72-18,1-4.73.21-9.47.27-14.21.37a1.65,1.65,0,0,1-1.11-.36c-3.87-3.59-8.57-4.77-13.56-5.43s-9.78-1.63-14.65-2.58a3.28,3.28,0,0,1-3.06-3.22,47.54,47.54,0,0,1,.44-12c1.16-9.36,5.95-16.71,12.15-23.19,3.35-3.49,6.83-6.85,10.32-10.34,1.59,4.42,4.87,6.34,9.27,6.63v1.52c-2.49.94-3.87,4.49-2.93,7.14a4.46,4.46,0,0,0,1.34,1.9c.86.69,1.73.32,2.23-.7a4.38,4.38,0,0,1,.53-.88c1.78-2,1.81-4.14.29-6.49a6.93,6.93,0,0,1-.46-2.47c3.48-.17,6.23-1.68,8.82-3.51a16.14,16.14,0,0,0,7.19-13.76,15.44,15.44,0,0,0-2-7.41l-.51-.94c2.83.15,5.59.31,8.35.44a4.87,4.87,0,0,0,1.42-.2.64.64,0,0,0,.39-.46.69.69,0,0,0-.42-.45,3.63,3.63,0,0,0-.88-.05c-2.8-.16-5.61-.31-8.41-.48a3.87,3.87,0,0,1-2.57-1.18c-3.33-3.27-7.34-4-11.68-3.07a4.92,4.92,0,0,1-2.69-.18,36.62,36.62,0,0,1-14.15-9.55c-5.88-6.1-9.95-13.43-13.31-21.24-.77-1.79-1.49-3.61-2.36-5.71a10.5,10.5,0,0,0,1.47.42c.21,0,.44-.16.66-.24a4.4,4.4,0,0,0-.33-.65.62.62,0,0,0-.39-.2c-1.65-.19-2.16-1.42-2.54-2.88-1.33-5-2.61-10-4.11-14.94-4.35-14.3-12.8-25.44-24.45-34a70.16,70.16,0,0,0-9.84-6.26c-4.55-2.28-9.38-2.82-14.16-.4-3.27,1.65-5.39,4.52-7.28,7.62-.69,1.13-1.24,2.36-1.87,3.59a23.81,23.81,0,0,0-2.33-1.28c-2.17-.89-4.1-.26-6,1a35.12,35.12,0,0,0-9.53,10.54c-4.56,7.23-8,15-9.18,23.58a57.06,57.06,0,0,0,2.05,26.68c2,5.82,2.58,11.89,3.06,18,.58,7.19-1,14-3.12,20.71-.52,1.68-1.37,3.26-1.85,5a9.82,9.82,0,0,0-.52,5.22,10.37,10.37,0,0,0,3.2,5.18c2.86,2.65,6.38,3.85,9.94,4.94a114.92,114.92,0,0,0,19.41,3.75l2.58.34c-.19,1.39-.47,2.71-.53,4a7.87,7.87,0,0,0,3,6.57c3,2.58,6.53,3.52,10.27,3.91,2.06.21,4.11.39,6.11.58.08.08.13.11.12.14q-.12,8.12-.26,16.22c0,.93-.11,1.85-.15,2.78,0,.59-.24.88-.86.93-5.28.44-10.55,1-15.83,1.34a77.66,77.66,0,0,0-18,3.17,20.13,20.13,0,0,0-10,6.84c-.09.11-.21.19-.47.43-.56-1.35-1.13-2.58-1.61-3.86-5.91-15.89-11.08-32-13.86-48.86-1.33-8.07-2.46-16.21-3.12-24.37-.82-10.21-1.28-20.48-1.5-30.73a81.44,81.44,0,0,1,3-23.83c1.15-4.12,2-8.33,3.08-12.46,2.31-8.75,6.36-16.64,11.11-24.17A129.17,129.17,0,0,1,198.05,258c6.5-7.31,14.54-12,23.5-15.06A76,76,0,0,1,242.48,239c5.1-.26,10.21-.48,15.31-.53,8-.07,15.48,2.15,22.91,5,14.62,5.62,25.15,16.18,33.09,29.79,4,6.86,7.76,13.91,11.27,21.07,4.6,9.41,7,19.6,8.77,30,.68,4.07,1.3,8.16,1.77,12.27a35.92,35.92,0,0,1-1.15,13.34,218.25,218.25,0,0,0-4.78,25.61c-.68,4.94-1.25,9.9-1.63,14.87a76.23,76.23,0,0,0,12.74,45.11l1,1.35Z"/><path class="cls-2" d="M257.87,348.06l14.46-3.39c.08,3.13,0,5.85-1.23,8.42-2.62,5.33-7.05,7.87-12.5,8.67a29.88,29.88,0,0,1-15.4-1.7,10.44,10.44,0,0,1-3.46-2.39c-1.34-1.34-1.4-2-1.44-4.87l15.87-4.11c.12,1.36.19,2.49.33,3.62a6.75,6.75,0,0,0,.44,2c.22.5.73,1.16,1.13,1.17s1-.63,1.17-1.11a22,22,0,0,0,.62-3.63A26.76,26.76,0,0,0,257.87,348.06Z"/><path class="cls-2" d="M208.26,349.83l4.61,1.09a7,7,0,0,1-2.92,5,11.16,11.16,0,0,1-9.83,1.89c-5.09-1.21-8.31-5-9.14-10.7-.11-.72-.17-1.45-.26-2.31l1,.34c4,1.18,8,2.4,12.05,3.52a1.54,1.54,0,0,1,1.33,1.6,15.19,15.19,0,0,0,.56,3.3c.17.55.8.94,1.22,1.41.38-.51,1-1,1.09-1.53A24.9,24.9,0,0,0,208.26,349.83Z"/><path class="cls-2" d="M259.31,337.8c-.95,3-1.85,5.9-4.13,8.07a3.51,3.51,0,0,1-1.44.81c-4.3,1.09-8.51,2.64-13,3l-2.1.16C240,343.75,251.65,336.93,259.31,337.8Z"/><path class="cls-2" d="M196,337a12,12,0,0,1,2.67-.24,57.67,57.67,0,0,1,7.18,1.27c3.9,1.05,5.89,4,6.68,8,.16.83.27,1.67.42,2.62a13.31,13.31,0,0,1-2.08-.25c-2.84-.81-5.71-1.57-8.48-2.58a6,6,0,0,1-2.56-2.15c-1.32-1.85-2.43-3.87-3.61-5.82A3.73,3.73,0,0,1,196,337Z"/><path class="cls-2" d="M259.49,345.28l1.64-7.46c3.78-.25,10.34,1.6,10.69,4.58Z"/><path class="cls-2" d="M303.47,394a20.61,20.61,0,0,1-1.27,3.26c-.66,1.13-1.63,1-2.2-.22a5.44,5.44,0,0,1,.63-5.26c.29-.31.95-.62,1.23-.48a3.66,3.66,0,0,1,1.25,1.36,3.25,3.25,0,0,1,.15,1.24Z"/><path class="cls-2" d="M196.17,344.24l-5.1-1.59a7.31,7.31,0,0,1,3.31-4.86Z"/><path class="cls-2" d="M302.31,380c.12.91,1.9,1.19.61,2.34-.23.2-1.17,0-1.41-.35C300.92,381.18,301.43,380.56,302.31,380Z"/><path class="" fill='#ffd521' d="M278.26,571.9a210.26,210.26,0,0,1-2.37-22.12c-.48-9.3-.63-18.64-.41-28a182.86,182.86,0,0,1,10.91-57.55c.79-2.21,1.58-4.43,2.38-6.63a5.4,5.4,0,0,1,.53-1.14c.1-.15.36-.18.55-.26.08.19.25.42.22.58-.16.68-.36,1.34-.57,2-3,9.2-6,18.38-8.14,27.85a187.05,187.05,0,0,0-3.73,24.49,256.78,256.78,0,0,0-.57,33.63,269.31,269.31,0,0,0,5,40.34c0,.22.09.43.14.65l.29,0c1.23-3.68,2.45-7.37,3.69-11,4.43-13.25,8.9-26.5,13.31-39.77,2.57-7.73,4-15.76,5.65-23.74,1.47-7.26,2.93-14.53,4.12-21.85a121.7,121.7,0,0,0,1.89-21.23,43.32,43.32,0,0,0-9.93-27.32c-3.07-3.8-7.19-5.54-11.81-6.26-5.16-.81-10.31-1.66-15.45-2.59a27,27,0,0,1-3.73-1.22,1.36,1.36,0,0,1-.08.38c-.18.37-.39.72-.58,1.08-.27-.33-.72-.63-.78-1-1.6-10.56-1-20.78,4.49-30.17a59,59,0,0,1,10.59-12.92c1.64-1.57,3.35-3.07,4.85-4.78,2-2.24,3.76-4.65,5.66-7a3.29,3.29,0,0,1,.94-.53,2.91,2.91,0,0,1,.05,1.05,3.71,3.71,0,0,1-.74,1.42c-1.5,1.59-1,3.15,0,4.67,1.7,2.63,4.15,3.68,7.24,3.75,0-1.07.05-2,0-3,0-.29-.4-.58-.67-.79a2.08,2.08,0,0,1-.16-3.29c.53-.46,1.21-1.07,1.81,0,.05.11.24.13.37.19,1.16.59,1.6,1.89.65,2.68s-.84,1.83-.86,2.87c0,.38,0,.76,0,1.28a9.13,9.13,0,0,0,1.47-.13c4.93-1.26,11.56-5.48,12.78-13.46,1.1-7.21-4.27-16.46-13.87-14.92a14.65,14.65,0,0,0-8.39,4.62,12.23,12.23,0,0,0-1.37,2.44,3.8,3.8,0,0,1-.6.68c-.15-.28-.5-.61-.44-.82a6.12,6.12,0,0,1,1-2.4,41.75,41.75,0,0,1,3.73-3.43,16,16,0,0,1,1.61-1.07c-8.74-3.13-14.78-9.55-20.32-17a4.39,4.39,0,0,1-.63.93c-2.08,1.64-3.44,3.47-3.34,6.52a12,12,0,0,1-2.8,7.44,1.66,1.66,0,0,0-.14,1.23c.27,1,.68,1.88,1,2.83a2.87,2.87,0,0,1-.08.95,4.46,4.46,0,0,1-1-.16c-.22-.1-.36-.38-.56-.56-1.45-1.34-2-1.37-3.58-.37a26.78,26.78,0,0,1-15.16,3.69,36.25,36.25,0,0,1-7.25-.92,12,12,0,0,1-8.63-7.64,6.39,6.39,0,0,1-.15-3.63,18.06,18.06,0,0,1,8.23-11.73,31.43,31.43,0,0,1,14.75-4.61c.56,0,1.08,0,1.17-.87,0-.38.5-.7.77-1.05.19.4.4.8.56,1.21a2,2,0,0,1,0,.62c1.85.27,3.66.62,5.49.77a7,7,0,0,1,6.09,4.47c.38.83.77,1,1.54.62s1.8-.65,2.73-1c-1.36-2.52-2.78-4.87-3.93-7.37-1.82-3.93-3.44-8-5.2-11.92a2.05,2.05,0,0,0-1.13-1.06C261,318,254.51,317.25,248,318.61a4.71,4.71,0,0,1-.92,0c-.05-.13-.1-.26-.14-.39a4,4,0,0,1,1.22-.58,62.4,62.4,0,0,1,8.71-.66c3.57.15,7.11.84,10.76,1.31-.06.15,0,0,0-.05-1.81-6.38-3.36-12.85-5.5-19.11a60,60,0,0,0-17.57-25.8,72.94,72.94,0,0,0-14-10,16.59,16.59,0,0,0-9.77-2.05,11.66,11.66,0,0,0-7.41,3.83,28.81,28.81,0,0,0-5.11,7.69c-.59,1.29-1.28,1.52-2.33.68a4.5,4.5,0,0,0-5.6-.2,22.74,22.74,0,0,0-2.23,1.71c-5.77,4.62-9.28,11-12.26,17.68a55,55,0,0,0-2.45,39.12c.61,2.06,1.07,4.18,1.7,6.24a3.4,3.4,0,0,0,1.08,1.45,22.07,22.07,0,0,0,2.07,1.39c1.19-1.37,2.27-2.67,3.43-3.88a18.08,18.08,0,0,1,1.65-1.17,2.55,2.55,0,0,0,.73-1c.3-.73.63-.87,1.24-.32a1.45,1.45,0,0,0,1,.41c4.31-.55,8.31.74,12.16,2.47,3.21,1.44,4.83,4.35,5.36,7.89.27,1.86.38,3.76.53,5.65a8.31,8.31,0,0,1-5.46,8.16,18.9,18.9,0,0,1-10.19.64,9.65,9.65,0,0,1-5.39-3.26,1.31,1.31,0,0,0-2.05-.31,19.89,19.89,0,0,1-1.95,1l-.27-.37a22.08,22.08,0,0,1,1.46-2.39,1.22,1.22,0,0,0,.08-1.62,23.08,23.08,0,0,1-2.63-7.22c-.17-.89-1.11-1.62-1.7-2.42l-.28.15c.16,1.62.42,3.24.45,4.86a89.34,89.34,0,0,1,0,11.22,61.8,61.8,0,0,1-4,15.53c-.54,1.4-.93,2.86-1.39,4.29a5.32,5.32,0,0,0,1.51,5.8,22.87,22.87,0,0,0,5.16,3.74c4.75,2.36,9.92,3.31,15.06,4.26a210.92,210.92,0,0,0,26.18,2.67c8.41.49,16.6-.8,24.78-2.57a8.26,8.26,0,0,1,1.65,0l.14.47a5.77,5.77,0,0,1-1.5.84c-3.3.67-6.62,1.25-9.93,1.91-6.36,1.25-12.76.92-19.16.53-2.66-.17-5.32-.35-8-.46a1.19,1.19,0,0,0-1,.61c-1.14,3.74-.62,7.08,2.94,9.51,3.1,2.11,6.6,2.64,10.16,3,1.69.16,3.4.22,5.1.32,1,.06,1.29.42,1,1.47a6,6,0,0,0-.13,1.34q-.21,8.74-.4,17.51a12,12,0,0,1-.15,2,.94.94,0,0,1-.7.58c-1.45.09-2.91,0-4.36.15-5.79.5-11.61.84-17.36,1.65a92.76,92.76,0,0,0-13.67,3c-5.57,1.68-9.38,5.68-11.63,11.3a46.38,46.38,0,0,0-3.1,14.54,162.51,162.51,0,0,0,1.08,29.42c.87,7.4,1.92,14.78,2.89,22.17a2.25,2.25,0,0,0,.42,1.1c.28-2.74.58-5.49.84-8.23A193.56,193.56,0,0,1,192.75,483c2-8.84,4.27-17.62,6.45-26.41a14.33,14.33,0,0,1,1.18-2.87c.16-.32.63-.47,1-.69l.12.25c-.7,2.39-1.47,4.75-2.1,7.16a313.7,313.7,0,0,0-8.5,42.78c-.9,7.56-1.47,15.16-2.09,22.75-.64,7.9-1.29,15.8-1.69,23.72s-.6,15.85-.68,23.78c-.07,7.51,0,15,.23,22.53s.73,15.3,1.23,22.94c.46,7.21,1,14.43,1.65,21.63S191,654.85,191.72,662h47.75c0-.31,0-.63,0-.94.09-10.45.18-20.9.34-31.35.06-4.06.31-8.11.45-12.17a6.22,6.22,0,0,0-.21-1.6q-3.27-13.78-6.55-27.58a13.45,13.45,0,0,1-.16-2.06l-11.58-4a5.89,5.89,0,0,1-1.26-.45,7.62,7.62,0,0,1-1-.94,4.32,4.32,0,0,1,1.42-.07c2.66.83,5.32,1.68,7.94,2.61a94.44,94.44,0,0,0,20.3,4.4c1.06.13,2.13.24,3.18.46.33.06.59.45.88.69-.34.17-.69.52-1,.49-2.17-.22-4.35-.44-6.5-.79-3.75-.63-7.49-1.35-11.22-2,5.45,25.61,13.15,50.55,21.46,75.32H301c-6.76-19.69-13.07-39.52-17.17-60C281.81,592,279.84,582,278.26,571.9Zm20-199.82a20.87,20.87,0,0,1,3.51-3,43.1,43.1,0,0,1,5.25-2.43,3.74,3.74,0,0,1,1.38,0l.1.41c-.31.27-.62.56-1,.81a1.28,1.28,0,0,1-.51.21c-4,.91-6.08,3.79-7.45,7.52-.19.52-1,1.35-1.06,1.29-.84-.5-.24-1.2,0-1.79.28-.8.66-1.55,1.08-2.54-.29.19-.41.29-.54.36-.34.16-.68.3-1,.45C298.09,372.94,298,372.32,298.27,372.08ZM208,319.63c-1.56.25-3.16.35-4.72.67a27.4,27.4,0,0,0-11.19,4.84c-.24.18-.64.13-1,.18.11-.33.13-.8.36-1a29.58,29.58,0,0,1,3.56-2.35,30.29,30.29,0,0,1,11.78-3.41,4.79,4.79,0,0,1,1.12,0,4.46,4.46,0,0,1,.89.47C208.58,319.28,208.32,319.58,208,319.63Zm11.41,28.44c-.66,2.41-1.27,4.84-2,7.23-1.78,5.62-5.28,10-9.18,14.21l4.34,6.17a2,2,0,0,1,.46.78,4.33,4.33,0,0,1-.1,1.12c-.31-.14-.72-.2-.9-.44-1.9-2.52-3.75-5.08-5.62-7.62a.89.89,0,0,1,.16-1.38,32.07,32.07,0,0,0,10.93-18.7,12.07,12.07,0,0,0,.34-2.29c0-1.08.71-1.62,1.33-2.25.12-.12.5-.17.57-.08a1.16,1.16,0,0,1,.3.78C219.88,346.43,219.66,347.25,219.43,348.07Z"/></svg>