<svg id="목티" xmlns="http://www.w3.org/2000/svg" width='100%' height='100%' viewBox="0 0 140.59 178.69"><defs><style>.cls-1{fill:#fff;}</style></defs><g id="색"><path class="cls-1" d="M396.84,438.61c-.33-2.32-.7-4.63-1-7-.86-6.73-2-13.44-2.48-20.2-.63-8.35-.9-16.74-1.05-25.12A46.47,46.47,0,0,1,394.67,372a14.32,14.32,0,0,1,6.81-8.19c5.48-3.26,11.56-4.77,17.8-5.63,5.93-.82,11.89-1.42,17.83-2.1,3-.35,6-.71,9-1,1.2-.1,1.39-.66,1.4-1.71,0-3.95.16-7.9.26-11.85a2.35,2.35,0,0,1,.1-.52h34.93c.08,1.71.17,3.44.23,5.18s0,3.76.23,5.61a3,3,0,0,0,1.48,1.79A11.63,11.63,0,0,0,488,354.7c6.52,1.32,13,2.66,19.6,3.82,4.1.73,7.79,2.18,10.63,5.27a38.26,38.26,0,0,1,8.05,13.61A54.59,54.59,0,0,1,529,402.06c-1.41,11.56-2.8,23.14-5.71,34.43-2.34,9.08-5.06,18.05-7.64,27.06-1.1,3.87-2.21,7.74-3.39,11.59-1.82,5.95-3.72,11.87-5.55,17.81a164.69,164.69,0,0,1-8.31,21c-.05.1-.13.19-.34.5-.5-2.07-1.11-3.94-1.39-5.86-.82-5.49-1.64-11-2.19-16.49-.72-7.18-1.18-14.39-1.74-21.59a178.42,178.42,0,0,1-.12-30.75,213.81,213.81,0,0,1,7.73-40.26c1.81-6.11,4.12-12.07,6.17-18.11a4.66,4.66,0,0,0,0-1.49c-.4.31-1,.54-1.17.94-2,5.22-4.1,10.4-5.79,15.72a177.61,177.61,0,0,0-6.93,30.81c-1.07,8.3-2.07,16.63-1.82,25,.21,7.14.44,14.29.65,21.43,0,1,0,2,0,3.14H397.54c-1.66,0-1.92-.2-1.83-1.86.4-7.93.53-15.89,1.35-23.78.93-8.91,2.42-17.76,3.82-26.62s2.79-17.82,4.55-26.67c1.4-7.08,3.34-14.05,5-21.08a6.46,6.46,0,0,0-.09-1.85,5.81,5.81,0,0,0-1.11,1.51,205.2,205.2,0,0,0-6.53,27.1c-1.85,10.62-3.49,21.27-5.22,31.91-.15,1-.24,2-.36,3Z" transform="translate(-390.5 -339.03)"/></g><g id="선"><path d="M484.49,339.33c0,1.45-.05,2.79,0,4.13.09,1.71.26,3.42.41,5.13a3.59,3.59,0,0,0,2.44,3.23,63.75,63.75,0,0,0,16.63,4.3,63.57,63.57,0,0,1,6.83,1.26c5.06,1.15,8.83,4.28,11.66,8.43,3.07,4.51,5.94,9.19,7.33,14.59a50.94,50.94,0,0,1,1.28,12.48A152.21,152.21,0,0,1,527.41,426c-1.8,8.37-3.57,16.75-6.11,24.95-2.11,6.82-4.18,13.66-6.11,20.53a359.8,359.8,0,0,1-12.1,35.29c-1.34,3.38-2.89,6.67-4.39,10-.17.38-.63.63-.95.94a9.57,9.57,0,0,1-.6-1,34.89,34.89,0,0,1-2.27-10c-.77-6-1.45-12-2.09-18-.36-3.36-.56-6.75-.85-10.28H397.21a4.16,4.16,0,0,1-1.63-.18,2,2,0,0,1-1.31-2.2c.54-8.41.8-16.83,1.5-25.22.35-4.19-.43-8.17-1.08-12.22-1.24-7.64-2.57-15.27-3.61-22.94a90,90,0,0,1-.44-10.4c-.08-3.67,0-7.35-.11-11a81.63,81.63,0,0,1,2.16-20.3A16.33,16.33,0,0,1,396,367a22.8,22.8,0,0,1,3.27-2.92c.43-.35,1-.56,1.42-.89A37.35,37.35,0,0,1,419,356.43c6.34-.71,12.68-1.34,19-2.06,1.93-.22,3.85-.57,5.76-1a2.05,2.05,0,0,0,1.78-1.86q.39-4,.66-8a25.12,25.12,0,0,0,0-3.47c-.06-.93.5-1,1.13-1,2.95,0,5.91-.13,8.86-.12,9.22.07,18.45.17,27.67.25Zm-87.65,99.28.28,0c.12-1,.21-2,.36-3,1.73-10.64,3.37-21.29,5.22-31.91a205.2,205.2,0,0,1,6.53-27.1,5.81,5.81,0,0,1,1.11-1.51,6.46,6.46,0,0,1,.09,1.85c-1.66,7-3.6,14-5,21.08-1.76,8.85-3.15,17.76-4.55,26.67s-2.89,17.71-3.82,26.62c-.82,7.89-.95,15.85-1.35,23.78-.09,1.66.17,1.86,1.83,1.86h93.94c0-1.17,0-2.16,0-3.14-.21-7.14-.44-14.29-.65-21.43-.25-8.41.75-16.74,1.82-25a177.61,177.61,0,0,1,6.93-30.81c1.69-5.32,3.81-10.5,5.79-15.72.15-.4.77-.63,1.17-.94a4.66,4.66,0,0,1,0,1.49c-2.05,6-4.36,12-6.17,18.11a213.81,213.81,0,0,0-7.73,40.26,178.42,178.42,0,0,0,.12,30.75c.56,7.2,1,14.41,1.74,21.59.55,5.52,1.37,11,2.19,16.49.28,1.92.89,3.79,1.39,5.86.21-.31.29-.4.34-.5a164.69,164.69,0,0,0,8.31-21c1.83-5.94,3.73-11.86,5.55-17.81,1.18-3.85,2.29-7.72,3.39-11.59,2.58-9,5.3-18,7.64-27.06,2.91-11.29,4.3-22.87,5.71-34.43a54.59,54.59,0,0,0-2.71-24.66,38.26,38.26,0,0,0-8.05-13.61c-2.84-3.09-6.53-4.54-10.63-5.27-6.56-1.16-13.08-2.5-19.6-3.82a11.63,11.63,0,0,1-3.27-1.13,3,3,0,0,1-1.48-1.79c-.25-1.85-.16-3.74-.23-5.61s-.15-3.47-.23-5.18H447.9a2.35,2.35,0,0,0-.1.52c-.1,3.95-.23,7.9-.26,11.85,0,1.05-.2,1.61-1.4,1.71-3,.26-6,.62-9,1-5.94.68-11.9,1.28-17.83,2.1-6.24.86-12.32,2.37-17.8,5.63a14.32,14.32,0,0,0-6.81,8.19,46.47,46.47,0,0,0-2.36,14.37c.15,8.38.42,16.77,1.05,25.12.52,6.76,1.62,13.47,2.48,20.2C396.14,434,396.51,436.29,396.84,438.61Z" transform="translate(-390.5 -339.03)"/></g></svg>