<?xml version="1.0" encoding="UTF-8"?>
<svg id="_남자_이미지" data-name="남자 이미지" xmlns="http://www.w3.org/2000/svg" viewBox="0 0 204.91 452.58">
  <defs>
    <style>
      .cls-1 {
        fill: #fff;
      }
      .cls-2{fill:#ffd521;}
    </style>
  </defs>
  <g id="_색" data-name="색">
    <path class="cls-1 cls-2" d="M105.42,452.58H48.13c-.18-6.23-.53-12.46-.49-18.69,.06-10.55,.27-21.1,.58-31.64,.25-8.67,.79-17.32,1.12-25.99,.15-3.85,.45-7.65,1.59-11.35,4.39-14.32,8.72-28.66,13.22-42.94,2.29-7.27,4.89-14.45,7.36-21.67,.06-.19,.12-.45,.26-.52,1.5-.74,.69-1.54,.11-2.38-3.83-5.51-8-10.82-11.38-16.59-8.89-15.13-15.58-31.22-19.52-48.38-.85-3.69-1.6-7.41-2.47-11.1-.1-.41-.68-.7-1.04-1.05-.26,.43-.55,.85-.77,1.31-.07,.15,.05,.39,.09,.58,.99,4.32,1.95,8.64,2.98,12.95,4.09,17.13,11.04,33.1,20.04,48.17,2.98,4.99,6.61,9.6,9.93,14.4,.22,.32,.51,.8,.43,1.11-.45,1.57-1.03,3.1-1.55,4.64-3.76,11.17-7.51,22.34-11.26,33.51-.48,1.43-.91,2.88-1.39,4.41-.13-.2-.23-.29-.25-.4-.06-.27-.09-.55-.14-.83-1.63-8.98-2.55-18.08-5-26.92-1.59-5.73-2.96-11.54-4.07-17.38-2.53-13.34-4.78-26.72-7.24-40.07-.78-4.24-1.84-8.42-2.85-12.61-.32-1.3-1.14-2.49-1.35-3.79-1-6.23-.67-12.38,.91-18.53,2.62-10.23,8.91-16.51,19.26-18.73,5.5-1.17,11.06-1.46,16.65-1.66,5.22-.18,10.45-.48,15.65-.94,2.71-.24,5.41-.86,8.06-1.5,.76-.18,1.79-.72,1.65-1.9-.51-4.45-1.15-8.88-2.86-13.06-1.79-4.38-4.78-7.65-9.27-9.31-2.2-.82-4.46-1.52-6.75-2.04-4.29-.97-8.65-1.72-12.44-4.09-1.32-.82-2.57-1.94-3.48-3.19-1.36-1.86-1.78-4.11-1.78-6.45,.33,0,.52-.02,.72,0,8.04,.75,16.03,.54,23.95-1.14,4.93-1.04,9.81-2.23,14.39-4.41,.6-.28,1.22-.68,.86-1.45-.37-.8-1.03-.48-1.65-.23-1.55,.64-3.08,1.34-4.67,1.85-10.47,3.34-21.15,4.72-32.14,3.55-5.98-.63-11.88-1.56-17.53-3.66-2.24-.83-4.45-1.79-6.54-2.94-4.14-2.27-3.99-8.51-.58-10.34,.99-.53,1.78-1.48,2.55-2.34,.49-.55,.95-1.25,1.1-1.95,1.5-7.18,1.09-14.2-1.77-21.03-2.04-4.9-3.95-9.86-5.89-14.8-.36-.91-.61-1.86-.91-2.77,.24-.14,.33-.22,.44-.26,5.93-2.04,10.77-5.66,14.97-10.26,.49-.53,1.18-.97,1.85-1.23,5.43-2.09,11.12-3.17,16.81-4.22,1.01-.19,1.43-.59,1.46-1.64,.04-1.71,.22-3.43,.37-5.14,.21-2.49,.19-2.57-2.11-2.12-2.23,.43-4.43,1-6.63,1.57-1.14,.29-2.25,.7-3.52,1.1,.12-.33,.16-.48,.23-.62,2.94-5.32,4.68-11.09,6.51-16.84,.68-2.13,1.74-4.19,2.91-6.11,1.56-2.57,3.93-4.28,6.98-4.56,2.23-.21,4.51,0,6.76,0,.37,0,.8-.05,1.09-.24,2.69-1.79,5.35-3.62,8.04-5.41,.34-.23,.83-.23,1.25-.33-.3,1-.84,1.71-1.16,2.5-.19,.48-.25,1.23,0,1.6,.2,.29,1,.35,1.48,.25,.73-.16,1.41-.53,2.11-.82,1.49-.62,2.98-1.25,4.76-2.01-.26,.51-.35,.7-.46,.9-.66,1.25-.41,2.03,.88,2.58,.55,.24,1.14,.38,1.7,.57,1.92,.67,3.86,1.29,5.74,2.05,.48,.2,.98,.83,1.1,1.35,1.05,4.76,2.02,9.53,3.02,14.3,.56,2.64,1.14,5.28,1.74,8.05-.41-.06-.67-.08-.93-.14-4.41-.99-8.89-.86-13.36-.71-1.44,.05-1.72,.38-1.67,1.84,.05,1.52,.15,3.04,.15,4.55-.01,3.48,.8,3.09,3.56,3.15,4.46,.09,8.91,.44,13.37,.67,.99,.05,1.4,.53,1.67,1.49,1.76,6.28,3.8,12.46,6.88,18.24,.06,.12,.05,.28,.08,.48-2.62,.42-5.18,.86-7.74,1.23-5.17,.75-10.35,1.43-15.52,2.21-.59,.09-1.37,.47-1.64,.96-2.82,4.95-1.91,9.58,2.68,12.99,8.52,6.33,22.15,5.77,29.72-4.84,.22-.31,.46-.62,.72-.98,.27,.25,.47,.43,.67,.62,6.19,6.03,13.51,9.97,21.9,11.98,.38,.09,.84,.24,1.17,.12,.68-.25,1.45-.54,1.88-1.06,.17-.21-.43-1.11-.77-1.64-.39-.6-.92-1.11-1.31-1.71-.74-1.17-1.26-2.42-1.18-3.88,1.44,.88,2.79,1.7,4.04,2.46-.39,.83-.89,1.59-1.05,2.41-.07,.4,.52,.92,.81,1.38,.34-.35,.7-.68,1-1.06,.38-.49,.6-1.31,1.07-1.47,1.38-.49,2.68-1.38,4.03-1.62,6.5-1.16,11.94,5.85,12.14,9.99,.3,6.05-3.56,12.19-9.16,14.51-3.94,1.63-8.88,.55-11.41-2.52-.24-.29-.46-.66-.5-1.02-.15-1.18-.67-1.55-1.73-.95-1.07,.61-2.11,1.31-3.06,2.09-4.06,3.33-7.73,7.03-10.84,11.3-5.91,8.12-8.25,17.52-9.89,27.18-.11,.67,.13,1.4,.13,2.1,.01,2.16-.1,4.32,0,6.47,.11,2.42,.39,4.82,.62,7.6,1.04-.42,1.77-.87,2.55-1,8.18-1.39,16.22-3.6,24.56-3.97,4.78-.22,9.57-.55,14.35-.53,3.77,.02,6.67,1.88,8.19,5.44,.8,1.86,1.45,3.81,1.93,5.78,2.82,11.55,4.22,23.32,5.54,35.11,1.1,9.84,2.23,19.68,3.32,29.52,1.32,11.96,3.42,23.8,6.03,35.53,1.4,6.28,1.34,12.29-1,18.22-1.14,2.89-2.77,5.58-4.03,8.42-3.88,8.68-7.75,17.36-11.5,26.09-4.08,9.51-8.01,19.08-12.01,28.62-.16,.38-.34,.75-.64,1.39-.13-.54-.21-.76-.24-.99-1.45-9.63-2.89-19.26-4.37-28.89-.38-2.46-.99-4.79-.38-7.4,3.2-13.76,7.42-27.2,11.99-40.54,.33-.97,.43-2.14,.24-3.14-.42-2.14-1.14-4.21-1.66-6.33-3.26-13.3-6.45-26.61-8.84-40.11-1.42-8.01-3.35-15.93-5.18-23.86-1.24-5.34-4.23-9.79-7.69-13.94-.2-.24-.66-.25-1-.37-.03,.36-.22,.81-.07,1.06,.52,.85,1.11,1.67,1.75,2.43,2.34,2.75,4.01,5.87,5.09,9.3,.88,2.78,1.79,5.56,2.37,8.41,1.81,8.88,3.29,17.83,5.22,26.68,2.62,12.05,5.53,24.05,8.35,36.06,.23,.98,.18,1.82-.12,2.78-2.79,8.58-5.58,17.17-8.25,25.79-1.19,3.85-2.06,7.8-3.1,11.69-.43,1.61-.94,3.2-1.37,4.81-.15,.54-.34,1.14-.24,1.66,2.43,11.62,4,23.36,5.51,35.12,.14,1.07,.45,2.15,.36,3.19-.09,.97-.84,1.93,.44,2.67,.12,.07,.11,.37,.14,.57,.8,5.61,1.62,11.22,2.38,16.84,1.62,11.95,3.61,23.83,6.2,35.61,.67,3.04,1.19,6.11,1.78,9.16h-52.26c-.71-2.12-1.43-4.24-2.14-6.36-2.96-8.85-5.88-17.72-8.87-26.56-2.46-7.29-6.94-13.09-13.36-17.27-5.79-3.76-11.72-7.31-17.62-10.9-1.29-.78-2.72-1.33-4.1-1.97-.29-.13-.64-.33-.9-.25-.48,.13-.9,.44-1.35,.68,.3,.35,.53,.84,.92,1.04,1.7,.87,3.5,1.56,5.16,2.5,3.2,1.81,6.32,3.75,9.48,5.62,5.24,3.11,10.29,6.49,14.27,11.18,1.3,1.54,2.34,3.31,3.44,5.01,.23,.36,.27,.91,.26,1.37-.33,8.86-.67,17.72-1.03,26.58-.13,3.11-.29,6.22-.44,9.33ZM51.11,119.93c6.99-.02,12.88-5.91,12.97-12.96,0-.68-.2-1.16-.98-1.22-4.49-.38-8.98-.74-13.46-1.19-2.86-.28-5.7-.71-8.56-1.05-.67-.08-1.51-.15-1.58,.81-.11,1.5-.08,3.01-.08,4.51-.02,6.28,6.08,10.99,11.68,11.1Zm4.9,6.43c3.69-1.59,5.96-4.61,8.08-7.8,3.69-5.54,5.06-11.85,6.02-18.28,.06-.41-.4-.9-.62-1.35-.4,.35-1.01,.64-1.15,1.08-.31,.98-.4,2.03-.56,3.06-1.03,6.28-3.09,12.12-7.14,17.16-1.82,2.27-3.9,4.09-6.73,4.94-.76,.23-.86,.79-.47,1.42,.21,.33,.52,.61,.79,.89,2.75,2.82,5.22,5.83,6.73,9.53,.26,.63,.67,1.29,1.39,.83,.31-.2,.46-1.11,.28-1.52-.62-1.42-1.29-2.85-2.16-4.12-1.35-1.97-2.89-3.81-4.45-5.83Zm104.1,4.16c-.25,.51-.44,.85-.59,1.2-.74,1.76-1.52,3.51-2.17,5.3-.12,.32,.32,.84,.5,1.27,.39-.21,.84-.34,1.14-.64,.23-.23,.26-.66,.41-.98,.78-1.7,1.54-3.41,2.35-5.09,.82-1.71,2.07-2.62,4.08-2.15,.66,.15,1.44,0,1.37-.83-.03-.38-.74-.94-1.2-.99-2.52-.31-4.92,.24-7.16,1.39-.37,.19-.5,.84-.74,1.28,.44,.14,.87,.31,1.32,.42,.16,.04,.35-.08,.7-.17Z"/>
    <path class="cls-1" d="M55.15,10.46c5-.31,9.98-.32,14.95,.3,3.48,.43,6.99,.81,10.18,2.48,.98,.51,1.88,.82,2.34-.65,.07-.22,.4-.37,.63-.52,4.39-2.92,8.79-5.83,13.18-8.75,.39-.26,.73-.61,1.12-.87,.33-.22,.7-.56,1.04-.54,2.87,.15,5.75,.23,8.59,.58,6.14,.76,12.01,2.61,17.8,4.67,12.18,4.34,24.09,9.25,35.12,16.08,2.59,1.59,5.09,3.31,7.68,4.89,.79,.48,1.35,.92,1.56,1.89,1.49,7.02,4,13.73,6.46,20.44,2.16,5.88,4.14,11.85,6.69,17.57,3.14,7.05,7.35,13.47,13.14,18.71,1.25,1.13,2.73,1.99,4.16,3.02-4.96,3.41-10.33,5.71-16.34,6.38-1.33,.15-1.5,.37-1.22,1.61,.04,.14,.08,.35,.01,.42-.81,.82-.29,1.57,.12,2.29,1.79,3.13,4.42,5.43,7.42,7.34,.04,.02,.15,.09,.3,.18,.38,.22,1.03,.61,1.5,.86-.63,.03-1.22,.07-1.42,.09-1.46,.16-2.91,.46-4.36,.76-5.39,1.11-10.76,1.41-16.1-.24-.38-.12-.8-.17-1.18-.14-.87,.07-1.14,.63-.76,1.41,.11,.24,.17,.54,.17,.81,0,1.07-.16,2.15-.03,3.2,.15,1.35,.52,2.67,.84,4.18-.56-.29-.91-.48-1.26-.66-2.6-1.3-5.36-1.88-8.1-.8-1.78,.69-3.23,.35-4.62-.57-1.28-.85-2.41-1.94-3.62-2.9-.37-.29-.78-.52-1.18-.77-.25,.45-.68,.9-.72,1.37-.22,2.78,.22,5.42,1.91,7.74,.17,.22,.29,.48,.43,.72-8.51-2.21-16.14-5.89-21.88-12.63-2.28-2.68-4.23-5.68-6.07-8.69-1.66-2.75-3.15-5.65-4.38-8.62-2.97-7.18-4.87-14.7-6.55-22.27-1.86-8.38-3.56-16.79-5.32-25.19-.44-2.11-.7-4.27-1.29-6.34-.84-2.98-1.71-5.99-2.93-8.83-1.01-2.35-3.06-3.72-5.72-4.01-2.62-.28-4.88,.66-6.98,2.04-4.35,2.86-7.46,6.82-9.79,11.43-.34,.66-.62,1.36-.95,2.11-.71-1.16-1.31-2.25-2.02-3.25-.74-1.04-1.53-2.05-2.42-2.97-1.81-1.89-4.06-2.14-6.14-.57-1,.75-1.95,1.72-2.55,2.8-.89,1.59-1.61,3.31-2.12,5.06-1,3.45-1.81,6.96-2.69,10.44-2.85,11.2-7.06,21.72-14.83,30.53-3.32,3.76-7.09,7.01-11.64,9.07-2.88,1.3-6.1,1.85-9.19,2.7-1.53,.42-3.09,.75-4.64,1.11-1.68,.39-3.36,.75-5.32,1.19,.29-.39,.37-.53,.47-.63,3.62-3.65,5.98-8.07,7.86-12.78,.12-.29,.27-.62,.25-.92-.03-.44-.06-1.05-.34-1.27-.28-.21-.93-.13-1.31,.04-3.83,1.84-7.83,3.22-12,4.05-2.22,.44-4.5,.65-6.75,.97,.03-.36,.1-.46,.2-.51,4.77-2.54,8.38-6.32,11.42-10.72,3.17-4.6,5.61-9.58,7.84-14.67,3.82-8.71,8.33-17.1,11.58-26.06,1.34-3.67,2.96-7.27,4.83-10.69,1.97-3.59,4.28-7.02,6.67-10.36,1.97-2.74,4.85-3.93,8.27-4.14Z"/>
    <path class="cls-1" d="M112.73,120.48c-5.4-.03-8.85-.85-11.9-2.82-1.38-.89-2.64-2.09-3.64-3.39-1.79-2.31-1.52-4.88-.22-7.33,.25-.48,1.04-.86,1.64-.94,5.64-.85,11.29-1.62,16.93-2.43,1.78-.25,3.55-.53,5.31-.86,.65-.12,1,.05,1.37,.6,1.58,2.35,3.23,4.65,4.8,7.01,.2,.3,.26,.94,.07,1.22-3.8,5.81-9.2,8.78-14.36,8.94Zm3.58-8.83c-.32-1.07-.62-2.39-1.12-3.62-.45-1.08-1.48-1.13-2.15-.23-1.08,1.45-1.02,5.47,.1,6.84,.85,1.04,2.16,.87,2.61-.39,.26-.74,.34-1.54,.56-2.61Z"/>
    <path class="cls-1" d="M81.52,42.33c.82-1.51,1.51-2.98,2.38-4.33,1.97-3.09,4.29-5.9,7.45-7.81,1.4-.85,3.01-1.58,4.6-1.84,3.22-.52,6.03,2.02,6.73,5.79-3.96-.25-7.55,1.02-10.99,2.74-3.37,1.68-6.64,3.55-10.18,5.45Z"/>
    <path class="cls-1" d="M96.94,77.92v-5.55c.27-.05,.61-.16,.95-.17,4.15-.12,8.29,0,12.36,.93,.78,.18,1.25,.49,1.4,1.34,.25,1.41,.61,2.79,.92,4.17-5.21-.24-10.36-.47-15.64-.72Z"/>
    <path class="cls-1" d="M91.42,41.85c1.07-2.19,1.82-4.35,4.49-4.77,1.99-.32,3.96-.82,5.96-1.1,1.01-.14,1.73,.27,1.94,1.52,.46,2.66,1.12,5.28,1.73,8.1-2.48-.79-4.75-1.52-7.1-2.28,.24-.55,.57-1.01,.6-1.48,.04-.67,.08-1.54-.29-1.96-.31-.35-1.28-.37-1.85-.19-1.44,.45-2.82,1.1-4.22,1.67-.36,.14-.72,.28-1.27,.49Z"/>
    <path class="cls-1" d="M51.3,81.85c1.09-1.72,2.17-3.43,3.27-5.12,.09-.15,.31-.25,.48-.3,3.52-1.01,7.05-2.02,10.57-3.01,.25-.07,.53,0,.94,0-.11,1.55-.19,3.05-.36,4.54-.03,.24-.41,.57-.68,.64-4.64,1.13-9.3,2.22-13.95,3.32-.07,.02-.15-.03-.28-.06Z"/>
    <path class="cls-1" d="M78.22,43.51c-3.53-2.63-6.97-4.04-11.24-2.13,.82-2.05,1.72-3.82,3.6-4.87,.93-.52,1.96-.62,2.81,.12,2.11,1.82,3.58,4.11,4.83,6.88Z"/>
    <path class="cls-1" d="M137.38,177.99c-2.76,.32-5.52,.64-8.59,1,.46-2.74,.9-5.28,1.33-7.83,.1-.03,.19-.07,.29-.1,1.18,3.4,3.5,5.54,6.93,6.46,.01,.15,.03,.31,.04,.46Z"/>
    <path class="cls-1" d="M83.94,175.27c2.13,.8,4.15,1.9,5.71,3.74-.91,.92-5.82,2.77-7.79,3.02,.66-2.16,1.35-4.39,2.08-6.76Z"/>
    <path class="cls-1" d="M75.25,43.76c-4.06,.26-7.44,1.31-9.94,4.37-.11-.11-.23-.21-.34-.32,.36-.59,.73-1.17,1.09-1.76,.12-.2,.31-.38,.35-.6,.39-1.71,1.88-2.98,3.62-3.07,1.75-.09,3.4,.2,5.22,1.37Z"/>
    <path class="cls-1" d="M62.31,107.9c-.63,1.82-1.23,3.56-1.83,5.29-.12-.03-.24-.05-.37-.08-.08-.83-.11-1.67-.24-2.49-.15-.89-.55-1.61-1.62-1.59-1.05,.03-1.4,.7-1.54,1.64-.39,2.63-.25,3.18,1.35,4.73-3.57,3.52-9.81,3.44-13.7-.12-2.65-2.43-3.5-5.42-3.05-8.89,.08-.66,.3-.99,1.06-.9,6.42,.73,12.84,1.44,19.26,2.15,.11,.01,.22,.08,.69,.25Z"/>
  </g>
  <g id="_선" data-name="선">
    <path d="M204.84,87.37c-.11-.21-.61-.38-.91-.35-3.21,.41-6-.45-8.27-2.78-1.22-1.26-2.41-2.57-3.5-3.95-4.39-5.56-7.94-11.64-10.29-18.31-3.72-10.63-8.06-21.05-10.66-32.05-.34-1.41-.88-2.38-2.24-3.31-13.7-9.38-28.66-16.1-44.26-21.53C116.41,2.19,107.97,.04,99.11,.03c-.33,0-.68-.03-1.02-.03-.82,0-1.59,.17-1.96,1.29-.06,.18-.39,.27-.59,.4-4.43,2.93-8.87,5.84-13.27,8.82-.94,.63-1.7,.97-2.8,.35-.78-.44-1.72-.66-2.61-.85-7.31-1.56-14.69-1.97-22.15-1.4-4.38,.33-7.6,2.4-10.13,5.8-.27,.35-.57,.68-.79,1.06-2.48,4.28-5.36,8.39-7.33,12.9-4.26,9.73-8.11,19.63-12.78,29.19-2.68,5.48-4.94,11.18-8.29,16.33-3.56,5.47-7.82,10.11-14.02,12.64-.29,.11-.64,.26-.79,.5-.25,.4-.58,.89-.58,1.29,0,.05,.01,.1,.02,.15,.1,.4,.72,.76,1.18,.94,.43,.17,.95,.11,1.43,.09,6.36-.26,12.51-1.51,18.4-3.95,.35-.15,.71-.26,1.09-.39,.03,.17,.07,.26,.05,.32-2.1,4.71-4.54,9.18-8.82,12.33-.61,.46-1.3,.98-.93,1.87,.39,.95,1.26,.8,2.07,.62,4.05-.86,8.11-1.73,12.17-2.6,1.34-.29,2.69-.6,4.04-.9,.47,1.35,.84,2.57,1.31,3.75,1.94,4.95,3.92,9.88,5.88,14.81,1.94,4.89,2.61,9.92,2.09,15.16-.32,3.14-1.18,5.79-4.06,7.56-1.5,.92-2.36,2.51-2.65,4.26-.82,4.91,1.17,8.16,5.83,10.12,3.15,1.34,6.44,2.39,9.74,3.28,3.22,.87,6.54,1.38,9.92,2.07,.04,.58,.08,1.25,.14,1.92,.41,4.91,2.82,8.49,7.37,10.32,2.99,1.21,6.14,1.99,9.25,2.87,2.09,.59,4.23,1.03,6.4,1.54-.08,.48-.16,.75-.18,1.02-.25,3.14-1.28,5.83-4.19,7.5-.27,.16-.49,.81-.38,1.1,.1,.29,.63,.52,1.01,.6,.37,.08,.78-.06,1.18-.13,4.01-.74,7.85-2.02,11.73-3.82,.48,.91,1.04,1.82,1.46,2.8,1.6,3.71,2.17,7.67,2.7,11.63,.04,.3-.38,.87-.71,1-1.04,.39-2.12,.73-3.21,.93-6.11,1.16-12.29,1.38-18.48,1.48-5.95,.1-11.89,.38-17.74,1.65-7.22,1.58-13.45,4.78-17.31,11.36-4.03,6.91-5.55,14.52-5.15,22.46,.35,7.01,1.82,13.85,3.61,20.62,1,3.81,2.27,7.57,2.9,11.44,2.13,13.09,4.4,26.14,7.48,39.05,1.39,5.82,2.93,11.62,4.09,17.49,1.3,6.58,2.2,13.23,3.35,19.84,.39,2.21,.27,4.27-.41,6.45-1.87,5.94-3.81,11.88-5.18,17.95-.86,3.81-.85,7.83-1.06,11.77-.27,5.19-.35,10.39-.57,15.58-.36,8.42-1.01,16.84-1.08,25.26-.09,11.03,.26,22.06,.43,33.09h1.92c-.18-6.23-.53-12.46-.5-18.69,.06-10.55,.27-21.1,.58-31.65,.25-8.66,.79-17.32,1.12-25.98,.15-3.85,.45-7.65,1.59-11.35,4.39-14.32,8.72-28.66,13.21-42.94,2.29-7.28,4.9-14.45,7.36-21.67,.07-.19,.12-.45,.26-.52,1.5-.74,.7-1.54,.11-2.38-3.82-5.52-7.99-10.83-11.38-16.6-8.89-15.13-15.58-31.22-19.52-48.38-.85-3.69-1.6-7.41-2.47-11.1-.1-.41-.68-.7-1.04-1.05-.26,.44-.55,.86-.77,1.31-.07,.15,.05,.39,.09,.58,.99,4.32,1.95,8.65,2.98,12.96,4.09,17.13,11.04,33.1,20.04,48.16,2.98,5,6.61,9.61,9.93,14.4,.22,.33,.51,.81,.43,1.11-.46,1.57-1.03,3.1-1.55,4.64-3.76,11.17-7.51,22.34-11.26,33.51-.48,1.43-.91,2.88-1.39,4.41-.14-.2-.23-.29-.26-.39-.06-.28-.08-.56-.13-.83-1.63-8.98-2.55-18.08-5-26.92-1.59-5.73-2.97-11.54-4.07-17.38-2.53-13.33-4.78-26.72-7.25-40.07-.78-4.23-1.83-8.42-2.85-12.61-.32-1.3-1.14-2.49-1.35-3.79-.97-6.04-.69-12.02,.78-17.98,.04-.18,.08-.37,.13-.55,2.62-10.23,8.9-16.51,19.26-18.73,5.5-1.17,11.06-1.45,16.65-1.65,5.23-.19,10.45-.48,15.66-.94,2.71-.24,5.4-.86,8.06-1.5,.76-.18,1.79-.72,1.65-1.9-.5-4.45-1.15-8.88-2.86-13.06-1.79-4.38-4.77-7.65-9.27-9.31-2.2-.82-4.46-1.53-6.75-2.04-4.29-.97-8.65-1.73-12.44-4.09-1.32-.83-2.57-1.94-3.48-3.19-1.36-1.86-1.78-4.11-1.78-6.45,.33,0,.53-.02,.72,0,8.04,.75,16.03,.54,23.95-1.14,4.93-1.04,9.81-2.23,14.39-4.41,.6-.28,1.22-.67,.86-1.45-.37-.81-1.03-.49-1.65-.23-1.55,.63-3.08,1.34-4.67,1.85-10.47,3.34-21.15,4.71-32.14,3.55-5.97-.63-11.88-1.56-17.52-3.66-2.24-.84-4.45-1.8-6.55-2.94-4.14-2.27-3.98-8.51-.58-10.34,.99-.54,1.78-1.48,2.55-2.34,.49-.55,.95-1.25,1.1-1.95,1.5-7.18,1.08-14.19-1.77-21.03-2.04-4.9-3.95-9.86-5.89-14.81-.36-.91-.62-1.86-.91-2.77,.24-.14,.33-.22,.44-.26,5.93-2.04,10.77-5.66,14.97-10.25,.48-.54,1.17-.97,1.85-1.24,5.43-2.09,11.12-3.17,16.81-4.21,1.02-.19,1.43-.59,1.46-1.64,.04-1.71,.22-3.43,.36-5.14,.21-2.48,.19-2.57-2.1-2.12-2.23,.43-4.43,1.01-6.63,1.57-1.14,.29-2.25,.69-3.52,1.09,.12-.33,.16-.48,.23-.61,2.94-5.32,4.68-11.09,6.51-16.85,.68-2.13,1.74-4.19,2.91-6.11,1.56-2.57,3.93-4.28,6.98-4.56,2.23-.21,4.5,0,6.76,0,.36,0,.79-.05,1.08-.24,2.69-1.79,5.35-3.62,8.04-5.41,.34-.22,.83-.23,1.25-.33-.29,1-.83,1.71-1.16,2.5-.19,.48-.25,1.23,.01,1.61,.2,.29,1,.35,1.47,.24,.73-.15,1.42-.53,2.12-.82,1.49-.62,2.98-1.25,4.76-2.01-.26,.51-.35,.71-.45,.9-.67,1.25-.42,2.03,.87,2.58,.55,.24,1.14,.38,1.7,.58,1.92,.67,3.86,1.28,5.74,2.05,.48,.2,.98,.83,1.1,1.35,1.05,4.75,2.01,9.53,3.02,14.3,.55,2.64,1.14,5.28,1.74,8.05-.41-.06-.68-.09-.94-.14-4.41-.99-8.88-.86-13.35-.72-1.44,.05-1.72,.38-1.68,1.84,.05,1.52,.16,3.04,.15,4.56-.01,3.48,.81,3.09,3.56,3.15,4.46,.09,8.92,.44,13.38,.67,.98,.05,1.4,.53,1.67,1.48,1.76,6.28,3.79,12.46,6.87,18.25,.07,.12,.06,.28,.09,.47-2.62,.42-5.18,.86-7.74,1.23-5.18,.75-10.36,1.44-15.53,2.21-.59,.09-1.36,.48-1.64,.96-2.82,4.95-1.91,9.58,2.68,12.99,8.52,6.33,22.15,5.77,29.73-4.84,.22-.31,.45-.62,.72-.98,.27,.25,.47,.43,.67,.63,6.18,6.03,13.51,9.97,21.9,11.98,.38,.09,.84,.24,1.17,.11,.68-.24,1.45-.54,1.88-1.06,.17-.21-.43-1.11-.77-1.64-.38-.6-.92-1.11-1.3-1.71-.75-1.17-1.27-2.42-1.18-3.88,1.44,.88,2.79,1.7,4.04,2.46-.39,.84-.9,1.59-1.05,2.41-.07,.4,.52,.92,.82,1.38,.33-.35,.7-.68,1-1.06,.38-.48,.6-1.3,1.07-1.47,1.37-.48,2.68-1.38,4.02-1.62,6.5-1.16,11.94,5.85,12.15,9.99,.29,6.05-3.56,12.18-9.16,14.51-3.94,1.63-8.89,.55-11.42-2.52-.23-.29-.46-.66-.5-1.02-.15-1.18-.67-1.55-1.73-.95-1.07,.61-2.11,1.31-3.06,2.09-4.07,3.33-7.74,7.03-10.84,11.3-5.91,8.13-8.25,17.53-9.89,27.19-.12,.67,.12,1.39,.13,2.1,.01,2.15-.1,4.32,0,6.47,.1,2.42,.38,4.82,.62,7.6,1.03-.42,1.76-.87,2.55-1.01,8.17-1.39,16.22-3.59,24.55-3.97,4.79-.21,9.57-.55,14.35-.52,3.77,.02,6.67,1.88,8.19,5.44,.8,1.86,1.46,3.81,1.94,5.78,2.82,11.55,4.22,23.32,5.53,35.11,1.1,9.84,2.24,19.68,3.32,29.52,1.32,11.96,3.42,23.8,6.03,35.52,1.4,6.28,1.35,12.29-1,18.22-1.14,2.89-2.76,5.58-4.03,8.42-3.88,8.68-7.76,17.36-11.51,26.09-4.08,9.51-8.01,19.08-12.01,28.62-.16,.38-.34,.75-.64,1.39-.13-.54-.2-.76-.24-.99-1.45-9.63-2.89-19.27-4.37-28.89-.37-2.46-.98-4.79-.37-7.41,3.2-13.75,7.42-27.19,11.99-40.54,.33-.97,.43-2.14,.23-3.14-.41-2.13-1.14-4.21-1.65-6.33-3.26-13.3-6.45-26.61-8.85-40.11-1.42-8.01-3.34-15.94-5.18-23.87-1.24-5.33-4.23-9.78-7.69-13.94-.19-.23-.66-.24-1-.36-.03,.36-.22,.81-.07,1.05,.52,.85,1.11,1.67,1.75,2.43,2.34,2.75,4.02,5.87,5.1,9.3,.88,2.77,1.79,5.56,2.37,8.41,1.81,8.88,3.29,17.83,5.22,26.68,2.62,12.05,5.53,24.04,8.35,36.05,.23,.98,.19,1.83-.12,2.78-2.79,8.59-5.58,17.17-8.25,25.79-1.18,3.85-2.06,7.8-3.1,11.7-.43,1.61-.93,3.2-1.37,4.8-.15,.54-.34,1.15-.24,1.66,2.43,11.62,4,23.36,5.51,35.12,.14,1.07,.46,2.15,.36,3.2-.09,.97-.84,1.93,.44,2.66,.12,.07,.11,.37,.13,.57,.8,5.61,1.62,11.22,2.38,16.84,1.63,11.95,3.62,23.83,6.2,35.61,.67,3.04,1.19,6.11,1.78,9.16h1.92c-.02-.24-.01-.48-.05-.71-2.22-11.56-4.62-23.1-6.62-34.7-1.55-9.01-2.54-18.11-3.91-27.15-.32-2.12,.03-3.93,.9-5.86,1.71-3.78,3.19-7.67,4.76-11.51,2.01-4.88,4.01-9.75,6.06-14.74,.24,.26,.35,.37,.56,.59,1.63-3.44,3.51-6.73,4.79-10.23,2.27-6.22,4.91-12.23,8.06-18.03,1-1.86,2-3.75,2.75-5.71,.96-2.54,1.79-5.14,2.46-7.76,.88-3.4,1.81-6.79,1.09-10.4-1.8-8.96-3.83-17.9-5.15-26.93-1.91-12.95-3.31-25.98-4.85-38.98-1.27-10.73-1.98-21.53-4.38-32.1-.94-4.12-1.87-8.26-3.15-12.28-1.29-4.04-4.11-6.72-8.43-7.48-1.33-.24-2.7-.37-4.04-.36-10.73,.15-21.35,1.25-31.82,3.69-1.92,.44-3.88,.7-6.13,1.1v-12.24c1.87-.15,3.7-.29,5.52-.45,2.55-.23,4.92-1.02,7.03-2.48,.32-.21,.61-.84,.52-1.16s-.67-.62-1.07-.69c-.94-.17-1.92-.1-2.85-.29-4.85-1-7.32-5.91-5.84-10.57,3.02-9.51,9.18-16.91,16.95-23.02,.46-.36,.96-.67,1.44-1,3.27,4.74,9.78,6.37,15.03,3.72,5.32-2.68,8.42-7.06,9.41-12.95,.58-3.49-.27-6.58-2.45-9.32-.72-.9-1.51-1.74-2.03-2.34,0-.98,.11-1.7-.03-2.37-.42-2.1-1.13-4.17-.67-6.4,.22,.02,.43,0,.61,.04,6.8,2.02,13.46,.43,20.12-.82,.4-.07,2.38-1.19,2.96-1.67,.05-.04,.08-.07,.11-.1,.14-.25,.07-.32-.13-.65-.1-.16-1.32-1.06-2.18-1.68-.41-.29-.74-.52-.82-.58-3.03-2.03-5.65-4.42-7.15-7.88,.35-.08,.66-.16,.98-.2,7.41-.92,13.71-4.35,19.59-8.7,.32-.23,.71-.46,.89-.78,.11-.19,.17-.45,.17-.69,0-.15-.02-.28-.07-.39Zm-115.19,91.64c-.91,.92-5.82,2.77-7.79,3.01,.66-2.15,1.35-4.39,2.08-6.75,2.13,.8,4.15,1.9,5.71,3.74Zm47.69-1.48c0,.15,.03,.31,.04,.46-2.76,.32-5.52,.64-8.58,1,.46-2.74,.89-5.28,1.32-7.82,.1-.04,.2-.07,.29-.1,1.18,3.4,3.51,5.54,6.93,6.46ZM65.63,73.41c.25-.07,.54,0,.94,0-.11,1.55-.19,3.06-.36,4.55-.03,.24-.41,.57-.68,.64-4.64,1.12-9.29,2.22-13.95,3.31-.06,.02-.15-.03-.28-.05,1.1-1.72,2.18-3.43,3.27-5.12,.1-.15,.31-.26,.49-.31,3.52-1.01,7.04-2.02,10.57-3.01Zm-.32-25.28c-.12-.1-.23-.21-.35-.31,.37-.59,.73-1.18,1.09-1.76,.13-.2,.31-.39,.36-.6,.38-1.71,1.88-2.98,3.61-3.07,1.76-.09,3.41,.2,5.23,1.37-4.06,.26-7.44,1.32-9.94,4.37Zm1.67-6.75c.83-2.04,1.72-3.81,3.6-4.86,.93-.52,1.96-.62,2.81,.11,2.1,1.83,3.57,4.11,4.83,6.88-3.53-2.62-6.97-4.04-11.24-2.13Zm14.54,.95c.82-1.51,1.52-2.98,2.39-4.34,1.96-3.08,4.28-5.9,7.44-7.81,1.41-.85,3.01-1.58,4.61-1.84,3.22-.52,6.03,2.02,6.73,5.8-3.96-.26-7.55,1.02-10.99,2.73-3.37,1.69-6.64,3.55-10.18,5.46Zm16.93,.99c.23-.55,.57-1,.6-1.48,.04-.67,.08-1.55-.29-1.97-.31-.35-1.28-.36-1.85-.18-1.43,.45-2.81,1.1-4.21,1.67-.36,.14-.72,.28-1.28,.49,1.07-2.18,1.82-4.34,4.49-4.77,2-.32,3.96-.82,5.96-1.1,1.01-.14,1.73,.27,1.95,1.52,.46,2.66,1.11,5.29,1.72,8.1-2.47-.79-4.75-1.52-7.09-2.28Zm-1.51,34.6v-5.55c.27-.05,.61-.16,.95-.17,4.15-.12,8.28,0,12.36,.93,.78,.18,1.25,.49,1.4,1.34,.25,1.41,.61,2.8,.92,4.17-5.21-.24-10.35-.48-15.63-.72Zm30.15,33.62c-3.8,5.81-9.2,8.78-14.36,8.94-5.4-.03-8.85-.84-11.9-2.82-1.38-.89-2.64-2.09-3.65-3.38-1.79-2.31-1.52-4.88-.22-7.33,.26-.48,1.05-.85,1.64-.94,5.63-.85,11.28-1.62,16.93-2.43,1.77-.26,3.55-.53,5.31-.87,.65-.12,1,.05,1.37,.6,1.58,2.35,3.23,4.66,4.8,7.01,.2,.3,.26,.94,.08,1.22Zm56.36-15.4c-1.33,.15-1.5,.37-1.22,1.61,.04,.14,.08,.35,.01,.42-.81,.82-.29,1.57,.12,2.29,1.79,3.13,4.42,5.43,7.42,7.34,.04,.02,.15,.09,.3,.18,.38,.22,1.03,.61,1.5,.86-.63,.03-1.22,.07-1.42,.09-1.46,.16-2.91,.46-4.36,.76-5.39,1.11-10.76,1.41-16.1-.24-.38-.12-.8-.17-1.18-.14-.87,.07-1.14,.63-.76,1.41,.11,.24,.17,.54,.17,.81,0,1.07-.16,2.15-.03,3.2,.15,1.35,.52,2.67,.84,4.18-.56-.29-.91-.48-1.26-.66-2.6-1.3-5.36-1.88-8.1-.8-1.78,.69-3.23,.35-4.62-.57-1.28-.85-2.41-1.94-3.62-2.9-.37-.29-.78-.52-1.18-.77-.25,.45-.68,.9-.72,1.37-.22,2.78,.22,5.42,1.91,7.74,.17,.22,.29,.48,.43,.72-8.51-2.21-16.14-5.89-21.88-12.63-2.28-2.68-4.23-5.68-6.07-8.69-1.66-2.75-3.15-5.65-4.38-8.62-2.97-7.18-4.87-14.7-6.55-22.27-1.86-8.38-3.56-16.79-5.32-25.19-.44-2.11-.7-4.27-1.29-6.34-.84-2.98-1.71-5.99-2.93-8.83-1.01-2.35-3.06-3.72-5.72-4.01-2.62-.28-4.88,.66-6.98,2.04-4.35,2.86-7.46,6.82-9.79,11.43-.34,.66-.62,1.36-.95,2.11-.71-1.16-1.31-2.25-2.02-3.25-.74-1.04-1.53-2.05-2.42-2.97-1.81-1.89-4.06-2.14-6.14-.57-1,.75-1.95,1.72-2.55,2.8-.89,1.59-1.61,3.31-2.12,5.06-1,3.45-1.81,6.96-2.69,10.44-2.85,11.2-7.06,21.72-14.83,30.53-3.32,3.76-7.09,7.01-11.64,9.07-2.88,1.3-6.1,1.85-9.19,2.7-1.53,.42-3.09,.75-4.64,1.11-1.68,.39-3.36,.75-5.32,1.19,.29-.39,.37-.53,.47-.63,3.62-3.65,5.98-8.07,7.86-12.78,.12-.29,.27-.62,.25-.92-.03-.44-.06-1.05-.34-1.27-.28-.21-.93-.13-1.31,.04-3.83,1.84-7.83,3.22-12,4.05-2.22,.44-4.5,.65-6.75,.97,.03-.36,.1-.46,.2-.51,4.77-2.54,8.38-6.32,11.42-10.72,3.17-4.6,5.61-9.58,7.84-14.67,3.82-8.71,8.33-17.1,11.58-26.06,1.34-3.67,2.96-7.27,4.83-10.69,1.97-3.59,4.28-7.02,6.67-10.36,1.97-2.74,4.85-3.93,8.27-4.14,5-.31,9.98-.32,14.95,.3,3.48,.43,6.99,.81,10.18,2.48,.98,.51,1.88,.82,2.34-.65,.07-.22,.4-.37,.63-.52,4.39-2.92,8.79-5.83,13.18-8.75,.39-.26,.73-.61,1.12-.87,.33-.22,.7-.56,1.04-.54,2.87,.15,5.75,.23,8.59,.58,6.14,.76,12.01,2.61,17.8,4.67,12.18,4.34,24.09,9.25,35.12,16.08,2.59,1.59,5.09,3.31,7.68,4.89,.79,.48,1.35,.92,1.56,1.89,1.49,7.02,4,13.73,6.46,20.44,2.16,5.88,4.14,11.85,6.69,17.57,3.14,7.05,7.35,13.47,13.14,18.71,1.25,1.13,2.73,1.99,4.16,3.02-4.96,3.41-10.33,5.71-16.34,6.38Z"/>
    <path d="M110.71,419.66c-2.46-7.29-6.94-13.09-13.36-17.27-5.79-3.76-11.72-7.31-17.62-10.9-1.29-.78-2.72-1.33-4.1-1.97-.29-.13-.64-.33-.9-.25-.48,.13-.9,.44-1.35,.68,.3,.35,.53,.84,.92,1.04,1.7,.87,3.5,1.56,5.16,2.5,3.2,1.81,6.32,3.75,9.48,5.62,5.24,3.11,10.29,6.49,14.27,11.18,1.3,1.54,2.34,3.31,3.44,5.01,.23,.36,.27,.91,.26,1.37-.33,8.86-.67,17.72-1.03,26.58-.13,3.11-.29,6.22-.44,9.33h1.92l1.43-31.33c.07-.02,.13-.04,.2-.06,.17,.42,.35,.84,.5,1.27,3.28,9.59,6.56,19.19,9.84,28.78,.15,.45,.33,.9,.5,1.34h1.92c-.71-2.12-1.43-4.24-2.14-6.36-2.96-8.85-5.88-17.72-8.87-26.56Z"/>
    <path d="M64.08,106.97c0-.68-.2-1.16-.98-1.22-4.49-.38-8.98-.74-13.46-1.19-2.86-.28-5.7-.71-8.56-1.05-.67-.08-1.51-.15-1.58,.81-.11,1.5-.08,3.01-.08,4.51-.02,6.28,6.08,10.99,11.68,11.1,6.99-.02,12.88-5.91,12.97-12.96Zm-4.21,3.65c-.15-.89-.55-1.61-1.62-1.59-1.05,.03-1.4,.7-1.54,1.64-.39,2.63-.25,3.18,1.35,4.73-3.57,3.52-9.81,3.44-13.7-.12-2.65-2.43-3.5-5.42-3.05-8.89,.08-.66,.3-.99,1.06-.9,6.42,.73,12.84,1.44,19.26,2.15,.11,.01,.22,.08,.69,.25-.63,1.82-1.23,3.56-1.83,5.29-.12-.03-.24-.05-.37-.08-.08-.83-.11-1.67-.24-2.49Z"/>
    <path d="M64.09,118.56c3.69-5.54,5.06-11.85,6.02-18.28,.06-.41-.4-.9-.62-1.35-.4,.35-1.01,.64-1.15,1.08-.31,.98-.4,2.03-.56,3.06-1.03,6.28-3.09,12.12-7.14,17.16-1.82,2.27-3.9,4.09-6.73,4.94-.76,.23-.86,.79-.47,1.42,.21,.33,.52,.61,.79,.89,2.75,2.82,5.22,5.83,6.73,9.53,.26,.63,.67,1.29,1.39,.83,.31-.2,.46-1.11,.28-1.52-.62-1.42-1.29-2.85-2.16-4.12-1.35-1.97-2.89-3.81-4.45-5.83,3.69-1.59,5.96-4.61,8.08-7.8Z"/>
    <path d="M157.34,137.01c-.12,.32,.32,.84,.5,1.27,.39-.21,.84-.34,1.14-.64,.23-.23,.26-.66,.41-.98,.78-1.7,1.54-3.41,2.35-5.09,.82-1.71,2.07-2.62,4.08-2.15,.66,.15,1.44,0,1.37-.83-.03-.38-.74-.94-1.2-.99-2.52-.31-4.92,.24-7.16,1.39-.37,.19-.5,.84-.74,1.28,.44,.14,.87,.31,1.32,.42,.16,.04,.35-.08,.7-.17-.25,.51-.44,.85-.59,1.2-.74,1.76-1.52,3.51-2.17,5.3Z"/>
    <path d="M113.03,107.81c-1.08,1.45-1.02,5.47,.1,6.84,.85,1.04,2.16,.87,2.61-.39,.26-.74,.34-1.54,.56-2.61-.32-1.07-.62-2.39-1.12-3.62-.45-1.08-1.48-1.13-2.15-.23Z"/>
  </g>
</svg>