<svg id="반바지" xmlns="http://www.w3.org/2000/svg" viewBox="0 0 119.32 80.85"><defs><style>.cls-1{fill:#fff;}</style></defs><g id="색"><path class="cls-1" d="M436.15,507.9c-2.18-1-4.2-1.91-6.26-2.76-.66-.27-1.62-1.13-2.09-.17s.8,1.31,1.46,1.63c4.92,2.35,9.88,4.62,14.8,7a2.11,2.11,0,0,1,1,1.23c1.82,6.86,3.57,13.73,5.35,20.6.14.57.31,1.13.48,1.79h-2.61q-24.12,0-48.25,0c-1,0-1.92,0-2.87.13s-1.1-.31-1.14-1.09q-.35-6.21-.73-12.42c-.18-3-.37-6-.56-9a15.67,15.67,0,0,0,8.36-1.21,8.84,8.84,0,0,0,5.62-6.09A62.94,62.94,0,0,0,410.93,491V489.4h25.22Z" transform="translate(-390.16 -475.05)"/><path class="cls-1" d="M471.4,489.68c.49,3.67.89,7.23,1.48,10.76a37.5,37.5,0,0,0,1.57,5.88,12.82,12.82,0,0,0,9.89,8.95c3.72.82,7.44,1.41,11.21.45l4.68,19.41c-1.69.17-3.46.37-5.24.52-8.79.75-17.58,1.44-26.36,2.25-4.45.41-8.88,1-13.31,1.59-1.87.23-1.89.27-2.44-1.57-1.27-4.28-2.57-8.55-3.77-12.85-.92-3.33-1.71-6.71-2.62-10.33.59.25,1,.39,1.34.57q7.1,3.45,14.2,6.9a3.35,3.35,0,0,0,1.37.38,1,1,0,0,0,.83-.48,1.12,1.12,0,0,0-.3-.92,2.76,2.76,0,0,0-.92-.52c-5.38-2.63-10.76-5.24-16.12-7.89a1.22,1.22,0,0,1-.55-.89c0-7.3,0-14.6,0-21.91a1.71,1.71,0,0,1,.08-.3Z" transform="translate(-390.16 -475.05)"/><path class="cls-1" d="M392.12,553.12V538.9h5.09L440,539c3.55,0,7.11,0,10.66,0,.68,0,1,.2,1.17.87.65,2.86,1.55,5.68,1.27,8.7-.14,1.49,0,3,0,4.62Z" transform="translate(-390.16 -475.05)"/><path class="cls-1" d="M457.28,554.68l-3.41-13.45c16.59-2.48,33.31-3,50.15-4.65l4,13.31C491,551.82,474.16,552.67,457.28,554.68Z" transform="translate(-390.16 -475.05)"/><path class="cls-1" d="M491.79,476.5l.49,11.62h-46v-10.8a1.32,1.32,0,0,1,.36-.13,176.84,176.84,0,0,1,18.13-.59c8.26,0,16.52,0,24.78,0C490.23,476.61,490.9,476.55,491.79,476.5Z" transform="translate(-390.16 -475.05)"/><path class="cls-1" d="M395.48,488.06c.24-3.1.46-6,.7-8.88.22-2.63.23-2.59,2.84-2.58,8.26,0,16.51-.05,24.77,0,3.7,0,7.4.41,11.1.55,1.21.05,1.49.53,1.45,1.69-.1,3.05,0,6.11,0,9.18Z" transform="translate(-390.16 -475.05)"/><path class="cls-1" d="M473.07,489.64h5.32c4.31,0,8.61,0,12.92,0,.84,0,1.13.2,1.24,1.1.89,7.51,1.85,15,2.78,22.52a5.69,5.69,0,0,1,0,.83A24.09,24.09,0,0,1,482.85,513,9.84,9.84,0,0,1,477,507.8c-1.84-3.65-2.51-7.62-3.1-11.6C473.59,494.08,473.36,492,473.07,489.64Z" transform="translate(-390.16 -475.05)"/><path class="cls-1" d="M409.35,489.53c0,1.49.07,3,0,4.42a62.32,62.32,0,0,1-1.84,12.87,7.48,7.48,0,0,1-5.4,5.7,45.9,45.9,0,0,1-5.38,1c-.61.1-1.23.14-1.94.22,0-.57-.15-1.2-.14-1.83.21-7.21.45-14.42.66-21.63,0-.57.16-.88.81-.87l12.93,0A1,1,0,0,1,409.35,489.53Z" transform="translate(-390.16 -475.05)"/><path class="cls-1" d="M437.74,477.34h7.07v34.48c-2.36-1.05-4.54-2-6.67-3-.28-.13-.39-.82-.39-1.25,0-6.82,0-13.64,0-20.46,0-2.75,0-5.51,0-8.26Zm5.76,5.37a3.05,3.05,0,0,0-2.45-2.53,2.42,2.42,0,0,0,.3,4.79A2.24,2.24,0,0,0,443.5,482.71Z" transform="translate(-390.16 -475.05)"/><path class="cls-1" d="M441.21,481.52l.84,1.72c-.36.12-.86.44-1.06.31-.73-.46-.67-1.15-.26-1.81Z" transform="translate(-390.16 -475.05)"/></g><g id="선"><path d="M394.29,537.41c-.21-3.65-.45-7.07-.59-10.49-.31-8.13-.87-16.26-.76-24.39.1-7.44.95-14.87,1.48-22.31.08-1.19.31-2.38.29-3.57s.42-1.58,1.62-1.57c6.47,0,12.94,0,19.41,0q37.31,0,74.61,0h2.59c.12,3,.12,5.91.38,8.76.36,3.84.89,7.67,1.4,11.5.8,6,1.41,12.13,2.54,18.11,1.25,6.57,3,13,4.54,19.56.13.57.31,1.14.48,1.77,1.93-.22,2.93.77,3.44,2.53,1.14,3.9,2.38,7.77,3.49,11.68.57,2,.34,2.3-1.71,2.6-2.64.39-5.29.72-7.95.94q-19.1,1.59-38.18,3.08c-1,.08-2,.08-3,.11-.2,0-.4,0-.6,0-.52,0-1.23.32-1.51.09s-.51-1-.72-1.6-.45-1.35-.73-2.21a5.4,5.4,0,0,0-.22.69c-.27,2.22-.22,2.26-2.85,2.26q-22.51,0-45,0c-5,0-10-.11-15-.18-.35,0-.79.07-1-.11a1.29,1.29,0,0,1-.48-1c0-.59.38-1.18.39-1.77q.06-6,0-12.09a2.34,2.34,0,0,0-.22-1.12c-.48-.86-.39-1.21.59-1.29S393.09,537.41,394.29,537.41Zm41.86-29.51V489.4H410.93V491a62.94,62.94,0,0,1-2.18,16.55,8.84,8.84,0,0,1-5.62,6.09,15.67,15.67,0,0,1-8.36,1.21c.19,3,.38,6,.56,9q.38,6.21.73,12.42c0,.78.29,1.17,1.14,1.09s1.91-.13,2.87-.13q24.12,0,48.25,0h2.61c-.17-.66-.34-1.22-.48-1.79-1.78-6.87-3.53-13.74-5.35-20.6a2.11,2.11,0,0,0-1-1.23c-4.92-2.35-9.88-4.62-14.8-7-.66-.32-2-.57-1.46-1.63s1.43-.1,2.09.17C432,506,434,506.93,436.15,507.9Zm35.25-18.22h-25a1.71,1.71,0,0,0-.08.3c0,7.31,0,14.61,0,21.91a1.22,1.22,0,0,0,.55.89c5.36,2.65,10.74,5.26,16.12,7.89a2.76,2.76,0,0,1,.92.52,1.12,1.12,0,0,1,.3.92,1,1,0,0,1-.83.48,3.35,3.35,0,0,1-1.37-.38q-7.11-3.44-14.2-6.9c-.37-.18-.75-.32-1.34-.57.91,3.62,1.7,7,2.62,10.33,1.2,4.3,2.5,8.57,3.77,12.85.55,1.84.57,1.8,2.44,1.57,4.43-.56,8.86-1.18,13.31-1.59,8.78-.81,17.57-1.5,26.36-2.25,1.78-.15,3.55-.35,5.24-.52l-4.68-19.41c-3.77,1-7.49.37-11.21-.45a12.82,12.82,0,0,1-9.89-8.95,37.5,37.5,0,0,1-1.57-5.88C472.29,496.91,471.89,493.35,471.4,489.68Zm-79.28,63.44H453c0-1.61-.12-3.13,0-4.62.28-3-.62-5.84-1.27-8.7-.15-.67-.49-.88-1.17-.87-3.55,0-7.11.05-10.66,0l-42.75-.07h-5.09Zm65.16,1.56c16.88-2,33.73-2.86,50.72-4.79l-4-13.31c-16.84,1.68-33.56,2.17-50.15,4.65Zm34.51-78.18c-.89.05-1.56.11-2.23.11-8.26,0-16.52,0-24.78,0a176.84,176.84,0,0,0-18.13.59,1.32,1.32,0,0,0-.36.13v10.8h46Zm-96.31,11.56h40.83c0-3.07-.07-6.13,0-9.18,0-1.16-.24-1.64-1.45-1.69-3.7-.14-7.4-.51-11.1-.55-8.26-.09-16.51,0-24.77,0-2.61,0-2.62-.05-2.84,2.58C395.94,482.07,395.72,485,395.48,488.06Zm77.59,1.58c.29,2.31.52,4.44.83,6.56.59,4,1.26,7.95,3.1,11.6a9.84,9.84,0,0,0,5.85,5.18,24.09,24.09,0,0,0,12.49,1.08,5.69,5.69,0,0,0,0-.83c-.93-7.51-1.89-15-2.78-22.52-.11-.9-.4-1.11-1.24-1.1-4.31,0-8.61,0-12.92,0Zm-63.72-.11a1,1,0,0,0-.31-.1l-12.93,0c-.65,0-.79.3-.81.87-.21,7.21-.45,14.42-.66,21.63,0,.63.1,1.26.14,1.83.71-.08,1.33-.12,1.94-.22a45.9,45.9,0,0,0,5.38-1,7.48,7.48,0,0,0,5.4-5.7A62.32,62.32,0,0,0,409.34,494C409.42,492.49,409.35,491,409.35,489.53Zm28.39-12.19v1.49c0,2.75,0,5.51,0,8.26,0,6.82,0,13.64,0,20.46,0,.43.11,1.12.39,1.25,2.13,1,4.31,2,6.67,3V477.34Z" transform="translate(-390.16 -475.05)"/><path d="M443.5,482.71a2.24,2.24,0,0,1-2.15,2.26,2.42,2.42,0,0,1-.3-4.79A3.05,3.05,0,0,1,443.5,482.71Zm-2.29-1.19-.48.22c-.41.66-.47,1.35.26,1.81.2.13.7-.19,1.06-.31Z" transform="translate(-390.16 -475.05)"/></g></svg>