<svg id="스커트" xmlns="http://www.w3.org/2000/svg" viewBox="0 0 148.89 111.77"><defs><style>.cls-1{fill:#fff;}</style></defs><g id="색"><path class="cls-1" d="M467,569.91c-2.28.27-4.49.58-6.71.77a192.94,192.94,0,0,1-24.16.77c-1,0-1.33-.28-1.41-1.33-1.13-16.42-1.12-32.87-1.41-49.32q-.36-21-.7-41.91c0-.47,0-.94,0-1.5.49,0,.87-.07,1.26-.07,6.63,0,13.26,0,19.89,0,1.07,0,1.28.34,1.39,1.34.86,7.81,1.74,15.62,2.73,23.41,1,7.95,2.17,15.88,3.24,23.82q1.51,11.32,3,22.65C465.08,555.58,466,562.65,467,569.91Z" transform="translate(-368.92 -463.04)"/><path class="cls-1" d="M501.71,564.48a129.49,129.49,0,0,1-32.86,7.84c-.66-4.38-1.37-8.74-2-13.11-1.28-9.52-2.5-19.05-3.77-28.58-1.21-9.08-2.51-18.16-3.67-27.25-1-8.15-1.95-16.31-2.9-24.47-.16-1.36.09-1.59,1.49-1.59,5.55,0,11.1,0,16.65,0a1.3,1.3,0,0,1,1.53,1.19c3.08,12.18,6.09,24.37,9.32,36.51,3.55,13.37,7.1,26.76,12.07,39.7,1.06,2.74,2.36,5.38,3.52,8.08C501.37,563.31,501.51,563.88,501.71,564.48Z" transform="translate(-368.92 -463.04)"/><path class="cls-1" d="M400.28,568.71c.4-2.2.84-4.3,1.17-6.42,1.37-8.79,2.62-17.59,4.08-26.35,1.61-9.68,3.42-19.32,5.12-29q2.49-14.13,4.92-28.28c.13-.77.29-1.38,1.27-1.37,4.64,0,9.27,0,13.9,0a1,1,0,0,1,.29.07c.68,32,1.36,63.92,2,96.08C422.08,573.38,411.05,572.68,400.28,568.71Z" transform="translate(-368.92 -463.04)"/><path class="cls-1" d="M414.33,477.43q-7.59,44.25-15.2,88.5l-5.56-3a165,165,0,0,1-21.76-14.6,1.52,1.52,0,0,1-.6-2c7.74-22.82,16.25-45.36,25.11-67.76.26-.65.46-1.22,1.37-1.22,5.35,0,10.7,0,16.05,0A3.37,3.37,0,0,1,414.33,477.43Z" transform="translate(-368.92 -463.04)"/><path class="cls-1" d="M501.53,561.25c-2.17-6-4.46-11.66-6.32-17.5-6-19-10.88-38.28-15.62-57.61-.64-2.6-1.32-5.18-2-7.76-.23-.83,0-1.07.83-1.07,4.19,0,8.38,0,12.41,0,.21.79.35,1.52.59,2.22,2.2,6.41,4.33,12.85,6.63,19.23q7.26,20.16,14.68,40.25c1,2.77,2.35,5.41,3.48,8.14a1.43,1.43,0,0,1-.17,1.3c-4.52,4.1-9.08,8.16-13.64,12.23C502.21,560.82,502,560.91,501.53,561.25Z" transform="translate(-368.92 -463.04)"/><path class="cls-1" d="M396.31,475.74V464.48h94.74c0,.59,0,1.13,0,1.68q.15,4.13.31,8.25c.06,1.33-.13,1.57-1.44,1.57-4.31,0-8.62-.07-12.92-.07-5.87,0-11.74.08-17.6.09q-12.69,0-25.37,0c-5.37,0-10.74,0-16.11,0a16.46,16.46,0,0,1-2.07-.32,3.38,3.38,0,0,0-.84,0,26,26,0,0,1-2.9.34c-4.27,0-8.55,0-12.82,0C398.31,476,397.32,475.82,396.31,475.74Z" transform="translate(-368.92 -463.04)"/></g><g id="선"><path d="M369.32,546.8a8.76,8.76,0,0,0,.72-1.25c5.68-15.68,11.3-31.38,17-47,2.45-6.67,5.14-13.24,7.73-19.86.07-.18.13-.37.1-.28-.24-.55-.5-.87-.49-1.19.1-4.14.21-8.29.38-12.43.06-1.46.41-1.72,1.85-1.72h94.53c.35,0,.7,0,1.24.08,0,2.79,0,5.54,0,8.28a52.75,52.75,0,0,0,.22,7.86,41.17,41.17,0,0,0,2.21,6.8c4.72,13.31,9.34,26.66,14.22,39.91,2.58,7,5.59,13.92,8.46,20.85a2,2,0,0,1-.55,2.63c-4.67,4.11-9.29,8.3-14,12.39-.71.62-.56,1.07-.23,1.72.67,1.29.45,1.9-1,2.38-3.4,1.14-6.81,2.27-10.24,3.35A119.12,119.12,0,0,1,473,573.13c-1.26.19-2.53.34-3.79.57-1,.2-1.62-.07-1.68-1.21a6.73,6.73,0,0,0-.29-1.23,186.45,186.45,0,0,1-32,1.46c-.55,2.06-.55,2.11-2.78,2.09-10.82-.08-21.53-.91-31.85-4.52a4,4,0,0,0-.81-.21c-.93-.14-1.36-.56-1-1.55.17-.53.25-1-.44-1.4-4.32-2.48-8.67-4.92-12.9-7.54a84.25,84.25,0,0,1-15.31-11.66,8.89,8.89,0,0,0-1.17-.84ZM467,569.91c-1-7.26-1.93-14.33-2.88-21.4q-1.5-11.32-3-22.65c-1.07-7.94-2.23-15.87-3.24-23.82-1-7.79-1.87-15.6-2.73-23.41-.11-1-.32-1.35-1.39-1.34-6.63,0-13.26,0-19.89,0-.39,0-.77,0-1.26.07,0,.56,0,1,0,1.5q.35,21,.7,41.91c.29,16.45.28,32.9,1.41,49.32.08,1,.39,1.3,1.41,1.33a192.94,192.94,0,0,0,24.16-.77C462.52,570.49,464.73,570.18,467,569.91Zm34.7-5.43c-.2-.6-.34-1.17-.58-1.71-1.16-2.7-2.46-5.34-3.52-8.08-5-12.94-8.52-26.33-12.07-39.7-3.23-12.14-6.24-24.33-9.32-36.51a1.3,1.3,0,0,0-1.53-1.19c-5.55,0-11.1,0-16.65,0-1.4,0-1.65.23-1.49,1.59.95,8.16,1.86,16.32,2.9,24.47,1.16,9.09,2.46,18.17,3.67,27.25,1.27,9.53,2.49,19.06,3.77,28.58.59,4.37,1.3,8.73,2,13.11A129.49,129.49,0,0,0,501.71,564.48Zm-101.43,4.23c10.77,4,21.8,4.67,32.79,4.77-.68-32.16-1.36-64.11-2-96.08a1,1,0,0,0-.29-.07c-4.63,0-9.26,0-13.9,0-1,0-1.14.6-1.27,1.37q-2.44,14.15-4.92,28.28c-1.7,9.66-3.51,19.3-5.12,29-1.46,8.76-2.71,17.56-4.08,26.35C401.12,564.41,400.68,566.51,400.28,568.71Zm14.05-91.28a3.37,3.37,0,0,0-.59-.11c-5.35,0-10.7,0-16.05,0-.91,0-1.11.57-1.37,1.22-8.86,22.4-17.37,44.94-25.11,67.76a1.52,1.52,0,0,0,.6,2,165,165,0,0,0,21.76,14.6l5.56,3Q406.75,521.61,414.33,477.43Zm87.2,83.82c.51-.34.68-.43.83-.56,4.56-4.07,9.12-8.13,13.64-12.23a1.43,1.43,0,0,0,.17-1.3c-1.13-2.73-2.46-5.37-3.48-8.14q-7.41-20.1-14.68-40.25c-2.3-6.38-4.43-12.82-6.63-19.23-.24-.7-.38-1.43-.59-2.22-4,0-8.22,0-12.41,0-.81,0-1.06.24-.83,1.07.72,2.58,1.4,5.16,2,7.76,4.74,19.33,9.58,38.64,15.62,57.61C497.07,549.59,499.36,555.3,501.53,561.25ZM396.31,475.74c1,.08,2,.22,3,.23,4.27,0,8.55,0,12.82,0a26,26,0,0,0,2.9-.34,3.38,3.38,0,0,1,.84,0,16.46,16.46,0,0,0,2.07.32c5.37,0,10.74,0,16.11,0q12.68,0,25.37,0c5.86,0,11.73-.08,17.6-.09,4.3,0,8.61,0,12.92.07,1.31,0,1.5-.24,1.44-1.57q-.17-4.12-.31-8.25c0-.55,0-1.09,0-1.68H396.31Z" transform="translate(-368.92 -463.04)"/></g></svg>