<svg id="슬렉스" xmlns="http://www.w3.org/2000/svg" viewBox="0 0 128.35 118.41"><defs><style>.cls-1{fill:#fff;}</style></defs><g id="색"><path class="cls-1" d="M520.08,595.2H499.24c-6.92-17-13.78-34-18.93-51.68-2.68-9.18-5.81-18.24-8.76-27.35-.08-.25-.36-.44-.55-.66l-.36.18c.31,1.37.53,2.78,1,4.12,3.41,10.68,6.93,21.32,10.28,32,4.49,14.34,10.26,28.19,15.8,42.13.16.4.24.83.36,1.24H471.45c-.63-1.59-1.28-3.17-1.89-4.77-6.54-17.11-11.91-34.6-17-52.18-1.84-6.4-3.33-12.89-4.94-19.35-.46-1.83-.79-3.68-1.21-5.7a126.29,126.29,0,0,0,20.67,4.36,11.69,11.69,0,0,0-3.18-1.2c-3.77-.85-7.56-1.61-11.33-2.48-3-.69-2.95-.75-3-3.8q0-10.35-.1-20.71c0-.46.05-.91.08-1.44,5.5,0,10.85,0,16.19,0,1,0,1.25.29,1.35,1.26q1.16,10.59,2.46,21.16c.19,1.62.59,3.22.89,4.83l.59-.09c-.33-4.49-1.19-8.94-1.64-13.42s-1-9.07-1.5-13.64h24.73c.05.29.09.52.12.75.44,3.52.66,7.08,1.35,10.56,1.41,7.11,3.08,14.18,4.61,21.27,3.91,18.06,8.86,35.84,14.42,53.46C515.4,581.12,517.77,588.15,520.08,595.2Z" transform="translate(-393.17 -476.79)"/><path class="cls-1" d="M452.77,595.2H415.4c0-.32,0-.64,0-1-1.46-9.86-3-19.72-4.37-29.59-.94-6.67-2-13.34-2.51-20-.81-11-1.22-22.06-1.73-33.1-.23-5.06-.29-10.13-.39-15.2-.05-2.74,0-5.48,0-8.32H439v22l-1.47-.41c-1.95-.58-3.89-1.19-5.85-1.73-.25-.07-.6.19-.9.3a6,6,0,0,0,.65.58,1.94,1.94,0,0,0,.56.18c4.05,1.21,8.09,2.41,12.12,3.66a1.52,1.52,0,0,1,.91.84c.58,2.52,1,5.09,1.61,7.58,2.09,8,4.27,15.94,6.38,23.92a8.78,8.78,0,0,1,.39,2.58c-.11,3.71-.38,7.41-.46,11.12q-.3,14.17-.47,28.36C452.47,589.71,452.67,592.45,452.77,595.2Z" transform="translate(-393.17 -476.79)"/><path class="cls-1" d="M414.44,595.2h-12.7c-.35-2.93-.68-5.86-1.05-8.78-.91-7.24-2-14.46-2.71-21.72-1.06-10.83-2-21.67-2.73-32.53-.85-13.27-1-26.56-.66-39.85,0-1.43.18-2.85.27-4.31h10.38c0,.38.08.69.09,1,.23,10,.44,20,.71,30,.13,4.83.24,9.66.57,14.48.59,8.83,1.32,17.65,2.74,26.4s2.55,17.28,3.79,25.92C413.59,589,414,592.08,414.44,595.2Z" transform="translate(-393.17 -476.79)"/><path class="cls-1" d="M448.55,488v24.83c-2.71-.81-5.31-1.56-7.88-2.38a1.14,1.14,0,0,1-.55-.87c-.06-.87,0-1.76,0-2.63q0-8.74-.08-17.48c0-.47,0-.93,0-1.47Z" transform="translate(-393.17 -476.79)"/><path class="cls-1" d="M439.08,478.53c0,2.6,0,5.15,0,7.7,0,.93-.62.77-1.15.77H426.08c-2.67,0-5.35,0-8,0-.86,0-1.21-.19-1.18-1.13.06-2.19,0-4.39,0-6.58,0-.63.13-1,.86-.95q10.41,0,20.83,0A2.68,2.68,0,0,1,439.08,478.53Z" transform="translate(-393.17 -476.79)"/><path class="cls-1" d="M491.69,478.46c.3,2.85.58,5.58.87,8.43h-20.5v-8.43Z" transform="translate(-393.17 -476.79)"/><path class="cls-1" d="M449.6,486.86v-8.4h17.72c0,2.72,0,5.34,0,8,0,.21-.51.61-.78.61-5.5,0-11,0-16.49,0A2.65,2.65,0,0,1,449.6,486.86Z" transform="translate(-393.17 -476.79)"/><path class="cls-1" d="M394.82,486.72l.43-8.27h15.89c0,2.71,0,5.37,0,8,0,.17-.41.49-.63.49-5.14,0-10.29,0-15.43-.06C395,486.91,395,486.87,394.82,486.72Z" transform="translate(-393.17 -476.79)"/><path class="cls-1" d="M440.1,487v-8.62h5.75c2.78,0,2.78,0,2.78,2.83,0,1.64,0,3.28,0,4.91,0,.3-.4.84-.63.84C445.39,487,442.8,487,440.1,487Z" transform="translate(-393.17 -476.79)"/><path class="cls-1" d="M412.18,478.43h3.74v8.48h-3.74Z" transform="translate(-393.17 -476.79)"/><path class="cls-1" d="M468.33,487v-8.53h2.72c0,2.68,0,5.29,0,7.91,0,.21-.39.56-.64.6A17.11,17.11,0,0,1,468.33,487Z" transform="translate(-393.17 -476.79)"/></g><g id="선"><path d="M414.44,595.2c-.43-3.12-.85-6.23-1.3-9.35-1.24-8.64-2.39-17.3-3.79-25.92s-2.15-17.57-2.74-26.4c-.33-4.82-.44-9.65-.57-14.48-.27-10-.48-20-.71-30,0-.31-.05-.62-.09-1H394.86c-.09,1.46-.24,2.88-.27,4.31-.31,13.29-.19,26.58.66,39.85.69,10.86,1.67,21.7,2.73,32.53.72,7.26,1.8,14.48,2.71,21.72.37,2.92.7,5.85,1.05,8.78H400.3c-.68-5.74-1.38-11.48-2-17.22-.78-6.69-1.56-13.39-2.28-20.08-.54-5-1.08-10.08-1.47-15.12s-.75-10.36-.88-15.54c-.26-10-.47-19.95-.46-29.93,0-6.18.45-12.36.71-18.54,0-.51.12-1,.21-1.68H396l70.42,0h24.15a2.53,2.53,0,0,0,1.07,0c1.24-.62,1.34,0,1.44,1.06.47,4.88,1,9.74,1.53,14.62,1.18,11.55,4.4,22.69,6.95,34a650.84,650.84,0,0,0,19.37,66.6c.22.64.41,1.28.62,1.93h-1.44c-2.31-7.05-4.68-14.08-6.91-21.15-5.56-17.62-10.51-35.4-14.42-53.46-1.53-7.09-3.2-14.16-4.61-21.27-.69-3.48-.91-7-1.35-10.56,0-.23-.07-.46-.12-.75H467.94c.51,4.57,1.05,9.1,1.5,13.64s1.31,8.93,1.64,13.42l-.59.09c-.3-1.61-.7-3.21-.89-4.83q-1.29-10.57-2.46-21.16c-.1-1-.37-1.27-1.35-1.26-5.34,0-10.69,0-16.19,0,0,.53-.08,1-.08,1.44q0,10.35.1,20.71c0,3.05,0,3.11,3,3.8,3.77.87,7.56,1.63,11.33,2.48a11.69,11.69,0,0,1,3.18,1.2,126.29,126.29,0,0,1-20.67-4.36c.42,2,.75,3.87,1.21,5.7,1.61,6.46,3.1,13,4.94,19.35,5.08,17.58,10.45,35.07,17,52.18.61,1.6,1.26,3.18,1.89,4.77H470c-1.06-2.71-2.23-5.39-3.15-8.14-3.91-11.65-7.75-23.32-11.61-35-.12-.36-.26-.72-.39-1.08-.55,6.67-1,13.29-1.07,19.9-.06,8.1.25,16.2.4,24.3h-1.43c-.1-2.75-.3-5.49-.27-8.24q.17-14.18.47-28.36c.08-3.71.35-7.41.46-11.12a8.78,8.78,0,0,0-.39-2.58c-2.11-8-4.29-15.93-6.38-23.92-.65-2.49-1-5.06-1.61-7.58a1.52,1.52,0,0,0-.91-.84c-4-1.25-8.07-2.45-12.12-3.66a1.94,1.94,0,0,1-.56-.18,6,6,0,0,1-.65-.58c.3-.11.65-.37.9-.3,2,.54,3.9,1.15,5.85,1.73L439,510V488H406.37c0,2.84,0,5.58,0,8.32.1,5.07.16,10.14.39,15.2.51,11,.92,22.09,1.73,33.1.49,6.71,1.57,13.38,2.51,20,1.4,9.87,2.91,19.73,4.37,29.59,0,.31,0,.63,0,1ZM448.55,488h-8.5c0,.54,0,1,0,1.47q0,8.73.08,17.48c0,.87-.07,1.76,0,2.63a1.14,1.14,0,0,0,.55.87c2.57.82,5.17,1.57,7.88,2.38Zm-9.47-9.48a2.68,2.68,0,0,0-.5-.14q-10.41,0-20.83,0c-.73,0-.86.32-.86.95,0,2.19.05,4.39,0,6.58,0,.94.32,1.14,1.18,1.13,2.67,0,5.35,0,8,0h11.86c.53,0,1.16.16,1.15-.77C439.06,483.68,439.08,481.13,439.08,478.53Zm52.61-.07H472.06v8.43h20.5C492.27,484,492,481.31,491.69,478.46Zm-42.09,8.4a2.65,2.65,0,0,0,.42.12c5.5,0,11,.06,16.49,0,.27,0,.77-.4.78-.61,0-2.62,0-5.24,0-8H449.6Zm-54.78-.14c.17.15.2.19.23.19,5.14,0,10.29.06,15.43.06.22,0,.63-.32.63-.49,0-2.66,0-5.32,0-8H395.25Zm45.28.27c2.7,0,5.29,0,7.87,0,.23,0,.62-.54.63-.84.06-1.63,0-3.27,0-4.91,0-2.83,0-2.83-2.78-2.83H440.1Zm-27.92-8.56v8.48h3.74v-8.48ZM468.33,487a17.11,17.11,0,0,0,2.05,0c.25,0,.64-.39.64-.6.05-2.62,0-5.23,0-7.91h-2.72Z" transform="translate(-393.17 -476.79)"/><path d="M498,595.2c-.12-.41-.2-.84-.36-1.24-5.54-13.94-11.31-27.79-15.8-42.13-3.35-10.7-6.87-21.34-10.28-32-.43-1.34-.65-2.75-1-4.12l.36-.18c.19.22.47.41.55.66,2.95,9.11,6.08,18.17,8.76,27.35,5.15,17.66,12,34.68,18.93,51.68Z" transform="translate(-393.17 -476.79)"/></g></svg>