<svg id="남자_이미지" data-name="남자 이미지" xmlns="http://www.w3.org/2000/svg" viewBox="340 100 225 225"><defs><style></style></defs><g id="선" stroke="#FFFFFF" stroke-width="1"><path fill="white" d="M557.94,230a1.13,1.13,0,0,0-.91-.35,9.3,9.3,0,0,1-8.27-2.78,52.52,52.52,0,0,1-3.5-4A63.76,63.76,0,0,1,535,204.6c-3.72-10.63-8.06-21-10.66-32a5,5,0,0,0-2.24-3.31c-13.7-9.38-28.66-16.1-44.26-21.53-8.3-2.9-16.74-5.05-25.6-5.06l-1,0a1.77,1.77,0,0,0-2,1.29c-.06.18-.39.27-.59.4-4.43,2.93-8.87,5.84-13.27,8.82-.94.63-1.7,1-2.8.35a9.29,9.29,0,0,0-2.61-.85,77.3,77.3,0,0,0-22.15-1.4,13.35,13.35,0,0,0-10.13,5.8,10.05,10.05,0,0,0-.79,1.06c-2.48,4.28-5.36,8.39-7.33,12.9-4.26,9.73-8.11,19.63-12.78,29.19-2.68,5.48-4.94,11.18-8.29,16.33-3.56,5.47-7.82,10.11-14,12.64a1.61,1.61,0,0,0-.79.5,3,3,0,0,0-.58,1.29.77.77,0,0,0,0,.15c.1.4.72.76,1.18.94a3.58,3.58,0,0,0,1.43.09,53.36,53.36,0,0,0,18.4-4c.35-.15.71-.26,1.09-.39,0,.17.07.26,0,.32-2.1,4.71-4.54,9.18-8.82,12.33-.61.46-1.3,1-.93,1.87s1.26.8,2.07.62l12.17-2.6,4-.9c.47,1.35.84,2.57,1.31,3.75,1.94,5,3.92,9.88,5.88,14.81a31.88,31.88,0,0,1,2.09,15.16c-.32,3.14-1.18,5.79-4.06,7.56a6,6,0,0,0-2.65,4.26c-.82,4.91,1.17,8.16,5.83,10.12a74.32,74.32,0,0,0,9.74,3.28c3.22.87,6.54,1.38,9.92,2.07,0,.58.08,1.25.14,1.92.41,4.91,2.82,8.49,7.37,10.32a89.21,89.21,0,0,0,9.25,2.87c2.09.59,4.23,1,6.4,1.54-.08.48-.16.75-.18,1-.25,3.14-1.28,5.83-4.19,7.5a1.2,1.2,0,0,0-.38,1.1c.1.29.63.52,1,.6a3.25,3.25,0,0,0,1.18-.13,48.59,48.59,0,0,0,11.73-3.82c.48.91,1,1.82,1.46,2.8a43.45,43.45,0,0,1,2.7,11.63,1.33,1.33,0,0,1-.71,1,19,19,0,0,1-3.21.93A108,108,0,0,1,426,341.19a90.33,90.33,0,0,0-17.74,1.65c-7.22,1.58-13.45,4.78-17.31,11.36a39.77,39.77,0,0,0-5.15,22.46,100.34,100.34,0,0,0,3.61,20.62c1,3.81,2.27,7.57,2.9,11.44,2.13,13.09,4.4,26.14,7.48,39,1.39,5.82,2.93,11.62,4.09,17.49,1.3,6.58,2.2,13.23,3.35,19.84a13.22,13.22,0,0,1-.41,6.45c-1.87,5.94-3.81,11.88-5.18,17.95-.86,3.81-.85,7.83-1.06,11.77-.27,5.19-.35,10.39-.57,15.58-.36,8.42-1,16.84-1.08,25.26-.09,11,.26,22.06.43,33.09h1.92c-.18-6.23-.53-12.46-.5-18.69q.09-15.82.58-31.65c.25-8.66.79-17.32,1.12-26A43.92,43.92,0,0,1,404,507.53c4.39-14.32,8.72-28.66,13.21-42.94,2.29-7.28,4.9-14.45,7.36-21.67.07-.19.12-.45.26-.52,1.5-.74.7-1.54.11-2.38-3.82-5.52-8-10.83-11.38-16.6A170.58,170.58,0,0,1,394.06,375c-.85-3.69-1.6-7.41-2.47-11.1-.1-.41-.68-.7-1-1.05-.26.44-.55.86-.77,1.31-.07.15.05.39.09.58,1,4.32,1.95,8.65,3,13a171.22,171.22,0,0,0,20,48.16c3,5,6.61,9.61,9.93,14.4.22.33.51.81.43,1.11-.46,1.57-1,3.1-1.55,4.64q-5.64,16.76-11.26,33.51c-.48,1.43-.91,2.88-1.39,4.41a1.93,1.93,0,0,1-.26-.39c-.06-.28-.08-.56-.13-.83-1.63-9-2.55-18.08-5-26.92-1.59-5.73-3-11.54-4.07-17.38-2.53-13.33-4.78-26.72-7.25-40.07-.78-4.23-1.83-8.42-2.85-12.61-.32-1.3-1.14-2.49-1.35-3.79a44.68,44.68,0,0,1,.78-18c0-.18.08-.37.13-.55,2.62-10.23,8.9-16.51,19.26-18.73A96,96,0,0,1,425,343.07c5.23-.19,10.45-.48,15.66-.94a55.75,55.75,0,0,0,8.06-1.5c.76-.18,1.79-.72,1.65-1.9a48.29,48.29,0,0,0-2.86-13.06,15.71,15.71,0,0,0-9.27-9.31,51.41,51.41,0,0,0-6.75-2c-4.29-1-8.65-1.73-12.44-4.09a12.77,12.77,0,0,1-3.48-3.19,10.64,10.64,0,0,1-1.78-6.45c.33,0,.53,0,.72,0a79.22,79.22,0,0,0,23.95-1.14A63.54,63.54,0,0,0,452.81,295c.6-.28,1.22-.67.86-1.45s-1-.49-1.65-.23c-1.55.63-3.08,1.34-4.67,1.85a77.79,77.79,0,0,1-32.14,3.55,71.17,71.17,0,0,1-17.52-3.66,52,52,0,0,1-6.55-2.94c-4.14-2.27-4-8.51-.58-10.34a10.45,10.45,0,0,0,2.55-2.34,4.59,4.59,0,0,0,1.1-2,34.84,34.84,0,0,0-1.77-21c-2-4.9-3.95-9.86-5.89-14.81-.36-.91-.62-1.86-.91-2.77a4.12,4.12,0,0,1,.44-.26,36.18,36.18,0,0,0,15-10.25,5,5,0,0,1,1.85-1.24A92.74,92.74,0,0,1,419.71,223c1-.19,1.43-.59,1.46-1.64,0-1.71.22-3.43.36-5.14.21-2.48.19-2.57-2.1-2.12s-4.43,1-6.63,1.57c-1.14.29-2.25.69-3.52,1.09a5.63,5.63,0,0,1,.23-.61c2.94-5.32,4.68-11.09,6.51-16.85a28.76,28.76,0,0,1,2.91-6.11,9,9,0,0,1,7-4.56c2.23-.21,4.5,0,6.76,0a2.07,2.07,0,0,0,1.08-.24c2.69-1.79,5.35-3.62,8-5.41a4.11,4.11,0,0,1,1.25-.33,20.29,20.29,0,0,1-1.16,2.5,2,2,0,0,0,0,1.61c.2.29,1,.35,1.47.24a12.21,12.21,0,0,0,2.12-.82l4.76-2c-.26.51-.35.71-.45.9-.67,1.25-.42,2,.87,2.58.55.24,1.14.38,1.7.58,1.92.67,3.86,1.28,5.74,2.05a2.19,2.19,0,0,1,1.1,1.35c1.05,4.75,2,9.53,3,14.3.55,2.64,1.14,5.28,1.74,8.05-.41-.06-.68-.09-.94-.14-4.41-1-8.88-.86-13.35-.72-1.44,0-1.72.38-1.68,1.84s.16,3,.15,4.56c0,3.48.81,3.09,3.56,3.15,4.46.09,8.92.44,13.38.67,1,0,1.4.53,1.67,1.48A90.29,90.29,0,0,0,473.62,243a1.45,1.45,0,0,1,.09.47c-2.62.42-5.18.86-7.74,1.23-5.18.75-10.36,1.44-15.53,2.21a2.53,2.53,0,0,0-1.64,1c-2.82,4.95-1.91,9.58,2.68,13a21.06,21.06,0,0,0,29.73-4.84c.22-.31.45-.62.72-1,.27.25.47.43.67.63a46.14,46.14,0,0,0,21.9,12,2.18,2.18,0,0,0,1.17.11,4.3,4.3,0,0,0,1.88-1.06c.17-.21-.43-1.11-.77-1.64s-.92-1.11-1.3-1.71a6.34,6.34,0,0,1-1.18-3.88l4,2.46a10.89,10.89,0,0,0-1,2.41c-.07.4.52.92.82,1.38.33-.35.7-.68,1-1.06s.6-1.3,1.07-1.47c1.37-.48,2.68-1.38,4-1.62,6.5-1.16,11.94,5.85,12.15,10a15.4,15.4,0,0,1-9.16,14.51c-3.94,1.63-8.89.55-11.42-2.52a2.17,2.17,0,0,1-.5-1c-.15-1.18-.67-1.55-1.73-.95a22,22,0,0,0-3.06,2.09A60.76,60.76,0,0,0,489.64,295c-5.91,8.13-8.25,17.53-9.89,27.19a11.61,11.61,0,0,0,.13,2.1c0,2.15-.1,4.32,0,6.47.1,2.42.38,4.82.62,7.6a14.5,14.5,0,0,1,2.55-1c8.17-1.39,16.22-3.59,24.55-4,4.79-.21,9.57-.55,14.35-.52a8.47,8.47,0,0,1,8.19,5.44,36.68,36.68,0,0,1,1.94,5.78c2.82,11.55,4.22,23.32,5.53,35.11,1.1,9.84,2.24,19.68,3.32,29.52a330,330,0,0,0,6,35.52c1.4,6.28,1.35,12.29-1,18.22-1.14,2.89-2.76,5.58-4,8.42-3.88,8.68-7.76,17.36-11.51,26.09-4.08,9.51-8,19.08-12,28.62-.16.38-.34.75-.64,1.39-.13-.54-.2-.76-.24-1q-2.17-14.44-4.37-28.89c-.37-2.46-1-4.79-.37-7.41a417.7,417.7,0,0,1,12-40.54A6.32,6.32,0,0,0,525,446c-.41-2.13-1.14-4.21-1.65-6.33-3.26-13.3-6.45-26.61-8.85-40.11-1.42-8-3.34-15.94-5.18-23.87-1.24-5.33-4.23-9.78-7.69-13.94-.19-.23-.66-.24-1-.36,0,.36-.22.81-.07,1.05a20,20,0,0,0,1.75,2.43,26.46,26.46,0,0,1,5.1,9.3,82,82,0,0,1,2.37,8.41c1.81,8.88,3.29,17.83,5.22,26.68,2.62,12.05,5.53,24,8.35,36.05a4.87,4.87,0,0,1-.12,2.78c-2.79,8.59-5.58,17.17-8.25,25.79-1.18,3.85-2.06,7.8-3.1,11.7-.43,1.61-.93,3.2-1.37,4.8a3.9,3.9,0,0,0-.24,1.66c2.43,11.62,4,23.36,5.51,35.12a14.67,14.67,0,0,1,.36,3.2c-.09,1-.84,1.93.44,2.66.12.07.11.37.13.57.8,5.61,1.62,11.22,2.38,16.84,1.63,12,3.62,23.83,6.2,35.61.67,3,1.19,6.11,1.78,9.16H529c0-.24,0-.48,0-.71-2.22-11.56-4.62-23.1-6.62-34.7-1.55-9-2.54-18.11-3.91-27.15a10,10,0,0,1,.9-5.86c1.71-3.78,3.19-7.67,4.76-11.51l6.06-14.74.56.59c1.63-3.44,3.51-6.73,4.79-10.23a133.56,133.56,0,0,1,8.06-18,49.89,49.89,0,0,0,2.75-5.71,73.54,73.54,0,0,0,2.46-7.76c.88-3.4,1.81-6.79,1.09-10.4-1.8-9-3.83-17.9-5.15-26.93-1.91-12.95-3.31-26-4.85-39-1.27-10.73-2-21.53-4.38-32.1-.94-4.12-1.87-8.26-3.15-12.28a10.32,10.32,0,0,0-8.43-7.48,22,22,0,0,0-4-.36A148.84,148.84,0,0,0,488,334.55c-1.92.44-3.88.7-6.13,1.1V323.41c1.87-.15,3.7-.29,5.52-.45a14.43,14.43,0,0,0,7-2.48,1.36,1.36,0,0,0,.52-1.16c-.09-.32-.67-.62-1.07-.69-.94-.17-1.92-.1-2.85-.29-4.85-1-7.32-5.91-5.84-10.57,3-9.51,9.18-16.91,17-23,.46-.36,1-.67,1.44-1a11.88,11.88,0,0,0,15,3.72,16.86,16.86,0,0,0,9.41-13,11.36,11.36,0,0,0-2.45-9.32c-.72-.9-1.51-1.74-2-2.34a12.92,12.92,0,0,0,0-2.37c-.42-2.1-1.13-4.17-.67-6.4a3.82,3.82,0,0,1,.61,0c6.8,2,13.46.43,20.12-.82a14.29,14.29,0,0,0,3-1.67l.11-.1c.14-.25.07-.32-.13-.65a23.92,23.92,0,0,0-2.18-1.68l-.82-.58c-3-2-5.65-4.42-7.15-7.88.35-.08.66-.16,1-.2,7.41-.92,13.71-4.35,19.59-8.7a3,3,0,0,0,.89-.78,1.44,1.44,0,0,0,.17-.69A.94.94,0,0,0,557.94,230ZM442.75,321.63c-.91.92-5.82,2.77-7.79,3l2.08-6.75A13.36,13.36,0,0,1,442.75,321.63Zm47.69-1.48c0,.15,0,.31,0,.46l-8.58,1c.46-2.74.89-5.28,1.32-7.82l.29-.1A9.58,9.58,0,0,0,490.44,320.15ZM418.73,216a4.07,4.07,0,0,1,.94,0c-.11,1.55-.19,3.06-.36,4.55a1.06,1.06,0,0,1-.68.64q-7,1.68-13.95,3.31c-.06,0-.15,0-.28-.05,1.1-1.72,2.18-3.43,3.27-5.12a.9.9,0,0,1,.49-.31Q413.44,217.53,418.73,216Zm-.32-25.28-.35-.31,1.09-1.76a2.22,2.22,0,0,0,.36-.6,4,4,0,0,1,3.61-3.07,8.3,8.3,0,0,1,5.23,1.37C424.29,186.64,420.91,187.7,418.41,190.75Zm1.67-6.75c.83-2,1.72-3.81,3.6-4.86a2.34,2.34,0,0,1,2.81.11,19.41,19.41,0,0,1,4.83,6.88C427.79,183.51,424.35,182.09,420.08,184Zm14.54.95c.82-1.51,1.52-3,2.39-4.34a23.46,23.46,0,0,1,7.44-7.81,13.4,13.4,0,0,1,4.61-1.84c3.22-.52,6,2,6.73,5.8-4-.26-7.55,1-11,2.73S438.16,183,434.62,185Zm16.93,1a5.35,5.35,0,0,0,.6-1.48,3.06,3.06,0,0,0-.29-2,2.17,2.17,0,0,0-1.85-.18c-1.43.45-2.81,1.1-4.21,1.67l-1.28.49c1.07-2.18,1.82-4.34,4.49-4.77,2-.32,4-.82,6-1.1a1.58,1.58,0,0,1,1.95,1.52c.46,2.66,1.11,5.29,1.72,8.1ZM450,220.54V215a6,6,0,0,1,.95-.17,48.86,48.86,0,0,1,12.36.93,1.53,1.53,0,0,1,1.4,1.34c.25,1.41.61,2.8.92,4.17Zm30.15,33.62c-3.8,5.81-9.2,8.78-14.36,8.94-5.4,0-8.85-.84-11.9-2.82a15.24,15.24,0,0,1-3.65-3.38c-1.79-2.31-1.52-4.88-.22-7.33a2.46,2.46,0,0,1,1.64-.94c5.63-.85,11.28-1.62,16.93-2.43,1.77-.26,3.55-.53,5.31-.87a1.16,1.16,0,0,1,1.37.6c1.58,2.35,3.23,4.66,4.8,7A1.39,1.39,0,0,1,480.19,254.16Zm56.36-15.4c-1.33.15-1.5.37-1.22,1.61,0,.14.08.35,0,.42-.81.82-.29,1.57.12,2.29a21.45,21.45,0,0,0,7.42,7.34l.3.18c.38.22,1,.61,1.5.86l-1.42.09c-1.46.16-2.91.46-4.36.76-5.39,1.11-10.76,1.41-16.1-.24a3.19,3.19,0,0,0-1.18-.14c-.87.07-1.14.63-.76,1.41a2,2,0,0,1,.17.81,26.32,26.32,0,0,0,0,3.2c.15,1.35.52,2.67.84,4.18l-1.26-.66c-2.6-1.3-5.36-1.88-8.1-.8a4.69,4.69,0,0,1-4.62-.57c-1.28-.85-2.41-1.94-3.62-2.9a13.27,13.27,0,0,0-1.18-.77c-.25.45-.68.9-.72,1.37a11.15,11.15,0,0,0,1.91,7.74,6.52,6.52,0,0,1,.43.72c-8.51-2.21-16.14-5.89-21.88-12.63a68.24,68.24,0,0,1-6.07-8.69,64.61,64.61,0,0,1-4.38-8.62,133.54,133.54,0,0,1-6.55-22.27c-1.86-8.38-3.56-16.79-5.32-25.19-.44-2.11-.7-4.27-1.29-6.34a71.36,71.36,0,0,0-2.93-8.83,6.67,6.67,0,0,0-5.72-4,10.46,10.46,0,0,0-7,2,28.75,28.75,0,0,0-9.79,11.43c-.34.66-.62,1.36-.95,2.11-.71-1.16-1.31-2.25-2-3.25a25.51,25.51,0,0,0-2.42-3,4.3,4.3,0,0,0-6.14-.57,9.33,9.33,0,0,0-2.55,2.8,24.41,24.41,0,0,0-2.12,5.06c-1,3.45-1.81,7-2.69,10.44-2.85,11.2-7.06,21.72-14.83,30.53a35,35,0,0,1-11.64,9.07c-2.88,1.3-6.1,1.85-9.19,2.7-1.53.42-3.09.75-4.64,1.11s-3.36.75-5.32,1.19c.29-.39.37-.53.47-.63a37.21,37.21,0,0,0,7.86-12.78,2.22,2.22,0,0,0,.25-.92c0-.44-.06-1.05-.34-1.27a1.58,1.58,0,0,0-1.31,0,50.37,50.37,0,0,1-12,4c-2.22.44-4.5.65-6.75,1,0-.36.1-.46.2-.51A32.67,32.67,0,0,0,369.06,219a87.2,87.2,0,0,0,7.84-14.67c3.82-8.71,8.33-17.1,11.58-26.06a78.39,78.39,0,0,1,4.83-10.69A103.69,103.69,0,0,1,400,157.22c2-2.74,4.85-3.93,8.27-4.14a80.28,80.28,0,0,1,14.95.3c3.48.43,7,.81,10.18,2.48,1,.51,1.88.82,2.34-.65.07-.22.4-.37.63-.52l13.18-8.75c.39-.26.73-.61,1.12-.87s.7-.56,1-.54c2.87.15,5.75.23,8.59.58a84.1,84.1,0,0,1,17.8,4.67c12.18,4.34,24.09,9.25,35.12,16.08,2.59,1.59,5.09,3.31,7.68,4.89a2.78,2.78,0,0,1,1.56,1.89c1.49,7,4,13.73,6.46,20.44,2.16,5.88,4.14,11.85,6.69,17.57a54.9,54.9,0,0,0,13.14,18.71,47.22,47.22,0,0,0,4.16,3A35.51,35.51,0,0,1,536.55,238.76Z"/><path fill="white" d="M463.81,562.28A32.47,32.47,0,0,0,450.44,545c-5.79-3.76-11.72-7.31-17.62-10.89a39.63,39.63,0,0,0-4.1-2,1.52,1.52,0,0,0-.9-.26,8.13,8.13,0,0,0-1.35.68c.3.36.53.85.92,1,1.7.88,3.5,1.56,5.16,2.5,3.2,1.81,6.32,3.75,9.48,5.62,5.24,3.11,10.29,6.49,14.27,11.18a46.65,46.65,0,0,1,3.43,5,2.43,2.43,0,0,1,.26,1.37q-.5,13.29-1,26.58c-.12,3.11-.29,6.22-.44,9.33h1.91l1.43-31.33.2-.06c.17.42.35.84.5,1.27l9.84,28.78c.15.45.33.89.5,1.34h1.92c-.72-2.12-1.44-4.24-2.14-6.36C469.72,580,466.79,571.12,463.81,562.28Z"/><path fill="white" d="M417.18,249.59c0-.68-.2-1.16-1-1.22-4.48-.39-9-.75-13.45-1.19-2.86-.29-5.71-.72-8.56-1.05-.67-.08-1.51-.15-1.58.81-.1,1.5-.08,3-.08,4.51,0,6.28,6.08,11,11.69,11.1A13.23,13.23,0,0,0,417.18,249.59ZM413,253.24c-.15-.89-.56-1.62-1.62-1.59s-1.4.7-1.54,1.64c-.39,2.63-.25,3.18,1.35,4.73-3.57,3.52-9.81,3.44-13.71-.12A9.64,9.64,0,0,1,394.4,249c.09-.67.3-1,1.06-.9q9.63,1.09,19.26,2.15c.11,0,.22.08.69.25l-1.83,5.3-.37-.08C413.13,254.9,413.1,254.06,413,253.24Z"/><path fill="white" d="M417.18,261.18c3.7-5.54,5.06-11.85,6-18.28.06-.41-.41-.9-.63-1.35-.39.35-1,.63-1.15,1.07a22,22,0,0,0-.56,3.06c-1,6.28-3.1,12.12-7.14,17.16a13.75,13.75,0,0,1-6.74,4.94c-.76.23-.86.79-.47,1.42a6.07,6.07,0,0,0,.8.89,30.12,30.12,0,0,1,6.73,9.53c.26.63.67,1.29,1.39.83a1.62,1.62,0,0,0,.28-1.52,24.84,24.84,0,0,0-2.16-4.12c-1.36-2-2.89-3.81-4.46-5.83C412.79,267.39,415.06,264.36,417.18,261.18Z"/><path fill="white" d="M510.43,279.63c-.11.32.32.84.5,1.27a4.67,4.67,0,0,0,1.14-.64c.23-.22.26-.65.41-1,.77-1.7,1.54-3.41,2.35-5.09s2.07-2.62,4.08-2.15c.66.16,1.44,0,1.37-.83,0-.38-.74-.94-1.2-1a12.13,12.13,0,0,0-7.16,1.39c-.37.19-.5.84-.74,1.28.44.14.87.31,1.32.42.16,0,.35-.08.7-.18-.25.51-.44.85-.59,1.2C511.86,276.09,511.08,277.84,510.43,279.63Z"/><path fill="white" d="M466.13,250.42c-1.09,1.46-1,5.47.1,6.85a1.43,1.43,0,0,0,2.61-.39,20,20,0,0,0,.56-2.61,35.62,35.62,0,0,0-1.12-3.62A1.16,1.16,0,0,0,466.13,250.42Z"/></g></svg>