<svg id="티" xmlns="http://www.w3.org/2000/svg" viewBox="0 0 140.69 163.64"><defs><style>.cls-1{fill:#fff;}</style></defs><g id="색"><path class="cls-1" d="M397.31,437.2c-.25-1.72-.52-3.44-.74-5.16-.94-7.33-2.14-14.63-2.73-22-.66-8.35-.91-16.75-1.06-25.13a46.75,46.75,0,0,1,2.35-14.37,14.27,14.27,0,0,1,6.79-8.2c5.52-3.29,11.64-4.8,17.92-5.66,5.86-.8,11.73-1.42,17.6-2.06,2.81-.31,5.64-.49,8.6-.74v3a13.7,13.7,0,0,0,1.66,6.68c2.7,4.94,7.2,6.66,12.53,6.59A19.93,19.93,0,0,0,470.65,367c5.21-3.29,10.26-6.8,13.89-11.94.52-.74,1-1.53,1.52-2.35,2.44.6,5,1.32,7.52,1.82,4.86.95,9.72,1.86,14.61,2.63a17.67,17.67,0,0,1,11.34,6.09,41.73,41.73,0,0,1,4.1,6.16c3.06,5.47,4.56,11.47,5.55,17.6a74.23,74.23,0,0,1,.45,19.58c-.43,4.19-1.54,8.3-2.25,12.47a264,264,0,0,1-10.28,39.8c-3.54,10.54-8,20.77-12,31.18-2.48,6.56-4.73,13.22-7.09,19.83a1.49,1.49,0,0,1-.55.77c-.32-2.16-.66-4.31-1-6.46-.86-6-1.84-12-2.52-18-.6-5.38-.88-10.8-1.26-16.21-.18-2.55-.24-5.1-.38-7.65a161.38,161.38,0,0,1,1.45-29.39,226.86,226.86,0,0,1,8.77-40.68c1.3-4.1,3-8.1,4.45-12.14,0-.15.18-.3.17-.44a9.79,9.79,0,0,0-.14-1.07c-.35.17-.82.27-1,.55a7.94,7.94,0,0,0-.79,1.6,146.46,146.46,0,0,0-6.85,20.17,241.79,241.79,0,0,0-6.88,36.69,141.84,141.84,0,0,0-.92,23.67c.23,4.86.6,9.72.91,14.58,0,.23,0,.46,0,.78H396.22c-.08-.89-.2-1.78-.22-2.68a161.11,161.11,0,0,1,1.8-24.82c.76-5.52,1.22-11.09,2.07-16.6,2.94-19.09,5.64-38.23,11-56.86a6.21,6.21,0,0,0,0-1.87,6,6,0,0,0-1.17,1.55,222.36,222.36,0,0,0-7,29.59c-1.67,9.71-3.15,19.46-4.71,29.2-.16,1-.26,2.06-.38,3.08Z" transform="translate(-390.98 -350.65)"/></g><g id="선"><path d="M447.1,351.61c.13,2.42.16,4.49.38,6.55.93,8.85,8.29,11.18,13.88,10.59a21.84,21.84,0,0,0,10.08-3.85c4.48-3.07,9-6.17,12.06-10.79a4.29,4.29,0,0,0,.64-1.92c.13-1.37.53-1.78,1.75-1.42a62.35,62.35,0,0,0,6.43,1.94c5.81,1.08,11.65,2,17.48,2.91,6,1,10.4,4.4,13.48,9.44,1.67,2.73,2.55,5.93,4.18,8.69,1.93,3.29,2.52,7,3.29,10.51a56,56,0,0,1,.92,11.66c0,6.61-1.43,13.06-2.61,19.54s-2.12,13.08-3.46,19.56c-1,4.71-2.4,9.33-3.67,14-3.86,14.17-9.69,27.62-14.86,41.32-2.63,7-5,14-7.54,21.06-.28.78-.62,1.54-.92,2.32s-.84.72-1.25.17a4.19,4.19,0,0,1-.78-1.72c-.52-3.11-1-6.22-1.41-9.35q-1.62-11.87-3.18-23.74c-.11-.88-.45-1.16-1.37-1.16q-46.83,0-93.68,0c-1,0-2-.09-3-.14a5.77,5.77,0,0,1-.11-.83c.14-4.31.1-8.64.5-12.92.54-5.8,1.51-11.55,2.1-17.34a21.39,21.39,0,0,0-.54-5.31c-1.44-9-3-18-4.33-27.07a85.72,85.72,0,0,1-.46-10.4c-.09-4.23,0-8.47-.12-12.7a81.41,81.41,0,0,1,2.2-18.85,16.48,16.48,0,0,1,3.36-6.91,21.17,21.17,0,0,1,3.2-2.82c.43-.35,1-.56,1.42-.89A37.58,37.58,0,0,1,419.73,355c6.29-.69,12.6-1.32,18.89-2.05,1.77-.2,3.51-.68,5.27-1C444.92,351.77,446,351.72,447.1,351.61ZM397.31,437.2l.29,0c.12-1,.22-2.06.38-3.08,1.56-9.74,3-19.49,4.71-29.2a222.36,222.36,0,0,1,7-29.59,6,6,0,0,1,1.17-1.55,6.21,6.21,0,0,1,0,1.87c-5.38,18.63-8.08,37.77-11,56.86-.85,5.51-1.31,11.08-2.07,16.6a161.11,161.11,0,0,0-1.8,24.82c0,.9.14,1.79.22,2.68h95.29c0-.32,0-.55,0-.78-.31-4.86-.68-9.72-.91-14.58a141.84,141.84,0,0,1,.92-23.67,241.79,241.79,0,0,1,6.88-36.69,146.46,146.46,0,0,1,6.85-20.17,7.94,7.94,0,0,1,.79-1.6c.21-.28.68-.38,1-.55a9.79,9.79,0,0,1,.14,1.07c0,.14-.12.29-.17.44-1.5,4-3.15,8-4.45,12.14a226.86,226.86,0,0,0-8.77,40.68,161.38,161.38,0,0,0-1.45,29.39c.14,2.55.2,5.1.38,7.65.38,5.41.66,10.83,1.26,16.21.68,6,1.66,12,2.52,18,.31,2.15.65,4.3,1,6.46a1.49,1.49,0,0,0,.55-.77c2.36-6.61,4.61-13.27,7.09-19.83,3.94-10.41,8.42-20.64,12-31.18A264,264,0,0,0,527.38,419c.71-4.17,1.82-8.28,2.25-12.47a74.23,74.23,0,0,0-.45-19.58c-1-6.13-2.49-12.13-5.55-17.6a41.73,41.73,0,0,0-4.1-6.16,17.67,17.67,0,0,0-11.34-6.09c-4.89-.77-9.75-1.68-14.61-2.63-2.56-.5-5.08-1.22-7.52-1.82-.53.82-1,1.61-1.52,2.35-3.63,5.14-8.68,8.65-13.89,11.94a19.93,19.93,0,0,1-10.42,3.19c-5.33.07-9.83-1.65-12.53-6.59a13.7,13.7,0,0,1-1.66-6.68v-3c-3,.25-5.79.43-8.6.74-5.87.64-11.74,1.26-17.6,2.06-6.28.86-12.4,2.37-17.92,5.66a14.27,14.27,0,0,0-6.79,8.2,46.75,46.75,0,0,0-2.35,14.37c.15,8.38.4,16.78,1.06,25.13.59,7.35,1.79,14.65,2.73,22C396.79,433.76,397.06,435.48,397.31,437.2Z" transform="translate(-390.98 -350.65)"/></g></svg>