<?xml version="1.0" encoding="UTF-8"?>
<svg id="_티" data-name="티" xmlns="http://www.w3.org/2000/svg" viewBox="0 0 595.2 595.2">
  <defs>
    <style>
      .cls-1 {
        fill: #fff;
      }
    </style>
  </defs>
  <g id="_색" data-name="색">
    <path class="cls-1" d="M397.31,437.2c-.25-1.72-.52-3.44-.74-5.17-.94-7.32-2.14-14.63-2.73-21.98-.66-8.35-.92-16.74-1.07-25.12-.09-4.88,.93-9.69,2.35-14.37,1.11-3.68,3.59-6.29,6.79-8.2,5.52-3.29,11.64-4.8,17.92-5.66,5.85-.8,11.73-1.42,17.6-2.06,2.81-.31,5.63-.49,8.6-.74,0,.94,0,1.96,0,2.98,0,2.36,.54,4.62,1.66,6.67,2.7,4.95,7.19,6.67,12.53,6.59,3.75-.06,7.24-1.19,10.41-3.18,5.22-3.29,10.26-6.8,13.89-11.94,.52-.74,.99-1.52,1.53-2.35,2.43,.6,4.96,1.31,7.52,1.82,4.85,.95,9.72,1.86,14.61,2.63,4.53,.71,8.42,2.57,11.34,6.09,1.57,1.89,2.9,4.01,4.1,6.16,3.06,5.47,4.56,11.47,5.55,17.6,1.05,6.5,1.12,13.06,.45,19.58-.43,4.19-1.54,8.3-2.25,12.46-2.31,13.56-5.91,26.81-10.28,39.81-3.54,10.54-8.02,20.76-11.96,31.18-2.48,6.57-4.74,13.22-7.09,19.83-.09,.26-.21,.5-.55,.76-.32-2.15-.66-4.3-.97-6.46-.86-6-1.85-12-2.52-18.02-.6-5.38-.88-10.8-1.26-16.21-.18-2.55-.24-5.1-.38-7.65-.55-9.85,.21-19.63,1.45-29.39,1.75-13.81,4.53-27.41,8.76-40.68,1.31-4.1,2.96-8.09,4.45-12.14,.06-.15,.18-.3,.17-.44-.02-.36-.09-.72-.14-1.07-.35,.18-.82,.27-1.03,.55-.35,.47-.55,1.06-.79,1.6-2.89,6.52-4.94,13.32-6.85,20.17-3.35,12.03-5.4,24.31-6.87,36.69-.94,7.87-1.31,15.76-.93,23.67,.24,4.86,.61,9.72,.91,14.58,.01,.23,0,.47,0,.78h-95.29c-.07-.89-.2-1.78-.21-2.68-.15-8.32,.66-16.58,1.79-24.81,.76-5.52,1.22-11.09,2.07-16.6,2.94-19.09,5.64-38.24,11.03-56.86,.17-.57-.02-1.25-.04-1.88-.4,.52-.98,.97-1.17,1.56-3.08,9.68-5.26,19.59-6.99,29.58-1.68,9.72-3.15,19.47-4.71,29.2-.16,1.02-.26,2.06-.39,3.09-.09,.01-.19,.03-.28,.04Z"/>
  </g>
  <g id="_선" data-name="선">
    <path d="M447.1,351.61c.14,2.42,.17,4.49,.38,6.55,.93,8.85,8.29,11.18,13.88,10.59,3.71-.39,7.04-1.77,10.08-3.85,4.49-3.07,8.97-6.17,12.07-10.79,.36-.54,.57-1.26,.63-1.92,.14-1.37,.53-1.78,1.75-1.42,2.15,.64,4.25,1.54,6.43,1.94,5.8,1.08,11.65,1.95,17.47,2.9,6.01,.98,10.41,4.4,13.49,9.45,1.67,2.73,2.55,5.93,4.17,8.69,1.93,3.29,2.53,6.96,3.29,10.51,.81,3.78,.92,7.76,.92,11.66,0,6.61-1.42,13.07-2.61,19.55-1.19,6.51-2.12,13.08-3.45,19.55-.97,4.71-2.4,9.33-3.67,13.99-3.86,14.16-9.69,27.62-14.86,41.32-2.63,6.98-5.03,14.04-7.54,21.06-.28,.78-.62,1.55-.93,2.32-.32,.8-.84,.73-1.25,.17-.37-.5-.68-1.11-.78-1.72-.51-3.11-.98-6.23-1.41-9.35-1.08-7.91-2.14-15.82-3.17-23.74-.12-.89-.46-1.16-1.37-1.16-31.23,.03-62.46,.02-93.68,.01-.99,0-1.97-.09-2.99-.14-.06-.37-.12-.6-.12-.83,.15-4.31,.11-8.64,.51-12.92,.54-5.8,1.51-11.55,2.09-17.34,.17-1.74-.26-3.55-.54-5.31-1.44-9.02-3.03-18.02-4.33-27.07-.49-3.42-.38-6.93-.46-10.4-.09-4.23-.04-8.47-.12-12.7-.12-6.39,.85-12.63,2.2-18.86,.57-2.65,1.73-4.88,3.35-6.9,.88-1.09,2.1-1.92,3.2-2.82,.43-.35,.97-.56,1.42-.89,5.53-4.06,11.83-6.03,18.56-6.77,6.3-.7,12.6-1.32,18.89-2.05,1.77-.2,3.51-.69,5.27-.98,1.03-.17,2.08-.22,3.21-.34Zm-49.78,85.6c.09-.01,.19-.03,.28-.04,.13-1.03,.22-2.06,.39-3.09,1.56-9.74,3.03-19.49,4.71-29.2,1.72-10,3.91-19.9,6.99-29.58,.19-.58,.77-1.04,1.17-1.56,.02,.63,.21,1.3,.04,1.88-5.38,18.62-8.09,37.77-11.03,56.86-.85,5.51-1.31,11.08-2.07,16.6-1.13,8.24-1.94,16.49-1.79,24.81,.02,.9,.14,1.79,.21,2.68h95.29c0-.32,.01-.55,0-.78-.31-4.86-.68-9.71-.91-14.58-.38-7.91,0-15.81,.93-23.67,1.47-12.38,3.52-24.66,6.87-36.69,1.91-6.85,3.96-13.65,6.85-20.17,.24-.55,.44-1.13,.79-1.6,.21-.28,.68-.37,1.03-.55,.05,.36,.13,.71,.14,1.07,0,.14-.12,.29-.17,.44-1.49,4.04-3.14,8.03-4.45,12.14-4.23,13.27-7.02,26.87-8.76,40.68-1.24,9.76-2,19.54-1.45,29.39,.14,2.55,.2,5.11,.38,7.65,.38,5.41,.65,10.82,1.26,16.21,.68,6.03,1.66,12.02,2.52,18.02,.31,2.15,.64,4.31,.97,6.46,.34-.26,.46-.51,.55-.76,2.36-6.61,4.61-13.27,7.09-19.83,3.94-10.41,8.42-20.63,11.96-31.18,4.37-13,7.97-26.25,10.28-39.81,.71-4.16,1.82-8.28,2.25-12.46,.67-6.52,.61-13.09-.45-19.58-.99-6.13-2.49-12.13-5.55-17.6-1.2-2.15-2.53-4.27-4.1-6.16-2.92-3.52-6.81-5.38-11.34-6.09-4.89-.77-9.75-1.68-14.61-2.63-2.56-.5-5.09-1.22-7.52-1.82-.53,.82-1,1.61-1.53,2.35-3.63,5.14-8.67,8.66-13.89,11.94-3.17,2-6.66,3.13-10.41,3.18-5.34,.08-9.83-1.64-12.53-6.59-1.12-2.06-1.67-4.31-1.66-6.67,0-1.02,0-2.03,0-2.98-2.96,.25-5.79,.43-8.6,.74-5.87,.64-11.75,1.26-17.6,2.06-6.28,.86-12.41,2.37-17.92,5.66-3.21,1.91-5.68,4.52-6.79,8.2-1.42,4.69-2.44,9.49-2.35,14.37,.15,8.38,.4,16.77,1.07,25.12,.58,7.35,1.79,14.66,2.73,21.98,.22,1.73,.49,3.45,.74,5.17Z"/>
  </g>
</svg>