<svg id="블레이저" xmlns="http://www.w3.org/2000/svg" viewBox="0 0 141.7 172.32"><defs><style>.cls-1{fill:#fff;}</style></defs><g id="레이어_23_이미지" data-name="레이어 23 이미지"><path class="cls-1" d="M493.23,389.76l5.09-7.78c.45-.7.89-1.41,1.28-2.15.58-1.08.33-1.67-.89-1.88-3.11-.51-6.22-1-9.34-1.42s-6.17-.68-9.52-1a5.7,5.7,0,0,1,1-.34q9.4-1.45,18.82-2.86c1.25-.19,1.39-.41,1-1.62-1.59-4.85-3.14-9.71-4.78-14.82,2.75.23,5.28.39,7.79.65,1.43.15,2.83.46,4.25.7,6.72,1.13,11,5.51,14.68,10.83,3.14,4.6,4.47,9.82,5.17,15.27.43,3.36,1.19,6.7,1.4,10.07a106.11,106.11,0,0,1,0,11.83,118.72,118.72,0,0,1-3.28,21.51c-4.53,19.19-11.11,37.71-18,56.15-2.5,6.69-4.61,13.52-6.92,20.27-1,2.94-2.08,5.84-3.33,8.74-.31-2.07-.67-4.15-.9-6.23q-1.57-14.1-3.1-28.2c-1.37-12.56-2.11-25.16-.92-37.77a230,230,0,0,1,4.8-28.18c2.08-9.38,5.32-18.39,8.61-27.39.34-.93.76-1.85,1-2.8.09-.3-.16-.7-.25-1.05-.33.15-.82.21-1,.46a26,26,0,0,0-1.45,3,172.51,172.51,0,0,0-10.69,36.46c-1.14,6.56-2.29,13.14-3,19.76a128.76,128.76,0,0,0-.25,24.52c.62,6.92,1.31,13.83,2,20.74.19,2,.42,4,.6,6.05.22,2.56-1.18,3.74-3.57,3.91-4.9.35-9.8.53-14.71.67-2.38.07-4.77-.14-7.16-.2a2.2,2.2,0,0,1-2-1.3,17.23,17.23,0,0,1-2.55-8,196.49,196.49,0,0,1,1.58-33c.68-5.14,1.34-10.29,2.31-15.38a23.32,23.32,0,0,1,2.41-5.77c1.06-2.14,2.27-4.21,3.48-6.28,5.07-8.72,10.13-17.46,15.29-26.14,2.09-3.51,1.21-2.9,5.22-2.34,3,.42,3,.54,3.76-2.29a21.49,21.49,0,0,0,.75-3,1.64,1.64,0,0,0-.65-1.26,6.3,6.3,0,0,0-1.87-.71C494.82,390,494.19,389.94,493.23,389.76ZM473,476.66a3.47,3.47,0,0,0-3.74-3.66,3.71,3.71,0,0,0-3.31,3.71c0,1.76,2.26,3.8,4.14,3.77C471.52,480.45,473,478.57,473,476.66Zm-2.47-28.75c-2.39,0-3.66,1.36-3.64,3.84a3.72,3.72,0,0,0,3.85,3.42c1.8,0,3.37-2.13,3.36-4.52C474,448.88,472.76,447.89,470.48,447.91Z" transform="translate(-389.78 -343.13)"/><path class="cls-1" d="M468.28,429.88c.53-3.19,1-6.39,1.61-9.55q3.62-17.7,7.37-35.37c.51-2.37,1.39-4.65,2.07-7,.21-.73.62-.87,1.34-.78,4,.52,8,.95,12,1.49,1.18.16,2.32.57,3.48.83.9.2,1,.68.57,1.39-.76,1.31-1.58,2.6-2.25,4C489.14,395.63,483.15,406,477,416.33c-2.51,4.17-5.08,8.31-7.62,12.46-.25.4-.53.78-.8,1.17Z" transform="translate(-389.78 -343.13)"/><path class="cls-1" d="M498.19,370.82l-17.37,3c.58-2,1.22-4,1.77-6.11,1.18-4.5,2.29-9,3.5-13.54.52-1.95-.45-3.68-.59-5.53-.05-.62-.17-1.25-.3-2.14a11.87,11.87,0,0,1,.95.81q3.51,3.66,7,7.33a1.41,1.41,0,0,1,.25.54q2.36,7.54,4.68,15.08A3.5,3.5,0,0,1,498.19,370.82Z" transform="translate(-389.78 -343.13)"/><path class="cls-1" d="M490.7,395.52c.56-1.19,1.07-2.34,1.65-3.46a.89.89,0,0,1,.73-.38c1.21.16,2.41.41,3.72.64-.36,1.27-.65,2.5-1.08,3.68a1.17,1.17,0,0,1-1,.54C493.4,396.28,492.11,395.89,490.7,395.52Z" transform="translate(-389.78 -343.13)"/><path class="cls-1" d="M397.62,440.28c-.2-1.33-.39-2.65-.61-4-1.25-7.27-2.61-14.52-3.72-21.81-.79-5.16-1.27-10.37-1.85-15.55a33.27,33.27,0,0,1-.42-5.25c.2-4,.42-8.05,1-12a32.54,32.54,0,0,1,5.26-13,24.4,24.4,0,0,1,12.57-9.89,59.66,59.66,0,0,1,17.86-3.14c1.55-.07,3.11,0,4.65,0-3.59,3.13-7.26,6.32-11,9.61.34.25.62.59.95.67,1.7.39,3.43.66,5.13,1.06,2.67.63,5.33,1.34,8,2.13-1.77.15-3.54.33-5.31.43-2.11.12-4.22.17-6.34.25h-.36c-2.14.17-2.21.17-1.78,2.27,1.1,5.23,1.95,10.52,2.8,15.8,1.46,9.1,2.85,18.22,4.26,27.33.53,3.39.85,6.83,1.64,10.15.94,3.93.21,7.79,0,11.66-.31,6.54-.86,13.07-1.11,19.61-.32,8.13-.47,16.28-.65,24.42a12.75,12.75,0,0,1-11.21,12.18,6.2,6.2,0,0,1-2.79-.43c-4.57-1.8-9.13-3.61-13.63-5.57a66.29,66.29,0,0,1-6.77-3.57,1.94,1.94,0,0,1-.7-1.56c1-13.84,4-27.4,6-41.09,1.11-7.54,2-15.11,3-22.68a209.11,209.11,0,0,1,8.54-39,7,7,0,0,0,.06-1.95,7,7,0,0,0-1.11,1.54,129.57,129.57,0,0,0-6.75,24.68c-1.67,10.52-3,21.09-4.49,31.65-.18,1.3-.11,2.63-.2,3.95a5.56,5.56,0,0,1-.34,1.17Zm24.84,29.93a10.14,10.14,0,0,0-1.66-.07,3.64,3.64,0,0,0-1,.39c.3.24.6.67.91.68,1.86.06,3.72.06,5.58,0,.39,0,.75-.47,1.13-.72-.38-.19-.77-.55-1.15-.54C424.93,470,423.58,470.12,422.46,470.21Zm-2.55-22.93,0,.35a14,14,0,0,0,1.45.18c1.71,0,3.43.08,5.14,0,.38,0,.75-.36,1.12-.55-.33-.22-.66-.64-1-.63-2.07,0-4.14.15-6.2.27C420.27,447,420.09,447.16,419.91,447.28Z" transform="translate(-389.78 -343.13)"/><path class="cls-1" d="M439.47,370.61c-2.64,16.9-5.24,33.62-7.85,50.34-3.49-16.14-5.87-32.44-8-49Z" transform="translate(-389.78 -343.13)"/><path class="cls-1" d="M439.37,368.48l-15.83-3.57,22.27-18.1.3.11a27.18,27.18,0,0,1-.74,5.31C443.51,357.65,441.42,363,439.37,368.48Z" transform="translate(-389.78 -343.13)"/><path class="cls-1" d="M469.64,474.27a2.28,2.28,0,0,1,2.15,2.4,8.11,8.11,0,0,1-1.07,2.3c-.06.12-.32.27-.39.24a14.72,14.72,0,0,1-2.51-1.61,1.77,1.77,0,0,1-.07-1.6C468.17,475.1,468.82,474.32,469.64,474.27Z" transform="translate(-389.78 -343.13)"/><path class="cls-1" d="M468.12,451.37a2.26,2.26,0,0,1,1.95-2.33c1.7,0,2.72.68,2.72,1.83,0,1.54-1.06,3.08-2.1,3.07A2.6,2.6,0,0,1,468.12,451.37Z" transform="translate(-389.78 -343.13)"/></g><g id="선"><path d="M498.77,515.45c-1.87-.24-3-1.05-3.22-3.05-.55-5-1.22-10-1.83-15.07-.07-.55-.13-1.1-.19-1.65-.16,0-.26,0-.31,0a5.87,5.87,0,0,1-3.82,1.2c-5.42,0-10.85.48-16.27.52a48,48,0,0,1-7.33-.86c-.32,0-.66-.44-.86-.75a46.65,46.65,0,0,1-3.06-5,9.38,9.38,0,0,1-.93-3.89,271.11,271.11,0,0,1,4.42-50.62c2.23-12.33,4.34-24.68,6.86-36.95,1.62-7.89,3.56-15.74,5.95-23.43,2-6.49,3.48-13.11,5.37-19.61,1.14-3.92.49-7.54,0-11.31,0-.32-.12-.63-.14-.95-.06-.92.45-1.06,1.13-.69a6.46,6.46,0,0,1,1.41,1.1c2.53,2.49,5.05,5,7.53,7.54a5.78,5.78,0,0,0,3.62,1.79c4.34.56,8.7,1.16,13,2.06,5.87,1.23,9.84,5.26,13.25,9.84a34.37,34.37,0,0,1,6.27,16.37c.58,4.43,1.49,8.84,1.73,13.28a89.69,89.69,0,0,1-.37,12.9c-1.6,18.12-7.08,35.31-12.94,52.39-3.44,10-7.25,19.86-10.76,29.83-2.87,8.13-5.55,16.32-8.31,24.48A4,4,0,0,1,498.77,515.45Zm-5.54-125.69c1,.18,1.59.25,2.2.42a6.3,6.3,0,0,1,1.87.71,1.64,1.64,0,0,1,.65,1.26,21.49,21.49,0,0,1-.75,3c-.77,2.83-.75,2.71-3.76,2.29-4-.56-3.13-1.17-5.22,2.34-5.16,8.68-10.22,17.42-15.29,26.14-1.21,2.07-2.42,4.14-3.48,6.28A23.32,23.32,0,0,0,467,438c-1,5.09-1.63,10.24-2.31,15.38a196.49,196.49,0,0,0-1.58,33,17.23,17.23,0,0,0,2.55,8,2.2,2.2,0,0,0,2,1.3c2.39.06,4.78.27,7.16.2,4.91-.14,9.81-.32,14.71-.67,2.39-.17,3.79-1.35,3.57-3.91-.18-2-.41-4-.6-6.05-.67-6.91-1.36-13.82-2-20.74a128.76,128.76,0,0,1,.25-24.52c.67-6.62,1.82-13.2,3-19.76a172.51,172.51,0,0,1,10.69-36.46,26,26,0,0,1,1.45-3c.14-.25.63-.31,1-.46.09.35.34.75.25,1.05-.27.95-.69,1.87-1,2.8-3.29,9-6.53,18-8.61,27.39a230,230,0,0,0-4.8,28.18c-1.19,12.61-.45,25.21.92,37.77q1.55,14.1,3.1,28.2c.23,2.08.59,4.16.9,6.23,1.25-2.9,2.32-5.8,3.33-8.74,2.31-6.75,4.42-13.58,6.92-20.27,6.89-18.44,13.47-37,18-56.15a118.72,118.72,0,0,0,3.28-21.51,106.11,106.11,0,0,0,0-11.83c-.21-3.37-1-6.71-1.4-10.07-.7-5.45-2-10.67-5.17-15.27-3.63-5.32-8-9.7-14.68-10.83-1.42-.24-2.82-.55-4.25-.7-2.51-.26-5-.42-7.79-.65,1.64,5.11,3.19,10,4.78,14.82.4,1.21.26,1.43-1,1.62q-9.42,1.39-18.82,2.86a5.7,5.7,0,0,0-1,.34c3.35.37,6.44.65,9.52,1s6.23.91,9.34,1.42c1.22.21,1.47.8.89,1.88-.39.74-.83,1.45-1.28,2.15Zm-25,40.12.27.08c.27-.39.55-.77.8-1.17,2.54-4.15,5.11-8.29,7.62-12.46,6.18-10.3,12.17-20.7,17.49-31.48.67-1.35,1.49-2.64,2.25-4,.41-.71.33-1.19-.57-1.39-1.16-.26-2.3-.67-3.48-.83-4-.54-8-1-12-1.49-.72-.09-1.13.05-1.34.78-.68,2.34-1.56,4.62-2.07,7q-3.76,17.67-7.37,35.37C469.25,423.49,468.81,426.69,468.28,429.88Zm29.91-59.06a3.5,3.5,0,0,0-.11-.58q-2.32-7.55-4.68-15.08a1.41,1.41,0,0,0-.25-.54q-3.48-3.67-7-7.33a11.87,11.87,0,0,0-.95-.81c.13.89.25,1.52.3,2.14.14,1.85,1.11,3.58.59,5.53-1.21,4.5-2.32,9-3.5,13.54-.55,2.07-1.19,4.11-1.77,6.11Zm-7.49,24.7c1.41.37,2.7.76,4,1a1.17,1.17,0,0,0,1-.54c.43-1.18.72-2.41,1.08-3.68-1.31-.23-2.51-.48-3.72-.64a.89.89,0,0,0-.73.38C491.77,393.18,491.26,394.33,490.7,395.52Z" transform="translate(-389.78 -343.13)"/><path d="M447.42,343.32c-.31,3.36-.43,6.76-1,10.08-.34,2-1.45,3.87-2,5.85a164.79,164.79,0,0,0-6.23,28.12c-.66,5.54-1.67,11-2.51,16.54-.21,1.38-.29,2.78-.51,4.16-.87,5.54-1.81,11.08-2.62,16.63-.33,2.24-.48,4.52-.6,6.79-.39,7.65-.8,15.3-1.07,23s-.57,15.48-.53,23.22a20.12,20.12,0,0,1-3.89,12.53c-1.09,1.45-2.94,2.41-4.58,3.33-3.53,2-7.05,1.35-10.73.06-6.26-2.21-12.21-5.1-18.21-7.89a1.64,1.64,0,0,1-.78-1,12,12,0,0,1-.16-2.61,199.55,199.55,0,0,1,3.4-26.34c.61-3.42,1.16-6.85,1.71-10.28a4.43,4.43,0,0,0,0-1.54c-1.39-7.28-2.69-14.59-4.26-21.84a142.59,142.59,0,0,1-3-27.55,80.74,80.74,0,0,1,.59-12c.5-3.88,2.44-7.38,3.95-11,3.43-8.17,9.83-12.56,18-14.93a62.06,62.06,0,0,1,17.76-2.24,10.54,10.54,0,0,0,8-3c2.65-2.59,5.37-5.11,8.07-7.65a9.9,9.9,0,0,1,.81-.59Zm-49.8,97,.54.06a5.56,5.56,0,0,0,.34-1.17c.09-1.32,0-2.65.2-3.95,1.46-10.56,2.82-21.13,4.49-31.65a129.57,129.57,0,0,1,6.75-24.68,7,7,0,0,1,1.11-1.54,7,7,0,0,1-.06,1.95,209.11,209.11,0,0,0-8.54,39c-.95,7.57-1.87,15.14-3,22.68-2,13.69-5,27.25-6,41.09a1.94,1.94,0,0,0,.7,1.56,66.29,66.29,0,0,0,6.77,3.57c4.5,2,9.06,3.77,13.63,5.57a6.2,6.2,0,0,0,2.79.43A12.75,12.75,0,0,0,428.57,481c.18-8.14.33-16.29.65-24.42.25-6.54.8-13.07,1.11-19.61.19-3.87.92-7.73,0-11.66-.79-3.32-1.11-6.76-1.64-10.15-1.41-9.11-2.8-18.23-4.26-27.33-.85-5.28-1.7-10.57-2.8-15.8-.43-2.1-.36-2.1,1.78-2.27h.36c2.12-.08,4.23-.13,6.34-.25,1.77-.1,3.54-.28,5.31-.43-2.67-.79-5.33-1.5-8-2.13-1.7-.4-3.43-.67-5.13-1.06-.33-.08-.61-.42-.95-.67,3.76-3.29,7.43-6.48,11-9.61-1.54,0-3.1-.06-4.65,0a59.66,59.66,0,0,0-17.86,3.14,24.4,24.4,0,0,0-12.57,9.89,32.54,32.54,0,0,0-5.26,13c-.56,4-.78,8-1,12a33.27,33.27,0,0,0,.42,5.25c.58,5.18,1.06,10.39,1.85,15.55,1.11,7.29,2.47,14.54,3.72,21.81C397.23,437.63,397.42,439,397.62,440.28Zm41.85-69.67-15.88,1.32c2.16,16.58,4.54,32.88,8,49C434.23,404.23,436.83,387.51,439.47,370.61Zm-.1-2.13c2.05-5.49,4.14-10.83,6-16.25a27.18,27.18,0,0,0,.74-5.31l-.3-.11-22.27,18.1Z" transform="translate(-389.78 -343.13)"/><path d="M473,476.66c0,1.91-1.43,3.79-2.91,3.82-1.88,0-4.11-2-4.14-3.77a3.71,3.71,0,0,1,3.31-3.71A3.47,3.47,0,0,1,473,476.66Zm-3.31-2.39c-.82.05-1.47.83-1.89,1.73a1.77,1.77,0,0,0,.07,1.6,14.72,14.72,0,0,0,2.51,1.61c.07,0,.33-.12.39-.24a8.11,8.11,0,0,0,1.07-2.3A2.28,2.28,0,0,0,469.64,474.27Z" transform="translate(-389.78 -343.13)"/><path d="M470.48,447.91c2.28,0,3.56,1,3.57,2.74,0,2.39-1.56,4.5-3.36,4.52a3.72,3.72,0,0,1-3.85-3.42C466.82,449.27,468.09,447.93,470.48,447.91Zm-2.36,3.46a2.6,2.6,0,0,0,2.57,2.57c1,0,2.09-1.53,2.1-3.07,0-1.15-1-1.83-2.72-1.83A2.26,2.26,0,0,0,468.12,451.37Z" transform="translate(-389.78 -343.13)"/><path d="M422.46,470.21c1.12-.09,2.47-.25,3.81-.28.38,0,.77.35,1.15.54-.38.25-.74.7-1.13.72-1.86.08-3.72.08-5.58,0-.31,0-.61-.44-.91-.68a3.64,3.64,0,0,1,1-.39A10.14,10.14,0,0,1,422.46,470.21Z" transform="translate(-389.78 -343.13)"/><path d="M419.91,447.28c.18-.12.36-.33.56-.34,2.06-.12,4.13-.24,6.2-.27.33,0,.66.41,1,.63-.37.19-.74.54-1.12.55-1.71,0-3.43,0-5.14,0a14,14,0,0,1-1.45-.18Z" transform="translate(-389.78 -343.13)"/></g></svg>