<svg id="가디건" xmlns="http://www.w3.org/2000/svg" viewBox="0 0 139.87 162"><defs><style>.cls-1{fill:#fff;}</style></defs><g id="색"><path class="cls-1" d="M445.85,491.69h-8.56c0-.43-.07-.77-.06-1.12.14-9.14.17-18.27.47-27.4.28-8.81.85-17.61,1.29-26.41,0-.28,0-.56,0-.84-.25-6.44.59-12.81,1.34-19.19.26-2.17.34-4.37.57-6.55a14.78,14.78,0,0,1,.56-2.8,1.57,1.57,0,0,1,.88-.81c7.17-3,14.4-5.85,21.51-9a35,35,0,0,0,11.89-8.12,82.16,82.16,0,0,0,7.19-9.39c2.1-3.1,3.83-6.44,5.75-9.66,2.56-4.27,3.69-9.06,5-13.79.11-.37.25-.74.36-1.08.13,0,.21-.11.28-.1,3.32.44,6.65.79,9.95,1.35,5.31.89,9.59,3.82,13.51,7.3,6.32,5.61,9.36,12.84,10.19,21.14a112.92,112.92,0,0,1-.6,23.75c-1.67,15.25-5.56,30-9.64,44.75a12.41,12.41,0,0,1-.68,2c-.12-3.06-.25-6.12-.37-9.17,0-.24.08-.52,0-.71a13.75,13.75,0,0,0-.78-1.34c-.2.45-.59.9-.57,1.34.22,7,.38,14,.8,20.93.25,4.17.81,8.33,1.42,12.46a12.29,12.29,0,0,1-3,10.19c-1.39,1.63-2.95,3.12-4.47,4.64s-3.18,3-4.71,4.58a3.66,3.66,0,0,1-4.44.9c-.33-.14-.68-.22-1.09-.35l1.24-5.1-.58-.18c-1,1.43-.9,3.29-1.69,4.85l-3.58-.6c.27-1.48.55-2.87.76-4.28a2.54,2.54,0,0,0-.23-.93c-.21.23-.53.44-.61.71a10,10,0,0,1-.77,2.23c-.12-1.55-.3-3.1-.35-4.65-.2-6.14-.33-12.28-.56-18.42-.14-3.82-.49-7.64-.63-11.46a241.8,241.8,0,0,1,1.72-39.53c.78-6,2.59-11.83,4.39-17.62,2.27-7.35,4.58-14.69,6.84-22a5.75,5.75,0,0,0,0-1.66c-.39.43-1,.8-1.13,1.3-2.05,6.12-4.16,12.23-6,18.41s-3.88,12.52-5.13,18.92a141.24,141.24,0,0,0-1.89,17.7,260,260,0,0,0,0,31.58c.43,7.59.56,15.2.81,22.81a2.44,2.44,0,0,1-.06.44H447.44a10.86,10.86,0,0,1-.06-1.1c.11-4.1.25-8.21.34-12.32,0-.72.21-1.06,1-1.12a4.37,4.37,0,0,0,3.91-3.22,4.55,4.55,0,0,0-1.31-4.92c-.59-.61-1.69-.71-2.8-1.13,0-.12,0-.51,0-.89.3-5.18.62-10.35.89-15.53,0-.74.29-1,1-1.11a4.8,4.8,0,0,0,4-3.7,4.1,4.1,0,0,0-1.34-4.84,5.65,5.65,0,0,0-1.71-1.21c-1.08-.27-1.23-.82-1.15-1.8.32-3.69.54-7.39.82-11.09.07-.95.24-1.9.28-2.85s.76-1,1.28-1.12a4.29,4.29,0,0,0,3.57-4,5,5,0,0,0-2.44-5.21,2.24,2.24,0,0,1-1.27-2.72c.46-2.46.63-5,.92-7.48a5.3,5.3,0,0,0,0-.69l-.33-.2c-.32.44-.85.84-.93,1.33-.46,2.63-.81,5.28-1.18,7.93a5.22,5.22,0,0,0,.07,1.11c-2.89,0-4.47,1.08-5.11,3.69-.55,2.2.64,4.46,3.05,5.61a1,1,0,0,1,.7,1.17c-.27,4.86-.49,9.71-.8,14.57,0,.48-.39,1.26-.75,1.36-3.09.85-3.74,4.63-2.56,6.8a27.23,27.23,0,0,0,2,2.53,2.58,2.58,0,0,1,.61,1.38c-.26,5.18-.58,10.36-.89,15.53a2.64,2.64,0,0,1-1.63,2.58c-2.76,1.32-3,4.57-.63,6.73a2.49,2.49,0,0,1,.91,2C445.84,482.39,445.85,487,445.85,491.69Z" transform="translate(-390.11 -353.76)"/><path class="cls-1" d="M418,357.66c.85,4,1.63,7.74,2.46,11.51,2.37,10.9,7.43,20.57,13.71,29.67,1.69,2.46,3.56,4.8,5.32,7.22a1.84,1.84,0,0,1,.34,1.18c-.63,7.18-1.37,14.36-1.93,21.55-.32,4-.33,8-.54,12.06-.37,7.28-.66,14.57-1.23,21.83-.74,9.48-1,19-.92,28.46a4.3,4.3,0,0,1-.11.62h-1.52l-28.39-.05c-2.67,0-5.35-.06-8,0-.89,0-1.2-.3-1.17-1.18.2-7,.26-14,.61-21,.38-7.52,1-15,1.56-22.55.91-12.05,2.2-24.05,5.12-35.82,2.41-9.71,4.68-19.45,7-29.19.38-1.59.66-3.2.9-4.82a4,4,0,0,0-.32-1.34c-.32.35-.82.64-.92,1-.81,3.25-1.5,6.53-2.3,9.78-1.92,7.74-3.88,15.47-5.82,23.2a132.7,132.7,0,0,0-4.18,26.42,30.43,30.43,0,0,1-.56,4.87c-.14-.63-.24-1.27-.42-1.9-2.64-9.51-3.13-19.34-4.21-29.09a169.45,169.45,0,0,1-.83-29c.3-5.08,1.24-10,4.55-14.11a25.08,25.08,0,0,1,4.38-4.17C405.69,358.86,411.85,358.2,418,357.66Z" transform="translate(-390.11 -353.76)"/><path class="cls-1" d="M420.36,357.28l8.56-1.17c1.73,17.2,7.53,32.64,19.05,45.95l-5.05,2a5.36,5.36,0,0,1-.57.17c-1.79.55-1.85.59-2.89-1-3.23-4.79-6.55-9.53-9.56-14.46a60.93,60.93,0,0,1-7.24-19.16c-.76-3.54-1.43-7.11-2.12-10.67C420.44,358.46,420.43,358,420.36,357.28Z" transform="translate(-390.11 -353.76)"/><path class="cls-1" d="M494.91,499.45l7.62,1.84-3.92,11.42A62.62,62.62,0,0,1,494.91,499.45Z" transform="translate(-390.11 -353.76)"/><path class="cls-1" d="M454.6,419c-.12,2.61-1.31,3.73-3.84,3.58a4.11,4.11,0,0,1-3.67-4.14c.07-2.25,2-3.52,4.85-3.5C453.83,415,454.5,417.3,454.6,419Z" transform="translate(-390.11 -353.76)"/><path class="cls-1" d="M453.48,444.92a3.91,3.91,0,0,1-3.46,4c-2.57.08-3.74-1.57-3.89-3.68a3.76,3.76,0,0,1,3.66-4.15A3.9,3.9,0,0,1,453.48,444.92Z" transform="translate(-390.11 -353.76)"/><path class="cls-1" d="M447.73,476a3.05,3.05,0,0,1-3.21-3.1c0-2.13,1.53-3.42,4.11-3.26,1.9.12,3,.68,2.95,2.37A3.76,3.76,0,0,1,447.73,476Z" transform="translate(-390.11 -353.76)"/></g><g id="선"><path d="M498.75,515.76a39.87,39.87,0,0,1-4.15-11.33c-.75-3.79-1.28-7.62-1.93-11.6h-1.21l-36.89,0H438.52l-42.24.05c-2.19,0-2.27,0-2.2-2.13.31-8.33.54-16.66,1-25,.37-6.16,1.15-12.3,1.64-18.46a11.37,11.37,0,0,0-.54-3.72,138.75,138.75,0,0,1-4.32-23.85c-1-10.85-2.06-21.68-1.73-32.6a61.07,61.07,0,0,1,1.57-13.76,21.18,21.18,0,0,1,9.5-13.09c3.72-2.34,7.79-3,11.88-3.6,5-.8,10.14-1.16,15.21-1.69a3.39,3.39,0,0,1,1.42.11,1.07,1.07,0,0,1,.65.73,75.82,75.82,0,0,0,3.45,18,71.9,71.9,0,0,0,11.27,22,46.41,46.41,0,0,0,4.55,5.07c.26.27,1.07.15,1.57,0a56.47,56.47,0,0,0,18.16-8.93A42.89,42.89,0,0,0,482,378.77a156.08,156.08,0,0,0,7.4-14.74c1.06-2.39,1.39-5.13,1.91-7.73.47-2.38,1-2.73,3.37-2.46a111.42,111.42,0,0,1,17.14,3.73,6.83,6.83,0,0,1,1.65.68,29.23,29.23,0,0,1,11.1,11.13c2,3.72,4.1,7.46,4.74,11.69a86.93,86.93,0,0,1,.67,10.09c.29,9.41-1,18.69-2.5,28-1.91,12.11-5.28,23.89-8.34,35.74a32.82,32.82,0,0,0-1.3,5.46,49.87,49.87,0,0,0,0,7.73c.32,4.45.85,8.88,1.27,13.32a10.09,10.09,0,0,1-2,6.77,85.8,85.8,0,0,1-11.22,12.72c-.08.08-.17.22-.27.23-2,.21-2.24,1.92-2.75,3.33-1.18,3.22-2.27,6.47-3.41,9.7C499.31,514.57,499.08,515,498.75,515.76Zm-52.9-24.07c0-4.72,0-9.3,0-13.88a2.49,2.49,0,0,0-.91-2c-2.4-2.16-2.13-5.41.63-6.73a2.64,2.64,0,0,0,1.63-2.58c.31-5.17.63-10.35.89-15.53a2.58,2.58,0,0,0-.61-1.38,27.23,27.23,0,0,1-2-2.53c-1.18-2.17-.53-5.95,2.56-6.8.36-.1.72-.88.75-1.36.31-4.86.53-9.71.8-14.57a1,1,0,0,0-.7-1.17c-2.41-1.15-3.6-3.41-3.05-5.61.64-2.61,2.22-3.73,5.11-3.69a5.22,5.22,0,0,1-.07-1.11c.37-2.65.72-5.3,1.18-7.93.08-.49.61-.89.93-1.33l.33.2a5.3,5.3,0,0,1,0,.69c-.29,2.5-.46,5-.92,7.48a2.24,2.24,0,0,0,1.27,2.72,5,5,0,0,1,2.44,5.21,4.29,4.29,0,0,1-3.57,4c-.52.13-1.24.26-1.28,1.12s-.21,1.9-.28,2.85c-.28,3.7-.5,7.4-.82,11.09-.08,1,.07,1.53,1.15,1.8a5.65,5.65,0,0,1,1.71,1.21,4.1,4.1,0,0,1,1.34,4.84,4.8,4.8,0,0,1-4,3.7c-.74.12-1,.37-1,1.11-.27,5.18-.59,10.35-.89,15.53,0,.38,0,.77,0,.89,1.11.42,2.21.52,2.8,1.13a4.55,4.55,0,0,1,1.31,4.92,4.37,4.37,0,0,1-3.91,3.22c-.79.06-1,.4-1,1.12-.09,4.11-.23,8.22-.34,12.32a10.86,10.86,0,0,0,.06,1.1h44.91a2.44,2.44,0,0,0,.06-.44c-.25-7.61-.38-15.22-.81-22.81a260,260,0,0,1,0-31.58,141.24,141.24,0,0,1,1.89-17.7c1.25-6.4,3.25-12.66,5.13-18.92s4-12.29,6-18.41c.17-.5.74-.87,1.13-1.3a5.75,5.75,0,0,1,0,1.66c-2.26,7.36-4.57,14.7-6.84,22-1.8,5.79-3.61,11.58-4.39,17.62a241.8,241.8,0,0,0-1.72,39.53c.14,3.82.49,7.64.63,11.46.23,6.14.36,12.28.56,18.42.05,1.55.23,3.1.35,4.65a10,10,0,0,0,.77-2.23c.08-.27.4-.48.61-.71a2.54,2.54,0,0,1,.23.93c-.21,1.41-.49,2.8-.76,4.28l3.58.6c.79-1.56.72-3.42,1.69-4.85l.58.18-1.24,5.1c.41.13.76.21,1.09.35a3.66,3.66,0,0,0,4.44-.9c1.53-1.56,3.16-3,4.71-4.58s3.08-3,4.47-4.64a12.29,12.29,0,0,0,3-10.19c-.61-4.13-1.17-8.29-1.42-12.46-.42-7-.58-13.95-.8-20.93,0-.44.37-.89.57-1.34a13.75,13.75,0,0,1,.78,1.34c.1.19,0,.47,0,.71.12,3.05.25,6.11.37,9.17a12.41,12.41,0,0,0,.68-2c4.08-14.73,8-29.5,9.64-44.75a112.92,112.92,0,0,0,.6-23.75c-.83-8.3-3.87-15.53-10.19-21.14-3.92-3.48-8.2-6.41-13.51-7.3-3.3-.56-6.63-.91-9.95-1.35-.07,0-.15.05-.28.1-.11.34-.25.71-.36,1.08-1.29,4.73-2.42,9.52-5,13.79-1.92,3.22-3.65,6.56-5.75,9.66a82.16,82.16,0,0,1-7.19,9.39,35,35,0,0,1-11.89,8.12c-7.11,3.15-14.34,6-21.51,9a1.57,1.57,0,0,0-.88.81,14.78,14.78,0,0,0-.56,2.8c-.23,2.18-.31,4.38-.57,6.55-.75,6.38-1.59,12.75-1.34,19.19,0,.28,0,.56,0,.84-.44,8.8-1,17.6-1.29,26.41-.3,9.13-.33,18.26-.47,27.4,0,.35,0,.69.06,1.12ZM418,357.66c-6.13.54-12.29,1.2-17.46,5.12a25.08,25.08,0,0,0-4.38,4.17c-3.31,4.09-4.25,9-4.55,14.11a169.45,169.45,0,0,0,.83,29c1.08,9.75,1.57,19.58,4.21,29.09.18.63.28,1.27.42,1.9a30.43,30.43,0,0,0,.56-4.87,132.7,132.7,0,0,1,4.18-26.42c1.94-7.73,3.9-15.46,5.82-23.2.8-3.25,1.49-6.53,2.3-9.78.1-.4.6-.69.92-1a4,4,0,0,1,.32,1.34c-.24,1.62-.52,3.23-.9,4.82-2.3,9.74-4.57,19.48-7,29.19-2.92,11.77-4.21,23.77-5.12,35.82-.57,7.52-1.18,15-1.56,22.55-.35,7-.41,14-.61,21,0,.88.28,1.19,1.17,1.18,2.67,0,5.35,0,8,0l28.39.05h1.52a4.3,4.3,0,0,0,.11-.62c0-9.5.18-19,.92-28.46.57-7.26.86-14.55,1.23-21.83.21-4,.22-8.05.54-12.06.56-7.19,1.3-14.37,1.93-21.55a1.84,1.84,0,0,0-.34-1.18c-1.76-2.42-3.63-4.76-5.32-7.22-6.28-9.1-11.34-18.77-13.71-29.67C419.61,365.4,418.83,361.63,418,357.66Zm2.38-.38c.07.67.08,1.18.18,1.68.69,3.56,1.36,7.13,2.12,10.67a60.93,60.93,0,0,0,7.24,19.16c3,4.93,6.33,9.67,9.56,14.46,1,1.55,1.1,1.51,2.89,1a5.36,5.36,0,0,0,.57-.17l5.05-2c-11.52-13.31-17.32-28.75-19.05-45.95Zm74.55,142.17a62.62,62.62,0,0,0,3.7,13.26l3.92-11.42ZM454.6,419c-.1-1.7-.77-4.05-2.66-4.06-2.89,0-4.78,1.25-4.85,3.5a4.11,4.11,0,0,0,3.67,4.14C453.29,422.73,454.48,421.61,454.6,419Zm-1.12,25.92a3.9,3.9,0,0,0-3.69-3.83,3.76,3.76,0,0,0-3.66,4.15c.15,2.11,1.32,3.76,3.89,3.68A3.91,3.91,0,0,0,453.48,444.92ZM447.73,476a3.76,3.76,0,0,0,3.85-4c0-1.69-1.05-2.25-2.95-2.37-2.58-.16-4.07,1.13-4.11,3.26A3.05,3.05,0,0,0,447.73,476Z" transform="translate(-390.11 -353.76)"/></g></svg>