<svg id="무스탕" xmlns="http://www.w3.org/2000/svg" viewBox="0 0 142.12 183"><defs><style>.cls-1{fill:#fff;}</style></defs><g id="가죽"><path class="cls-1" d="M475.33,380.58l-.57,2.59c-2.88-.33-3.65,1.67-4,3.87a28.06,28.06,0,0,0-.44,5.33,7.47,7.47,0,0,0,6.17,7.07c3.14.43,6.19.56,9.16-.78,2.76-1.25,4.52-3.2,4.76-6.34a39.91,39.91,0,0,0,.45-5.31c-.09-1.65-.64-3.31-2.91-3.37a8.82,8.82,0,0,1,.47-1.74,1.18,1.18,0,0,1,.84-.57c1,0,1.92.09,2.87.08,1.63,0,3.26,0,4.88-.13.3,0,.72-.56.81-.93,1.26-5.28,2.47-10.57,3.69-15.85.06-.23.16-.45.27-.76a13.42,13.42,0,0,1,1.41.3,22.4,22.4,0,0,1,12.68,10.19c1.24,2.06,2.47,4.12,2.69,6.58,0,.37-.17,1-.44,1.11-4.46,1.95-8.94,3.84-13.43,5.74a3.27,3.27,0,0,1-.49,0l2.7-6.67c.08-.18.3-.35.28-.51a6.56,6.56,0,0,0-.26-1.06c-.34.13-.82.17-1,.42a11.67,11.67,0,0,0-.95,2.06c-5.29,13.75-9.42,27.86-11.32,42.47a206.62,206.62,0,0,0-1.48,24.37c-.14,11.54.15,23.08.44,34.62.1,4.18.69,8.35,1.06,12.52,0,.47.05.94.09,1.47-12.7,1.13-25.32.38-37.8,1,0-2.07-.08-4.08,0-6.07.34-7.3.69-14.6,1.14-21.89q.84-13.5,1.84-27c.52-7.17,1-14.34,1.76-21.48,1.11-10.55,2.2-21.12,5-31.4.89-3.27,2-6.48,3-9.72.2-.66.48-.86,1.19-.76C471.69,380.25,473.47,380.38,475.33,380.58Z" transform="translate(-389.44 -335.11)"/><path class="cls-1" d="M529.24,379.86a54.71,54.71,0,0,1,.85,7.86c-.19,6.61-.53,13.24-1.12,19.82a177.76,177.76,0,0,1-6.28,33.23c-3.08,10.65-6.51,21.2-9.8,31.79a8.24,8.24,0,0,1-.34.84,85.06,85.06,0,0,0-19-7.32,6,6,0,0,1-.11-.82c.11-9.26.09-18.53.38-27.78.49-15.57,4.15-30.54,8.86-45.31a5.18,5.18,0,0,1,3.37-3.69c3.64-1.41,7.15-3.17,10.8-4.56,3.81-1.45,7.73-2.64,11.6-3.93A5.47,5.47,0,0,1,529.24,379.86Z" transform="translate(-389.44 -335.11)"/><path class="cls-1" d="M528.78,378.46l-8.58,2.72c-2.67-9.56-8.39-16.09-18.22-18.93l1.87-7.23A.23.23,0,0,1,504,355c4.24,1,8.4,2.23,11.77,5.27a67.26,67.26,0,0,1,9.73,10.37A22.22,22.22,0,0,1,528.78,378.46Z" transform="translate(-389.44 -335.11)"/><path class="cls-1" d="M509.4,483.42c-2.92-1.37-5.66-2.73-8.47-4-2.11-.92-4.3-1.66-6.44-2.52-.31-.12-.75-.45-.76-.7-.05-2.86,0-5.72,0-8.66a6,6,0,0,1,.84.12A85.38,85.38,0,0,1,511,474.12c.94.46,1.1,1,.75,1.95C510.91,478.43,510.21,480.84,509.4,483.42Z" transform="translate(-389.44 -335.11)"/><path class="cls-1" d="M480.78,395.86c-1.26-.32-2.56-.53-3.78-1a3.44,3.44,0,0,1-2.38-3.62c0-1.23.19-2.46.31-3.69.07-.72.42-1,1.19-1,3.46.19,6.91.33,10.37.45.61,0,.95.14,1,.82A7.27,7.27,0,0,1,480.78,395.86Z" transform="translate(-389.44 -335.11)"/><path class="cls-1" d="M474.37,384.57c-.27,1.1-.59,2.18-.79,3.29a19.09,19.09,0,0,0-.23,2.73c-.1,3.8,2,6,5.78,6.29l.72,0c5.49.2,8.84-2.9,9.07-8.45,0-.87,0-1.76-1-2.22-.21-.1-.27-.54-.43-.91,1.13-.13,1.65.24,1.94,1.15a9,9,0,0,1-9.5,11.94c-.95-.08-1.91-.14-2.85-.31a6.43,6.43,0,0,1-5.51-7.31,31.69,31.69,0,0,1,.92-4.91C472.77,384.74,473.16,384.58,474.37,384.57Z" transform="translate(-389.44 -335.11)"/><path class="cls-1" d="M486.69,381.31l-.7,4.58-10.26-.57c.32-1.5.59-2.88.93-4.25a.75.75,0,0,1,.62-.38c3,.13,6.06.3,9.08.46A1.11,1.11,0,0,1,486.69,381.31Z" transform="translate(-389.44 -335.11)"/><path class="cls-1" d="M498,513.69a30.44,30.44,0,0,1-.79-4.07c0-.49.62-1,1-1.6l1.79.68-1.68,5Z" transform="translate(-389.44 -335.11)"/><path class="cls-1" d="M416.06,364.09c-.87,2.5-1.69,4.86-2.52,7.23,0,0-.05.06-.05.1-.11,1-.21,2-.31,3a10.07,10.07,0,0,0,2.71.19,82.6,82.6,0,0,1,15.67-1.78h1.36a756.84,756.84,0,0,0-12.79,122.51l-24.36.56c0-.59,0-1.05,0-1.51.24-9.42.42-18.84.75-28.26.19-5.54.43-11.1,1-16.62,1.06-10.87,2.05-21.76,3.63-32.56,1-6.72,3-13.3,4.59-19.93.86-3.61,1.77-7.21,2.69-10.8A5.93,5.93,0,0,1,409,385c.07-.14.25-.28.24-.4-.27-2.53,1.1-4.67,1.59-7a4,4,0,0,0-.2-1.33c-.35.31-.88.55-1,.93-.66,1.88-1.21,3.79-1.83,5.77l-7.87-5.3C401.72,371.11,411.21,364.39,416.06,364.09Z" transform="translate(-389.44 -335.11)"/><path class="cls-1" d="M434.59,372.89l3.38.31c1,.1,1.46.65,1.23,1.71-.84,3.94-1.78,7.87-2.45,11.84-.91,5.42-1.6,10.88-2.39,16.33-.77,5.29-1.61,10.57-2.28,15.87-.63,5-1.09,10-1.6,15-.37,3.7-.72,7.39-1,11.09-.42,5.41-.89,10.82-1.11,16.25-.37,8.65-.54,17.32-.81,26-.07,2.5-.22,5-.33,7.66l-5.59.29a593.08,593.08,0,0,1,3.86-61.45C427.76,413.39,429.79,393,434.59,372.89Z" transform="translate(-389.44 -335.11)"/><path class="cls-1" d="M396.8,439.09c-1.15-7.29-2.35-14.56-3.43-21.86-.85-5.76-1.76-11.52-2.26-17.31a71.73,71.73,0,0,1,1.59-22.71,10,10,0,0,1,.37-1.07,18.87,18.87,0,0,1,3,1.19c3.62,2.18,7.17,4.46,10.77,6.67.65.4.5.88.36,1.44-2.26,9.22-4.69,18.4-6.69,27.67-1.22,5.68-1.8,11.49-2.61,17.26-.4,2.91-.67,5.85-1,8.78Z" transform="translate(-389.44 -335.11)"/><path class="cls-1" d="M418.68,356.9c-.71,1.89-1.28,3.5-1.95,5.06a1.62,1.62,0,0,1-1.06.64c-4.19.88-7.62,3.13-10.82,5.86a21.19,21.19,0,0,0-5.69,7.45c-.17.35-.35.69-.53,1l-5.22-2.19a23.12,23.12,0,0,1,8.89-12.24A33.23,33.23,0,0,1,418.68,356.9Z" transform="translate(-389.44 -335.11)"/></g><g id="털"><path class="cls-1" d="M469.54,378.64a6.61,6.61,0,0,1,.21-.91c2.44-6,4.7-12.14,7.41-18,1.4-3.05,3.58-5.74,5.42-8.58a2.16,2.16,0,0,1,.71-.81c2-1,1.81-2.8,1.87-4.63.09-2.5.41-5,.64-7.56a5,5,0,0,1,.7.15c4.31,1.78,8.6,3.64,12.95,5.33,2.25.88,3.58,2.33,3.47,4.73a41.45,41.45,0,0,1-.8,6.95c-1.7,7.88-3.55,15.71-5.32,23.57-.18.79-.46,1.1-1.34,1.07-5.93-.22-11.86-.32-17.78-.56C475,379.24,472.3,378.89,469.54,378.64Z" transform="translate(-389.44 -335.11)"/><path class="cls-1" d="M455.55,510.5V499.44c5.05,0,9.87.08,14.69,0,7.49-.15,15-.43,22.48-.61a5.36,5.36,0,0,1,1.62.41c.58.17,1.08.24,1.3-.58,1.56,3,.73,6.17,1,9.26l-.33-.14a10.08,10.08,0,0,1-.86,1,1.56,1.56,0,0,1-.77.28c-6.18.66-12.35,1.52-18.54,1.88-5.37.32-10.77.09-16.15,0C458.44,510.91,456.9,510.64,455.55,510.5Z" transform="translate(-389.44 -335.11)"/><path class="cls-1" d="M493.92,478.15c1.82.67,3.67,1.26,5.44,2,2.85,1.25,5.65,2.62,8.46,4,1,.47,2,1,2.89,1.53,1.68,1,2.48,3,1.81,5.39-1,3.46-2.13,6.86-3.33,10.24-.7,2-1.65,3.89-2.49,5.83-.59,1.37-1.18,1.71-2.62,1.31-1.8-.51-3.57-1.12-5.38-1.64-.66-.19-.8-.52-.81-1.19,0-1.91-.07-3.83-.26-5.73a3.17,3.17,0,0,0-2.06-2.86,1.11,1.11,0,0,1-.52-.81c-.45-5.88-.86-11.77-1.28-17.66C493.76,478.49,493.82,478.41,493.92,478.15Z" transform="translate(-389.44 -335.11)"/><path class="cls-1" d="M433.56,371.44a101.21,101.21,0,0,0-19.09,2c.63-2,1.25-4,1.88-6a100.66,100.66,0,0,1,8.4-19.67c.16-.28.34-.54.5-.82a12.27,12.27,0,0,1,7.2-6c4.22-1.29,8.33-3,12.5-4.43a8.36,8.36,0,0,1,1.3-.23c0,.71,0,1.33,0,1.95-.22,4.82-.47,9.64-.67,14.47a2,2,0,0,1-.88,1.8,9,9,0,0,0-1.73,1.65C439,360.62,435.34,365.4,433.56,371.44Z" transform="translate(-389.44 -335.11)"/><path class="cls-1" d="M427,496.36V509c-1.49.18-3.05.42-4.62.53a129.47,129.47,0,0,1-20.56,0,60.38,60.38,0,0,1-7.31-1.15c-1.88-.4-2.35-1-2.35-2.9,0-2.43.08-4.86.25-7.28,0-.38.71-.95,1.16-1a18.79,18.79,0,0,1,2.81,0l29.42-.74Z" transform="translate(-389.44 -335.11)"/></g><g id="선"><path d="M495.79,510.32c-13.78,1.87-27.52,3.23-41.36,1.18a2.55,2.55,0,0,1-.87-.37c.17-1.2.38-2.2.43-3.21.13-2.75.17-5.51.29-8.26.2-4.61.38-9.22.64-13.82q.65-11.29,1.38-22.59c.32-5.18.64-10.36,1-15.53.44-6.25.83-12.51,1.43-18.74.68-7.19,1.56-14.36,2.38-21.53A127.42,127.42,0,0,1,467.21,381c2.67-7.9,5.37-15.77,9.34-23.12a39.14,39.14,0,0,1,6.63-9.49,2.38,2.38,0,0,0,.48-1.39c.34-3.25.63-6.51.93-9.77.09-.9.46-1.17,1.36-.79,4.29,1.85,8.57,3.7,12.9,5.45,4.61,1.85,5.52,3.09,5.45,8a22.77,22.77,0,0,1-.24,2.62c-.09.67.11,1,.8,1.18,2.58.82,5.13,1.74,7.69,2.62a1.37,1.37,0,0,1,.32.16c7.44,5.3,14.15,11.25,17.09,20.32a41.2,41.2,0,0,1,1.53,14.51c-.31,7.17-.92,14.34-1.79,21.46a195.33,195.33,0,0,1-7.55,34.69q-4.17,13.31-8.37,26.61c-.94,3-1.91,6-2.82,9a1.36,1.36,0,0,0,.24,1.19c2.89,1.87,3.38,4.58,2.53,7.58-1,3.48-2.22,6.91-3.46,10.32-.72,2-1.64,3.89-2.5,5.83a2.83,2.83,0,0,1-3.37,1.81c-1-.18-1.92-.46-2.9-.7-.91,2.68-1.79,5.31-2.7,7.94a5.62,5.62,0,0,1-.59,1c-.27-.31-.7-.58-.79-.94-.5-2-.92-4-1.37-5.94C496,510.91,495.88,510.62,495.79,510.32ZM475.33,380.58c-1.86-.2-3.64-.33-5.41-.59-.71-.1-1,.1-1.19.76-1,3.24-2.12,6.45-3,9.72-2.8,10.28-3.89,20.85-5,31.4-.75,7.14-1.24,14.31-1.76,21.48q-1,13.5-1.84,27c-.45,7.29-.8,14.59-1.14,21.89-.1,2,0,4,0,6.07,12.48-.58,25.1.17,37.8-1,0-.53-.05-1-.09-1.47-.37-4.17-1-8.34-1.06-12.52-.29-11.54-.58-23.08-.44-34.62a206.62,206.62,0,0,1,1.48-24.37c1.9-14.61,6-28.72,11.32-42.47a11.67,11.67,0,0,1,.95-2.06c.15-.25.63-.29,1-.42a6.56,6.56,0,0,1,.26,1.06c0,.16-.2.33-.28.51l-2.7,6.67a3.27,3.27,0,0,0,.49,0c4.49-1.9,9-3.79,13.43-5.74.27-.11.47-.74.44-1.11-.22-2.46-1.45-4.52-2.69-6.58A22.4,22.4,0,0,0,503.16,364a13.42,13.42,0,0,0-1.41-.3c-.11.31-.21.53-.27.76-1.22,5.28-2.43,10.57-3.69,15.85-.09.37-.51.91-.81.93-1.62.12-3.25.13-4.88.13-1,0-1.91-.11-2.87-.08a1.18,1.18,0,0,0-.84.57,8.82,8.82,0,0,0-.47,1.74c2.27.06,2.82,1.72,2.91,3.37a39.91,39.91,0,0,1-.45,5.31c-.24,3.14-2,5.09-4.76,6.34-3,1.34-6,1.21-9.16.78a7.47,7.47,0,0,1-6.17-7.07,28.06,28.06,0,0,1,.44-5.33c.38-2.2,1.15-4.2,4-3.87Zm53.91-.72a5.47,5.47,0,0,0-.79.13c-3.87,1.29-7.79,2.48-11.6,3.93-3.65,1.39-7.16,3.15-10.8,4.56a5.18,5.18,0,0,0-3.37,3.69c-4.71,14.77-8.37,29.74-8.86,45.31-.29,9.25-.27,18.52-.38,27.78a6,6,0,0,0,.11.82,85.06,85.06,0,0,1,19,7.32,8.24,8.24,0,0,0,.34-.84c3.29-10.59,6.72-21.14,9.8-31.79A177.76,177.76,0,0,0,529,407.54c.59-6.58.93-13.21,1.12-19.82A54.71,54.71,0,0,0,529.24,379.86Zm-59.7-1.22c2.76.25,5.45.6,8.14.71,5.92.24,11.85.34,17.78.56.88,0,1.16-.28,1.34-1.07,1.77-7.86,3.62-15.69,5.32-23.57a41.45,41.45,0,0,0,.8-6.95c.11-2.4-1.22-3.85-3.47-4.73-4.35-1.69-8.64-3.55-12.95-5.33a5,5,0,0,0-.7-.15c-.23,2.56-.55,5.06-.64,7.56-.06,1.83.13,3.63-1.87,4.63a2.16,2.16,0,0,0-.71.81c-1.84,2.84-4,5.53-5.42,8.58-2.71,5.9-5,12-7.41,18A6.61,6.61,0,0,0,469.54,378.64Zm-14,131.86c1.35.14,2.89.41,4.42.42,5.38.06,10.78.29,16.15,0,6.19-.36,12.36-1.22,18.54-1.88a1.56,1.56,0,0,0,.77-.28,10.08,10.08,0,0,0,.86-1l.33.14c-.25-3.09.58-6.29-1-9.26-.22.82-.72.75-1.3.58a5.36,5.36,0,0,0-1.62-.41c-7.49.18-15,.46-22.48.61-4.82.1-9.64,0-14.69,0Zm38.37-32.35c-.1.26-.16.34-.15.41.42,5.89.83,11.78,1.28,17.66a1.11,1.11,0,0,0,.52.81,3.17,3.17,0,0,1,2.06,2.86c.19,1.9.25,3.82.26,5.73,0,.67.15,1,.81,1.19,1.81.52,3.58,1.13,5.38,1.64,1.44.4,2,.06,2.62-1.31.84-1.94,1.79-3.84,2.49-5.83,1.2-3.38,2.36-6.78,3.33-10.24.67-2.4-.13-4.4-1.81-5.39-.93-.56-1.91-1.06-2.89-1.53-2.81-1.34-5.61-2.71-8.46-4C497.59,479.41,495.74,478.82,493.92,478.15Zm34.86-99.69a22.22,22.22,0,0,0-3.24-7.86,67.26,67.26,0,0,0-9.73-10.37c-3.37-3-7.53-4.23-11.77-5.27a.23.23,0,0,0-.19.06L502,362.25c9.83,2.84,15.55,9.37,18.22,18.93Zm-19.38,105c.81-2.58,1.51-5,2.35-7.35.35-1,.19-1.49-.75-1.95a85.38,85.38,0,0,0-16.46-6.42,6,6,0,0,0-.84-.12c0,2.94,0,5.8,0,8.66,0,.25.45.58.76.7,2.14.86,4.33,1.6,6.44,2.52C503.74,480.69,506.48,482.05,509.4,483.42Zm-28.62-87.56a7.27,7.27,0,0,0,6.75-8c-.09-.68-.43-.8-1-.82-3.46-.12-6.91-.26-10.37-.45-.77,0-1.12.24-1.19,1-.12,1.23-.27,2.46-.31,3.69a3.44,3.44,0,0,0,2.38,3.62C478.22,395.33,479.52,395.54,480.78,395.86Zm-6.42-11.29c-1.2,0-1.59.17-1.9,1.32a31.69,31.69,0,0,0-.92,4.91,6.43,6.43,0,0,0,5.51,7.31c.94.17,1.9.23,2.85.31a9,9,0,0,0,9.5-11.94c-.29-.91-.81-1.28-1.94-1.15.16.37.22.81.43.91,1,.46,1.07,1.35,1,2.22-.23,5.55-3.58,8.65-9.07,8.45l-.72,0c-3.82-.26-5.88-2.49-5.78-6.29a19.09,19.09,0,0,1,.23-2.73C473.78,386.75,474.1,385.67,474.36,384.57Zm12.33-3.26a1.11,1.11,0,0,0-.33-.16c-3-.16-6.05-.33-9.08-.46a.75.75,0,0,0-.62.38c-.34,1.37-.61,2.75-.93,4.25l10.26.57ZM498,513.69l.31,0,1.68-5-1.79-.68c-.37.56-1,1.11-1,1.6A30.44,30.44,0,0,0,498,513.69Z" transform="translate(-389.44 -335.11)"/><path d="M435,371.51l3.2.41c1.82.22,2.58.94,2.33,2.76-.36,2.6-.91,5.18-1.51,7.74A188.66,188.66,0,0,0,435.48,405c-.55,4.95-1.52,9.86-2.15,14.8s-1.13,10.15-1.61,15.23-.92,10.25-1.29,15.38c-.42,5.82-.82,11.63-1.09,17.45-.25,5.38-.39,10.78-.41,16.17,0,7.42.1,14.85.14,22.27a19.26,19.26,0,0,1-.21,3c0,.24-.53.53-.84.59a82,82,0,0,1-20.5,1.19c-4.25-.23-8.51-.69-12.71-1.33-3.18-.49-4-1.68-4.07-4.91a50,50,0,0,1,.15-5.74c.22-2.26,1.25-3.32,3.59-4,0-.38,0-.81,0-1.24.09-6.79.08-13.58.32-20.36.23-6.58.54-13.17,1.13-19.72a69.76,69.76,0,0,0-1-17.85c-1.51-9.21-3-18.42-4.37-27.65a84.55,84.55,0,0,1-.75-21.14,73.5,73.5,0,0,1,2-11.53,24.61,24.61,0,0,1,14.86-17.05,34.16,34.16,0,0,1,12-3c.36,0,.85-.49,1-.87,1.75-3.77,3.49-7.53,6.22-10.74a12.8,12.8,0,0,1,5.56-4.17c4-1.38,7.9-3,11.89-4.38a11.77,11.77,0,0,1,3.72-.33c.2,0,.61.68.59,1-.22,5-.63,10.05-.71,15.07a7,7,0,0,1-2.25,5c-3.84,4.09-7.23,8.52-9.24,13.85C435.31,370.44,435.2,370.86,435,371.51Zm-18.94-7.42c-4.85.3-14.34,7-16.1,13.57l7.87,5.3c.62-2,1.17-3.89,1.83-5.77.13-.38.66-.62,1-.93a4,4,0,0,1,.2,1.33c-.49,2.35-1.86,4.49-1.59,7,0,.12-.17.26-.24.4a5.93,5.93,0,0,0-.64,1.22c-.92,3.59-1.83,7.19-2.69,10.8-1.58,6.63-3.6,13.21-4.59,19.93-1.58,10.8-2.57,21.69-3.63,32.56-.54,5.52-.78,11.08-1,16.62-.33,9.42-.51,18.84-.75,28.26,0,.46,0,.92,0,1.51l24.36-.56a756.84,756.84,0,0,1,12.79-122.51h-1.36a82.6,82.6,0,0,0-15.67,1.78,10.07,10.07,0,0,1-2.71-.19c.1-1,.2-2,.31-3,0,0,0-.07.05-.1C414.37,369,415.19,366.59,416.06,364.09Zm17.5,7.35c1.78-6,5.41-10.82,9.4-15.38a9,9,0,0,1,1.73-1.65,2,2,0,0,0,.88-1.8c.2-4.83.45-9.65.67-14.47,0-.62,0-1.24,0-1.95a8.36,8.36,0,0,0-1.3.23c-4.17,1.48-8.28,3.14-12.5,4.43a12.27,12.27,0,0,0-7.2,6c-.16.28-.34.54-.5.82a100.66,100.66,0,0,0-8.4,19.67c-.63,2-1.25,4-1.88,6A101.21,101.21,0,0,1,433.56,371.44Zm1,1.45c-4.8,20.09-6.83,40.5-9.1,60.87a593.08,593.08,0,0,0-3.86,61.45l5.59-.29c.11-2.66.26-5.16.33-7.66.27-8.66.44-17.33.81-26,.22-5.43.69-10.84,1.11-16.25.29-3.7.64-7.39,1-11.09.51-5,1-10,1.6-15,.67-5.3,1.51-10.58,2.28-15.87.79-5.45,1.48-10.91,2.39-16.33.67-4,1.61-7.9,2.45-11.84.23-1.06-.18-1.61-1.23-1.71Zm-37.79,66.2.1.06c.34-2.93.61-5.87,1-8.78.81-5.77,1.39-11.58,2.61-17.26,2-9.27,4.43-18.45,6.69-27.67.14-.56.29-1-.36-1.44-3.6-2.21-7.15-4.49-10.77-6.67a18.87,18.87,0,0,0-3-1.19,10,10,0,0,0-.37,1.07,71.73,71.73,0,0,0-1.59,22.71c.5,5.79,1.41,11.55,2.26,17.31C394.45,424.53,395.65,431.8,396.8,439.09ZM427,496.36h-1.2l-29.42.74a18.79,18.79,0,0,0-2.81,0c-.45.07-1.13.64-1.16,1-.17,2.42-.26,4.85-.25,7.28,0,1.88.47,2.5,2.35,2.9a60.38,60.38,0,0,0,7.31,1.15,129.47,129.47,0,0,0,20.56,0c1.57-.11,3.13-.35,4.62-.53ZM418.68,356.9a33.23,33.23,0,0,0-16.38,5.62,23.12,23.12,0,0,0-8.89,12.24l5.22,2.19c.18-.35.36-.69.53-1a21.19,21.19,0,0,1,5.69-7.45c3.2-2.73,6.63-5,10.82-5.86a1.62,1.62,0,0,0,1.06-.64C417.4,360.4,418,358.79,418.68,356.9Z" transform="translate(-389.44 -335.11)"/></g></svg>