<svg id="pk셔츠_이미지" data-name="pk셔츠 이미지" xmlns="http://www.w3.org/2000/svg" viewBox="0 0 148.05 180.17"><defs><style>.cls-1{fill:#fff;}</style></defs><g id="색"><path class="cls-1" d="M438.51,410.44c-.44,1.3-.31,1.48,1.1,1.53,2,.06,4.06.16,6.09.15.27,0,.73-.47.78-.77.23-1.58.35-3.17.51-4.76.82-8.09,1.63-16.19,2.48-24.28a28.09,28.09,0,0,1,.66-3.26,1.07,1.07,0,0,1,.27-.38.67.67,0,0,1,.19-.14c3.7-2.31,7-4.95,7.68-9.79a13.87,13.87,0,0,1,4.1,5.66c1.32,4.06,2.54,8.15,3.8,12.23.18.6.38,1.19.65,2,.89-.84,1.69-1.5,2.37-2.26,1.43-1.61,2.81-3.27,4.19-4.92q9.93-11.93,19.87-23.83c.75-.89,1.77-1.56.91-3.11,1.36.16,2.49.22,3.6.43,2.74.52,5.48,1,8.19,1.68a27.49,27.49,0,0,1,16.28,10.83A38.11,38.11,0,0,1,529,384.89c1.21,8.19,1.77,16.42,2.18,24.67.51,10.09,1.2,20.17,1.81,30.25,0,.11,0,.23-.05.59-13.26,1.29-26.55,1-40,.5.22-2.42.37-4.72.64-7a230.13,230.13,0,0,1,6.18-33,137.41,137.41,0,0,1,6.81-19.41c.27-.62,1.07-1.54,0-1.94s-1,.84-1.23,1.41c-5.19,11.59-8.34,23.77-10.65,36.21a216.61,216.61,0,0,0-3.27,25.63,141.27,141.27,0,0,0,.34,23.45c.18,1.7.33,3.41.53,5.12a1.2,1.2,0,0,1-.74,1.42c-10.3,5.11-20.79,9.79-31.55,13.87a15.53,15.53,0,0,1-9.95.26c-7.69-2.13-15-5.3-22.38-8.14-2.12-.81-4.27-1.52-6.67-2.36.61-.22,1-.38,1.36-.49L452.68,467c.27-.08.6-.09.78-.26a3.25,3.25,0,0,0,.49-.83,2.69,2.69,0,0,0-.91-.37,4.08,4.08,0,0,0-1.15.3c-14.28,4.31-28.55,8.68-42.86,12.9a74.25,74.25,0,0,1-10,2c-2.08.31-2.8-.38-3.37-2.39-.75-2.65-1.37-5.34-2.2-8-1.15-3.62-.46-7.22,0-10.79,1.17-8.17,2.29-16.35,3.73-24.48,1.3-7.33,2.94-14.61,4.55-21.89,2.4-10.91,5-21.78,8.84-32.3.42-1.16.94-2.29,1.33-3.47a3.49,3.49,0,0,0-.08-1.27c-.38.25-1,.42-1.11.77-1.28,3.44-2.61,6.86-3.7,10.37-4,13-6.85,26.24-9.59,39.53-.11.5-.22,1-.37,1.74l-9.46-.4c.1-1.95.15-3.7.29-5.44.85-10.23,1.56-20.46,2.65-30.66a82,82,0,0,1,3.27-17.26,21.87,21.87,0,0,1,13.3-14.15A58.18,58.18,0,0,1,424,356.86c2.22-.19,4.44-.45,6.87-.69-.23,1.82-.44,3.58-.67,5.33-.3,2.38-.64,4.75-.91,7.13a3.79,3.79,0,0,0,.21,1.52q1.67,5.12,3.4,10.22c.42,1.2.94,2.36,1.45,3.52a6.92,6.92,0,0,0,.82,1.09,57.46,57.46,0,0,1,6.28-14.83,10.77,10.77,0,0,1,.44,5.7,106.55,106.55,0,0,0-2.42,13c-.75,6.57-1.15,13.19-1.66,19.79-.05.67-.41,1.6.77,1.8Z" transform="translate(-386.15 -339.37)"/><path class="cls-1" d="M492.86,442.46h29.62c-.07.44-.1.74-.17,1-3.08,12.79-7.47,25.16-11.92,37.52q-5.92,16.44-11.87,32.88a1.1,1.1,0,0,1-.49.63c-.47-2.73-1-5.45-1.37-8.2-1.24-10.05-2.41-20.11-3.58-30.18-.08-.7-.42-1.49.59-2.05.35-.19.44-1.18.37-1.76-.25-2-.76-4.05-1-6.1a154,154,0,0,1-.3-23.33A2.66,2.66,0,0,1,492.86,442.46Z" transform="translate(-386.15 -339.37)"/><path class="cls-1" d="M467.55,386.21c-1.66-6.75-3-13.43-8.26-18.54l9-7.58c4.93-4.18,9.73-8.54,14.87-12.44,1.73-1.32,1.69-2.64,1.74-4.27,0-.71,0-1.42,0-2.44,2.39,1.15,4.54,2.17,6.66,3.25.22.12.34.6.38.92.39,3.29.77,6.58,1.08,9.87a2.13,2.13,0,0,1-.51,1.38c-2,2.51-4.14,5-6.21,7.46l-17.7,21.26C468.28,385.41,468,385.73,467.55,386.21Z" transform="translate(-386.15 -339.37)"/><path class="cls-1" d="M438.53,410.46a4.12,4.12,0,0,0,.56-1.33,245.55,245.55,0,0,1,2.64-26.51c.17-1,.53-1.36,1.59-1.35a36,36,0,0,0,4-.42c.34,0,.68,0,.92-.06-1,10-2,19.8-3.08,30l-6.64-.32Z" transform="translate(-386.15 -339.37)"/><path class="cls-1" d="M433.89,347.81c1,3.44,1.86,6.65,2.79,9.84.67,2.3,1.33,4.6,2.12,6.86a21.54,21.54,0,0,0,1.49,2.8,2.4,2.4,0,0,1-.24,2.33c-1.62,3.37-3.07,6.82-4.58,10.24-.18.42-.31.87-.47,1.3l-.35.06c-1.24-3.6-2.63-7.16-3.66-10.82a12,12,0,0,1,0-4.73c.79-5.64,1.71-11.26,2.59-16.89A9.65,9.65,0,0,1,433.89,347.81Z" transform="translate(-386.15 -339.37)"/><path class="cls-1" d="M446.14,340.94V353.3L437,354c-.6-2.36-1.19-4.59-1.71-6.83a1.09,1.09,0,0,1,.36-1c3.43-1.79,6.88-3.53,10.33-5.27C446,340.89,446.1,340.93,446.14,340.94Z" transform="translate(-386.15 -339.37)"/><path class="cls-1" d="M395.16,430h1.61l-.83,4.49h-.24Z" transform="translate(-386.15 -339.37)"/></g><path id="선" d="M534.18,438.2c-.51-8.84-1.14-17.69-1.57-26.54-.44-9.25-.81-18.51-2.47-27.64-.89-4.93-1.75-9.74-4.62-14.21-5-7.74-11.44-13-20.55-14.79-3.28-.64-6.57-1.21-9.87-1.75-.75-.12-1.09-.34-1.17-1.16-.25-2.62-.58-5.23-.93-7.84a1.63,1.63,0,0,0-.62-1.14c-2.45-1.12-5-2.08-7.41-3.24-1.39-.66-1.46.09-1.35,1,.41,3.41-1.18,5.67-3.75,7.77-7.12,5.8-14.06,11.82-21.07,17.74a4.67,4.67,0,0,1-.84.41c-.19.12-.47.23-.53.41-.58,1.57-1.11,3.16-1.68,4.73a2.71,2.71,0,0,1-.6,1.17c-1.88,1.55-3.91,2.92-5.69,4.56-2.07,1.92-4.47,1.75-7.16,1.57.42-1.54.82-3,1.21-4.43a3.25,3.25,0,0,0,.25-1.37,62.3,62.3,0,0,0-4-10.7,75.88,75.88,0,0,1-2.45-7.47l8.47-.64c.78-.06,1.57-.13,1.6-1.2.09-4.15.24-8.3.23-12.45,0-1.6-.85-2-2.31-1.34-2.77,1.33-5.51,2.72-8.25,4.11a14.18,14.18,0,0,1-2.85,1.5,1.87,1.87,0,0,0-1.57,1.66c-.48,2.27-1,4.52-1.38,6.8a1.14,1.14,0,0,1-1.21,1.14c-2.46.23-4.92.52-7.38.74a52.93,52.93,0,0,0-18.52,4.91,21.54,21.54,0,0,0-9.15,8.38c-2.67,4.42-3.79,9.4-4.71,14.37s-1.54,10.18-2.08,15.29c-.72,6.67-1.29,13.35-1.8,20-.25,3.29-.24,6.59-.27,9.89,0,.31.42.74.75.91a3.23,3.23,0,0,0,1.18.08l5.68.38c.28,2.23.56,4.33.8,6.43a16.3,16.3,0,0,1,.34,3.91c-1,7.19-2.14,14.36-3.15,21.54a18.17,18.17,0,0,0-.26,5.82c.76,3.91,1.91,7.74,3,11.58a3.73,3.73,0,0,0,4.07,3,20.93,20.93,0,0,0,4.74-.6c4.65-1.26,9.26-2.69,13.9-4a3.43,3.43,0,0,1,1.84-.13c3.31,1,6.65,2,9.88,3.25,7.31,2.88,14.56,6,22.22,7.82a10.87,10.87,0,0,0,4.36.4,40.57,40.57,0,0,0,8.38-2.29c9-3.82,17.81-7.87,26.71-11.83.28-.13.57-.23.95-.38.5,4.33,1,8.57,1.49,12.8,1,8.15,2.05,16.3,3.16,24.44.32,2.37.89,4.7,1.41,7,.07.33.52.57.8.86a4.93,4.93,0,0,0,.46-1.06,17.27,17.27,0,0,1,.35-2.32q6.18-17.31,12.43-34.6c4.35-12.09,8.65-24.2,11.75-36.7.19-.8.42-1.59.61-2.3,3.21-.25,6.26-.47,9.3-.76a1.09,1.09,0,0,0,.71-.75A13.62,13.62,0,0,0,534.18,438.2Zm-65.93-78.11c4.93-4.18,9.73-8.54,14.87-12.44,1.73-1.32,1.69-2.64,1.74-4.27,0-.71,0-1.42,0-2.44,2.39,1.15,4.54,2.17,6.66,3.25.22.12.34.6.38.92.39,3.29.77,6.58,1.08,9.87a2.13,2.13,0,0,1-.51,1.38c-2,2.51-4.14,5-6.21,7.46l-17.7,21.26c-.28.33-.58.65-1,1.13-1.66-6.75-3-13.43-8.26-18.54Zm-24.93,21.18a36,36,0,0,0,4-.42c.34,0,.68,0,.92-.06-1,10-2,19.8-3.08,30l-6.61-.31a4.27,4.27,0,0,0,.55-1.32,245.55,245.55,0,0,1,2.64-26.51C441.9,381.58,442.26,381.26,443.32,381.27Zm-7.7-35.08c3.43-1.79,6.88-3.53,10.33-5.27.06,0,.15,0,.19,0V353.3L437,354c-.6-2.36-1.19-4.59-1.71-6.83A1.09,1.09,0,0,1,435.62,346.19ZM431,365.69c.79-5.64,1.71-11.26,2.59-16.89a9.65,9.65,0,0,1,.3-1c1,3.44,1.86,6.65,2.79,9.84.67,2.3,1.33,4.6,2.12,6.86a21.54,21.54,0,0,0,1.49,2.8,2.4,2.4,0,0,1-.24,2.33c-1.62,3.37-3.07,6.82-4.58,10.24-.18.42-.31.87-.47,1.3l-.35.06c-1.24-3.6-2.63-7.16-3.66-10.82A12,12,0,0,1,431,365.69Zm91.31,77.79c-3.08,12.79-7.47,25.16-11.92,37.52q-5.92,16.44-11.87,32.88a1.1,1.1,0,0,1-.49.63c-.47-2.73-1-5.45-1.37-8.2-1.24-10.05-2.41-20.11-3.58-30.18-.08-.7-.42-1.49.59-2.05.35-.19.44-1.18.37-1.76-.25-2-.76-4.05-1-6.1a154,154,0,0,1-.3-23.33,2.66,2.66,0,0,1,.07-.43h29.62C522.41,442.9,522.38,443.2,522.31,443.48Zm10.62-3.08c-13.26,1.29-26.55,1-40,.5.22-2.42.37-4.72.64-7a230.13,230.13,0,0,1,6.18-33,137.41,137.41,0,0,1,6.81-19.41c.27-.62,1.07-1.54,0-1.94s-1,.84-1.23,1.41c-5.19,11.59-8.34,23.77-10.65,36.21a216.61,216.61,0,0,0-3.27,25.63,141.27,141.27,0,0,0,.34,23.45c.18,1.7.33,3.41.53,5.12a1.2,1.2,0,0,1-.74,1.42c-10.3,5.11-20.79,9.79-31.55,13.87a15.53,15.53,0,0,1-9.95.26c-7.69-2.13-15-5.3-22.38-8.14-2.12-.81-4.27-1.52-6.67-2.36.61-.22,1-.38,1.36-.49L452.68,467c.27-.08.6-.09.78-.26a3.25,3.25,0,0,0,.49-.83,2.69,2.69,0,0,0-.91-.37,4.08,4.08,0,0,0-1.15.3c-14.28,4.31-28.55,8.68-42.86,12.9a74.25,74.25,0,0,1-10,2c-2.08.31-2.8-.38-3.37-2.39-.75-2.65-1.37-5.34-2.2-8-1.15-3.62-.46-7.22,0-10.79,1.17-8.17,2.29-16.35,3.73-24.48,1.3-7.33,2.94-14.61,4.55-21.89,2.4-10.91,5-21.78,8.84-32.3.42-1.16.94-2.29,1.33-3.47a3.49,3.49,0,0,0-.08-1.27c-.38.25-1,.42-1.11.77-1.28,3.44-2.61,6.86-3.7,10.37-4,13-6.85,26.24-9.59,39.53-.11.5-.22,1-.37,1.74l-9.46-.4c.1-1.95.15-3.7.29-5.44.85-10.23,1.56-20.46,2.65-30.66a82,82,0,0,1,3.27-17.26,21.87,21.87,0,0,1,13.3-14.15A58.18,58.18,0,0,1,424,356.86c2.22-.19,4.44-.45,6.87-.69-.23,1.82-.44,3.58-.67,5.33-.3,2.38-.64,4.75-.91,7.13a3.79,3.79,0,0,0,.21,1.52q1.67,5.12,3.4,10.22c.42,1.2.94,2.36,1.45,3.52a6.92,6.92,0,0,0,.82,1.09,57.46,57.46,0,0,1,6.28-14.83,10.77,10.77,0,0,1,.44,5.7,106.55,106.55,0,0,0-2.42,13c-.75,6.57-1.15,13.19-1.66,19.79-.05.66-.41,1.59.75,1.79-.44,1.29-.31,1.47,1.1,1.52,2,.06,4.06.16,6.09.15.27,0,.73-.47.78-.77.23-1.58.35-3.17.51-4.76.82-8.09,1.63-16.19,2.48-24.28a28.09,28.09,0,0,1,.66-3.26,1.07,1.07,0,0,1,.27-.38.67.67,0,0,1,.19-.14c3.7-2.31,7-4.95,7.68-9.79a13.87,13.87,0,0,1,4.1,5.66c1.32,4.06,2.54,8.15,3.8,12.23.18.6.38,1.19.65,2,.89-.84,1.69-1.5,2.37-2.26,1.43-1.61,2.81-3.27,4.19-4.92q9.93-11.93,19.87-23.83c.75-.89,1.77-1.56.91-3.11,1.36.16,2.49.22,3.6.43,2.74.52,5.48,1,8.19,1.68a27.49,27.49,0,0,1,16.28,10.83A38.11,38.11,0,0,1,529,384.89c1.21,8.19,1.77,16.42,2.18,24.67.51,10.09,1.2,20.17,1.81,30.25C533,439.92,533,440,532.93,440.4ZM395.16,430h1.61l-.83,4.49h-.24C395.53,433.05,395.35,431.6,395.16,430Z" transform="translate(-386.15 -339.37)"/></svg>