<svg id="스웨터" xmlns="http://www.w3.org/2000/svg" viewBox="0 0 141.37 183.32"><defs><style>.cls-1{fill:#fff;}</style></defs><g id="색"><path class="cls-1" d="M521.47,367.65l-2.09,1.07a29.41,29.41,0,0,0-8.32,6.94c-1.43,1.6-3,3-4.53,4.57a2.14,2.14,0,0,0-.44.83c-4.28,12.41-9.2,24.61-12,37.5a136.86,136.86,0,0,0-3.23,24.17c-.25,7.22-.31,14.45-.22,21.67,0,3.9.59,7.79.93,11.89-1.52,0-3.13,0-4.74-.05-.19,0-.48-.65-.51-1-.25-3.7-.54-7.41-.65-11.12-.6-20.52,1.88-40.75,6.09-60.79a385.56,385.56,0,0,1,10.32-40c.46-1.41,1-2.79,1.45-4.19.13-.4.21-.81.32-1.21l-.33-.11c-.15.37-.32.74-.46,1.12-4.43,12.44-7.53,25.25-10.46,38.1a297.65,297.65,0,0,0-7.15,48,202.73,202.73,0,0,0,.21,28.74c.06.79.11,1.58.17,2.51-.45,0-.83.09-1.21.09-3.6,0-7.19,0-10.78,0-1,0-1.35-.32-1.33-1.28.08-7-.07-14,.25-21a396,396,0,0,1,7.15-60.52c1.79-8.8,4-17.51,6.15-26.24.6-2.48,1.56-4.86,2.34-7.3.14-.42.21-.85.31-1.28l-.31-.09c-.14.35-.29.7-.42,1-3.48,9.52-5.58,19.41-7.69,29.3a373.22,373.22,0,0,0-7.42,55.29c-.56,9.21-.7,18.44-1,27.66,0,1.38.1,2.77.17,4.28-.51,0-.93.07-1.35.07-3.4,0-6.79,0-10.18,0-1.07,0-1.41-.28-1.5-1.37-.87-10.72-.25-21.41.73-32.07,1.39-15.2,2.8-30.39,5.28-45.46a253.2,253.2,0,0,1,6.68-31.15c.87-2.92,2.12-4.47,5.38-5.06a72.71,72.71,0,0,0,18.1-5.76,7.22,7.22,0,0,1,3-.12,23.83,23.83,0,0,1,9.88,2.1,42,42,0,0,1,12.84,9.27,8.3,8.3,0,0,1,.54.64C521.46,367.41,521.45,367.51,521.47,367.65Z" transform="translate(-390.28 -336.02)"/><path class="cls-1" d="M427,476.24c-.52,0-.91.07-1.3.07-5.35,0-10.7,0-16.05,0-1.09,0-1.41-.31-1.43-1.41a297.79,297.79,0,0,1,4.45-56.4,482.23,482.23,0,0,1,13.94-58.45c.4-1.3.78-2.61,1.08-3.93a1.25,1.25,0,0,1,1.16-1.14c2.57-.33,5.13-.7,7.7-1a2.23,2.23,0,0,1,1.33.32c2,1.2,3.89,2.51,5.88,3.67a1.15,1.15,0,0,1,.59,1.71,192.35,192.35,0,0,0-8.17,26.54,333.47,333.47,0,0,0-5.84,38.1c-1.47,14.18-2.95,28.36-3.33,42.63-.06,2.59,0,5.19,0,7.78C427,475.23,427,475.7,427,476.24Z" transform="translate(-390.28 -336.02)"/><path class="cls-1" d="M472.53,362.58c-.31.89-.73,2-1.08,3.12a198.11,198.11,0,0,0-6.62,30,542.81,542.81,0,0,0-6.64,67c-.12,4,.22,8.06.35,12.09,0,.43,0,.87.07,1.42-.4,0-.74.1-1.08.1-4.72,0-9.43,0-14.14,0-1,0-1.29-.38-1.25-1.32.32-8,.47-16,.95-24.06.77-12.63,1.82-25.25,3.73-37.78,2.37-15.54,5.51-30.9,10.71-45.78.46-1.32,1-2.63,1.51-3.91.16-.35.63-.8,1-.8C464.18,362.61,468.36,362.6,472.53,362.58Z" transform="translate(-390.28 -336.02)"/><path class="cls-1" d="M441.55,476.24h-14c0-.61-.08-1.16-.09-1.71a323,323,0,0,1,1.93-36c1.38-14.39,2.83-28.77,5.39-43a197.92,197.92,0,0,1,10.11-35.93c.07-.18.15-.36.3-.69a37.26,37.26,0,0,0,13.55,3.69c-.32.85-.61,1.57-.88,2.3-4.6,12.41-7.57,25.24-9.94,38.22a380.6,380.6,0,0,0-5.27,46.52c-.5,8.57-.7,17.15-1,25.73C441.64,475.63,441.59,475.9,441.55,476.24Z" transform="translate(-390.28 -336.02)"/><path class="cls-1" d="M408.57,379.93c-1.81-5.62-4.63-10.58-9.31-14.41a15.11,15.11,0,0,1,5.92-4.81,60.7,60.7,0,0,1,16.44-4.55l5.77-.87c-.33,1.23-.56,2.22-.86,3.2-4.81,15.5-8.69,31.23-12,47.12a314.35,314.35,0,0,0-6.89,67.22c0,1.1,0,2.21,0,3.4H395.3c0-.56,0-1.07,0-1.58.44-7.33.76-14.67,1.38-22,.64-7.51,1.3-15,2.45-22.48,1.44-9.29,3.29-18.53,5.14-27.75,1-4.69,2.25-9.31,3.47-13.94,1-3.77,2.11-7.51,3.16-11.27a1.51,1.51,0,0,0,.14-.7,9.52,9.52,0,0,0-.5-1.31,4,4,0,0,0-.81,1.1c-.35,1.17-.58,2.38-.86,3.58Z" transform="translate(-390.28 -336.02)"/><path class="cls-1" d="M522.11,374.52c-.15.82-.2,1.24-.3,1.65-4.67,19.34-9.49,38.63-14,58-4,17.55-7.74,35.18-11.56,52.79-.44,2-.66,4.08-1.21,6.14-.11-1-.2-2-.32-2.94-.75-6.25-1.6-12.5-2.23-18.77-.41-4.08-.62-8.19-.7-12.3a171,171,0,0,1,3.37-39.16,217.6,217.6,0,0,1,9.22-30.08c.93-2.51,1.73-5.06,2.7-7.55a4.23,4.23,0,0,1,1.47-1.93c1.93-1.24,4-2.32,6-3.46l.27.24c-.14.61-.22,1.23-.4,1.82-2,6.49-4.18,12.93-6,19.46-6.5,23.17-12.12,46.53-15.76,70.34-.06.36-.07.73-.1,1.09l.35.07c.08-.35.19-.69.25-1.05a566.42,566.42,0,0,1,20.16-84.41c.79-2.41,1.3-4.92,2-7.38,0-.16.15-.4.29-.44C517.63,376,519.73,375.28,522.11,374.52Z" transform="translate(-390.28 -336.02)"/><path class="cls-1" d="M468.8,336.8a111,111,0,0,1,24.11,2.81c2.19.53,2.81,1.18,2.71,3.38-.16,3.54-.47,7.08-.63,10.63a1.31,1.31,0,0,1-.93,1.31,87.45,87.45,0,0,1-15.21,5,60.5,60.5,0,0,1-17.07,1.89,39.73,39.73,0,0,1-21.86-7.17c-1.85-1.28-3.14-2.82-3-5.21.2-3,.43-6,.65-8.92a1.19,1.19,0,0,1,1.19-1.23c3.16-.4,6.31-1,9.48-1.24C455.1,337.56,462,337.22,468.8,336.8Z" transform="translate(-390.28 -336.02)"/><path class="cls-1" d="M525.18,373.81a26.47,26.47,0,0,0-8.86,2c-2.7,1.12-5.31,2.49-8,3.8.93-1.05,1.86-2.06,2.75-3.1a29.36,29.36,0,0,1,8.91-7.53c2.06-1.05,2-1.06,3.44.72a30.37,30.37,0,0,1,5.76,11.73,7,7,0,0,1,0,3.39c-2.77,10.42-5.43,20.87-8.51,31.21-6.93,23.33-13.08,46.85-17.91,70.7-1.7,8.42-3.24,16.87-4.86,25.3a.69.69,0,0,1-.31.47c-.31-2-.65-3.95-.93-5.93-.41-2.88-.81-5.77-1.13-8.66a13.41,13.41,0,0,1,.09-3.1,326.81,326.81,0,0,1,6.44-33.28c4.77-20.17,9.77-40.28,14.6-60.44,2-8.19,3.79-16.42,5.59-24.65.3-1.35.68-2.25,2.24-2.08a1,1,0,0,0,.45-.12C525,374.21,525,374.11,525.18,373.81Z" transform="translate(-390.28 -336.02)"/><path class="cls-1" d="M529.91,385.32c.07,1,.18,2,.23,2.95.37,6.77-.53,13.45-1.43,20.14A323.26,323.26,0,0,1,522.18,443c-2.17,8.78-5.06,17.39-7.62,26.08-4.52,15.33-10.23,30.24-15.77,45.21a2.47,2.47,0,0,1-.75,1.15c.06-.63.07-1.27.18-1.89,1.5-8,2.94-16,4.52-24,4.73-23.88,10.74-47.44,17.68-70.77,3.22-10.83,6-21.78,9-32.68.07-.25.17-.5.25-.75Z" transform="translate(-390.28 -336.02)"/><path class="cls-1" d="M397.7,370.78c2.41,2.15,4.7,4.14,6.3,6.75a2.54,2.54,0,0,1,.14,1.6c-2.12,12.6-4.29,25.2-6.38,37.81-.78,4.73-1.35,9.49-2,14.23a1.9,1.9,0,0,1-.48,1.13c-.47-3.38-1-6.75-1.41-10.14-.76-6,.18-11.93.4-17.89.42-11,1.86-21.88,3.29-32.78C397.56,371.34,397.61,371.19,397.7,370.78Z" transform="translate(-390.28 -336.02)"/><path class="cls-1" d="M396.24,438.66a31.54,31.54,0,0,1-.23-5.3c1.87-15.83,4.76-31.51,7.56-47.19.41-2.31.73-4.62,1.27-6.95,1.21,2.32,2.88,4.44,2.05,7.37a336,336,0,0,0-9.16,43.28c-.42,2.92-.72,5.86-1.08,8.79Z" transform="translate(-390.28 -336.02)"/><path class="cls-1" d="M396.36,369.87c.94.24.76.94.68,1.56-.52,4.12-1.21,8.22-1.56,12.35-.82,9.66-1.48,19.33-2.21,29a3.57,3.57,0,0,1-.35,1.5c-.24-3.15-.55-6.3-.69-9.46-.24-5.38-.54-10.76-.49-16.14a40.84,40.84,0,0,1,4-17.83c.12-.25.24-.5.37-.75C396.17,370,396.24,370,396.36,369.87Z" transform="translate(-390.28 -336.02)"/><path class="cls-1" d="M407.54,383.92c-1.8-6.43-6-10.81-11-14.74l2.31-3.39c1.13,1.1,2.19,2,3.09,3A30.17,30.17,0,0,1,408,380,5.32,5.32,0,0,1,407.54,383.92Z" transform="translate(-390.28 -336.02)"/></g><g id="선"><path d="M393.82,477.67c.28-5.93.46-11.71.84-17.49.32-4.85.93-9.69,1.26-14.54a20.44,20.44,0,0,0-.44-4.39c-1-6.27-2.09-12.51-2.92-18.79-.7-5.38-1.14-10.79-1.58-16.2-.3-3.74-.4-7.5-.58-11.24-.32-6.79-.14-13.58,2.29-20,2.09-5.52,4.7-10.9,10-14.28a32.88,32.88,0,0,1,12.86-4.62c6.57-1,13.16-2,19.74-2.95.23,0,.46-.11.8-.2-.1-.69-.2-1.35-.3-2a31.7,31.7,0,0,1,.74-11.76,1.72,1.72,0,0,1,1.59-1.38,69.82,69.82,0,0,1,14.22-1.64c7.06.13,14.13-.13,21.19-.17a71.26,71.26,0,0,1,8.14.25,82,82,0,0,1,8.33,1.57c2,.42,3.93,1,5.86,1.52a1.33,1.33,0,0,1,.73.9,15.82,15.82,0,0,1,.32,3.21c-.1,3.26-.3,6.53-.46,9.87,1.51.2,3,.41,4.49.58,4.46.52,8.32,2.52,12.18,4.68a34.52,34.52,0,0,1,10.46,8.61,36.8,36.8,0,0,1,6.89,13.55,45.75,45.75,0,0,1,1,15.45c-1,12.42-3.24,24.66-5.62,36.89-2.57,13.17-6.77,25.85-10.66,38.64-4.64,15.24-10.27,30.14-15.93,45a16.88,16.88,0,0,1-1.54,2.56l-.41-.14c-.24-1.58-.49-3.17-.71-4.76-.68-4.82-1.4-9.63-2-14.46-.87-7.09-1.67-14.18-2.45-21.28-.09-.82-.37-1.06-1.17-1.05-5.69,0-11.39,0-17.08,0l-12.78,0q-16.14,0-32.26,0c-4.94,0-9.87-.22-14.8-.21-6.46,0-12.93.15-19.39.23Zm127.65-110c0-.14,0-.24-.05-.29a8.3,8.3,0,0,0-.54-.64A42,42,0,0,0,508,357.45a23.83,23.83,0,0,0-9.88-2.1,7.22,7.22,0,0,0-3,.12,72.71,72.71,0,0,1-18.1,5.76c-3.26.59-4.51,2.14-5.38,5.06a253.2,253.2,0,0,0-6.68,31.15c-2.48,15.07-3.89,30.26-5.28,45.46-1,10.66-1.6,21.35-.73,32.07.09,1.09.43,1.39,1.5,1.37,3.39-.07,6.78,0,10.18,0,.42,0,.84,0,1.35-.07-.07-1.51-.22-2.9-.17-4.28.29-9.22.43-18.45,1-27.66A373.22,373.22,0,0,1,480.31,389c2.11-9.89,4.21-19.78,7.69-29.3.13-.35.28-.7.42-1l.31.09c-.1.43-.17.86-.31,1.28-.78,2.44-1.74,4.82-2.34,7.3-2.13,8.73-4.36,17.44-6.15,26.24a396,396,0,0,0-7.15,60.52c-.32,7-.17,14-.25,21,0,1,.33,1.3,1.33,1.28,3.59-.05,7.18,0,10.78,0,.38,0,.76-.06,1.21-.09-.06-.93-.11-1.72-.17-2.51a202.73,202.73,0,0,1-.21-28.74,297.65,297.65,0,0,1,7.15-48c2.93-12.85,6-25.66,10.46-38.1.14-.38.31-.75.46-1.12l.33.11c-.11.4-.19.81-.32,1.21-.47,1.4-1,2.78-1.45,4.19a385.56,385.56,0,0,0-10.32,40c-4.21,20-6.69,40.27-6.09,60.79.11,3.71.4,7.42.65,11.12,0,.37.32,1,.51,1,1.61.08,3.22.05,4.74.05-.34-4.1-.88-8-.93-11.89-.09-7.22,0-14.45.22-21.67a136.86,136.86,0,0,1,3.23-24.17c2.78-12.89,7.7-25.09,12-37.5a2.14,2.14,0,0,1,.44-.83c1.5-1.53,3.1-3,4.53-4.57a29.41,29.41,0,0,1,8.32-6.94ZM427,476.24c0-.54,0-1,0-1.48,0-2.59-.05-5.19,0-7.78.38-14.27,1.86-28.45,3.33-42.63a333.47,333.47,0,0,1,5.84-38.1,192.35,192.35,0,0,1,8.17-26.54,1.15,1.15,0,0,0-.59-1.71c-2-1.16-3.9-2.47-5.88-3.67a2.23,2.23,0,0,0-1.33-.32c-2.57.3-5.13.67-7.7,1a1.25,1.25,0,0,0-1.16,1.14c-.3,1.32-.68,2.63-1.08,3.93a482.23,482.23,0,0,0-13.94,58.45,297.79,297.79,0,0,0-4.45,56.4c0,1.1.34,1.42,1.43,1.41,5.35-.06,10.7,0,16.05,0C426.08,476.31,426.47,476.27,427,476.24Zm45.54-113.66c-4.17,0-8.35,0-12.52.11-.34,0-.81.45-1,.8-.56,1.28-1.05,2.59-1.51,3.91-5.2,14.88-8.34,30.24-10.71,45.78-1.91,12.53-3,25.15-3.73,37.78-.48,8-.63,16-.95,24.06,0,.94.21,1.33,1.25,1.32,4.71-.06,9.42,0,14.14,0,.34,0,.68-.06,1.08-.1,0-.55-.06-1-.07-1.42-.13-4-.47-8.07-.35-12.09a542.81,542.81,0,0,1,6.64-67,198.11,198.11,0,0,1,6.62-30C471.8,364.58,472.22,363.47,472.53,362.58Zm-31,113.66c0-.34.09-.61.1-.88.33-8.58.53-17.16,1-25.73A380.6,380.6,0,0,1,448,403.11c2.37-13,5.34-25.81,9.94-38.22.27-.73.56-1.45.88-2.3a37.26,37.26,0,0,1-13.55-3.69c-.15.33-.23.51-.3.69a197.92,197.92,0,0,0-10.11,35.93c-2.56,14.25-4,28.63-5.39,43a323,323,0,0,0-1.93,36c0,.55.05,1.1.09,1.71Zm-33-96.31.31,0c.28-1.2.51-2.41.86-3.58a4,4,0,0,1,.81-1.1,9.52,9.52,0,0,1,.5,1.31,1.51,1.51,0,0,1-.14.7c-1.05,3.76-2.17,7.5-3.16,11.27-1.22,4.63-2.52,9.25-3.47,13.94-1.85,9.22-3.7,18.46-5.14,27.75-1.15,7.44-1.81,15-2.45,22.48-.62,7.31-.94,14.65-1.38,22,0,.51,0,1,0,1.58h12.37c0-1.19,0-2.3,0-3.4a314.35,314.35,0,0,1,6.89-67.22c3.29-15.89,7.17-31.62,12-47.12.3-1,.53-2,.86-3.2l-5.77.87a60.7,60.7,0,0,0-16.44,4.55,15.11,15.11,0,0,0-5.92,4.81C403.94,369.35,406.76,374.31,408.57,379.93Zm113.54-5.41c-2.38.76-4.48,1.44-6.57,2.14-.14,0-.25.28-.29.44-.66,2.46-1.17,5-2,7.38a566.42,566.42,0,0,0-20.16,84.41c-.06.36-.17.7-.25,1.05l-.35-.07c0-.36,0-.73.1-1.09,3.64-23.81,9.26-47.17,15.76-70.34,1.84-6.53,4-13,6-19.46.18-.59.26-1.21.4-1.82l-.27-.24c-2,1.14-4,2.22-6,3.46a4.23,4.23,0,0,0-1.47,1.93c-1,2.49-1.77,5-2.7,7.55a217.6,217.6,0,0,0-9.22,30.08,171,171,0,0,0-3.37,39.16c.08,4.11.29,8.22.7,12.3.63,6.27,1.48,12.52,2.23,18.77.12,1,.21,2,.32,2.94.55-2.06.77-4.12,1.21-6.14,3.82-17.61,7.51-35.24,11.56-52.79,4.48-19.38,9.3-38.67,14-58C521.91,375.76,522,375.34,522.11,374.52ZM468.8,336.8c-6.85.42-13.7.76-20.54,1.28-3.17.24-6.32.84-9.48,1.24a1.19,1.19,0,0,0-1.19,1.23c-.22,3-.45,5.94-.65,8.92-.16,2.39,1.13,3.93,3,5.21a39.73,39.73,0,0,0,21.86,7.17A60.5,60.5,0,0,0,478.85,360a87.45,87.45,0,0,0,15.21-5,1.31,1.31,0,0,0,.93-1.31c.16-3.55.47-7.09.63-10.63.1-2.2-.52-2.85-2.71-3.38A111,111,0,0,0,468.8,336.8Zm56.38,37c-.17.3-.19.4-.25.43a1,1,0,0,1-.45.12c-1.56-.17-1.94.73-2.24,2.08-1.8,8.23-3.62,16.46-5.59,24.65-4.83,20.16-9.83,40.27-14.6,60.44a326.81,326.81,0,0,0-6.44,33.28,13.41,13.41,0,0,0-.09,3.1c.32,2.89.72,5.78,1.13,8.66.28,2,.62,4,.93,5.93a.69.69,0,0,0,.31-.47c1.62-8.43,3.16-16.88,4.86-25.3,4.83-23.85,11-47.37,17.91-70.7,3.08-10.34,5.74-20.79,8.51-31.21a7,7,0,0,0,0-3.39,30.37,30.37,0,0,0-5.76-11.73c-1.45-1.78-1.38-1.77-3.44-.72a29.36,29.36,0,0,0-8.91,7.53c-.89,1-1.82,2.05-2.75,3.1,2.73-1.31,5.34-2.68,8-3.8A26.47,26.47,0,0,1,525.18,373.81Zm4.73,11.51-.2,0c-.08.25-.18.5-.25.75-3,10.9-5.82,21.85-9,32.68-6.94,23.33-12.95,46.89-17.68,70.77-1.58,8-3,16-4.52,24-.11.62-.12,1.26-.18,1.89a2.47,2.47,0,0,0,.75-1.15c5.54-15,11.25-29.88,15.77-45.21,2.56-8.69,5.45-17.3,7.62-26.08a323.26,323.26,0,0,0,6.53-34.56c.9-6.69,1.8-13.37,1.43-20.14C530.09,387.28,530,386.3,529.91,385.32ZM397.7,370.78c-.09.41-.14.56-.16.71-1.43,10.9-2.87,21.79-3.29,32.78-.22,6-1.16,11.91-.4,17.89.42,3.39.94,6.76,1.41,10.14a1.9,1.9,0,0,0,.48-1.13c.67-4.74,1.24-9.5,2-14.23,2.09-12.61,4.26-25.21,6.38-37.81a2.54,2.54,0,0,0-.14-1.6C402.4,374.92,400.11,372.93,397.7,370.78Zm-1.46,67.88h.41c.36-2.93.66-5.87,1.08-8.79a336,336,0,0,1,9.16-43.28c.83-2.93-.84-5-2.05-7.37-.54,2.33-.86,4.64-1.27,6.95-2.8,15.68-5.69,31.36-7.56,47.19A31.54,31.54,0,0,0,396.24,438.66Zm.12-68.79c-.12.12-.19.16-.23.23-.13.25-.25.5-.37.75a40.84,40.84,0,0,0-4,17.83c-.05,5.38.25,10.76.49,16.14.14,3.16.45,6.31.69,9.46a3.57,3.57,0,0,0,.35-1.5c.73-9.67,1.39-19.34,2.21-29,.35-4.13,1-8.23,1.56-12.35C397.12,370.81,397.3,370.11,396.36,369.87Zm11.18,14.05A5.32,5.32,0,0,0,408,380,30.17,30.17,0,0,0,402,368.82c-.9-1-2-1.93-3.09-3l-2.31,3.39C401.54,373.11,405.74,377.49,407.54,383.92Z" transform="translate(-390.28 -336.02)"/></g></svg>