<svg id="티셔츠" xmlns="http://www.w3.org/2000/svg" viewBox="0 0 170.81 137.33"><defs><style>.cls-1{fill:#fff;}</style></defs><g id="레이어_17_이미지" data-name="레이어 17 이미지"><path class="cls-1" d="M494.6,454.72c0-2.9,0-5.65,0-8.4.1-5.59.13-11.18.38-16.77a113.36,113.36,0,0,1,6.11-31c2.11-6.32,4.46-12.56,6.68-18.84.19-.56.88-1.35-.07-1.72-.28-.11-1.15.65-1.36,1.16-2.08,5.06-4.2,10.1-6.06,15.24a123.17,123.17,0,0,0-6.65,26.17,108.67,108.67,0,0,0-1,11.93c-.17,9.5-.16,19-.09,28.51,0,3.15.4,6.29.72,9.43a3.86,3.86,0,0,1-1.34,3.81c-4.44,3.65-8.8,7.41-13.21,11.09a1.44,1.44,0,0,1-1.14.1c-10.81-3.38-21-8.29-31.39-12.71-1.5-.64-3-1.2-4.77-1.89l1.42-.7c5.25-2.44,10.5-4.87,15.74-7.33a11.81,11.81,0,0,0,2.47-1.46c.36-.29.41-1,.61-1.47a4.31,4.31,0,0,0-1.53.05c-1.63.74-3.19,1.64-4.83,2.38-9.88,4.5-19.8,8.92-29.65,13.47a12.31,12.31,0,0,1-5.64,1.18c-7.42-.14-14.84-.2-22.26-.33a1.36,1.36,0,0,1-1-.52Q392.3,467,388,457.84a12,12,0,0,1-.68-2.4.89.89,0,0,1,.15-.62c3.13-4.61,6.3-9.21,9.4-13.84a5.82,5.82,0,0,0,.75-2.25c1-6.25,2-12.52,3.08-18.77a371.72,371.72,0,0,1,9.53-40.42,22.17,22.17,0,0,0,.69-3c.06-.37-.23-.8-.36-1.2-.29.27-.72.5-.84.84-.64,1.76-1.21,3.55-1.78,5.34-4.73,15-7.84,30.36-10.52,45.83-.68,3.93-1.23,7.89-2,11.8a10.56,10.56,0,0,1-1.53,3.08c-.69,1.16-1.25,2.85-2.28,3.24s-2.51-.6-3.79-1l-7.72-2.27c3.47-17.54,6.85-35,10.42-52.51a83.18,83.18,0,0,1,7.22-21.88,26.87,26.87,0,0,1,3.81-5.16A5,5,0,0,1,404,361.5c10-2.67,20-5.21,30.41-5.92a31.6,31.6,0,0,1,3.23-.14,1.6,1.6,0,0,1,1,.68,2.53,2.53,0,0,1,.4,1.24c.59,5.39,3.87,8.65,8.65,10.49a27.89,27.89,0,0,0,13.56,1.49,48.08,48.08,0,0,0,19.16-6.76,12.07,12.07,0,0,0,6-7.62,17,17,0,0,0,0-3.44c1.76.36,3.39.69,5,1,9.44,2.05,18.87,4.12,28.32,6.14a1.44,1.44,0,0,1,1.19,1.1c6.09,16.23,11.26,32.75,16.21,49.36,2.25,7.53,4.86,14.95,7.27,22.43.67,2.05,1.17,4.15,1.85,6.19a1.16,1.16,0,0,1-.56,1.56,55,55,0,0,1-11.26,6.29c-8.53,3.44-17.17,6.58-26.27,8.1-3.85.64-7.78.74-11.68,1.07C496,454.84,495.4,454.75,494.6,454.72Z" transform="translate(-377.88 -349.76)"/><path class="cls-1" d="M430.06,475.81c2.38-1.05,4.81-2,7.14-3.17a3.93,3.93,0,0,1,4.14-.07c2,1.12,4.2,1.82,6.28,2.89l-17.52.48Z" transform="translate(-377.88 -349.76)"/></g><g id="선"><path d="M390.65,447.21l-9.6-2.89a21.43,21.43,0,0,1-2.49-.84c-.66-.29-.91-.71-.42-1.52a7.08,7.08,0,0,0,.56-2.25c3.2-16.46,6.3-32.93,9.62-49.35a89.44,89.44,0,0,1,9.74-26.92,7.35,7.35,0,0,1,.91-1.54,4.28,4.28,0,0,1,1.33-.68c.13-.06.31,0,.45-.09,5.67-2.4,11.72-3.39,17.65-4.8,6.75-1.6,13.66-1.88,20.54-2.38.7-.05.8.29.94.89a31.41,31.41,0,0,0,1.34,4.81c1.55,3.79,4.57,5.93,8.42,7a30.82,30.82,0,0,0,18-.57c.72-.23,1.47-.37,2.2-.53,4.12-.91,7.58-3.08,10.9-5.55A11.22,11.22,0,0,0,485,353.4c.29-1.18.51-2.36.79-3.64,4.8.94,9.42,1.81,14,2.76,6.68,1.39,13.35,2.84,20,4.24a3.5,3.5,0,0,1,2.76,2.33c6,14.78,10.68,30,15.31,45.23,2.59,8.52,5.49,16.94,8.2,25.41.9,2.81,1.65,5.67,2.5,8.5.28.93-.07,1.43-.83,2-10.24,7.41-22.09,11-34.06,14.2a65.53,65.53,0,0,1-16.85,2c-.67,0-1.34-.09-2-.14,0,2.61-.08,5.19,0,7.77.09,2.19.37,4.37.63,6.55.06.48.5.9.6,1.38a1.51,1.51,0,0,1-.21,1.18c-1,1-2.12,1.92-3.23,2.84q-6.12,5.07-12.28,10.13a4.57,4.57,0,0,1-4.59.63c-8.36-2.53-16.2-6.32-24.23-9.68a5.89,5.89,0,0,0-2.29-.49c-6.79.15-13.58.37-20.37.56a6.43,6.43,0,0,0-4.29,1.16,2.35,2.35,0,0,1-1.49.28c-3-.1-6-.3-9-.37-3.59-.08-7.18-.08-10.77-.1-1.92,0-3.84,0-5.75.07a2.8,2.8,0,0,1-2.77-1.69,154.17,154.17,0,0,1-9-19.17,10,10,0,0,1-.48-2,1.21,1.21,0,0,1,.75-1.55c.37-.15.57-.72.84-1.11Zm104,7.51c.8,0,1.36.12,1.91.08,3.9-.33,7.83-.43,11.68-1.07,9.1-1.52,17.74-4.66,26.27-8.1a55,55,0,0,0,11.26-6.29,1.16,1.16,0,0,0,.56-1.56c-.68-2-1.18-4.14-1.85-6.19-2.41-7.48-5-14.9-7.27-22.43C532.21,392.55,527,376,521,359.8a1.44,1.44,0,0,0-1.19-1.1c-9.45-2-18.88-4.09-28.32-6.14-1.62-.35-3.25-.68-5-1a17,17,0,0,1,0,3.44,12.07,12.07,0,0,1-6,7.62,48.08,48.08,0,0,1-19.16,6.76,27.89,27.89,0,0,1-13.56-1.49c-4.78-1.84-8.06-5.1-8.65-10.49a2.53,2.53,0,0,0-.4-1.24,1.6,1.6,0,0,0-1-.68,31.6,31.6,0,0,0-3.23.14C424,356.29,414,358.83,404,361.5a5,5,0,0,0-2.44,1.14,26.87,26.87,0,0,0-3.81,5.16,83.18,83.18,0,0,0-7.22,21.88c-3.57,17.47-6.95,35-10.42,52.51l7.72,2.27c1.28.38,2.79,1.36,3.79,1s1.59-2.08,2.28-3.24a10.56,10.56,0,0,0,1.53-3.08c.77-3.91,1.32-7.87,2-11.8,2.68-15.47,5.79-30.83,10.52-45.83.57-1.79,1.14-3.58,1.78-5.34.12-.34.55-.57.84-.84.13.4.42.83.36,1.2a22.17,22.17,0,0,1-.69,3A371.72,371.72,0,0,0,400.68,420c-1.09,6.25-2,12.52-3.08,18.77a5.82,5.82,0,0,1-.75,2.25c-3.1,4.63-6.27,9.23-9.4,13.84a.89.89,0,0,0-.15.62,12,12,0,0,0,.68,2.4q4.32,9.14,8.73,18.23a1.36,1.36,0,0,0,1,.52c7.42.13,14.84.19,22.26.33a12.31,12.31,0,0,0,5.64-1.18c9.85-4.55,19.77-9,29.65-13.47,1.64-.74,3.2-1.64,4.83-2.38a4.31,4.31,0,0,1,1.53-.05c-.2.51-.25,1.18-.61,1.47a11.81,11.81,0,0,1-2.47,1.46c-5.24,2.46-10.49,4.89-15.74,7.33l-1.42.7c1.73.69,3.27,1.25,4.77,1.89,10.39,4.42,20.58,9.33,31.39,12.71a1.44,1.44,0,0,0,1.14-.1c4.41-3.68,8.77-7.44,13.21-11.09a3.86,3.86,0,0,0,1.34-3.81c-.32-3.14-.69-6.28-.72-9.43-.07-9.5-.08-19,.09-28.51a108.67,108.67,0,0,1,1-11.93,123.17,123.17,0,0,1,6.65-26.17c1.86-5.14,4-10.18,6.06-15.24.21-.51,1.08-1.27,1.36-1.16,1,.37.26,1.16.07,1.72-2.22,6.28-4.57,12.52-6.68,18.84a113.36,113.36,0,0,0-6.11,31c-.25,5.59-.28,11.18-.38,16.77C494.56,449.07,494.6,451.82,494.6,454.72Zm-64.54,21.09,0,.13,17.52-.48c-2.08-1.07-4.29-1.77-6.28-2.89a3.93,3.93,0,0,0-4.14.07C434.87,473.79,432.44,474.76,430.06,475.81Z" transform="translate(-377.88 -349.76)"/></g></svg>