<svg id="원피스" xmlns="http://www.w3.org/2000/svg" viewBox="0 0 143.01 243.51"><defs><style>.cls-1{fill:#fff;}</style></defs><g id="색"><path class="cls-1" d="M497.1,595.2H432.89c.12-5.55.15-11.11.36-16.66q.58-15.25,1.34-30.52c.33-6.54.78-13.07,1.26-19.6.56-7.57,1.23-15.12,1.82-22.68.52-6.73,1.07-13.45,1.49-20.19.54-8.64,1-17.3,1.38-25.95a7.71,7.71,0,0,1,1.68-4.91c.67-.8,1.4-1,2.14-.31a4.35,4.35,0,0,1,1.27,1.93,49.2,49.2,0,0,1,.91,5.54c.77,6.74,1.37,13.5,2.24,20.23,1.22,9.33,2.58,18.65,4,28q3.3,22.12,6.73,44.25c.48,3.11,1.11,6.21,1.73,9.3.07.35.55.63.84.94.15-.39.32-.78.45-1.19,0-.09-.06-.22-.08-.34-1.95-11.89-3.95-23.77-5.82-35.67-1.35-8.6-2.54-17.21-3.77-25.83-.93-6.59-1.88-13.19-2.7-19.8-.78-6.26-1.41-12.53-2.11-18.8-.18-1.63-.37-3.27-.57-5a10.74,10.74,0,0,0,6.75,1.36,11.89,11.89,0,0,1,6.28.39,3.25,3.25,0,0,1,2.24,2.28c2.77,10.45,5.76,20.85,8.22,31.38,6.48,27.75,13.08,55.47,20.63,83C493.32,582.58,495.25,588.88,497.1,595.2Z" transform="translate(-387.13 -351.69)"/><path class="cls-1" d="M431.7,595.2H400.79c.4-5.73.73-11.47,1.2-17.2.6-7.28,1.19-14.56,2-21.82,1-8.64,2-17.28,3.29-25.88,1.73-11.6,3.71-23.16,5.6-34.74,1.95-11.92,4-23.84,5.87-35.78.24-1.47.58-2.48,2.25-2.52a2.74,2.74,0,0,0,.79-.27,7.8,7.8,0,0,1,6.7.26,8.36,8.36,0,0,0,5.37.66c1.75-.26,3.54-.31,5.39-.45,0,1.24.05,2.31,0,3.37-.43,7.93-.84,15.87-1.33,23.8-.36,5.69-.82,11.38-1.27,17.07-.51,6.49-1.08,13-1.58,19.46q-.69,9.08-1.26,18.16-.76,12.61-1.38,25.23c-.28,5.79-.46,11.58-.6,17.36C431.71,586.34,431.73,590.77,431.7,595.2Z" transform="translate(-387.13 -351.69)"/><path class="cls-1" d="M523,595.2H498.3a13.12,13.12,0,0,0-.27-1.39c-8.66-28.54-15.53-57.55-22.44-86.55-3.68-15.41-7.07-30.88-11.66-46.06a8.33,8.33,0,0,1-.18-1c9.14-1,18.35-1.1,27.11-4.29a5.83,5.83,0,0,1,.19.71c2.72,16.74,6.47,33.26,10.47,49.73,1.92,7.87,3.73,15.76,5.38,23.69,2.83,13.56,5.59,27.12,9.35,40.46C518.57,578.7,520.74,587,523,595.2Z" transform="translate(-387.13 -351.69)"/><path class="cls-1" d="M399.35,595.2H388.57a4,4,0,0,1-.09-.59c.13-9.14.18-18.29.44-27.43.26-8.94.75-17.88,1.1-26.82.22-5.66.28-11.34.57-17,.45-8.81,1-17.62,1.61-26.42.43-6,1-12,1.75-18,.83-7,1.85-13.92,2.79-20.87.33-2.4.69-4.79,1-7.15,2.75,1,5.33,2,8,2.81,3.6,1,7.26,1.85,10.9,2.73.86.21,1.26.55,1.09,1.56-1.05,6.22-2,12.45-3.05,18.66-2.41,14.52-4.93,29-7.27,43.56-1.31,8.15-2.44,16.34-3.48,24.53-.89,7-1.57,14-2.24,21.06-.63,6.64-1.13,13.28-1.66,19.93C399.79,588.91,399.58,592.06,399.35,595.2Z" transform="translate(-387.13 -351.69)"/><path class="cls-1" d="M442.8,355c.54,2.56,1,5.08,1.61,7.54A23.54,23.54,0,0,0,449.85,373c1,1,.59,2.27.37,3.41-1.31,6.62-2.81,13.2-4,19.84-.84,4.83-1.26,9.73-1.86,14.6a12.12,12.12,0,0,0-.2,2.15,5.34,5.34,0,0,0,.51,1.41c.28-.45.74-.88.81-1.36.25-1.54.41-3.09.51-4.64.58-8.52,2.4-16.82,4.24-25.12.4-1.84.78-3.68,1.07-5.53a3.61,3.61,0,0,1,3.11-3.32,62.1,62.1,0,0,0,14.53-6.1,69.94,69.94,0,0,0,17.39-13.58,10,10,0,0,0,1-1.49c2.66.63,5.34,1.39,8.08,1.88,4.19.74,8.42,1.33,12.65,1.91a15.11,15.11,0,0,1,7.82,3.3c.92.77,1.88,1.49,2.87,2.17a21.78,21.78,0,0,1,9.37,15.93,100.25,100.25,0,0,1,.43,14c-.21,11.9-2.53,23.55-4.34,35.26-2.67,17.32-7.42,34.07-13.25,50.54-2.68,7.57-5.62,15-8.44,22.55-.14.37-.31.73-.59,1.4-.55-2.21-1-4.11-1.49-6-3.25-13.55-6-27.19-8.28-40.95a2.32,2.32,0,0,1,.48-1.45c2.66-4,5.54-7.93,6.62-12.78a7.38,7.38,0,0,0-.95-5.52c-1-1.66-1.89-3.35-3-4.92a7.8,7.8,0,0,1-1.1-6.13A225.11,225.11,0,0,1,506,381.56a3.85,3.85,0,0,0,0-1.39c-.4.28-1,.49-1.15.87-1.92,5.5-3.88,11-5.62,16.55a181,181,0,0,0-6.06,25.49c-.11.66-.21,1.32-.38,2.33-.71-1.36-1.25-2.41-1.81-3.45a3.35,3.35,0,0,0-.72-1.08c-.25-.2-.69-.13-1.05-.19,0,.33-.12.7,0,1q1.35,2.67,2.79,5.29c1.54,2.8,3,5.66,4.71,8.35a7.34,7.34,0,0,1,.74,7.4c-1.34,2.89-3,5.63-4.54,8.41-.43.77-1.07,1.43-1.45,2.22a3.87,3.87,0,0,1-2.62,1.86,71.41,71.41,0,0,1-14,2.62,38.45,38.45,0,0,1-6.91.53c-1.83-.14-3.36.56-5,.74a4.09,4.09,0,0,1-2.76-.79,4.58,4.58,0,0,0-4.54-.91,7.73,7.73,0,0,1,.29-1.3c1.15-2.77,2.33-5.52,3.46-8.29.12-.28-.08-.69-.13-1a3.05,3.05,0,0,0-1,.42,2.52,2.52,0,0,0-.51.94c-1.08,2.58-2.16,5.15-3.2,7.75a12.19,12.19,0,0,0-.43,2,7.41,7.41,0,0,1-7.07-2.48,11.56,11.56,0,0,0-1.83-2.05,2.52,2.52,0,0,0-4.08.65,4.11,4.11,0,0,1-4.67,2.28,6.62,6.62,0,0,0-2.24.22,8.39,8.39,0,0,1-5.6-.6,6.81,6.81,0,0,0-6.33-.26,12.37,12.37,0,0,1-2.64.54c-.43-1.4-.85-2.79-1.26-4.18-.07-.23,0-.51-.17-.7a11.1,11.1,0,0,0-.88-1.07,3.77,3.77,0,0,0-.38,1.43,24.63,24.63,0,0,0,.71,2.78c.08.26.13.53.28,1.2-5.43-1.53-10.66-2.89-15.8-4.51-3.69-1.16-3.66-1.32-3.54-5.21a243.57,243.57,0,0,1,11.81-68.45c.2-.61.91-1.53-.07-1.86s-1,.83-1.17,1.42a227.65,227.65,0,0,0-9.74,42.54c-.94,7.68-1.37,15.43-2,23.14a3,3,0,0,1-.44,1.51c-.64-3.65-1.42-7.27-1.89-10.94-1-7.64-2-15.28-2.55-23-.65-8.52-.95-17.09.18-25.6a43.61,43.61,0,0,1,4.18-14.44c3.35-6.51,8.61-10.74,15.91-12,2.7-.48,5.5-.32,8.23-.63,7-.8,13.93-1.71,20.89-2.57C442.22,355,442.53,355,442.8,355Zm10.75,52.76a2.42,2.42,0,0,0,2.34-2.63c0-1.34-1.45-2.94-2.63-3s-2.42,1.43-2.39,2.95A2.63,2.63,0,0,0,453.55,407.72Zm-.09-25.83a2.5,2.5,0,0,0,2.43,2.58,2.13,2.13,0,0,0,2.25-2,3.39,3.39,0,0,0-2.58-2.75A2.18,2.18,0,0,0,453.46,381.89Z" transform="translate(-387.13 -351.69)"/><path class="cls-1" d="M454.94,405.3c-.68.47-1.08,1-1.52,1a1,1,0,0,1-1.1-1.35,5.32,5.32,0,0,1,1.05-1.52Z" transform="translate(-387.13 -351.69)"/><path class="cls-1" d="M457.14,382.44c-.59.33-1.08.76-1.25.66a3.19,3.19,0,0,1-1.07-1.2c-.05-.08.68-.8.77-.75A11.39,11.39,0,0,1,457.14,382.44Z" transform="translate(-387.13 -351.69)"/></g><g id="선"><path d="M399.35,595.2c.23-3.14.44-6.29.7-9.43.53-6.65,1-13.29,1.66-19.93.67-7,1.35-14.06,2.24-21.06,1-8.19,2.17-16.38,3.48-24.53,2.34-14.53,4.86-29,7.27-43.56,1-6.21,2-12.44,3.05-18.66.17-1-.23-1.35-1.09-1.56-3.64-.88-7.3-1.7-10.9-2.73-2.66-.77-5.24-1.83-8-2.81-.34,2.36-.7,4.75-1,7.15-.94,6.95-2,13.9-2.79,20.87-.71,6-1.32,12-1.75,18-.65,8.8-1.16,17.61-1.61,26.42-.29,5.66-.35,11.34-.57,17-.35,8.94-.84,17.88-1.1,26.82-.26,9.14-.31,18.29-.44,27.43a4,4,0,0,0,.09.59h-1.44c.23-11,.37-22.05.69-33.07s.75-22.2,1.25-33.29c.45-10,.88-20,1.66-30,.73-9.31,1.81-18.59,2.92-27.86.86-7.21,2-14.39,3-21.58a6.62,6.62,0,0,0-.3-1.93c-1.07-6.13-2.27-12.24-3.16-18.39-.8-5.45-1.38-10.93-1.82-16.42a176.29,176.29,0,0,1-.46-22.87,54.44,54.44,0,0,1,4-18.28c3.18-7.66,8.84-12.62,17-14.46a59,59,0,0,1,6.55-.58c8.48-.91,16.95-1.86,25.63-2.81.18,1,.4,2.38.64,3.73.73,4,1.63,7.93,3.78,11.42a39.15,39.15,0,0,0,2.82,3.52c.31.4.57.85.95,1.43a68.39,68.39,0,0,0,31.9-18.6c.86-.88,1.44-2,2.26-2.93a1.56,1.56,0,0,1,1.36-.48c3.65,1.54,7.52,2.07,11.37,2.74,4.55.79,9.17,1.3,13.64,2.42,4.81,1.21,8.57,4.17,11.61,8.18,3.63,4.78,5.17,10.25,5.57,16.05a131,131,0,0,1-1.63,29.6c-1.72,10.71-3.26,21.47-5.54,32.07a274.34,274.34,0,0,1-13.24,43.37c-2.33,5.9-4.49,11.87-6.7,17.83a2.62,2.62,0,0,0-.07,1.39c3.63,16.56,7.05,33.18,11,49.67,3.23,13.46,7.11,26.77,10.7,40.15H523c-2.23-8.24-4.4-16.5-6.72-24.72-3.76-13.34-6.52-26.9-9.35-40.46-1.65-7.93-3.46-15.82-5.38-23.69-4-16.47-7.75-33-10.47-49.73a5.83,5.83,0,0,0-.19-.71c-8.76,3.19-18,3.31-27.11,4.29a8.33,8.33,0,0,0,.18,1c4.59,15.18,8,30.65,11.66,46.06,6.91,29,13.78,58,22.44,86.55a13.12,13.12,0,0,1,.27,1.39h-1.2c-1.85-6.32-3.78-12.62-5.53-19-7.55-27.48-14.15-55.2-20.63-83-2.46-10.53-5.45-20.93-8.22-31.38a3.25,3.25,0,0,0-2.24-2.28,11.89,11.89,0,0,0-6.28-.39,10.74,10.74,0,0,1-6.75-1.36c.2,1.77.39,3.41.57,5,.7,6.27,1.33,12.54,2.11,18.8.82,6.61,1.77,13.21,2.7,19.8,1.23,8.62,2.42,17.23,3.77,25.83,1.87,11.9,3.87,23.78,5.82,35.67,0,.12.11.25.08.34-.13.41-.3.8-.45,1.19-.29-.31-.77-.59-.84-.94-.62-3.09-1.25-6.19-1.73-9.3q-3.41-22.12-6.73-44.25c-1.39-9.32-2.75-18.64-4-28-.87-6.73-1.47-13.49-2.24-20.23a49.2,49.2,0,0,0-.91-5.54,4.35,4.35,0,0,0-1.27-1.93c-.74-.71-1.47-.49-2.14.31a7.71,7.71,0,0,0-1.68,4.91c-.35,8.65-.84,17.31-1.38,25.95-.42,6.74-1,13.46-1.49,20.19-.59,7.56-1.26,15.11-1.82,22.68-.48,6.53-.93,13.06-1.26,19.6q-.76,15.26-1.34,30.52c-.21,5.55-.24,11.11-.36,16.66H431.7c0-4.43,0-8.86.12-13.29.14-5.78.32-11.57.6-17.36q.6-12.62,1.38-25.23.56-9.09,1.26-18.16c.5-6.49,1.07-13,1.58-19.46.45-5.69.91-11.38,1.27-17.07.49-7.93.9-15.87,1.33-23.8.06-1.06,0-2.13,0-3.37-1.85.14-3.64.19-5.39.45a8.36,8.36,0,0,1-5.37-.66,7.8,7.8,0,0,0-6.7-.26,2.74,2.74,0,0,1-.79.27c-1.67,0-2,1.05-2.25,2.52-1.91,11.94-3.92,23.86-5.87,35.78-1.89,11.58-3.87,23.14-5.6,34.74C406,538.9,405,547.54,404,556.18c-.81,7.26-1.4,14.54-2,21.82-.47,5.73-.8,11.47-1.2,17.2ZM442.8,355c-.27,0-.58,0-.89.07-7,.86-13.92,1.77-20.89,2.57-2.73.31-5.53.15-8.23.63-7.3,1.28-12.56,5.51-15.91,12a43.61,43.61,0,0,0-4.18,14.44c-1.13,8.51-.83,17.08-.18,25.6.59,7.68,1.59,15.32,2.55,23,.47,3.67,1.25,7.29,1.89,10.94a3,3,0,0,0,.44-1.51c.67-7.71,1.1-15.46,2-23.14A227.65,227.65,0,0,1,409.18,377c.2-.59.16-1.77,1.17-1.42s.27,1.25.07,1.86a243.57,243.57,0,0,0-11.81,68.45c-.12,3.89-.15,4.05,3.54,5.21,5.14,1.62,10.37,3,15.8,4.51-.15-.67-.2-.94-.28-1.2a24.63,24.63,0,0,1-.71-2.78,3.77,3.77,0,0,1,.38-1.43,11.1,11.1,0,0,1,.88,1.07c.13.19.1.47.17.7.41,1.39.83,2.78,1.26,4.18a12.37,12.37,0,0,0,2.64-.54,6.81,6.81,0,0,1,6.33.26,8.39,8.39,0,0,0,5.6.6,6.62,6.62,0,0,1,2.24-.22,4.11,4.11,0,0,0,4.67-2.28,2.52,2.52,0,0,1,4.08-.65,11.56,11.56,0,0,1,1.83,2.05,7.41,7.41,0,0,0,7.07,2.48,12.19,12.19,0,0,1,.43-2c1-2.6,2.12-5.17,3.2-7.75a2.52,2.52,0,0,1,.51-.94,3.05,3.05,0,0,1,1-.42c.05.35.25.76.13,1-1.13,2.77-2.31,5.52-3.46,8.29a7.73,7.73,0,0,0-.29,1.3,4.58,4.58,0,0,1,4.54.91,4.09,4.09,0,0,0,2.76.79c1.67-.18,3.2-.88,5-.74a38.45,38.45,0,0,0,6.91-.53,71.41,71.41,0,0,0,14-2.62,3.87,3.87,0,0,0,2.62-1.86c.38-.79,1-1.45,1.45-2.22,1.55-2.78,3.2-5.52,4.54-8.41a7.34,7.34,0,0,0-.74-7.4c-1.71-2.69-3.17-5.55-4.71-8.35q-1.44-2.62-2.79-5.29c-.13-.26,0-.63,0-1,.36.06.8,0,1.05.19A3.35,3.35,0,0,1,491,422c.56,1,1.1,2.09,1.81,3.45.17-1,.27-1.67.38-2.33a181,181,0,0,1,6.06-25.49c1.74-5.56,3.7-11,5.62-16.55.13-.38.75-.59,1.15-.87a3.85,3.85,0,0,1,0,1.39,225.11,225.11,0,0,0-11.75,42.89,7.8,7.8,0,0,0,1.1,6.13c1.1,1.57,2,3.26,3,4.92a7.38,7.38,0,0,1,.95,5.52c-1.08,4.85-4,8.76-6.62,12.78a2.32,2.32,0,0,0-.48,1.45c2.24,13.76,5,27.4,8.28,40.95.46,1.91.94,3.81,1.49,6,.28-.67.45-1,.59-1.4,2.82-7.51,5.76-15,8.44-22.55,5.83-16.47,10.58-33.22,13.25-50.54,1.81-11.71,4.13-23.36,4.34-35.26a100.25,100.25,0,0,0-.43-14,21.78,21.78,0,0,0-9.37-15.93c-1-.68-1.95-1.4-2.87-2.17a15.11,15.11,0,0,0-7.82-3.3c-4.23-.58-8.46-1.17-12.65-1.91-2.74-.49-5.42-1.25-8.08-1.88a10,10,0,0,1-1,1.49A69.94,69.94,0,0,1,469,368.37a62.1,62.1,0,0,1-14.53,6.1,3.61,3.61,0,0,0-3.11,3.32c-.29,1.85-.67,3.69-1.07,5.53-1.84,8.3-3.66,16.6-4.24,25.12-.1,1.55-.26,3.1-.51,4.64-.07.48-.53.91-.81,1.36a5.34,5.34,0,0,1-.51-1.41,12.12,12.12,0,0,1,.2-2.15c.6-4.87,1-9.77,1.86-14.6,1.16-6.64,2.66-13.22,4-19.84.22-1.14.59-2.38-.37-3.41a23.54,23.54,0,0,1-5.44-10.53C443.78,360,443.34,357.52,442.8,355Z" transform="translate(-387.13 -351.69)"/><path d="M453.55,407.72a2.63,2.63,0,0,1-2.68-2.64c0-1.52,1.14-3,2.39-2.95s2.6,1.62,2.63,3A2.42,2.42,0,0,1,453.55,407.72Zm1.39-2.42-1.57-1.86a5.32,5.32,0,0,0-1.05,1.52,1,1,0,0,0,1.1,1.35C453.86,406.29,454.26,405.77,454.94,405.3Z" transform="translate(-387.13 -351.69)"/><path d="M453.46,381.89a2.18,2.18,0,0,1,2.1-2.18,3.39,3.39,0,0,1,2.58,2.75,2.13,2.13,0,0,1-2.25,2A2.5,2.5,0,0,1,453.46,381.89Zm3.68.55a11.39,11.39,0,0,0-1.55-1.29c-.09,0-.82.67-.77.75a3.19,3.19,0,0,0,1.07,1.2C456.06,383.2,456.55,382.77,457.14,382.44Z" transform="translate(-387.13 -351.69)"/></g></svg>