<svg id="항공점퍼" xmlns="http://www.w3.org/2000/svg" viewBox="0 0 143.82 170.28"><g id="색"><path d="M494.83,503.51c-4.24.82-8.29,1.68-12.37,2.38a79.36,79.36,0,0,1-17.08.77,47.52,47.52,0,0,1-5.86-.12c-4.58-.79-9,.26-13.47.73-1.87.2-2.34-.19-2.64-2.07a154,154,0,0,1-1.31-30.95c.59-12.44,2.88-24.65,5-36.89,1.57-9,2.95-18.05,4.74-27,1.59-8,3.64-15.87,5.44-23.81a8.24,8.24,0,0,1,3.48-5.1c4.28-3,8.49-6.11,12.83-9a9.49,9.49,0,0,0,4.22-5.06c1.28-3.94,2.93-7.76,4.22-11.7a33.9,33.9,0,0,0,1-5.64c.13-.86.38-1.51,1.43-1.26,6.86,1.67,13.76,3.2,20.57,5.05a39,39,0,0,1,18.66,11.3,25.66,25.66,0,0,1,6.74,14.5c1,7.07.38,14.11-.14,21.16-1,14.31-4.27,28.25-6.88,42.3-3.6,19.36-10.41,37.67-17.54,55.9-2.33,6-4.69,11.88-7,17.82a4.59,4.59,0,0,1-.18.56c-.24.38-.52.74-.79,1.11-.29-.38-.77-.73-.84-1.14-.72-4.25-1.38-8.51-2.05-12.77C494.89,504.12,494.86,503.69,494.83,503.51Zm3.71-22.75c0-.65-.06-1.12-.07-1.58-.36-12-1-24-1-36a261.44,261.44,0,0,1,7.31-62.09,4.19,4.19,0,0,1,.4-1.24,1,1,0,0,1,.83-.45,1,1,0,0,1,.56.77,5.81,5.81,0,0,1-.25,1.4c-1.65,8.79-3.68,17.52-4.87,26.37-3.26,24.29-3,48.69-1.23,73.08a19.6,19.6,0,0,1-2.63,11.9,15.14,15.14,0,0,0-1.68,5,12.58,12.58,0,0,0,.39,3.5c.49,3.81,1,7.61,1.45,11.41.05.42.16.83.31,1.56.31-.71.48-1.1.64-1.5,1.66-4.28,3.31-8.56,5-12.83,7.61-19.29,14.78-38.7,18.52-59.22,2.45-13.44,5.47-26.77,6.48-40.43.51-7,1.14-13.94,0-20.92-.47-3-1-6-2.7-8.62a34.15,34.15,0,0,0-14.73-12.94,38.41,38.41,0,0,0-9.32-2.56c-.53,1.53-1,3-1.51,4.38-3.89,10.48-7.82,20.94-11.7,31.42a7.83,7.83,0,0,1-6.27,5.28,13.6,13.6,0,0,1-2.6.38c-3.11,0-6.22,0-9.33-.13-.92,0-1.34.15-1.59,1.09-.59,2.28-1.29,4.53-2,6.78-5.68,18.86-9.95,38-11.57,57.68-.93,11.12-1.52,22.24.89,33.27.32,1.46.4,1.53,1.85,1.41.91-.07,1.83,0,2.75,0h3.72c0-.35.06-.62.08-.89.41-5.65.66-11.32,1.29-16.95a146,146,0,0,1,4-20.8c.59-2.26,1.68-3.17,3.81-3.22,3.43-.08,6.86-.23,10.29-.28,2.43,0,3.62.92,4.1,3.32a33.88,33.88,0,0,1,.53,4.27A42,42,0,0,0,491.12,474C492.42,477.45,495.27,479.18,498.54,480.76Zm-43.3,23.7c-.1-2.51-.19-4.89-.32-7.27a15.39,15.39,0,0,0-.29-1.65c-.32-2-.8-4-.93-6-.24-3.82-.32-7.65-.4-11.48-.3-15.75,2-31.22,5.12-46.58,2.65-12.9,6.39-25.52,10.29-38.09,2-6.36,4.21-12.64,6.33-19,.12-.34.22-.69.43-1.32a127.7,127.7,0,0,0-15.32,11,2.68,2.68,0,0,0-.76,1.3c-1.2,4.47-2.46,8.93-3.51,13.43-3.81,16.43-6.09,33.14-9.08,49.72-2.92,16.18-4.2,32.46-2.72,48.89.25,2.72.62,5.44.95,8.31Zm11.15-7.5a5.38,5.38,0,0,0,.79.08c8.22-.14,16.46,0,24.6-1.44.39-.07.88-.22,1.17-.06,1.29.71,1.73-.24,2.16-1.07a42.24,42.24,0,0,0,2-4.19,23.47,23.47,0,0,0,1.47-4.65c.45-2.75.34-2.77-2.13-4.11-.46-.24-.9-.51-1.35-.77a11.85,11.85,0,0,1-5.92-7.5c-.73-3-1.31-6-1.84-9-.35-2-.4-4-.75-5.93-.26-1.5-.83-1.89-2.32-1.87-3.4.06-6.79.14-10.18.27-1.95.08-2,.13-2.49,2a167.08,167.08,0,0,0-5.2,33.19C466.31,493.58,466.39,495.25,466.39,497Zm3.51-101.75c3.51,0,6.88.1,10.25,0,3.8-.13,6.3-1.9,7.64-5.7,3-8.46,6.3-16.8,9.41-25.22,1.2-3.25,2.21-6.56,3.35-10a70.51,70.51,0,0,0-15.4-2.89,48.82,48.82,0,0,1-1.36,5.18c-1.56,4.14-3.39,8.18-4.89,12.34-3,8.33-5.83,16.71-8.72,25.08C470.08,394.29,470,394.6,469.9,395.21ZM493.24,497c-12.23,2.14-24.44,1.62-36.82,1.54.18,1.89.28,3.64.55,5.36a1.53,1.53,0,0,0,1.15.85c2,.16,4.06.17,6.08.28a87.76,87.76,0,0,0,21.47-1.26c3-.59,6-1.29,9.16-2Z" transform="translate(-387.11 -348.17)"/><path d="M431.24,502.06c.71,1.11.54,1.66-.78,1.69-5.21.09-10.42.93-15.65.24-6.29-.83-12.59-1.56-18.89-2.34-.35,0-.69-.18-1-.25-1.08-.19-1.45-.72-1.66-1.9a81.91,81.91,0,0,0-2.6-11.76c-3.63-10.78-4.69-21.6-2-32.77,1.51-6.32,2.65-12.74,3.76-19.15a25.74,25.74,0,0,0,0-5.95c-.63-10-1.39-19.92-2-29.88a79.28,79.28,0,0,1,2-23.68c1.43-5.8,3.74-11.12,8.42-15.11a10.2,10.2,0,0,1,1.8-1.15c5-2.76,10.43-4.4,15.81-6.19a130.78,130.78,0,0,1,27.26-5.64c1.54-.16,1.58,0,1.7,1.48a8.66,8.66,0,0,1-1.49,5.48,40.6,40.6,0,0,0-3.23,7.17,198.58,198.58,0,0,0-7,23.76c-.22,1-.19,1.62.9,1.89s1.37,1.05,1.22,2.11c-.79,5.65-1.69,11.3-2.31,17-1.4,12.74-3.23,25.47-3.83,38.25-.62,13.14-.06,26.34.13,39.52.08,5.34.57,10.68.87,16,.07,1.19-.18,1.39-1.37,1.22-.25-2.45-.6-4.89-.74-7.34-.73-13.41-.79-26.82-.6-40.24.06-4.43-.21-8.89.21-13.28,1.14-11.93,2.54-23.83,3.91-35.72.57-5,1.36-9.89,2.05-14.83.11-.8,0-1.45-1.06-1.38-.08.37-.18.71-.24,1.06-1,6.07-2.1,12.12-2.93,18.21-2.14,15.87-3.89,31.79-3.92,47.84,0,7.9.26,15.8.53,23.69.15,4.26.58,8.51.86,12.76q.25,4,.44,8.12C429.77,502.06,430.23,502.41,431.24,502.06Zm-.81-149.76a5.85,5.85,0,0,0-.88.16c-3.32,1-6.68,1.83-9.94,3-4.81,1.71-9.59,3.51-14.3,5.48a15.2,15.2,0,0,0-8.24,7.28c-.47,1-.95,1.94-1.34,2.94a62.86,62.86,0,0,0-3.8,25.54c.37,9.77,1.15,19.53,1.76,29.3,0,.72.13,1.44.2,2.16a1.73,1.73,0,0,0,.45-.88c2.32-10.09,5.18-20,8.37-29.86,1.88-5.81,3.68-11.64,5.57-17.45.12-.38.64-.65,1-1,.19.43.62.91.53,1.28a50.53,50.53,0,0,1-1.46,5.43,399.94,399.94,0,0,0-14.53,51.43c-.54,2.62-1.11,5.23-1.63,7.86s-1,5.31-1.5,8a6.07,6.07,0,0,0,.9.31c2.52.39,5,.79,7.57,1.15,1.9.27,2.63.92,2.71,2.84a27.26,27.26,0,0,1-.11,3.94,257.37,257.37,0,0,0-1.46,28.71,13.07,13.07,0,0,1-.23,1.64,173.92,173.92,0,0,0,27.29,2.54c0-1.16.05-2.14,0-3.12-.22-3.74-.51-7.48-.7-11.23-1.53-30.28,1.16-60.25,6.62-90,.17-.9-.12-1.12-.87-1.43a48.85,48.85,0,0,1-6.64-3c-3.09-1.82-3.91-3.8-3.09-7.27,1.21-5.12,2.47-10.24,4-15.29C427.65,359.25,429.12,355.85,430.43,352.3Zm15.42-2.06-.34-.37c-3.86.55-7.72,1.11-11.58,1.62a2,2,0,0,0-1.68,1.3c-4.07,8.44-6.48,17.4-8.23,26.56a3.51,3.51,0,0,0,.85,3.24c2.42,2.5,5.61,3.45,8.85,4.51.13-.5.2-.8.29-1.11,2.19-7.58,4.3-15.2,6.61-22.75,1.11-3.64,2.32-7.29,4.59-10.47A7.41,7.41,0,0,0,445.85,350.24ZM390.32,454.86c-.15.81-.29,1.67-.48,2.53-1.31,6.15-1.87,12.34-.5,18.53,1,4.59,2.38,9.1,3.62,13.63a1.07,1.07,0,0,0,.56.69c1.72.41,3.46.76,5.25,1.15,0-.64-.08-1-.09-1.43a218.27,218.27,0,0,1,1.06-24.39c.27-2.66.37-5.33.51-8,.05-.85-.22-1.42-1.24-1.54C396.17,455.7,393.33,455.27,390.32,454.86Zm3.51,37.22c.32,2.15.71,4.15.88,6.16.1,1.22.57,1.76,1.76,1.9,6.38.74,12.74,1.66,19.13,2.22a92.91,92.91,0,0,0,10.15,0,16.18,16.18,0,0,0,2.46-.41l-.78-6.11A197.26,197.26,0,0,1,393.83,492.08Z" transform="translate(-387.11 -348.17)"/></g></svg>