<svg id="블라우스" xmlns="http://www.w3.org/2000/svg" viewBox="0 0 147.54 170.42"><path id="선" d="M489.19,348.17c5.32.81,10.38,1.48,15.41,2.38a56.56,56.56,0,0,1,16,4.86,20.28,20.28,0,0,1,8.19,6.82,9.73,9.73,0,0,1,1.44,3.73c.9,6.17,1.81,12.34,2.4,18.54.43,4.53.39,9.1.52,13.65.2,7.7-.92,15.3-1.67,22.93-.78,7.95-1.36,15.92-1.92,23.89a5.21,5.21,0,0,0,.85,2.65c1.2,2.07,2.48,4.11,3.82,6.09a7.94,7.94,0,0,1,1,7.09A76.25,76.25,0,0,1,528.62,476c-2.88,5.25-6,10.36-9.07,15.52-2.94,4.95-6,9.84-8.83,14.83a4.16,4.16,0,0,1-3.25,2.36c-3.43.51-6.79.65-10.12-.6a2.33,2.33,0,0,1-1.7-2c-.58-3.87-1.27-7.72-1.8-11.6-.62-4.59-1.11-9.2-1.68-13.8-.08-.68-.24-1.35-.41-2.33-.89.87-1.54,1.56-2.24,2.17-1.63,1.41-3.22,2.88-4.95,4.16a7.34,7.34,0,0,1-8.13.77c-4-2-8-3.91-12-6a4.1,4.1,0,0,0-3.8-.23,188.24,188.24,0,0,1-30,8.34,15.25,15.25,0,0,1-3.1.21c-2.91,0-4.36-1.23-5.09-4.08-.19-.77-.34-1.55-.55-2.5-5.81,1.77-11.71,1.75-17.58,2-.32,0-.64,0-1,.05a5.43,5.43,0,0,1-6.06-3.06c-1.9-3.49-4.29-6.72-6.36-10.13a26.74,26.74,0,0,1-2-4.36,15.26,15.26,0,0,1-.57-8.95c1.32-6.09,2.58-12.19,3.74-18.31a17.74,17.74,0,0,0,.18-5,353.73,353.73,0,0,1-2-35.65,111.52,111.52,0,0,1,1.77-22.19,90.79,90.79,0,0,1,3.1-10.54,6.85,6.85,0,0,1,4.06-4.13,128.09,128.09,0,0,1,20.69-6.8c4.5-1.1,9-2,13.59-2.92a5.49,5.49,0,0,0,4.33-2.9c1.18-2.26,2.6-4.4,3.92-6.59.33-.55.68-1.08,1-1.61,1.32-2,2.81-1.73,3.51.43,1.23,3.88,2.79,7.66,4.31,11.44a39.48,39.48,0,0,0,2.44,4.92c.95,1.63,1.5,1.72,3.39,1.22a47.2,47.2,0,0,0,25.87-17.21c2.22-2.86,3.82-1.74,4.63.8C487.77,343.78,488.48,346,489.19,348.17ZM513,394.06l.64.17a2.71,2.71,0,0,1,.12,1,17.81,17.81,0,0,1-.91,2.47c-2.72,6.14-5.41,12.29-8.22,18.38-2.08,4.51-2.53,9.37-3.28,14.17a10.13,10.13,0,0,0,0,1.91c.4,9.66.71,19.32,1.26,29a8.17,8.17,0,0,1-2,6.12c-2.05,2.45-4,5-6,7.43a4.12,4.12,0,0,0-1,3.5c1,7.53,1.86,15.07,2.82,22.59.19,1.56.54,3.1.84,4.75,3,.29,5.81.47,8.56.86a3.18,3.18,0,0,0,3.66-1.89c2.29-4.12,4.76-8.14,7.17-12.19,2.71-4.52,5.54-9,8.13-13.57a96.72,96.72,0,0,0,8-17.4,8,8,0,0,0-1.11-7.67,140.54,140.54,0,0,1-10.92-19.41,23.24,23.24,0,0,1-1.23-2.86c-.11-.34.14-.8.36-1.84a30.19,30.19,0,0,1,2,2.57c1.57,2.78,3.07,5.61,4.62,8.4a15.26,15.26,0,0,0,1.16,1.51c.14-1.84.22-3.18.34-4.52.44-4.93.79-9.88,1.34-14.8,1-8.65,2.21-17.28,2-26-.1-3.52-.11-7-.43-10.54-.58-6.28-1.35-12.55-2.06-18.82-.44-3.88-2.67-6.57-5.86-8.59a31.29,31.29,0,0,0-10.33-4.37c-6-1.28-12.07-2.3-18.12-3.39-1.39-.25-2.81-.35-4.61-.56.52,2.1.85,3.88,1.42,5.58a3.32,3.32,0,0,1-.66,3.54,87.72,87.72,0,0,1-6,7.12c-4.57,4.36-9.35,8.48-14.07,12.67a18.06,18.06,0,0,1-2.7,2c-1.16.69-1.77.39-2.07-.91-.38-1.63-.69-3.27-1.06-4.91a93.84,93.84,0,0,0-5.46-16.23c-2.28.05-2.34,0-2.86,2.14-2.51,10.07-4.91,20.18-7.51,30.23a64.05,64.05,0,0,0-1.54,17.83c.19,7.75.31,15.5.29,23.25-.05,15.1-.22,30.21-.33,45.31,0,1,.09,2,.14,3.14.93-.2,1.55-.3,2.16-.46a133.6,133.6,0,0,0,20-7.36l1.54-.67c.61-.26,1.29-.53,1.68.23s-.29,1.29-.93,1.63-1,.47-1.53.69L465,477.47c4.06,2,7.76,3.67,11.34,5.57,3,1.62,5.62,1.09,8.17-1a53.6,53.6,0,0,0,8.27-8.63c1.76-2.27,3.53-4.54,5.43-6.69,1.56-1.77,2.65-3.56,2-6a7.59,7.59,0,0,1-.13-1.91c-.34-12.54-.76-25.08-1-37.62-.15-8.87,0-17.74,0-26.61a18.19,18.19,0,0,1,.27-2.19l.56-.08c.26.42.68.81.75,1.26a23.83,23.83,0,0,1,.33,3.58c.11,6.23.17,12.46.26,18.69,0,.65.12,1.29.19,1.93,2.13-4,3.89-8,5.77-12S510.6,397.72,513,394.06Zm-93.55,41.62.9.05c.13,1.14.32,2.27.37,3.42.27,6,.27,12,.78,18,.73,8.42,1.77,16.82,2.79,25.22.34,2.84,1.25,3.6,3.91,3.41,5.92-.41,11.53-2.23,17.21-3.91V480q.27-24.57.53-49.15c0-4.15,0-8.31-.17-12.46-.15-4.94-.53-9.88-.6-14.83a32.9,32.9,0,0,1,.65-7.14c1.83-8.92,3.62-17.85,6.33-26.56.86-2.75,1.56-5.54,2.31-8.32a12.08,12.08,0,0,0,.22-1.5c-2.73-1.47-4.2.13-5,2.11-.24.6-.43,1.21-.65,1.8q-2.73,7.43-5.47,14.84c-.27.73-.43,1.59-1.82,1.45-2.93-8.92-4.45-18.28-6.87-27.46-.6.06-1,.08-1.38.15a181.58,181.58,0,0,0-26.19,6.71c-2.18.76-4.21,1.93-6.37,2.75-3.17,1.2-4.57,3.63-5.48,6.72a84,84,0,0,0-3.13,22.25c-.17,7.66.06,15.34.3,23,.14,4.7.63,9.38,1,14.07l.52.06,1.17-5.51c.39-1.88.77-3.75,1.16-5.63s.74-3.76,1.15-5.64.88-3.73,1.33-5.59.92-3.89,1.4-5.83,1-3.71,1.46-5.56,1-3.71,1.42-5.57.85-3.75,1.36-5.59.35-3.75,1.55-5.35c1.18.68.85,1.55.72,2.28-.45,2.52-.93,5-1.49,7.52-2.68,12-5.49,24-8.05,36-2.42,11.32-4.6,22.7-6.84,34.06a7.69,7.69,0,0,0-.13,3.09,35.61,35.61,0,0,0,1.72,5.7c2.15,5.31,5.85,9.67,9,14.41,6.85-.23,13.7-.32,20.6-2.13-.11-.92-.23-1.85-.32-2.79-.62-6.35-1.43-12.7-1.8-19.07s-.35-12.78-.45-19.17A15.61,15.61,0,0,1,419.42,435.68Zm47.9-56.18c.8-.58,1.35-.91,1.81-1.33,4.95-4.53,9.95-9,14.79-13.64a59.06,59.06,0,0,0,4.86-5.9,2.22,2.22,0,0,0,.5-2.19c-1.1-4-2.07-8-3.14-12-.29-1.11-.73-2.18-1.19-3.53-3.66,4-6.9,7.82-11,10.73a51.43,51.43,0,0,1-13.4,6.81A86.66,86.66,0,0,1,467.32,379.5Zm-25.16-3.93.42.17c.09-.22.2-.44.28-.67q2.08-5.46,4.18-10.94a19,19,0,0,1,1.54-3.74,19.41,19.41,0,0,1,2.67-2.79c-2.22-5.81-4.41-11.54-6.66-17.45-2.5,4.2-4.77,8.12-7.15,12a3.62,3.62,0,0,0-.41,3.13c1.43,5.56,2.77,11.14,4.15,16.7C441.48,373.16,441.83,374.36,442.16,375.57Z" transform="translate(-388.07 -338.61)"/></svg>