<?xml version="1.0" encoding="UTF-8"?>
<svg id="_반바지_이미지" data-name="반바지 이미지" xmlns="http://www.w3.org/2000/svg" viewBox="0 0 141.96 110.02">
  <defs>
    <style>
      .cls-1 {
        fill: #fff;
      }
    </style>
  </defs>
  <g id="_색" data-name="색">
    <path class="cls-1" d="M9.16,107.34c0-.6,0-1.04,0-1.47,0-21.48-.05-42.97,.06-64.45,.02-3.4,.71-6.8,1.19-10.19,.84-5.98,3.84-11.29,5.4-17.06,.08-.3,.57-.71,.86-.71,8.02-.04,16.05-.03,24.28-.03,.59,14.2,1.08,28.34,3.47,42.59-.58-.28-.97-.43-1.31-.65-2.24-1.45-4.47-2.94-6.73-4.36-.32-.2-.82-.13-1.24-.19,.14,.4,.15,.99,.44,1.18,2.41,1.63,4.82,3.28,7.32,4.76,6.36,3.75,12.77,7.43,19.17,11.1,.37,.21,.92,.12,1.38,.17-.23-.43-.34-1.05-.7-1.27-5.25-3.13-10.52-6.21-15.79-9.29-.48-.28-.97-.55-1.27-.86-2.16-14.26-2.89-28.62-3.35-43.21,.4,0,.85,0,1.31,0,21.77,0,43.54,.01,65.3-.03,1.21,0,1.55,.42,1.74,1.49,1.74,9.98,3.41,19.98,5.31,29.93,3.06,15.98,5.48,32.1,9.57,47.88,1.22,4.71,2.48,9.42,3.72,14.12,.07,.26,.11,.54,.18,.94-2.4,.09-4.74,.24-7.08,.24-12.5,.03-25,.04-37.5,.03-3.43,0-3.46-.05-4.55-3.28-2.72-8.02-5.75-15.91-9.22-23.64-1.68-3.75-3.13-7.6-4.68-11.4-.09-.22-.14-.5-.3-.65-.35-.34-.77-.61-1.16-.91-.03,.46-.21,.99-.06,1.38,1.23,3.16,2.55,6.29,3.78,9.45,.27,.69,.47,1.47,.44,2.2-.27,8.25-.59,16.51-.91,24.76-.02,.43-.12,.85-.2,1.4H9.16Z"/>
    <path class="cls-1" d="M121.87,1.67c-.77,2.76-1.46,5.3-2.2,7.82-.06,.22-.42,.42-.68,.49-.3,.09-.63,.02-.95,.02-33.11,0-66.21,0-99.32,0-.51,0-1.02,0-1.77,0,.92-2.76,1.76-5.32,2.65-7.87,.07-.21,.45-.38,.72-.44,.34-.08,.71-.02,1.07-.02,32.91,0,65.81,0,98.72,0,.51,0,1.03,0,1.76,0Z"/>
    <path class="cls-1" d="M111.42,13.48h8.13c3.89,31.94,9.62,63.49,20.57,94.29-3.13,0-6.06,.04-8.99-.05-.32,0-.78-.68-.9-1.13-1.65-6.17-3.48-12.3-4.81-18.53-2.4-11.23-4.59-22.51-6.71-33.8-2.49-13.29-4.81-26.61-7.21-39.92-.04-.23-.05-.47-.09-.86Z"/>
    <path class="cls-1" d="M8.12,107.31H1.61c2.21-19.94,4.41-39.77,6.51-58.74v58.74Z"/>
    <path class="cls-1" d="M16.59,12.07c-.13-.84,.21-1.15,.98-1.14,1.68,.02,3.35,0,5.03,0,31.75,0,63.5,0,95.26,0,.71,0,1.65-.26,1.43,1.13H16.59Z"/>
  </g>
  <path id="_선" data-name="선" d="M140.43,104.33c-6.69-18.27-10.96-37.17-14.31-56.28-1.8-10.28-3.08-20.66-4.57-31-.21-1.45,0-3.01-.46-4.35-.56-1.62-.03-2.97,.34-4.41,.37-1.43,.79-2.84,1.19-4.26,.34-1.21,.69-2.42,1.07-3.76h-2.28c-33.34,0-66.69,0-100.03,0-.5,0-1.01-.12-1.51-.24-.76-.18-1.79,.41-1.83,1.05-.05,.69-.08,1.4-.28,2.05-.99,3.2-1.97,6.4-3.06,9.57-1.81,5.24-3.7,10.44-5.54,15.66-.14,.41-.24,.84-.29,1.27-.21,1.82-.38,3.65-.61,5.47-.82,6.49-1.69,12.97-2.47,19.46-1.11,9.22-2.2,18.45-3.21,27.68C1.67,90.61,.87,98.99,.01,107.35c-.07,.7,.17,1.07,.87,1.11,1.59,.09,3.18,.18,4.77,.24,1.16,.04,2.48-.35,2.95,1.27,0,.02,.07,.01,.3,.04,.2-1.99,1.75-1.29,2.9-1.29,17.73-.03,35.46-.02,53.19-.03,1.2,0,2.39-.15,3.59-.18,.67-.02,.88-.31,.91-.95,.32-7.53,.66-15.06,1-22.6,.02-.41,0-.82,0-1.23,.39,.33,.58,.67,.72,1.03,2.97,7.79,5.94,15.58,8.89,23.37,.26,.68,.49,1.2,1.36,1.2,2.27,.01,4.54,.15,6.81,.13,17.07-.16,34.14-.35,51.21-.53,.78,0,1.56-.12,2.48-.19-.54-1.58-1.01-3.02-1.53-4.43Zm-132.31,2.98H1.61c2.21-19.94,4.41-39.77,6.51-58.74v58.74ZM19.6,2.13c.07-.21,.45-.38,.72-.44,.34-.08,.71-.02,1.07-.02,32.91,0,65.81,0,98.72,0h1.76c-.77,2.76-1.46,5.3-2.2,7.82-.06,.22-.42,.42-.68,.49-.3,.09-.63,.02-.95,.02-33.11,0-66.21,0-99.32,0h-1.77c.92-2.76,1.76-5.32,2.65-7.87Zm-2.03,8.79c1.68,.02,3.35,0,5.03,0,31.75,0,63.51,0,95.26,0,.71,0,1.65-.26,1.43,1.13H16.59c-.13-.84,.21-1.15,.98-1.14ZM122.39,108c-12.5,.03-25,.04-37.5,.03-3.43,0-3.46-.05-4.55-3.28-2.72-8.02-5.75-15.91-9.22-23.64-1.68-3.75-3.13-7.6-4.68-11.4-.09-.22-.14-.5-.3-.65-.35-.34-.77-.61-1.16-.91-.03,.46-.21,.99-.06,1.38,1.23,3.16,2.55,6.29,3.78,9.45,.27,.69,.47,1.47,.44,2.2-.27,8.25-.59,16.51-.91,24.76-.02,.43-.12,.85-.2,1.4H9.16v-1.47c0-21.48-.05-42.97,.06-64.45,.02-3.4,.71-6.8,1.19-10.19,.84-5.98,3.84-11.29,5.4-17.06,.08-.3,.57-.71,.86-.71,8.02-.04,16.05-.03,24.28-.03,.59,14.2,1.08,28.34,3.47,42.59-.58-.28-.97-.43-1.31-.65-2.24-1.45-4.47-2.94-6.73-4.36-.32-.2-.82-.13-1.24-.19,.14,.4,.15,.99,.44,1.18,2.41,1.63,4.82,3.28,7.32,4.76,6.36,3.75,12.77,7.43,19.17,11.1,.37,.21,.92,.12,1.38,.17-.23-.43-.34-1.05-.7-1.27-5.25-3.13-10.52-6.21-15.79-9.29-.48-.28-.97-.55-1.27-.86-2.16-14.26-2.89-28.62-3.35-43.21h1.31c21.77,0,43.54,.01,65.3-.03,1.21,0,1.55,.42,1.74,1.49,1.74,9.98,3.41,19.98,5.31,29.93,3.06,15.98,5.48,32.1,9.57,47.88,1.22,4.71,2.48,9.42,3.72,14.12,.07,.26,.11,.54,.18,.94-2.4,.09-4.74,.24-7.08,.24Zm8.74-.27c-.32,0-.78-.68-.9-1.13-1.65-6.17-3.48-12.3-4.81-18.53-2.4-11.23-4.59-22.51-6.71-33.8-2.49-13.29-4.81-26.61-7.21-39.92-.04-.23-.05-.47-.09-.86h8.13c3.89,31.94,9.62,63.49,20.57,94.29-3.13,0-6.06,.04-8.99-.05Z"/>
</svg>