<?xml version="1.0" encoding="UTF-8"?>
<svg id="_레깅스_이미지" data-name="레깅스 이미지" xmlns="http://www.w3.org/2000/svg" viewBox="0 0 137.32 113.34">
  <defs>
    <style>
      .cls-1 {
        fill: #fff;
      }
    </style>
  </defs>
  <g id="_색" data-name="색">
    <g>
      <path class="cls-1" d="M7.38,113.34v-8.78h58.42c-.14,2.94-.29,5.86-.43,8.78H7.38Z"/>
      <path class="cls-1" d="M81.19,113.34c-.52-2.12-1.04-4.24-1.56-6.36-.13-.53-.27-1.06-.44-1.76,.58,0,1.01,0,1.44,0,13.8,0,27.6,0,41.39,0,3.07,0,6.13,.07,9.2,.09,.77,0,1.23,.16,1.06,1.09-.06,.32,.08,.7,.19,1.03,.63,1.97,1.28,3.94,1.93,5.91h-53.2Z"/>
      <path class="cls-1" d="M56.56,62.08c-.15-.65-.14-1.24-.41-1.64-4.07-5.92-8.17-11.81-12.28-17.71-.3-.42-.61-.87-1.01-1.17-.26-.2-.69-.17-1.05-.24,.01,.35-.09,.78,.07,1.05,.32,.55,.81,.99,1.17,1.51,3.27,4.72,6.54,9.45,9.8,14.18,.65,.94,1.3,1.89,2.16,3.13-.62-.29-.93-.41-1.22-.57-6.22-3.51-12.44-7.04-18.68-10.52-.38-.21-.96-.05-1.45-.06,.25,.39,.4,.95,.76,1.15,6.62,3.78,13.3,7.46,19.89,11.29,2.71,1.58,5.22,3.5,7.84,5.23,.86,.57,.88,1.46,1.16,2.31,.96,2.87,2.08,5.7,3.05,8.56,.28,.81,.43,1.72,.38,2.57-.31,5.9-.71,11.79-1.04,17.68-.08,1.34-.01,2.69-.01,4.14H5.81c.24-2.92,.43-5.77,.71-8.62,.67-6.58,1.4-13.16,2.07-19.75,.72-7.06,1.42-14.12,2.06-21.19,.64-7.07,1.18-14.15,1.8-21.22,.08-.94,.26-1.91,.56-2.8,1.22-3.67,2.51-7.32,3.78-10.97,.36-1.05,.74-2.1,1.14-3.22h24.17c0,.93,0,1.8,0,2.66,.03,5.67,.05,11.34,.11,17,0,.65-.28,1.59,.77,1.68,.15,.01,.57-1.08,.57-1.66-.03-5.91-.12-11.81-.19-17.72,0-.63,0-1.26,0-2.03,.55,0,.98,0,1.4,0,22.81,0,45.61,0,68.42,0,2,0,2.01,0,2.63,1.93,1.25,3.91,2.88,7.75,3.66,11.76,1.92,9.86,3.52,19.78,5.12,29.69,1.69,10.51,3.17,21.05,4.88,31.56,.68,4.21,1.71,8.35,2.58,12.53,.08,.38,.16,.75,.29,1.38-.91,0-1.66,0-2.4,0-17.17-.02-34.35-.03-51.52-.05-1.8,0-1.81,0-2.25-1.73-.41-1.62-.72-3.27-1.21-4.87-.32-1.05-.94-2-1.31-3.04-1.7-4.73-3.36-9.47-5.02-14.22-.6-1.71-1.01-3.49-1.75-5.13-1.36-2.99-2.88-5.91-4.37-8.84-.17-.33-.55-.57-.88-.78-1.74-1.13-3.49-2.24-5.05-3.24Z"/>
      <path class="cls-1" d="M14.09,13.81c.59-1.7,1.14-3.2,1.63-4.7,.71-2.16,1.44-4.31,2.04-6.5,.26-.97,.71-1.2,1.66-1.2,15.45,.03,30.91,.02,46.36,.02,17.29,0,34.58,0,51.87,0,.51,0,1.01,0,1.72,0-1.62,3.94-1.72,7.92-1.81,11.96-1.58,.14-3.11,.4-4.64,.41-22.84,.03-45.68,.02-68.52,.02-9.58,0-19.16,0-28.74,0-.47,0-.93,0-1.58,0Z"/>
      <path class="cls-1" d="M4.46,103.03H1.55c.22-1.99,.44-3.91,.64-5.83,.62-6.03,1.25-12.05,1.84-18.08,.87-8.76,1.67-17.54,2.57-26.3,.77-7.57,1.6-15.14,2.49-22.7,.17-1.49,.68-2.95,1.13-4.39,.95-3.09,2-6.14,2.92-9.24,.32-1.07,.8-1.55,1.92-1.36,.42,.07,.86,.01,1.46,.01-.36,1.04-.67,1.94-.99,2.83-1.42,4.07-2.9,8.11-4.21,12.21-.35,1.1-.16,2.37-.27,3.56-.88,9.52-1.78,19.05-2.67,28.57-.66,7.1-1.3,14.21-1.99,21.31-.46,4.72-1.03,9.43-1.52,14.15-.18,1.7-.27,3.41-.41,5.26Z"/>
      <path class="cls-1" d="M135.86,103.85h-2.15c-.55-2.62-1.21-5.28-1.67-7.97-1.81-10.76-3.56-21.54-5.34-32.31-1.63-9.87-3.26-19.74-4.88-29.61-.32-1.92-.41-3.91-.95-5.77-1.01-3.5-2.26-6.93-3.41-10.4-.3-.9-.58-1.81-.92-2.85,1.13-.1,2.1,.01,2.43,1.09,1.7,5.52,3.61,11,4.9,16.62,1.09,4.72,1.42,9.61,2.12,14.42,1.3,8.91,2.53,17.83,3.96,26.73,1.36,8.46,2.89,16.89,4.42,25.32,.28,1.56,.95,3.05,1.48,4.72Z"/>
    </g>
  </g>
  <path d="M137.32,105.38c-.15-.94-.23-1.64-.39-2.33-.84-3.61-1.85-7.18-2.51-10.82-1.34-7.41-2.57-14.84-3.71-22.29-1.48-9.69-2.78-19.41-4.25-29.1-.91-6-1.18-12.12-3.69-17.83-1.34-3.05-2.23-6.32-3.18-9.53-.37-1.26-.46-2.64-.49-3.97-.02-.64,.45-1.28,.59-1.94,.43-2.02,.83-4.06,1.18-6.1,.05-.32-.17-.93-.4-1.01-.71-.24-1.49-.4-2.24-.4-32.86-.02-65.73-.02-98.59-.02-.83,0-1.67-.08-2.5,0-.46,.04-.9,.33-1.35,.51,.24,.4,.49,.8,.81,1.32-.22,.75-.45,1.67-.75,2.58-2.23,6.7-4.47,13.39-6.7,20.09-.55,1.65-1.11,3.31-1.5,5.01-.21,.91,0,1.91-.1,2.86-.71,6.42-1.5,12.83-2.17,19.25-.9,8.56-1.71,17.14-2.56,25.7-.61,6.15-1.2,12.3-1.83,18.45-.28,2.65-.66,5.3-.97,7.95-.07,.61-.04,1.26,.89,1.15,1.61-.2,3.23-.39,5.02-.61v9.06h1.44v-8.78h58.42c-.14,2.94-.28,5.86-.43,8.78h1.44c.21-3.01,.45-6.02,.6-9.03,.04-.7-.35-1.42-.33-2.12,.05-2.79,.13-5.57,.28-8.36,.19-3.5,.44-7,.86-10.57,.13,.33,.28,.66,.4,1,2.21,6.57,4.44,13.14,6.62,19.72,.29,.86,.76,1.31,1.63,1.22,.78-.08,1.02,.33,1.19,.99,.63,2.39,1.29,4.77,1.94,7.15h1.2c-.52-2.12-1.04-4.24-1.56-6.36-.13-.53-.27-1.06-.44-1.76h1.44c13.8,0,27.6,0,41.39,0,3.07,0,6.13,.07,9.2,.09,.77,0,1.23,.16,1.06,1.09-.06,.32,.08,.7,.19,1.03,.63,1.97,1.28,3.94,1.93,5.91h1.44c-.74-2.59-1.47-5.19-2.26-7.96h3.75ZM15.72,9.11c.71-2.16,1.44-4.31,2.04-6.5,.26-.97,.71-1.2,1.66-1.2,15.45,.03,30.91,.02,46.36,.02,17.29,0,34.58,0,51.87,0h1.72c-1.62,3.94-1.72,7.92-1.81,11.96-1.58,.14-3.11,.4-4.64,.41-22.84,.03-45.68,.02-68.52,.02-9.58,0-19.16,0-28.74,0h-1.58c.59-1.7,1.14-3.2,1.63-4.7ZM4.46,103.03H1.55c.22-1.99,.44-3.91,.64-5.83,.62-6.03,1.25-12.05,1.84-18.08,.87-8.76,1.67-17.54,2.57-26.3,.77-7.57,1.6-15.14,2.49-22.7,.17-1.49,.68-2.95,1.13-4.39,.95-3.09,2-6.14,2.92-9.24,.32-1.07,.8-1.55,1.92-1.36,.42,.07,.86,.01,1.46,.01-.36,1.04-.67,1.94-.99,2.83-1.42,4.07-2.9,8.11-4.21,12.21-.35,1.1-.16,2.37-.27,3.56-.88,9.52-1.78,19.05-2.67,28.57-.66,7.1-1.3,14.21-1.99,21.31-.46,4.72-1.03,9.43-1.52,14.15-.18,1.7-.27,3.41-.41,5.26Zm125.47,.95c-17.17-.02-34.35-.03-51.52-.05-1.8,0-1.81,0-2.25-1.73-.41-1.62-.72-3.27-1.21-4.87-.32-1.05-.94-2-1.31-3.04-1.7-4.73-3.36-9.47-5.02-14.22-.6-1.71-1.01-3.49-1.75-5.13-1.36-2.99-2.88-5.91-4.37-8.84-.17-.33-.55-.57-.88-.78-1.74-1.13-3.49-2.24-5.05-3.24-.15-.65-.14-1.24-.41-1.64-4.07-5.92-8.17-11.81-12.28-17.71-.3-.42-.61-.87-1.01-1.17-.26-.2-.69-.17-1.05-.24,.01,.35-.09,.78,.07,1.05,.32,.55,.81,.99,1.17,1.51,3.27,4.72,6.54,9.45,9.8,14.18,.65,.94,1.3,1.89,2.16,3.13-.62-.29-.93-.41-1.22-.57-6.22-3.51-12.44-7.04-18.68-10.52-.38-.21-.96-.05-1.45-.06,.25,.39,.4,.95,.76,1.15,6.62,3.78,13.3,7.46,19.89,11.29,2.71,1.58,5.22,3.5,7.84,5.23,.86,.57,.88,1.46,1.16,2.31,.96,2.87,2.08,5.7,3.05,8.56,.28,.81,.43,1.72,.38,2.57-.31,5.9-.71,11.79-1.04,17.68-.08,1.34-.01,2.69-.01,4.14H5.81c.24-2.92,.43-5.77,.71-8.62,.67-6.58,1.4-13.16,2.07-19.75,.72-7.06,1.42-14.12,2.06-21.19,.64-7.07,1.18-14.15,1.8-21.22,.08-.94,.26-1.91,.56-2.8,1.22-3.67,2.51-7.32,3.78-10.97,.36-1.05,.74-2.1,1.14-3.22h24.17c0,.93,0,1.8,0,2.66,.03,5.67,.05,11.34,.11,17,0,.65-.28,1.59,.77,1.68,.15,.01,.57-1.08,.57-1.66-.03-5.91-.12-11.81-.19-17.72,0-.63,0-1.26,0-2.03h1.4c22.81,0,45.61,0,68.42,0,2,0,2.01,0,2.63,1.93,1.25,3.91,2.88,7.75,3.66,11.76,1.92,9.86,3.52,19.78,5.12,29.69,1.69,10.51,3.17,21.05,4.88,31.56,.68,4.21,1.71,8.35,2.58,12.53,.08,.38,.16,.75,.29,1.38-.91,0-1.66,0-2.4,0Zm2.12-8.11c-1.81-10.76-3.56-21.54-5.34-32.31-1.63-9.87-3.26-19.74-4.88-29.6-.32-1.92-.41-3.91-.95-5.77-1.01-3.5-2.26-6.93-3.41-10.4-.3-.9-.58-1.81-.92-2.85,1.13-.1,2.1,.01,2.43,1.09,1.7,5.52,3.61,11,4.9,16.62,1.09,4.72,1.42,9.61,2.12,14.42,1.3,8.91,2.53,17.83,3.96,26.73,1.36,8.46,2.89,16.89,4.42,25.32,.28,1.56,.95,3.05,1.48,4.72h-2.15c-.55-2.62-1.21-5.28-1.67-7.97Z"/>
</svg>