<?xml version="1.0" encoding="UTF-8"?>
<svg id="_목티_이미지" data-name="목티 이미지" xmlns="http://www.w3.org/2000/svg" viewBox="0 0 162.99 208.42">
  <defs>
    <style>
      .cls-1 {
        fill: #fff;
      }
    </style>
  </defs>
  <path id="_색" data-name="색" class="cls-1" d="M22.22,156.84c-.4-2.39-.74-4.79-1.22-7.17-1.16-5.79-2.22-11.6-3.59-17.34-3.98-16.67-7.53-33.45-12.14-49.98-2.1-7.51-3.2-15.24-3.55-23.03-.24-5.26-.38-10.54-.19-15.79,.17-4.56,1.27-8.99,3.04-13.24,1.16-2.78,2.89-5.06,5.32-6.79,4.15-2.97,8.46-5.68,13.64-6.36,2.72-.36,5.49-.45,8.24-.56,8.78-.35,17.54-.79,26.23-2.19,1.21-.19,2.45-.22,3.64-.49,.31-.07,.7-.75,.69-1.14-.06-2.59-.22-5.18-.36-7.78-.03-.67-.09-1.33-.14-2.11,10.43,.64,20.66-.27,31.02-1.28,.2,1.78,.4,3.58,.63,5.39,.14,1.11,.32,2.21,.53,3.31,.22,1.16,.47,1.12,1.53,.66,1.08-.46,2.31-.59,3.48-.81,4.19-.8,8.36-1.7,12.58-2.33,6.78-1.02,13.57-2.1,20.47-1.85,4.64,.17,8.71,1.59,11.62,5.42,.66,.87,1.3,1.88,1.53,2.92,1.29,5.88,2.73,11.75,3.58,17.7,.87,6.07,.99,12.25,1.69,18.35,.76,6.61,1.85,13.19,2.71,19.79,.9,6.88,1.91,13.76,2.48,20.68,.69,8.35,2.4,16.49,4.07,24.66,.69,3.36,1.42,6.73,1.77,10.13,.46,4.49-.97,8.73-2.88,12.69-7.15,14.86-14.61,29.58-20.81,44.87-2.65,6.55-5.18,13.15-7.77,19.72-.03,.07-.1,.12-.25,.31-.04-.3-.08-.5-.1-.7-.8-9.14-1.45-18.3-2.46-27.41-.45-4.02-1.59-7.97-2.49-11.94-.27-1.17-.25-2.25,.13-3.39,.87-2.6,1.86-5.17,2.44-7.84,1.95-8.99,5.72-17.34,8.9-25.9,.51-1.38,1.14-2.73,1.78-4.06,.46-.96,.59-1.81,.31-2.92-.88-3.56-1.51-7.18-2.28-10.77-2.71-12.64-5.42-25.28-8.17-37.92-1.83-8.42-3.71-16.83-5.59-25.24-.21-.93-.53-1.85-.91-2.72-.12-.27-.59-.39-.9-.58-.11,.34-.38,.74-.29,1.02,4.76,15.45,6.76,31.51,10.44,47.2,2.19,9.36,4,18.81,6.13,28.19,.37,1.64,.13,2.91-.49,4.38-3.97,9.47-7.74,19.01-10.39,28.95-.75,2.8-.79,2.79-3.71,2.79-29.84,0-59.67,0-89.51,0-2.55,0-5.09,0-7.75,0,.22-.65,.47-1.42,.76-2.18,3.01-7.92,4.5-16.29,7.19-24.31,1.47-4.39,2.93-8.78,4.41-13.17,.21-.62,.27-1.04-.32-1.56-.64-.57-1.06-1.38-1.54-2.12-8.11-12.44-15.11-25.5-20.83-39.2-3.18-7.62-6.23-15.34-7.88-23.47-.7-3.42-.85-6.96-1.25-10.45-.02-.16,.05-.35-.02-.47-.19-.34-.43-.65-.66-.97-.23,.32-.65,.65-.64,.97,.04,1.79,.13,3.59,.3,5.38,.55,5.81,2.23,11.33,4.11,16.82,5.95,17.4,14.13,33.71,23.94,49.22,1.05,1.65,2.13,3.28,3.15,4.95,.17,.27,.18,.74,.09,1.06-2.72,8.93-5.43,17.87-8.2,26.78-1.59,5.09-3.28,10.15-4.93,15.22-.12-.01-.24-.02-.36-.04ZM113.46,34.07c-.22,.18-.57,.32-.59,.5-.03,.26,.12,.61,.31,.8,1.62,1.63,3.26,3.24,4.93,4.82,.28,.27,.78,.31,1.18,.45-.05-.42,.07-1-.17-1.25-1.47-1.61-3.01-3.16-4.56-4.7-.27-.27-.68-.39-1.1-.62Z"/>
  <g id="_선" data-name="선">
    <path d="M162.91,125.7c-.35-3.32-.99-6.63-1.75-9.89-2.3-9.89-3.61-19.93-4.68-30.01-.65-6.15-1.5-12.28-2.3-18.41-.62-4.79-1.38-9.56-1.93-14.35-.96-8.4-1.56-16.85-2.77-25.22-.76-5.31-2.22-10.53-3.61-15.72-.83-3.1-2.96-5.34-5.88-6.77-2.25-1.1-4.62-1.71-7.15-1.77-6.14-.13-12.17,.88-18.19,1.87-6.45,1.06-12.86,2.32-19.3,3.5-.11-.34-.18-.48-.2-.63-.32-2.37-.64-4.74-.94-7.12-.09-.69-.18-1.28-1.11-1.16-2.89,.35-5.77,.84-8.67,.97-6.9,.31-13.8,.46-20.7,.63-.72,.02-1.45-.29-2.17-.48-.32-.08-.61-.24-.92-.36-.12,.35-.36,.71-.34,1.05,.18,3.15,.38,6.29,.65,9.43,.08,.95-.28,1.3-1.14,1.42-3.2,.46-6.38,1.14-9.59,1.38-7.28,.54-14.58,.9-21.87,1.25-4.52,.22-8.92,.86-12.9,3.14-2.62,1.5-5.44,2.85-7.65,4.85-1.89,1.72-3.36,4.11-4.44,6.47C1.16,34.56,.21,39.74,.05,45c-.13,4.22,.03,8.46,.2,12.69,.3,7.51,1.25,14.97,3.05,22.27,3.19,12.94,6.62,25.81,9.57,38.82,3.27,14.43,6.4,28.87,7.98,43.6,.03,.32,.36,.61,.55,.92,.28-.29,.71-.53,.82-.87,.51-1.51,.92-3.06,1.4-4.58,.66-2.04,.67-2.03,2.85-1.74,.39,.05,.8,0,1.19-.03,1.67-.14,3.33-.42,5-.42,30.15-.03,60.31-.02,90.46-.02,.41,0,.82,.04,1.33,.07-.46,1.35-.92,2.5-1.24,3.69-.18,.67-.31,1.44-.18,2.1,.49,2.58,1.14,5.14,1.66,7.72,.65,3.29,1.47,6.56,1.78,9.88,.79,8.46,1.34,16.95,2,25.42,.08,1.03,.14,2.07,.32,3.09,.05,.3,.48,.53,.73,.8,.2-.22,.5-.41,.58-.66,.96-3,1.73-6.06,2.85-9,6.47-16.99,13.99-33.53,21.99-49.85,1.71-3.5,3.79-6.84,5.2-10.45,1.59-4.06,3.24-8.26,2.76-12.76Zm-4.28,12.6c-7.15,14.86-14.61,29.58-20.81,44.87-2.65,6.55-5.18,13.15-7.77,19.72-.03,.07-.1,.12-.25,.31-.04-.3-.08-.5-.1-.7-.8-9.14-1.45-18.3-2.46-27.41-.45-4.02-1.59-7.97-2.49-11.94-.27-1.17-.25-2.25,.13-3.39,.87-2.6,1.86-5.17,2.44-7.84,1.95-8.99,5.72-17.34,8.9-25.9,.51-1.38,1.14-2.73,1.78-4.06,.46-.96,.59-1.81,.31-2.92-.88-3.56-1.51-7.18-2.28-10.77-2.71-12.64-5.42-25.28-8.17-37.92-1.83-8.42-3.71-16.83-5.59-25.24-.21-.93-.53-1.85-.91-2.72-.12-.27-.59-.39-.9-.58-.11,.34-.38,.74-.29,1.02,4.76,15.45,6.76,31.51,10.44,47.2,2.19,9.36,4,18.81,6.13,28.19,.37,1.64,.13,2.91-.49,4.38-3.97,9.47-7.74,19.01-10.39,28.95-.75,2.8-.79,2.79-3.71,2.79-29.84,0-59.67,0-89.51,0h-7.75c.22-.65,.47-1.42,.76-2.18,3.01-7.92,4.5-16.29,7.19-24.31,1.47-4.39,2.93-8.78,4.41-13.17,.21-.62,.27-1.04-.32-1.56-.64-.57-1.06-1.38-1.54-2.12-8.11-12.44-15.11-25.5-20.83-39.2-3.18-7.62-6.23-15.34-7.88-23.47-.7-3.42-.85-6.96-1.25-10.45-.02-.16,.05-.35-.02-.47-.19-.34-.43-.65-.66-.97-.23,.32-.65,.65-.64,.97,.04,1.79,.13,3.59,.3,5.38,.55,5.81,2.23,11.33,4.11,16.82,5.95,17.4,14.13,33.71,23.94,49.22,1.05,1.65,2.13,3.28,3.15,4.95,.17,.27,.18,.74,.09,1.06-2.72,8.93-5.43,17.87-8.2,26.78-1.59,5.09-3.28,10.15-4.93,15.22-.12-.01-.24-.02-.36-.04-.4-2.39-.74-4.79-1.22-7.17-1.16-5.79-2.22-11.6-3.59-17.34-3.98-16.67-7.53-33.45-12.14-49.98-2.1-7.51-3.2-15.24-3.55-23.03-.24-5.26-.38-10.54-.19-15.79,.17-4.56,1.27-8.99,3.04-13.24,1.16-2.78,2.89-5.06,5.32-6.79,4.15-2.97,8.46-5.68,13.64-6.36,2.72-.36,5.49-.45,8.24-.56,8.78-.35,17.54-.79,26.23-2.19,1.21-.19,2.45-.22,3.64-.49,.31-.07,.7-.75,.69-1.14-.06-2.59-.22-5.18-.36-7.78-.03-.67-.09-1.33-.14-2.11,10.43,.64,20.66-.27,31.02-1.28,.2,1.78,.4,3.58,.63,5.39,.14,1.11,.32,2.21,.53,3.31,.22,1.16,.47,1.12,1.53,.66,1.08-.46,2.31-.59,3.48-.81,4.19-.8,8.36-1.7,12.58-2.33,6.78-1.02,13.57-2.1,20.47-1.85,4.64,.17,8.71,1.59,11.62,5.42,.66,.87,1.3,1.88,1.53,2.91,1.29,5.88,2.73,11.75,3.58,17.7,.87,6.07,.99,12.25,1.69,18.35,.76,6.61,1.85,13.19,2.71,19.79,.9,6.88,1.91,13.76,2.48,20.68,.69,8.35,2.4,16.49,4.07,24.66,.69,3.36,1.42,6.73,1.77,10.13,.46,4.49-.97,8.73-2.88,12.69Z"/>
    <path d="M114.55,34.69c-.27-.27-.68-.39-1.1-.62-.22,.18-.57,.32-.59,.5-.03,.26,.12,.61,.31,.8,1.62,1.63,3.26,3.24,4.93,4.82,.28,.27,.78,.31,1.18,.45-.05-.42,.07-1-.17-1.25-1.47-1.61-3.01-3.16-4.56-4.7Z"/>
  </g>
</svg>