<?xml version="1.0" encoding="UTF-8"?>
<svg id="_티_이미지" data-name="티 이미지" xmlns="http://www.w3.org/2000/svg" viewBox="0 0 162.97 204.93">
  <defs>
    <style>
      .cls-1 {
        fill: #fff;
      }
    </style>
  </defs>
  <path id="_색" data-name="색" class="cls-1" d="M129.78,199.59c-.11-2.17-.14-4.36-.35-6.52-.85-8.81-1.06-17.7-3.09-26.37-.58-2.48-1.17-4.97-1.64-7.47-.15-.82-.11-1.75,.11-2.55,.78-2.75,1.88-5.42,2.49-8.2,1.94-8.91,5.73-17.17,8.76-25.69,.8-2.25,2.8-4.12,2.26-6.81-.48-2.43-.96-4.85-1.47-7.27-4.07-19.25-8.11-38.49-12.23-57.73-.77-3.59-1.82-7.11-2.74-10.66-.06-.23-.09-.5-.22-.68-.36-.46-.91-1.3-1.13-1.23-.94,.31-.29,1.04-.16,1.59,1.64,6.91,3.4,13.79,4.91,20.72,3.25,14.93,6.37,29.89,9.54,44.84,.69,3.28,1.26,6.59,2.07,9.84,.28,1.14,.1,2.01-.33,3.02-4.11,9.67-7.95,19.43-10.68,29.6-.77,2.85-.81,2.84-3.79,2.84-29.83,0-59.67,0-89.5,0-2.54,0-5.08,0-7.71,0,.31-.87,.61-1.85,1-2.8,2.04-5.09,3-10.49,4.61-15.7,2.2-7.09,4.51-14.14,6.8-21.2,.21-.64,.18-1.03-.39-1.54-.63-.57-1.04-1.4-1.52-2.13-8.08-12.41-15.06-25.43-20.77-39.09-3.18-7.62-6.23-15.33-7.89-23.46-.7-3.42-.86-6.96-1.27-10.44-.07-.58,.26-1.47-.72-1.43-.23,0-.61,1.01-.6,1.54,.14,6.44,1.45,12.66,3.47,18.76,3.76,11.36,8.47,22.3,13.93,32.95,4.23,8.27,9.09,16.14,14.06,23.96,.17,.27,.25,.73,.15,1.04-2.75,9.05-5.49,18.1-8.31,27.13-1.52,4.87-3.17,9.69-4.77,14.54-.05,.15-.14,.28-.35,.68-.29-1.65-.51-3.05-.79-4.44-1.43-7.2-2.64-14.45-4.37-21.57-3.86-15.96-7.17-32.06-11.66-47.88-2.23-7.85-3.42-15.92-3.78-24.08-.23-5.22-.37-10.46-.18-15.67,.17-4.51,1.26-8.91,3-13.13,1.17-2.82,2.91-5.14,5.38-6.89,4.12-2.93,8.39-5.64,13.53-6.32,2.76-.36,5.57-.47,8.35-.58,9.17-.37,18.34-.82,27.4-2.4,.11-.02,.23,.02,.39,.04,.16,.86,.27,1.73,.47,2.57,1.46,5.98,5.59,8.93,11.37,10.04,6.26,1.2,11.54-.93,16.36-4.71,3.49-2.74,6-6.26,8.23-10.04,.37-.62,1.07-1.29,1.73-1.44,2.94-.69,5.94-1.13,8.89-1.81,6.2-1.42,12.49-2.21,18.81-2.72,4.05-.32,8.16-.6,12.09,.84,4,1.47,6.88,4.04,8,8.34,2,7.67,3.34,15.44,4.06,23.33,.61,6.71,1.15,13.43,1.91,20.13,.59,5.19,1.56,10.33,2.21,15.51,.76,6.01,1.22,12.07,2.07,18.07,.92,6.55,2.1,13.07,3.24,19.59,.7,4.01,1.6,7.98,2.32,11.98,.45,2.5,.19,4.96-.36,7.47-1.3,6-4.5,11.16-7.12,16.56-7.72,15.92-15.08,32-21.51,48.49-.72,1.86-1.36,3.75-2.04,5.63-.13,.35-.27,.7-.41,1.05-.05-.01-.1-.03-.15-.04Zm-10.24-162.88c-.06-.19-.07-.33-.14-.41-1.8-1.83-3.6-3.68-5.45-5.46-.16-.16-.69,.07-1.05,.12,.16,.35,.23,.79,.48,1.04,1.37,1.37,2.8,2.7,4.19,4.05,.31,.3,.52,.72,.85,1,.17,.15,.52,.2,.75,.15,.17-.04,.27-.33,.38-.48Z"/>
  <g id="_선" data-name="선">
    <path d="M162.92,122.55c-.26-3.01-.83-6.01-1.51-8.96-2.31-10.05-3.77-20.22-4.89-30.47-.76-7.02-1.7-14.02-2.59-21.03-.63-4.95-1.37-9.88-1.93-14.84-.88-7.69-1.41-15.42-2.54-23.07-.77-5.23-2.18-10.38-3.56-15.49-.96-3.56-3.51-5.88-6.9-7.33-3.63-1.55-7.42-1.51-11.2-1.19-10.11,.87-20,3.13-29.97,4.94-.45,.08-.96,.41-1.24,.77-1.35,1.78-2.52,3.7-3.95,5.41-1.83,2.2-3.65,4.48-5.83,6.3-4.11,3.43-8.83,5.48-14.37,4.53-1.48-.25-2.98-.63-4.38-1.18-4.57-1.8-7.05-5.83-6.78-10.79,.06-1.08-.58-1.51-1.56-1.07-.36,.16-.75,.27-1.14,.34-7.48,1.32-15.05,1.75-22.62,2.17-3.94,.22-7.9,.25-11.83,.61-5.68,.52-10.39,3.42-14.94,6.6-.55,.38-1.28,.62-1.65,1.13-1.48,2.07-3.17,4.09-4.21,6.38C1.14,31.2,.17,36.45,.04,41.8c-.1,4.15,.04,8.3,.21,12.45,.31,7.51,1.3,14.95,3.05,22.27,3.12,13,6.34,25.97,9.54,38.94,3.53,14.29,6.41,28.7,8.01,43.35,.04,.35,.39,.68,.59,1.01,.27-.3,.68-.56,.8-.91,.61-1.82,1.21-3.64,1.68-5.49,.26-1,.83-1.06,1.67-1.03,1.5,.06,3.01,.05,4.51,.01,.87-.02,1.74-.24,2.61-.24,30.11-.01,60.22-.01,90.34-.01h1.44c-.46,1.35-.9,2.5-1.24,3.68-.18,.64-.35,1.35-.24,1.99,.36,2.12,.89,4.21,1.29,6.32,.84,4.46,1.94,8.91,2.4,13.41,.8,7.82,1.21,15.68,1.78,23.52,.08,1.03,.14,2.07,.32,3.09,.05,.29,.49,.51,.75,.77,.19-.23,.47-.42,.56-.68,.96-3,1.74-6.06,2.85-9,6.47-16.99,13.99-33.53,21.99-49.84,1.72-3.5,3.78-6.85,5.2-10.45,1.55-3.95,3.14-8.03,2.76-12.4Zm-1.92,5.35c-1.3,6-4.5,11.16-7.12,16.56-7.72,15.92-15.08,32-21.51,48.49-.72,1.86-1.36,3.75-2.04,5.63-.13,.35-.27,.7-.41,1.05-.05-.01-.1-.03-.15-.04-.11-2.17-.14-4.36-.35-6.52-.85-8.81-1.06-17.7-3.09-26.37-.58-2.48-1.17-4.97-1.64-7.47-.15-.82-.11-1.75,.11-2.55,.78-2.75,1.88-5.42,2.49-8.2,1.94-8.91,5.73-17.17,8.76-25.69,.8-2.25,2.8-4.12,2.26-6.81-.48-2.43-.96-4.85-1.47-7.27-4.07-19.25-8.11-38.49-12.23-57.73-.77-3.59-1.82-7.11-2.74-10.66-.06-.23-.09-.5-.22-.68-.36-.46-.91-1.3-1.13-1.23-.94,.31-.29,1.04-.16,1.59,1.64,6.91,3.4,13.79,4.91,20.72,3.25,14.93,6.37,29.89,9.54,44.84,.69,3.28,1.26,6.59,2.07,9.84,.28,1.14,.1,2.01-.33,3.02-4.11,9.67-7.95,19.43-10.68,29.6-.77,2.85-.81,2.84-3.79,2.84-29.83,0-59.67,0-89.5,0-2.54,0-5.08,0-7.71,0,.31-.87,.61-1.85,1-2.8,2.04-5.09,3-10.49,4.61-15.7,2.2-7.09,4.51-14.14,6.8-21.2,.21-.64,.18-1.03-.39-1.54-.63-.57-1.04-1.4-1.52-2.13-8.08-12.41-15.06-25.43-20.77-39.09-3.18-7.62-6.23-15.33-7.89-23.46-.7-3.42-.86-6.96-1.27-10.44-.07-.58,.26-1.47-.72-1.43-.23,0-.61,1.01-.6,1.54,.14,6.44,1.45,12.66,3.47,18.76,3.76,11.36,8.47,22.3,13.93,32.95,4.23,8.27,9.09,16.14,14.06,23.96,.17,.27,.25,.73,.15,1.04-2.75,9.05-5.49,18.1-8.31,27.13-1.52,4.87-3.17,9.69-4.77,14.54-.05,.15-.14,.28-.35,.68-.29-1.65-.51-3.05-.79-4.44-1.43-7.2-2.64-14.45-4.37-21.57-3.86-15.96-7.17-32.06-11.66-47.88-2.23-7.85-3.42-15.92-3.78-24.08-.23-5.22-.37-10.46-.18-15.67,.17-4.51,1.26-8.91,3-13.13,1.17-2.82,2.91-5.14,5.38-6.89,4.12-2.93,8.39-5.64,13.53-6.32,2.76-.36,5.57-.47,8.35-.58,9.17-.37,18.34-.82,27.4-2.4,.11-.02,.23,.02,.39,.04,.16,.86,.27,1.73,.47,2.57,1.46,5.98,5.59,8.93,11.37,10.04,6.26,1.2,11.54-.93,16.36-4.71,3.49-2.74,6-6.26,8.23-10.04,.37-.62,1.07-1.29,1.73-1.44,2.94-.69,5.94-1.13,8.89-1.81,6.2-1.42,12.49-2.21,18.81-2.72,4.05-.32,8.16-.6,12.09,.84,4,1.47,6.88,4.04,8,8.34,2,7.67,3.34,15.44,4.06,23.33,.61,6.71,1.15,13.43,1.91,20.13,.59,5.19,1.56,10.33,2.21,15.51,.76,6.01,1.22,12.07,2.07,18.07,.92,6.55,2.1,13.07,3.24,19.59,.7,4.01,1.6,7.98,2.32,11.98,.45,2.5,.19,4.96-.36,7.47Z"/>
    <path d="M113.95,30.84c-.16-.16-.69,.07-1.05,.12,.16,.35,.23,.79,.48,1.04,1.37,1.37,2.8,2.7,4.19,4.05,.31,.3,.52,.72,.85,1,.17,.15,.52,.2,.75,.15,.17-.04,.27-.33,.38-.48-.06-.19-.07-.33-.14-.41-1.8-1.83-3.6-3.68-5.45-5.46Z"/>
  </g>
</svg>