<?xml version="1.0" encoding="UTF-8"?>
<svg id="_블레이저_이미지" data-name="블레이저 이미지" xmlns="http://www.w3.org/2000/svg" viewBox="0 0 168.43 209.35">
  <defs>
    <style>
      .cls-1 {
        fill: #fff;
      }
    </style>
  </defs>
  <g id="_색" data-name="색">
    <path class="cls-1" d="M132.66,206.01c-.37-1.94-.81-3.87-1.11-5.82-1.25-8.28-2.43-16.57-3.69-24.85-.4-2.63-1.09-5.21-1.43-7.84-.14-1.1,.19-2.29,.45-3.41,2.27-9.77,5.13-19.36,8.93-28.65,.67-1.64,.95-3.5,1.86-4.98,.93-1.52,.42-2.75,.1-4.15-1.7-7.51-3.43-15.02-5.02-22.55-3.33-15.77-6.59-31.55-9.87-47.33-1.1-5.27-2.78-10.33-5.26-15.11-.14-.28-.33-.6-.29-.89,.13-1.06-.51-1.24-1.34-1.39-1.8-.33-3.58-.77-5.37-1.11-.85-.16-1.95,.05-2.53-.42-.48-.38-.32-1.52-.51-2.31-1.6-6.71-3.21-13.43-4.81-20.14-.12-.5-.21-1-.34-1.61,3.04-.52,5.98-1.01,8.92-1.52,5.99-1.04,12.01-1.75,18.09-1.76,3.26,0,6.53,.3,9.78,.58,.92,.08,1.84,.52,2.7,.94,1.47,.71,2.5,1.78,3.17,3.39,2.01,4.84,4.06,9.65,4.87,14.87,.82,5.32,1.61,10.65,2.34,15.99,1.24,9.05,2.32,18.13,3.66,27.16,1.37,9.23,2.74,18.47,4.52,27.63,1.78,9.2,4.03,18.31,6.14,27.45,.51,2.2,.28,4.1-.71,6.2-5.56,11.77-10.93,23.63-16.42,35.43-3.25,6.99-6.68,13.89-9.9,20.89-2.17,4.71-4.1,9.53-6.14,14.3-.15,.35-.31,.69-.46,1.03-.1,0-.2-.01-.3-.02Z"/>
    <path class="cls-1" d="M116.57,42.25c2.13,4.18,3.7,8.4,4.61,12.84,2.59,12.62,5.11,25.26,7.68,37.88,1.45,7.11,2.99,14.21,4.41,21.32,.86,4.3,1.61,8.63,2.35,12.95,.39,2.27,.25,4.48-.64,6.68-4.06,9.96-7.23,20.2-9.8,30.64-.61,2.5,.07,4.82,.41,7.2,.57,3.98,1.19,7.96,1.85,11.92,.14,.87-.15,1.28-.92,1.47-4.64,1.15-9.25,2.43-13.93,3.4-5.1,1.06-10.29,1.29-15.49,.99-5.24-.31-10.37-1.27-15.35-2.92-.37-.12-.67-.92-.73-1.43-.31-2.29-.61-4.59-.74-6.9-.61-10.72-1.09-21.44-1.76-32.16-.29-4.54,.62-8.76,2.23-12.95,6.4-16.62,12.72-33.27,19.05-49.91,2.2-5.78,4.23-11.63,6.57-17.35,3.19-7.79,6.59-15.5,9.91-23.24,.05-.11,.13-.19,.3-.43Z"/>
    <path class="cls-1" d="M115.64,40.3c-.12,.39-.19,.78-.34,1.14-1.92,4.52-3.86,9.02-5.77,13.54-2.03,4.78-4.03,9.56-6.06,14.34-.56,1.32-1.24,2.59-1.74,3.94-3.22,8.8-6.32,17.64-9.6,26.41-4.31,11.52-8.75,22.98-13.14,34.47-.08,.21-.18,.41-.48,.59,0-.41,0-.83,0-1.24,.11-7.75-.05-15.51,.39-23.23,.47-8.32,1.14-16.66,2.37-24.89,2.11-14.12,4.74-28.17,7.11-42.25,.2-1.18,.68-1.78,1.9-2.06,5.35-1.21,10.76-1.87,16.24-2.08,3.11-.12,6.09,.34,9.11,1.33Z"/>
    <path class="cls-1" d="M106.29,37.4c-5.66,.76-11.24,1.51-17.08,2.29,.53-2.59,.93-5.3,1.65-7.91,1.06-3.84,2.1-7.73,3.63-11.39,1.47-3.5,1.93-7.03,1.79-10.73-.08-2.03-.16-4.07-.23-6.1-.01-.39,0-.77,0-1.4,1.81,1.44,3.02,2.94,3.5,5.04,1.45,6.41,2.96,12.81,4.42,19.23,.78,3.45,1.51,6.91,2.26,10.36,.06,.26,.06,.54,.07,.62Z"/>
    <path class="cls-1" d="M52.39,16.8c-.1,.32-.15,.58-.25,.82-2.46,6.02-5.1,11.98-7.31,18.09-.8,2.2-1.94,2.78-3.96,2.7-3.06-.12-5.89,.83-8.59,2.15-.37,.18-.72,1.01-.63,1.45,1.11,5.55,2.39,11.07,3.46,16.64,1.59,8.27,3.08,16.56,4.56,24.86,2.05,11.51,3.71,23.1,6.7,34.42,1.21,4.59,2.72,9.09,4.04,13.66,.2,.69,.18,1.51,.04,2.23-1.82,9.32-3.72,18.63-5.52,27.96-1.51,7.88-2.91,15.78-4.36,23.67-.04,.24-.08,.47-.11,.71-.3,2.21-1.05,2.89-3.23,2.34-6.01-1.5-11.88-3.44-17.53-6.02-.72-.33-.59-.81-.49-1.38,1.73-10.08,3.99-20.03,6.75-29.87,3.45-12.3,6.85-24.6,10.27-36.91,.1-.35,.19-.7,.34-1.02,.3-.65,.4-1.19-.4-1.59-.26-.12-.42-.47-.6-.73-12.72-18.87-21.61-39.43-27.28-61.43-.53-2.04-1.22-4.06-2.07-5.98-.51-1.16-1.5-2.1-2.22-3.17-.23-.34-.47-.89-.35-1.2,1.26-3.14,2.39-6.36,3.96-9.34,2.08-3.94,5.76-6.06,9.82-7.61,4.78-1.82,9.82-2.45,14.83-3.09,5.58-.71,11.19-1.13,16.78-1.72,1.09-.11,2.16-.4,3.35-.63Z"/>
    <path class="cls-1" d="M21.72,161.95c-2.61-12.42-5.24-24.94-7.86-37.47-3.41-16.32-6.83-32.64-10.18-48.97-1.42-6.93-2.58-13.92-2.24-21.02,.2-4.13,.93-8.23,1.43-12.35,.02-.19,.14-.36,.27-.7,1.49,1.34,2.6,2.77,3.01,4.69,3.58,16.4,9.54,31.96,17.18,46.85,3.29,6.41,7.32,12.45,11.07,18.62,.56,.92,.74,1.69,.44,2.77-4.34,15.65-8.62,31.31-12.92,46.97-.07,.26-.18,.51-.21,.61Z"/>
    <path class="cls-1" d="M50.99,128.01c-.48-1.47-.93-2.94-1.43-4.4-2.11-6.08-3.65-12.32-4.78-18.64-1.89-10.57-3.7-21.15-5.57-31.72-1.5-8.45-3.02-16.89-4.56-25.33-.29-1.61-.7-3.2-1.07-4.79-.25-1.04-.03-1.83,1.11-2.11,1.81-.44,3.61-1.12,5.44-1.21,3.85-.18,7.72-.14,11.58,.01,2.45,.1,2.49,.27,2.39,2.71-.44,11.25-.97,22.5-1.35,33.75-.36,10.42-.62,20.84-.82,31.26-.1,5.03,.09,10.06,.03,15.09-.02,1.78-.38,3.55-.58,5.33-.12,.01-.25,.03-.37,.04Z"/>
    <path class="cls-1" d="M62.88,9.21c.18,1.66,.44,3.15,.45,4.64,0,.55-.46,1.29-.93,1.62-1.6,1.12-3.29,2.11-4.97,3.11-.98,.59-1.36,1.41-1.44,2.56-.41,5.85-.9,11.69-1.35,17.42-2.95-.19-5.9-.38-9.13-.59,.94-2.33,1.87-4.63,2.8-6.92,1.96-4.85,3.9-9.7,5.92-14.52,.3-.72,.89-1.41,1.51-1.91,1.99-1.6,4.06-3.11,6.09-4.65,.3-.23,.61-.45,1.05-.77Z"/>
  </g>
  <g id="_선" data-name="선">
    <path d="M168.33,129.85c-.67-3.24-1.51-6.45-2.22-9.68-1.84-8.38-3.83-16.73-5.41-25.16-1.44-7.68-2.49-15.44-3.58-23.18-1.27-8.93-2.37-17.88-3.6-26.81-.73-5.3-1.53-10.58-2.35-15.86-.91-5.87-3.47-11.18-5.72-16.6-.1-.24-.29-.53-.51-.63-1.98-.9-3.92-2-6-2.57-1.81-.5-3.79-.49-5.7-.54-7.85-.2-15.62,.64-23.34,2.01-2.58,.46-5.16,.86-7.86,1.31-.77-4.92-1.72-9.63-7-12.14-.13,1.26-.34,2.32-.33,3.36,.03,2.4,.26,4.79,.25,7.18,0,1.9,.16,3.94-.46,5.66-3.12,8.61-5.41,17.45-7.28,26.38-3.46,16.53-6.47,33.15-8.2,49.97-.85,8.26-1.46,16.55-1.83,24.84-.3,6.65-.07,13.33-.09,19.99,0,2.23-.2,4.46-.1,6.68,.4,9.73,.85,19.47,1.33,29.2,.17,3.47,.32,6.95,.81,10.38,.3,2.15,1.05,4.12,3.76,4.82,5.24,1.34,10.52,2.34,15.92,2.51,9.23,.3,18.15-1.62,27-3.97,.66-.18,1.28-.53,1.97-.83,1.35,7.81,2.68,15.5,4.01,23.18,1.52-.19,1.48-.21,2.01-1.5,1.9-4.65,3.7-9.36,5.79-13.93,3.74-8.2,7.71-16.29,11.51-24.46,2.25-4.85,4.29-9.8,6.54-14.65,3.23-6.95,6.54-13.87,9.92-20.75,.68-1.39,1.08-2.76,.78-4.21ZM90.86,31.77c1.06-3.84,2.1-7.73,3.63-11.39,1.47-3.5,1.93-7.03,1.79-10.73-.08-2.03-.16-4.07-.23-6.1-.01-.39,0-.77,0-1.4,1.81,1.44,3.02,2.94,3.5,5.04,1.45,6.41,2.96,12.81,4.42,19.23,.78,3.45,1.51,6.91,2.26,10.36,.06,.26,.06,.54,.07,.62-5.66,.76-11.24,1.51-17.08,2.29,.53-2.59,.93-5.3,1.65-7.91Zm-12.34,101.71c.11-7.75-.05-15.51,.39-23.23,.47-8.32,1.14-16.66,2.37-24.89,2.11-14.12,4.74-28.17,7.11-42.25,.2-1.18,.68-1.78,1.9-2.06,5.35-1.21,10.76-1.87,16.24-2.08,3.11-.12,6.09,.34,9.11,1.33-.12,.39-.19,.78-.34,1.14-1.92,4.52-3.86,9.02-5.77,13.54-2.03,4.78-4.03,9.56-6.06,14.34-.56,1.32-1.24,2.59-1.74,3.94-3.22,8.8-6.32,17.64-9.6,26.41-4.31,11.52-8.75,22.98-13.14,34.47-.08,.21-.18,.41-.48,.59,0-.41,0-.83,0-1.24Zm48.01,51.67c-4.64,1.15-9.25,2.43-13.93,3.4-5.1,1.06-10.29,1.29-15.49,.99-5.24-.31-10.37-1.27-15.35-2.92-.37-.12-.67-.92-.73-1.43-.31-2.29-.61-4.59-.74-6.9-.61-10.72-1.09-21.44-1.76-32.16-.29-4.54,.62-8.76,2.23-12.95,6.4-16.62,12.72-33.27,19.05-49.91,2.2-5.78,4.23-11.63,6.57-17.35,3.19-7.79,6.59-15.5,9.91-23.24,.05-.11,.13-.19,.3-.43,2.13,4.18,3.7,8.4,4.61,12.84,2.59,12.62,5.11,25.26,7.68,37.88,1.45,7.11,2.99,14.21,4.41,21.32,.86,4.3,1.61,8.63,2.35,12.95,.39,2.27,.25,4.48-.64,6.68-4.06,9.96-7.23,20.2-9.8,30.64-.61,2.5,.07,4.82,.41,7.2,.57,3.98,1.19,7.96,1.85,11.92,.14,.87-.15,1.28-.92,1.47Zm39.37-50.77c-5.56,11.77-10.93,23.63-16.42,35.43-3.25,6.99-6.68,13.89-9.9,20.89-2.17,4.71-4.1,9.53-6.14,14.3-.15,.35-.31,.69-.46,1.03-.1,0-.2-.01-.3-.02-.37-1.94-.81-3.87-1.11-5.82-1.25-8.28-2.43-16.57-3.69-24.85-.4-2.63-1.09-5.21-1.43-7.84-.14-1.1,.19-2.29,.45-3.41,2.27-9.77,5.13-19.36,8.93-28.65,.67-1.64,.95-3.5,1.86-4.98,.93-1.52,.42-2.75,.1-4.15-1.7-7.51-3.43-15.02-5.02-22.55-3.33-15.77-6.59-31.55-9.87-47.33-1.1-5.27-2.78-10.33-5.26-15.11-.14-.28-.33-.6-.29-.89,.13-1.06-.51-1.24-1.34-1.39-1.8-.33-3.58-.77-5.37-1.11-.85-.16-1.95,.05-2.53-.42-.48-.38-.33-1.52-.51-2.31-1.6-6.71-3.21-13.43-4.81-20.14-.12-.5-.21-1-.34-1.61,3.04-.52,5.98-1.01,8.92-1.52,5.99-1.04,12.01-1.75,18.09-1.76,3.26,0,6.53,.3,9.78,.58,.92,.08,1.84,.52,2.7,.94,1.47,.71,2.5,1.78,3.17,3.39,2.01,4.84,4.06,9.65,4.87,14.87,.82,5.32,1.61,10.65,2.34,15.99,1.24,9.05,2.32,18.13,3.66,27.16,1.37,9.23,2.74,18.47,4.52,27.63,1.78,9.2,4.03,18.31,6.14,27.45,.51,2.2,.28,4.1-.71,6.2Z"/>
    <path d="M53.24,14.7c-.44,.33-.95,.74-1.46,.79-6.39,.68-12.78,1.25-19.17,1.96-5.45,.6-10.78,1.77-15.95,3.65-5.58,2.03-9.71,5.67-11.91,11.23-1.23,3.1-2.37,6.27-3.13,9.51-2.16,9.19-2.05,18.47-.36,27.71,1.57,8.59,3.36,17.15,5.12,25.7,2.86,13.87,5.79,27.73,8.65,41.6,1.75,8.48,3.47,16.96,5.11,25.46,.33,1.69,.48,3.48,.31,5.19-.23,2.25-.89,4.45-1.29,6.69-.48,2.67-.88,5.35-1.3,8.02-.11,.68,.15,1.15,.83,1.39,5.34,1.88,10.68,3.76,16,5.67,.61,.22,1.14,.74,1.76,.88,1.7,.37,3.43,.62,5.15,.88,.52,.08,1.06,.06,1.86,.1-.48-.53-.69-.95-1.02-1.09-1.2-.52-1.03-1.47-.88-2.43,.02-.16,.05-.32,.08-.47,1.25-6.96,2.44-13.92,3.76-20.86,1.6-8.43,3.32-16.84,4.95-25.27,1.2-6.23,2.72-12.42,2.78-18.81,.07-8.19,.06-16.37,.17-24.56,.08-5.99,.24-11.98,.47-17.96,.12-2.95,.55-5.88,.73-8.83,.33-5.65,.55-11.31,.88-16.96,.35-6.01,.73-12.02,1.15-18.03,.33-4.7,.79-9.38,1.09-14.08,.08-1.3,.71-2.04,1.71-2.67,1.38-.87,2.79-1.72,4.11-2.69,.51-.37,1.12-1.02,1.14-1.56,.1-2.63-.02-5.25-1.07-7.78-3.48,2.6-6.86,5.13-10.25,7.64ZM13.86,124.48c-3.41-16.32-6.83-32.64-10.18-48.97-1.42-6.93-2.58-13.92-2.24-21.02,.2-4.13,.93-8.23,1.43-12.35,.02-.19,.14-.36,.27-.7,1.49,1.34,2.6,2.77,3.01,4.69,3.58,16.4,9.54,31.96,17.18,46.85,3.29,6.41,7.32,12.45,11.07,18.62,.56,.92,.74,1.69,.44,2.77-4.34,15.65-8.62,31.31-12.92,46.97-.07,.26-.18,.51-.21,.61-2.61-12.42-5.24-24.94-7.86-37.47Zm36.59,9.33c-1.82,9.32-3.72,18.63-5.52,27.96-1.51,7.88-2.91,15.78-4.36,23.67-.04,.24-.08,.47-.11,.71-.3,2.21-1.05,2.89-3.23,2.34-6.01-1.5-11.88-3.44-17.53-6.02-.72-.33-.59-.81-.49-1.38,1.73-10.08,3.99-20.03,6.75-29.87,3.45-12.3,6.85-24.6,10.27-36.91,.1-.35,.19-.7,.34-1.02,.3-.65,.4-1.2-.4-1.59-.26-.12-.42-.47-.6-.73-12.72-18.87-21.61-39.43-27.28-61.43-.53-2.04-1.22-4.06-2.07-5.98-.51-1.16-1.5-2.1-2.22-3.17-.23-.34-.47-.89-.35-1.2,1.26-3.14,2.39-6.36,3.96-9.34,2.08-3.94,5.76-6.06,9.82-7.61,4.78-1.82,9.82-2.45,14.83-3.09,5.58-.71,11.19-1.13,16.78-1.72,1.09-.11,2.16-.4,3.35-.63-.1,.32-.15,.58-.25,.82-2.46,6.02-5.1,11.98-7.31,18.09-.8,2.2-1.94,2.78-3.96,2.7-3.06-.12-5.89,.83-8.59,2.15-.37,.18-.72,1.01-.63,1.45,1.11,5.55,2.39,11.07,3.46,16.64,1.59,8.27,3.08,16.56,4.56,24.86,2.05,11.51,3.71,23.1,6.7,34.42,1.21,4.59,2.72,9.09,4.04,13.66,.2,.69,.18,1.51,.04,2.23Zm3.63-91.27c-.44,11.25-.97,22.5-1.35,33.75-.36,10.42-.62,20.84-.82,31.26-.1,5.03,.09,10.06,.03,15.09-.02,1.78-.38,3.55-.58,5.33-.12,.01-.25,.03-.37,.04-.48-1.47-.93-2.94-1.43-4.4-2.11-6.08-3.65-12.32-4.78-18.64-1.89-10.57-3.7-21.15-5.57-31.72-1.5-8.45-3.02-16.89-4.56-25.33-.29-1.61-.7-3.2-1.07-4.79-.25-1.04-.03-1.83,1.11-2.11,1.81-.44,3.61-1.12,5.44-1.21,3.85-.18,7.72-.14,11.58,.01,2.45,.1,2.49,.27,2.39,2.71Zm8.32-27.08c-1.6,1.12-3.29,2.11-4.97,3.11-.98,.59-1.36,1.41-1.44,2.56-.41,5.85-.9,11.69-1.35,17.42-2.95-.19-5.9-.38-9.13-.59,.94-2.33,1.87-4.63,2.8-6.92,1.96-4.85,3.9-9.7,5.92-14.52,.3-.72,.89-1.41,1.51-1.91,1.99-1.6,4.06-3.11,6.09-4.65,.3-.23,.61-.45,1.05-.77,.18,1.66,.44,3.15,.45,4.64,0,.55-.46,1.29-.93,1.62Z"/>
  </g>
</svg>