<svg id="블레이저_이미지" data-name="블레이저 이미지" xmlns="http://www.w3.org/2000/svg" viewBox="0 0 595.2 595.2"><defs><style>.cls-1{fill:#fff;}</style></defs><g id="색"><path class="cls-1" d="M518.17,529.6c-.37-1.94-.81-3.87-1.1-5.82-1.25-8.28-2.43-16.57-3.7-24.85-.4-2.63-1.09-5.21-1.43-7.84a10.08,10.08,0,0,1,.45-3.41A186.4,186.4,0,0,1,521.32,459c.68-1.65.95-3.51,1.87-5s.42-2.74.1-4.15c-1.7-7.51-3.43-15-5-22.55-3.34-15.77-6.59-31.55-9.88-47.33a58.65,58.65,0,0,0-5.25-15.11,1.69,1.69,0,0,1-.3-.88c.13-1.07-.5-1.24-1.34-1.4-1.8-.33-3.57-.76-5.37-1.11-.86-.17-1.95.05-2.53-.42s-.32-1.51-.51-2.3q-2.4-10.08-4.81-20.14c-.12-.5-.22-1-.34-1.61,3-.51,6-1,8.91-1.51a107.85,107.85,0,0,1,18.09-1.77c3.26,0,6.53.3,9.78.58a8.2,8.2,0,0,1,2.7.94,6.21,6.21,0,0,1,3.17,3.39c2,4.83,4.06,9.64,4.86,14.87s1.62,10.65,2.35,16c1.24,9.05,2.32,18.13,3.66,27.17,1.36,9.23,2.74,18.47,4.51,27.63s4,18.31,6.14,27.45a8.93,8.93,0,0,1-.71,6.2c-5.56,11.77-10.93,23.63-16.42,35.43-3.25,7-6.68,13.88-9.9,20.88-2.16,4.72-4.1,9.54-6.14,14.31-.15.34-.31.68-.47,1Z"/><path class="cls-1" d="M502.08,365.83a50.69,50.69,0,0,1,4.61,12.84c2.59,12.62,5.11,25.26,7.68,37.88,1.45,7.11,3,14.21,4.41,21.33.86,4.3,1.61,8.62,2.35,12.94a12,12,0,0,1-.64,6.69,220.22,220.22,0,0,0-9.8,30.64c-.61,2.5.07,4.82.41,7.2q.86,6,1.85,11.92c.15.87-.14,1.28-.92,1.47-4.64,1.14-9.25,2.42-13.93,3.4a58.72,58.72,0,0,1-15.49,1,59.45,59.45,0,0,1-15.35-2.92c-.37-.12-.67-.91-.74-1.43-.3-2.29-.61-4.59-.74-6.9-.61-10.72-1.09-21.44-1.76-32.16a30.06,30.06,0,0,1,2.23-12.95c6.4-16.62,12.71-33.26,19.05-49.91,2.2-5.78,4.23-11.62,6.57-17.35,3.18-7.79,6.59-15.49,9.91-23.23A3.08,3.08,0,0,1,502.08,365.83Z"/><path class="cls-1" d="M501.15,363.88a10.06,10.06,0,0,1-.34,1.14c-1.92,4.51-3.86,9-5.77,13.54-2,4.77-4,9.56-6.06,14.33-.56,1.32-1.24,2.6-1.74,3.94-3.21,8.8-6.32,17.64-9.6,26.41-4.31,11.52-8.75,23-13.14,34.47a1,1,0,0,1-.48.59v-1.23c.11-7.75,0-15.51.4-23.24.47-8.32,1.14-16.66,2.37-24.89,2.11-14.12,4.74-28.17,7.11-42.25a2.17,2.17,0,0,1,1.9-2.06,88.91,88.91,0,0,1,16.25-2.08A25.58,25.58,0,0,1,501.15,363.88Z"/><path class="cls-1" d="M491.8,361l-17.08,2.29c.52-2.59.92-5.29,1.65-7.91A93.14,93.14,0,0,1,480,344a24.85,24.85,0,0,0,1.79-10.74q-.12-3-.23-6.1c0-.38,0-.77,0-1.4a8.8,8.8,0,0,1,3.5,5c1.45,6.41,3,12.81,4.42,19.23.79,3.44,1.51,6.9,2.26,10.36A4.06,4.06,0,0,1,491.8,361Z"/><path class="cls-1" d="M437.9,340.39c-.1.32-.15.58-.25.82-2.46,6-5.1,12-7.31,18.09-.79,2.2-1.93,2.78-4,2.7a17.81,17.81,0,0,0-8.58,2.14,1.7,1.7,0,0,0-.64,1.45c1.12,5.56,2.4,11.08,3.47,16.64,1.59,8.27,3.07,16.56,4.55,24.85,2.06,11.51,3.72,23.1,6.7,34.43,1.21,4.59,2.72,9.09,4,13.66a5.08,5.08,0,0,1,0,2.23c-1.82,9.32-3.72,18.63-5.52,28-1.51,7.87-2.91,15.77-4.36,23.67,0,.23-.08.47-.11.71-.3,2.21-1.05,2.88-3.23,2.34a101.65,101.65,0,0,1-17.53-6c-.72-.33-.59-.81-.49-1.38a291.21,291.21,0,0,1,6.75-29.88q5.16-18.44,10.27-36.9a6.78,6.78,0,0,1,.34-1c.3-.65.4-1.2-.41-1.59-.25-.12-.42-.47-.59-.73a196.45,196.45,0,0,1-27.28-61.43,39.13,39.13,0,0,0-2.07-6,23.94,23.94,0,0,0-2.22-3.18,1.63,1.63,0,0,1-.35-1.2,98.68,98.68,0,0,1,4-9.34c2.08-3.94,5.77-6.06,9.82-7.61,4.78-1.82,9.82-2.45,14.83-3.08,5.58-.71,11.19-1.14,16.78-1.72C435.64,340.9,436.72,340.61,437.9,340.39Z"/><path class="cls-1" d="M407.23,485.54c-2.61-12.42-5.25-25-7.86-37.47q-5.12-24.48-10.18-49c-1.42-6.93-2.58-13.92-2.24-21,.2-4.13.93-8.23,1.43-12.35a4.61,4.61,0,0,1,.27-.69,8.78,8.78,0,0,1,3,4.68,191.91,191.91,0,0,0,17.17,46.86c3.29,6.41,7.33,12.44,11.08,18.62a3.15,3.15,0,0,1,.44,2.76q-6.5,23.48-12.92,47C407.37,485.19,407.26,485.44,407.23,485.54Z"/><path class="cls-1" d="M436.5,451.59c-.48-1.47-.93-2.94-1.44-4.4a122.23,122.23,0,0,1-4.78-18.64c-1.89-10.57-3.7-21.15-5.57-31.72q-2.23-12.68-4.56-25.33c-.3-1.61-.7-3.19-1.08-4.79-.24-1,0-1.82,1.11-2.1a30,30,0,0,1,5.44-1.21c3.85-.17,7.72-.14,11.58,0,2.45.1,2.48.27,2.39,2.7-.44,11.25-1,22.5-1.36,33.76q-.53,15.62-.82,31.26c-.09,5,.09,10.06,0,15.08a50.79,50.79,0,0,1-.59,5.33Z"/><path class="cls-1" d="M448.39,332.79c.18,1.66.44,3.15.45,4.64a2.31,2.31,0,0,1-.93,1.62c-1.6,1.11-3.29,2.1-5,3.11a2.89,2.89,0,0,0-1.44,2.56c-.41,5.85-.9,11.69-1.35,17.42l-9.14-.59c.95-2.33,1.87-4.63,2.8-6.92,2-4.84,3.9-9.7,5.92-14.52a5.17,5.17,0,0,1,1.51-1.91c2-1.6,4.06-3.1,6.1-4.64Z"/></g><g id="선"><path d="M553.84,453.43c-.67-3.24-1.51-6.44-2.22-9.68-1.84-8.38-3.83-16.73-5.41-25.15-1.43-7.68-2.48-15.44-3.58-23.18-1.27-8.93-2.37-17.88-3.6-26.81-.73-5.29-1.53-10.58-2.36-15.86-.91-5.87-3.46-11.18-5.71-16.6a1.24,1.24,0,0,0-.51-.63,41,41,0,0,0-6-2.57,24,24,0,0,0-5.7-.55,116.48,116.48,0,0,0-23.34,2c-2.57.45-5.15.86-7.86,1.31-.77-4.92-1.72-9.63-7-12.14a32.35,32.35,0,0,0-.33,3.37c0,2.39.26,4.79.25,7.18,0,1.9.16,3.94-.46,5.66a195.37,195.37,0,0,0-7.29,26.39,485.11,485.11,0,0,0-8.19,50q-1.27,12.39-1.84,24.84c-.29,6.65-.06,13.33-.09,20,0,2.23-.19,4.46-.1,6.68q.6,14.61,1.33,29.2c.17,3.47.32,6.95.81,10.38.3,2.15,1.05,4.13,3.75,4.82a73.65,73.65,0,0,0,15.93,2.51c9.23.3,18.15-1.62,27-4a15.4,15.4,0,0,0,2-.83l4,23.18c1.52-.2,1.48-.21,2-1.5,1.9-4.66,3.7-9.37,5.79-13.94,3.74-8.19,7.71-16.28,11.51-24.46,2.25-4.85,4.28-9.8,6.54-14.65Q548,468,553.06,457.64A6.44,6.44,0,0,0,553.84,453.43Zm-77.47-98.07A93.14,93.14,0,0,1,480,344a24.85,24.85,0,0,0,1.79-10.74q-.12-3-.23-6.1c0-.38,0-.77,0-1.4a8.8,8.8,0,0,1,3.5,5c1.45,6.41,3,12.81,4.42,19.23.79,3.44,1.51,6.9,2.26,10.36a4.06,4.06,0,0,1,.07.62l-17.08,2.29C475.24,360.68,475.64,358,476.37,355.36ZM464,457.07c.11-7.75,0-15.51.4-23.24.47-8.32,1.14-16.66,2.37-24.89,2.11-14.12,4.74-28.17,7.11-42.25a2.17,2.17,0,0,1,1.9-2.06,88.91,88.91,0,0,1,16.25-2.08,25.58,25.58,0,0,1,9.1,1.33,10.06,10.06,0,0,1-.34,1.14c-1.92,4.51-3.86,9-5.77,13.54-2,4.77-4,9.56-6.06,14.33-.56,1.32-1.24,2.6-1.74,3.94-3.21,8.8-6.32,17.64-9.6,26.41-4.31,11.52-8.75,23-13.14,34.47a1,1,0,0,1-.48.59Zm48,51.67c-4.64,1.14-9.25,2.42-13.93,3.4a58.72,58.72,0,0,1-15.49,1,59.45,59.45,0,0,1-15.35-2.92c-.37-.12-.67-.91-.74-1.43-.3-2.29-.61-4.59-.74-6.9-.61-10.72-1.09-21.44-1.76-32.16a30.06,30.06,0,0,1,2.23-12.95c6.4-16.62,12.71-33.26,19.05-49.91,2.2-5.78,4.23-11.62,6.57-17.35,3.18-7.79,6.59-15.49,9.91-23.23a3.08,3.08,0,0,1,.3-.44,50.69,50.69,0,0,1,4.61,12.84c2.59,12.62,5.11,25.26,7.68,37.88,1.45,7.11,3,14.21,4.41,21.33.86,4.3,1.61,8.62,2.35,12.94a12,12,0,0,1-.64,6.69,220.22,220.22,0,0,0-9.8,30.64c-.61,2.5.07,4.82.41,7.2q.86,6,1.85,11.92C513.1,508.14,512.81,508.55,512,508.74ZM551.4,458c-5.56,11.77-10.93,23.63-16.42,35.43-3.25,7-6.68,13.88-9.9,20.88-2.16,4.72-4.1,9.54-6.14,14.31-.15.34-.31.68-.47,1l-.3,0c-.37-1.94-.81-3.87-1.1-5.82-1.25-8.28-2.43-16.57-3.7-24.85-.4-2.63-1.09-5.21-1.43-7.84a10.08,10.08,0,0,1,.45-3.41A186.4,186.4,0,0,1,521.32,459c.68-1.65.95-3.51,1.87-5s.42-2.74.1-4.15c-1.7-7.51-3.43-15-5-22.55-3.34-15.77-6.59-31.55-9.88-47.33a58.65,58.65,0,0,0-5.25-15.11,1.69,1.69,0,0,1-.3-.88c.13-1.07-.5-1.24-1.34-1.4-1.8-.33-3.57-.76-5.37-1.11-.86-.17-1.95.05-2.53-.42s-.32-1.51-.51-2.3q-2.4-10.08-4.81-20.14c-.12-.5-.22-1-.34-1.61,3-.51,6-1,8.91-1.51a107.85,107.85,0,0,1,18.09-1.77c3.26,0,6.53.3,9.78.58a8.2,8.2,0,0,1,2.7.94,6.21,6.21,0,0,1,3.17,3.39c2,4.83,4.06,9.64,4.86,14.87s1.62,10.65,2.35,16c1.24,9.05,2.32,18.13,3.66,27.17,1.36,9.23,2.74,18.47,4.51,27.63s4,18.31,6.14,27.45A8.93,8.93,0,0,1,551.4,458Z"/><path d="M438.75,338.28a3.33,3.33,0,0,1-1.46.79c-6.39.68-12.78,1.25-19.17,2a68.77,68.77,0,0,0-15.94,3.64,19.14,19.14,0,0,0-11.91,11.23,68.25,68.25,0,0,0-3.13,9.51,67,67,0,0,0-.36,27.7c1.57,8.6,3.36,17.15,5.12,25.71,2.86,13.87,5.79,27.73,8.65,41.6q2.63,12.7,5.12,25.45a18.49,18.49,0,0,1,.3,5.19c-.23,2.25-.89,4.46-1.29,6.69-.48,2.67-.88,5.35-1.31,8a1.15,1.15,0,0,0,.83,1.39q8,2.82,16,5.67a17,17,0,0,0,1.76.88c1.7.36,3.43.61,5.15.88.53.08,1.06.06,1.86.1-.48-.53-.69-1-1-1.09-1.21-.52-1-1.46-.89-2.43,0-.16.05-.32.08-.47,1.25-7,2.45-13.92,3.76-20.87,1.6-8.43,3.32-16.84,4.95-25.26,1.2-6.23,2.72-12.42,2.78-18.82.06-8.18.05-16.37.16-24.55q.12-9,.47-18c.12-2.95.55-5.89.73-8.83.33-5.66.55-11.32.88-17q.51-9,1.14-18c.33-4.7.79-9.38,1.09-14.08a3.16,3.16,0,0,1,1.71-2.67c1.38-.87,2.79-1.72,4.1-2.69a2.58,2.58,0,0,0,1.15-1.56,18.23,18.23,0,0,0-1.08-7.78C445.53,333.24,442.15,335.77,438.75,338.28ZM399.37,448.07q-5.12-24.48-10.18-49c-1.42-6.93-2.58-13.92-2.24-21,.2-4.13.93-8.23,1.43-12.35a4.61,4.61,0,0,1,.27-.69,8.78,8.78,0,0,1,3,4.68,191.91,191.91,0,0,0,17.17,46.86c3.29,6.41,7.33,12.44,11.08,18.62a3.15,3.15,0,0,1,.44,2.76q-6.5,23.48-12.92,47c-.07.26-.18.51-.21.61C404.62,473.12,402,460.59,399.37,448.07ZM436,457.4c-1.82,9.32-3.72,18.63-5.52,28-1.51,7.87-2.91,15.77-4.36,23.67,0,.23-.08.47-.11.71-.3,2.21-1.05,2.88-3.23,2.34a101.65,101.65,0,0,1-17.53-6c-.72-.33-.59-.81-.49-1.38a291.21,291.21,0,0,1,6.75-29.88q5.16-18.44,10.27-36.9a6.78,6.78,0,0,1,.34-1c.3-.65.4-1.2-.41-1.59-.25-.12-.42-.47-.59-.73a196.45,196.45,0,0,1-27.28-61.43,39.13,39.13,0,0,0-2.07-6,23.94,23.94,0,0,0-2.22-3.18,1.63,1.63,0,0,1-.35-1.2,98.68,98.68,0,0,1,4-9.34c2.08-3.94,5.77-6.06,9.82-7.61,4.78-1.82,9.82-2.45,14.83-3.08,5.58-.71,11.19-1.14,16.78-1.72,1.09-.12,2.17-.41,3.35-.63-.1.32-.15.58-.25.82-2.46,6-5.1,12-7.31,18.09-.79,2.2-1.93,2.78-4,2.7a17.81,17.81,0,0,0-8.58,2.14,1.7,1.7,0,0,0-.64,1.45c1.12,5.56,2.4,11.08,3.47,16.64,1.59,8.27,3.07,16.56,4.55,24.85,2.06,11.51,3.72,23.1,6.7,34.43,1.21,4.59,2.72,9.09,4,13.66A5.08,5.08,0,0,1,436,457.4Zm3.63-91.28c-.44,11.25-1,22.5-1.36,33.76q-.53,15.62-.82,31.26c-.09,5,.09,10.06,0,15.08a50.79,50.79,0,0,1-.59,5.33l-.36,0c-.48-1.47-.93-2.94-1.44-4.4a122.23,122.23,0,0,1-4.78-18.64c-1.89-10.57-3.7-21.15-5.57-31.72q-2.23-12.68-4.56-25.33c-.3-1.61-.7-3.19-1.08-4.79-.24-1,0-1.82,1.11-2.1a30,30,0,0,1,5.44-1.21c3.85-.17,7.72-.14,11.58,0C439.65,363.52,439.68,363.69,439.59,366.12Zm8.32-27.07c-1.6,1.11-3.29,2.1-5,3.11a2.89,2.89,0,0,0-1.44,2.56c-.41,5.85-.9,11.69-1.35,17.42l-9.14-.59c.95-2.33,1.87-4.63,2.8-6.92,2-4.84,3.9-9.7,5.92-14.52a5.17,5.17,0,0,1,1.51-1.91c2-1.6,4.06-3.1,6.1-4.64l1.05-.77c.18,1.66.44,3.15.45,4.64A2.31,2.31,0,0,1,447.91,339.05Z"/></g></svg>