<?xml version="1.0" encoding="UTF-8"?>
<svg id="_블라우스" data-name="블라우스" xmlns="http://www.w3.org/2000/svg" viewBox="0 0 595.2 595.2">
  <path id="_선" data-name="선" d="M489.19,348.17c5.32,.81,10.39,1.48,15.41,2.38,5.51,.99,10.95,2.28,15.99,4.86,3.25,1.66,6.18,3.73,8.19,6.82,.71,1.1,1.25,2.44,1.44,3.74,.9,6.17,1.82,12.34,2.41,18.54,.43,4.53,.39,9.1,.51,13.65,.21,7.7-.92,15.3-1.66,22.93-.78,7.95-1.36,15.92-1.92,23.89-.06,.86,.4,1.86,.85,2.65,1.2,2.08,2.47,4.11,3.82,6.1,1.51,2.23,1.72,4.56,.97,7.09-1.58,5.32-3.91,10.32-6.56,15.15-2.89,5.25-6.02,10.36-9.07,15.52-2.93,4.95-5.96,9.84-8.82,14.83-.79,1.37-1.69,2.12-3.26,2.36-3.43,.52-6.79,.66-10.11-.59-1.04-.39-1.54-.99-1.7-2.04-.59-3.87-1.27-7.72-1.8-11.6-.62-4.59-1.12-9.2-1.68-13.8-.08-.68-.24-1.35-.42-2.33-.89,.87-1.53,1.55-2.24,2.17-1.63,1.41-3.22,2.88-4.94,4.16-2.51,1.87-5.27,2.19-8.13,.77-4.01-1.99-8.05-3.91-11.98-6.04-1.35-.73-2.4-.74-3.79-.23-9.75,3.6-19.74,6.4-29.96,8.34-1.01,.19-2.07,.23-3.1,.21-2.91-.05-4.37-1.23-5.09-4.09-.19-.77-.35-1.54-.56-2.49-5.81,1.76-11.71,1.74-17.58,1.95-.32,.01-.64,.02-.96,.06-2.7,.32-4.64-.46-6.06-3.06-1.9-3.49-4.3-6.72-6.36-10.13-.82-1.36-1.39-2.88-1.96-4.36-1.12-2.91-1.24-5.88-.57-8.95,1.32-6.09,2.58-12.19,3.74-18.31,.31-1.62,.34-3.34,.18-4.98-1.19-11.86-1.97-23.74-1.95-35.65,.01-7.43,.28-14.88,1.77-22.19,.73-3.58,1.93-7.07,3.09-10.55,.65-1.95,2.09-3.28,4.07-4.13,6.7-2.89,13.62-5.08,20.69-6.8,4.5-1.09,9.04-2.03,13.58-2.92,1.92-.37,3.38-1.06,4.34-2.9,1.18-2.27,2.6-4.4,3.92-6.59,.33-.55,.68-1.08,1.03-1.61,1.32-2,2.81-1.73,3.5,.44,1.24,3.88,2.8,7.65,4.32,11.43,.68,1.7,1.52,3.35,2.44,4.93,.95,1.62,1.5,1.71,3.39,1.21,10.58-2.79,19.21-8.61,25.87-17.2,2.22-2.87,3.82-1.75,4.63,.8,.7,2.2,1.41,4.4,2.11,6.59Zm23.79,45.89c.21,.06,.42,.11,.64,.17,.05,.35,.21,.73,.12,1.04-.25,.84-.56,1.67-.91,2.47-2.73,6.13-5.41,12.28-8.22,18.38-2.08,4.51-2.53,9.37-3.28,14.17-.1,.63-.06,1.28-.04,1.92,.39,9.66,.71,19.32,1.26,28.97,.14,2.44-.49,4.33-1.99,6.12-2.05,2.44-3.98,4.98-6.04,7.42-.89,1.06-1.19,2.12-1.01,3.51,.98,7.52,1.87,15.06,2.82,22.59,.2,1.56,.54,3.09,.84,4.75,3.02,.29,5.81,.47,8.57,.86,1.78,.25,2.78-.33,3.65-1.89,2.3-4.11,4.76-8.14,7.18-12.18,2.71-4.53,5.53-8.98,8.13-13.57,3.15-5.57,5.96-11.3,7.97-17.4,.92-2.8,.61-5.19-1.12-7.67-4.26-6.11-7.66-12.72-10.92-19.41-.45-.93-.9-1.88-1.23-2.86-.11-.34,.14-.81,.36-1.84,.89,1.15,1.52,1.8,1.96,2.57,1.58,2.78,3.07,5.6,4.63,8.4,.23,.42,.58,.76,1.16,1.51,.14-1.83,.22-3.18,.34-4.52,.43-4.93,.79-9.88,1.34-14.8,.97-8.65,2.21-17.28,1.96-26.02-.1-3.51-.11-7.04-.43-10.54-.58-6.28-1.35-12.55-2.06-18.82-.44-3.89-2.67-6.57-5.86-8.6-3.2-2.03-6.64-3.58-10.33-4.36-6.01-1.28-12.07-2.3-18.12-3.39-1.39-.25-2.81-.34-4.6-.56,.52,2.1,.84,3.88,1.42,5.58,.47,1.39,.24,2.48-.66,3.54-2.01,2.38-3.79,4.98-6.03,7.12-4.56,4.36-9.35,8.48-14.07,12.67-.83,.74-1.74,1.42-2.7,1.99-1.15,.69-1.77,.39-2.07-.91-.38-1.63-.69-3.28-1.05-4.91-1.27-5.62-3.22-11.01-5.46-16.23-2.28,.05-2.34,.04-2.86,2.14-2.51,10.08-4.91,20.18-7.51,30.23-1.52,5.88-1.7,11.82-1.55,17.83,.19,7.75,.31,15.5,.29,23.25-.05,15.11-.22,30.21-.32,45.32,0,1,.08,2,.13,3.14,.93-.2,1.55-.3,2.16-.46,6.91-1.78,13.47-4.51,19.98-7.36,.51-.22,1.02-.45,1.54-.67,.61-.26,1.29-.53,1.67,.23,.46,.9-.28,1.29-.93,1.63-.49,.26-1.01,.47-1.53,.69-1.58,.68-3.16,1.35-5.18,2.22,4.06,1.98,7.76,3.67,11.34,5.57,3.04,1.61,5.61,1.08,8.16-1.01,3.11-2.55,5.81-5.47,8.27-8.64,1.76-2.27,3.53-4.54,5.43-6.68,1.56-1.77,2.65-3.57,1.97-6.04-.17-.6-.11-1.27-.13-1.91-.34-12.54-.76-25.08-.97-37.62-.15-8.87,0-17.74,.03-26.61,0-.73,.18-1.46,.28-2.18,.19-.03,.37-.06,.56-.09,.26,.42,.68,.82,.75,1.27,.19,1.18,.31,2.38,.33,3.57,.11,6.23,.17,12.46,.26,18.69,0,.64,.12,1.29,.18,1.93,2.14-4.01,3.89-8.01,5.77-11.96,1.87-3.92,3.34-8.06,5.72-11.72Zm-93.55,41.63c.3,.01,.6,.03,.9,.04,.13,1.14,.33,2.28,.38,3.42,.26,5.99,.26,12,.78,17.96,.73,8.43,1.77,16.83,2.79,25.23,.34,2.84,1.25,3.59,3.91,3.41,5.92-.41,11.53-2.23,17.22-3.91,0-.75,0-1.31,0-1.86,.18-16.38,.38-32.76,.52-49.14,.04-4.15-.03-8.31-.16-12.46-.16-4.95-.53-9.89-.61-14.83-.04-2.38,.17-4.81,.65-7.14,1.83-8.92,3.62-17.85,6.33-26.56,.85-2.74,1.56-5.54,2.3-8.31,.14-.51,.16-1.04,.22-1.5-2.73-1.47-4.2,.13-4.99,2.11-.24,.59-.43,1.2-.65,1.8-1.82,4.95-3.64,9.89-5.47,14.84-.27,.73-.43,1.59-1.82,1.45-2.94-8.92-4.45-18.29-6.87-27.47-.6,.07-1,.08-1.38,.15-8.88,1.67-17.66,3.73-26.2,6.71-2.18,.76-4.21,1.92-6.37,2.74-3.17,1.2-4.56,3.63-5.48,6.73-2.16,7.27-2.97,14.74-3.13,22.25-.16,7.66,.06,15.34,.3,23,.15,4.7,.64,9.38,.97,14.07,.17,.02,.35,.04,.52,.06,.39-1.84,.78-3.67,1.17-5.51,.39-1.88,.77-3.76,1.16-5.63,.39-1.88,.74-3.76,1.16-5.63,.41-1.87,.88-3.73,1.33-5.6,.46-1.94,.92-3.89,1.4-5.82,.47-1.86,.97-3.71,1.45-5.57,.48-1.86,.96-3.71,1.42-5.57s.85-3.74,1.36-5.59c.49-1.76,.35-3.75,1.54-5.35,1.18,.68,.85,1.55,.72,2.28-.45,2.52-.93,5.03-1.48,7.52-2.68,12.01-5.49,23.98-8.06,36.01-2.42,11.32-4.59,22.7-6.84,34.06-.2,1.01-.35,2.11-.13,3.09,.42,1.93,.99,3.86,1.73,5.7,2.14,5.31,5.85,9.67,9.02,14.42,6.85-.23,13.7-.32,20.6-2.13-.11-.92-.23-1.85-.32-2.79-.62-6.36-1.43-12.71-1.8-19.08-.38-6.38-.34-12.78-.45-19.17-.01-.81,.22-1.62,.34-2.43Zm47.9-56.18c.8-.59,1.35-.92,1.81-1.34,4.95-4.52,9.95-8.99,14.79-13.63,1.83-1.75,3.26-3.92,4.87-5.9,.52-.64,.75-1.28,.5-2.19-1.1-4-2.08-8.03-3.14-12.04-.29-1.11-.73-2.18-1.19-3.53-3.66,3.97-6.9,7.82-11.04,10.73-4.1,2.88-8.51,5.19-13.4,6.81,3.1,6.87,5.49,13.6,6.8,21.1Zm-25.16-3.94c.14,.06,.28,.11,.42,.17,.1-.22,.2-.44,.29-.66,1.39-3.65,2.78-7.3,4.17-10.94,.48-1.26,.82-2.63,1.55-3.74,.75-1.14,1.9-2.01,2.67-2.79-2.22-5.82-4.4-11.54-6.66-17.46-2.5,4.2-4.77,8.12-7.15,11.97-.65,1.05-.71,1.97-.41,3.13,1.43,5.56,2.77,11.13,4.16,16.7,.3,1.21,.65,2.41,.97,3.61Z"/>
</svg>