<?xml version="1.0" encoding="UTF-8"?>
<svg id="_가디건_이미지" data-name="가디건 이미지" xmlns="http://www.w3.org/2000/svg" viewBox="0 0 162.65 200.03">
  <defs>
    <style>
      .cls-1 {
        fill: #fff;
      }
    </style>
  </defs>
  <g id="_색" data-name="색">
    <path class="cls-1" d="M148.12,20.51c-6.54-1.87-12.86-1.31-19.09,.51-5.53,1.61-10.47,4.29-14.44,8.58-.4,.43-.88,.8-1.33,1.19,.46,.41,1.03,.76,1.37,1.26,.92,1.35,1.85,2.71,2.59,4.15,3.34,6.47,5.33,13.42,7,20.46,3.09,12.96,6.18,25.93,9.11,38.93,1.5,6.65,2.63,13.39,3.91,20.08,.06,.33,.05,.73-.07,1.04-4.32,10.34-7.31,21.11-10.12,31.93-1.02,3.93-1.7,7.95-2.48,11.94-.2,1.02-.42,2.06,.39,3.06,.51,.63-.06,1.06-.75,1.22-4.28,.97-8.51,2.25-12.84,2.84-6.2,.85-12.47,1.19-18.71,1.76-.99,.09-1.53-.18-1.65-1.31-.48-4.48-1.14-8.94-1.56-13.43-.61-6.56-1.21-13.12-1.55-19.7-.5-9.76-1.24-19.53-.74-29.32,.32-6.22,.56-12.45,1.15-18.64,.65-6.83,1.66-13.62,2.51-20.43,1.13-9,2.77-17.91,5.06-26.69,2.55-9.76,5.05-19.56,9.35-28.76,1.1-2.35,2.19-4.7,3.36-7.01,.21-.41,.77-.86,1.22-.91,4.31-.52,8.62-1.15,12.95-1.38,4.5-.23,9.02-.18,13.52,0,1.79,.07,3.6,.67,5.3,1.3,3.01,1.11,4.33,3.69,4.91,6.62,.65,3.28,1.08,6.61,1.6,9.92,.03,.19,0,.38,0,.77Z"/>
    <path class="cls-1" d="M139.75,176.09c-2.09-1.44-4.07-2.93-6.17-4.22-2.07-1.27-4.26-2.33-6.45-3.51-.79-4.46-1.65-9.03-.3-13.67,.79-2.72,1.34-5.51,2.17-8.22,2.73-8.89,5.53-17.75,8.34-26.61,.3-.93,.89-1.77,1.29-2.67,.14-.31,.24-.7,.18-1.02-1.51-7.67-2.84-15.38-4.62-22.99-3.53-15.16-7.23-30.27-11.01-45.37-1.23-4.93-3.21-9.62-5.74-14.05-.72-1.25-1.63-2.39-2.55-3.72,.41-.44,.88-1.08,1.49-1.58,8.98-7.36,19.16-10.02,30.59-7.73,.93,.19,1.41,.53,1.48,1.61,.3,4.58,.69,9.15,1.11,13.72,.58,6.24,1.15,12.48,1.84,18.7,.65,5.87,1.26,11.75,2.2,17.57,1.24,7.64,2.84,15.21,4.18,22.83,1.18,6.72,2.35,13.44,3.27,20.2,.89,6.57-.51,12.91-3.01,18.96-2.69,6.49-5.7,12.85-8.51,19.28-3.09,7.06-6.11,14.15-9.16,21.22-.19,.43-.41,.85-.61,1.25Z"/>
    <path class="cls-1" d="M127.02,179.95c-10.79,3.76-21.93,3.57-33.16,3.61-.76-4.43-1.53-8.89-2.32-13.49,11.42-.52,22.66-1.47,33.78-4.97,.57,5.01,1.14,9.93,1.7,14.85Z"/>
    <path class="cls-1" d="M91.47,54.08c-3.01,.16-5.91,.32-8.97,.49,.42-2.32,.87-4.64,1.28-6.98,1.87-10.73,5.04-21.11,8.59-31.38,.27-.79,.63-1.13,1.49-1.2,2.74-.22,5.47-.56,8.56-.89-5.65,12.95-8,26.51-10.95,39.96Z"/>
    <path class="cls-1" d="M86,99.11c0,.44,.03,1.11,0,1.78-.42,9.06-.38,18.12,.25,27.17,.1,1.39,.2,2.79,.22,4.18,0,.31-.33,.87-.57,.91-3.07,.44-6.16,.81-9.36,1.22-.07-1.16-.19-2.27-.18-3.37,.04-7.9,.1-15.8,.16-23.7,.02-2.4,.04-4.79,.05-7.19,0-.57,.03-1.01,.81-1,2.83,.03,5.66,.01,8.64,.01Z"/>
    <path class="cls-1" d="M77.02,90.31c0-1.39-.16-2.72,.03-3.99,.82-5.4,1.71-10.79,2.63-16.17,.8-4.68,1.7-9.34,2.49-14.02,.13-.75,.42-.99,1.13-1.03,2.43-.11,4.86-.26,7.29-.39,.22-.01,.45,.09,.74,.14-.44,2.68-.94,5.3-1.3,7.94-.88,6.36-1.71,12.73-2.52,19.1-.29,2.26-.47,4.53-.76,6.78-.04,.3-.44,.77-.72,.8-2.97,.31-5.96,.56-9.01,.82Z"/>
    <path class="cls-1" d="M86.74,137c.68,8.6,1.35,16.98,2.03,25.6-3.68,.37-7.41,.74-11.27,1.13-.1-1.94-.22-3.72-.28-5.51-.19-6.31-.33-12.62-.57-18.92-.04-1.06,.26-1.37,1.28-1.45,2.9-.22,5.78-.55,8.81-.85Z"/>
    <path class="cls-1" d="M77.55,164.25c3.78-.38,7.5-.75,11.3-1.13,1.12,6.89,2.23,13.69,3.35,20.62-3.87,.66-7.86,.63-11.87,.35-.99-2.02-2.89-15.44-2.79-19.84Z"/>
    <path class="cls-1" d="M132.07,171.48c1.48,.97,2.89,1.83,4.23,2.82,.23,.17,.25,.87,.12,1.23-1.15,3.31-2.38,6.6-3.55,9.91-.88,2.51-1.71,5.05-2.75,7.61-.3-1.61-.68-3.21-.9-4.84-.28-2.09-.43-4.2-.62-6.3-.02-.23-.06-.49,.02-.7,1.12-3.19,2.25-6.37,3.45-9.73Z"/>
    <path class="cls-1" d="M86.64,89.97c-.2,2.89-.38,5.51-.57,8.28-3.13,.13-6.21,.27-9.36,.4,0-1.75-.02-3.33,0-4.91,.05-3.2-.59-2.75,2.94-3.14,2.25-.25,4.51-.4,6.98-.62Z"/>
    <path class="cls-1" d="M94.22,10.76c.45-1.55,.85-3.04,1.32-4.52,.08-.24,.41-.5,.66-.55,3.55-.66,7.11-1.29,10.8-1.94-.95,2.01-1.84,3.9-2.77,5.77-.1,.2-.43,.36-.67,.39-2.89,.33-5.79,.64-8.68,.94-.18,.02-.37-.05-.66-.09Z"/>
    <path class="cls-1" d="M137.2,175c.24,.14,.38,.2,.51,.29,1.85,1.33,1.83,1.33,.93,3.43-2.37,5.58-4.73,11.17-7.09,16.76-.09,.21-.2,.41-.3,.61-.12,0-.25-.02-.37-.03,0-.95-.24-1.97,.04-2.83,1.44-4.44,3-8.85,4.53-13.26,.56-1.62,1.14-3.23,1.76-4.98Z"/>
    <path class="cls-1" d="M103.81,10.57c-.36,.91-.68,1.8-1.07,2.66-.09,.21-.4,.42-.63,.44-2.97,.31-5.94,.59-9.14,.89,.34-1.03,.61-1.92,.93-2.78,.06-.17,.32-.36,.51-.38,2.97-.32,5.94-.62,8.92-.92,.11-.01,.23,.04,.48,.09Z"/>
    <path class="cls-1" d="M86.48,133.6c.1,1.02,.18,1.84,.28,2.85-3.39,.35-6.7,.68-10.02,1.02-.09-.26-.17-.41-.19-.56-.2-1.94-.2-1.96,1.71-2.23,2.68-.38,5.37-.71,8.22-1.09Z"/>
    <path class="cls-1" d="M127.16,169.01c1.67,.84,3.01,1.52,4.45,2.24-1,2.8-1.98,5.52-2.95,8.24-.11,0-.23-.01-.34-.02-.37-3.39-.74-6.78-1.15-10.46Z"/>
    <path class="cls-1" d="M18.43,168.14c.99-3.27,1.81-6.18,2.74-9.04,1.22-3.75,2.62-7.44,3.76-11.21,3.22-10.58,6.76-21.05,10.92-31.31,.66-1.62,.99-3.37,1.54-5.03,.31-.93,.12-1.64-.45-2.43-7.87-10.85-14.16-22.6-19.58-34.81-5.67-12.81-10.02-26.07-12.76-39.83-.12-.6-.21-1.02-1.01-1.01-1.15,0-1.58-.65-1.31-1.82,2.07-9.08,7.69-14.82,16.49-17.61,4.75-1.51,9.61-2.3,14.57-2.63,4.98-.33,9.96-.62,14.94-.91,.67-.04,1.34,0,2.17,0-.18,.55-.32,1.04-.49,1.52-3.73,10.59-7,21.31-9.06,32.37-1.97,10.56-2.71,21.2-2.12,31.94,.57,10.41,2.59,20.57,4.95,30.68,1.16,4.96,1.1,9.88-.26,14.8-3.32,11.99-6.62,23.99-9.94,35.99-1.01,3.65-2.05,7.29-3.13,10.91-.09,.31-.56,.77-.81,.74-3.6-.38-7.2-.83-11.17-1.31Zm11.46-10.29c.1,.03,.2,.07,.31,.1,.98-3.08,1.96-6.15,2.94-9.23-.1-.03-.2-.06-.3-.1-1.38,2.95-2.28,6.05-2.95,9.22Zm5.83-87.56c.13,0,.27,0,.4,0v-6.7c-.62,2.22-.52,4.46-.4,6.7Zm2.48,24.38c-.1,.04-.21,.08-.31,.12,.71,2.01,1.42,4.01,2.14,6.02,.14-.05,.29-.11,.43-.16-.74-2-1.15-4.11-2.26-5.97Z"/>
    <path class="cls-1" d="M2.34,33.38c.34,.56,.86,1.09,.99,1.7,5.4,25.67,15.56,49.33,29.98,71.21,.75,1.13,1.52,2.25,2.34,3.33,.54,.7,.7,1.36,.39,2.21-1.56,4.15-3.16,8.28-4.59,12.47-3.01,8.8-5.92,17.63-8.88,26.44-.17,.52-.36,1.02-.8,1.54-.61-2.46-1.29-4.91-1.82-7.39-3.37-15.59-6.74-31.19-10.06-46.8-1.69-7.92-3.5-15.82-4.85-23.8-1.3-7.7-2.24-15.48-3.04-23.25-.47-4.51-.4-9.08-.48-13.62-.02-1.29,.27-2.59,.42-3.88,.14-.05,.28-.1,.41-.15Z"/>
    <path class="cls-1" d="M34.59,159.16c.86-3.23,1.62-6.24,2.47-9.23,2.6-9.17,5.16-18.36,7.88-27.49,1.11-3.72,1.42-7.48,.93-11.25-.52-3.98-1.52-7.89-2.31-11.83-.08-.38-.13-.77-.22-1.35,1.82-.13,3.54-.25,5.26-.38,.01-.08,.03-.16,.04-.24-.25-.06-.51-.18-.76-.17-1.28,.05-2.55,.11-3.82,.22-.64,.05-.94-.16-1.07-.8-1.76-9.14-3.18-18.32-3.15-27.66,0-1.03,.26-1.47,1.36-1.55,2.54-.19,5.07-.53,7.79-.83-.15,2.29-.32,4.42-.42,6.56-.22,5.18-.76,10.38-.52,15.55,.26,5.52,1.24,11.01,1.93,16.51,.62,4.92,.89,9.81,.43,14.79-.66,7.2-2.34,14.14-4.13,21.1-1.4,5.44-2.56,10.95-3.77,16.43-.19,.85-.48,1.21-1.38,1.24-2.11,.07-4.21,.24-6.55,.39Z"/>
    <path class="cls-1" d="M55.64,23.92c-.1,.53-.13,.8-.21,1.05-2.34,8.31-3.86,16.77-4.78,25.35-.3,2.77-.5,5.56-.79,8.33-.03,.32-.3,.86-.51,.89-2.96,.37-5.92,.67-9.09,1.01,.11-1.65,.18-3.11,.32-4.56,1-10.24,3.34-20.2,6.26-30.04,.11-.36,.46-.88,.76-.93,2.62-.41,5.26-.74,8.04-1.11Z"/>
    <path class="cls-1" d="M27.05,184.63c-3.74-.34-7.6-.7-11.65-1.07,.63-5.02,1.87-10.01,3.08-14.95,3.86,.5,7.63,.99,11.45,1.48-.95,4.78-1.89,9.52-2.88,14.53Z"/>
    <path class="cls-1" d="M38.53,177.24c-2.91-.15-5.68-.3-8.62-.45,.29-1.34,.54-2.7,.9-4.03,.97-3.68,1.95-7.37,2.99-11.03,.72-2.52,.17-2.01,2.74-2.17,1.78-.11,3.57-.23,5.55-.36-1.21,6.11-2.39,12.1-3.56,18.04Z"/>
    <path class="cls-1" d="M61.51,7.66c-1.17,3.09-2.19,5.85-3.25,8.59-.1,.25-.41,.54-.65,.57-2.64,.33-5.28,.61-8.18,.93,.88-2.55,1.65-4.87,2.51-7.17,.1-.26,.63-.47,.98-.51,2.89-.36,5.74-.82,8.6-2.41Z"/>
    <path class="cls-1" d="M57.83,17.36c-.64,2-1.17,3.74-1.78,5.46-.1,.29-.5,.64-.8,.68-2.56,.32-5.13,.58-7.96,.88,.64-1.98,1.24-3.88,1.88-5.77,.06-.17,.35-.34,.54-.37,2.64-.3,5.28-.58,8.11-.89Z"/>
    <path class="cls-1" d="M37.4,185.4c-3-.21-5.87-.41-8.77-.61,.17-1.29,.27-2.36,.49-3.41,.07-.34,.46-.87,.71-.88,2.7-.06,5.4-.04,8.25-.04-.24,1.77-.45,3.28-.68,4.94Z"/>
    <path class="cls-1" d="M49.1,66.07c-3.04,.32-5.97,.63-9.02,.96,0-1.32-.02-2.57,.03-3.82,0-.17,.35-.44,.56-.47,2.88-.32,5.77-.6,8.82-.9-.14,1.51-.26,2.85-.38,4.24Z"/>
    <path class="cls-1" d="M38.29,177.75c.12,2.28,.09,2.26-1.69,2.22-2.34-.05-4.68-.01-7.11-.01-.01-.28-.05-.47-.03-.65,.19-1.84,.2-1.92,2.05-1.88,2.25,.04,4.5,.21,6.77,.32Z"/>
    <path class="cls-1" d="M49.77,60.46c-.27,.31-.51,.85-.81,.88-2.87,.33-5.76,.57-8.69,.84-.18-.68-.17-1.13,.64-1.21,2.84-.28,5.68-.56,8.52-.85,.11,.11,.22,.22,.34,.34Z"/>
  </g>
  <g id="_선" data-name="선">
    <path d="M162.39,114.9c-.73-6.05-1.83-12.07-2.91-18.07-1.25-6.91-2.84-13.76-3.96-20.68-1.1-6.77-1.88-13.59-2.64-20.41-.87-7.89-1.7-15.79-2.29-23.71-.54-7.13-1.36-14.21-2.42-21.28-.72-4.8-3.07-8.08-7.69-9.53-1.77-.55-3.66-.82-5.52-.93-6.66-.37-13.34-.54-19.95,.52-6.53,1.06-13.01,2.4-19.52,3.56-.82,.15-1.04,.59-1.23,1.22-.96,3.13-1.83,6.28-2.89,9.38-3.15,9.26-6.24,18.54-8.09,28.17-1.68,8.74-3.11,17.52-4.87,26.24-2.02,10.04-3.52,20.14-3.54,30.39-.02,12.86,.19,25.72,.41,38.57,.12,7.15,.45,14.29,.69,21.43,.25,7.46,.8,14.9,2.42,22.21,.13,.61,.07,1.26,.15,1.89,.03,.29,.17,.56,.27,.84,1.03-.38,1.6,.74,2.51,.76,1.99,.05,3.99,.21,5.98,.13,6.14-.23,12.28-.48,18.41-.87,4.17-.26,8.35-.62,12.49-1.2,2.99-.42,5.91-1.29,9.06-2,.25,1.92,.4,3.79,.74,5.62,.73,4.02,1.54,8.03,2.36,12.03,.06,.31,.4,.57,.61,.85,.26-.27,.63-.5,.75-.83,.51-1.34,.86-2.75,1.41-4.07,2.65-6.29,5.34-12.56,8.04-18.83,3.56-8.29,7.12-16.58,10.73-24.85,2.47-5.67,5.14-11.26,7.51-16.97,2.59-6.25,3.78-12.83,2.96-19.58ZM109.83,3.27c4.31-.52,8.62-1.15,12.95-1.38,4.5-.23,9.02-.18,13.52,0,1.79,.07,3.6,.67,5.3,1.3,3.01,1.11,4.33,3.69,4.91,6.62,.65,3.28,1.08,6.61,1.6,9.92,.03,.19,0,.38,0,.77-6.54-1.87-12.86-1.31-19.09,.51-5.53,1.61-10.47,4.29-14.44,8.58-.4,.43-.88,.8-1.33,1.19,.46,.41,1.03,.76,1.37,1.26,.92,1.35,1.85,2.71,2.59,4.15,3.34,6.47,5.33,13.42,7,20.46,3.09,12.96,6.18,25.93,9.11,38.93,1.5,6.65,2.63,13.39,3.91,20.08,.06,.33,.05,.73-.07,1.04-4.32,10.34-7.31,21.11-10.12,31.93-1.02,3.93-1.7,7.95-2.48,11.94-.2,1.02-.42,2.06,.39,3.06,.51,.63-.06,1.06-.75,1.22-4.28,.97-8.51,2.25-12.84,2.84-6.2,.85-12.47,1.19-18.71,1.76-.99,.09-1.53-.18-1.65-1.31-.48-4.48-1.14-8.94-1.56-13.43-.61-6.56-1.21-13.12-1.55-19.7-.5-9.76-1.24-19.53-.74-29.32,.32-6.22,.56-12.45,1.15-18.64,.65-6.83,1.66-13.62,2.51-20.43,1.13-9,2.77-17.91,5.06-26.69,2.55-9.76,5.05-19.56,9.35-28.76,1.1-2.35,2.19-4.7,3.36-7.01,.21-.41,.77-.86,1.22-.91Zm-14.29,2.97c.08-.24,.41-.5,.66-.55,3.55-.66,7.11-1.29,10.8-1.94-.95,2.01-1.84,3.9-2.77,5.77-.1,.2-.43,.36-.67,.39-2.89,.33-5.79,.64-8.68,.94-.18,.02-.37-.05-.66-.09,.45-1.55,.85-3.04,1.32-4.52Zm-1.64,5.53c.06-.17,.32-.36,.51-.38,2.97-.32,5.94-.62,8.92-.92,.11-.01,.23,.04,.48,.09-.36,.91-.68,1.8-1.07,2.66-.09,.21-.4,.42-.63,.44-2.97,.31-5.94,.59-9.14,.89,.34-1.03,.61-1.92,.93-2.78Zm-10.13,35.82c1.87-10.73,5.04-21.11,8.59-31.38,.27-.79,.63-1.13,1.49-1.2,2.74-.22,5.47-.56,8.56-.89-5.65,12.95-8,26.51-10.95,39.96-3.01,.16-5.91,.32-8.97,.49,.42-2.32,.87-4.64,1.28-6.98Zm-6.73,38.72c.82-5.4,1.71-10.79,2.63-16.17,.8-4.68,1.7-9.34,2.49-14.02,.13-.75,.42-.99,1.13-1.03,2.43-.11,4.86-.26,7.29-.39,.22-.01,.45,.09,.74,.14-.44,2.68-.94,5.3-1.3,7.94-.88,6.36-1.71,12.73-2.52,19.1-.29,2.26-.47,4.53-.76,6.78-.04,.3-.44,.77-.72,.8-2.97,.31-5.96,.56-9.01,.82,0-1.39-.16-2.72,.03-3.99Zm2.61,4.27c2.25-.25,4.51-.4,6.98-.62-.2,2.89-.38,5.51-.57,8.28-3.13,.13-6.21,.27-9.36,.4,0-1.75-.02-3.33,0-4.91,.05-3.2-.59-2.75,2.94-3.14Zm-3.16,16.69c.02-2.4,.04-4.79,.05-7.19,0-.57,.03-1.01,.81-1,2.83,.03,5.66,.01,8.64,.01,0,.44,.03,1.11,0,1.78-.42,9.06-.38,18.12,.25,27.17,.1,1.39,.2,2.79,.22,4.18,0,.31-.33,.87-.57,.91-3.07,.44-6.16,.81-9.36,1.22-.07-1.16-.19-2.27-.18-3.37,.04-7.9,.1-15.8,.16-23.7Zm1.76,27.41c2.68-.38,5.37-.71,8.22-1.09,.1,1.02,.18,1.84,.28,2.85-3.39,.35-6.7,.68-10.02,1.02-.09-.26-.17-.41-.19-.56-.2-1.94-.2-1.96,1.71-2.23Zm-1.04,23.53c-.19-6.31-.33-12.62-.57-18.92-.04-1.06,.26-1.37,1.28-1.45,2.9-.22,5.78-.55,8.81-.85,.68,8.6,1.35,16.98,2.03,25.6-3.68,.37-7.41,.74-11.27,1.13-.1-1.94-.22-3.72-.28-5.51Zm3.11,25.87c-.99-2.02-2.89-15.43-2.79-19.84,3.78-.38,7.5-.75,11.3-1.13,1.12,6.89,2.23,13.69,3.35,20.62-3.87,.66-7.86,.63-11.87,.35Zm13.52-.53c-.76-4.43-1.53-8.89-2.32-13.49,11.42-.52,22.66-1.47,33.78-4.97,.57,5.01,1.14,9.93,1.7,14.85-10.79,3.76-21.93,3.57-33.16,3.61Zm33.3-14.55c1.67,.84,3.01,1.52,4.45,2.24-1,2.8-1.98,5.52-2.95,8.24-.11,0-.23-.01-.34-.02-.37-3.39-.74-6.78-1.15-10.46Zm2.96,24.03c-.3-1.61-.68-3.21-.9-4.84-.28-2.09-.43-4.2-.62-6.3-.02-.23-.06-.49,.02-.7,1.12-3.19,2.25-6.37,3.45-9.73,1.48,.97,2.89,1.83,4.23,2.82,.23,.17,.25,.87,.12,1.23-1.15,3.31-2.38,6.6-3.55,9.91-.88,2.51-1.71,5.05-2.75,7.61Zm8.53-14.32c-2.37,5.58-4.73,11.17-7.09,16.76-.09,.21-.2,.41-.3,.61-.12,0-.25-.02-.37-.03,0-.95-.24-1.97,.04-2.83,1.44-4.44,3-8.85,4.53-13.26,.56-1.62,1.14-3.23,1.76-4.98,.24,.14,.38,.2,.51,.29,1.85,1.33,1.83,1.33,.93,3.43Zm19.4-44.4c-2.69,6.49-5.7,12.85-8.51,19.28-3.09,7.06-6.11,14.15-9.16,21.22-.19,.43-.41,.85-.61,1.25-2.09-1.44-4.07-2.93-6.17-4.22-2.07-1.27-4.26-2.33-6.45-3.51-.79-4.46-1.65-9.03-.3-13.67,.79-2.72,1.34-5.51,2.17-8.22,2.73-8.89,5.53-17.75,8.34-26.61,.3-.93,.89-1.77,1.29-2.67,.14-.31,.24-.7,.18-1.02-1.51-7.67-2.84-15.38-4.62-22.99-3.53-15.16-7.23-30.27-11.01-45.37-1.23-4.93-3.21-9.62-5.74-14.05-.72-1.25-1.63-2.39-2.55-3.72,.41-.44,.88-1.08,1.49-1.58,8.98-7.36,19.16-10.02,30.59-7.73,.93,.19,1.41,.53,1.48,1.61,.3,4.58,.69,9.15,1.11,13.72,.58,6.24,1.15,12.48,1.84,18.7,.65,5.87,1.26,11.75,2.2,17.57,1.24,7.64,2.84,15.21,4.18,22.83,1.18,6.72,2.35,13.44,3.27,20.2,.89,6.57-.51,12.91-3.01,18.96Z"/>
    <path d="M62.75,5.32c-4.14,2.71-8.62,4.27-13.76,3.85-5.02,.27-10.17,.48-15.3,.84-5.26,.37-10.46,1.17-15.51,2.81-7.72,2.5-13.31,7.27-16.18,14.97C.65,31.42,.17,35.23,.04,39.07c-.22,6.69,.5,13.32,1.43,19.92,1.07,7.62,2.06,15.27,3.52,22.82,1.87,9.67,4.26,19.24,6.26,28.89,3.02,14.53,5.82,29.11,9.58,43.47,.16,.61,.05,1.34-.12,1.97-1.4,5.07-2.98,10.11-4.25,15.21-1,4.02-1.66,8.12-2.47,12.19-.19,.94-.03,1.56,1.17,1.52,1.11-.04,2.22,.03,3.32,.12,5.92,.48,11.85,1,17.77,1.45,1.65,.13,2.37-.59,2.64-2.25,.55-3.47,.95-6.97,1.69-10.39,2.33-10.88,4.6-21.78,7.26-32.58,1.76-7.14,3.17-14.33,4.16-21.6,.75-5.52-.09-10.98-.77-16.46-.63-5.02-1.35-10.06-1.5-15.11-.18-5.81,.24-11.64,.37-17.46,.19-8.36,1.31-16.63,2.51-24.88,1.93-13.21,5.65-25.95,10.77-38.28,.23-.54,.38-1.14,.42-1.73,.05-.77-.34-1.03-1.05-.57ZM19.94,144.87c-3.37-15.59-6.74-31.19-10.06-46.8-1.69-7.92-3.5-15.82-4.85-23.8-1.3-7.7-2.24-15.48-3.04-23.25-.47-4.51-.4-9.08-.48-13.62-.02-1.29,.27-2.59,.42-3.88,.14-.05,.28-.1,.41-.15,.34,.56,.86,1.09,.99,1.7,5.4,25.67,15.56,49.33,29.98,71.21,.75,1.13,1.52,2.25,2.34,3.33,.54,.7,.7,1.36,.39,2.21-1.56,4.15-3.16,8.28-4.59,12.47-3.01,8.8-5.92,17.63-8.88,26.44-.17,.52-.36,1.02-.8,1.54-.61-2.46-1.29-4.91-1.82-7.39Zm1.23,14.22c1.22-3.75,2.62-7.44,3.76-11.21,3.22-10.58,6.76-21.05,10.92-31.31,.66-1.62,.99-3.37,1.54-5.03,.31-.93,.12-1.64-.45-2.43-7.87-10.85-14.16-22.6-19.58-34.81-5.67-12.8-10.02-26.07-12.76-39.83-.12-.6-.21-1.02-1.01-1.01-1.15,0-1.58-.65-1.31-1.82,2.07-9.08,7.69-14.82,16.49-17.61,4.75-1.51,9.61-2.3,14.57-2.63,4.98-.33,9.96-.62,14.94-.91,.67-.04,1.34,0,2.17,0-.18,.55-.32,1.04-.49,1.52-3.73,10.59-7,21.31-9.06,32.37-1.97,10.56-2.71,21.2-2.12,31.94,.57,10.41,2.59,20.57,4.95,30.68,1.16,4.96,1.1,9.88-.26,14.8-3.32,11.99-6.62,23.99-9.94,35.99-1.01,3.65-2.05,7.29-3.13,10.91-.09,.31-.56,.77-.81,.74-3.6-.38-7.2-.83-11.17-1.31,.99-3.27,1.81-6.18,2.74-9.04ZM40.1,63.2c0-.17,.35-.44,.56-.47,2.88-.32,5.77-.6,8.82-.91-.14,1.52-.26,2.85-.38,4.24-3.04,.32-5.97,.63-9.02,.96,0-1.32-.02-2.57,.03-3.82ZM15.39,183.57c.63-5.02,1.87-10.01,3.08-14.95,3.86,.5,7.63,.99,11.45,1.48-.95,4.78-1.89,9.52-2.88,14.53-3.74-.34-7.6-.7-11.65-1.07Zm22.01,1.84c-3-.21-5.87-.41-8.77-.61,.17-1.29,.27-2.36,.49-3.41,.07-.34,.46-.87,.71-.88,2.7-.06,5.4-.04,8.25-.04-.24,1.77-.45,3.28-.68,4.94Zm-.8-5.43c-2.34-.05-4.68-.01-7.11-.01-.01-.28-.05-.47-.03-.65,.19-1.84,.2-1.92,2.05-1.88,2.25,.04,4.5,.21,6.77,.32,.12,2.28,.09,2.26-1.69,2.22Zm1.93-2.73c-2.91-.15-5.68-.3-8.62-.45,.29-1.34,.54-2.7,.9-4.03,.97-3.68,1.95-7.37,2.99-11.03,.72-2.52,.17-2.01,2.74-2.17,1.78-.11,3.57-.23,5.55-.36-1.21,6.11-2.39,12.1-3.56,18.04Zm11.46-72.03c.62,4.92,.89,9.81,.43,14.79-.66,7.2-2.34,14.14-4.13,21.1-1.4,5.44-2.56,10.95-3.77,16.43-.19,.85-.48,1.21-1.38,1.24-2.11,.07-4.21,.24-6.55,.39,.86-3.23,1.62-6.24,2.47-9.23,2.6-9.17,5.16-18.36,7.88-27.49,1.11-3.72,1.42-7.48,.93-11.25-.52-3.98-1.52-7.89-2.31-11.83-.08-.38-.13-.77-.22-1.35,1.82-.13,3.54-.25,5.26-.38,.01-.08,.03-.16,.04-.24-.25-.06-.51-.18-.76-.17-1.28,.05-2.55,.11-3.82,.22-.64,.05-.94-.16-1.07-.8-1.76-9.14-3.18-18.32-3.15-27.66,0-1.03,.26-1.47,1.36-1.55,2.54-.19,5.07-.53,7.79-.83-.15,2.29-.32,4.42-.42,6.56-.22,5.18-.76,10.38-.52,15.55,.26,5.52,1.24,11.01,1.93,16.51Zm-1.02-43.86c-2.87,.33-5.76,.57-8.69,.84-.18-.68-.17-1.13,.64-1.21,2.84-.28,5.68-.56,8.52-.85,.11,.11,.22,.22,.34,.34-.27,.31-.51,.85-.81,.88Zm6.47-36.37c-2.34,8.31-3.86,16.77-4.78,25.35-.3,2.77-.5,5.56-.79,8.33-.03,.32-.3,.86-.51,.89-2.96,.37-5.92,.67-9.09,1.01,.11-1.65,.18-3.11,.32-4.56,1-10.24,3.34-20.2,6.26-30.04,.11-.36,.46-.88,.76-.93,2.62-.41,5.26-.74,8.04-1.11-.1,.53-.13,.8-.21,1.05Zm.62-2.15c-.1,.29-.5,.64-.8,.68-2.56,.32-5.13,.58-7.96,.88,.64-1.98,1.24-3.88,1.88-5.77,.06-.17,.35-.34,.54-.37,2.64-.3,5.28-.58,8.11-.89-.64,2-1.17,3.74-1.78,5.46Zm2.2-6.57c-.1,.24-.41,.54-.65,.57-2.64,.33-5.28,.61-8.18,.93,.88-2.55,1.65-4.87,2.51-7.17,.1-.26,.63-.47,.98-.51,2.89-.36,5.74-.82,8.6-2.41-1.17,3.09-2.19,5.85-3.25,8.59Z"/>
    <path d="M33.14,148.71c-.1-.03-.2-.06-.3-.1-1.38,2.95-2.28,6.05-2.95,9.22,.1,.03,.2,.07,.31,.1,.98-3.08,1.96-6.15,2.94-9.23Z"/>
    <path d="M35.72,70.28c.13,0,.27,0,.4,0v-6.7c-.62,2.22-.52,4.46-.4,6.7Z"/>
    <path d="M40.46,100.63c-.74-2-1.15-4.11-2.26-5.97-.1,.04-.21,.08-.31,.12,.71,2.01,1.42,4.01,2.14,6.02,.14-.05,.29-.11,.43-.16Z"/>
  </g>
</svg>