<?xml version="1.0" encoding="UTF-8"?>
<svg id="_후드티_이미지" data-name="후드티 이미지" xmlns="http://www.w3.org/2000/svg" viewBox="0 0 164.22 215.75">
  <defs>
    <style>
      .cls-1 {
        fill: #fff;
      }
    </style>
  </defs>
  <g id="_색" data-name="색">
    <g id="_색-2" data-name="색">
      <path class="cls-1" d="M114.41,46.99c-.05,.72-.18,1.11-.08,1.43,.22,.68,.5,1.36,.88,1.96,4.84,7.78,7.51,16.41,9.45,25.24,2.14,9.75,3.8,19.59,5.69,29.39,1.72,8.94,3.42,17.88,5.22,26.81,.37,1.85,.34,3.51-.29,5.33-2.89,8.29-5.64,16.63-8.45,24.98-2.23-.29-4.65-.56-7.05-.95-1.25-.2-2.51-.52-3.7-.96-2.94-1.07-4.99-3.06-6.04-6.06-1.98-5.69-3.73-11.4-3.15-17.55,.04-.38-.04-.77-.07-1.47-21.26,.35-42.46-1.75-64.02,.75,1.34,1.87,.64,3.53,.37,5.15-.56,3.47-1.29,6.91-1.86,10.37-.39,2.35-1.64,3.94-3.84,4.79-1.41,.54-2.82,1.17-4.28,1.52-1.68,.41-2.75,1.39-3.06,2.99-.67,3.44-1.27,6.9-1.72,10.37-.32,2.45-.35,4.93-.53,7.7-1.59-.07-3.05-.14-4.74-.21-.51-3.15-1.01-6.2-1.5-9.25-.14-.87-.25-1.74-.35-2.61-.28-2.4,.17-4.62,1.68-6.56,2.16-2.77,4.3-5.57,6.52-8.28,2.35-2.86,4.34-5.86,5.4-9.49,1.09-3.75,2.45-7.43,3.77-11.11,.27-.75,.35-1.32-.15-1.99-.37-.51-.54-1.16-.91-1.67-7.91-10.69-13.23-22.74-18.58-34.81-5.65-12.75-10.02-25.91-13.62-39.35-.21-.79-.21-1.74-1.23-2.2-.82,.63-.38,1.37-.21,1.98,3.28,12.11,6.8,24.15,11.95,35.63,3.92,8.74,7.83,17.5,12.16,26.04,2.44,4.82,5.7,9.23,8.68,13.78,.63,.97,.78,1.74,.38,2.85-1.61,4.51-2.98,9.11-4.72,13.57-.71,1.81-2.03,3.41-3.23,4.99-2.13,2.8-4.36,5.52-6.57,8.25-1.64,2.03-2.7,4.3-3.25,6.96-.66-3.3-1.37-6.59-1.97-9.9-3.82-21.06-7.69-42.11-11.37-63.19-1.66-9.52-3-19.09-4.33-28.66-.58-4.13-.47-8.32,.4-12.41,.42-2.01,1.02-4.1,2.07-5.83,5.42-9.02,13.59-13.6,24.34-14.47-.26,.85-.44,1.49-.66,2.12-.6,1.73-1.37,3.43-1.79,5.2-.72,3.05,.24,4.87,3.3,5.59,3.09,.73,6.29,1.09,9.46,1.39,4.61,.45,9.23,.71,14.08,1.07,.11,.85,.29,1.69,.33,2.53,.2,5.19,.29,10.39,.56,15.57,.43,8.3,.96,16.59,1.44,24.88,.05,.95,0,1.9,0,2.84-.33,.21-.58,.41-.87,.54-.84,.37-1.69,.81-1.47,1.89,.23,1.14,.37,2.38,1.81,2.85,1.77,.57,2.55,1.9,2.53,3.73-.01,1.44-.07,2.88,.01,4.31,.09,1.58,.84,2.29,2.39,2.47,1.62,.19,2.39-.43,2.43-2.12,.04-1.76-.02-3.52-.03-5.27,0-2.5,.07-5.01-.04-7.51-.04-.82-.56-1.61-.84-2.42-.2-.59-.49-1.19-.53-1.8-.56-7.25-1.19-14.49-1.59-21.75-.33-5.98-.38-11.98-.54-17.97-.02-.85,0-1.71,0-2.7,2.11-.1,3.96-.19,5.91-.28-.19-1.35-1.01-1.14-1.66-1.15-3.28-.06-6.56,.02-9.83-.18-6.7-.41-13.39-.93-20.07-1.5-1.33-.11-2.65-.57-3.93-1-1.21-.4-1.79-1.37-1.63-2.62,.16-1.18,.41-2.36,.79-3.49,.51-1.51,1.17-2.97,1.78-4.45,.83-1.98,1.18-3.97,.31-6.04-.5-1.19-.29-2.37,.26-3.48,.39-.78,.83-1.56,1.36-2.25,4.33-5.63,9.49-10.35,15.6-14,1.34-.8,2.5-.79,4.02-.23,3.74,1.38,5.81,4.28,7.9,7.71-5.2,1.74-10.22,3.5-14.2,7.47,.16,.39,.28,.84,.52,1.22,5.29,8.36,11.94,15.34,20.36,20.65,3.71,2.34,7.45,2.71,11.4,1.07,1.98-.83,3.91-1.82,5.76-2.92,8.07-4.83,15.17-10.9,21.87-17.46,.68-.67,1.33-1.39,1.87-2.18,.54-.78,.92-1.67,1.44-2.65-3.82-3.16-8.71-3.61-13.44-5.13,.35-3.88,.68-7.67,1.06-11.85,1.14,.47,1.98,.7,2.69,1.13,6.84,4.12,13.68,8.25,20.47,12.45,1.13,.7,2.14,1.69,3.02,2.71,1.94,2.23,2.06,4.36,.3,6.75-1.18,1.6-2.64,2.99-3.96,4.48-.5,.57-.99,1.14-1.5,1.73,1.28,1.11,1.63-.46,2.84-.43,1.65,2.69,3.42,5.58,5.14,8.38-1.03,1.48-2.33,1.64-3.57,1.83-4.65,.71-9.3,1.48-13.97,2.08-7.53,.96-15.07,1.83-22.6,2.7-1.58,.18-3.19,.18-4.78,.3-.36,.03-.71,.17-1.27,.32,.83,1.34,1.93,.92,2.86,.96,1.02,.05,2.04,.01,3.24,.01,0,2.79,.06,5.57-.01,8.34-.22,8.47-.49,16.93-.75,25.39-.16,5.18-.36,10.37-.54,15.55-.04,1.1-.25,2.18,.59,3.19,.34,.41,.25,1.21,.26,1.84,.04,2.16-.02,4.32,.08,6.47,.08,1.82,.82,2.26,2.84,1.61-1.83-.9-1.47-2.46-1.49-3.89-.02-1.75,0-3.5,0-5.45,.56-.05,1.13-.09,1.68-.13,0,1.66-.05,3.16,.01,4.65,.06,1.37-.43,2.81,.35,4.21,1.43-1.53,1.41-6.5,.07-10.13q-2.03-.27-3.22-1.11c1.24-.46,2.33-.87,3.65-1.35-1.1-1.3-2.41-.11-3.29-.82,.82-1.13,2.73-2.07,3.57-1.67,.81,.39,1.03,1.04,.67,1.97-.28,.71-.32,1.54-.35,2.31,0,.3,.33,.61,.68,1.19,.3-.7,.56-1.09,.62-1.51,.09-.63-.16-1.35,.06-1.9,.74-1.85,.04-3.05-1.66-3.8,.41-15.24,.82-30.32,1.23-45.6,2.66-.36,5.17-.7,7.68-1.04,7.52-1.01,15.04-1.99,22.55-3.05,1.41-.2,2.84-.55,4.16-1.08,1.9-.77,2.3-2.02,1.35-3.83-.74-1.42-1.55-2.79-2.41-4.14-.85-1.35-1.79-2.64-2.76-4.06,2.11-2.57,4.94-4.84,4.49-8.96,3.42-.11,6.69-.47,9.92-.25,4.94,.33,8.42,3.13,10,7.74,1.71,4.97,3.19,10.05,4.3,15.19,1.59,7.35,2.06,14.87,2.51,22.37,.68,11.57,2.06,23.06,3.54,34.55,1.57,12.14,4.26,24.06,6.81,36.01,1,4.7,.81,9.2-.75,13.67-1.05,3.01-2.19,6-3.44,8.94-6.58,15.43-13.64,30.64-21.48,45.49-1.49,2.82-2.77,5.76-4.16,8.63-.33,.68-.7,1.33-1.44,1.91-.21-1.79-.43-3.57-.61-5.36-.98-9.7-2.44-19.34-4.52-28.86-.43-1.95-.4-3.72,.08-5.56,.71-2.68,1.83-5.3,2.14-8.02,.72-6.26,3.11-12.02,4.91-17.96,1.11-3.67,2.48-7.26,3.78-10.86,.76-2.09,1.23-3.98,.46-6.38-1.26-3.93-1.84-8.09-2.59-12.17-2.27-12.33-4.42-24.68-6.74-37-1.41-7.46-3.28-14.84-6.11-21.9-1.74-4.36-4.05-8.49-6.13-12.71-.09-.18-.36-.26-.94-.63Z"/>
      <path class="cls-1" d="M29.01,178.83c.59-5.33,1.13-10.4,1.72-15.47,.08-.71,.39-1.38,.55-2.08,.31-1.28,1.05-1.94,2.37-2.32,1.98-.58,3.89-1.42,5.77-2.28,1.36-.62,2.32-1.76,2.69-3.22,1.35-5.33,2.25-10.73,2.93-16.37,19.95-2.32,40.12-.2,60.22-.65,.27,2.53,.51,4.75,.75,6.96,.4,3.76,1.44,7.35,2.64,10.92,1.3,3.88,3.92,6.39,7.79,7.45,2.37,.65,4.85,.93,7.29,1.3,2.25,.34,2.79,.93,2.35,3.13-.61,3.05-1.35,6.08-1.96,9.13-.23,1.14-.86,1.64-1.94,1.75-2.94,.3-5.87,.71-8.82,.88-18.35,1.1-36.71,1.81-55.1,1.5-9.19-.15-18.38-.32-27.57-.48-.39,0-.77-.06-1.69-.14Z"/>
      <path class="cls-1" d="M104.23,179.95v6.5c-2.46,.94-31.72,2.04-37.32,1.37-.48-2.15-.1-4.34-.09-6.71,12.41-.39,24.73-.77,37.41-1.17Z"/>
      <path class="cls-1" d="M62.35,181.15c.1,2.24,.2,4.36,.3,6.45-4.11,.82-28.2,.06-32.1-1.02-.14-1.77-.29-3.64-.44-5.5-1.47,1.68-.12,3.71-.87,5.5-1.1-.76-1.37-2.18-1.19-5.86,1.71-.53,30.49-.2,34.3,.43Z"/>
      <path class="cls-1" d="M59.04,90.44c-.51,.22-1.27,.55-2.28,.98-1.36-15.14-1.88-30.01-2.3-45.13,.71-.05,1.46-.1,2.15-.14,.81,14.77,1.62,29.39,2.44,44.29Z"/>
      <path class="cls-1" d="M86.45,46.67c.66-.03,1.17-.05,1.82-.08,.05,.53,.12,.92,.11,1.3-.3,10.78-.61,21.56-.91,32.34-.1,3.59-.17,7.19-.18,10.78,0,1.27-.51,1.76-1.86,1.59-.35-15.22,.16-30.43,1.02-45.92Z"/>
      <path class="cls-1" d="M107.17,186.61v-5.52c-1.45,1.65-.29,3.76-1.48,5.43-.64-2.14-.5-4.29-.44-6.67,5.08-.34,9.99-.66,15.09-1v6.43c-4.37,.44-8.62,.88-13.16,1.34Z"/>
      <path class="cls-1" d="M26.85,180.25c.16,1.97,.3,3.78,.46,5.77h-5.28c0-1.7-.03-3.18,.01-4.67,.03-.99,.72-1.41,1.61-1.39,1.02,.02,2.04,.17,3.2,.28Z"/>
      <path class="cls-1" d="M54.16,94.12c2.12-.92,4.01-1.73,6.2-2.67,.25,1.92,.47,3.54,.7,5.3-1.39,.37-2.43,1.72-4.15,.46,1.17-.8,2.17-1.47,3.61-2.45-2.47-.73-3.73,1.39-5.79,1.06-.14-.43-.34-1.03-.56-1.7Z"/>
      <path class="cls-1" d="M121.51,185.18v-6.26c.92-.66,1.6-.79,2.02,.42,.58,1.69,1.15,3.38,1.82,5.33-1.44,.19-2.56,.34-3.83,.51Z"/>
      <path class="cls-1" d="M63.32,181.04h2.33v6.72c-.59,.05-1.17,.1-2.01,.18-.11-2.37-.21-4.56-.31-6.89Z"/>
      <path class="cls-1" d="M60.62,98.76v7.52c-1.96,.1-2.05,.07-2.1-1.56-.04-1.35,.07-2.71,0-4.07-.06-1.32,.51-1.93,2.09-1.89Z"/>
    </g>
    <path class="cls-1" d="M100.69,16.36c-1.53-.44-3.11-.73-4.64-1.18-.27-.08-.49-.16-.7-.23v8.51c2.25-.4,4.21-.66,6.13-1.1,1.03-.24,2.07-.46,3.11-.67,.68-.8,1.28-1.7,1.97-2.57-1.92-1.55-3.89-2.18-5.87-2.75Z"/>
    <path class="cls-1" d="M48.81,19.37c-.76,.37-1.37,1.05-2.27,1.76,1.12,1.6,2.17,3.08,3.21,4.56,.65,.93,1.34,1.82,2.04,2.69,2.04-.21,4.07-.48,6.09-.87,1.09-.2,2.17-.54,3.21-.93,.33-.13,.75-.7,.71-1-.5-3.72-1.04-7.44-2.43-10.95-.55,.21-1.11,.42-1.66,.67-2.98,1.33-5.96,2.65-8.9,4.07Z"/>
  </g>
  <path id="_선" data-name="선" d="M163.97,138.76c-2.7-12.81-5.68-25.56-7.41-38.56-1.56-11.8-2.95-23.61-3.64-35.5-.46-7.97-1.02-15.97-2.83-23.77-1.11-4.81-2.48-9.6-4.26-14.2-2.06-5.32-6.25-8.14-12.08-8.2-1.52-.02-3.03,.12-4.55,.14-1.59,.03-3.18,0-4.44,0-1.7-1.62-3-3.34-4.71-4.42-7.02-4.43-14.15-8.69-21.27-12.96-.92-.55-2-.84-3.11-1.29-.25,.6-.5,.94-.54,1.31-.39,3.73-.8,7.46-1.07,11.2-.13,1.82,.21,2.17,2,2.71,1.53,.46,3.1,.75,4.64,1.18,1.99,.57,3.96,1.2,5.87,2.75-.92,1.16-1.69,2.36-2.68,3.34-6.23,6.11-12.82,11.81-20.27,16.41-2.03,1.25-4.14,2.42-6.31,3.41-3.76,1.72-7.33,1.45-10.89-.9-6.48-4.27-12.18-9.31-16.66-15.67-1.05-1.48-2.09-2.97-3.21-4.56,.9-.71,1.51-1.39,2.27-1.76,2.94-1.41,5.92-2.73,8.9-4.07,.85-.38,1.72-.68,2.55-1.01-.04-.47-.03-.71-.08-.94-.05-.23-.11-.47-.23-.68-1.99-3.63-4.3-6.81-8.58-8.18-2.03-.65-3.61-.59-5.39,.51-3.76,2.34-7.2,5.06-10.25,8.24-2.04,2.12-3.94,4.4-5.74,6.74-1.49,1.93-1.93,4.14-1.08,6.56,.29,.83,.19,1.8,.27,2.76-1.41,.18-2.52,.32-3.62,.46-5.34,.68-10.23,2.51-14.52,5.78-5.16,3.93-9.18,8.68-10.37,15.29C-.04,54.9-.18,58.97,.23,63.05c1.35,13.29,3.86,26.39,6.26,39.5,1.79,9.82,3.73,19.61,5.53,29.43,2.12,11.62,4.13,23.27,6.25,34.9,1.08,5.94,3.16,11.73,2.3,17.95-.25,1.85,.47,2.45,2.31,2.61,5.65,.5,11.29,1.18,16.95,1.4,16.37,.65,32.75,.87,49.13,.15,7.02-.31,14.03-.82,21.04-1.36,5.08-.39,10.14-.99,15.36-1.51,2.02,9.74,2.94,19.65,4.14,29.44,.95,.07,1.62,.12,2.55,.18,1.51-3.18,2.88-6.33,4.47-9.36,8.12-15.5,15.66-31.28,22.44-47.41,1.63-3.89,3.06-7.89,4.26-11.94,.79-2.65,1.35-5.45,.75-8.27ZM22.03,186.03c0-1.7-.03-3.18,.01-4.67,.03-.99,.72-1.41,1.61-1.39,1.02,.02,2.04,.17,3.2,.28,.16,1.97,.3,3.78,.46,5.77h-5.28Zm8.51,.56c-.14-1.77-.29-3.64-.44-5.5-1.47,1.68-.12,3.71-.87,5.5-1.1-.76-1.37-2.18-1.19-5.86,1.71-.53,30.49-.2,34.3,.43,.1,2.24,.2,4.36,.3,6.45-4.11,.82-28.2,.06-32.1-1.02Zm-1.53-7.75c.59-5.33,1.13-10.4,1.72-15.47,.08-.71,.39-1.38,.55-2.08,.31-1.28,1.05-1.94,2.37-2.32,1.98-.58,3.89-1.42,5.77-2.28,1.36-.62,2.32-1.76,2.69-3.22,1.35-5.33,2.25-10.73,2.93-16.37,19.95-2.32,40.12-.2,60.22-.65,.27,2.53,.51,4.75,.75,6.96,.4,3.76,1.44,7.35,2.64,10.92,1.3,3.88,3.92,6.39,7.79,7.45,2.37,.65,4.85,.93,7.29,1.3,2.25,.34,2.79,.93,2.35,3.13-.61,3.05-1.35,6.08-1.96,9.13-.23,1.14-.86,1.64-1.94,1.75-2.94,.3-5.87,.71-8.82,.88-18.35,1.1-36.71,1.81-55.1,1.5-9.19-.15-18.38-.32-27.57-.48-.39,0-.77-.06-1.69-.14Zm36.64,8.92c-.59,.05-1.17,.1-2.01,.18-.11-2.37-.21-4.56-.31-6.89h2.33v6.72Zm38.58-1.3c-2.46,.94-31.73,2.04-37.32,1.37-.48-2.15-.1-4.34-.09-6.71,12.41-.39,24.73-.77,37.41-1.17v6.5Zm16.11-1.18c-4.37,.44-8.62,.88-13.16,1.34v-5.52c-1.45,1.65-.29,3.76-1.48,5.43-.64-2.14-.5-4.29-.44-6.67,5.08-.34,9.99-.66,15.09-1v6.43Zm1.17-.09v-6.26c.92-.66,1.6-.79,2.02,.42,.58,1.69,1.15,3.38,1.82,5.33-1.44,.19-2.56,.34-3.83,.51Zm39.69-35.73c-1.05,3.01-2.19,6-3.44,8.94-6.58,15.43-13.64,30.64-21.48,45.49-1.49,2.82-2.77,5.76-4.16,8.63-.33,.68-.7,1.33-1.44,1.91-.21-1.79-.43-3.57-.61-5.36-.98-9.7-2.44-19.34-4.52-28.86-.43-1.95-.4-3.72,.08-5.56,.71-2.68,1.83-5.3,2.14-8.02,.72-6.26,3.11-12.02,4.91-17.96,1.11-3.67,2.48-7.26,3.78-10.86,.76-2.09,1.23-3.98,.46-6.38-1.26-3.93-1.84-8.09-2.59-12.17-2.27-12.33-4.42-24.68-6.74-37-1.41-7.46-3.28-14.84-6.11-21.9-1.74-4.36-4.05-8.49-6.13-12.71-.09-.18-.36-.26-.94-.63-.05,.72-.18,1.11-.08,1.43,.22,.68,.5,1.36,.88,1.96,4.84,7.78,7.51,16.41,9.45,25.24,2.14,9.75,3.8,19.59,5.69,29.39,1.72,8.94,3.42,17.88,5.22,26.8,.37,1.85,.34,3.51-.29,5.33-2.89,8.29-5.64,16.63-8.45,24.98-2.23-.29-4.65-.56-7.05-.95-1.25-.2-2.51-.52-3.7-.96-2.94-1.07-4.99-3.06-6.04-6.06-1.98-5.69-3.73-11.4-3.15-17.55,.04-.38-.04-.77-.07-1.47-21.26,.35-42.46-1.75-64.02,.75,1.34,1.87,.64,3.53,.37,5.15-.56,3.47-1.29,6.91-1.86,10.37-.39,2.35-1.64,3.94-3.84,4.79-1.41,.54-2.82,1.17-4.28,1.52-1.68,.41-2.75,1.39-3.06,2.99-.67,3.44-1.27,6.9-1.72,10.37-.32,2.45-.35,4.93-.53,7.7-1.59-.07-3.05-.14-4.74-.21-.51-3.15-1.01-6.2-1.5-9.25-.14-.87-.25-1.74-.35-2.61-.28-2.4,.17-4.62,1.68-6.56,2.16-2.77,4.3-5.57,6.52-8.28,2.35-2.86,4.34-5.86,5.4-9.49,1.09-3.75,2.45-7.43,3.77-11.11,.27-.75,.35-1.32-.15-1.99-.37-.51-.54-1.16-.91-1.67-7.91-10.69-13.23-22.74-18.58-34.81-5.65-12.75-10.02-25.91-13.62-39.35-.21-.79-.21-1.74-1.23-2.2-.82,.63-.38,1.37-.21,1.98,3.28,12.11,6.8,24.15,11.95,35.63,3.92,8.74,7.83,17.5,12.16,26.04,2.44,4.82,5.7,9.23,8.68,13.78,.63,.97,.78,1.74,.38,2.85-1.61,4.51-2.98,9.11-4.72,13.57-.71,1.81-2.03,3.41-3.23,4.99-2.13,2.8-4.36,5.52-6.57,8.25-1.64,2.03-2.7,4.3-3.25,6.96-.66-3.3-1.37-6.59-1.97-9.9-3.82-21.06-7.69-42.11-11.37-63.19-1.66-9.52-3-19.09-4.33-28.66-.58-4.13-.47-8.32,.4-12.41,.42-2.01,1.02-4.1,2.07-5.83,5.42-9.02,13.59-13.6,24.34-14.47-.26,.85-.44,1.49-.66,2.12-.6,1.73-1.37,3.43-1.79,5.2-.72,3.05,.24,4.87,3.3,5.59,3.09,.73,6.29,1.09,9.46,1.39,4.61,.45,9.23,.71,14.08,1.07,.11,.85,.29,1.69,.33,2.53,.2,5.19,.29,10.39,.56,15.57,.43,8.3,.96,16.59,1.44,24.88,.05,.95,0,1.9,0,2.84-.33,.21-.58,.41-.87,.54-.84,.37-1.69,.81-1.47,1.89,.23,1.14,.37,2.38,1.81,2.85,1.77,.57,2.55,1.9,2.53,3.73-.01,1.44-.07,2.88,.01,4.31,.09,1.58,.84,2.29,2.39,2.47,1.62,.19,2.39-.43,2.43-2.12,.04-1.76-.03-3.52-.03-5.27,0-2.5,.07-5.01-.04-7.51-.04-.82-.56-1.61-.84-2.42-.2-.59-.49-1.19-.53-1.8-.56-7.25-1.19-14.49-1.59-21.75-.33-5.98-.38-11.98-.54-17.97-.02-.85,0-1.71,0-2.7,2.11-.1,3.96-.19,5.91-.28-.19-1.35-1.01-1.14-1.66-1.15-3.28-.06-6.56,.02-9.83-.18-6.7-.41-13.39-.93-20.07-1.5-1.33-.11-2.65-.57-3.93-1-1.21-.4-1.79-1.37-1.63-2.62,.16-1.18,.41-2.36,.79-3.49,.51-1.51,1.17-2.97,1.78-4.45,.83-1.98,1.18-3.97,.31-6.04-.5-1.19-.29-2.37,.26-3.48,.39-.78,.83-1.56,1.36-2.25,4.33-5.63,9.49-10.35,15.6-14,1.34-.8,2.5-.79,4.02-.23,3.74,1.38,5.81,4.28,7.9,7.71-5.2,1.74-10.22,3.5-14.2,7.47,.16,.39,.28,.84,.52,1.22,5.29,8.36,11.94,15.34,20.36,20.65,3.71,2.34,7.45,2.71,11.4,1.07,1.98-.83,3.91-1.82,5.76-2.92,8.07-4.83,15.17-10.9,21.87-17.46,.68-.67,1.33-1.39,1.87-2.18,.54-.78,.92-1.67,1.44-2.65-3.82-3.16-8.71-3.61-13.44-5.13,.35-3.88,.68-7.67,1.06-11.85,1.14,.47,1.98,.7,2.69,1.13,6.84,4.12,13.68,8.25,20.47,12.45,1.13,.7,2.14,1.69,3.02,2.71,1.94,2.23,2.06,4.36,.3,6.75-1.18,1.6-2.64,2.99-3.96,4.48-.5,.57-.99,1.14-1.5,1.73,1.28,1.11,1.63-.46,2.84-.43,1.65,2.69,3.42,5.58,5.14,8.38-1.03,1.48-2.33,1.64-3.57,1.83-4.65,.71-9.3,1.48-13.97,2.08-7.53,.96-15.07,1.83-22.6,2.7-1.58,.18-3.19,.18-4.78,.3-.36,.03-.71,.17-1.27,.32,.83,1.34,1.93,.92,2.86,.96,1.02,.05,2.04,.01,3.24,.01,0,2.79,.06,5.57-.01,8.34-.22,8.47-.49,16.93-.75,25.39-.16,5.18-.36,10.37-.54,15.55-.04,1.1-.25,2.18,.59,3.19,.34,.41,.25,1.21,.26,1.84,.04,2.16-.02,4.32,.08,6.47,.08,1.82,.82,2.26,2.84,1.61-1.83-.9-1.47-2.46-1.49-3.89-.02-1.75,0-3.5,0-5.45,.56-.05,1.13-.09,1.68-.13,0,1.66-.05,3.16,.01,4.65,.06,1.37-.43,2.81,.35,4.21,1.43-1.53,1.41-6.5,.07-10.13q-2.03-.27-3.22-1.11c1.24-.46,2.33-.87,3.65-1.35-1.1-1.3-2.41-.11-3.29-.82,.82-1.13,2.73-2.07,3.57-1.67,.81,.39,1.03,1.04,.67,1.97-.28,.71-.32,1.54-.35,2.31,0,.3,.33,.61,.68,1.19,.3-.7,.56-1.09,.62-1.51,.09-.63-.16-1.35,.06-1.9,.74-1.85,.04-3.05-1.66-3.8,.41-15.24,.82-30.32,1.23-45.6,2.66-.36,5.17-.7,7.68-1.04,7.52-1.01,15.04-1.99,22.55-3.05,1.41-.2,2.84-.55,4.16-1.08,1.9-.77,2.3-2.02,1.35-3.83-.74-1.42-1.55-2.79-2.41-4.14-.85-1.35-1.79-2.64-2.76-4.06,2.11-2.57,4.94-4.84,4.49-8.96,3.42-.11,6.69-.47,9.92-.25,4.94,.33,8.42,3.13,10,7.74,1.71,4.97,3.19,10.05,4.3,15.19,1.59,7.35,2.06,14.87,2.51,22.37,.68,11.57,2.06,23.06,3.54,34.55,1.57,12.14,4.26,24.06,6.81,36.01,1,4.7,.81,9.2-.75,13.67ZM58.53,100.65c-.06-1.32,.51-1.93,2.09-1.89v7.52c-1.96,.1-2.05,.07-2.1-1.56-.04-1.35,.07-2.71,0-4.07Zm-1.62-3.44c1.17-.8,2.17-1.47,3.61-2.45-2.47-.73-3.73,1.39-5.79,1.06-.14-.43-.34-1.03-.56-1.7,2.12-.92,4.01-1.73,6.2-2.67,.25,1.92,.47,3.54,.7,5.3-1.39,.37-2.43,1.72-4.15,.46Zm-.15-5.79c-1.36-15.14-1.88-30.01-2.3-45.13,.71-.05,1.46-.1,2.15-.14,.81,14.77,1.62,29.39,2.44,44.29-.51,.22-1.27,.55-2.28,.98Zm31.62-43.54c-.3,10.78-.61,21.56-.91,32.34-.1,3.59-.17,7.19-.18,10.78,0,1.27-.51,1.76-1.86,1.59-.35-15.22,.16-30.43,1.02-45.92,.66-.03,1.17-.05,1.82-.08,.05,.53,.12,.92,.11,1.3Z"/>
</svg>