<?xml version="1.0" encoding="UTF-8"?>
<svg id="_항공점퍼" data-name="항공점퍼" xmlns="http://www.w3.org/2000/svg" viewBox="0 0 595.2 595.2">
  <g id="_색" data-name="색">
    <path d="M494.83,503.51c-4.24,.82-8.29,1.69-12.38,2.38-5.65,.97-11.36,1.03-17.08,.77-1.95-.09-3.96,.21-5.86-.12-4.58-.79-9,.26-13.47,.73-1.86,.2-2.34-.19-2.63-2.07-1.61-10.27-1.79-20.59-1.31-30.95,.58-12.45,2.87-24.66,5.01-36.89,1.57-9.01,2.95-18.05,4.74-27.02,1.59-7.98,3.64-15.87,5.45-23.81,.5-2.19,1.67-3.83,3.48-5.1,4.28-3,8.49-6.11,12.83-9.02,1.95-1.31,3.46-2.72,4.22-5.06,1.28-3.94,2.94-7.76,4.22-11.7,.59-1.79,.68-3.75,.96-5.64,.13-.86,.38-1.51,1.43-1.26,6.86,1.67,13.76,3.2,20.57,5.05,7.26,1.97,13.48,5.73,18.66,11.3,3.86,4.16,5.98,8.93,6.73,14.5,.96,7.07,.38,14.11-.14,21.16-1.05,14.31-4.27,28.25-6.88,42.3-3.6,19.36-10.41,37.67-17.54,55.9-2.32,5.95-4.69,11.88-7.03,17.82-.07,.18-.07,.4-.18,.57-.24,.38-.52,.74-.79,1.1-.29-.38-.77-.72-.84-1.14-.72-4.25-1.38-8.51-2.05-12.77-.07-.42-.11-.85-.13-1.03Zm3.71-22.75c-.03-.65-.06-1.12-.08-1.58-.36-12.01-1.03-24.03-.99-36.04,.07-20.95,2.26-41.7,7.31-62.09,.11-.42,.17-.89,.39-1.24,.15-.24,.6-.5,.84-.44,.24,.06,.54,.48,.56,.76,.03,.46-.16,.93-.25,1.4-1.65,8.79-3.68,17.52-4.87,26.37-3.26,24.29-2.96,48.68-1.23,73.07,.31,4.32-.42,8.18-2.64,11.91-.89,1.49-1.37,3.3-1.68,5.03-.2,1.11,.25,2.33,.4,3.51,.48,3.8,.96,7.61,1.44,11.41,.05,.42,.17,.83,.32,1.56,.3-.71,.48-1.1,.64-1.5,1.67-4.28,3.31-8.56,4.99-12.83,7.61-19.29,14.78-38.69,18.52-59.22,2.45-13.44,5.47-26.76,6.48-40.43,.51-6.97,1.14-13.94,.06-20.92-.47-3.02-1-6.04-2.71-8.62-3.72-5.64-8.48-10.18-14.72-12.94-2.96-1.31-6.1-2.02-9.33-2.56-.52,1.53-.98,2.97-1.5,4.38-3.9,10.47-7.82,20.94-11.7,31.42-1.1,2.99-3.21,4.68-6.27,5.28-.86,.17-1.73,.37-2.6,.38-3.11,0-6.23-.02-9.33-.13-.91-.03-1.34,.15-1.58,1.09-.59,2.28-1.3,4.53-1.98,6.78-5.68,18.86-9.94,38.01-11.57,57.68-.92,11.12-1.52,22.23,.9,33.27,.32,1.46,.4,1.53,1.85,1.41,.91-.07,1.83,.02,2.75,.02,1.22,0,2.45,0,3.72,0,.03-.35,.05-.62,.07-.89,.42-5.65,.67-11.32,1.29-16.95,.78-7.03,2.21-13.96,4-20.81,.59-2.25,1.68-3.17,3.8-3.22,3.43-.08,6.86-.23,10.3-.28,2.42-.03,3.61,.92,4.1,3.32,.28,1.4,.42,2.84,.53,4.27,.32,3.96,.96,7.85,2.37,11.58,1.3,3.45,4.15,5.19,7.42,6.77Zm-43.3,23.7c-.11-2.51-.2-4.9-.32-7.28-.03-.55-.2-1.1-.29-1.65-.33-2-.8-4-.93-6.02-.24-3.82-.32-7.65-.4-11.48-.31-15.75,1.96-31.22,5.11-46.58,2.65-12.9,6.39-25.52,10.29-38.08,1.98-6.36,4.21-12.64,6.33-18.96,.12-.34,.22-.69,.42-1.33-5.54,3.47-10.6,7.01-15.31,11.03-.36,.31-.64,.83-.77,1.3-1.2,4.47-2.46,8.93-3.5,13.44-3.81,16.43-6.09,33.14-9.08,49.71-2.92,16.18-4.2,32.46-2.72,48.89,.25,2.73,.62,5.45,.95,8.31,3.58-.46,6.92-.89,10.21-1.31Zm11.14-7.5c.34,.04,.57,.08,.8,.08,8.22-.14,16.45,.03,24.59-1.45,.39-.07,.88-.22,1.17-.06,1.29,.72,1.73-.23,2.16-1.07,.72-1.37,1.43-2.76,2-4.2,.59-1.51,1.2-3.06,1.47-4.64,.46-2.76,.35-2.77-2.13-4.11-.46-.25-.9-.51-1.35-.77-2.95-1.73-5.1-4.14-5.92-7.5-.73-2.98-1.31-5.99-1.84-9.01-.35-1.96-.4-3.97-.75-5.93-.26-1.49-.83-1.89-2.32-1.87-3.39,.05-6.78,.14-10.17,.27-1.96,.08-2,.12-2.49,2.02-2.85,10.89-4.59,21.95-5.2,33.19-.09,1.66-.01,3.33-.01,5.04Zm3.52-101.75c3.51,0,6.88,.09,10.25-.02,3.8-.13,6.3-1.9,7.64-5.7,2.99-8.46,6.3-16.81,9.41-25.22,1.2-3.25,2.21-6.56,3.35-9.98-5.16-1.49-10.26-2.59-15.4-2.9-.47,1.82-.75,3.57-1.36,5.19-1.56,4.14-3.39,8.17-4.89,12.33-2.99,8.33-5.83,16.72-8.73,25.08-.1,.29-.14,.6-.27,1.22Zm23.33,101.78c-12.23,2.14-24.43,1.62-36.82,1.54,.18,1.89,.28,3.64,.55,5.36,.05,.35,.73,.82,1.15,.85,2.02,.16,4.06,.17,6.08,.28,7.2,.37,14.37,.13,21.46-1.26,3-.59,5.98-1.29,9.16-1.99-.52-1.57-1.03-3.1-1.59-4.79Z"/>
    <path d="M431.24,502.06c.71,1.11,.54,1.66-.77,1.69-5.22,.1-10.42,.94-15.66,.25-6.29-.83-12.59-1.56-18.88-2.35-.35-.04-.7-.18-1.05-.24-1.07-.19-1.44-.72-1.65-1.9-.7-3.95-1.33-7.97-2.61-11.76-3.63-10.78-4.69-21.6-2.02-32.77,1.51-6.32,2.65-12.74,3.76-19.15,.33-1.93,.13-3.97,0-5.95-.63-9.96-1.39-19.92-1.97-29.88-.47-7.97,.06-15.89,1.97-23.67,1.43-5.81,3.74-11.13,8.42-15.12,.54-.46,1.18-.81,1.8-1.15,5-2.75,10.43-4.39,15.81-6.18,8.87-2.95,17.99-4.65,27.26-5.64,1.54-.16,1.58-.03,1.7,1.48,.17,2.04-.41,3.71-1.49,5.47-1.36,2.22-2.32,4.72-3.23,7.18-2.86,7.76-5.16,15.69-7.03,23.75-.22,.96-.19,1.62,.9,1.89,1.12,.28,1.37,1.05,1.22,2.11-.79,5.65-1.69,11.3-2.31,16.97-1.4,12.74-3.23,25.47-3.83,38.25-.62,13.14-.06,26.35,.14,39.52,.08,5.34,.57,10.68,.87,16.02,.07,1.18-.18,1.39-1.37,1.22-.25-2.45-.61-4.89-.74-7.34-.73-13.4-.79-26.82-.6-40.24,.06-4.43-.21-8.89,.21-13.28,1.14-11.92,2.53-23.82,3.91-35.72,.57-4.96,1.36-9.89,2.05-14.83,.11-.8,.05-1.44-1.06-1.38-.08,.37-.18,.71-.23,1.06-.99,6.07-2.11,12.12-2.93,18.21-2.14,15.88-3.89,31.8-3.92,47.84-.01,7.9,.26,15.8,.53,23.7,.15,4.26,.58,8.5,.85,12.75,.18,2.71,.32,5.42,.44,8.13,.05,1.08,.51,1.43,1.52,1.08Zm-.81-149.77c-.27,.05-.58,.07-.88,.16-3.32,.98-6.68,1.84-9.94,2.99-4.81,1.7-9.59,3.51-14.3,5.47-3.52,1.47-6.49,3.73-8.24,7.29-.47,.97-.95,1.94-1.34,2.94-3.2,8.22-4.14,16.83-3.8,25.54,.38,9.77,1.15,19.53,1.76,29.3,.04,.72,.13,1.44,.2,2.16,.28-.29,.38-.58,.45-.88,2.32-10.08,5.18-20.02,8.37-29.86,1.88-5.81,3.68-11.64,5.57-17.45,.13-.39,.64-.65,.98-.97,.19,.43,.61,.91,.53,1.27-.41,1.83-.85,3.66-1.46,5.43-5.86,16.86-10.96,33.93-14.53,51.43-.54,2.62-1.1,5.24-1.62,7.86-.52,2.65-1,5.32-1.5,8,.38,.13,.63,.27,.9,.31,2.52,.39,5.04,.8,7.57,1.15,1.9,.27,2.63,.92,2.72,2.84,.06,1.31,.01,2.64-.12,3.95-.94,9.55-1.58,19.1-1.46,28.7,0,.5-.13,1.01-.22,1.64,8.94,1.45,17.94,2.5,27.29,2.55,0-1.17,.05-2.15,0-3.12-.22-3.75-.51-7.49-.7-11.24-1.53-30.28,1.16-60.25,6.62-90.01,.17-.9-.12-1.12-.87-1.43-2.25-.91-4.56-1.75-6.64-2.97-3.09-1.82-3.91-3.81-3.09-7.27,1.21-5.12,2.47-10.24,3.97-15.29,1.05-3.53,2.51-6.94,3.82-10.49Zm15.42-2.05c-.11-.12-.23-.25-.34-.37-3.86,.55-7.72,1.11-11.58,1.62-.86,.11-1.32,.55-1.68,1.3-4.07,8.44-6.48,17.4-8.23,26.56-.23,1.2-.01,2.35,.85,3.24,2.42,2.5,5.61,3.45,8.85,4.51,.13-.5,.2-.81,.29-1.11,2.19-7.59,4.3-15.2,6.61-22.75,1.12-3.65,2.33-7.29,4.6-10.47,.47-.66,.44-1.68,.64-2.53Zm-55.53,104.62c-.15,.81-.3,1.67-.48,2.53-1.32,6.15-1.88,12.35-.5,18.53,1.02,4.58,2.38,9.09,3.61,13.63,.07,.27,.33,.63,.57,.69,1.72,.42,3.46,.76,5.25,1.15-.04-.64-.09-1.03-.09-1.42-.07-8.15,.21-16.28,1.05-24.39,.28-2.66,.37-5.33,.52-8,.05-.84-.23-1.41-1.24-1.53-2.84-.33-5.68-.76-8.69-1.18Zm3.5,37.22c.32,2.15,.72,4.15,.88,6.16,.1,1.22,.57,1.76,1.76,1.9,6.38,.74,12.74,1.65,19.13,2.22,3.36,.3,6.77,.04,10.15-.03,.81-.02,1.61-.27,2.46-.42-.28-2.21-.53-4.21-.78-6.1-11.37-.2-22.47-1.61-33.6-3.73Z"/>
  </g>
</svg>