<?xml version="1.0" encoding="UTF-8"?>
<svg id="_항공_이미지" data-name="항공 이미지" xmlns="http://www.w3.org/2000/svg" viewBox="0 0 163.95 203.92">
  <defs>
    <style>
      .cls-1 {
        fill: #fff;
      }
    </style>
  </defs>
  <g id="_색" data-name="색">
    <path class="cls-1" d="M111.05,29.74c.62-6.04,1.1-12.1,1.61-18.15,.26-3.01,.35-6.04,.53-9.2,3.03-.23,6.08-.55,9.14-.66,3.98-.14,7.98-.29,11.95-.1,4.57,.22,7.8,2.77,10.01,6.67,2.33,4.12,3.56,8.62,4.52,13.21,1.3,6.23,1.9,12.53,2.2,18.88,.47,9.69,1.42,19.34,3,28.92,1.51,9.18,2.86,18.37,4.42,27.54,.83,4.87,1.77,9.74,2.97,14.54,1.53,6.12,1.38,12.14-.22,18.2-2.26,8.56-5.44,16.76-9.21,24.77-5.65,11.99-11.05,24.09-16.53,36.16-1.46,3.24-2.8,6.53-4.21,9.79-.04,.1-.14,.17-.33,.38-.5-3.26-1.04-6.39-1.46-9.53-.74-5.58-1.42-11.16-2.11-16.74-.49-3.86-.99-7.71-1.39-11.58-.06-.55,.4-1.16,.66-1.86-.17-.07-.52-.2-1.1-.41,.3-1.86,.54-3.78,.93-5.67,2.42-11.91,5.57-23.64,9.1-35.25,.71-2.33,.15-4.28-.2-6.33-2.62-15.31-5.3-30.6-8.06-45.88-1.53-8.53-3.41-16.99-5.94-25.29-1.33-4.36-3.44-8.24-6.61-11.53-.22-.23-.42-.5-.69-.65-.17-.09-.43,0-.66,.01l-2.32-.24Z"/>
    <path class="cls-1" d="M120.45,125.56c.15-.03,.27-.16,.4-.28l1.13,.02c-.18,.28-.37,.56-.48,.87-.12,.32-.11,.71-.11,1.07,.02,3.68,.73,7.25,2.42,10.51,.69,1.34,1.91,2.42,2.94,3.57,.22,.25,.68,.28,1.03,.41,.07-.1,.14-.21,.21-.32l.82,.21c-1.04,4.07-2.08,8.14-3.11,12.22-.5,1.97-.75,4-1.04,6.01-.1,.68-.31,.95-1.04,.97-9.3,.2-18.6,.42-27.9,.68-1.09,.03-1.35-.32-1.35-1.34-.04-11.46,.84-22.81,3.49-34.17,7.24-.13,14.38-.26,21.52-.39,.36-.01,.73,.03,1.07-.04Z"/>
    <path class="cls-1" d="M110.57,34.25c.17-1.5,.33-3,.48-4.51l2.32,.24c.02,.22,.02,.44,.07,.65,.03,.1,.16,.17,.24,.26,3.83,3.81,5.95,8.51,7.39,13.63,2.83,10.01,4.82,20.19,6.63,30.42,2.39,13.6,4.77,27.2,7.09,40.81,.19,1.09,.04,2.31-.23,3.4-1.9,7.49-3.83,14.98-5.75,22.47l-.82-.21c-.21-.26-.38-.55-.62-.77-4.33-3.88-5-9.02-4.95-14.41,.01-.4-.17-.81-.27-1.22-.05,.1-.11,.19-.17,.29l-1.13-.02s.09-.07,.13-.11c-.18-.18-.33-.45-.54-.5-.34-.09-.71-.05-1.07-.05-7.03,.14-14.05,.28-21.08,.46-.35,.01-.91,.37-.99,.66-.69,2.61-1.47,5.21-1.91,7.86-1.47,8.97-2.07,18.01-1.96,27.09,.01,.2-.02,.4-.04,.76-2.48,.13-4.96,.26-7.63,.4,0-.65-.01-1.16,0-1.66,.2-7.95,.4-15.9,.59-23.84,.24-10.27,.46-20.53,.69-30.79,.24-10.31,.37-20.61,.78-30.91,.23-5.82,.93-11.62,1.42-17.43,.03-.35,.13-.69,.23-1.15,.73,.09,1.43,.18,2.13,.26,5.04,.53,10.04,.01,15.04-.61,.76-.1,1.03-.26,1.15-1.19,.86-6.77,2.01-13.51,2.78-20.28Z"/>
    <path class="cls-1" d="M112.11,2.52c-.25,17.61-2.79,34.87-5.38,52.23-5.62,.73-11.35,1.3-17.29,.32,1.21-8.61,2.44-17.13,3.58-25.66,1.15-8.52,2.52-17.01,2.65-25.74,5.3-.37,10.77-.75,16.44-1.15Z"/>
    <path class="cls-1" d="M125.76,172.65c-2.18-.12-4.13-.32-6.08-.32-11.02,0-22.04,.05-33.07,.08-.21,0-.43-.01-.64-.01,.03-.53,.03-1.2,.03-1.32,0-1.64-.1-3.27-.14-4.91-.03-1.1-.01-2.2-.01-3.47,12.91-.3,25.66-.59,38.49-.88,.48,3.62,.93,7.13,1.42,10.83Z"/>
    <path class="cls-1" d="M59.72,171.79c.16-1.74,.43-3.39,.45-5.05,.06-5.14,.29-10.26,.68-15.39,.82-10.79,1.55-21.58,2.33-32.36,.28-3.9,.75-7.8,.82-11.7,.05-2.42-.49-4.84-.75-7.26-.69-6.34-1.45-12.69-2.05-19.05-.66-6.91-1.01-13.86-1.79-20.76-.58-5.08,.45-10,.89-14.98,.51-5.81,1.05-11.61,1.59-17.41,.07-.78,.18-1.56,.31-2.59,.53,.49,.92,.81,1.26,1.17,1.66,1.78,3.35,3.54,4.94,5.38,.39,.45,.65,1.23,.58,1.81-.45,3.88-1.02,7.75-1.53,11.63-.38,2.85-.93,5.7-1.01,8.56-.08,2.73,.31,5.49,.56,8.23,.41,4.6,.92,9.2,1.31,13.81,.43,5.01,.78,10.02,1.15,15.04,.48,6.44,1.33,12.89,1.32,19.34-.01,6.33-.86,12.66-1.42,18.99-.63,7.07-1.37,14.14-2.03,21.22-.54,5.76-1.05,11.53-1.55,17.29-.09,1.08-.08,2.16-.2,3.23-.03,.3-.36,.8-.57,.81-1.82,.06-3.64,.04-5.29,.04Z"/>
    <path class="cls-1" d="M62.03,5.63c.11-.02,.23,.02,.41,.05,0,2.78,.2,5.57-.04,8.32-.67,7.63-1.51,15.24-2.29,22.85-.56,5.52-1.13,11.03-1.71,16.55-.02,.19-.1,.37-.18,.62-4.45-.27-8.84-.74-12.99-2.43-1.99-.81-2.73-2.06-2.49-4.28,.95-8.72,1.92-17.44,2.98-26.15,.49-3.95,1.18-7.89,1.84-11.82,.06-.39,.51-.94,.86-1.01,4.53-.95,9.07-1.82,13.61-2.7Z"/>
    <path class="cls-1" d="M33.27,126.62c2.23-.09,4.48,.03,6.7-.12,1.27-.09,1.65,.48,1.69,1.53,.15,4.22,.48,8.45,.39,12.67-.13,5.86-.58,11.72-.87,17.57-.04,.69-.06,1.25-1.01,1.25-5.54,.01-11.09,.06-16.64,.09-.11,0-.22-.06-.39-.11-.58-6.03-.25-11.81,2.46-17.35,2.37-4.83,4.4-9.83,6.62-14.73,.16-.36,.68-.78,1.05-.8Z"/>
    <path class="cls-1" d="M35.74,125.7c-.86,.02-1.73,.01-2.8,.01,.2-.6,.32-.96,.44-1.33,1.5-4.42,2.84-8.91,4.58-13.23,.8-2,.38-3.39-.64-5.01-6.96-11.06-13.17-22.55-18.96-34.26-5.7-11.5-10.58-23.34-13.41-35.93-.18-.78-.24-1.58-.44-2.35-.17-.68-.47-1.33-.85-1.98,2.44-6.8,6.34-12.44,13.3-15.56,6.12-2.75,12.55-4.15,19.14-5.07,2.91-.41,5.79-1.08,8.67-1.68,.57-.11,1.09-.46,1.95-.85-.3,1.99-.58,3.7-.81,5.41-1.1,8.47-2.22,16.94-3.29,25.41-.33,2.65-.54,5.32-.79,7.98-.25,2.58,.6,4.39,3.08,5.18,3.02,.96,6.15,1.7,9.29,2.15,3.37,.48,3.49,.28,3.84,3.65,.46,4.45,.74,8.91,1.15,13.37,.49,5.16,1.05,10.32,1.57,15.48,.25,2.42,.44,4.85,.73,7.26,.5,4.04,1.14,8.06,1.55,12.1,.17,1.64-.09,3.34-.2,5-.33,5.14-.67,10.28-1.02,15.42-.71,10.23-1.44,20.47-2.14,30.71-.04,.65-.23,.94-.89,.96-1.55,.06-3.11,.15-4.66,.24-3.59,.2-7.18,.4-10.76,.6-.4,.02-.79,0-1.29,0,.24-4.65,.53-9.15,.71-13.65,.25-6.11,.62-12.22-.31-18.3-.28-1.88-.35-1.89-2.19-1.86-1.51,.02-3.03,.1-4.55,.13Z"/>
    <path class="cls-1" d="M19.9,169.57c.82-2.33,1.61-4.67,2.47-7,.3-.8,.61-1.57,1.79-1.56,11.18,.04,22.35-.36,33.51-1.09,.53-.04,1.08-.01,1.8-.01-.15,3.46-.25,6.76-.46,10.06-.07,1.16-.9,1.83-2.12,1.86-3.11,.07-6.22,.17-9.33,.12-9.41-.15-18.8-.38-28.2-.52,.14-.32,.3-.99,.42-1.44,.05-.19,.09-.34,.12-.42Z"/>
    <path class="cls-1" d="M2.61,34.52c.09-.33,.21-.66,.33-1,.91,3.52,1.67,7.03,2.72,10.45,3.78,12.38,9.07,24.11,15.07,35.56,4.92,9.41,10.12,18.67,15.66,27.73,.61,1,.74,1.86,.38,3.08-3.14,10.69-7.54,20.86-12.17,30.95-1.25,2.74-2.12,5.65-3.06,8.21-.75-3.12-1.61-6.64-2.46-10.16-3.51-14.5-7.06-28.99-10.53-43.5-2.5-10.44-4.35-21.01-5.44-31.7-.63-6.15-1.24-12.3-1.68-18.47-.27-3.75,.21-7.49,1.18-11.15Z"/>
  </g>
  <g id="_선" data-name="선">
    <path d="M126.75,141.32c.22,.25,.68,.28,1.03,.41,.07-.1,.14-.21,.21-.32-.21-.26-.38-.55-.62-.77-4.33-3.88-5-9.02-4.95-14.41,.01-.4-.17-.81-.27-1.22-.05,.1-.11,.19-.17,.29-.18,.28-.37,.56-.48,.87-.12,.32-.11,.71-.11,1.07,.02,3.68,.73,7.25,2.42,10.51,.69,1.34,1.91,2.42,2.94,3.57Z"/>
    <path d="M163.27,113.49c-1.23-5.32-2.44-10.66-3.37-16.04-1.7-9.87-3.2-19.77-4.78-29.66-1.42-8.96-2.3-17.97-2.72-27.03-.31-6.71-.94-13.37-2.36-19.95-1-4.58-2.26-9.07-4.58-13.19-2.3-4.07-5.68-6.67-10.37-7.29-1.52-.2-3.07-.33-4.61-.33-.53,0-1.07,.02-1.6,.05-6.45,.4-12.9,.94-19.34,1.46-4.5,.37-8.99,.79-13.48,1.15-.64,.05-1.29-.06-1.72-.09,0,2.93,.29,5.75-.05,8.49-1.41,11.65-3.13,23.26-4.5,34.92-1.19,10.1-2.3,20.23-2.97,30.38-.58,8.72-.48,17.49-.7,26.23-.4,15.94-.88,31.87-1.19,47.8-.13,6.91,.07,13.82,.15,20.73,0,.14,.02,.96,.09,1.47-.12,.09-.24,.21-.36,.3,.2,.15,.38,.34,.6,.43,.17,.07,.39,.02,.59,.02,9.11-.03,18.21-.1,27.32-.08,3.87,.01,7.74,.2,11.61,.28,.68,.02,1.02,.23,1.1,.94,.3,2.81,.59,5.63,.98,8.44,.9,6.4,1.85,12.79,2.82,19.18,.1,.64,.56,1.22,.86,1.82,.41-.53,.96-1.01,1.22-1.62,1.61-3.69,3.07-7.46,4.73-11.13,5.63-12.43,11.29-24.86,17.03-37.25,4.39-9.48,8.18-19.17,9.88-29.54,.27-1.6,.4-3.2,.4-4.81,0-2.02-.22-4.05-.68-6.08ZM93.02,29.41c1.15-8.52,2.52-17.01,2.65-25.74,5.3-.37,10.77-.75,16.44-1.15-.25,17.61-2.79,34.87-5.38,52.23-5.62,.73-11.35,1.3-17.29,.32,1.21-8.61,2.44-17.13,3.58-25.66Zm26.66,142.92c-11.02,0-22.04,.05-33.07,.08-.21,0-.43,0-.64,0,.03-.53,.03-1.2,.03-1.32,0-1.64-.1-3.27-.14-4.91-.03-1.1-.01-2.2-.01-3.47,12.91-.3,25.66-.59,38.49-.88,.48,3.62,.93,7.13,1.42,10.83-2.18-.12-4.13-.32-6.08-.32Zm41.5-42.74c-2.26,8.56-5.44,16.76-9.21,24.77-5.65,11.99-11.05,24.09-16.53,36.16-1.46,3.24-2.8,6.53-4.21,9.79-.04,.1-.14,.17-.33,.38-.5-3.26-1.04-6.39-1.46-9.53-.74-5.58-1.42-11.16-2.11-16.74-.49-3.86-.99-7.71-1.39-11.58-.06-.55,.4-1.16,.66-1.86-.17-.07-.52-.2-1.1-.41,.3-1.86,.54-3.78,.93-5.67,2.42-11.91,5.57-23.64,9.1-35.25,.71-2.33,.15-4.28-.2-6.33-2.62-15.31-5.3-30.6-8.06-45.88-1.53-8.53-3.41-16.99-5.94-25.29-1.33-4.36-3.44-8.24-6.61-11.53-.22-.23-.42-.5-.69-.65-.17-.09-.43,0-.66,.01,.02,.22,.02,.44,.07,.65,.03,.1,.16,.17,.24,.26,3.83,3.81,5.95,8.51,7.39,13.63,2.83,10.01,4.82,20.19,6.63,30.42,2.39,13.6,4.77,27.2,7.09,40.81,.19,1.09,.04,2.31-.23,3.4-1.9,7.49-3.83,14.98-5.75,22.47-1.04,4.07-2.08,8.14-3.11,12.22-.5,1.97-.75,4-1.04,6.01-.1,.68-.31,.95-1.04,.97-9.3,.2-18.6,.42-27.9,.68-1.09,.03-1.35-.32-1.35-1.34-.04-11.46,.84-22.81,3.49-34.17,7.24-.13,14.38-.26,21.52-.39,.36,0,.73,.03,1.07-.04,.15-.03,.27-.16,.4-.28,.04-.04,.09-.07,.13-.11-.18-.18-.33-.45-.54-.5-.34-.09-.71-.05-1.07-.05-7.03,.14-14.05,.28-21.08,.46-.35,.01-.91,.37-.99,.66-.69,2.61-1.47,5.21-1.91,7.86-1.47,8.97-2.07,18.01-1.96,27.09,.01,.2-.02,.4-.04,.76-2.48,.13-4.96,.26-7.63,.4,0-.65-.01-1.16,0-1.66,.2-7.95,.4-15.9,.59-23.84,.24-10.27,.46-20.53,.69-30.79,.24-10.31,.37-20.61,.78-30.91,.23-5.82,.93-11.62,1.42-17.43,.03-.35,.13-.69,.23-1.15,.73,.09,1.43,.18,2.13,.26,5.04,.53,10.04,.01,15.04-.61,.76-.1,1.03-.26,1.15-1.19,.86-6.77,2.01-13.51,2.78-20.28,.17-1.5,.33-3,.48-4.51,.62-6.04,1.1-12.1,1.61-18.15,.26-3.01,.35-6.04,.53-9.2,3.03-.23,6.08-.55,9.14-.66,3.98-.14,7.98-.29,11.95-.1,4.57,.22,7.8,2.77,10.01,6.67,2.33,4.12,3.56,8.62,4.52,13.21,1.3,6.23,1.9,12.53,2.2,18.88,.47,9.69,1.42,19.34,3,28.92,1.51,9.18,2.86,18.37,4.42,27.54,.83,4.87,1.77,9.74,2.97,14.54,1.53,6.12,1.38,12.14-.22,18.2Z"/>
    <path d="M70.55,94.51c-.95-11.49-1.92-22.98-2.84-34.48-.19-2.42-.48-4.89-.22-7.28,.67-6.19,1.58-12.35,2.47-18.51,.17-1.16-.06-2.19-.74-2.96-2.01-2.26-4.11-4.46-6.28-6.57-.51-.5-.68-.86-.61-1.49,.3-2.49,.62-4.99,.84-7.49,.28-3.09,.59-6.19,.65-9.28,.04-2.15-.15-2.16-2.26-1.67-.08,0-.16,.03-.24,.04-5.25,1.01-10.49,2.04-15.75,3.03-3.56,.68-7.12,1.43-10.72,1.92-6.52,.9-12.83,2.49-18.83,5.26-3.82,1.77-6.96,4.33-9.39,7.77C1.2,30.45-.55,39.08,.14,48.26c.42,5.69,1.14,11.35,1.74,17.02,1.13,10.57,2.99,21.01,5.47,31.34,4.02,16.76,8.15,33.5,12.16,50.26,.98,4.06,2.18,8.1,2.2,12.34,0,.69-.09,1.42-.31,2.07-.99,2.91-2.07,5.79-3.05,8.7-.1,.3-.62,1.75-.5,2.12,.48,.23,.95,.64,1.43,.66,2.39,.09,4.79,.08,7.19,.11,9.82,.13,19.64,.26,29.46,.37,.51,.01,1.21,.09,1.51-.2,.61-.59,1.21-.32,1.85-.31,2.34,.03,4.68,.01,7.08,.01,.23-3.16,.39-6.06,.65-8.95,.57-6.32,1.19-12.64,1.79-18.96,.68-7.07,1.47-14.14,2.01-21.22,.46-6.06,1.49-12.11,.63-18.24-.51-3.6-.61-7.24-.9-10.87ZM48.42,8.33c4.53-.95,9.07-1.82,13.61-2.7,.11-.02,.23,.02,.41,.05,0,2.78,.2,5.57-.04,8.32-.67,7.63-1.51,15.24-2.29,22.85-.56,5.52-1.13,11.03-1.71,16.55-.02,.19-.1,.37-.18,.62-4.45-.27-8.84-.74-12.99-2.43-1.99-.81-2.73-2.06-2.49-4.28,.95-8.72,1.92-17.44,2.98-26.15,.49-3.95,1.18-7.89,1.84-11.82,.06-.39,.51-.94,.86-1.01ZM21.54,149.5c-.75-3.12-1.61-6.64-2.46-10.16-3.51-14.5-7.06-28.99-10.53-43.5-2.5-10.44-4.35-21.01-5.44-31.7-.63-6.15-1.24-12.3-1.68-18.47-.27-3.75,.21-7.49,1.18-11.15,.09-.33,.21-.66,.33-1,.91,3.52,1.67,7.03,2.72,10.45,3.78,12.38,9.07,24.11,15.07,35.56,4.92,9.41,10.12,18.67,15.66,27.73,.61,1,.74,1.86,.38,3.08-3.14,10.69-7.54,20.86-12.17,30.95-1.25,2.74-2.12,5.65-3.06,8.21Zm11.73-22.88c2.23-.09,4.48,.03,6.7-.12,1.27-.09,1.65,.48,1.69,1.53,.15,4.22,.48,8.45,.39,12.67-.13,5.86-.58,11.72-.87,17.57-.04,.69-.06,1.25-1.01,1.25-5.54,.01-11.09,.06-16.64,.09-.11,0-.22-.06-.39-.11-.58-6.03-.25-11.81,2.46-17.35,2.37-4.83,4.4-9.83,6.62-14.73,.16-.36,.68-.78,1.05-.8Zm25.74,43.35c-.07,1.16-.9,1.83-2.12,1.86-3.11,.07-6.22,.17-9.33,.12-9.41-.15-18.8-.38-28.2-.52,.14-.32,.3-.99,.42-1.44,.05-.19,.09-.34,.12-.42,.82-2.33,1.61-4.67,2.47-7,.3-.8,.61-1.57,1.79-1.56,11.18,.04,22.35-.36,33.51-1.09,.53-.04,1.08-.01,1.8-.01-.15,3.46-.25,6.76-.46,10.06Zm-.22-11.43c-1.55,.06-3.11,.15-4.66,.24-3.59,.2-7.18,.4-10.76,.6-.4,.02-.79,0-1.29,0,.24-4.65,.53-9.15,.71-13.65,.25-6.11,.62-12.22-.31-18.3-.28-1.88-.35-1.89-2.19-1.86-1.51,.02-3.03,.1-4.55,.13-.86,.02-1.73,.01-2.8,.01,.2-.6,.32-.96,.44-1.33,1.5-4.42,2.84-8.91,4.58-13.23,.8-2,.38-3.39-.64-5.01-6.96-11.06-13.17-22.55-18.96-34.26-5.7-11.5-10.58-23.34-13.41-35.93-.18-.78-.24-1.58-.44-2.35-.17-.68-.47-1.33-.85-1.98,2.44-6.8,6.34-12.44,13.3-15.56,6.12-2.75,12.55-4.15,19.14-5.07,2.91-.41,5.79-1.08,8.67-1.68,.57-.11,1.09-.46,1.95-.85-.3,1.99-.58,3.7-.81,5.41-1.1,8.47-2.22,16.94-3.29,25.41-.33,2.65-.54,5.32-.79,7.98-.25,2.58,.6,4.39,3.08,5.18,3.02,.96,6.15,1.7,9.29,2.15,3.37,.48,3.49,.28,3.84,3.65,.46,4.45,.74,8.91,1.15,13.37,.49,5.16,1.05,10.32,1.57,15.48,.25,2.42,.44,4.85,.73,7.26,.5,4.04,1.14,8.06,1.55,12.1,.17,1.64-.09,3.34-.2,5-.33,5.14-.67,10.28-1.02,15.42-.71,10.23-1.44,20.47-2.14,30.71-.04,.65-.23,.94-.89,.96Zm10.57-29.34c-.63,7.07-1.37,14.14-2.03,21.22-.54,5.76-1.05,11.53-1.55,17.29-.09,1.08-.08,2.16-.2,3.23-.03,.3-.36,.8-.57,.81-1.82,.06-3.64,.04-5.29,.04,.16-1.74,.43-3.39,.45-5.05,.06-5.14,.29-10.26,.68-15.39,.82-10.79,1.55-21.58,2.33-32.36,.28-3.9,.75-7.8,.82-11.7,.05-2.42-.49-4.84-.75-7.26-.69-6.34-1.45-12.69-2.05-19.05-.66-6.91-1.01-13.86-1.79-20.76-.58-5.08,.45-10,.89-14.98,.51-5.81,1.05-11.61,1.59-17.41,.07-.78,.18-1.56,.31-2.59,.53,.49,.92,.81,1.26,1.17,1.66,1.78,3.35,3.54,4.94,5.38,.39,.45,.65,1.23,.58,1.81-.45,3.88-1.02,7.75-1.53,11.63-.38,2.85-.93,5.7-1.01,8.56-.08,2.73,.31,5.49,.56,8.23,.41,4.6,.92,9.2,1.31,13.81,.43,5.01,.78,10.02,1.15,15.04,.48,6.44,1.33,12.89,1.32,19.34-.01,6.33-.86,12.66-1.42,18.99Z"/>
  </g>
</svg>