<?xml version="1.0" encoding="UTF-8"?>
<svg id="_무스탕_이미지" data-name="무스탕 이미지" xmlns="http://www.w3.org/2000/svg" viewBox="0 0 162.57 207.6">
  <defs>
    <style>
      .cls-1 {
        fill: #fff;
      }
    </style>
  </defs>
  <g id="_색" data-name="색">
    <path class="cls-1" d="M138,19.1c-.06,.13-.09,.31-.19,.39-6.28,4.82-10.24,11.33-13.27,18.47-1.06,2.5-1.86,5.1-2.81,7.64-.29,.77-.21,1.77-1.28,2.12-.12,.04-.19,.67-.08,.96,3.66,9.71,4.64,20.02,6.63,30.1,1.6,8.1,3.12,16.22,4.68,24.33,1.4,7.29,2.75,14.59,4.25,21.86,.33,1.6,.21,2.98-.35,4.48-3.01,8.12-5.96,16.27-8.9,24.42-.22,.6-.51,.76-1.13,.76-9.86-.09-19.72-.2-29.59-.22-4.43-.01-8.86,.13-13.3,.2-1.18,.02-2.35,.06-3.64,.1,1.42-31.14,5.61-62.29,9.45-93.54h4.05c0,1.07-.15,2.09,.03,3.05,.59,3.31-.3,6.55-.32,9.83-.01,2.05,.34,2.72,2.31,3.37,2.95,.98,5.97,1.43,9.08,.92,2.18-.36,3.34-1.47,3.53-3.65,.23-2.62,.45-5.25,.48-7.88,.02-1.66-.32-3.32-.52-5.26h5.55c1.2-10.82,1.7-21.42,1.92-32.03,.09-4.15,.54-8.28,.8-12.43,.05-.71,.28-.99,1.06-1.08,2.57-.29,5.13-.78,7.7-1.04,2.97-.3,5.93-.06,8.71,1.07,1.34,.55,2.51,1.49,3.76,2.25,.47,.28,.94,.56,1.41,.84l-.03-.02Z"/>
    <path class="cls-1" d="M148.81,162.75c-6.62-3.76-13.69-6-21.01-7.91,.22-.7,.38-1.26,.58-1.81,3.18-8.74,6.36-17.48,9.54-26.23,.15-.41,.35-.83,.37-1.25,.02-.3-.22-.87-.34-.87-.97,0-.9-.75-1.01-1.32-3.04-15.87-6.06-31.75-9.11-47.61-1.48-7.68-3.04-15.34-4.57-23.01-.02-.08-.02-.16-.05-.23-1.35-2.56-.73-5.02,.14-7.59,2.22-6.5,4.94-12.73,9.17-18.21,2.39-3.1,5.14-5.8,8.6-7.69,.84-.46,1.75-.77,2.62-1.16,.87-.39,1.33-.13,1.51,.81,1.03,5.41,2.18,10.79,3.08,16.22,1.12,6.69,2.14,13.4,3,20.12,.9,7,1.5,14.04,2.34,21.06,.76,6.34,1.58,12.67,2.52,18.98,1.47,9.9,3.07,19.79,4.58,29.69,.76,4.97,.15,9.73-1.91,14.38-3.22,7.26-6.2,14.63-9.28,21.96-.21,.5-.45,1-.76,1.68Z"/>
    <path class="cls-1" d="M95.39,1.64c1.2,.36,2.29,.58,3.3,1.02,3.74,1.6,7.46,3.25,11.17,4.94,.9,.41,1.76,.97,2.52,1.6,.86,.71,1.61,1.54,1.1,2.88-.19,.49-.07,1.11-.08,1.67-.33,11.78-.61,23.55-1.03,35.32-.13,3.74-.66,7.46-1,11.14-7.56,.9-15-.35-22.59-.63,0-.29-.04-.6,0-.89,1.38-9.6,2.76-19.2,4.16-28.8,.74-5.05,1.73-10.08,2.23-15.16,.38-3.88,.17-7.82,.23-11.73,0-.39,0-.78,0-1.36Z"/>
    <path class="cls-1" d="M93.98,16.32c-7.75,51.6-14.62,103.23-16.94,155.33h-6.24c0-1.91-.07-3.69,.01-5.46,.36-7.86,.7-15.71,1.15-23.57,.37-6.45,.86-12.9,1.35-19.35,.46-6.05,.95-12.09,1.53-18.13,.59-6.23,1.25-12.47,1.98-18.69,.78-6.7,1.63-13.38,2.55-20.06,.93-6.8,1.94-13.58,2.97-20.37,1.14-7.49,2.33-14.98,3.52-22.46,.05-.35,.12-.76,.33-1,2.11-2.42,4.38-4.66,7.27-6.15,.1-.05,.23-.04,.53-.09Z"/>
    <path class="cls-1" d="M125.98,155.8c-.7,2.65-1.3,4.95-1.92,7.25-.27,1-.47,2.03-.85,2.99-.59,1.51,.5,2.73,.56,4.12,.03,.63,.17,1.25,.28,2.04-1.72,.11-3.37,.3-5.02,.32-9.49,.11-18.99,.22-28.48,.26-3.66,.02-7.33-.17-10.99-.21-.92,0-.94-.58-.94-1.18,0-2.16-.02-4.31,.05-6.47,.08-2.27,.25-4.54,.4-6.81,.1-1.39,.82-2.07,2.22-2.08,12.97-.08,25.93-.16,38.9-.23,1.86-.01,3.73,0,5.78,0Z"/>
    <path class="cls-1" d="M141.34,179.34c-5.33-2.84-10.52-5.6-15.71-8.38-.19-.1-.42-.31-.44-.49-.17-1.81-.84-3.56-.27-5.44,.8-2.63,1.44-5.31,2.16-7.96,.22-.82,1.32-1.49,2.15-1.28,6.64,1.68,13.05,3.95,19.08,7.25,.07,.04,.11,.11,.3,.33-2.43,5.33-4.89,10.75-7.27,15.98Z"/>
    <path class="cls-1" d="M126.19,172.74c4.46,2.44,8.5,4.6,12.48,6.86,.8,.46,1.37,1.33,2.04,2.01,.3,.31,.42,.71,1.09,.38,.51-.25,2.1,1.48,2,2.17-.14,.97-.27,2-.68,2.86-2.97,6.14-6,12.25-9.04,18.36-.61,1.23-1.72,1.07-2.74,.23-2.08-1.7-1.43-4.11-1.78-6.16-1.4-8.25-2.53-16.54-3.72-24.83-.07-.5,.18-1.04,.34-1.88Z"/>
    <path class="cls-1" d="M138.03,19.13c.55-.58,.31-1.03-.17-1.53-2.14-2.25-4.88-3.25-7.85-3.73-4.56-.73-9.05-.04-13.53,.78-.27,.05-.54,.07-.79,.1-.24-1.57-.47-3.1-.73-4.75,1.33-.18,2.73-.39,4.14-.56,5.72-.69,11.46-.92,17.14,.16,1.62,.31,3.09,1.37,4.67,1.96,2.19,.81,2.51,2.86,3.37,4.47-2.18,1.06-4.23,2.07-6.29,3.07,0,0,.02,.02,.02,.02Z"/>
    <path class="cls-1" d="M104.15,69c.3-.33,.49-.53,.72-.78,.07,.14,.18,.24,.17,.33-.2,2.02-.38,4.05-.65,6.07-.04,.3-.41,.69-.71,.81-2.48,.94-5,.92-7.47,0-.46-.17-1.05-.82-1.06-1.25,0-2.34,.17-4.69,.28-7.11,.24,.05,.5,.07,.5,.11,.15,1.34,1.17,1.25,2.1,1.33,1.35,.12,2.7,.28,4.05,.38,.45,.03,.91-.04,1.36-.07,0-.1,0-.2,0-.29-2.18-.21-4.37-.43-6.74-.66,.07-1.05,.07-2.04,.23-3,.04-.25,.62-.59,.92-.57,1.83,.14,3.65,.34,5.47,.61,.3,.04,.74,.5,.77,.8,.1,1.01,.04,2.04,.04,3.3Z"/>
    <path class="cls-1" d="M96.06,66.41c-.35,.04-.69,.07-1.12,.11-.11,2.63-.27,5.22-.28,7.81,0,.46,.52,1.16,.97,1.35,3.01,1.29,6.04,1.24,9.01-.18,.27-.13,.47-.61,.51-.95,.23-1.74,.4-3.49,.6-5.24,.09-.76,.2-1.5-.69-1.96-.17-.09-.14-.58-.2-.91,2.07,.05,2.24,.14,2.12,1.95-.15,2.47-.38,4.94-.68,7.39-.15,1.24-1.18,1.79-2.26,2-3.34,.65-6.59,.15-9.76-1.02-1.1-.4-1.67-1.14-1.55-2.38,.28-2.82,.53-5.64,.76-8.46,.12-1.42,1.08-.92,1.86-.88,1,.04,.91,.63,.7,1.37Z"/>
    <path class="cls-1" d="M106.33,61.71c.07,1.4,.13,2.76,.2,4.2-.72,.06-1.49,.34-1.61-.87-.02-.21-.49-.49-.78-.53-2.21-.28-4.43-.55-6.65-.73-.39-.03-.8,.47-1.23,.53-.7,.09-1.42,.03-2.13-.02-.25-.02-.5-.2-.9-.37,.04-.76,.08-1.7,.13-2.69,4.39,.17,8.69,.33,12.96,.49Z"/>
    <path class="cls-1" d="M62.67,57.08c.02,.26,.06,.46,.05,.65-.35,9.58-.66,19.16-1.08,28.73-.24,5.5-.59,11.01-1.04,16.5-.24,2.89-.62,5.81-1.27,8.63-3.18,14-6.48,27.97-9.73,41.95-.09,.38-.21,.75-.27,.98-7.77,.2-15.42,.39-23.24,.59,.16-.63,.28-1.08,.4-1.52,2.64-9.73,6.17-19.14,9.85-28.51,.71-1.82,1.36-3.67,2.04-5.5,.25-.67,.27-1.11-.64-1.27-.38-.07-.73-.55-1-.91-10.53-14.45-18.64-30.13-23.71-47.31-2.61-8.84-5.07-17.73-7.64-26.58-.39-1.34-.13-2.45,.46-3.65,4.02-8.18,10.58-12.84,19.48-14.5,5.03-.93,10.07-1.02,15.15-.91,.47,.01,.93,.14,1.45,.22-.53,2.71-1.11,5.31-1.52,7.93-1.03,6.54-1.99,13.1-2.96,19.65-.23,1.56,.17,1.91,1.73,2.12,2.81,.37,5.59,.92,8.4,1.26,3.72,.45,7.46,.78,11.19,1.14,1.26,.12,2.53,.2,3.91,.3Z"/>
    <path class="cls-1" d="M43.4,19.59c-.35,1.27-.66,2.41-1,3.64-.8-.04-1.55-.08-2.3-.11-6.82-.26-13.54,.16-20.1,2.29-7.24,2.35-11.99,7.35-15.37,13.91-.48,.94-1.46,1.68-.98,2.98,.39,1.04,.61,2.15,.9,3.22,3.27,11.89,6.47,23.8,10.8,35.37,3.81,10.17,8.43,19.92,14.69,28.84,2.16,3.07,4.2,6.22,6.22,9.38,.28,.44,.32,1.23,.14,1.73-2.1,5.73-4.38,11.4-6.38,17.17-1.84,5.31-3.42,10.72-5.06,16.1-.27,.89-.61,1.23-1.56,1.13-.99-.11-1.99-.02-3.18-.02-.53-2.54-1.16-5.33-1.69-8.15-1.52-8.16-3.18-16.29-4.46-24.49-1.95-12.52-5.14-24.75-8.06-37.06-1.7-7.16-2.52-14.53-3.58-21.83-.54-3.75-.88-7.53-1.05-11.32-.22-4.76,.14-9.5,1.23-14.15,1.14-4.88,3.82-8.7,8.04-11.48,6.49-4.27,13.6-6.62,21.36-6.93,3.39-.13,6.78-.18,10.18-.26,.35,0,.7,0,1.2,0Z"/>
    <path class="cls-1" d="M60.38,5.61c.51,2.96,.97,5.74,1.47,8.51,1.05,5.93,.94,11.92,.93,17.9-.02,7.27,0,14.53,0,21.8,0,.51,0,1.03,0,1.71-1.29,0-2.47,.09-3.64-.02-4.96-.44-9.92-.89-14.87-1.45-1.53-.17-3.02-.67-4.5-1.12-.24-.07-.48-.68-.44-1.01,.47-4,.75-8.04,1.53-11.97,1.76-8.83,3.78-17.62,5.67-26.42,.19-.89,.65-1.45,1.43-1.91,3.9-2.26,7.84-4.43,12.42-6.03Z"/>
    <path class="cls-1" d="M28.95,173.38c-2.26-.12-4.29-.2-6.32-.36-1.77-.14-2.04-.4-1.96-2.12,.15-3.26,.42-6.52,.59-9.79,.07-1.3-.25-2.66,.7-3.77,.29-.34,.72-.74,1.13-.78,1.36-.16,2.74-.22,4.12-.24,6.98-.12,13.97-.24,20.95-.29,2.57-.02,3.39,.66,3.38,3.24-.01,3.42-.37,6.84-.58,10.26-.01,.2-.06,.39-.08,.59-.24,2.25-.24,2.29-2.43,2.4-6.57,.31-13.13,.59-19.48,.86Z"/>
  </g>
  <g id="_선" data-name="선">
    <path d="M124.29,173.54c-1.03,.07-1.94,.18-2.85,.2-8.98,.18-17.96,.42-26.95,.48-4.43,.03-8.85-.28-13.28-.45-1.02-.04-2.11,.44-3.01-.57-.22-.25-.92-.11-1.4-.12-1.96-.03-3.92,.01-5.87-.11-1.55-.09-1.71-.3-1.64-1.85,.23-5.35,.51-10.69,.76-16.03,.22-4.71,.36-9.42,.66-14.12,.4-6.41,.87-12.82,1.37-19.23,.46-5.85,.95-11.7,1.5-17.54,.54-5.68,1.12-11.36,1.78-17.02,.78-6.7,1.62-13.39,2.53-20.07,1.01-7.39,2.12-14.77,3.23-22.14,1.05-6.98,2.16-13.96,3.29-20.93,.13-.79,.45-1.64,.93-2.27,2.15-2.88,4.73-5.28,8.04-6.83,.3-.14,.55-.72,.55-1.11,.04-4.11,.02-8.23,.01-12.34,0-1.51,.14-1.71,1.55-1.27,6.28,2,12.52,4.11,17.93,8.05,.34,.25,.89,.36,1.33,.31,2.58-.24,5.15-.64,7.73-.81,4.79-.31,9.59-.45,14.31,.57,1.56,.34,2.99,1.24,4.5,1.83,3.22,1.27,3.99,4.34,4.87,7.1,2.38,7.44,3.19,15.22,4.32,22.91,1.38,9.35,2.61,18.73,3.8,28.11,.76,5.98,1.15,12,1.99,17.96,1.09,7.74,2.52,15.43,3.68,23.16,.87,5.8,1.38,11.65,2.38,17.43,.76,4.42-.49,8.37-2.1,12.28-3.2,7.79-6.47,15.56-9.81,23.29-2.47,5.71-5.09,11.35-7.68,17.01-.35,.77-.4,1.24,.39,1.76,2.28,1.49,2.88,2.63,1.51,5.62-2.8,6.13-5.89,12.14-8.86,18.2-.23,.47-.46,.93-.71,1.39-.47,.84-1.16,1.3-2.16,1.21-.79-.07-1.64,0-2.35-.27-.49-.19-1.01-.84-1.11-1.36-.79-4.11-1.55-8.23-2.2-12.37-1.04-6.62-1.98-13.25-2.99-20.06Zm13.74-154.41c-.47-.28-.94-.56-1.41-.84-1.25-.76-2.42-1.71-3.76-2.25-2.78-1.13-5.74-1.37-8.71-1.07-2.58,.26-5.13,.75-7.7,1.04-.78,.09-1.01,.37-1.06,1.08-.26,4.14-.72,8.28-.8,12.43-.22,10.62-.72,21.21-1.92,32.03h-5.55c.21,1.95,.54,3.6,.52,5.26-.03,2.63-.25,5.26-.48,7.88-.19,2.18-1.36,3.28-3.53,3.65-3.11,.52-6.13,.07-9.08-.92-1.97-.65-2.32-1.33-2.31-3.37,.02-3.28,.91-6.52,.32-9.83-.17-.96-.03-1.98-.03-3.05h-4.05c-3.84,31.25-8.03,62.4-9.45,93.54,1.29-.04,2.47-.08,3.64-.1,4.43-.08,8.86-.22,13.3-.2,9.86,.03,19.72,.13,29.59,.22,.62,0,.91-.15,1.13-.76,2.94-8.15,5.88-16.3,8.9-24.42,.56-1.51,.68-2.88,.35-4.48-1.5-7.27-2.85-14.57-4.25-21.86-1.56-8.11-3.08-16.23-4.68-24.33-1.99-10.08-2.96-20.38-6.63-30.1-.11-.28-.04-.92,.08-.96,1.07-.35,.99-1.35,1.28-2.12,.95-2.54,1.75-5.14,2.81-7.64,3.03-7.15,6.99-13.65,13.27-18.47,.1-.08,.13-.26,.19-.39,2.06-1,4.11-2.01,6.29-3.07-.87-1.61-1.19-3.67-3.37-4.47-1.59-.58-3.05-1.65-4.67-1.96-5.68-1.08-11.42-.86-17.14-.16-1.41,.17-2.82,.38-4.14,.56,.25,1.65,.49,3.17,.73,4.75,.25-.03,.52-.05,.79-.1,4.48-.83,8.97-1.52,13.53-.78,2.96,.48,5.7,1.48,7.85,3.73,.48,.5,.72,.95,.17,1.53Zm10.78,143.63c.31-.68,.55-1.17,.76-1.68,3.08-7.32,6.06-14.69,9.28-21.96,2.06-4.66,2.67-9.42,1.91-14.38-1.51-9.9-3.11-19.78-4.58-29.69-.94-6.31-1.76-12.65-2.52-18.98-.84-7.01-1.44-14.05-2.34-21.06-.86-6.73-1.89-13.43-3-20.12-.9-5.43-2.06-10.81-3.08-16.22-.18-.94-.64-1.2-1.51-.81-.87,.39-1.79,.7-2.62,1.16-3.46,1.89-6.21,4.6-8.6,7.69-4.23,5.48-6.95,11.71-9.17,18.21-.88,2.57-1.5,5.03-.14,7.59,.04,.07,.04,.15,.05,.23,1.53,7.67,3.09,15.33,4.57,23.01,3.06,15.87,6.07,31.74,9.11,47.61,.11,.57,.04,1.32,1.01,1.32,.12,0,.36,.58,.34,.87-.03,.42-.22,.84-.37,1.25-3.18,8.74-6.36,17.48-9.54,26.23-.2,.55-.35,1.11-.58,1.81,7.32,1.91,14.39,4.15,21.01,7.91ZM95.39,1.64c0,.58,0,.97,0,1.36-.05,3.91,.16,7.85-.23,11.73-.5,5.08-1.49,10.1-2.23,15.16-1.4,9.6-2.78,19.2-4.16,28.8-.04,.29,0,.6,0,.89,7.59,.28,15.03,1.53,22.59,.63,.34-3.69,.86-7.41,1-11.14,.42-11.77,.7-23.55,1.03-35.32,.02-.56-.11-1.17,.08-1.67,.52-1.34-.24-2.16-1.1-2.88-.76-.63-1.62-1.19-2.52-1.6-3.7-1.69-7.43-3.34-11.17-4.94-1.01-.43-2.1-.65-3.3-1.02Zm-1.41,14.68c-.31,.05-.44,.04-.53,.09-2.89,1.49-5.16,3.73-7.27,6.15-.21,.25-.28,.66-.33,1-1.18,7.49-2.38,14.97-3.52,22.46-1.03,6.78-2.04,13.57-2.97,20.37-.91,6.68-1.76,13.37-2.55,20.06-.73,6.22-1.38,12.45-1.98,18.69-.57,6.04-1.06,12.08-1.53,18.13-.49,6.45-.98,12.9-1.35,19.35-.45,7.85-.8,15.71-1.15,23.57-.08,1.77-.01,3.55-.01,5.46h6.24c2.32-52.1,9.19-103.72,16.94-155.33Zm32,139.48c-2.05,0-3.92,0-5.78,0-12.97,.07-25.93,.14-38.9,.23-1.4,0-2.12,.69-2.22,2.08-.16,2.27-.32,4.54-.4,6.81-.08,2.15-.06,4.31-.05,6.47,0,.6,.03,1.17,.94,1.18,3.66,.04,7.33,.23,10.99,.21,9.49-.04,18.99-.14,28.48-.26,1.65-.02,3.3-.21,5.02-.32-.11-.78-.25-1.41-.28-2.04-.06-1.39-1.15-2.61-.56-4.12,.38-.96,.58-1.99,.85-2.99,.61-2.3,1.22-4.61,1.92-7.25Zm15.36,23.54c2.38-5.23,4.85-10.65,7.27-15.98-.2-.22-.24-.3-.3-.33-6.03-3.29-12.44-5.57-19.08-7.25-.83-.21-1.92,.46-2.15,1.28-.72,2.65-1.36,5.33-2.16,7.96-.57,1.88,.1,3.63,.27,5.44,.02,.18,.25,.39,.44,.49,5.19,2.78,10.38,5.54,15.71,8.38Zm-15.15-6.61c-.16,.85-.41,1.39-.34,1.88,1.19,8.28,2.32,16.58,3.72,24.83,.35,2.05-.3,4.46,1.78,6.16,1.01,.83,2.13,1,2.74-.23,3.04-6.11,6.07-12.22,9.04-18.36,.42-.87,.55-1.89,.68-2.86,.1-.69-1.5-2.42-2-2.17-.66,.33-.79-.07-1.09-.38-.67-.69-1.24-1.56-2.04-2.01-3.98-2.27-8.02-4.43-12.48-6.86Zm-22.04-103.74c0-1.26,.06-2.28-.04-3.3-.03-.3-.47-.76-.77-.8-1.81-.27-3.64-.47-5.47-.61-.3-.02-.88,.32-.92,.57-.16,.96-.17,1.95-.23,3,2.37,.23,4.55,.45,6.74,.66,0,.1,0,.2,0,.29-.45,.03-.91,.1-1.36,.07-1.35-.1-2.7-.26-4.05-.38-.94-.08-1.96,0-2.1-1.33,0-.05-.27-.06-.5-.11-.11,2.42-.28,4.77-.28,7.11,0,.43,.59,1.08,1.06,1.25,2.47,.93,4.99,.95,7.47,0,.3-.12,.67-.5,.71-.81,.26-2.02,.45-4.04,.65-6.07,0-.09-.1-.19-.17-.33-.23,.25-.42,.45-.72,.78Zm-8.1-2.59c.21-.73,.3-1.33-.7-1.37-.78-.03-1.74-.53-1.86,.88-.23,2.82-.48,5.65-.76,8.46-.12,1.24,.45,1.98,1.55,2.38,3.16,1.17,6.41,1.67,9.76,1.02,1.09-.21,2.11-.76,2.26-2,.3-2.46,.52-4.92,.68-7.39,.11-1.81-.05-1.9-2.12-1.95,.07,.34,.03,.82,.2,.91,.89,.46,.77,1.19,.69,1.96-.2,1.75-.37,3.49-.6,5.24-.05,.34-.24,.82-.51,.95-2.97,1.42-6,1.47-9.01,.18-.45-.19-.97-.89-.97-1.35,0-2.59,.17-5.17,.28-7.81,.43-.04,.76-.08,1.12-.11Zm10.27-4.7c-4.27-.16-8.57-.33-12.96-.49-.05,1-.09,1.94-.13,2.69,.4,.17,.64,.35,.9,.37,.71,.05,1.43,.11,2.13,.02,.43-.05,.84-.56,1.23-.53,2.22,.18,4.44,.45,6.65,.73,.29,.04,.75,.32,.78,.53,.12,1.21,.89,.94,1.61,.87-.07-1.43-.13-2.8-.2-4.2Z"/>
    <path d="M63.64,33.26c0,9.14,.14,15.46-.03,21.76-.3,11.49-.75,22.98-1.21,34.46-.19,4.79-.55,9.57-.89,14.35-.43,6.04-1.89,11.89-3.32,17.75-2.6,10.66-5.08,21.36-7.64,32.03-.19,.78-.21,1.24,.62,1.74,1.55,.93,1.82,2.62,1.78,4.22-.08,2.99-.35,5.97-.56,8.95-.08,1.07-.19,2.15-.35,3.21-.22,1.39-.93,1.97-2.3,2.04-6.26,.28-12.52,.65-18.78,.82-3.02,.08-6.06-.11-9.08-.36-1.96-.16-2.49-.85-2.48-2.8,.01-2.87-.02-5.76,.25-8.62,.31-3.39-.65-6.56-1.25-9.81-2.22-12.04-4.32-24.11-6.69-36.12-1.65-8.37-3.5-16.71-5.61-24.98-1.96-7.68-3.24-15.46-4.37-23.27C.79,62.23-.22,55.82,.04,49.33c.14-3.46,.44-6.94,1.05-10.35,1.08-6.06,4.42-10.64,9.68-13.91,6.93-4.3,14.45-6.45,22.57-6.66,3.15-.08,6.31-.18,9.46-.21,.79,0,1.11-.29,1.29-1.03,.34-1.39,.85-2.75,1.16-4.15,.23-1.04,.68-1.75,1.65-2.27,3.5-1.84,6.95-3.75,10.43-5.61,.66-.35,1.39-.6,2.1-.85,1.43-.51,1.82-.34,2.15,1.2,.54,2.53,1.01,5.08,1.45,7.64,1.32,7.62,.34,15.31,.6,20.13Zm-.97,23.82c-1.38-.11-2.65-.18-3.91-.3-3.73-.36-7.47-.69-11.19-1.14-2.81-.34-5.59-.89-8.4-1.26-1.55-.2-1.96-.55-1.73-2.12,.97-6.55,1.93-13.11,2.96-19.65,.41-2.63,1-5.23,1.52-7.93-.53-.08-.99-.21-1.45-.22-5.07-.11-10.12-.03-15.15,.91-8.9,1.65-15.46,6.32-19.48,14.5-.59,1.2-.85,2.31-.46,3.65,2.58,8.85,5.04,17.74,7.64,26.58,5.07,17.19,13.18,32.86,23.71,47.31,.27,.36,.62,.85,1,.91,.91,.16,.89,.6,.64,1.27-.69,1.83-1.33,3.68-2.04,5.5-3.68,9.37-7.21,18.78-9.85,28.51-.12,.45-.23,.9-.4,1.52,7.82-.2,15.47-.39,23.24-.59,.06-.23,.19-.6,.27-.98,3.26-13.98,6.55-27.95,9.73-41.95,.64-2.83,1.03-5.74,1.27-8.63,.45-5.49,.8-10.99,1.04-16.5,.42-9.58,.73-19.16,1.08-28.73,0-.19-.03-.39-.05-.65ZM43.4,19.59c-.5,0-.85,0-1.2,0-3.39,.08-6.79,.13-10.18,.26-7.76,.31-14.87,2.65-21.36,6.93-4.21,2.77-6.89,6.59-8.04,11.48-1.09,4.65-1.45,9.4-1.23,14.15,.17,3.78,.51,7.57,1.05,11.32,1.06,7.3,1.88,14.68,3.58,21.83,2.92,12.31,6.11,24.53,8.06,37.06,1.28,8.2,2.93,16.33,4.46,24.49,.52,2.81,1.16,5.6,1.69,8.15,1.18,0,2.19-.08,3.18,.02,.95,.1,1.29-.24,1.56-1.13,1.63-5.38,3.22-10.79,5.06-16.1,2-5.77,4.28-11.44,6.38-17.17,.18-.5,.14-1.29-.14-1.73-2.02-3.16-4.06-6.31-6.22-9.38-6.27-8.92-10.89-18.67-14.69-28.84-4.33-11.57-7.53-23.48-10.8-35.37-.3-1.08-.52-2.18-.9-3.22-.48-1.31,.5-2.04,.98-2.98,3.38-6.57,8.13-11.56,15.37-13.91,6.56-2.13,13.29-2.55,20.1-2.29,.75,.03,1.5,.07,2.3,.11,.34-1.23,.65-2.37,1-3.64ZM60.38,5.61c-4.58,1.6-8.52,3.77-12.42,6.03-.79,.46-1.24,1.02-1.43,1.91-1.89,8.81-3.91,17.59-5.67,26.42-.78,3.94-1.07,7.98-1.53,11.97-.04,.33,.21,.94,.44,1.01,1.48,.45,2.98,.94,4.5,1.12,4.95,.56,9.91,1,14.87,1.45,1.17,.1,2.35,.02,3.64,.02,0-.68,0-1.19,0-1.71,0-7.27-.02-14.53,0-21.8,.01-5.99,.12-11.97-.93-17.9-.49-2.78-.96-5.56-1.47-8.51ZM28.95,173.38c6.35-.28,12.92-.55,19.48-.86,2.2-.1,2.19-.15,2.43-2.4,.02-.2,.07-.39,.08-.59,.21-3.42,.57-6.84,.58-10.26,.01-2.57-.81-3.26-3.38-3.24-6.98,.05-13.97,.18-20.95,.29-1.37,.02-2.75,.08-4.12,.24-.4,.05-.83,.44-1.13,.78-.95,1.11-.63,2.47-.7,3.77-.17,3.26-.43,6.52-.59,9.79-.08,1.72,.19,1.99,1.96,2.12,2.03,.16,4.06,.23,6.32,.36Z"/>
  </g>
</svg>