<svg id="원피스_이미지" data-name="원피스 이미지" xmlns="http://www.w3.org/2000/svg" viewBox="0 0 595.2 595.2"><defs><style>.cls-1{fill:#fff;}</style></defs><path id="색" class="cls-1" d="M524.7,587.14H400.59c0-.47-.08-.9-.08-1.32.15-14.26.19-28.53.5-42.79.18-7.94.8-15.87,1.24-23.81a53.08,53.08,0,0,1,.51-6.44c.38-2.09,1.2-4.1,1.76-6.16,1.36-5,2.53-10,4.07-14.9q4.38-14,9.12-27.85c2.54-7.4,5.34-14.71,8.05-22.05.31-.84.25-1.1-.67-1.66-1.12-.68-2.44-1.65-2.48-3.36,0-.21-.26-.45-.45-.61-.55-.48-1.3-.82-1.65-1.41-3.44-5.76-6.94-11.48-10.18-17.35a179.68,179.68,0,0,1-18.5-50.54c-.2-1-.27-2-.52-2.95a4.75,4.75,0,0,0-.8-1.22c-.17.48-.54,1-.48,1.43.19,1.54.48,3.08.81,4.59a185.71,185.71,0,0,0,20.6,53.57c2.53,4.39,5.19,8.71,7.79,13.07.09.15.16.33.31.63-.52,0-.9.07-1.28.07-6.07,0-12.14,0-18.21,0-.93,0-1.27-.27-1.49-1.21-2.2-9.69-4.57-19.35-6.7-29.05a207.37,207.37,0,0,1-4.65-30,44.1,44.1,0,0,1,.48-11.47c1.17-6.09,4.62-10.6,9.71-13.95a48.47,48.47,0,0,1,20.93-7.4c3.4-.42,6.84-.48,10.26-.71.92-.06,1.34.37,1.77,1.22,4.9,9.69,12.36,16.07,23.33,17.93,9,1.52,17.66.27,26.12-2.79,5.17-1.87,9.22-5.34,12.66-9.57a85.68,85.68,0,0,0,9.7-15.24,1.47,1.47,0,0,1,1.41-1c6.67-.13,13.33-.3,20-.45,3.41-.09,5.62,1.69,6.74,4.74a54.56,54.56,0,0,1,1.77,6.7c1.86,8.13,3.55,16.29,5.54,24.38,1.39,5.66,3.26,11.19,4.73,16.83q3.25,12.57,6.24,25.21c1.24,5.28,2.23,10.62,3.33,15.94a8.08,8.08,0,0,1,.05.85H518.54c-.49-2.72-1-5.57-1.52-8.43-1.76-9.94-3.32-19.93-5.34-29.81-1.65-8.11-4-16.06-8.19-23.3a36.28,36.28,0,0,0-2.73-3.93c-.24-.32-.84-.35-1.28-.52.09.45,0,1,.28,1.32,4,5.13,6.25,11.1,8.16,17.23a176.92,176.92,0,0,1,5.23,24.08c2.34,14.14,4.75,28.26,8,42.23a2.78,2.78,0,0,1-.09,1.37c-2.87,9.77-6,19.48-8.57,29.31a121.35,121.35,0,0,0-2.75,15.78c-.25,1.95.38,4,.69,6,1.72,11.12,3.43,22.24,5.21,33.35,1.66,10.4,3.41,20.79,5.14,31.19,1.28,7.71,2.6,15.42,3.89,23.14C524.68,586.37,524.67,586.69,524.7,587.14Z"/><path id="선" d="M553.76,428.25c-2.6.11-5,.29-7.35.29-9.06,0-18.13,0-27.19-.05a2,2,0,0,0-.37.15c.47,2.26.93,4.55,1.42,6.84.71,3.36,1.5,6.7,2.15,10.07a5.07,5.07,0,0,1-.27,2.33c-2.44,8.23-5.12,16.39-7.33,24.68-1.51,5.69-2.23,11.59-3.59,17.33-.88,3.74.41,7.19.91,10.72,1.57,11.1,3.37,22.17,5.15,33.24,1.58,9.85,3.23,19.69,4.88,29.53,1.36,8.18,2.76,16.36,4.15,24.55a3,3,0,0,1-.05.55h-127c-.05-.72-.17-1.62-.17-2.52.12-13.26.19-26.53.41-39.79.11-6.23.58-12.45.76-18.68.29-9.64,2.31-18.93,4.79-28.24,3.49-13.13,7.94-25.94,12.32-38.78,2.06-6.05,4.39-12,6.62-18,.23-.62.32-1.05-.28-1.55a7.11,7.11,0,0,1-1.58-1.79c-.9-1.49-2.15-1.77-3.81-1.75-6.55.11-13.1.07-19.65.09-.28,0-.55-.05-.91-.07-.57-2.52-1.12-5-1.7-7.55-2.23-9.73-4.64-19.41-6.66-29.18-1.8-8.75-3.37-17.58-3.62-26.55a51.43,51.43,0,0,1,.74-10.59c1.21-6.66,5.35-11.35,11-14.85a51.24,51.24,0,0,1,21.4-7.14c3.44-.41,6.92-.41,10.39-.52,1.73-.06,1.81.12,2.19,1.8a5.25,5.25,0,0,0,.64,1.41c5.05,8.74,12.18,14.52,22.44,16a50.22,50.22,0,0,0,24.71-2.83,28.32,28.32,0,0,0,12.24-9.34,68.73,68.73,0,0,0,9.23-14.67c.8-1.76,1.8-1.91,3.24-1.95,6.23-.16,12.46-.34,18.68-.45a12.93,12.93,0,0,1,3.56.4,7.62,7.62,0,0,1,5.31,5.27c.89,2.63,1.45,5.38,2.1,8.1,1.92,8,3.74,16,5.75,24,2.13,8.47,4.51,16.87,6.66,25.34,2.07,8.16,4,16.35,5.94,24.55.54,2.32.78,4.72,1.18,7.07C553.33,426.42,553.52,427.14,553.76,428.25ZM524.7,587.14c0-.45,0-.77-.07-1.07-1.29-7.72-2.61-15.43-3.89-23.14-1.73-10.4-3.48-20.79-5.14-31.19-1.78-11.11-3.49-22.23-5.21-33.35-.31-2-.94-4.09-.69-6a121.35,121.35,0,0,1,2.75-15.78c2.61-9.83,5.7-19.54,8.57-29.31a2.78,2.78,0,0,0,.09-1.37c-3.21-14-5.62-28.09-8-42.23a176.92,176.92,0,0,0-5.23-24.08c-1.91-6.13-4.15-12.1-8.16-17.23-.25-.32-.19-.87-.28-1.32.44.17,1,.2,1.28.52a36.28,36.28,0,0,1,2.73,3.93c4.22,7.24,6.54,15.19,8.19,23.3,2,9.88,3.58,19.87,5.34,29.81.5,2.86,1,5.71,1.52,8.43H552a8.08,8.08,0,0,0-.05-.85c-1.1-5.32-2.09-10.66-3.33-15.94q-3-12.63-6.24-25.21c-1.47-5.64-3.34-11.17-4.73-16.83-2-8.09-3.68-16.25-5.54-24.38a54.56,54.56,0,0,0-1.77-6.7c-1.12-3.05-3.33-4.83-6.74-4.74-6.67.15-13.33.32-20,.45a1.47,1.47,0,0,0-1.41,1,85.68,85.68,0,0,1-9.7,15.24c-3.44,4.23-7.49,7.7-12.66,9.57-8.46,3.06-17.14,4.31-26.12,2.79-11-1.86-18.43-8.24-23.33-17.93-.43-.85-.85-1.28-1.77-1.22-3.42.23-6.86.29-10.26.71a48.47,48.47,0,0,0-20.93,7.4c-5.09,3.35-8.54,7.86-9.71,13.95a44.1,44.1,0,0,0-.48,11.47,207.37,207.37,0,0,0,4.65,30c2.13,9.7,4.5,19.36,6.7,29.05.22.94.56,1.21,1.49,1.21,6.07,0,12.14,0,18.21,0,.38,0,.76,0,1.28-.07-.15-.3-.22-.48-.31-.63-2.6-4.36-5.26-8.68-7.79-13.07a185.71,185.71,0,0,1-20.6-53.57c-.33-1.51-.62-3.05-.81-4.59-.06-.45.31-.95.48-1.43a4.75,4.75,0,0,1,.8,1.22c.25,1,.32,2,.52,2.95a179.68,179.68,0,0,0,18.5,50.54c3.24,5.87,6.74,11.59,10.18,17.35.35.59,1.1.93,1.65,1.41.19.16.44.4.45.61,0,1.71,1.36,2.68,2.48,3.36.92.56,1,.82.67,1.66-2.71,7.34-5.51,14.65-8.05,22.05q-4.75,13.86-9.12,27.85c-1.54,4.91-2.71,9.94-4.07,14.9-.56,2.06-1.38,4.07-1.76,6.16a53.08,53.08,0,0,0-.51,6.44c-.44,7.94-1.06,15.87-1.24,23.81-.31,14.26-.35,28.53-.5,42.79,0,.42.05.85.08,1.32Z"/></svg>