<?xml version="1.0" encoding="UTF-8"?>
<svg id="_원피스_이미지" data-name="원피스 이미지" xmlns="http://www.w3.org/2000/svg" viewBox="0 0 167.96 257.51">
  <defs>
    <style>
      .cls-1 {
        fill: #fff;
      }
    </style>
  </defs>
  <path id="_색" data-name="색" class="cls-1" d="M138.9,256.17H14.8c-.03-.48-.09-.9-.08-1.32,.15-14.26,.19-28.53,.5-42.79,.17-7.94,.8-15.87,1.24-23.81,.12-2.15,.13-4.33,.51-6.44,.38-2.09,1.19-4.1,1.76-6.15,1.36-4.97,2.53-9.99,4.07-14.9,2.92-9.32,5.95-18.61,9.12-27.85,2.54-7.4,5.34-14.71,8.05-22.05,.31-.84,.26-1.09-.67-1.66-1.12-.68-2.44-1.65-2.49-3.36,0-.21-.26-.45-.45-.62-.54-.48-1.3-.82-1.65-1.4-3.44-5.76-6.94-11.48-10.18-17.35-8.78-15.88-14.8-32.79-18.5-50.54-.2-.98-.27-1.98-.52-2.94-.12-.45-.52-.82-.79-1.22-.17,.48-.54,.98-.49,1.43,.19,1.54,.48,3.07,.81,4.59,4.11,18.92,10.94,36.79,20.6,53.57,2.53,4.39,5.19,8.71,7.78,13.06,.09,.16,.17,.33,.32,.63-.52,.03-.9,.07-1.28,.07-6.07,0-12.14-.01-18.21,.02-.93,0-1.27-.26-1.49-1.21-2.21-9.69-4.57-19.35-6.7-29.05-2.17-9.91-3.93-19.89-4.65-30.03-.27-3.82-.25-7.66,.48-11.46,1.17-6.1,4.62-10.61,9.71-13.95,6.36-4.18,13.44-6.46,20.93-7.4,3.4-.42,6.84-.48,10.26-.71,.92-.06,1.34,.37,1.77,1.21,4.91,9.7,12.37,16.07,23.34,17.93,8.98,1.52,17.66,.28,26.12-2.79,5.17-1.87,9.22-5.34,12.65-9.57,3.82-4.71,6.97-9.84,9.7-15.23,.32-.62,.64-1,1.41-1.01,6.67-.13,13.33-.3,20-.46,3.41-.08,5.62,1.7,6.74,4.75,.79,2.16,1.26,4.45,1.78,6.7,1.85,8.13,3.55,16.29,5.54,24.38,1.39,5.65,3.26,11.19,4.73,16.82,2.18,8.38,4.26,16.79,6.24,25.22,1.24,5.28,2.23,10.62,3.33,15.93,.05,.23,.03,.47,.05,.85h-33.44c-.49-2.72-1.01-5.58-1.52-8.43-1.76-9.94-3.31-19.92-5.33-29.81-1.66-8.1-3.98-16.06-8.2-23.3-.8-1.38-1.75-2.67-2.72-3.93-.24-.31-.85-.35-1.28-.51,.09,.44,.03,.99,.28,1.31,4.01,5.14,6.24,11.11,8.15,17.23,2.46,7.87,3.9,15.97,5.24,24.08,2.33,14.14,4.75,28.26,7.96,42.23,.1,.43,.03,.94-.09,1.37-2.87,9.76-5.96,19.47-8.57,29.31-1.37,5.14-2.07,10.49-2.75,15.78-.25,1.95,.38,4.03,.69,6.03,1.72,11.12,3.42,22.24,5.2,33.36,1.67,10.4,3.41,20.79,5.14,31.18,1.28,7.72,2.6,15.43,3.9,23.14,.05,.31,.04,.63,.07,1.08Z"/>
  <path id="_선" data-name="선" d="M167.96,97.28c-2.59,.11-4.97,.29-7.34,.29-9.06,.01-18.13-.03-27.19-.05-.07,0-.14,.05-.37,.15,.47,2.26,.93,4.55,1.42,6.84,.72,3.36,1.5,6.7,2.15,10.07,.14,.74-.04,1.59-.26,2.33-2.44,8.23-5.13,16.39-7.33,24.68-1.51,5.69-2.23,11.59-3.59,17.33-.89,3.75,.41,7.19,.91,10.72,1.57,11.1,3.37,22.17,5.14,33.24,1.58,9.85,3.24,19.69,4.88,29.53,1.37,8.19,2.77,16.37,4.15,24.55,.02,.11-.02,.23-.05,.56H13.5c-.05-.73-.17-1.63-.16-2.52,.12-13.26,.19-26.53,.41-39.79,.1-6.23,.58-12.45,.76-18.68,.29-9.64,2.31-18.94,4.78-28.24,3.5-13.14,7.94-25.95,12.32-38.79,2.06-6.04,4.39-12,6.62-17.98,.23-.63,.32-1.06-.28-1.55-.61-.51-1.18-1.11-1.58-1.79-.9-1.5-2.15-1.78-3.81-1.75-6.55,.11-13.1,.07-19.65,.08-.28,0-.55-.04-.91-.07-.56-2.52-1.12-5.04-1.69-7.55-2.23-9.72-4.65-19.41-6.66-29.18C1.84,60.95,.27,52.12,.02,43.16c-.1-3.53,.11-7.13,.74-10.6,1.21-6.66,5.35-11.35,10.99-14.85,6.57-4.09,13.8-6.24,21.41-7.14,3.44-.41,6.92-.41,10.39-.52,1.73-.05,1.81,.12,2.19,1.8,.11,.5,.38,.97,.64,1.41,5.05,8.74,12.18,14.52,22.44,15.98,8.5,1.21,16.72,.1,24.71-2.84,5.01-1.84,8.93-5.22,12.24-9.33,3.64-4.53,6.84-9.39,9.23-14.67,.8-1.76,1.8-1.92,3.24-1.95,6.23-.16,12.45-.34,18.68-.46,1.18-.02,2.41,.1,3.55,.4,2.74,.73,4.45,2.71,5.31,5.27,.89,2.64,1.45,5.39,2.1,8.1,1.92,7.99,3.74,16.01,5.75,23.97,2.14,8.47,4.51,16.87,6.66,25.34,2.07,8.16,4.02,16.35,5.94,24.55,.54,2.32,.78,4.71,1.18,7.07,.12,.74,.31,1.46,.55,2.57Zm-29.05,158.89c-.03-.45-.02-.77-.07-1.08-1.3-7.71-2.61-15.42-3.9-23.14-1.73-10.39-3.47-20.78-5.14-31.18-1.78-11.11-3.49-22.23-5.2-33.36-.31-2.01-.94-4.08-.69-6.03,.68-5.29,1.38-10.64,2.75-15.78,2.61-9.83,5.7-19.54,8.57-29.31,.13-.43,.19-.94,.09-1.37-3.21-13.97-5.63-28.09-7.96-42.23-1.34-8.11-2.78-16.21-5.24-24.08-1.91-6.12-4.15-12.09-8.15-17.23-.25-.32-.19-.87-.28-1.31,.44,.16,1.04,.2,1.28,.51,.97,1.26,1.92,2.56,2.72,3.93,4.22,7.24,6.54,15.19,8.2,23.3,2.02,9.89,3.57,19.87,5.33,29.81,.51,2.86,1.03,5.71,1.52,8.43h33.44c-.02-.39,0-.63-.05-.85-1.1-5.31-2.09-10.65-3.33-15.93-1.98-8.43-4.06-16.84-6.24-25.22-1.47-5.64-3.34-11.17-4.73-16.82-1.99-8.09-3.68-16.26-5.54-24.38-.51-2.25-.99-4.54-1.78-6.7-1.11-3.05-3.32-4.83-6.74-4.75-6.67,.16-13.33,.33-20,.46-.77,.02-1.1,.39-1.41,1.01-2.74,5.39-5.89,10.53-9.7,15.23-3.43,4.23-7.49,7.7-12.65,9.57-8.46,3.07-17.14,4.31-26.12,2.79-10.97-1.86-18.43-8.24-23.34-17.93-.43-.84-.85-1.27-1.77-1.21-3.42,.23-6.86,.29-10.26,.71-7.5,.94-14.57,3.21-20.93,7.4-5.09,3.35-8.54,7.86-9.71,13.95-.73,3.8-.75,7.64-.48,11.46,.72,10.13,2.48,20.12,4.65,30.03,2.13,9.71,4.5,19.36,6.7,29.05,.22,.95,.56,1.22,1.49,1.21,6.07-.04,12.14-.02,18.21-.02,.38,0,.76-.04,1.28-.07-.15-.3-.22-.47-.32-.63-2.6-4.35-5.25-8.67-7.78-13.06C15.99,74.56,9.15,56.69,5.04,37.77c-.33-1.52-.62-3.05-.81-4.59-.06-.45,.31-.95,.49-1.43,.27,.41,.68,.78,.79,1.22,.25,.96,.32,1.97,.52,2.94,3.7,17.75,9.72,34.66,18.5,50.54,3.24,5.87,6.74,11.59,10.18,17.35,.35,.59,1.1,.93,1.65,1.4,.19,.17,.44,.41,.45,.62,.04,1.71,1.37,2.68,2.49,3.36,.92,.56,.98,.81,.67,1.66-2.71,7.34-5.51,14.65-8.05,22.05-3.17,9.24-6.2,18.53-9.12,27.85-1.54,4.91-2.71,9.94-4.07,14.9-.57,2.06-1.38,4.07-1.76,6.15-.38,2.11-.4,4.29-.51,6.44-.44,7.94-1.06,15.87-1.24,23.81-.31,14.26-.35,28.53-.5,42.79,0,.42,.05,.85,.08,1.32h124.11Z"/>
</svg>