<?xml version="1.0" encoding="UTF-8"?>
<svg id="pk셔츠_이미지" data-name="pk셔츠 이미지" xmlns="http://www.w3.org/2000/svg" viewBox="0 0 163.88 203.57">
  <defs>
    <style>
      .cls-1 {
        fill: #fff;
      }
    </style>
  </defs>
  <g id="_선" data-name="선">
    <path class="cls-1" d="M80.09,34.83c1.81,4.81,3.56,9.46,5.37,14.27,2.36-2.82,4.16-5.59,5.66-8.61,2.66-5.36,5.49-10.65,8.41-15.88,1.1-1.98,.99-3.95,.77-6.01-.37-3.49-.73-6.97-1.12-10.62,2.36-.54,4.73-1.05,7.09-1.61,9.98-2.36,20.13-2.87,30.33-2.53,3.24,.11,5.72,1.68,7.36,4.45,3.06,5.19,4.88,10.84,5.8,16.76,1.39,9.03,2.79,18.06,3.98,27.12,.93,7.08,1.55,14.2,2.29,21.3,.75,7.22,1.12,14.49,2.82,21.58,.03,.11,0,.24,0,.56-12.4,3.05-24.77,6.37-37.81,7.33,0-.63,0-1.09,0-1.56,.08-6.87,.42-13.75,.19-20.6-.34-9.85-.91-19.7-1.75-29.52-.39-4.58-1.62-9.1-2.56-13.62-.19-.89-.77-1.74-1.32-2.51-.19-.27-.81-.23-1.23-.33,.09,.4,.11,.83,.27,1.2,.34,.8,.92,1.53,1.1,2.36,.85,4.06,1.85,8.1,2.34,12.21,1.37,11.51,1.78,23.09,1.92,34.67,.07,5.7-.42,11.41-.65,17.11-.02,.59,0,1.19,0,2.02,2.02-.15,3.96-.23,5.88-.44,2.26-.24,4.51-.56,6.76-.91,.62-.1,.85,.08,1.05,.62,1.59,4.43,3.22,8.85,4.78,13.3,.15,.44,.09,1.03-.06,1.49-3.55,11.18-7.14,22.35-10.67,33.55-.3,.96-.87,.86-1.54,.86-11.06,0-22.13,0-33.19,0-22.13,0-44.25,0-66.38,0h-1.78c.24-.76,.38-1.34,.59-1.89,3.88-10.44,7.75-20.88,11.66-31.31,.74-1.98,1.6-3.92,2.49-5.83,.37-.8-.05-1.18-.42-1.77-2.27-3.62-4.43-7.3-6.68-10.92-9.55-15.32-16.34-31.88-21.78-49.02-1.61-5.08-2.53-10.38-3.8-15.57-.09-.36-.42-.65-.63-.98-.21,.37-.65,.79-.6,1.11,.47,2.75,.86,5.53,1.59,8.22,5.17,18.88,12.21,36.98,22.27,53.84,1.59,2.67,3.1,5.39,4.75,8.28-8.86,1.88-17.57,3.74-26.4,5.62-.58-3.71-1.21-7.32-1.69-10.95-.83-6.25-1.64-12.5-2.31-18.77-.48-4.44-.86-8.91-1.02-13.37-.34-9.86-1-19.74-.58-29.57,.31-7.35,2.49-14.48,8.96-19.23,3.91-2.87,8.43-4.42,13.18-5.07,5.53-.75,11.1-1.2,16.66-1.73,4.01-.38,8.03-.69,12.04-1.03,.38-.03,.76-.05,1.39-.1-.33,.67-.54,1.12-.78,1.56-1.04,1.96-2.12,3.91-3.11,5.9-.17,.33-.05,.87,.07,1.27,1.66,5.46,3.32,10.92,5.01,16.37,.75,2.44,1.54,4.86,2.35,7.28,.14,.42,.43,.8,.83,1.51,.23-.79,.34-1.23,.49-1.66,1.04-3.1,2.06-6.2,3.14-9.28,.31-.87,.69-1.71,1.97-1.39,1.3,.32,1.97,.91,2.04,2.24,.17,3.19,.34,6.38,.44,9.57,.21,6.58,.32,13.17,.58,19.76,.12,2.91,.52,5.8,.79,8.7,.06,.66,.37,.98,1.09,.94,3.58-.21,7.17-.38,10.75-.58,.97-.05,1.29-.43,1.14-1.53-.47-3.56-.96-7.13-1.09-10.71-.28-7.46-.34-14.92-.46-22.39-.02-1.46,.09-2.92,.24-4.37,.04-.37,.44-.71,.74-1.16Z"/>
    <path class="cls-1" d="M130.55,200.7c-.4-2.55-.81-4.86-1.12-7.18-1.01-7.51-1.89-15.04-3.02-22.54-.64-4.25-.47-8.34,.54-12.55,3.12-12.97,7.37-25.58,11.59-38.21,.34-1.02,.76-2.01,1.07-3.04,.09-.3,.05-.73-.09-1.01-.42-.81-1.06-1.53-1.38-2.37-1.26-3.32-2.43-6.68-3.63-10.02-.12-.33-.21-.67-.32-1.02,7.83-1.79,15.59-3.56,23.46-5.36,.39,1.96,.81,3.94,1.19,5.93,1.25,6.54,2.61,13.07,3.66,19.64,.31,1.94,0,4.08-.46,6.01-1.45,5.95-3.66,11.65-6.24,17.2-6.36,13.68-12.77,27.35-19.13,41.03-2.03,4.37-3.98,8.78-6.11,13.48Z"/>
    <path class="cls-1" d="M22.57,153.36c.43,.24,.77,.43,1.23,.68-.37,.87-.73,1.72-1.23,2.89-3.23-14.9-6.39-29.48-9.59-44.23,2.35-.48,4.37-.88,6.38-1.3,4.53-.96,9.06-1.89,13.56-2.94,1.15-.27,1.71,.02,2.23,1.01,.59,1.13,1.39,2.14,2.03,3.24,.18,.31,.24,.82,.12,1.16-4.49,11.96-9.01,23.9-13.51,35.85-.45,1.19-.81,2.4-1.22,3.64Z"/>
    <path class="cls-1" d="M95.1,2.4c2.11,.88,2.17,2.77,2.4,4.37,.66,4.57,1.1,9.18,1.65,13.77,.14,1.18-.08,2.2-.68,3.29-3.42,6.31-6.75,12.68-10.09,19.04-.77,1.47-1.43,2.99-2.21,4.63-.67-1.78-1.33-3.46-1.93-5.15-.93-2.59-1.79-5.21-2.75-7.79-.41-1.11-.29-2.1,.23-3.09,3.41-6.5,6.83-13,10.23-19.52,.33-.63,.52-1.33,.74-2.01,.8-2.46,1.58-4.92,2.42-7.54Z"/>
    <path class="cls-1" d="M74.53,37.17c-.74,12.34,.49,24.53,1.17,36.93h-6.62c-1.65-12.33-1.5-24.79-1.47-37.29,2.34,.12,4.58,.24,6.91,.36Z"/>
    <path class="cls-1" d="M64.35,32.93c-2.25-.13-2.62,.04-3.46,2-1.01,2.37-1.9,4.8-2.88,7.28-.89-2.3-1.89-4.56-2.65-6.9-1.42-4.4-2.71-8.86-4.06-13.29-.26-.86-.26-1.53,.32-2.4,1.09-1.61,1.87-3.43,2.78-5.16,1.46-2.79,2.86-5.61,4.41-8.34,.5-.89,1.42-1.54,2.29-2.46,.44,1.51,.91,2.7,1.09,3.92,.08,.59-.29,1.33-.64,1.88-.93,1.43-2,2.76-2.93,4.19-.24,.36-.28,1-.14,1.43,1.67,5.29,3.39,10.56,5.1,15.83,.21,.64,.47,1.26,.75,2.02Z"/>
    <path class="cls-1" d="M79.46,73.82c-.71,.04-1.41,.07-2.38,.12-.8-12.23-1.86-24.37-1.21-36.67h1.96c-.25,12.2-.46,24.39,1.62,36.55Z"/>
  </g>
  <path id="_색" data-name="색" d="M163.34,118.97c-1.42-6.79-2.69-13.62-4.09-20.42-.21-1.04-.06-1.84,.63-2.62,.22-.24,.35-.72,.28-1.03-1.76-7.58-2.12-15.33-2.92-23.02-.72-6.94-1.38-13.9-2.28-20.82-1.12-8.54-2.45-17.06-3.75-25.58-.96-6.29-2.82-12.29-6.04-17.81-2-3.42-5.08-5.16-9-5.24-10.36-.22-20.67,.27-30.8,2.77-2.15,.53-4.32,.96-6.51,1.44-.55-2.43-.92-4.81-3.29-6.09-.36-.19-.73-.36-1.09-.54-.18,.37-.43,.73-.54,1.12-.94,3.34-1.47,6.85-2.86,9.99-2.03,4.59-4.64,8.92-7.04,13.34-1.92,3.54-3.89,7.05-5.89,10.55-.21,.36-.75,.75-1.14,.75-2.83-.04-5.67-.1-8.49-.31-1.27-.09-2.28-.74-2.76-2.12-1.6-4.56-3.19-9.12-4.94-13.62-1.26-3.22-1.15-6.05,1.34-8.69,.69-.73,1.31-1.93,1.26-2.88-.09-1.89-.63-3.76-1.07-5.62-.15-.65-.58-.92-1.23-.36-.69,.6-1.47,1.1-2.17,1.69-.48,.4-1.02,.82-1.29,1.36-.61,1.2-1.1,2.46-1.59,3.72-.71,1.83-1.77,3.08-3.98,2.62-.07-.02-.16,0-.24,.02-8.03,.71-16.06,1.37-24.08,2.14-5.11,.49-10.08,1.61-14.72,3.94-4.36,2.2-7.74,5.4-9.64,9.93C1.29,32.63-.19,37.86,.02,43.46c.31,8.34,.3,16.7,.8,25.02,.51,8.44,1.36,16.87,2.31,25.27,.74,6.58,1.86,13.11,2.83,19.66,.11,.75,.43,1.04,1.34,.72,1.44-.51,2.98-.78,4.56-1.17,.14,.58,.26,.99,.34,1.41,1.09,5.64,2.11,11.29,3.29,16.91,1.99,9.49,4.07,18.95,6.14,28.42,.07,.32,.42,.57,.64,.86,.25-.27,.6-.5,.73-.82,.61-1.47,1.2-2.96,1.72-4.46,.31-.88,.79-1.17,1.76-1.17,32.95,.03,65.9,.03,98.85,.03,.42,0,.84,.04,1.41,.07-.29,1.07-.54,1.98-.79,2.89-1.09,3.9-1.91,7.79-1.16,11.91,.72,3.96,1.06,7.99,1.74,11.96,1.23,7.14,.87,14.55,3.55,21.45,.15,.39,.36,.75,.53,1.13,.3-.33,.73-.61,.87-1,2.63-7.22,6.03-14.09,9.33-21,4.59-9.62,9.17-19.25,13.59-28.95,3.02-6.64,5.97-13.32,8.17-20.32,1.39-4.44,1.69-8.79,.74-13.32ZM81.72,31.47c3.41-6.5,6.83-13,10.23-19.52,.33-.63,.52-1.33,.74-2.01,.8-2.46,1.58-4.92,2.42-7.54,2.11,.88,2.17,2.77,2.4,4.37,.66,4.57,1.1,9.18,1.65,13.77,.14,1.18-.08,2.2-.68,3.29-3.42,6.31-6.75,12.68-10.09,19.04-.77,1.47-1.43,2.99-2.21,4.63-.67-1.78-1.33-3.46-1.93-5.15-.93-2.59-1.79-5.21-2.75-7.79-.41-1.11-.29-2.1,.23-3.09Zm-5.83,5.8h1.96c-.25,12.2-.46,24.39,1.62,36.55-.71,.04-1.41,.07-2.38,.12-.8-12.23-1.86-24.37-1.21-36.67Zm-8.27-.46c2.34,.12,4.58,.24,6.91,.36-.74,12.34,.49,24.53,1.17,36.93h-6.62c-1.65-12.33-1.5-24.79-1.47-37.29ZM58.83,6.13c.5-.89,1.42-1.54,2.29-2.46,.44,1.51,.91,2.7,1.09,3.92,.08,.59-.29,1.33-.64,1.88-.93,1.43-2,2.76-2.93,4.19-.24,.36-.28,1-.14,1.43,1.67,5.29,3.39,10.56,5.1,15.83,.21,.64,.47,1.26,.75,2.02-2.25-.13-2.62,.04-3.46,2-1.01,2.37-1.9,4.8-2.88,7.28-.89-2.3-1.89-4.56-2.65-6.9-1.42-4.4-2.71-8.86-4.06-13.29-.26-.86-.26-1.53,.32-2.4,1.09-1.61,1.87-3.43,2.78-5.16,1.46-2.79,2.86-5.61,4.41-8.34ZM22.57,156.94c-3.23-14.9-6.39-29.48-9.59-44.23,2.35-.48,4.37-.88,6.38-1.3,4.53-.96,9.06-1.89,13.56-2.94,1.15-.27,1.71,.02,2.23,1.01,.59,1.13,1.39,2.14,2.03,3.24,.18,.31,.24,.82,.12,1.16-4.49,11.96-9.01,23.9-13.51,35.85-.45,1.19-.81,2.4-1.22,3.64,.43,.24,.77,.43,1.23,.68-.37,.87-.73,1.72-1.23,2.89Zm102.96-4.12c-11.06,0-22.13,0-33.19,0-22.13,0-44.25,0-66.38,0h-1.78c.24-.76,.38-1.34,.59-1.89,3.88-10.44,7.75-20.88,11.66-31.31,.74-1.98,1.6-3.92,2.49-5.83,.37-.8-.05-1.18-.42-1.77-2.27-3.62-4.43-7.3-6.68-10.92-9.55-15.32-16.34-31.88-21.78-49.02-1.61-5.08-2.53-10.38-3.8-15.57-.09-.36-.42-.66-.63-.98-.21,.37-.65,.79-.6,1.11,.47,2.75,.86,5.53,1.59,8.22,5.17,18.88,12.21,36.98,22.27,53.84,1.59,2.67,3.1,5.39,4.75,8.28-8.86,1.88-17.57,3.74-26.4,5.62-.58-3.71-1.21-7.32-1.7-10.95-.83-6.25-1.64-12.5-2.31-18.77-.48-4.44-.86-8.91-1.02-13.37-.34-9.86-1-19.74-.58-29.57,.31-7.35,2.49-14.48,8.96-19.23,3.91-2.87,8.43-4.42,13.18-5.07,5.53-.75,11.1-1.2,16.66-1.73,4.01-.38,8.03-.69,12.04-1.03,.38-.03,.76-.05,1.39-.1-.33,.67-.54,1.12-.78,1.56-1.04,1.96-2.12,3.91-3.11,5.9-.17,.33-.05,.87,.07,1.27,1.66,5.46,3.32,10.92,5.01,16.37,.75,2.44,1.54,4.86,2.35,7.28,.14,.42,.43,.8,.83,1.51,.23-.79,.34-1.23,.49-1.66,1.04-3.1,2.06-6.2,3.14-9.28,.31-.87,.69-1.71,1.97-1.39,1.3,.32,1.97,.91,2.04,2.24,.17,3.19,.34,6.38,.44,9.57,.21,6.59,.32,13.17,.58,19.76,.12,2.91,.52,5.8,.79,8.7,.06,.66,.37,.98,1.09,.94,3.58-.21,7.17-.38,10.75-.58,.97-.05,1.29-.43,1.14-1.53-.47-3.56-.96-7.13-1.09-10.71-.28-7.46-.34-14.92-.46-22.39-.02-1.46,.09-2.92,.24-4.37,.04-.37,.44-.71,.74-1.16,1.81,4.81,3.56,9.46,5.37,14.27,2.36-2.82,4.16-5.59,5.66-8.61,2.66-5.36,5.49-10.65,8.41-15.88,1.1-1.98,.98-3.95,.77-6.01-.37-3.49-.73-6.97-1.12-10.62,2.36-.54,4.73-1.05,7.09-1.61,9.98-2.36,20.13-2.87,30.33-2.53,3.24,.11,5.72,1.68,7.36,4.45,3.06,5.19,4.88,10.84,5.8,16.76,1.39,9.03,2.79,18.06,3.98,27.12,.93,7.08,1.55,14.2,2.29,21.3,.75,7.22,1.12,14.49,2.82,21.58,.03,.11,0,.24,0,.56-12.4,3.05-24.77,6.37-37.81,7.33,0-.63,0-1.09,0-1.56,.08-6.87,.42-13.75,.19-20.6-.34-9.85-.91-19.7-1.75-29.52-.39-4.58-1.62-9.1-2.56-13.62-.19-.89-.77-1.74-1.32-2.51-.19-.27-.81-.23-1.23-.33,.09,.4,.11,.83,.27,1.2,.34,.8,.92,1.53,1.1,2.36,.85,4.06,1.85,8.1,2.34,12.21,1.37,11.51,1.78,23.09,1.92,34.67,.07,5.7-.42,11.41-.65,17.11-.02,.59,0,1.19,0,2.02,2.02-.15,3.96-.23,5.88-.44,2.26-.24,4.51-.56,6.76-.91,.62-.1,.85,.08,1.05,.62,1.59,4.43,3.22,8.85,4.78,13.3,.15,.44,.09,1.03-.06,1.49-3.55,11.18-7.14,22.35-10.67,33.55-.3,.96-.87,.86-1.54,.86Zm36.49-23.82c-1.45,5.95-3.66,11.65-6.24,17.2-6.36,13.68-12.77,27.35-19.13,41.03-2.03,4.37-3.98,8.78-6.11,13.48-.4-2.55-.81-4.86-1.12-7.18-1.01-7.51-1.89-15.04-3.02-22.54-.64-4.25-.47-8.34,.54-12.55,3.12-12.97,7.37-25.58,11.59-38.21,.34-1.02,.76-2.01,1.07-3.04,.09-.3,.05-.73-.09-1.01-.42-.81-1.06-1.53-1.38-2.37-1.26-3.32-2.43-6.68-3.63-10.02-.12-.33-.21-.67-.32-1.02,7.83-1.79,15.59-3.56,23.46-5.36,.39,1.96,.81,3.94,1.19,5.93,1.25,6.54,2.61,13.07,3.66,19.64,.31,1.94,0,4.08-.46,6.01Z"/>
</svg>