<?xml version="1.0" encoding="UTF-8"?>
<svg id="_셔츠" data-name="셔츠" xmlns="http://www.w3.org/2000/svg" viewBox="0 0 595.2 595.2">
  <defs>
    <style>
      .cls-1 {
        fill: #fff;
      }
    </style>
  </defs>
  <g id="_레이어_41_이미지" data-name="레이어 41 이미지">
    <path class="cls-1" d="M505.99,492.15c-4.03-2.73-7.9-5.34-11.75-7.97-.22-.15-.43-.49-.45-.76-.09-1.15-.11-2.31-.14-3.47-.05-1.77-.05-3.55-.15-5.32-.2-3.54-.51-7.08-.65-10.63-.22-5.42-.53-10.85-.48-16.28,.18-20.68,3.82-40.72,11.55-59.96,.92-2.3,1.76-4.63,2.61-6.95,.2-.55,.89-1.28,.03-1.65-.91-.38-1.05,.64-1.27,1.21-1.51,3.95-2.99,7.92-4.46,11.89-4.19,11.35-7.06,23.04-8.46,35.06-1.42,12.16-1.84,24.35-.84,36.58,.32,3.94,.38,7.89,.55,11.84,.01,.27-.03,.54-.05,.94h-46.18c-.03-.14-.12-.32-.11-.5,.14-5.03,.28-10.06,.44-15.08,.11-3.43,.27-6.86,.37-10.29,.19-6.66,.28-13.33,.53-19.99,.28-7.42,.78-14.83,1.04-22.25,.23-6.5,.26-13.01,.36-19.52,.03-1.77,.33-2.16,2.02-2.71,8.46-2.74,16.91-5.53,25.37-8.27,.85-.28,1.19-.71,.93-1.58-.09,.06-.18,.11-.27,.17-.4-.59-.92-1.13-1.18-1.77-1.48-3.62-2.86-7.28-4.35-10.89-.35-.83-.35-1.56-.12-2.38,.51-1.91,.98-3.83,1.71-5.74,.59,2.9,1.17,5.8,1.79,8.7,.13,.61,.43,1.18,.61,1.78,.36,1.22,1.02,1.02,1.74,.37,4.07-3.65,8.14-7.3,12.17-10.99,1.06-.97,2.06-1.58,3.66-1.34,3.31,.48,6.72,.42,9.98,1.1,3.26,.68,6.46,1.78,9.55,3.05,4.31,1.78,7.3,5.24,10,8.89,3.14,4.26,6.12,8.72,6.94,14.04,.59,3.84,.66,7.8,.57,11.69-.34,14.09-2.34,27.99-5.44,41.72-2.76,12.24-6.65,24.16-10.61,36.05-2.2,6.59-4.56,13.12-6.85,19.67-.17,.48-.4,.94-.67,1.56Z"/>
    <path class="cls-1" d="M444.37,476.64h-48.31c-.02-.42-.06-.84-.07-1.27-.21-6.72,.37-13.4,1.15-20.07,.83-7.17,1.55-14.36,2.51-21.51,1.49-11.08,3.52-22.06,6.07-32.95,1.88-8.04,3.86-16.06,5.79-24.09,.03-.12,.1-.25,.07-.35-.13-.4-.29-.79-.45-1.18-.27,.28-.7,.52-.8,.85-.7,2.41-1.43,4.83-1.97,7.28-2.52,11.33-5.18,22.64-7.38,34.04-1.61,8.33-2.57,16.79-3.82,25.2-.03,.19-.08,.37-.38,.58-.33-1.6-.64-3.19-.98-4.79-2.05-9.66-3.13-19.46-3.81-29.3-.52-7.49-.72-15.01-.04-22.5,.65-7.13,2.25-13.95,6.97-19.66,4.61-5.58,10.53-8.79,17.61-10.01,6.19-1.07,12.41-1.68,18.69-1.77,.12,0,.24,.03,.46,.06v11.8c.1,.07,.2,.13,.3,.2,2.05-2.1,4.11-4.2,6.36-6.51,.24,.74,.42,1.16,.51,1.59,1.35,6.68,3.76,13.05,6.24,19.35,.88,2.25,.32,3.4-1.18,4.61-.75,.6-.86,1.26-.87,2.17,0,5.83-.04,11.65-.18,17.48-.1,4.39-.41,8.78-.55,13.17-.28,8.58-.44,17.17-.77,25.74-.27,7.06-.77,14.11-1.09,21.17-.14,3.03-.06,6.07-.07,9.11,0,.47,0,.95,0,1.57Z"/>
    <path class="cls-1" d="M489.91,339.5c0,2.34-.03,4.29,0,6.24,.04,1.95,.17,3.91,.23,5.86,0,.29-.01,.68-.19,.85-4.31,4.13-8.63,8.25-12.97,12.36-.28,.26-.63,.44-1.09,.75-.77-3.8-1.39-7.49-2.29-11.11-.43-1.73-.06-2.67,1.36-3.72,4.34-3.19,8.55-6.56,12.81-9.85,.56-.43,1.18-.77,2.11-1.37Z"/>
    <path class="cls-1" d="M493.96,485.59c4.99,3.42,9.74,6.68,14.55,9.97-2.72,6.03-5.37,11.9-8.06,17.85-1.02-.55-2.04-1-2.94-1.62-.36-.25-.56-.86-.65-1.35-.74-4.24-1.56-8.47-2.11-12.73-.45-3.51-.55-7.07-.8-10.61-.03-.38,0-.77,0-1.51Zm7.28,9.53c1.05,.64,2.01,1.19,1.99,2.65,0,.23,1.09,.7,1.64,.64,.88-.09,1.41-1.12,1.02-1.92-.23-.47-1.09-1.16-1.22-1.08-1.07,.71-1.92,.22-2.83-.28-.16-.09-.41-.01-.62-.01Z"/>
    <path class="cls-1" d="M470.01,365.28c1.59,3.94,3.14,7.77,4.78,11.83-7.7,2.5-15.39,5.01-23.23,7.56,1.19-2.41,15.7-17.6,18.46-19.39Z"/>
    <path class="cls-1" d="M446.35,343.67c-.15,3.38-.28,6.52-.43,9.83-1.36,.09-2.69,.22-4.03,.25-.26,0-.7-.28-.78-.53-.66-1.92-1.28-3.86-1.82-5.81-.08-.28,.19-.89,.45-1,2.11-.93,4.25-1.78,6.62-2.75Z"/>
    <path class="cls-1" d="M437.35,363.72v-16.22c.11-.02,.22-.03,.33-.05,.12,.34,.25,.68,.37,1.03,1.15,3.35,2.28,6.72,3.46,10.06,.27,.76,.13,1.19-.49,1.71-1.29,1.1-2.47,2.32-3.67,3.47Z"/>
    <path class="cls-1" d="M487.58,339.34c-.92,.67-1.84,1.34-2.89,2.11v-2.66c1.04,.08,1.96,.16,2.88,.23,0,.11,.01,.21,.02,.32Z"/>
    <path class="cls-1" d="M505.87,496.92c-.63,.48-.98,.9-1.42,1.02-.21,.06-.87-.61-.83-.68,.26-.48,.61-.94,1.04-1.29,.07-.06,.63,.48,1.22,.94Z"/>
  </g>
  <g id="_선" data-name="선">
    <path d="M507.16,493c.56,.35,1.15,.67,1.68,1.07,.77,.58,1.26,1.28,.79,2.33-2.69,5.97-5.37,11.94-8.04,17.92-.4,.9-.88,.93-1.69,.46-.92-.53-1.68-1.51-2.99-1.18-.16,.04-.64-.57-.73-.94-.6-2.48-1.22-4.95-1.69-7.45-1.27-6.76-1.89-13.59-1.98-20.47-.02-1.84-.2-3.67-.22-5.51,0-.9-.33-1.15-1.21-1.14-3.91,.04-7.83,.02-11.74,.02-11.1,0-22.2,0-33.37,0-.1,.29-.15,.56-.28,.77-.37,.6-1,.65-1.17,.02-.25-.93-.85-.77-1.45-.77-11.42,0-22.84,0-34.27-.01-3.59,0-7.19,0-10.78,0-3.21,0-3.55-.2-3.43-3.37,.24-6.02,.65-12.03,1.05-18.04,.17-2.59,.7-5.16,.71-7.74,0-1.84-.54-3.69-.93-5.51-1.99-9.42-3.71-18.88-4.27-28.5-.43-7.41-.77-14.83-.89-22.25-.08-4.79,.51-9.56,1.61-14.25,2.84-12.11,11.94-20.65,24.2-22.82,6.11-1.08,12.26-1.62,18.44-1.87,.35-.01,.71-.05,1.16-.08,.1-1.77,.24-3.51,.28-5.25,.03-1.38,.45-2.25,1.89-2.77,2.43-.89,4.76-2.05,7.14-3.09,2.48-1.08,2.79-.87,2.68,1.82-.09,2.11-.24,4.23-.34,6.34-.04,.68-.1,1.36-.04,2.04,.18,1.99,.2,1.99-1.84,2.16-.6,.05-1.19,.11-1.79,.16-.55,.05-1.11,.09-1.88,.16,.42,1.16,.81,2.26,1.23,3.35,.21,.54,.57,1.04,.69,1.6,1.4,6.62,3.65,12.98,5.96,19.32,.38,1.06,.95,2.06,1.34,2.91,4.69-4.87,9.47-9.83,14.26-14.78,.58-.6,1.15-1.26,1.84-1.71,1.72-1.12,2.13-2.82,2.44-4.68,.43-2.55,.87-5.13,1.61-7.6,.35-1.18,1.21-2.37,2.16-3.18,2.93-2.47,6-4.77,9.05-7.1,.6-.46,.86-.94,.85-1.7,0-1.2,.11-2.39,.2-3.59,.04-.59,.26-.94,1-.83,1.77,.26,3.55,.52,5.33,.64,1.03,.06,1.4,.41,1.41,1.44,.02,2.8,.06,5.59,.21,8.38,.08,1.44,.42,2.86,.62,4.3,.04,.3,0,.62,0,1,2.65,.24,5.32,.43,7.97,.72,10.4,1.11,18.76,5.61,24.45,14.63,2.68,4.24,5.3,8.5,6.09,13.55,.31,1.99,.45,4.03,.38,6.04-.26,6.82-.36,13.66-1.04,20.44-1.45,14.36-4.17,28.51-8.54,42.29-3.84,12.1-7.79,24.16-11.74,36.22-.67,2.04-1.56,4.01-2.39,6.12Zm-1.17-.85c.27-.62,.5-1.07,.67-1.56,2.3-6.55,4.66-13.08,6.85-19.67,3.96-11.89,7.86-23.81,10.61-36.05,3.09-13.73,5.09-27.63,5.44-41.72,.09-3.89,.02-7.85-.57-11.69-.82-5.33-3.8-9.79-6.94-14.04-2.7-3.65-5.69-7.11-10-8.89-3.08-1.27-6.29-2.37-9.55-3.05-3.26-.68-6.67-.62-9.98-1.1-1.59-.23-2.59,.37-3.66,1.34-4.03,3.69-8.1,7.34-12.17,10.99-.72,.65-1.38,.85-1.74-.37-.18-.6-.48-1.17-.61-1.78-.62-2.9-1.2-5.8-1.79-8.7-.73,1.91-1.2,3.83-1.71,5.74-.22,.82-.22,1.55,.12,2.38,1.5,3.61,2.88,7.27,4.35,10.89,.26,.64,.78,1.19,1.18,1.77,.09-.06,.18-.11,.27-.17,.26,.87-.08,1.3-.93,1.58-8.46,2.74-16.91,5.52-25.37,8.27-1.69,.55-2,.94-2.02,2.71-.09,6.51-.13,13.02-.36,19.52-.26,7.42-.76,14.83-1.04,22.25-.25,6.66-.35,13.33-.53,19.99-.1,3.43-.26,6.86-.37,10.29-.16,5.03-.3,10.05-.44,15.08,0,.18,.08,.37,.11,.5h46.18c.02-.4,.06-.67,.05-.94-.17-3.95-.23-7.91-.55-11.84-1-12.23-.57-24.42,.84-36.58,1.4-12.03,4.26-23.71,8.46-35.06,1.47-3.97,2.94-7.93,4.46-11.89,.22-.57,.36-1.59,1.27-1.21,.86,.36,.18,1.1-.03,1.65-.86,2.32-1.69,4.65-2.61,6.95-7.73,19.24-11.37,39.28-11.55,59.96-.05,5.42,.26,10.85,.48,16.28,.15,3.55,.46,7.09,.65,10.63,.1,1.77,.1,3.55,.15,5.32,.03,1.16,.06,2.32,.14,3.47,.02,.27,.23,.61,.45,.76,3.85,2.63,7.72,5.25,11.75,7.97Zm-61.62-15.51c0-.63,0-1.1,0-1.57,.02-3.04-.06-6.08,.07-9.11,.31-7.06,.81-14.11,1.09-21.17,.33-8.58,.49-17.16,.77-25.74,.14-4.39,.45-8.78,.55-13.17,.14-5.82,.17-11.65,.18-17.48,0-.91,.11-1.57,.87-2.17,1.51-1.21,2.07-2.36,1.18-4.61-2.48-6.3-4.89-12.66-6.24-19.35-.09-.44-.27-.86-.51-1.59-2.26,2.31-4.31,4.41-6.36,6.51-.1-.07-.2-.13-.3-.2v-11.8c-.23-.03-.35-.06-.46-.06-6.28,.09-12.5,.7-18.69,1.77-7.08,1.23-13,4.44-17.61,10.01-4.72,5.71-6.32,12.53-6.97,19.66-.69,7.5-.48,15.01,.04,22.5,.68,9.84,1.76,19.63,3.81,29.3,.34,1.59,.65,3.19,.98,4.79,.3-.21,.35-.4,.38-.58,1.25-8.4,2.21-16.86,3.82-25.2,2.2-11.4,4.87-22.7,7.38-34.04,.54-2.45,1.27-4.86,1.97-7.28,.1-.33,.52-.57,.8-.85,.15,.39,.32,.78,.45,1.18,.03,.1-.04,.23-.07,.35-1.93,8.03-3.9,16.05-5.79,24.09-2.55,10.88-4.58,21.87-6.07,32.95-.96,7.15-1.68,14.34-2.51,21.51-.78,6.67-1.36,13.35-1.15,20.07,.01,.42,.05,.84,.07,1.27h48.31Zm45.54-137.14c-.93,.6-1.56,.95-2.11,1.37-4.27,3.29-8.47,6.66-12.81,9.85-1.43,1.05-1.8,1.99-1.36,3.72,.9,3.62,1.52,7.3,2.29,11.11,.45-.31,.81-.48,1.09-.75,4.33-4.11,8.66-8.22,12.97-12.36,.18-.17,.2-.56,.19-.85-.06-1.95-.19-3.91-.23-5.86-.04-1.95,0-3.9,0-6.24Zm4.05,146.09c0,.74-.02,1.13,0,1.51,.25,3.54,.35,7.1,.8,10.61,.54,4.27,1.37,8.5,2.11,12.73,.08,.48,.29,1.1,.65,1.35,.9,.62,1.91,1.08,2.94,1.62,2.69-5.95,5.34-11.82,8.06-17.85-4.81-3.3-9.56-6.55-14.55-9.97Zm-23.94-120.31c-2.76,1.79-17.27,16.98-18.46,19.39,7.84-2.55,15.54-5.05,23.23-7.56-1.64-4.06-3.19-7.89-4.78-11.83Zm-23.66-21.61c-2.37,.97-4.51,1.82-6.62,2.75-.26,.11-.53,.72-.45,1,.55,1.95,1.17,3.89,1.82,5.81,.08,.25,.52,.53,.78,.53,1.34-.03,2.67-.16,4.03-.25,.14-3.31,.28-6.45,.43-9.83Zm-9,20.05c1.2-1.15,2.38-2.37,3.67-3.47,.62-.53,.77-.95,.49-1.71-1.19-3.34-2.31-6.7-3.46-10.06-.12-.34-.24-.69-.37-1.03-.11,.02-.22,.03-.33,.05v16.22Zm50.23-24.38c0-.11-.01-.21-.02-.32-.92-.07-1.84-.15-2.88-.23v2.66c1.05-.77,1.97-1.44,2.89-2.11Z"/>
    <path d="M501.24,495.12c.21,0,.46-.08,.62,.01,.9,.51,1.75,.99,2.83,.28,.13-.08,.98,.61,1.22,1.08,.39,.8-.14,1.83-1.02,1.92-.55,.05-1.64-.42-1.64-.64,.02-1.46-.95-2.01-1.99-2.65Zm4.63,1.81c-.59-.46-1.14-1-1.22-.94-.42,.34-.78,.8-1.04,1.29-.04,.07,.62,.74,.83,.68,.44-.12,.79-.54,1.42-1.02Z"/>
  </g>
</svg>