<?xml version="1.0" encoding="UTF-8"?>
<svg id="_맨투맨_이미지" data-name="맨투맨 이미지" xmlns="http://www.w3.org/2000/svg" viewBox="0 0 164.54 200.84">
  <defs>
    <style>
      .cls-1 {
        fill: #fff;
      }
    </style>
  </defs>
  <g id="_색" data-name="색">
    <path class="cls-1" d="M127.33,171.17c-.47-2.42-.94-4.84-1.42-7.26-.13-.67-.21-1.36-.46-1.98-1.35-3.32-.52-6.6,.39-9.77,3.18-11,6.53-21.96,9.82-32.93,1.66-2.19,.55-4.54,.2-6.73-1.93-11.93-3.82-23.88-6.11-35.74-2.68-13.87-7.03-27.28-12.37-40.35-.75-1.85-1.62-3.65-2.46-5.45-.18-.39-.45-.78-.78-1.04-.22-.17-.62-.09-.94-.13-.02,.29-.16,.64-.05,.86,7.08,14.21,11.55,29.32,14.95,44.74,1.76,7.98,2.86,16.1,4.24,24.16,.86,5.03,1.67,10.08,2.52,15.11,.21,1.23,.13,2.37-.25,3.61-3.35,10.91-6.63,21.85-9.88,32.79-.67,2.25-1.16,4.56-1.78,6.83-.11,.41-.42,.95-.76,1.08-4.83,1.75-9.65,3.55-14.56,5.08-1.31,.41-3.01,.27-4.34-.18-8.39-2.84-16.74-5.82-24.75-9.66-.31-.15-.61-.35-1.08-.62,2.62-1.2,5.07-2.34,7.55-3.43,3.11-1.37,6.23-2.68,9.35-4.02,.29-.13,.65-.19,.87-.39,.26-.24,.4-.6,.6-.91-.37-.1-.8-.37-1.11-.27-1.02,.33-2.02,.75-3,1.19-8.91,4.03-17.79,8.13-26.73,12.1-3.42,1.52-6.94,2.84-10.49,4.02-2.95,.98-5.85,.49-8.49-1.22-4.48-2.92-8.95-5.86-13.42-8.79-1.37-.9-2.7-1.86-4.11-2.68-.67-.39-.86-.84-.83-1.54,.07-1.48,.14-2.95,.14-4.43,0-1.13-.33-2.29-.13-3.37,.35-1.94,.78-3.91,1.54-5.71,2.64-6.25,5.46-12.42,8.17-18.63,.78-1.79,1.41-3.64,2.13-5.46,.24-.6,.31-1.06-.53-1.24-.25-.05-.45-.42-.65-.66-13.18-14.98-21.58-32.53-27.37-51.42-2.34-7.63-4.25-15.38-6.35-23.08-.06-.23-.08-.51-.22-.68-.18-.21-.52-.49-.71-.44-.21,.05-.49,.47-.46,.69,.09,.83,.25,1.66,.46,2.47,3.37,13.28,6.88,26.52,12.46,39.08,4.5,10.13,9.53,19.97,16.57,28.64,1.76,2.16,3.55,4.31,5.51,6.69-2.19,5.21-4.45,10.65-6.77,16.07-.94,2.2-1.96,4.37-3.01,6.52-1.92,3.94-2.71,8.08-2.25,12.44,.09,.9-.03,1.41-1.1,1.49-1.31,.1-2.73,.81-3.86,.47-1.02-.31-1.79-1.63-2.54-2.61-.86-1.13-1.8-2.3-2.28-3.6-.37-.99-.41-2.37-.02-3.33,.98-2.37,1.05-4.65,.53-7.13-1.76-8.56-3.28-17.16-5.11-25.71-1.89-8.81-4.05-17.57-6.08-26.35-2.47-10.68-3.86-21.52-4.27-32.46-.2-5.32-.05-10.65,1.76-15.74,2.05-5.76,5.52-10.51,11.06-13.3,2.38-1.2,5.11-1.78,7.73-2.44,5.18-1.29,10.38-2.53,15.61-3.61,2.13-.44,4.37-.4,6.55-.63,.81-.08,.89,.43,1.03,.99,1.25,4.95,3.52,9.4,6.45,13.56,2.72,3.86,6.43,6.46,10.64,8.3,7.89,3.43,16.09,4.68,24.56,2.52,5.03-1.28,9.44-3.85,13.4-7.2,2.39-2.02,4.15-4.51,5.46-7.35,2.44-5.32,4.43-10.78,5.67-16.52,.08-.38,.59-.93,.94-.96,7.38-.7,14.77-1.39,22.16-1.95,1.47-.11,3.05,.09,4.45,.53,2.08,.65,3.61,2.18,4.22,4.28,1.13,3.9,2.32,7.81,3.07,11.79,4.36,23.13,8.68,46.27,12.85,69.44,1.53,8.48,2.75,17.01,3.9,25.55,.73,5.42-.17,10.75-1.91,15.93-1.03,3.07-2.02,6.14-3.04,9.21-.09,.26-.26,.5-.39,.75-.12-.03-.24-.06-.35-.1,.2-1.67,.39-3.34,.61-5,.22-1.7,.51-3.4,.67-5.1,.04-.4-.33-.83-.5-1.25-.25,.34-.69,.66-.74,1.03-.67,5.18-1.23,10.38-1.94,15.56-.38,2.8-1.03,5.57-1.45,8.36-.44,2.88-.8,5.77-1.09,8.67-.21,2.04-.97,3.86-2.39,5.24-2.57,2.49-5.29,4.85-8.01,7.18-1.11,.95-2.32,2.25-3.6,2.4-1.23,.14-2.67-.89-3.91-1.6-2.14-1.22-4.18-2.6-6.28-3.9-.25-.15-.73-.37-.81-.29-.24,.25-.34,.64-.49,.98l.03-.03Z"/>
    <path class="cls-1" d="M110.9,3.51c-.13,.81-.18,1.32-.29,1.81-1.28,5.47-3.21,10.7-5.57,15.78-1.7,3.66-4.37,6.43-7.6,8.76-8.87,6.43-18.61,7.4-28.99,4.82-10.43-2.59-17.38-9.03-21.23-18.95-.69-1.77-1.22-3.6-1.89-5.59,2.42-.09,4.56-.19,6.71-.23,.22,0,.6,.36,.66,.62,1.81,7.45,10.8,14.85,18.76,15.67,7.22,.74,13.99-.86,20.25-4.4,6.03-3.41,9.22-8.99,11.05-15.46,.2-.71,.48-1.09,1.2-1.25,2.22-.48,4.42-1,6.94-1.58Z"/>
    <path class="cls-1" d="M127.3,171.19c1.59,1.18,3.18,2.36,4.88,3.63-1.01,2.24-2.08,4.6-3.15,6.95,.14,.06,.27,.13,.41,.19,1.08-2.31,2.17-4.61,3.3-7.02,2.65,1.2,5.25,2.37,8.14,3.68-3.27,6.42-6.52,12.8-9.93,19.5-.19-1.14-.36-1.96-.47-2.78-1.05-7.62-2.09-15.24-3.12-22.86-.06-.43-.02-.87-.03-1.31,0,0-.03,.03-.03,.03Zm3.43,19.6l.34,.16c2.04-4.37,4.08-8.75,6.12-13.12-.11-.05-.23-.1-.34-.16-2.28,4.26-4.31,8.64-6.12,13.12Z"/>
    <path class="cls-1" d="M25.85,147.88c-.63,2.87-1.15,5.65-1.89,8.37-.23,.84-1.08,1.51-1.81,2.47-.71-3.55-1.35-6.8-2.01-10.09,1.96-.26,3.8-.5,5.71-.75Z"/>
  </g>
  <g id="_선" data-name="선">
    <path d="M164.35,114c-.81-6.85-1.66-13.71-2.87-20.5-2.17-12.21-4.68-24.37-6.94-36.56-2.28-12.32-4.43-24.66-6.63-36.99-.83-4.64-1.57-9.29-3.34-13.7-1.74-4.33-5.3-6.56-9.98-6.22-5.25,.38-10.52,.63-15.75,1.25-4.98,.59-9.92,1.55-14.86,2.42-1.43,.25-2.27,.9-2.71,2.68-1.46,5.77-4.45,10.68-9.66,13.91-4.14,2.57-8.71,3.92-13.52,4.52-9.5,1.19-16.75-2.53-22.03-10.27-.99-1.46-2.17-3.06-1.97-5.11,.06-.64-.37-1.03-1.17-.98-1.87,.12-3.75,.1-5.62,.23-3.97,.28-7.98,.41-11.91,.99-4.17,.62-8.27,1.76-12.42,2.54-8.81,1.67-15.57,6.16-19.73,14.22C.85,31.05,.25,36.09,.05,41.19c-.31,7.9,.81,15.69,1.75,23.49,1.12,9.29,3.5,18.32,5.4,27.45,.92,4.41,2.39,8.7,3.31,13.1,1.89,9.02,3.61,18.07,5.29,27.12,.21,1.11,.06,2.46-.4,3.48-1.46,3.23-.68,5.97,1.39,8.58,.84,1.06,2.3,1.84,1.65,3.59-.01,.03,.03,.07,.04,.11,.41,1.74,.84,3.48,1.22,5.23,.45,2.1,.8,4.24,1.32,6.32,.3,1.2,.96,1.31,1.76,.37,1.44-1.68,3-3.28,2.98-5.76,0-.85,.36-1.71,.58-2.56,.05-.2,.15-.45,.31-.56,.34-.23,.74-.39,1.11-.57,.03-.11,.06-.22,.09-.33,1.31,.9,2.61,1.83,3.94,2.7,4.74,3.1,9.44,6.27,14.28,9.21,1.37,.83,3.13,1.19,4.76,1.37,3.23,.35,6.23-.79,9.13-2.06,4.97-2.18,9.89-4.47,14.85-6.68,.48-.21,1.22-.34,1.64-.12,8.28,4.22,17.07,7.15,25.77,10.32,2.09,.76,4.27,.94,6.35,.28,4.06-1.29,8.08-2.74,12.08-4.2,.98-.36,1.86-1.01,2.79-1.52,.04,.14,.19,.51,.26,.9,.99,5.77,2.05,11.54,2.93,17.33,1.1,7.18,2.03,14.38,3.08,21.56,.08,.53,.47,1.02,.71,1.52,.41-.34,.83-.67,1.23-1.02,.09-.07,.13-.2,.18-.31,2.95-5.84,5.96-11.66,8.81-17.55,.89-1.85,1.31-3.92,2.01-5.86,.23-.62,.56-1.29,1.04-1.73,2.54-2.36,5.21-4.58,7.68-7.01,1.59-1.57,2.48-3.6,2.75-5.87,.39-3.29,.59-6.62,1.28-9.84,.98-4.55,2.21-9.05,3.57-13.5,.95-3.12,2.4-6.08,3.45-9.17,1.65-4.85,2.54-9.86,1.93-14.97ZM52.04,9.91c.22,0,.6,.36,.66,.62,1.81,7.45,10.8,14.85,18.76,15.67,7.22,.74,13.99-.86,20.25-4.4,6.03-3.41,9.22-8.99,11.05-15.46,.2-.71,.48-1.09,1.2-1.25,2.22-.48,4.42-1,6.94-1.58-.13,.81-.18,1.32-.29,1.81-1.28,5.47-3.21,10.7-5.57,15.78-1.7,3.66-4.37,6.43-7.6,8.76-8.87,6.43-18.61,7.4-28.99,4.82-10.43-2.59-17.38-9.03-21.23-18.95-.69-1.77-1.22-3.6-1.89-5.59,2.42-.09,4.56-.19,6.71-.23ZM23.96,156.25c-.23,.84-1.08,1.51-1.81,2.47-.71-3.55-1.35-6.8-2.01-10.09,1.96-.26,3.8-.5,5.71-.75-.63,2.87-1.15,5.65-1.89,8.37Zm107,41.88c-.19-1.14-.36-1.96-.47-2.78-1.05-7.62-2.09-15.24-3.12-22.86-.06-.41-.03-.84-.03-1.26,1.58,1.17,3.16,2.34,4.85,3.6-1.01,2.24-2.08,4.6-3.15,6.95,.14,.06,.27,.13,.41,.19,1.08-2.31,2.17-4.61,3.3-7.02,2.65,1.2,5.25,2.37,8.14,3.68-3.27,6.42-6.52,12.8-9.93,19.5Zm30.07-69.08c-1.03,3.07-2.02,6.14-3.04,9.21-.09,.26-.26,.5-.39,.75-.12-.03-.24-.06-.35-.1,.2-1.67,.39-3.34,.61-5,.22-1.7,.51-3.4,.67-5.1,.04-.4-.33-.83-.5-1.25-.25,.34-.69,.66-.74,1.03-.67,5.18-1.23,10.38-1.94,15.56-.38,2.8-1.03,5.57-1.45,8.36-.44,2.88-.8,5.77-1.09,8.67-.21,2.04-.97,3.86-2.39,5.24-2.57,2.49-5.29,4.85-8.01,7.18-1.11,.95-2.32,2.25-3.6,2.4-1.23,.14-2.67-.89-3.91-1.6-2.14-1.22-4.18-2.6-6.28-3.9-.25-.15-.73-.37-.81-.29-.23,.24-.33,.6-.47,.92-.47-2.41-.94-4.82-1.42-7.23-.13-.67-.21-1.36-.46-1.98-1.35-3.32-.52-6.6,.39-9.77,3.18-11,6.53-21.96,9.82-32.93,1.66-2.19,.55-4.54,.2-6.73-1.93-11.93-3.82-23.88-6.11-35.74-2.68-13.87-7.03-27.28-12.37-40.35-.75-1.85-1.62-3.65-2.46-5.45-.18-.39-.45-.78-.78-1.04-.22-.17-.62-.09-.94-.13-.02,.29-.16,.64-.05,.86,7.08,14.21,11.55,29.32,14.95,44.74,1.76,7.98,2.86,16.1,4.24,24.16,.86,5.03,1.67,10.08,2.52,15.11,.21,1.23,.13,2.37-.25,3.61-3.35,10.91-6.63,21.85-9.88,32.79-.67,2.25-1.16,4.56-1.78,6.83-.11,.41-.42,.95-.76,1.08-4.83,1.75-9.65,3.55-14.56,5.08-1.31,.41-3.01,.27-4.34-.18-8.39-2.84-16.74-5.82-24.75-9.66-.31-.15-.61-.35-1.08-.62,2.62-1.2,5.07-2.34,7.55-3.43,3.11-1.37,6.23-2.68,9.35-4.02,.29-.13,.65-.19,.87-.39,.26-.24,.4-.6,.6-.91-.37-.1-.8-.37-1.11-.27-1.02,.33-2.02,.75-3,1.19-8.91,4.03-17.79,8.13-26.73,12.1-3.42,1.52-6.94,2.84-10.49,4.02-2.95,.98-5.85,.49-8.49-1.22-4.48-2.92-8.95-5.86-13.42-8.79-1.37-.9-2.7-1.86-4.11-2.68-.67-.39-.86-.84-.83-1.54,.07-1.48,.14-2.95,.14-4.43,0-1.13-.33-2.29-.13-3.37,.35-1.94,.78-3.91,1.54-5.71,2.64-6.25,5.46-12.42,8.17-18.63,.78-1.79,1.41-3.64,2.13-5.46,.24-.6,.31-1.06-.53-1.24-.25-.05-.45-.42-.65-.66-13.18-14.98-21.58-32.53-27.37-51.42-2.34-7.63-4.25-15.38-6.35-23.08-.06-.23-.08-.51-.22-.68-.18-.21-.52-.49-.71-.44-.21,.05-.49,.47-.46,.69,.09,.83,.25,1.66,.46,2.47,3.37,13.28,6.88,26.52,12.46,39.08,4.5,10.13,9.53,19.97,16.57,28.64,1.76,2.16,3.55,4.31,5.51,6.69-2.19,5.21-4.45,10.65-6.77,16.07-.94,2.2-1.96,4.37-3.01,6.52-1.92,3.94-2.71,8.08-2.25,12.44,.09,.9-.03,1.41-1.1,1.48-1.31,.1-2.73,.81-3.86,.47-1.02-.31-1.79-1.63-2.54-2.61-.86-1.13-1.8-2.3-2.28-3.6-.37-.99-.41-2.37-.02-3.33,.98-2.37,1.05-4.65,.53-7.13-1.76-8.56-3.28-17.16-5.11-25.71-1.89-8.81-4.05-17.57-6.08-26.35-2.47-10.68-3.86-21.52-4.27-32.46-.2-5.32-.05-10.65,1.76-15.74,2.05-5.76,5.52-10.51,11.06-13.3,2.38-1.2,5.11-1.78,7.73-2.44,5.18-1.29,10.38-2.53,15.61-3.61,2.13-.44,4.37-.4,6.55-.63,.81-.08,.89,.43,1.03,.99,1.25,4.95,3.52,9.4,6.45,13.56,2.72,3.86,6.43,6.46,10.64,8.3,7.89,3.43,16.09,4.68,24.56,2.52,5.03-1.28,9.44-3.85,13.4-7.2,2.39-2.02,4.15-4.51,5.46-7.35,2.44-5.32,4.43-10.78,5.67-16.52,.08-.38,.59-.93,.94-.96,7.38-.7,14.77-1.39,22.16-1.95,1.47-.11,3.05,.09,4.45,.53,2.08,.65,3.61,2.18,4.22,4.28,1.13,3.9,2.32,7.81,3.07,11.79,4.36,23.13,8.68,46.27,12.85,69.44,1.53,8.48,2.75,17.01,3.9,25.55,.73,5.42-.17,10.75-1.91,15.93Z"/>
    <path d="M131.07,190.95c2.04-4.37,4.08-8.75,6.12-13.12-.11-.05-.23-.1-.34-.16-2.28,4.26-4.31,8.64-6.12,13.12,.11,.05,.23,.11,.34,.16Z"/>
  </g>
</svg>