<svg id="맨투맨_이미지" data-name="맨투맨 이미지" xmlns="http://www.w3.org/2000/svg" viewBox="0 0 595.2 595.2"><defs><style>.cls-1{fill:#fff;}</style></defs><g id="색"><path class="cls-1" d="M513.68,502.09c-.47-2.42-.94-4.84-1.43-7.26a10.75,10.75,0,0,0-.45-2c-1.35-3.33-.53-6.61.39-9.77,3.18-11,6.53-22,9.81-32.93,1.67-2.19.56-4.54.2-6.74-1.93-11.93-3.82-23.87-6.11-35.74a214.49,214.49,0,0,0-12.37-40.35c-.75-1.85-1.62-3.65-2.47-5.45a2.8,2.8,0,0,0-.78-1c-.22-.17-.62-.1-.94-.13,0,.29-.16.64,0,.86,7.08,14.21,11.55,29.31,14.95,44.73,1.76,8,2.86,16.1,4.24,24.16.86,5,1.67,10.08,2.52,15.12a7.62,7.62,0,0,1-.26,3.6q-5,16.38-9.88,32.79c-.67,2.25-1.15,4.56-1.78,6.83a1.73,1.73,0,0,1-.76,1.08c-4.83,1.75-9.65,3.55-14.56,5.08a7.49,7.49,0,0,1-4.34-.19,217.38,217.38,0,0,1-24.74-9.66c-.32-.15-.61-.35-1.09-.62,2.63-1.19,5.08-2.34,7.55-3.43,3.11-1.37,6.24-2.68,9.36-4a3.22,3.22,0,0,0,.86-.39,4.1,4.1,0,0,0,.6-.91c-.37-.1-.79-.37-1.1-.27a27.74,27.74,0,0,0-3,1.2c-8.9,4-17.79,8.13-26.73,12.09-3.42,1.52-6.94,2.85-10.49,4a9.55,9.55,0,0,1-8.48-1.23c-4.49-2.91-8.95-5.86-13.42-8.79-1.37-.9-2.7-1.86-4.12-2.67a1.46,1.46,0,0,1-.82-1.54c.07-1.48.14-3,.13-4.43a20.32,20.32,0,0,1-.13-3.38,27,27,0,0,1,1.54-5.71c2.64-6.25,5.46-12.42,8.17-18.64.78-1.79,1.41-3.64,2.13-5.46.23-.6.3-1.06-.53-1.24-.26-.05-.45-.42-.66-.66-13.17-15-21.57-32.53-27.37-51.42-2.34-7.62-4.25-15.38-6.35-23.08a1.89,1.89,0,0,0-.22-.67c-.18-.21-.52-.49-.71-.44a.82.82,0,0,0-.46.69,17.19,17.19,0,0,0,.46,2.46c3.37,13.28,6.88,26.52,12.46,39.09,4.5,10.13,9.53,20,16.57,28.64,1.76,2.16,3.55,4.3,5.51,6.69-2.19,5.2-4.45,10.65-6.77,16.07-.94,2.2-2,4.37-3,6.52A22.51,22.51,0,0,0,412.49,476c.09.9,0,1.41-1.1,1.49-1.31.09-2.73.81-3.86.46s-1.8-1.63-2.54-2.61a14.58,14.58,0,0,1-2.28-3.6,5,5,0,0,1,0-3.33,11.69,11.69,0,0,0,.54-7.13c-1.77-8.55-3.28-17.16-5.11-25.7-1.89-8.82-4.05-17.57-6.08-26.35a172.59,172.59,0,0,1-4.28-32.47c-.2-5.32-.05-10.65,1.76-15.74,2.05-5.77,5.52-10.51,11.06-13.3a37.5,37.5,0,0,1,7.74-2.44c5.18-1.29,10.38-2.52,15.61-3.61,2.13-.44,4.37-.4,6.55-.63.81-.08.89.43,1,1A40.83,40.83,0,0,0,438,355.61a24.55,24.55,0,0,0,10.64,8.3c7.89,3.43,16.09,4.68,24.56,2.52a33.54,33.54,0,0,0,13.4-7.2,20.86,20.86,0,0,0,5.46-7.35,80.13,80.13,0,0,0,5.67-16.51,1.46,1.46,0,0,1,.93-1c7.39-.7,14.77-1.39,22.17-2a12.18,12.18,0,0,1,4.45.53,6.22,6.22,0,0,1,4.22,4.28c1.13,3.9,2.32,7.81,3.07,11.8q6.54,34.69,12.85,69.43c1.53,8.48,2.75,17,3.9,25.55A35.31,35.31,0,0,1,547.37,460c-1,3.07-2,6.14-3,9.21a4.45,4.45,0,0,1-.39.75l-.36-.09c.21-1.67.39-3.34.61-5s.51-3.4.67-5.11c0-.39-.33-.83-.51-1.24-.25.34-.68.66-.73,1-.67,5.19-1.24,10.38-1.94,15.56-.38,2.8-1,5.57-1.45,8.37s-.8,5.77-1.1,8.66a8.21,8.21,0,0,1-2.38,5.24c-2.58,2.5-5.29,4.85-8,7.19-1.11,1-2.32,2.25-3.6,2.4s-2.68-.9-3.91-1.61c-2.14-1.22-4.19-2.6-6.28-3.9-.25-.15-.73-.37-.81-.29a3.46,3.46,0,0,0-.49,1Z"/><path class="cls-1" d="M497.25,334.43c-.13.81-.18,1.31-.29,1.8A80.88,80.88,0,0,1,491.38,352a22.65,22.65,0,0,1-7.59,8.77c-8.87,6.42-18.62,7.39-29,4.82s-17.39-9-21.23-19c-.68-1.78-1.22-3.61-1.88-5.6,2.41-.09,4.56-.19,6.7-.22.23,0,.6.36.66.61,1.82,7.45,10.8,14.86,18.76,15.67a33.32,33.32,0,0,0,20.25-4.4c6-3.41,9.22-9,11.05-15.46a1.49,1.49,0,0,1,1.2-1.25C492.53,335.52,494.74,335,497.25,334.43Z"/><path class="cls-1" d="M513.65,502.11l4.88,3.63c-1,2.24-2.09,4.6-3.15,7l.41.18,3.3-7,8.14,3.68c-3.27,6.42-6.52,12.8-9.93,19.51-.19-1.14-.36-2-.47-2.79q-1.58-11.43-3.12-22.86a11.46,11.46,0,0,1,0-1.31Zm3.42,19.6.35.16q3-6.55,6.11-13.12l-.34-.15A136.94,136.94,0,0,0,517.07,521.71Z"/><path class="cls-1" d="M412.19,478.8c-.62,2.87-1.14,5.65-1.89,8.37-.22.84-1.08,1.51-1.81,2.47l-2-10.09Z"/></g><g id="선"><path d="M550.7,444.92c-.82-6.85-1.67-13.71-2.87-20.5-2.18-12.21-4.69-24.36-7-36.56s-4.43-24.66-6.63-37c-.83-4.64-1.57-9.29-3.34-13.7a9.38,9.38,0,0,0-10-6.22c-5.25.39-10.52.63-15.74,1.25-5,.59-9.92,1.55-14.87,2.42a3.07,3.07,0,0,0-2.71,2.68c-1.46,5.77-4.45,10.68-9.66,13.92a33.09,33.09,0,0,1-13.52,4.52c-9.5,1.19-16.75-2.53-22-10.27-1-1.46-2.17-3.06-2-5.12.06-.64-.38-1-1.17-1-1.88.13-3.76.11-5.63.24-4,.28-8,.4-11.91,1-4.17.61-8.26,1.76-12.42,2.54-8.81,1.67-15.57,6.16-19.73,14.22-2.38,4.62-3,9.65-3.18,14.75-.31,7.9.81,15.69,1.75,23.49,1.13,9.29,3.5,18.33,5.4,27.46.92,4.4,2.4,8.69,3.32,13.1,1.88,9,3.61,18.07,5.29,27.12a6.18,6.18,0,0,1-.4,3.48c-1.46,3.24-.68,6,1.38,8.58.84,1.06,2.3,1.84,1.65,3.59,0,0,0,.07,0,.11.41,1.74.84,3.48,1.22,5.23.46,2.1.8,4.24,1.32,6.32.3,1.2,1,1.31,1.76.37,1.43-1.68,3-3.28,3-5.76a10.28,10.28,0,0,1,.58-2.56,1.08,1.08,0,0,1,.32-.56,8.28,8.28,0,0,1,1.11-.57l.08-.34c1.32.9,2.61,1.83,3.95,2.7,4.74,3.1,9.44,6.27,14.28,9.21a11.87,11.87,0,0,0,4.76,1.37c3.23.35,6.23-.79,9.12-2.06,5-2.18,9.89-4.48,14.85-6.68a2.2,2.2,0,0,1,1.64-.12c8.28,4.22,17.07,7.15,25.77,10.31a9.79,9.79,0,0,0,6.36.28C499,494.89,503,493.43,507,492a20.49,20.49,0,0,0,2.79-1.52,7.47,7.47,0,0,1,.26.9c1,5.77,2.05,11.54,2.93,17.33,1.1,7.17,2,14.37,3.08,21.56a5.84,5.84,0,0,0,.72,1.52c.41-.34.82-.67,1.23-1a1.26,1.26,0,0,0,.18-.3c2.95-5.85,6-11.66,8.81-17.56.89-1.84,1.3-3.91,2-5.86a4.46,4.46,0,0,1,1-1.73c2.54-2.36,5.21-4.58,7.68-7a9.69,9.69,0,0,0,2.75-5.87c.39-3.29.58-6.62,1.27-9.84,1-4.55,2.21-9.06,3.57-13.51.95-3.11,2.4-6.08,3.45-9.17A34,34,0,0,0,550.7,444.92ZM438.39,340.83c.23,0,.6.36.66.61,1.82,7.45,10.8,14.86,18.76,15.67a33.32,33.32,0,0,0,20.25-4.4c6-3.41,9.22-9,11.05-15.46a1.49,1.49,0,0,1,1.2-1.25c2.22-.48,4.43-1,6.94-1.57-.13.81-.18,1.31-.29,1.8A80.88,80.88,0,0,1,491.38,352a22.65,22.65,0,0,1-7.59,8.77c-8.87,6.42-18.62,7.39-29,4.82s-17.39-9-21.23-19c-.68-1.78-1.22-3.61-1.88-5.6C434.1,341,436.25,340.86,438.39,340.83ZM410.3,487.17c-.22.84-1.08,1.51-1.81,2.47-.71-3.54-1.35-6.8-2-10.09l5.71-.75C411.57,481.67,411.05,484.45,410.3,487.17Zm107,41.88c-.19-1.14-.36-2-.47-2.79q-1.58-11.43-3.12-22.86a8.84,8.84,0,0,1,0-1.26l4.85,3.6c-1,2.24-2.09,4.6-3.15,7l.41.18,3.3-7,8.14,3.68C524,516,520.71,522.34,517.3,529.05ZM547.37,460c-1,3.07-2,6.14-3,9.21a4.45,4.45,0,0,1-.39.75l-.36-.09c.21-1.67.39-3.34.61-5s.51-3.4.67-5.11c0-.39-.33-.83-.51-1.24-.25.34-.68.66-.73,1-.67,5.19-1.24,10.38-1.94,15.56-.38,2.8-1,5.57-1.45,8.37s-.8,5.77-1.1,8.66a8.21,8.21,0,0,1-2.38,5.24c-2.58,2.5-5.29,4.85-8,7.19-1.11,1-2.32,2.25-3.6,2.4s-2.68-.9-3.91-1.61c-2.14-1.22-4.19-2.6-6.28-3.9-.25-.15-.73-.37-.81-.29a3.07,3.07,0,0,0-.47.92q-.7-3.62-1.42-7.22a10.75,10.75,0,0,0-.45-2c-1.35-3.33-.53-6.61.39-9.77,3.18-11,6.53-22,9.81-32.93,1.67-2.19.56-4.54.2-6.74-1.93-11.93-3.82-23.87-6.11-35.74a214.49,214.49,0,0,0-12.37-40.35c-.75-1.85-1.62-3.65-2.47-5.45a2.8,2.8,0,0,0-.78-1c-.22-.17-.62-.1-.94-.13,0,.29-.16.64,0,.86,7.08,14.21,11.55,29.31,14.95,44.73,1.76,8,2.86,16.1,4.24,24.16.86,5,1.67,10.08,2.52,15.12a7.62,7.62,0,0,1-.26,3.6q-5,16.38-9.88,32.79c-.67,2.25-1.15,4.56-1.78,6.83a1.73,1.73,0,0,1-.76,1.08c-4.83,1.75-9.65,3.55-14.56,5.08a7.49,7.49,0,0,1-4.34-.19,217.38,217.38,0,0,1-24.74-9.66c-.32-.15-.61-.35-1.09-.62,2.63-1.19,5.08-2.34,7.55-3.43,3.11-1.37,6.24-2.68,9.36-4a3.22,3.22,0,0,0,.86-.39,4.1,4.1,0,0,0,.6-.91c-.37-.1-.79-.37-1.1-.27a26.8,26.8,0,0,0-3,1.2c-8.91,4-17.8,8.13-26.74,12.09-3.42,1.52-6.94,2.85-10.49,4a9.55,9.55,0,0,1-8.48-1.23c-4.49-2.91-8.95-5.85-13.42-8.79-1.37-.9-2.7-1.86-4.12-2.67a1.46,1.46,0,0,1-.82-1.54c.07-1.48.14-3,.13-4.43a20.32,20.32,0,0,1-.13-3.38,27,27,0,0,1,1.54-5.71c2.64-6.25,5.46-12.42,8.17-18.64.78-1.79,1.41-3.64,2.13-5.46.23-.6.3-1.06-.53-1.24-.26-.05-.45-.42-.66-.66-13.17-15-21.57-32.53-27.37-51.42-2.34-7.62-4.25-15.38-6.35-23.08a1.89,1.89,0,0,0-.22-.67c-.18-.21-.52-.49-.71-.44a.82.82,0,0,0-.46.69,17.19,17.19,0,0,0,.46,2.46c3.37,13.28,6.88,26.52,12.46,39.09,4.5,10.13,9.53,20,16.57,28.64,1.76,2.16,3.55,4.3,5.51,6.69-2.19,5.2-4.45,10.65-6.77,16.07-.94,2.2-2,4.37-3,6.52A22.51,22.51,0,0,0,412.49,476c.09.9,0,1.41-1.1,1.49-1.31.09-2.73.81-3.86.46s-1.8-1.63-2.54-2.61a14.58,14.58,0,0,1-2.28-3.6,5,5,0,0,1,0-3.33,11.69,11.69,0,0,0,.54-7.13c-1.77-8.55-3.28-17.16-5.11-25.7-1.89-8.82-4.05-17.57-6.08-26.35a172.59,172.59,0,0,1-4.28-32.47c-.2-5.32-.05-10.65,1.76-15.74,2.05-5.77,5.52-10.51,11.06-13.3a37.5,37.5,0,0,1,7.74-2.44c5.18-1.29,10.38-2.52,15.61-3.61,2.13-.44,4.37-.4,6.55-.63.81-.08.89.43,1,1A40.83,40.83,0,0,0,438,355.61a24.55,24.55,0,0,0,10.64,8.3c7.89,3.43,16.09,4.68,24.56,2.52a33.54,33.54,0,0,0,13.4-7.2,20.86,20.86,0,0,0,5.46-7.35,80.13,80.13,0,0,0,5.67-16.51,1.46,1.46,0,0,1,.93-1c7.39-.7,14.77-1.39,22.17-2a12.18,12.18,0,0,1,4.45.53,6.22,6.22,0,0,1,4.22,4.28c1.13,3.9,2.32,7.81,3.07,11.8q6.54,34.69,12.85,69.43c1.53,8.48,2.75,17,3.9,25.55A35.31,35.31,0,0,1,547.37,460Z"/><path d="M517.42,521.87q3-6.55,6.11-13.12l-.34-.15a136.94,136.94,0,0,0-6.12,13.11Z"/></g></svg>