<?xml version="1.0" encoding="UTF-8"?>
<svg id="_스웨터_이미지" data-name="스웨터 이미지" xmlns="http://www.w3.org/2000/svg" viewBox="0 0 164.12 216.9">
  <defs>
    <style>
      .cls-1 {
        fill: #fff;
      }
    </style>
  </defs>
  <g id="_색" data-name="색">
    <path class="cls-1" d="M131.21,211.18c-.4-2.9-.76-5.55-1.14-8.19-.99-6.91-1.98-13.82-2.98-20.73-.14-.99-.24-1.99-.49-2.96-.55-2.12-.41-4.19,.19-6.26,.76-2.64,1.47-5.31,2.31-7.92,2.91-9.03,5.87-18.04,8.82-27.06,.26-.79,.63-1.54,.95-2.31,.75-1.8,.13-3.54-.31-5.26-1.39-5.37-3.03-10.68-4.17-16.1-2.77-13.2-5.32-26.44-7.96-39.67-1.67-8.4-3.67-16.7-7.88-24.27-.91-1.63-2.04-3.14-3-4.75-.19-.31-.23-.95-.04-1.2,.78-1.01,1.61-2,2.55-2.85,5.42-4.93,11.57-8.64,18.52-10.98,2.89-.97,5.86-1.59,8.95-1.33,.16,.01,.33-.07,.5-.11,0-.15,0-.3,0-.46-.87,0-1.75-.05-2.62,0-3.79,.25-7.38,1.31-10.84,2.85-5.03,2.24-9.7,5.08-13.84,8.72-1.69,1.49-3.23,3.13-4.8,4.75-.15,.16-.11,.73,.06,.93,4.06,4.95,6.53,10.71,8.11,16.81,1.64,6.33,3.07,12.72,4.26,19.15,2.9,15.74,6.07,31.42,10.2,46.9,.33,1.23,.73,2.47,.82,3.73,.08,1.24,.04,2.58-.34,3.74-2.64,7.96-5.39,15.88-8.08,23.82-.51,1.51-1.03,3.04-1.34,4.6-.26,1.31-.82,1.67-2.14,1.66-8.83-.06-17.65-.03-26.48-.03-22.45,0-44.89,0-67.34,0-1.87,0-3.73,0-5.81,0,.72-2.3,1.31-4.41,2.03-6.47,3.38-9.64,6.72-19.31,10.26-28.89,.87-2.35,.59-4.07-.8-6.09-9.8-14.25-17.62-29.54-23.64-45.75-3.46-9.31-5.75-18.93-7.86-28.61-.39-1.78-.58-1.92-2.83-1.57,1.57,.41,1.43,1.61,1.65,2.6,2.74,12.58,6.16,24.95,11.22,36.83,5.69,13.35,12.6,26.02,20.82,37.95,.83,1.21,.85,2.04,.42,3.26-3.45,9.66-6.87,19.34-10.26,29.02-.77,2.18-1.39,4.42-2.09,6.63-.16,.51-.2,1.27-.99,1.03-.36-.11-.71-.65-.82-1.06-3.91-14.45-7.1-29.07-10.13-43.73-2.54-12.31-5.17-24.6-7.52-36.95-1.84-9.68-3.34-19.43-3.9-29.29-.27-4.76,.53-9.38,2.84-13.54,1.08-1.93,2.69-3.68,4.39-5.14,6.09-5.21,13.37-7.89,21.19-9.07,3.86-.58,7.78-.72,11.68-.98,5.21-.36,10.44-.57,15.64-1.01,1.6-.14,3.14-.84,4.71-1.29,.23-.07,.43-.22,.66-.27,1.49-.34,1.54-.45,1.31-2.02-.93-6.15-2.61-12.08-5.11-18.06,1.62-.31,3.16-.65,4.72-.87,.23-.03,.65,.5,.79,.85,2.77,6.88,4.84,13.96,6.04,21.28,.07,.4,.18,.79,.45,1.14-.25-4.07-1.19-8-2.37-11.87-1.18-3.85-2.47-7.67-3.77-11.7,2.02-.23,4.1-.5,6.19-.67,.24-.02,.66,.53,.77,.88,2.26,7.12,4.49,14.24,6.72,21.37,.15,.47,.28,.95,.6,1.37-1.39-8.17-4.42-15.86-7.12-23.86,3-.17,5.86-.31,8.72-.49,.86-.05,.86,.5,.9,1.07,.29,3.9,.57,7.81,.86,11.71,.2,2.63,.41,5.26,.62,7.89,.03,.38,.11,.76,.16,1.13l.39-.04c-.52-7.19-1.05-14.38-1.57-21.61h8.84c-.43,7.42-.63,14.65-.64,21.89h.39c.22-7.21,.44-14.43,.67-21.76,1.69,.18,3.1,.33,4.66,.5-.21,1.88-.47,3.68-.6,5.49-.32,4.26-.61,8.52-.84,12.78-.04,.73,.13,1.52,.41,2.21,.14,.36,.71,.56,1.09,.83,.05-.42,.12-.84,.14-1.26,0-.15-.08-.3-.16-.56,2.25-.27,4.45-.52,6.64-.8,5.1-.67,10.2-1.39,15.3-2.02,6.42-.8,12.86-1.31,19.34-.86,3.34,.23,5.72,1.73,7.24,4.83,1.96,4.01,2.99,8.26,3.63,12.61,1.44,9.83,2.77,19.67,4.14,29.51,1.09,7.83,2.13,15.66,3.25,23.48,1.35,9.44,2.69,18.88,4.17,28.3,.92,5.83,2.06,11.63,3.16,17.43,.48,2.53-.05,4.94-.69,7.33-2.15,8.02-5.51,15.56-9.08,23.03-4.78,10.01-9.36,20.13-13.99,30.21-2.45,5.33-4.84,10.69-7.26,16.04-.04,.1-.15,.17-.43,.48Z"/>
    <path class="cls-1" d="M54.07,167.9c0,1.33,0,2.63,0,3.94,0,2.43-.01,4.87,0,7.3,0,.63-.05,1.05-.88,1.05-7.54-.03-15.08-.02-22.62-.03-.11,0-.23-.06-.42-.11-.04-.29-.11-.59-.11-.89,0-3.43,0-6.86-.01-10.3,0-.68,.05-1.12,.94-1.11,7.54,.03,15.08,.02,22.62,.03,.08,0,.15,.04,.47,.11Z"/>
    <path class="cls-1" d="M54.66,180.08v-12.23h23.01c.03,.36,.09,.7,.09,1.05,0,3.4,0,6.79,0,10.19,0,.67-.07,1.12-.95,1.11-7.19-.03-14.38-.02-21.57-.02-.15,0-.31-.05-.57-.09Z"/>
    <path class="cls-1" d="M87.35,180.08v-12.23h21.39v12.23h-21.39Z"/>
    <path class="cls-1" d="M109.44,167.84h17.15c-.51,4.09-2.85,7.93-1.17,12.33-1.39,0-2.54,0-3.69,0-3.71,0-7.43-.02-11.14,.02-.88,0-1.28-.15-1.26-1.17,.06-3.39,.02-6.79,.03-10.18,0-.31,.05-.62,.08-1Z"/>
    <path class="cls-1" d="M80.87,167.77c1.69,0,3.51-.03,5.34,.03,.23,0,.64,.47,.64,.72-.03,3.67-.11,7.33-.23,11,0,.22-.48,.6-.75,.61-1.39,.06-2.79,.07-4.18,0-.28-.01-.77-.46-.78-.71-.05-3.82-.03-7.64-.03-11.66Z"/>
    <path class="cls-1" d="M26.6,180.1h-4.66c.73-3.88,1.44-7.67,2.19-11.44,.05-.25,.43-.57,.69-.61,.66-.09,1.33-.03,2.19-.03-.14,4.06-.27,8.02-.4,12.08Z"/>
    <path class="cls-1" d="M27.54,168.01h1.88v12.1h-2.3c.14-4,.28-7.97,.42-12.1Z"/>
    <path class="cls-1" d="M80.09,180.1h-1.73v-12.28h1.73v12.28Z"/>
  </g>
  <path id="_선" data-name="선" d="M163.77,132.18c-2.04-10.04-3.62-20.18-5.2-30.31-1.21-7.76-2.17-15.57-3.22-23.36-1.35-10.08-2.58-20.19-4.04-30.25-.94-6.51-2.12-12.99-3.35-19.45-.62-3.24-1.97-6.26-3.85-8.97-.7-1.01-1.7-2.17-2.78-2.46-2.25-.59-4.63-.82-6.97-.88-7.61-.21-15.13,.66-22.65,1.78-5.28,.79-10.59,1.36-16.15,2.06,.15-2.62,.23-4.97,.45-7.3,.33-3.53,.72-7.07,1.19-10.58,.23-1.71,.35-1.69-1.29-1.67-.2,0-.39-.06-.59-.08-3.7-.25-7.41-.76-11.11-.69-5.42,.1-10.85,.45-16.24,.98-3.36,.33-6.67,1.18-9.98,1.85-1.15,.23-1.28,.81-.55,1.76,.12,.16,.24,.32,.32,.5,2.23,5.33,3.8,10.84,4.68,16.55,.11,.7-.17,1.06-.78,1.25-1.33,.42-2.64,1.06-4,1.2-4.28,.44-8.58,.78-12.88,.99-5.7,.28-11.41,.3-17.04,1.44-7.32,1.47-14.05,4.2-19.9,8.94-2.87,2.33-4.9,5.17-6.15,8.67C.15,48.45-.33,52.9,.22,57.36c1.22,9.86,2.38,19.74,4.18,29.5,2.65,14.36,5.7,28.65,8.83,42.91,2.73,12.43,5.8,24.79,8.72,37.18,.06,.26,.14,.67,.32,.73,.74,.29,.47,.8,.38,1.29-.53,2.86-1.04,5.73-1.6,8.59-.2,1.01-.54,2-.71,3.01-.08,.47,.08,.99,.13,1.48,.38-.16,.76-.34,1.16-.46,.33-.1,.69-.14,1.04-.15,2.95-.01,5.89-.01,8.84-.01,7.67,0,15.34,0,23,0,23.36,0,46.73,0,70.09,0,.73,0,1.02,.18,1.13,.97,1.23,8.85,2.51,17.7,3.78,26.54,.33,2.29,.66,4.57,1.06,6.85,.07,.4,.47,.74,.72,1.11,.26-.21,.66-.37,.75-.63,.65-1.92,1.43-3.82,1.8-5.8,.71-3.87,2.46-7.29,4.16-10.76,.83-1.68,1.59-3.4,2.38-5.1,4.87-10.46,9.7-20.94,14.61-31.38,3.1-6.58,6.01-13.24,7.94-20.27,.96-3.5,1.61-6.94,.84-10.78ZM26.6,180.1h-4.66c.73-3.88,1.44-7.67,2.19-11.44,.05-.25,.43-.57,.69-.61,.66-.09,1.33-.03,2.19-.03-.14,4.06-.27,8.02-.4,12.08Zm2.82,0h-2.3c.14-4,.28-7.97,.42-12.1h1.88v12.1Zm23.78,.09c-7.54-.03-15.08-.02-22.62-.03-.11,0-.23-.06-.42-.11-.04-.29-.11-.59-.11-.89,0-3.43,0-6.86-.01-10.3,0-.68,.05-1.12,.94-1.11,7.54,.03,15.08,.02,22.62,.03,.08,0,.15,.04,.47,.11,0,1.33,0,2.63,0,3.94,0,2.43-.01,4.87,0,7.3,0,.63-.05,1.05-.88,1.05Zm24.55-1.11c0,.67-.07,1.12-.95,1.11-7.19-.03-14.38-.02-21.57-.02-.15,0-.31-.05-.57-.09v-12.23h23.01c.03,.36,.09,.7,.09,1.05,0,3.4,0,6.79,0,10.19Zm2.34,1.03h-1.73v-12.28h1.73v12.28Zm6.53-.57c0,.22-.48,.6-.75,.61-1.39,.06-2.79,.07-4.18,0-.28-.02-.77-.46-.78-.71-.05-3.82-.03-7.64-.03-11.66,1.69,0,3.51-.03,5.34,.03,.23,0,.64,.47,.64,.72-.03,3.67-.11,7.33-.23,11Zm22.13,.55h-21.39v-12.23h21.39v12.23Zm16.68,.09c-1.39,0-2.54,0-3.69,0-3.71,0-7.43-.02-11.14,.02-.88,0-1.28-.15-1.26-1.17,.06-3.39,.02-6.79,.03-10.18,0-.31,.05-.62,.08-1h17.15c-.51,4.09-2.85,7.93-1.17,12.33Zm36.55-38.76c-2.15,8.02-5.51,15.56-9.08,23.03-4.78,10.01-9.36,20.13-13.99,30.21-2.45,5.33-4.84,10.69-7.26,16.04-.04,.1-.15,.17-.43,.48-.4-2.9-.76-5.55-1.14-8.19-.99-6.91-1.98-13.82-2.98-20.73-.14-.99-.24-1.99-.49-2.96-.55-2.12-.41-4.19,.19-6.26,.76-2.64,1.47-5.31,2.31-7.92,2.91-9.03,5.86-18.04,8.82-27.06,.26-.79,.63-1.54,.95-2.31,.75-1.8,.13-3.54-.31-5.26-1.39-5.37-3.03-10.68-4.17-16.1-2.77-13.2-5.32-26.44-7.96-39.67-1.67-8.4-3.67-16.7-7.88-24.27-.91-1.63-2.04-3.14-3-4.75-.19-.31-.23-.95-.04-1.2,.78-1.01,1.61-2,2.55-2.85,5.42-4.93,11.57-8.64,18.52-10.98,2.89-.97,5.86-1.59,8.95-1.33,.16,.01,.33-.07,.5-.11,0-.15,0-.3,0-.46-.87,0-1.75-.05-2.62,0-3.79,.25-7.38,1.31-10.84,2.85-5.03,2.24-9.7,5.08-13.84,8.72-1.69,1.49-3.23,3.13-4.8,4.75-.15,.16-.11,.73,.06,.93,4.06,4.95,6.53,10.71,8.11,16.81,1.64,6.33,3.07,12.72,4.26,19.15,2.9,15.74,6.07,31.42,10.2,46.9,.33,1.23,.73,2.47,.82,3.73,.08,1.24,.04,2.58-.34,3.74-2.64,7.96-5.39,15.88-8.08,23.82-.51,1.51-1.03,3.04-1.34,4.6-.26,1.31-.82,1.67-2.14,1.66-8.83-.06-17.65-.03-26.48-.03-22.45,0-44.89,0-67.34,0h-5.81c.72-2.3,1.31-4.41,2.03-6.47,3.38-9.64,6.72-19.31,10.26-28.89,.87-2.35,.59-4.07-.8-6.09-9.8-14.25-17.62-29.54-23.64-45.75-3.46-9.31-5.75-18.93-7.86-28.61-.39-1.78-.58-1.92-2.83-1.57,1.57,.41,1.43,1.61,1.65,2.6,2.74,12.58,6.16,24.95,11.22,36.83,5.69,13.35,12.6,26.02,20.82,37.95,.83,1.21,.85,2.04,.42,3.26-3.45,9.66-6.87,19.34-10.26,29.02-.77,2.18-1.39,4.42-2.09,6.62-.16,.51-.2,1.27-.99,1.03-.36-.11-.71-.65-.82-1.06-3.91-14.45-7.1-29.07-10.13-43.73-2.54-12.31-5.17-24.6-7.52-36.95-1.84-9.68-3.34-19.43-3.9-29.29-.27-4.76,.53-9.38,2.84-13.54,1.08-1.93,2.69-3.68,4.39-5.14,6.09-5.21,13.37-7.89,21.19-9.07,3.86-.58,7.78-.72,11.68-.98,5.21-.36,10.44-.57,15.64-1.01,1.6-.14,3.14-.84,4.71-1.29,.23-.07,.43-.22,.66-.27,1.49-.34,1.54-.45,1.31-2.02-.93-6.15-2.61-12.08-5.11-18.06,1.62-.31,3.16-.65,4.72-.87,.23-.03,.65,.5,.79,.85,2.77,6.88,4.84,13.96,6.04,21.28,.07,.4,.18,.79,.45,1.14-.25-4.07-1.19-8-2.37-11.87-1.18-3.85-2.47-7.67-3.77-11.7,2.02-.23,4.1-.5,6.19-.67,.24-.02,.66,.53,.77,.88,2.26,7.12,4.49,14.24,6.72,21.37,.15,.47,.28,.95,.6,1.37-1.39-8.17-4.42-15.86-7.12-23.86,3-.17,5.86-.31,8.72-.49,.86-.05,.86,.5,.9,1.07,.29,3.9,.57,7.81,.86,11.71,.2,2.63,.41,5.26,.62,7.89,.03,.38,.11,.76,.16,1.13,.13-.01,.26-.03,.39-.04-.52-7.19-1.05-14.38-1.57-21.61h8.84c-.43,7.42-.63,14.65-.64,21.89,.13,0,.26,0,.39,0,.22-7.22,.44-14.44,.67-21.77,1.69,.18,3.1,.33,4.66,.5-.21,1.88-.47,3.68-.6,5.49-.32,4.26-.61,8.52-.84,12.78-.04,.73,.13,1.52,.41,2.21,.14,.36,.71,.56,1.09,.83,.05-.42,.12-.84,.14-1.26,0-.15-.08-.3-.16-.56,2.25-.27,4.45-.52,6.64-.8,5.1-.67,10.2-1.39,15.3-2.02,6.42-.8,12.86-1.31,19.34-.86,3.34,.23,5.72,1.73,7.24,4.83,1.96,4.01,2.99,8.26,3.63,12.61,1.44,9.83,2.77,19.67,4.14,29.51,1.09,7.83,2.13,15.66,3.25,23.48,1.35,9.44,2.69,18.88,4.17,28.3,.92,5.83,2.06,11.63,3.16,17.43,.48,2.53-.05,4.94-.69,7.33Z"/>
</svg>