<?xml version="1.0" encoding="UTF-8"?>
<svg id="_티셔츠_이미지" data-name="티셔츠 이미지" xmlns="http://www.w3.org/2000/svg" viewBox="0 0 177.33 181.82">
  <defs>
    <style>
      .cls-1 {
        fill: #fff;
      }
    </style>
  </defs>
  <path id="_색" data-name="색" class="cls-1" d="M126.06,112.3c-.07-.92-.18-1.74-.19-2.57-.19-21.37-.37-42.74-.56-64.11-.02-2.44-.13-4.87-.2-7.31,0-.32,.02-.67-.11-.94-.17-.35-.49-.63-.74-.94-.2,.34-.56,.69-.56,1.03,0,1.24,.18,2.47,.19,3.71,.12,13.9,.21,27.8,.32,41.7,.06,7.87,.15,15.74,.24,23.61,.02,1.44,.13,2.87,.16,4.31,.01,.66,.3,1.45-.63,1.83-.05,.02,.06,.85,.21,.89,.61,.16,1.27,.24,1.91,.21,1.67-.08,3.34-.24,5.01-.34,3.15-.2,6.3-.36,9.44-.58,.78-.06,1.07,.28,1.42,.92,1.3,2.35,1.41,4.51,.42,7.18-4.33,11.69-7.56,23.72-10.19,35.91-.11,.51-.26,1.03-.23,1.53,.02,.37,.32,.71,.49,1.07,.27-.28,.71-.51,.78-.84,1.33-5.5,2.62-11.02,3.92-16.53,.08-.33,.22-.64,.5-.94,.57,12.93,1.14,25.86,1.72,39.06H21.31c.11-.46,.21-1.05,.4-1.61,1.73-5.31,3.54-10.6,5.18-15.93,1.48-4.83,2.63-9.77,4.19-14.57,3.99-12.26,8.13-24.47,12.21-36.69,.16-.49,.41-.97,.5-1.47,.07-.36,.08-.85-.11-1.13-2.87-4.16-5.92-8.2-8.65-12.44-7.34-11.38-12.29-23.92-16.98-36.53-2.5-6.72-4.52-13.63-6.79-20.44-.12-.36-.57-.6-.87-.9-.13,.4-.47,.87-.36,1.2,1.57,5.15,3.02,10.35,4.83,15.42,4.2,11.73,8.57,23.43,14.63,34.34,3.6,6.48,7.88,12.58,11.86,18.84,.29,.45,.69,.84,1.04,1.26-13.62,.17-27.21,.35-41.15,.53,0-2.21-.04-4.31,0-6.42,.22-11.02,.26-22.05,.76-33.06,.44-9.76,1.33-19.52,3.05-29.15,.67-3.76,1.64-7.48,2.67-11.16,2.38-8.48,7.98-13.58,16.64-15.1,5.61-.99,11.27-1.75,16.93-2.43,6.1-.73,12.23-1.25,18.34-1.86,.66-.07,1.33-.09,2.06-.14-.13,1.98-.33,3.84-.35,5.7-.09,7.99,3.89,12.98,11.7,14.56,4.28,.87,8.61,1.17,12.98,.59,5.62-.75,10.14-3.43,13.81-7.68,4.51-5.21,7.85-11.06,9.52-17.78,.22-.87,.67-1.18,1.43-1.29,3.91-.57,7.8-1.27,11.72-1.69,5.83-.63,11.68-1.09,17.53-1.54,.95-.07,2,.13,2.88,.51,3.2,1.37,5.21,3.95,6.86,6.92,2.27,4.08,3.04,8.63,4.33,13.02,5.03,17.25,8.63,34.85,12.74,52.33,2.12,9.01,4.66,17.92,7.04,26.87,.56,2.11,1.25,4.19,1.92,6.43-8.1,1.99-16.4,2.6-24.69,3.21-8.31,.61-16.63,.97-25.07,1.45Zm-17.81,33.12c-.37-.43-.53-.72-.77-.89-.52-.37-1.1-.65-1.63-1.01-8.72-5.88-17.92-10.94-27.24-15.8-6.94-3.62-13.88-7.23-20.7-11.07-3.47-1.96-6.63-4.45-9.96-6.65-.35-.23-.92-.12-1.39-.17,.19,.4,.28,.96,.59,1.19,6.44,4.67,13.13,8.94,20.25,12.53,13.09,6.59,26.16,13.23,38.32,21.5,.43,.29,.89,.58,1.37,.71,.27,.07,.64-.18,1.15-.34Z"/>
  <g id="_선" data-name="선">
    <path d="M176.93,106.33c-3.17-11.58-6.55-23.12-9.33-34.79-3.79-15.87-6.98-31.88-11.56-47.56-1.59-5.46-2.56-11.09-5.25-16.24-1.73-3.32-4.21-5.65-7.38-7.4-.42-.23-.98-.37-1.46-.33-5.53,.43-11.07,.78-16.58,1.39-5.03,.56-10.03,1.42-15.05,2.1-1.35,.18-1.92,.88-2.25,2.18-1.8,7.18-5.44,13.35-10.55,18.65-2.7,2.8-5.93,4.72-9.77,5.49-5.38,1.08-10.75,.78-16.02-.6-4.87-1.28-8.08-4.49-8.77-9.53-.39-2.84,.04-5.8,.12-8.71,0-.17,.17-.34,.24-.52,.15-.33,.28-.66,.42-.98-.44-.12-.89-.37-1.31-.33-3.41,.32-6.83,.67-10.24,1.07-8.75,1.03-17.52,1.95-26.25,3.2-4.91,.7-9.71,2.05-13.39,5.75-1.12,1.13-2.32,2.27-3.09,3.63-2.66,4.7-4.17,9.83-5.19,15.11-2.21,11.43-3.25,23.01-3.74,34.6C.08,84.07,.15,95.66,0,107.24c-.01,.99,.13,1.99,.2,2.98,.04,.62,.3,.89,.98,.9,2.35,.03,4.71,.2,7.06,.18,5.79-.06,11.58-.23,17.37-.29,5.39-.05,10.78-.01,16.32-.01-.16,.47-.29,.84-.41,1.21-3.73,11.17-7.49,22.32-11.18,33.5-.92,2.8-1.33,5.79-2.43,8.5-3.4,8.35-5.5,17.08-7.97,25.71-.47,1.65-.11,1.98,1.63,1.87,2.23-.15,4.45-.38,6.68-.38,33.95-.02,67.91-.02,101.86-.02,1.63,0,3.26,0,4.89,.02,1.15,0,2.3,.04,3.45,0,1.03-.03,2.27-.95,2.25-1.7-.1-2.97,.39-5.91-.12-8.92-.58-3.44-.65-6.98-.81-10.49-.35-7.78-.63-15.56-.92-23.34-.02-.62,.05-1.29,.24-1.88,1.56-4.87,3.15-9.72,4.74-14.57,.19-.57,.35-1.19,.72-1.63,.53-.64,.43-1.2,.19-1.88-.5-1.42-.94-2.85-1.41-4.28,3.83-.28,7.64-.54,11.45-.85,6.92-.57,13.82-1.22,20.61-2.74,2.29-.51,2.17-.46,1.53-2.81Zm-25.8,4.51c-8.31,.61-16.63,.97-25.07,1.45-.07-.92-.18-1.74-.19-2.57-.19-21.37-.37-42.74-.56-64.11-.02-2.44-.13-4.87-.2-7.31,0-.32,.02-.67-.11-.94-.17-.35-.49-.63-.74-.94-.2,.34-.56,.69-.56,1.03,0,1.24,.18,2.47,.19,3.71,.12,13.9,.21,27.8,.32,41.7,.06,7.87,.15,15.74,.24,23.61,.02,1.44,.13,2.87,.16,4.31,.01,.66,.3,1.45-.63,1.83-.05,.02,.06,.85,.21,.89,.61,.16,1.27,.24,1.91,.21,1.67-.08,3.34-.24,5.01-.34,3.15-.2,6.3-.36,9.44-.58,.78-.06,1.07,.28,1.42,.92,1.3,2.35,1.41,4.51,.42,7.18-4.33,11.69-7.56,23.72-10.19,35.91-.11,.51-.26,1.03-.23,1.53,.02,.37,.32,.71,.49,1.07,.27-.28,.71-.51,.78-.84,1.33-5.51,2.62-11.02,3.92-16.53,.08-.33,.22-.64,.5-.94,.57,12.93,1.14,25.86,1.72,39.06H21.31c.11-.46,.21-1.05,.4-1.61,1.73-5.31,3.54-10.6,5.18-15.93,1.48-4.83,2.63-9.77,4.19-14.57,3.99-12.26,8.13-24.47,12.21-36.69,.16-.49,.41-.97,.5-1.47,.07-.36,.08-.85-.11-1.13-2.87-4.16-5.92-8.2-8.65-12.44-7.34-11.38-12.29-23.92-16.98-36.53-2.5-6.72-4.52-13.63-6.79-20.44-.12-.36-.57-.6-.87-.9-.13,.4-.47,.87-.36,1.2,1.57,5.15,3.02,10.35,4.83,15.42,4.2,11.73,8.57,23.43,14.63,34.34,3.6,6.48,7.88,12.58,11.86,18.84,.29,.45,.69,.84,1.04,1.26-13.62,.17-27.21,.35-41.15,.53,0-2.21-.04-4.31,0-6.42,.22-11.02,.26-22.05,.76-33.06,.44-9.76,1.33-19.52,3.05-29.15,.67-3.76,1.64-7.48,2.67-11.16,2.38-8.48,7.98-13.58,16.64-15.1,5.61-.99,11.27-1.75,16.93-2.43,6.1-.73,12.23-1.25,18.34-1.86,.66-.07,1.33-.09,2.06-.14-.13,1.98-.33,3.84-.35,5.7-.09,7.99,3.89,12.98,11.7,14.56,4.28,.87,8.61,1.17,12.98,.59,5.62-.75,10.14-3.43,13.81-7.68,4.51-5.21,7.85-11.06,9.52-17.78,.22-.87,.67-1.18,1.43-1.29,3.91-.57,7.8-1.27,11.72-1.69,5.83-.62,11.68-1.09,17.53-1.54,.95-.07,2,.13,2.88,.51,3.2,1.37,5.21,3.95,6.86,6.92,2.27,4.08,3.04,8.63,4.33,13.03,5.03,17.25,8.63,34.85,12.74,52.33,2.12,9.01,4.66,17.92,7.04,26.87,.56,2.11,1.25,4.19,1.92,6.43-8.1,1.99-16.4,2.6-24.69,3.21Z"/>
    <path d="M107.47,144.53c-.52-.37-1.1-.65-1.63-1.01-8.72-5.88-17.92-10.94-27.24-15.8-6.94-3.62-13.88-7.23-20.7-11.07-3.47-1.96-6.63-4.45-9.96-6.65-.35-.23-.92-.12-1.39-.17,.19,.4,.28,.96,.59,1.19,6.44,4.67,13.13,8.94,20.25,12.53,13.09,6.59,26.16,13.23,38.32,21.5,.43,.29,.89,.58,1.37,.71,.27,.07,.64-.18,1.15-.34-.37-.43-.53-.72-.77-.89Z"/>
  </g>
</svg>