<?xml version="1.0" encoding="UTF-8"?>
<svg id="_청바지_이미지" data-name="청바지 이미지" xmlns="http://www.w3.org/2000/svg" viewBox="0 0 129.83 114.06">
  <defs>
    <style>
      .cls-1 {
        fill: #fff;
      }
    </style>
  </defs>
  <g id="_레이어_20" data-name="레이어 20">
    <path class="cls-1" d="M128.39,114.06h-52.94c-.09-.42-.14-.86-.29-1.26-1.84-5.19-3.69-10.37-5.54-15.55-2.75-7.69-5.49-15.39-8.24-23.09-.02-.06,.04-.14,.09-.28,.34,.23,.68,.44,.99,.68,5.29,3.99,10.57,7.99,15.86,11.98,.48,.36,.95,.75,1.47,1.02,.21,.11,.69,.04,.82-.13,.13-.16,.03-.58-.08-.83-.09-.2-.35-.32-.53-.46-15.5-12.21-31.75-23.36-48.48-33.82-.58-.36-1.1-.81-1.71-1.1-.36-.17-.84-.09-1.27-.12,.16,.39,.23,.87,.5,1.15,.41,.42,.97,.7,1.47,1.03,7.77,5.11,15.44,10.37,23.35,15.25,3.86,2.38,6.45,5.46,7.76,9.69,.28,.91,.48,1.91,.44,2.86-.3,8.01-.68,16.02-1,24.03-.12,2.99-.16,5.98-.24,8.97H1.44c.13-17.51-.11-35.02,.68-52.38,.66-.09,1.21-.06,1.67-.26,3.2-1.35,6.39-2.71,9.55-4.14,1.27-.57,2.49-1.27,3.66-2.02,1.61-1.03,2.47-2.55,2.6-4.48,.07-.99,.21-1.98,.25-2.98,.34-8.37,.67-16.74,1.01-25.11,.09-2.18,.19-4.35,.29-6.52h20.87V49.37h12.02V16.15h32.25c.38,3.56,.75,7.04,1.12,10.53,.8,7.69,1.62,15.38,2.37,23.07,.27,2.75,1.56,4.81,3.95,6.02,3.16,1.59,6.37,3.14,9.69,4.37,4.97,1.84,10.05,3.39,15.09,5.05,.66,.22,1.1,.48,1.23,1.24,.62,3.65,1.28,7.3,1.94,10.95,2.23,12.23,4.48,24.46,6.72,36.69Z"/>
    <path class="cls-1" d="M87.68,16.07c.38,0,.74,0,1.09,0,7.7,0,15.4,.01,23.1-.02,.94,0,1.41,.14,1.52,1.24,.47,4.88,1.02,9.74,1.58,14.61,.58,5.02,1.14,10.05,1.82,15.06,.75,5.56,1.63,11.11,2.44,16.67,.01,.07-.04,.15-.1,.31-2.6-.86-5.2-1.7-7.79-2.57-5.21-1.75-10.55-3.17-15.41-5.84-.49-.27-.97-.56-1.46-.83-2.07-1.16-3.18-2.9-3.42-5.28-.71-7.21-1.47-14.42-2.2-21.64-.39-3.84-.77-7.68-1.18-11.71Z"/>
    <path class="cls-1" d="M2.18,60.65c.19-3.91,.36-7.77,.57-11.63,.27-5.01,.49-10.03,.9-15.04,.17-2.08,.65-4.16,1.23-6.18,1.05-3.64,2.26-7.23,3.45-10.82,.12-.36,.57-.87,.87-.88,3.42-.06,6.85-.04,10.4-.04,0,2.06,.04,4.03,0,6.01-.1,3.71-.22,7.41-.41,11.12-.3,5.93-.65,11.86-.98,17.79-.07,1.3-.7,2.32-1.74,2.99-1.34,.86-2.73,1.65-4.17,2.31-3.3,1.49-6.65,2.88-10.11,4.37Z"/>
    <path class="cls-1" d="M114.79,1.97c-.3,2.24-.56,4.44-.88,6.64-.33,2.27-.36,2.27-2.73,2.27-18.51,0-37.02,0-55.52,0-.52,0-1.03,0-1.64,0V1.97h60.77Z"/>
    <path class="cls-1" d="M43.38,16.14h9.2v31.53h-9.2V16.14Z"/>
    <path class="cls-1" d="M10.18,10.77c.75-2.85,1.45-5.58,2.23-8.3,.08-.29,.68-.6,1.05-.61,1.71-.06,3.43-.03,5.14-.03,7.13-.01,14.27-.03,21.4-.03,.62,0,1.24,.12,1.87,.18V10.77H10.18Z"/>
    <path class="cls-1" d="M113.31,12.34q.03,2.34-2.13,2.34c-18.55,0-37.09,0-55.64,0-.47,0-.95,0-1.52,0v-2.34h59.29Z"/>
    <path class="cls-1" d="M43.35,1.87h9.21V10.79h-9.21V1.87Z"/>
    <path class="cls-1" d="M9.2,14.58c-.03-.11-.05-.16-.05-.19q.44-2.11,2.58-2.11c9.53,0,19.07,0,28.6,0,.47,0,.94,0,1.5,0v2.31H9.2Z"/>
    <path class="cls-1" d="M52.58,12.35v2.25h-9.2v-2.25h9.2Z"/>
  </g>
  <g id="_선" data-name="선">
    <path d="M129.13,111.04c-1.69-9.29-3.34-18.59-5.05-27.88-1.2-6.5-2.6-12.98-3.69-19.5-.92-5.54-1.56-11.13-2.28-16.7-.63-4.86-1.24-9.72-1.78-14.59-.43-3.92-.76-7.85-1.11-11.78-.21-2.3-.65-4.63-.49-6.91,.27-3.85,.89-7.68,1.47-11.5C116.43,.69,116.22,0,114.33,0,80.97,.04,47.6,.03,14.24,.03,11.97,.03,11.91,.01,11.25,2.22c-1.26,4.18-2.4,8.4-3.67,12.57-1.61,5.3-3.29,10.58-4.93,15.88-.2,.64-.46,1.3-.48,1.95-.14,3.38-.17,6.76-.31,10.15-.53,13.11-1.23,26.22-1.59,39.33-.29,10.65-.19,21.31-.27,31.96H1.44c.13-17.51-.11-35.02,.68-52.38,.66-.09,1.21-.06,1.67-.26,3.2-1.35,6.39-2.71,9.55-4.14,1.27-.57,2.49-1.27,3.66-2.02,1.61-1.03,2.47-2.55,2.6-4.48,.07-.99,.21-1.98,.25-2.98,.34-8.37,.67-16.74,1.01-25.11,.09-2.18,.19-4.35,.29-6.52h20.87V49.37h12.02V16.15h32.25c.38,3.56,.75,7.04,1.12,10.53,.8,7.69,1.62,15.38,2.37,23.07,.27,2.75,1.56,4.82,3.95,6.02,3.16,1.59,6.37,3.14,9.69,4.37,4.97,1.84,10.05,3.39,15.09,5.05,.66,.22,1.1,.48,1.23,1.24,.62,3.65,1.28,7.3,1.94,10.95,2.23,12.23,4.48,24.46,6.72,36.69h1.44c-.23-1.01-.51-2.01-.7-3.03ZM19.59,22.08c-.1,3.71-.22,7.41-.41,11.12-.3,5.93-.65,11.86-.98,17.79-.07,1.3-.7,2.32-1.74,2.99-1.34,.86-2.73,1.65-4.17,2.31-3.3,1.49-6.65,2.88-10.11,4.37,.19-3.91,.36-7.77,.57-11.63,.27-5.01,.49-10.03,.9-15.04,.17-2.08,.65-4.16,1.23-6.18,1.05-3.64,2.26-7.23,3.45-10.82,.12-.36,.57-.87,.87-.88,3.42-.06,6.85-.04,10.4-.04,0,2.06,.04,4.03,0,6.01Zm22.24-7.5H9.2c-.03-.11-.05-.16-.05-.19q.44-2.11,2.58-2.11c9.53,0,19.07,0,28.6,0h1.5v2.31Zm.04-3.8H10.18c.75-2.85,1.45-5.58,2.23-8.3,.08-.29,.68-.6,1.05-.61,1.71-.06,3.43-.03,5.14-.03,7.13-.01,14.27-.03,21.4-.03,.62,0,1.24,.12,1.87,.18V10.77ZM54.02,1.97h60.77c-.3,2.24-.56,4.44-.88,6.64-.33,2.27-.36,2.27-2.73,2.27-18.51,0-37.02,0-55.52,0h-1.64V1.97Zm-10.67-.1h9.21V10.79h-9.21V1.87Zm9.23,45.8h-9.2V16.14h9.2v31.53Zm.01-33.07h-9.2v-2.25h9.2v2.25Zm2.95,.08h-1.52v-2.34h59.29q.03,2.34-2.13,2.34c-18.55,0-37.09,0-55.64,0Zm63.59,49.26c-2.6-.86-5.2-1.7-7.79-2.57-5.21-1.75-10.55-3.17-15.41-5.84-.49-.27-.97-.56-1.46-.83-2.07-1.16-3.18-2.9-3.42-5.28-.71-7.21-1.47-14.42-2.2-21.64-.39-3.84-.77-7.68-1.18-11.71h1.09c7.7,0,15.4,.01,23.1-.02,.94,0,1.41,.14,1.52,1.24,.47,4.88,1.02,9.74,1.58,14.61,.58,5.02,1.14,10.05,1.82,15.06,.75,5.56,1.63,11.11,2.44,16.67,.01,.07-.04,.15-.1,.31Z"/>
    <path d="M80.02,86.12c-15.5-12.21-31.75-23.36-48.48-33.82-.58-.36-1.1-.81-1.71-1.1-.36-.17-.84-.09-1.27-.12,.16,.39,.23,.87,.5,1.15,.41,.42,.97,.7,1.47,1.03,7.77,5.11,15.44,10.37,23.35,15.25,3.86,2.38,6.45,5.46,7.76,9.69,.28,.91,.48,1.91,.44,2.86-.3,8.01-.68,16.02-1,24.03-.12,2.99-.16,5.98-.24,8.97h1.44c.31-10.12,.61-20.24,.92-30.36,.15-.01,.31-.03,.46-.04,.16,.42,.32,.84,.47,1.26,3.3,9.57,6.6,19.15,9.91,28.72,.05,.15,.15,.28,.22,.42h1.2c-.09-.42-.14-.86-.28-1.26-1.84-5.19-3.69-10.37-5.54-15.55-2.75-7.69-5.49-15.39-8.24-23.09-.02-.06,.04-.14,.09-.28,.34,.23,.68,.44,.99,.68,5.29,3.99,10.57,7.99,15.86,11.98,.48,.36,.95,.75,1.47,1.02,.21,.11,.69,.04,.82-.13,.13-.16,.03-.58-.08-.83-.09-.2-.35-.32-.53-.46Z"/>
  </g>
</svg>