<?xml version="1.0" encoding="UTF-8"?>
<svg id="_반바지" data-name="반바지" xmlns="http://www.w3.org/2000/svg" viewBox="0 0 595.2 595.2">
  <defs>
    <style>
      .cls-1 {
        fill: #fff;
      }
    </style>
  </defs>
  <g id="_색" data-name="색">
    <path class="cls-1" d="M436.15,507.9c-2.18-.97-4.2-1.91-6.26-2.76-.66-.28-1.62-1.13-2.09-.17-.51,1.05,.8,1.31,1.46,1.63,4.92,2.35,9.88,4.62,14.8,6.97,.45,.22,.92,.76,1.05,1.23,1.81,6.86,3.57,13.73,5.34,20.6,.15,.57,.31,1.14,.49,1.79-.95,0-1.78,0-2.61,0-16.08,.01-32.17,.03-48.25,.05-.96,0-1.92,.04-2.87,.13-.86,.08-1.1-.31-1.15-1.09-.23-4.14-.48-8.28-.73-12.42-.18-2.98-.37-5.96-.56-9,3.01,.48,5.73-.18,8.37-1.21,2.85-1.1,4.76-3.1,5.62-6.09,1.55-5.41,2.1-10.95,2.17-16.55,0-.47,0-.94,0-1.61h25.23v18.5Z"/>
    <path class="cls-1" d="M471.4,489.68c.5,3.67,.89,7.23,1.49,10.75,.34,1.99,.9,3.97,1.56,5.88,1.64,4.77,4.88,7.85,9.89,8.95,3.72,.82,7.45,1.4,11.22,.44,1.55,6.43,3.1,12.86,4.67,19.41-1.69,.17-3.46,.37-5.24,.52-8.79,.75-17.58,1.43-26.36,2.25-4.45,.41-8.88,1.03-13.31,1.59-1.87,.23-1.89,.27-2.43-1.57-1.27-4.28-2.58-8.55-3.77-12.85-.93-3.33-1.71-6.71-2.62-10.33,.59,.25,.97,.39,1.34,.57,4.73,2.3,9.46,4.61,14.2,6.9,.42,.2,.91,.36,1.37,.38,.29,0,.74-.24,.83-.48,.09-.24-.09-.69-.3-.92-.22-.25-.61-.36-.93-.52-5.37-2.62-10.75-5.24-16.11-7.89-.27-.14-.56-.58-.56-.89-.03-7.3-.03-14.6-.03-21.9,0-.08,.04-.15,.08-.3h25.02Z"/>
    <path class="cls-1" d="M392.12,553.12v-14.23c1.7,0,3.39,0,5.09,0,14.25,.02,28.5,.05,42.75,.07,3.55,0,7.11,0,10.66-.05,.68,0,1.03,.21,1.18,.87,.65,2.87,1.55,5.68,1.27,8.7-.14,1.49-.02,3.01-.02,4.63h-60.92Z"/>
    <path class="cls-1" d="M457.28,554.68c-1.17-4.61-2.28-9-3.41-13.45,16.6-2.48,33.31-2.97,50.15-4.66,1.28,4.28,2.58,8.62,3.98,13.32-16.99,1.92-33.84,2.77-50.72,4.79Z"/>
    <path class="cls-1" d="M491.79,476.5c.17,3.94,.32,7.71,.49,11.62h-45.99v-10.8c.07-.03,.21-.11,.36-.13,6.03-.59,12.08-.62,18.13-.59,8.26,.04,16.52,.01,24.78,0,.67,0,1.34-.07,2.23-.11Z"/>
    <path class="cls-1" d="M395.48,488.06c.24-3.09,.46-5.99,.7-8.88,.22-2.63,.23-2.59,2.84-2.58,8.26,.02,16.51-.04,24.77,.04,3.7,.04,7.4,.4,11.1,.55,1.21,.05,1.49,.53,1.45,1.69-.1,3.05-.03,6.11-.03,9.18h-40.83Z"/>
    <path class="cls-1" d="M473.07,489.64c1.98,0,3.65,0,5.32,0,4.31,0,8.61,0,12.92-.03,.84,0,1.13,.2,1.24,1.1,.89,7.51,1.85,15.01,2.78,22.52,.03,.27,0,.54,0,.83-4.29,.89-8.44,.22-12.49-1.09-2.65-.86-4.59-2.68-5.85-5.17-1.84-3.65-2.51-7.62-3.1-11.61-.31-2.11-.54-4.24-.83-6.56Z"/>
    <path class="cls-1" d="M409.35,489.53c0,1.49,.06,2.95-.01,4.42-.23,4.34-.72,8.65-1.84,12.88-.78,2.94-2.55,4.87-5.4,5.7-1.74,.51-3.59,.68-5.39,.98-.61,.1-1.23,.14-1.94,.22-.05-.57-.15-1.2-.14-1.82,.21-7.21,.44-14.42,.66-21.63,.02-.57,.16-.88,.81-.88,4.31,.03,8.62,.03,12.93,.05,.11,0,.22,.07,.31,.1Z"/>
    <path class="cls-1" d="M437.74,477.34h7.07v34.47c-2.36-1.05-4.54-1.98-6.67-3.02-.27-.13-.38-.82-.39-1.25,0-6.82,.02-13.64,.02-20.47,0-2.75-.02-5.51-.03-8.26,0-.43,0-.86,0-1.49Zm5.75,5.37c-.02-1.09-1.45-2.57-2.45-2.53-1,.04-1.95,1.19-1.96,2.35,0,1.33,1.05,2.46,2.26,2.44,1.18-.02,2.16-1.06,2.14-2.26Z"/>
    <path class="cls-1" d="M441.21,481.52l.84,1.72c-.36,.12-.86,.44-1.07,.31-.73-.46-.67-1.15-.26-1.81,.16-.07,.32-.15,.49-.22Z"/>
  </g>
  <g id="_선" data-name="선">
    <path d="M394.29,537.41c-.21-3.65-.46-7.07-.59-10.49-.31-8.13-.88-16.26-.77-24.38,.1-7.44,.95-14.87,1.48-22.31,.08-1.19,.31-2.38,.3-3.57-.01-1.2,.42-1.57,1.62-1.57,6.47,.03,12.93-.03,19.4-.03,24.87,0,49.74,.03,74.61,.04,.86,0,1.72,0,2.59,0,.12,3.03,.12,5.91,.39,8.76,.35,3.84,.88,7.67,1.39,11.5,.8,6.05,1.41,12.13,2.54,18.11,1.25,6.57,3,13.04,4.53,19.56,.14,.57,.31,1.14,.49,1.77,1.93-.22,2.93,.77,3.44,2.53,1.13,3.9,2.38,7.77,3.49,11.68,.56,1.97,.33,2.3-1.71,2.6-2.64,.38-5.3,.72-7.96,.94-12.72,1.05-25.45,2.07-38.18,3.08-.99,.08-1.99,.08-2.99,.11-.2,0-.4-.03-.6-.01-.52,.04-1.23,.33-1.51,.09-.4-.33-.51-1.04-.71-1.6-.24-.67-.45-1.35-.73-2.21-.11,.35-.2,.52-.22,.69-.27,2.22-.23,2.26-2.85,2.26-15.01,0-30.02,.01-45.03-.01-4.99,0-9.98-.11-14.96-.17-.36,0-.8,.07-1.05-.11-.26-.19-.49-.64-.47-.96,.03-.6,.37-1.18,.38-1.77,.05-4.03,.05-8.06,.05-12.09,0-.38-.05-.8-.23-1.12-.48-.86-.39-1.21,.59-1.29,1.02-.08,2.06-.02,3.27-.02Zm41.86-29.51v-18.5h-25.23c0,.67,0,1.14,0,1.61-.08,5.6-.63,11.14-2.17,16.55-.85,2.99-2.77,4.99-5.62,6.09-2.64,1.02-5.36,1.68-8.37,1.21,.19,3.04,.38,6.02,.56,9,.25,4.14,.51,8.28,.73,12.42,.04,.78,.29,1.18,1.15,1.09,.95-.09,1.91-.13,2.87-.13,16.08-.02,32.17-.03,48.25-.05,.83,0,1.66,0,2.61,0-.18-.66-.34-1.22-.49-1.79-1.77-6.87-3.53-13.74-5.34-20.6-.13-.48-.6-1.02-1.05-1.23-4.92-2.35-9.88-4.62-14.8-6.97-.66-.32-1.97-.57-1.46-1.63,.47-.97,1.43-.11,2.09,.17,2.06,.85,4.08,1.79,6.26,2.76Zm35.24-18.22h-25.02c-.04,.15-.08,.22-.08,.3,0,7.3,0,14.6,.03,21.9,0,.3,.28,.75,.56,.89,5.36,2.65,10.74,5.27,16.11,7.89,.32,.16,.7,.27,.93,.52,.21,.23,.39,.68,.3,.92-.09,.24-.55,.49-.83,.48-.46-.01-.94-.17-1.37-.38-4.74-2.29-9.47-4.6-14.2-6.9-.37-.18-.75-.32-1.34-.57,.91,3.62,1.7,7,2.62,10.33,1.2,4.3,2.5,8.57,3.77,12.85,.55,1.84,.56,1.8,2.43,1.57,4.43-.56,8.86-1.18,13.31-1.59,8.78-.81,17.57-1.5,26.36-2.25,1.78-.15,3.55-.35,5.24-.52-1.58-6.55-3.13-12.98-4.67-19.41-3.77,.96-7.5,.37-11.22-.44-5.01-1.1-8.24-4.19-9.89-8.95-.66-1.92-1.22-3.89-1.56-5.88-.6-3.52-.99-7.08-1.49-10.75Zm-79.27,63.44h60.92c0-1.62-.11-3.13,.02-4.63,.28-3.02-.62-5.83-1.27-8.7-.15-.66-.49-.88-1.18-.87-3.55,.04-7.1,.05-10.66,.05-14.25-.02-28.5-.05-42.75-.07-1.7,0-3.39,0-5.09,0v14.23Zm65.16,1.56c16.88-2.01,33.73-2.87,50.72-4.79-1.4-4.7-2.7-9.03-3.98-13.32-16.84,1.68-33.55,2.17-50.15,4.66,1.13,4.45,2.24,8.84,3.41,13.45Zm34.51-78.18c-.89,.05-1.56,.11-2.23,.11-8.26,0-16.52,.04-24.78,0-6.05-.03-12.1,0-18.13,.59-.15,.01-.29,.1-.36,.13v10.8h45.99c-.16-3.91-.32-7.68-.49-11.62Zm-96.32,11.56h40.83c0-3.07-.06-6.12,.03-9.18,.04-1.16-.24-1.64-1.45-1.69-3.7-.15-7.4-.51-11.1-.55-8.25-.09-16.51-.02-24.77-.04-2.62,0-2.62-.05-2.84,2.58-.24,2.89-.46,5.79-.7,8.88Zm77.6,1.58c.29,2.32,.52,4.44,.83,6.56,.59,3.98,1.26,7.96,3.1,11.61,1.26,2.5,3.19,4.32,5.85,5.17,4.05,1.31,8.2,1.97,12.49,1.09,0-.3,.03-.57,0-.83-.93-7.51-1.89-15.01-2.78-22.52-.11-.9-.4-1.11-1.24-1.1-4.31,.04-8.61,.03-12.92,.03-1.67,0-3.34,0-5.32,0Zm-63.72-.11c-.09-.03-.2-.1-.31-.1-4.31-.02-8.62-.02-12.93-.05-.65,0-.8,.3-.81,.88-.21,7.21-.45,14.42-.66,21.63-.02,.63,.09,1.26,.14,1.82,.71-.08,1.33-.11,1.94-.22,1.8-.3,3.64-.47,5.39-.98,2.85-.83,4.62-2.75,5.4-5.7,1.11-4.23,1.61-8.53,1.84-12.88,.08-1.46,.01-2.93,.01-4.42Zm28.39-12.19c0,.63,0,1.06,0,1.49,.01,2.75,.04,5.51,.03,8.26,0,6.82-.03,13.64-.02,20.47,0,.43,.11,1.11,.39,1.25,2.13,1.04,4.32,1.97,6.67,3.02v-34.47h-7.07Z"/>
    <path d="M443.5,482.71c.02,1.21-.96,2.25-2.14,2.26-1.22,.02-2.26-1.11-2.26-2.44,0-1.16,.96-2.31,1.96-2.35,1-.04,2.43,1.44,2.45,2.53Zm-2.28-1.19c-.16,.07-.32,.15-.49,.22-.41,.66-.47,1.34,.26,1.81,.21,.13,.7-.19,1.07-.31-.28-.57-.56-1.15-.84-1.72Z"/>
  </g>
</svg>