<?xml version="1.0" encoding="UTF-8"?>
<svg id="_치마_이미지" data-name="치마 이미지" xmlns="http://www.w3.org/2000/svg" viewBox="0 0 142.07 125.51">
  <defs>
    <style>
      .cls-1 {
        fill: #fff;
      }
    </style>
  </defs>
  <g id="_색" data-name="색">
    <path class="cls-1" d="M115.61,12.35c-.91,3.22-1.66,6.32-2.67,9.34-.63,1.87-.48,3.54,.2,5.32,1.74,4.57,1.97,9.43,2.65,14.2,2.13,15.02,4.35,30.03,6.44,45.06,1.73,12.42,3.32,24.85,4.98,37.28,.04,.3,.04,.61,.06,1.1-2.14,0-4.2,0-6.27,0-9.62,0-19.24-.02-28.87,.03-1.03,0-1.38-.33-1.51-1.3-1.51-10.99-3-21.98-4.6-32.95-1.48-10.14-3.11-20.27-4.66-30.4-.08-.51-.11-1.03-.11-1.55,0-9.18,0-18.37-.03-27.55,0-.58-.32-1.16-.49-1.74-.15,.57-.43,1.14-.43,1.7-.02,30.66-.02,61.33-.02,91.99,0,.51,0,1.03,0,1.68-.58,.03-1.08,.09-1.58,.09-12.78,0-25.55,0-38.33,0q-1.62,0-1.63-1.6c0-30.94,0-61.89-.01-92.83,0-.59-.16-1.18-.24-1.77-.18,.01-.35,.02-.53,.03-.05,.51-.15,1.03-.15,1.54,0,19.36,.05,38.73-.05,58.09-.02,4.08-.6,8.16-.99,12.23-.74,7.7-1.55,15.4-2.3,23.11-.08,.79-.2,1.22-1.16,1.22-10.34-.03-20.68-.02-31.02-.02-.23,0-.47-.05-.8-.08,0-2.36-.09-4.71,.02-7.04,.44-9.69,.92-19.37,1.4-29.06,.64-12.91,1.29-25.83,1.91-38.74,.2-4.15,.3-8.3,.49-12.44,.05-1.07,.15-2.17,.46-3.19,1.71-5.61,3.46-11.2,5.26-16.78,.47-1.47,1.1-2.91,1.79-4.3,.17-.35,.86-.61,1.32-.62,5.15-.04,10.3-.03,15.45-.03,23.8,0,47.59,0,71.39,0,4.43,0,8.86,0,13.29,0,.43,0,.85,0,1.34,0Z"/>
    <path class="cls-1" d="M27.97,10.88V1.75H102.05V10.88H27.97Z"/>
    <path class="cls-1" d="M140.67,124.64c-.54,0-.97,0-1.39,0-3.39,0-6.78-.06-10.17,0-.96,.01-1.29-.28-1.41-1.24-1.35-10.45-2.69-20.9-4.16-31.33-2.19-15.57-4.48-31.13-6.7-46.69-.48-3.35-.82-6.72-1.22-10.08,.1-.02,.2-.05,.3-.07,.49,1.57,1.04,3.12,1.47,4.71,3.18,11.94,6.23,23.92,9.52,35.83,4.39,15.91,8.96,31.77,13.45,47.66,.1,.34,.18,.68,.31,1.22Z"/>
    <path class="cls-1" d="M89.88,124.59h-8.54v-57.93c.09-.01,.17-.03,.26-.04,2.75,19.27,5.51,38.55,8.29,57.97Z"/>
    <path class="cls-1" d="M105.75,10.92V1.76h12.63c-.94,3.03-1.87,6.05-2.83,9.15h-9.8Z"/>
    <path class="cls-1" d="M13.56,10.9c1.16-2.99,2.26-5.88,3.4-8.76,.08-.2,.39-.45,.59-.45,2.46-.03,4.92-.02,7.57-.02V10.9H13.56Z"/>
    <path class="cls-1" d="M37.75,101.72v22.82h-2.47c.78-7.68,1.55-15.28,2.32-22.87,.05,.02,.1,.03,.15,.05Z"/>
    <path class="cls-1" d="M105.05,10.93h-2.32V1.77h2.32V10.93Z"/>
    <path class="cls-1" d="M27.28,10.88c-1.14,.35-1.49-.08-1.49-1.14,0-2.3-.1-4.61-.15-6.91,0-.35,.03-.69,.06-1.1h1.58V10.88Z"/>
  </g>
  <path id="_선" data-name="선" d="M141.78,123.52c-.43-1.58-.95-3.13-1.41-4.7-6.22-21.25-12.06-42.6-17.52-64.05-2.51-9.85-5.77-19.5-8.63-29.26-.26-.9-.32-1.98-.11-2.89,.9-3.91,1.88-7.8,2.95-11.67,.84-3.03,1.86-6.02,2.8-9.02,.11-.37,.24-.73,.44-1.33-1.01-.11-1.86-.27-2.71-.27-32.86-.01-65.71-.01-98.57-.02-.52,0-1.12,.11-1.53-.1-1.01-.52-1.4,.03-1.71,.8-1.45,3.53-2.99,7.03-4.3,10.61-1.51,4.12-2.94,8.27-4.16,12.49-1.46,5.06-3.43,9.97-3.48,15.42-.07,7.7-.6,15.39-.96,23.09-.4,8.61-.86,17.22-1.25,25.83-.56,12.36-1.09,24.72-1.64,37.08H142.07c-.09-.67-.11-1.35-.29-2ZM105.75,1.76h12.63c-.94,3.03-1.87,6.05-2.83,9.15h-9.8V1.76Zm-3.01,0h2.32V10.93h-2.32V1.77Zm-74.76-.02H102.05V10.88H27.97V1.75Zm-2.28-.02h1.58V10.88c-1.14,.35-1.49-.08-1.49-1.14,0-2.3-.1-4.61-.15-6.91,0-.35,.03-.69,.06-1.1Zm-8.74,.41c.08-.2,.39-.45,.59-.45,2.46-.03,4.92-.02,7.57-.02V10.9H13.56c1.16-2.99,2.26-5.88,3.4-8.76Zm20.79,122.4h-2.47c.78-7.68,1.55-15.28,2.32-22.87,.05,.02,.1,.03,.15,.05v22.82Zm43.59,.05v-57.93c.09-.01,.17-.03,.26-.04,2.75,19.27,5.51,38.55,8.29,57.97h-8.54Zm39.66,.06c-9.62,0-19.24-.02-28.87,.03-1.03,0-1.38-.33-1.51-1.3-1.51-10.99-3-21.98-4.6-32.95-1.48-10.14-3.11-20.27-4.66-30.4-.08-.51-.11-1.03-.11-1.55,0-9.18,0-18.37-.03-27.55,0-.58-.32-1.16-.49-1.74-.15,.57-.43,1.14-.43,1.7-.02,30.66-.02,61.33-.02,91.99v1.68c-.58,.03-1.08,.09-1.58,.09-12.78,0-25.55,0-38.33,0q-1.62,0-1.63-1.6c0-30.94,0-61.89-.01-92.83,0-.59-.16-1.18-.24-1.77-.18,.01-.35,.02-.53,.03-.05,.51-.15,1.03-.15,1.54,0,19.36,.05,38.73-.05,58.09-.02,4.08-.6,8.16-.99,12.23-.74,7.7-1.55,15.4-2.3,23.11-.08,.79-.2,1.22-1.16,1.22-10.34-.03-20.68-.02-31.02-.02-.23,0-.47-.05-.8-.08,0-2.36-.09-4.71,.02-7.04,.44-9.69,.92-19.37,1.4-29.06,.64-12.91,1.29-25.83,1.91-38.74,.2-4.15,.3-8.3,.49-12.44,.05-1.07,.15-2.17,.46-3.19,1.71-5.61,3.46-11.2,5.26-16.78,.47-1.47,1.1-2.91,1.79-4.3,.17-.35,.86-.61,1.32-.62,5.15-.04,10.3-.03,15.45-.03,23.8,0,47.59,0,71.39,0,4.43,0,8.86,0,13.29,0h1.34c-.91,3.22-1.66,6.32-2.67,9.34-.63,1.87-.48,3.54,.2,5.32,1.74,4.57,1.97,9.43,2.65,14.2,2.13,15.02,4.35,30.03,6.44,45.06,1.73,12.42,3.32,24.85,4.98,37.28,.04,.3,.04,.61,.06,1.1-2.14,0-4.2,0-6.27,0Zm18.28,0c-3.39-.01-6.78-.06-10.17,0-.96,.01-1.29-.28-1.41-1.24-1.35-10.45-2.69-20.9-4.16-31.33-2.19-15.57-4.48-31.13-6.7-46.69-.48-3.35-.82-6.72-1.22-10.08,.1-.02,.2-.05,.3-.07,.49,1.57,1.04,3.12,1.47,4.71,3.18,11.94,6.23,23.92,9.52,35.83,4.39,15.91,8.96,31.77,13.45,47.66,.1,.34,.18,.68,.31,1.22-.54,0-.97,0-1.39,0Z"/>
</svg>