<?xml version="1.0" encoding="UTF-8"?>
<svg id="_슬렉스_이미지" data-name="슬렉스 이미지" xmlns="http://www.w3.org/2000/svg" viewBox="0 0 130.27 113.15">
  <defs>
    <style>
      .cls-1 {
        fill: #fff;
      }
    </style>
  </defs>
  <g id="_색" data-name="색">
    <g>
      <path class="cls-1" d="M60.83,113.15H12.93c.01-7.94-.02-15.88,.05-23.82,.09-10.13,.24-20.27,.38-30.4,.09-6.54,.23-13.08,.29-19.62,.02-1.55,.17-2.98,.81-4.47,2.88-6.62,5.59-13.31,8.33-19.99,.33-.8,.73-1.15,1.65-1.14,5.27,.05,10.54,.02,15.8,.03,.38,0,.77,.03,1.25,.06v27.32h11.88V13.82h44.63c.54,3.33,1.03,6.55,1.58,9.77,2.43,14.1,4.85,28.2,7.32,42.3,1.52,8.72,3.09,17.42,4.7,26.12,1.3,7.05,2.69,14.09,4.04,21.14h-40.47c-.48-1.22-.99-2.43-1.44-3.67-4.48-12.19-8.95-24.39-13.41-36.59-.05-.14-.04-.31-.07-.54,.18,.09,.27,.11,.32,.16,4.52,3.86,9.04,7.72,13.57,11.57,.34,.28,.76,.46,1.15,.69,.1-.13,.2-.26,.31-.39-.31-.36-.58-.77-.94-1.08-3.89-3.31-7.79-6.6-11.69-9.9-2.88-2.43-5.37-5.28-8.68-7.26-5.64-3.38-11.09-7.09-16.68-10.56-2.94-1.83-6.01-3.47-9.05-5.14-.28-.15-.76,.04-1.14,.07,.13,.33,.18,.76,.42,.98,.47,.42,1.03,.76,1.59,1.06,9.01,4.69,17.53,10.17,25.84,15.97,.26,.18,.54,.44,.83,.46,1.14,.05,1.55,.87,1.89,1.74,1.27,3.27,2.53,6.55,3.77,9.83,.15,.4,.24,.86,.22,1.28-.17,4.42-.4,8.85-.56,13.27-.22,6.02-.41,12.04-.61,18.06Z"/>
      <path class="cls-1" d="M128.83,113.15h-11.97c-.03-.39-.02-.79-.09-1.18-2.67-14.42-5.43-28.82-8-43.26-2.86-16.04-5.57-32.11-8.33-48.18-.38-2.22-.66-4.46-.99-6.73h13.32c.08,.43,.17,.78,.21,1.13,.65,6.54,1.17,13.1,1.97,19.63,1.03,8.38,1.99,16.79,3.52,25.09,2.83,15.44,6.05,30.81,9.08,46.22,.48,2.42,.86,4.85,1.29,7.28Z"/>
      <path class="cls-1" d="M11.49,113.15H1.44c-.07-.95-.21-1.9-.21-2.85,.04-9.57,.02-19.15,.18-28.72,.15-8.93,.48-17.86,.79-26.79,.27-7.69,.63-15.38,.94-23.07,.03-.83-.15-1.72,.09-2.48,1.57-4.9,3.25-9.76,4.86-14.64,.23-.7,.6-.89,1.3-.88,3.79,.03,7.58,.01,11.37,.02,.29,0,.58,.07,.96,.12-.17,.44-.28,.78-.41,1.1-2.67,6.45-5.32,12.9-8.03,19.33-.72,1.72-1.03,3.4-.93,5.29,.17,2.98,.08,5.98,0,8.97-.25,9.65-.67,19.3-.78,28.95-.15,11.89-.06,23.78-.08,35.67Z"/>
      <path class="cls-1" d="M88,1.38V12.25H53.17V1.38h34.83Z"/>
      <path class="cls-1" d="M42.83,40V13.73c2.94,0,5.72-.01,8.49,.03,.19,0,.5,.44,.54,.71,.09,.67,.07,1.35,.08,2.03,.02,7.57,.04,15.14,.06,22.71,0,.23-.04,.47-.06,.78h-9.1Z"/>
      <path class="cls-1" d="M95,12.28c.18-3.57,.33-6.99,.58-10.4,.02-.3,.67-.77,1.04-.78,1.39-.05,2.79,.1,4.18,.11,4.07,.05,8.13,.07,12.2,.1,.43,0,.87,0,1.42,0-.5,3.72-3.08,6.98-1.68,10.97h-17.73Z"/>
      <path class="cls-1" d="M41.4,12.28h-13.93V1.39h13.93V12.28Z"/>
      <path class="cls-1" d="M21.65,1.31V12.42H9.11c.03-.36,0-.57,.06-.74,1.09-3.12,2.22-6.23,3.29-9.36,.26-.76,.65-1.05,1.47-1.03,2.55,.06,5.09,.02,7.72,.02Z"/>
      <path class="cls-1" d="M42.89,1.31c2.68,0,5.38-.02,8.08,.03,.25,0,.69,.44,.7,.67,.05,3.38,.03,6.76,.03,10.23h-8.8V1.31Z"/>
      <path class="cls-1" d="M89.01,1.37h5.58c-.18,3.64-.36,7.2-.54,10.86h-5.04V1.37Z"/>
      <path class="cls-1" d="M22.72,12.56V1.37h3.82c0,1.85,.02,3.67,0,5.49-.03,1.59-.13,3.19-.15,4.78,0,.66-.25,.94-.91,.93-.91-.02-1.82,0-2.75,0Z"/>
    </g>
  </g>
  <g id="_선" data-name="선">
    <path d="M130.24,112.56c-2.81-14.11-5.62-28.22-8.45-42.32-2.24-11.14-4.14-22.33-5.35-33.64-.93-8.7-1.81-17.41-2.66-26.12-.09-.96,.04-1.99,.3-2.93,.63-2.34,1.39-4.64,2.17-7.21h-3.37c-32.68,0-65.36,0-98.04,0-.44,0-.94,.1-1.3-.08-1.19-.58-1.72-.12-2.11,1.01C8.31,10.35,5.15,19.42,2.04,28.51c-.24,.7-.29,1.49-.31,2.24-.05,2.35,.04,4.7-.07,7.05-.43,9.16-1.16,18.32-1.33,27.48-.29,15.95-.24,31.91-.33,47.87H1.44c-.07-.95-.21-1.9-.21-2.85,.04-9.57,.02-19.15,.18-28.72,.15-8.93,.48-17.86,.79-26.79,.27-7.69,.63-15.38,.94-23.07,.03-.83-.15-1.72,.09-2.48,1.57-4.9,3.25-9.76,4.86-14.64,.23-.7,.6-.89,1.3-.88,3.79,.03,7.58,.01,11.37,.02,.29,0,.58,.07,.96,.12-.17,.44-.28,.78-.41,1.1-2.67,6.45-5.32,12.9-8.03,19.33-.72,1.72-1.03,3.4-.93,5.29,.17,2.98,.08,5.98,0,8.97-.25,9.65-.67,19.3-.78,28.95-.15,11.89-.06,23.78-.08,35.67h1.44c.01-7.94-.02-15.88,.05-23.82,.09-10.13,.24-20.27,.38-30.4,.09-6.54,.23-13.08,.29-19.62,.02-1.55,.17-2.98,.81-4.47,2.88-6.62,5.59-13.31,8.33-19.99,.33-.8,.73-1.15,1.65-1.14,5.27,.05,10.54,.02,15.8,.03,.38,0,.77,.03,1.25,.06v27.32h11.88V13.82h44.63c.54,3.33,1.03,6.55,1.58,9.77,2.43,14.1,4.85,28.2,7.32,42.3,1.52,8.72,3.09,17.42,4.7,26.12,1.3,7.05,2.69,14.09,4.04,21.14h1.2c-.03-.39-.02-.79-.09-1.18-2.67-14.42-5.43-28.82-8-43.26-2.86-16.04-5.57-32.11-8.33-48.18-.38-2.22-.66-4.46-.99-6.73h13.32c.08,.43,.17,.78,.21,1.13,.65,6.54,1.17,13.1,1.97,19.63,1.03,8.38,1.99,16.79,3.52,25.09,2.83,15.44,6.05,30.81,9.08,46.22,.48,2.42,.86,4.85,1.29,7.28h1.44c0-.2,0-.4-.03-.59ZM21.65,12.42H9.11c.03-.36,0-.57,.06-.74,1.09-3.12,2.22-6.23,3.29-9.36,.26-.76,.65-1.05,1.47-1.03,2.55,.06,5.09,.02,7.72,.02V12.42Zm4.88-5.56c-.03,1.59-.13,3.19-.15,4.78,0,.66-.25,.94-.91,.93-.91-.02-1.82,0-2.75,0V1.37h3.82c0,1.85,.02,3.67,0,5.49Zm14.86,5.43h-13.93V1.39h13.93V12.28Zm1.49-10.97c2.68,0,5.38-.02,8.08,.03,.25,0,.69,.44,.7,.67,.05,3.38,.03,6.76,.03,10.23h-8.8V1.31Zm9.04,38.69h-9.1V13.73c2.94,0,5.72-.01,8.49,.03,.19,0,.5,.44,.54,.71,.09,.67,.07,1.35,.08,2.03,.02,7.57,.04,15.14,.06,22.71,0,.23-.04,.47-.06,.78ZM88,12.25H53.17V1.38h34.83V12.25Zm6.05-.02h-5.04V1.37h5.58c-.18,3.64-.36,7.2-.54,10.86Zm18.68,.05h-17.73c.18-3.57,.33-6.99,.58-10.4,.02-.3,.67-.77,1.04-.78,1.39-.05,2.79,.1,4.18,.11,4.07,.05,8.13,.07,12.2,.1,.43,0,.87,0,1.42,0-.5,3.72-3.08,6.98-1.68,10.97Z"/>
    <path d="M62.98,73.4c-2.88-2.43-5.37-5.28-8.68-7.26-5.64-3.38-11.09-7.09-16.68-10.56-2.94-1.83-6.01-3.47-9.05-5.14-.28-.15-.76,.04-1.14,.07,.13,.33,.18,.76,.42,.98,.47,.42,1.03,.76,1.59,1.06,9.01,4.69,17.53,10.17,25.84,15.97,.26,.18,.54,.44,.83,.46,1.14,.05,1.55,.87,1.89,1.74,1.27,3.27,2.53,6.55,3.77,9.83,.15,.4,.24,.86,.22,1.28-.17,4.42-.4,8.85-.56,13.27-.22,6.02-.41,12.04-.61,18.06h1.2l1.18-28.06,.17-.02c3.46,9.36,6.92,18.72,10.38,28.08h1.44c-.48-1.22-.99-2.43-1.44-3.67-4.48-12.19-8.95-24.39-13.41-36.59-.05-.14-.04-.31-.07-.54,.18,.09,.27,.11,.32,.16,4.52,3.86,9.04,7.72,13.57,11.57,.34,.28,.76,.46,1.15,.69,.1-.13,.2-.26,.31-.39-.31-.36-.58-.77-.94-1.08-3.89-3.31-7.79-6.6-11.69-9.9Z"/>
  </g>
</svg>