<?xml version="1.0" encoding="UTF-8"?>
<svg id="_조거_이미지" data-name="조거 이미지" xmlns="http://www.w3.org/2000/svg" viewBox="0 0 134.4 114.14">
  <defs>
    <style>
      .cls-1 {
        fill: #fff;
      }
    </style>
  </defs>
  <g id="_색" data-name="색">
    <g>
      <path class="cls-1" d="M132.96,114.14h-54.14c-.08-.18-.16-.36-.23-.55-4.53-12.36-9.04-24.73-13.61-37.07-1.32-3.56-3.17-6.82-6.32-9.12-2.9-2.12-5.85-4.17-8.77-6.26-.33-.24-.65-.49-1.18-.89,.71,0,1.11-.01,1.5,0,3.66,.16,7.33,.35,10.99,.47,1.89,.06,2.28-.61,1.48-2.36-.4-.87-.96-1.67-1.26-2.56-2.29-6.72-4.5-13.47-6.82-20.18-.45-1.3-.5-2.53-.3-3.85,.31-2.09,.56-4.19,.82-6.29,.39-3.16,.78-6.31,1.17-9.51h34.3c.21,.76,.42,1.45,.6,2.14,1.8,7.03,3.72,14.04,5.33,21.12,.92,4.04,3.19,6.77,6.71,8.67,.77,.42,1.54,.85,2.32,1.24,4.65,2.29,9.59,3.71,14.62,4.87,.86,.2,1.18,.61,1.29,1.42,.24,1.74,.55,3.46,.84,5.19,.5,2.94,1,5.87,1.51,8.84-.24,.07-.38,.12-.53,.17-5.75,1.76-11.17,4.29-16.47,7.1-.88,.47-1.39,1.17-1.13,2.23,2.34,9.57,4.36,19.22,7.54,28.57,.6,1.76,1.31,2.23,3.15,1.79,1.32-.31,2.61-.75,3.88-1.21,3.48-1.28,6.93-2.62,10.56-3.99,.72,3.35,1.43,6.69,2.15,10.03Z"/>
      <path class="cls-1" d="M63.48,114.14H5.03c-.08-1.55-.17-3.11-.24-4.66-.3-6.54-.54-13.08-.89-19.61-.29-5.38-.75-10.74-1.05-16.12-.17-3.07-.17-6.14-.27-9.21-.14-4.23-.3-8.45-.48-12.68-.03-.7,.25-.97,.89-1.15,1.92-.53,3.85-1.07,5.74-1.7,3.01-.99,5.89-2.27,8.39-4.26,2.37-1.89,3.99-4.25,4.31-7.33,.48-4.52,.93-9.05,1.34-13.57,.24-2.61,.37-5.23,.55-7.9h15.27c-.09,1.25-.22,2.43-.26,3.62-.19,5.1-.34,10.21-.53,15.32-.03,.73-.37,1.51-.2,2.17,1.52,5.66,3.12,11.3,4.7,16.95,.23,.83,.49,1.66,.81,2.76-1.46-.86-2.65-1.64-3.91-2.29-2.15-1.12-4.34-2.2-6.54-3.22-.28-.13-.76,.17-1.14,.27,.22,.32,.37,.77,.67,.93,3.22,1.75,6.49,3.42,9.69,5.21,.78,.43,1.34,1.23,2.04,1.83,.19,.17,.47,.24,.72,.33,.62,.23,1.31,.35,1.85,.7,2.01,1.3,4,2.63,5.95,4.03,2.17,1.56,4.43,3.04,6.38,4.84,3.03,2.78,4.83,6.11,4.74,10.51-.2,9.94-.07,19.88-.07,29.82,0,1.48-.02,2.95-.02,4.43Z"/>
      <path class="cls-1" d="M120.83,53.21c-6.38-1.51-12.61-3.28-18.21-6.79-2.51-1.57-4.2-3.64-4.93-6.6-1.96-7.93-4.07-15.82-6.17-23.92,.55,0,.97,0,1.39,0,6.82,0,13.65,.05,20.47-.04,1.32-.02,1.96,.51,2.42,1.57,2.03,4.64,4.06,9.27,6.07,13.92,.18,.42,.25,.93,.23,1.39-.24,5.62-.48,11.24-.77,16.85-.06,1.16-.32,2.31-.51,3.62Z"/>
      <path class="cls-1" d="M42.59,14.4V1.44c1.92,0,3.78-.04,5.63,.05,.21,0,.56,.69,.56,1.06,.02,3.43-.02,6.86-.02,10.29,0,.49,.13,.98,.21,1.48,.21-.01,.42-.03,.63-.04,.14-2.09,.05-4.19,.07-6.29,.02-2.11,0-4.22,0-6.45h33.22V14.4H42.59Z"/>
      <path class="cls-1" d="M22.32,15.89c-.12,2.38-.17,4.6-.37,6.81-.41,4.65-.94,9.29-1.35,13.94-.31,3.44-2.03,5.99-4.78,7.92-3.49,2.46-7.5,3.69-11.53,4.85-.65,.19-1.3,.34-2.1,.55-.04-.47-.08-.84-.09-1.22-.13-4.11-.37-8.22-.34-12.32,.01-1.71,.35-3.51,.96-5.11,1.85-4.82,4.34-9.32,7.31-13.55,.05-.07,.14-.12,.14-.19,.23-1.94,1.64-1.71,2.99-1.69,2.55,.03,5.11,0,7.67,0,.43,0,.85,0,1.48,0Z"/>
      <path class="cls-1" d="M50.38,15.98c-.22,2.56-.44,5.02-.64,7.48-.3,3.5-.59,6.99-.87,10.49-.03,.31-.05,.65,.04,.95,2.38,7.86,4.77,15.72,7.17,23.57,.07,.22,.16,.44,.31,.85-1.08-.06-2.06-.1-3.03-.17-2.19-.18-4.37-.41-6.56-.55-1.13-.08-1.86-.52-2.18-1.65-1.88-6.68-3.8-13.34-5.65-20.03-.17-.6,.1-1.31,.12-1.97,.23-5.46,.45-10.92,.68-16.38,.04-.83,.14-1.66,.22-2.57h10.39Z"/>
      <path class="cls-1" d="M112.33,88.8c5.34-1.92,10.5-3.78,15.84-5.69,.3,1.47,.6,2.9,.89,4.32,.64,3.2,1.3,6.4,1.86,9.62,.08,.47-.13,1.25-.49,1.52-3.49,2.67-7.45,4.26-11.8,4.82-1.68,.22-2.17-.23-2.65-1.89-1.22-4.2-2.42-8.41-3.66-12.7Z"/>
      <path class="cls-1" d="M87.86,14.42c.17-4.3,.35-8.55,.52-12.89,.49-.04,.84-.1,1.18-.1,4.59,0,9.18,0,13.77,0,.53,0,1.18-.16,1.21,.73,.13,4.06,.27,8.11,.41,12.26h-17.09Z"/>
      <path class="cls-1" d="M41.59,1.58V14.4H23.63c.52-2.24,1.03-4.41,1.54-6.57,.43-1.82,.89-3.64,1.31-5.47,.13-.54,.25-.94,.97-.94,4.55,.03,9.1,.02,13.66,.03,.11,0,.22,.06,.49,.14Z"/>
      <path class="cls-1" d="M106.99,79.08c1.16,1.62,2.36,3.2,3.46,4.86,.55,.83,1.23,1.13,2.12,.88,1.49-.42,3.01-.82,4.43-1.42,3.3-1.4,6.56-2.91,10.04-4.47,.3,1.09,.58,2.09,.88,3.16-2.77,1.03-5.46,2.03-8.14,3.02-2.13,.78-4.27,1.56-6.42,2.32-1.62,.58-2,1.26-1.52,2.96,1.09,3.88,2.19,7.75,3.32,11.62,.53,1.81,1.34,2.46,3.24,2.32,1.45-.11,2.94-.38,4.31-.87,3.02-1.08,6.19-1.89,8.67-4.46,.23,.9,.48,1.53,.52,2.18,.02,.37-.19,.9-.48,1.12-.66,.51-1.4,.99-2.17,1.29-3.6,1.42-7.22,2.77-10.84,4.14-.67,.25-1.36,.45-2.06,.63-1.53,.38-1.83,.24-2.26-1.26-1.45-5.06-2.92-10.11-4.29-15.2-1.02-3.81-1.89-7.67-2.82-11.5-.1-.42-.16-.84-.24-1.26,.09-.02,.17-.04,.26-.06Z"/>
      <path class="cls-1" d="M128.47,77.11c-2.7,1.27-5.29,2.57-7.94,3.72-2.41,1.05-4.88,1.93-7.32,2.91-1.07,.42-1.72,.11-2.35-.87-1.13-1.77-2.43-3.43-3.73-5.23,.66-.35,1.2-.69,1.77-.94,4.57-1.97,9.12-3.98,13.73-5.85,2.09-.85,2.6-.56,3.6,1.41,.6,1.17,1.15,2.37,1.71,3.55,.17,.36,.3,.73,.54,1.3Z"/>
      <path class="cls-1" d="M61.27,59.31h-3.7c-.11-.56-.17-1.06-.32-1.53-2.27-7.52-4.56-15.03-6.79-22.56-.22-.74-.2-1.58-.13-2.36,.45-5.44,.93-10.88,1.41-16.33,.01-.15,.06-.31,.1-.54h3.09c-.31,2.63-.6,5.19-.92,7.75-.41,3.32-.9,6.64-1.22,9.97-.07,.76,.34,1.58,.6,2.34,2.17,6.51,4.34,13.01,6.53,19.51,.4,1.2,.87,2.39,1.36,3.75Z"/>
      <path class="cls-1" d="M105.87,14.39c-.12-4.32-.25-8.53-.37-12.86h11.11c-1.34,4.18-2.63,8.33-1.91,12.86h-8.83Z"/>
      <path class="cls-1" d="M15.19,1.49h8.74c-.05,.42-.06,.76-.13,1.1-.76,3.63-1.51,7.26-2.33,10.88-.09,.39-.55,.98-.86,.99-2.99,.07-5.98,.04-9.12,.04,1.25-4.4,2.47-8.67,3.71-13.01Z"/>
      <path class="cls-1" d="M83.89,1.49h3.52c-.14,4.33-.28,8.61-.41,12.94h-3.11V1.49Z"/>
      <path class="cls-1" d="M25.7,1.57c-1.01,4.2-2.01,8.41-3.02,12.61-.12-.03-.25-.06-.37-.09,1.02-4.2,1.67-8.49,2.81-12.66,.19,.05,.39,.09,.58,.14Z"/>
    </g>
  </g>
  <path id="_선" data-name="선" d="M132.24,104.46c-.17-.73-.24-1.32,.3-1.99,.31-.39,.35-1.13,.25-1.67-.28-1.55-.73-3.07-1.05-4.61-1.11-5.27-2.13-10.55-3.33-15.8-.31-1.35-.54-2.34,1.12-2.81,.16-.04,.32-.7,.21-.95-.18-.42-.64-.71-.88-1.12-1.17-1.98-2.32-3.98-3.46-5.98-.12-.2-.27-.41-.3-.64-.73-4.81-1.88-9.6-2.07-14.43-.28-7.41,.12-14.84,.22-22.26,0-.39,.01-.81-.13-1.16-1.65-3.97-3.34-7.93-4.99-11.9-.44-1.07-.65-2.25-1.21-3.25-1.19-2.13-1.54-4.35-1-6.69,.63-2.72,1.39-5.4,2.09-8.1,.08-.32,.14-.65,.22-1.09-.9,.04-1.64,.1-2.38,.1-25.87,0-51.75,0-77.62,0-7.38,0-14.75,0-22.13,.02-.47,0-1.14,.1-1.38,.41-.54,.69-.95,1.52-1.29,2.35-1.58,3.86-1.81,8.11-4.07,11.84-2.91,4.8-5.24,9.95-7.86,14.92C.49,31.52-.06,33.48,0,35.59c.23,7.9,.47,15.8,.75,23.69,.15,4.19,.37,8.37,.63,12.55,.31,4.98,.74,9.94,1.03,14.92,.28,4.66,.46,9.33,.66,13.99,.19,4.46,.35,8.93,.52,13.4h1.44c-.08-1.55-.17-3.11-.24-4.66-.3-6.54-.54-13.08-.89-19.61-.29-5.38-.75-10.74-1.05-16.12-.17-3.07-.17-6.14-.27-9.21-.14-4.23-.3-8.45-.48-12.68-.03-.7,.25-.97,.89-1.15,1.92-.53,3.85-1.07,5.74-1.7,3.01-.99,5.89-2.27,8.39-4.26,2.37-1.89,3.99-4.25,4.31-7.33,.48-4.52,.93-9.05,1.34-13.57,.24-2.61,.37-5.23,.55-7.9h15.27c-.09,1.25-.22,2.43-.26,3.62-.19,5.1-.34,10.21-.53,15.32-.03,.73-.37,1.51-.2,2.17,1.52,5.66,3.12,11.3,4.7,16.95,.23,.83,.49,1.66,.81,2.76-1.46-.86-2.65-1.64-3.91-2.29-2.15-1.12-4.34-2.2-6.54-3.22-.28-.13-.76,.17-1.14,.27,.22,.32,.37,.77,.67,.93,3.22,1.75,6.49,3.42,9.69,5.21,.78,.43,1.34,1.23,2.04,1.83,.19,.17,.47,.24,.72,.33,.62,.23,1.31,.35,1.85,.7,2.01,1.3,4,2.63,5.95,4.03,2.17,1.56,4.43,3.04,6.38,4.84,3.03,2.78,4.83,6.11,4.74,10.51-.2,9.94-.07,19.88-.07,29.82,0,1.48-.02,2.95-.02,4.43h1.44v-33.36c.07-.03,.13-.05,.2-.08,.17,.37,.36,.72,.49,1.1,3.53,9.74,7.05,19.48,10.57,29.21,.38,1.05,.8,2.08,1.2,3.12h1.44c-.08-.18-.16-.36-.23-.55-4.53-12.36-9.04-24.73-13.61-37.07-1.32-3.56-3.17-6.82-6.32-9.12-2.9-2.12-5.85-4.17-8.77-6.26-.33-.24-.65-.49-1.18-.89,.71,0,1.11-.01,1.5,0,3.66,.16,7.33,.35,10.99,.47,1.89,.06,2.28-.61,1.48-2.36-.4-.87-.96-1.67-1.26-2.56-2.29-6.72-4.5-13.47-6.82-20.18-.45-1.3-.5-2.53-.3-3.85,.31-2.09,.56-4.19,.82-6.29,.39-3.16,.78-6.31,1.17-9.51h34.3c.21,.76,.42,1.45,.6,2.14,1.8,7.03,3.72,14.04,5.33,21.12,.92,4.04,3.19,6.77,6.71,8.67,.77,.42,1.54,.85,2.32,1.24,4.65,2.29,9.59,3.71,14.62,4.87,.86,.2,1.18,.61,1.29,1.42,.24,1.74,.55,3.46,.84,5.19,.5,2.94,1,5.87,1.51,8.84-.24,.07-.38,.12-.53,.17-5.75,1.76-11.17,4.29-16.47,7.1-.88,.47-1.39,1.17-1.13,2.23,2.34,9.57,4.36,19.22,7.54,28.57,.6,1.76,1.31,2.23,3.15,1.79,1.32-.31,2.61-.75,3.88-1.21,3.48-1.28,6.93-2.62,10.56-3.99,.72,3.35,1.43,6.69,2.15,10.03h1.44c-.72-3.23-1.42-6.46-2.16-9.69ZM116.61,1.53c-1.34,4.18-2.63,8.33-1.91,12.86h-8.83c-.12-4.32-.25-8.53-.37-12.86h11.11Zm-101.42-.04h8.74c-.05,.42-.06,.76-.13,1.1-.76,3.63-1.51,7.26-2.33,10.88-.09,.39-.55,.98-.86,.99-2.99,.07-5.98,.04-9.12,.04,1.25-4.4,2.47-8.67,3.71-13.01Zm6.77,21.21c-.41,4.65-.94,9.29-1.35,13.94-.31,3.44-2.03,5.99-4.78,7.92-3.49,2.46-7.5,3.69-11.53,4.85-.65,.19-1.3,.34-2.1,.55-.04-.47-.08-.84-.09-1.22-.13-4.11-.37-8.22-.34-12.32,.01-1.71,.35-3.51,.96-5.11,1.85-4.82,4.34-9.32,7.31-13.55,.05-.07,.14-.12,.14-.19,.23-1.94,1.64-1.71,2.99-1.69,2.55,.03,5.11,0,7.67,0h1.48c-.12,2.38-.17,4.6-.37,6.81Zm.73-8.52c-.12-.03-.25-.06-.37-.09,1.02-4.2,1.67-8.49,2.81-12.66l.58,.14c-1.01,4.2-2.01,8.41-3.02,12.61Zm.95,.21c.52-2.24,1.03-4.41,1.54-6.57,.43-1.82,.89-3.64,1.31-5.47,.13-.54,.25-.94,.97-.94,4.55,.03,9.1,.02,13.66,.03,.11,0,.22,.06,.49,.14V14.4H23.63Zm29.73,44.75c-2.19-.18-4.37-.41-6.56-.55-1.13-.08-1.86-.52-2.18-1.65-1.88-6.68-3.8-13.34-5.65-20.03-.17-.6,.1-1.31,.12-1.97,.23-5.46,.45-10.92,.68-16.38,.04-.83,.14-1.66,.22-2.57h10.39c-.22,2.56-.44,5.02-.64,7.48-.29,3.5-.59,6.99-.87,10.49-.03,.31-.05,.65,.04,.95,2.38,7.86,4.77,15.72,7.17,23.57,.07,.22,.16,.44,.31,.85-1.08-.06-2.06-.1-3.03-.17Zm.64-35.41c-.41,3.32-.9,6.64-1.22,9.97-.07,.76,.34,1.58,.6,2.34,2.17,6.51,4.34,13.01,6.53,19.51,.4,1.2,.87,2.39,1.36,3.75h-3.7c-.11-.56-.17-1.06-.32-1.53-2.27-7.52-4.56-15.03-6.79-22.56-.22-.74-.2-1.58-.13-2.36,.45-5.44,.93-10.88,1.41-16.33,.01-.15,.06-.31,.1-.54h3.09c-.31,2.63-.6,5.19-.92,7.75Zm28.88-9.34H42.59V1.44c1.92,0,3.78-.04,5.63,.05,.21,0,.56,.69,.56,1.06,.02,3.43-.02,6.86-.02,10.29,0,.49,.13,.98,.21,1.48,.21-.01,.42-.03,.63-.04,.14-2.09,.05-4.19,.07-6.29,.02-2.11,0-4.22,0-6.45h33.22V14.4Zm4.11,.03h-3.11V1.49h3.52c-.14,4.33-.28,8.61-.41,12.94Zm.87-.01c.17-4.3,.35-8.55,.52-12.89,.49-.04,.84-.1,1.18-.1,4.59,0,9.18,0,13.77,0,.53,0,1.18-.16,1.21,.73,.13,4.06,.27,8.11,.41,12.26h-17.09Zm33.48,35.17c-.06,1.16-.32,2.31-.51,3.62-6.38-1.51-12.61-3.28-18.21-6.79-2.51-1.57-4.2-3.64-4.93-6.6-1.96-7.93-4.07-15.82-6.17-23.92h1.39c6.82,0,13.65,.05,20.47-.04,1.32-.02,1.96,.51,2.42,1.57,2.03,4.64,4.06,9.27,6.07,13.92,.18,.42,.25,.93,.23,1.39-.24,5.62-.48,11.24-.77,16.85Zm7.72,37.84c.64,3.2,1.3,6.4,1.86,9.62,.08,.47-.13,1.25-.49,1.52-3.49,2.67-7.45,4.26-11.8,4.82-1.68,.22-2.17-.23-2.65-1.89-1.22-4.2-2.42-8.41-3.66-12.7,5.34-1.92,10.5-3.78,15.84-5.69,.3,1.47,.6,2.9,.89,4.32Zm-20.17-10.73c4.57-1.97,9.12-3.98,13.73-5.85,2.09-.85,2.6-.56,3.6,1.41,.6,1.17,1.15,2.37,1.71,3.55,.17,.36,.3,.73,.54,1.3-2.7,1.27-5.29,2.57-7.94,3.72-2.41,1.05-4.88,1.93-7.32,2.91-1.07,.42-1.72,.11-2.35-.87-1.13-1.77-2.43-3.43-3.73-5.23,.66-.35,1.2-.69,1.77-.94Zm22.53,25.61c-.66,.51-1.4,.99-2.17,1.29-3.6,1.42-7.22,2.77-10.84,4.14-.67,.25-1.36,.45-2.06,.63-1.53,.38-1.83,.24-2.26-1.26-1.45-5.06-2.92-10.11-4.29-15.2-1.02-3.81-1.89-7.67-2.82-11.5-.1-.42-.16-.84-.24-1.26,.09-.02,.17-.04,.26-.06,1.16,1.62,2.36,3.2,3.46,4.86,.55,.83,1.23,1.13,2.12,.88,1.49-.42,3.01-.82,4.43-1.42,3.3-1.4,6.56-2.91,10.04-4.47,.3,1.09,.58,2.09,.88,3.16-2.77,1.03-5.46,2.03-8.14,3.02-2.13,.78-4.27,1.56-6.42,2.32-1.62,.58-2,1.26-1.52,2.96,1.09,3.88,2.19,7.75,3.32,11.62,.53,1.81,1.34,2.46,3.24,2.32,1.45-.11,2.94-.38,4.31-.87,3.02-1.08,6.19-1.89,8.67-4.46,.23,.9,.48,1.53,.52,2.18,.02,.37-.19,.9-.48,1.12Z"/>
</svg>